<svg width="16" height="16" fill="none" xmlns="http://www.w3.org/2000/svg"><path d="M9.177 4.97L3.996 8.045a.174.174 0 00-.061.234L5 10 0 8.624 1 3.5l1.273 1.82c.046.081.148.109.227.062l3.963-2.353A2.616 2.616 0 007.724.789C7.725.514 7.727.236 7.73 0l1.873 3.336c.32.571.13 1.304-.426 1.634zM16 7.376l-1 5.595-1.273-2.29a.164.164 0 00-.227-.063l-3.963 2.353a2.616 2.616 0 00-1.261 2.24c-.001.275-.003.553-.006.789l-1.873-3.336a1.216 1.216 0 01.426-1.634l5.181-3.075a.173.173 0 00.06-.234L11 6l5 1.376z" fill="#C6C7CA"/></svg>