<svg width="22" height="12" fill="#282B37" xmlns="http://www.w3.org/2000/svg"><path d="M4.412.099C2.146.099.32 2.527.32 5.516c0 3.15 1.781 5.564 4.092 5.564 2.267 0 4.078-2.429 4.078-5.49C8.49 2.526 6.694.098 4.412.098zm-.014 2.208c1.045 0 1.737 1.34 1.737 3.326 0 1.988-.692 3.327-1.723 3.327-1.045 0-1.736-1.325-1.736-3.37 0-1.944.706-3.283 1.722-3.283zM9.754 10.8h2.252V6.81h2.488V4.854h-2.488V2.44H14.7V.38H9.754V10.8zM21.818.894c-.81-.56-1.472-.795-2.223-.795-2.34 0-4.15 2.399-4.15 5.505 0 3.062 1.81 5.476 4.106 5.476.707 0 1.354-.206 2.076-.677l.265-2.459c-.898.81-1.296 1.016-2.002 1.016-1.281 0-2.09-1.31-2.09-3.386 0-2.001.765-3.267 1.987-3.267.574 0 1.06.265 1.766.942l.265-2.355z"/></svg>