<svg width="21" height="12" fill="#282B37" xmlns="http://www.w3.org/2000/svg"><path d="M.226 10.8h2.252V7.518C4.48 7.444 5.7 6.075 5.7 3.926 5.7 1.644 4.376.378 1.976.378H.226V10.8zm2.252-8.36c.692.043 1.03.544 1.03 1.5 0 .957-.338 1.443-1.03 1.502V2.439zm4.239 8.36h4.946V8.74H8.968V.377H6.717V10.8zM16.14.099c-2.268 0-4.093 2.428-4.093 5.417 0 3.15 1.781 5.564 4.092 5.564 2.267 0 4.078-2.429 4.078-5.49 0-3.063-1.796-5.491-4.078-5.491zm-.015 2.208c1.045 0 1.737 1.34 1.737 3.326 0 1.988-.692 3.327-1.723 3.327-1.045 0-1.737-1.325-1.737-3.37 0-1.944.707-3.283 1.723-3.283z"/></svg>