<svg width="16" height="16" fill="none" xmlns="http://www.w3.org/2000/svg"><path d="M3.54 12.45a7.83 7.83 0 0 1-2.268-4.769 5.017 5.017 0 0 0-1.059 3.103 5.09 5.09 0 0 0 .476 2.14l-.64 1.892a.897.897 0 0 0 .21.921.866.866 0 0 0 .907.214l1.862-.65a4.88 4.88 0 0 0 2.106.482 4.844 4.844 0 0 0 3.105-1.116A7.614 7.614 0 0 1 3.54 12.45z" fill="#AAA" fill-opacity=".7"/><path d="M15.943 12.63l-.929-2.747c.448-.93.685-1.965.686-3.006a6.882 6.882 0 0 0-1.94-4.82A6.662 6.662 0 0 0 9.051.002a6.653 6.653 0 0 0-4.889 2.01 6.87 6.87 0 0 0-1.979 4.966A6.872 6.872 0 0 0 4.21 11.76a6.663 6.663 0 0 0 4.733 1.972h.01a6.693 6.693 0 0 0 2.96-.697l2.704.944a1.03 1.03 0 0 0 1.078-.253c.285-.29.38-.71.25-1.096zM9.595 9.25h-3.49a.48.48 0 0 1-.476-.484.48.48 0 0 1 .476-.484h3.49a.48.48 0 0 1 .476.484.48.48 0 0 1-.476.484zm2.184-1.99H6.105a.48.48 0 0 1-.476-.484.48.48 0 0 1 .476-.484h5.674a.48.48 0 0 1 .476.484.48.48 0 0 1-.476.484zm0-1.99H6.105a.48.48 0 0 1-.476-.483.48.48 0 0 1 .476-.484h5.674a.48.48 0 0 1 .476.484.48.48 0 0 1-.476.483z" fill="#AAA" fill-opacity=".7"/></svg>