<svg width="40" height="40" fill="none" xmlns="http://www.w3.org/2000/svg"><g opacity=".2" fill="#fff"><path d="M38.065 6.452h-3.226V4.516a1.938 1.938 0 0 0-1.936-1.935H16.325L12.94.325A1.929 1.929 0 0 0 11.868 0H1.935A1.938 1.938 0 0 0 0 1.935V21.29a3.23 3.23 0 0 0 3.226 3.226h8.729a10.322 10.322 0 0 0 6.11 3.683v1.478h-1.29v7.097A3.23 3.23 0 0 0 20 40a3.23 3.23 0 0 0 3.226-3.226v-7.097h-1.29V28.2a10.324 10.324 0 0 0 6.11-3.683h8.728A3.23 3.23 0 0 0 40 21.29V8.387a1.938 1.938 0 0 0-1.935-1.935zM1.934 1.29h9.933c.127 0 .252.038.358.109l3.707 2.472h16.97c.356 0 .645.29.645.645v.645H1.29V1.935c0-.355.29-.645.645-.645zm20 35.484A1.938 1.938 0 0 1 20 38.71a1.938 1.938 0 0 1-1.936-1.936v-5.806h3.872v5.806zm-1.29-7.097h-1.29v-1.323c.214.014.427.033.645.033.218 0 .43-.02.645-.033v1.323zM20 27.097c-4.98 0-9.032-4.052-9.032-9.033 0-4.98 4.051-9.032 9.032-9.032 4.98 0 9.032 4.052 9.032 9.032 0 4.981-4.051 9.033-9.032 9.033zm10.323-9.033c0-5.691-4.631-10.322-10.323-10.322-5.691 0-10.323 4.631-10.323 10.322 0 1.882.514 3.641 1.397 5.162H3.226A1.938 1.938 0 0 1 1.29 21.29V6.452h32.258V21.29c0 .73.253 1.395.662 1.936h-5.284a10.246 10.246 0 0 0 1.397-5.162zm8.387 3.226a1.938 1.938 0 0 1-1.936 1.936 1.938 1.938 0 0 1-1.935-1.936V7.742h3.226c.355 0 .645.29.645.645V21.29z"/><path d="M2.58 2.58h9.032v1.29H2.58V2.58zM20 10.324c-4.27 0-7.742 3.473-7.742 7.742S15.73 25.807 20 25.807s7.742-3.473 7.742-7.742c0-4.27-3.473-7.742-7.742-7.742zm0 14.193a6.459 6.459 0 0 1-6.452-6.451A6.459 6.459 0 0 1 20 11.613a6.459 6.459 0 0 1 6.451 6.452A6.459 6.459 0 0 1 20 24.516z"/><path d="M20.646 13.549a.645.645 0 1 1-1.29 0 .645.645 0 0 1 1.29 0zm-2.582 3.225h1.29v5.162h-1.29v1.29h3.871v-1.29h-1.29v-5.162h1.29v-1.29h-3.87v1.29zM2.58 7.742h5.807v1.29H2.58v-1.29zm0 2.58h5.807v1.291H2.58v-1.29zm4.518 2.581h1.29v1.29h-1.29v-1.29zm-4.518 0h3.226v1.29H2.58v-1.29z"/></g></svg>