<svg width="16" height="16" fill="none" xmlns="http://www.w3.org/2000/svg"><g opacity=".7" fill-rule="evenodd" clip-rule="evenodd" fill="#AAA"><path d="M8 11.526a4.65 4.65 0 0 1-1.309-.187L8 14.273l1.306-2.933A4.65 4.65 0 0 1 8 11.526zM1.64 13.39a1.427 1.427 0 0 1-.159-.756l.051-.759-.486-.04a7.134 7.134 0 0 0-1.044 3.633A.478.478 0 0 0 .47 16h4.78c-.69-.46-3.296-2.013-3.609-2.61zm12.826-1.515l.051.76a1.415 1.415 0 0 1-.662 1.294L10.75 16l4.78-.001a.475.475 0 0 0 .467-.483 7.134 7.134 0 0 0-1.044-3.681l-.488.041z"/><path d="M7.431 15.306L5.393 10.73a4.89 4.89 0 0 1-.791-.66 5.004 5.004 0 0 1-1.204-2.06L.216 10.004c-.354.213-.24.77.167.803l2.146.184-.114 1.708a.437.437 0 0 0 .212.406l4.238 2.825c.195.13.455.073.581-.127a.444.444 0 0 0 .03-.417l-.045-.08zm6.152-2.607l-.114-1.708 2.145-.246c.406-.034.533-.591.18-.805l-3.192-1.93a5.003 5.003 0 0 1-1.204 2.061 4.88 4.88 0 0 1-.793.662l-2.038 4.573-.044.08a.444.444 0 0 0 .03.417c.126.2.386.258.58.127l4.238-2.825a.437.437 0 0 0 .212-.406zM8 10.559c2.13 0 3.872-1.795 3.872-3.991v-.91H4.127v.91c0 2.196 1.742 3.992 3.872 3.992zM3.187 4.706h9.626a.476.476 0 0 0 .468-.483.476.476 0 0 0-.469-.483h-.823c-.268-1.14-.474-2.537-1.233-3.32-.678-.7-1.167-.361-1.769.056-.284.197-.61.424-.986.424-.364 0-.682-.228-.96-.427-.6-.43-1.089-.782-1.795-.054-.783.808-1.014 2.174-1.247 3.319h-.812a.476.476 0 0 0-.468.483c0 .267.21.483.468.483z"/></g></svg>