<svg fill="none" height="16" width="16" xmlns="http://www.w3.org/2000/svg"><g fill="#aaa" fill-opacity=".7"><path d="M4.335 4.281h-.2L3.76 6.156h.95zm7.583 3.75a4.9 4.9 0 0 0 .77 1.359c.297-.375.598-.815.8-1.359z"/><path d="M14.595 2.844H8.773l1.214 9.74c.021.398-.087.773-.347 1.067L7.584 16h7.01c.776 0 1.407-.63 1.407-1.406V4.28c0-.775-.631-1.437-1.407-1.437zm0 5.187h-.126a5.948 5.948 0 0 1-1.129 2.053c.344.315.713.574 1.079.863a.468.468 0 1 1-.586.731c-.398-.314-.771-.577-1.145-.92-.373.344-.715.606-1.113.92a.468.468 0 1 1-.586-.731c.366-.29.703-.548 1.047-.863a5.914 5.914 0 0 1-1.098-2.053h-.125a.469.469 0 1 1 0-.937h1.406v-.469a.469.469 0 1 1 .938 0v.469h1.438a.469.469 0 1 1 0 .937z"/><path d="M7.63 1.232A1.408 1.408 0 0 0 6.235 0H1.406C.631 0 0 .63 0 1.406v10.375c0 .776.63 1.406 1.406 1.406h7.392c.137-.156.252-.254.257-.458 0-.05-1.419-11.446-1.425-11.497zM5.748 8.96a.469.469 0 0 1-.551-.368l-.3-1.498H3.572l-.3 1.498a.469.469 0 0 1-.92-.184L3.29 3.72a.47.47 0 0 1 .46-.376h.969a.47.47 0 0 1 .46.377l.937 4.687a.47.47 0 0 1-.368.552zm-.271 5.165l.08.643c.054.43.34.87.81 1.09l1.574-1.733z"/></g></svg>