<svg width="16" height="16" fill="none" xmlns="http://www.w3.org/2000/svg"><path d="M12.546 14.5h-1.491l-.303-1.5H5.248l-.303 1.5h-1.49c-.252 0-.455.335-.455.75s.203.75.455.75h9.09c.252 0 .455-.335.455-.75s-.203-.75-.454-.75zM12.687 2.813a.469.469 0 100 .938.469.469 0 000-.938z" fill="#C6C7CA"/><path d="M14.563 0H1.405C.631 0 0 .63 0 1.406v7.969h2.844V7.969c0-.26.21-.469.469-.469h.724c.048-.136.104-.27.166-.401l-.512-.513a.469.469 0 010-.663l1.326-1.326a.469.469 0 01.663 0l.512.513c.132-.063.265-.119.402-.167v-.724c0-.26.21-.469.468-.469h1.875c.26 0 .47.21.47.469v.724c.136.048.27.104.4.167l.513-.513a.469.469 0 01.663 0l1.326 1.326a.469.469 0 010 .663l-.512.513c.062.131.118.265.166.401h.725c.258 0 .468.21.468.469v1.406H16V1.406C16 .631 15.338 0 14.562 0zm-1.876 4.688c-.775 0-1.406-.631-1.406-1.407 0-.775.631-1.406 1.406-1.406.776 0 1.407.63 1.407 1.406 0 .776-.631 1.406-1.406 1.406z" fill="#C6C7CA"/><path d="M6.594 8.906c0 .162.037.318.09.469h2.631c.054-.15.091-.307.091-.469C9.406 8.131 8.776 7.5 8 7.5c-.776 0-1.406.63-1.406 1.406z" fill="#C6C7CA"/><path d="M4.837 8.086a.469.469 0 01-.454.351H3.78v.938h1.937a2.346 2.346 0 01-.062-.469A2.347 2.347 0 018 6.562a2.347 2.347 0 012.344 2.344c0 .16-.03.315-.062.469h1.937v-.938h-.602a.469.469 0 01-.454-.351 3.22 3.22 0 00-.347-.836.469.469 0 01.072-.569l.427-.427-.663-.662-.427.426a.467.467 0 01-.57.072 3.222 3.222 0 00-.835-.347.469.469 0 01-.351-.454v-.601H7.53v.6c0 .215-.145.402-.351.455a3.222 3.222 0 00-.835.347.467.467 0 01-.57-.072l-.427-.426-.663.662.426.427c.151.151.181.386.073.57a3.222 3.222 0 00-.347.835zM0 10.781c0 .776.63 1.406 1.406 1.406h13.156c.776 0 1.438-.63 1.438-1.406v-.469H0v.47z" fill="#C6C7CA"/></svg>