<svg width="16" height="16" fill="none" xmlns="http://www.w3.org/2000/svg"><path d="M15.276 2.276c-.407 0-.724.301-.724.688 0 .172.068.343.18.45-1.221.924-2.556 1.547-4.073 1.783-1.697-1.632-2.24-3.006-2.421-3.865.294-.108.498-.366.498-.645C8.736.301 8.419 0 8.01 0c-.407 0-.724.3-.724.687 0 .3.204.537.475.645-.158.794-.656 2.061-2.082 3.543l-.34.322c-1.515-.236-2.85-.859-4.073-1.782a.673.673 0 0 0 .181-.451c0-.387-.316-.688-.724-.688-.407 0-.724.301-.724.688 0 .386.317.687.724.687.068 0 .136-.021.204-.043.679 1.375 1.131 2.92 1.358 4.617 1.335-.859 3.281-1.481 5.703-1.481 2.421 0 4.368.622 5.703 1.481.226-1.696.679-3.221 1.358-4.617.067.022.135.043.226.043.407 0 .724-.3.724-.687 0-.387-.317-.688-.724-.688z" fill="#CCC"/><path d="M2.196 9.632c-.475.945-.408 1.106-.408 1.106 0 1.633 1.381 2.943 3.1 2.943 1.653 0 3.01-1.246 3.101-2.792C7.876 13.187 6.383 15.14 4.278 16H11.7c-2.105-.859-3.598-2.813-3.712-5.09.09 1.546 1.449 2.792 3.1 2.792 1.72 0 3.101-1.31 3.101-2.942 0 0 .068-.161-.407-1.106C12.38 8.687 10.388 8 7.989 8c-2.398 0-4.367.687-5.793 1.632z" fill="#CCC"/></svg>