<svg fill="#282b37" height="21" width="18" xmlns="http://www.w3.org/2000/svg"><path d="m.508 9.36h1.958v-2.855c1.741-.064 2.804-1.254 2.804-3.123 0-1.984-1.153-3.085-3.239-3.085h-1.523zm1.958-7.27c.602.038.896.473.896 1.305s-.294 1.254-.896 1.306v-2.612zm3.678 7.27h4.3v-1.792h-2.341v-7.27h-1.959zm8.186-9.306c-1.972 0-3.56 2.112-3.56 4.71 0 2.74 1.55 4.839 3.56 4.839 1.97 0 3.545-2.112 3.545-4.774 0-2.663-1.562-4.775-3.546-4.775zm-.014 1.92c.91 0 1.51 1.165 1.51 2.893s-.6 2.893-1.497 2.893c-.909 0-1.51-1.152-1.51-2.931 0-1.69.614-2.855 1.497-2.855zm-12.752 18.906h1.958v-3.84h1.908v3.84h1.958v-9.063h-1.958v3.43h-1.908v-3.43h-1.958zm8.706-9.063-2.136 9.063h1.702l2.138-9.063h-1.702zm2.441 9.063h4.3v-1.792h-2.341v-7.27h-1.96v9.062z"/></svg>