<svg width="16" height="16" fill="none" xmlns="http://www.w3.org/2000/svg"><g opacity=".7" fill="#AAA"><path d="M11.355 12.823L7.595 1.616a.695.695 0 0 0-.34-.394.65.65 0 0 0-.509-.031L.448 3.453a.675.675 0 0 0-.381.35.711.711 0 0 0-.03.527l3.76 11.207c.058.172.18.314.34.394.158.08.341.091.508.031l6.299-2.261a.662.662 0 0 0 .381-.351.71.71 0 0 0 .03-.527zM5.441 2.596a.304.304 0 0 1 .171-.158.29.29 0 0 1 .23.014l.408.205.198-.423a.31.31 0 0 1 .172-.158.29.29 0 0 1 .323.087.313.313 0 0 1 .075.224.319.319 0 0 1-.03.118l-.46.981-.948-.476a.301.301 0 0 1-.153-.177.32.32 0 0 1 .014-.237zm.336 11.44l-.46.982-.95-.476a.301.301 0 0 1-.152-.178.32.32 0 0 1 .084-.333.298.298 0 0 1 .217-.078c.04.002.078.013.114.03l.408.205.199-.423a.31.31 0 0 1 .171-.158.292.292 0 0 1 .323.087.312.312 0 0 1 .075.225.32.32 0 0 1-.03.117zM7.12 7.68l-.988 2.2L4.04 8.786a.916.916 0 0 1-.424-.513.953.953 0 0 1 .026-.675.812.812 0 0 1 .186-.27.78.78 0 0 1 .594-.213c.108.008.213.04.308.093l.598.276.305-.6c.391-.895 1.11-.38 1.088-.391.2.11.351.292.425.513a.953.953 0 0 1-.026.674zm7.365-4.303l-5.039-1.81-.651 1.942 2.823 8.413 2.867-8.545z"/><path d="M15.552 2.3L9.254.038a.646.646 0 0 0-.51.031.682.682 0 0 0-.339.395l-.316.942.01.03.413 1.232.518-1.542a.273.273 0 0 1 .136-.158.259.259 0 0 1 .203-.012l5.543 1.99a.27.27 0 0 1 .152.14.278.278 0 0 1 .012.21l-3.18 9.479c.065.297.022.61-.121.877-.144.267-.377.47-.656.57l-.7.251.936.336a.646.646 0 0 0 .716-.193.694.694 0 0 0 .132-.232l3.76-11.207a.71.71 0 0 0-.186-.741.663.663 0 0 0-.225-.136z"/></g></svg>