<svg width="16" height="16" fill="none" xmlns="http://www.w3.org/2000/svg"><path d="M15 0H1C.448 0 0 .462 0 1.032v9.29c0 .568.45 1.033 1 1.033h7.5v4.129c0 .196.107.374.276.462.17.087.372.068.524-.05l1.7-1.315 1.7 1.316a.49.49 0 00.524.048.518.518 0 00.276-.461v-4.13H15c.55 0 1-.464 1-1.031v-9.29C16 .463 15.55 0 15 0zM9.413 10.745a.508.508 0 00-.322-.333l-.538-.18.118-.57a.527.527 0 00-.118-.455l-.379-.433.38-.433a.527.527 0 00.117-.454l-.118-.571.538-.18a.508.508 0 00.322-.332l.174-.556.553.122c.157.036.32-.01.44-.121l.42-.392.42.392c.119.11.282.157.44.121l.553-.122.174.556c.049.158.17.282.322.333l.538.179-.118.57a.527.527 0 00.118.455l.379.433-.38.433a.527.527 0 00-.117.455l.118.57-.538.18a.508.508 0 00-.322.332l-.174.556-.553-.123a.488.488 0 00-.44.122l-.42.392-.42-.392a.491.491 0 00-.44-.122l-.553.123-.174-.556zM2.5 2.065H12.5c.276 0 .5.23.5.516a.508.508 0 01-.5.516h-10c-.276 0-.5-.231-.5-.516 0-.285.224-.516.5-.516zm0 2.58h5c.276 0 .5.231.5.516a.508.508 0 01-.5.516h-5a.508.508 0 01-.5-.516c0-.285.224-.516.5-.516zm3 3.613h-3a.508.508 0 01-.5-.516c0-.285.224-.516.5-.516h3c.276 0 .5.23.5.516a.508.508 0 01-.5.516z" fill="#C6C7CA"/></svg>