<svg width="72" height="68" fill="none" xmlns="http://www.w3.org/2000/svg"><path d="M33.673 47.957c.456.45 1.055.672 1.655.672.6 0 1.198-.222 1.657-.675L49.44 35.753a2.259 2.259 0 00.027-3.27L36.985 20.255a2.377 2.377 0 00-3.312 0 2.26 2.26 0 000 3.243l8.49 8.316H2.56c-1.292 0-2.34 1.027-2.34 2.293 0 1.265 1.048 2.292 2.34 2.292H42.16l-8.488 8.314a2.26 2.26 0 000 3.244z" fill="#fff"/><path d="M37.67 67.735c-14.202 0-26.742-8.37-31.95-21.326-.475-1.174.118-2.506 1.32-2.971 1.198-.458 2.562.113 3.036 1.296C14.574 55.92 25.406 63.15 37.671 63.15c16.347 0 29.648-13.03 29.648-29.042S54.018 5.067 37.671 5.067c-12.265 0-23.097 7.23-27.595 18.415-.477 1.183-1.838 1.755-3.036 1.296-1.202-.464-1.795-1.797-1.32-2.97C10.928 8.85 23.468.48 37.67.48 56.6.481 72 15.568 72 34.108c0 18.54-15.401 33.627-34.33 33.627z" fill="#fff"/></svg>