<svg fill="none" height="16" width="16" xmlns="http://www.w3.org/2000/svg"><g fill="#aaa" opacity=".7"><path d="m14.48 4h-12.96c-.8 0-1.52.72-1.52 1.52v8.96c0 .8.72 1.52 1.52 1.52h12.96c.88 0 1.52-.64 1.52-1.52v-.88h-4a3.21 3.21 0 0 1 -3.2-3.2c0-1.76 1.44-3.2 3.2-3.2h4v-1.68c0-.8-.72-1.52-1.52-1.52z"/><path d="m10.4 10.4c0 .88.72 1.6 1.6 1.6h4v-3.2h-4c-.88 0-1.6.72-1.6 1.6zm2.4-.8c.48 0 .8.32.8.8s-.32.8-.8.8-.8-.32-.8-.8.4-.8.8-.8zm0-6.4-3.2-3.2-3.2 3.2zm-5.52-2.32-.88-.88-3.2 3.2h1.76z"/></g></svg>