<svg fill="#282b37" height="20" width="25" xmlns="http://www.w3.org/2000/svg"><path d="m3.633 9.08h1.763v-3.122h1.946v-1.532h-1.946v-1.89h2.108v-1.612h-3.871zm9.221-6.544-1.543.185c-.38-.139-.623-.185-.922-.185-1.486 0-2.442 1.348-2.442 3.445 0 1.947.84 3.283 2.073 3.283.427 0 .772-.138 1.222-.495l.092.495 1.6-.184c-.057-.553-.08-1.06-.08-2.097zm-1.693 4.781c-.311.277-.518.38-.772.38-.541 0-.83-.599-.83-1.728 0-1.244.335-1.877.968-1.877.22 0 .369.057.634.23zm2.769 1.44c.53.38 1.026.542 1.613.542 1.129 0 1.912-.853 1.912-2.062 0-.795-.3-1.29-1.071-1.786l-.403-.253c-.403-.265-.484-.37-.484-.634 0-.323.219-.542.541-.542.265 0 .519.104.933.38v-1.532c-.518-.276-.806-.368-1.21-.368-1.093 0-1.877.84-1.877 2.004 0 .738.265 1.187.956 1.625l.507.322c.38.242.496.403.496.714 0 .37-.23.611-.6.611-.368 0-.76-.196-1.393-.691zm7.055-1.255c-.219.023-.311.034-.46.034-.427 0-.6-.196-.6-.668v-2.628h1.002v-1.52h-1.002v-1.981l-1.613.185v1.796h-.541v1.52h.541v2.535c0 .726.081 1.14.288 1.486.311.53.945.864 1.636.864.196 0 .311-.012.61-.046l.14-1.579zm-20.813 12.138h1.762v-2.57c1.567-.057 2.523-1.128 2.523-2.81 0-1.786-1.036-2.776-2.914-2.776h-1.371zm1.762-6.544c.542.035.807.427.807 1.175 0 .75-.265 1.13-.807 1.175zm5.447 0c-1.474 0-2.592 1.452-2.592 3.376 0 1.9 1.118 3.352 2.58 3.352 1.475 0 2.604-1.463 2.604-3.364 0-1.912-1.117-3.364-2.592-3.364zm-.011 1.556c.622 0 .98.668.98 1.808 0 1.118-.37 1.797-.969 1.797-.622 0-.979-.668-.979-1.831 0-1.095.369-1.774.968-1.774zm5.063 1.002v-4.355l-1.613.185v8.156h1.613v-3.226l1.566 3.226h1.798l-1.867-3.687 1.44-2.672h-1.797zm7.931 1.808c-.83.611-1.244.795-1.855.795-.737 0-1.071-.31-1.198-1.071l3.203-.703c.011-.172.011-.265.011-.345 0-1.798-.921-3.042-2.246-3.042-1.463 0-2.604 1.486-2.604 3.387 0 1.97 1.083 3.341 2.65 3.341.61 0 1.117-.161 1.855-.588zm-3.076-1.555c.08-.806.426-1.255.956-1.255.45 0 .668.276.737.887zm5.624 3.733v-2.903c0-1.175.472-1.855 1.279-1.855.034 0 .103 0 .196.011l.126-1.797h-.103c-.588 0-1.118.404-1.463 1.13v-1.13l-1.613.185v6.359z"/></svg>