<svg width="16" height="16" fill="none" xmlns="http://www.w3.org/2000/svg"><path d="M13.656 2.344a7.994 7.994 0 0 0-11.312 0 7.994 7.994 0 0 0 0 11.312 7.994 7.994 0 0 0 11.312 0 7.994 7.994 0 0 0 0-11.312zm-6.052 4.78l1.295.537c1.44.597 1.863 2.455.803 3.592-.298.319-.66.532-1.045.644v.441a.657.657 0 1 1-1.314 0v-.44a2.325 2.325 0 0 1-1.668-2.23.657.657 0 1 1 1.314 0c0 .904 1.094 1.342 1.723.72.476-.473.288-1.263-.316-1.513L7.101 8.34c-1.442-.597-1.863-2.458-.8-3.595A2.317 2.317 0 0 1 7.342 4.1v-.438a.657.657 0 0 1 1.314 0v.44a2.33 2.33 0 0 1 1.668 2.23.657.657 0 0 1-1.313 0c0-.915-1.128-1.359-1.752-.69-.433.464-.257 1.234.344 1.483z" fill="#AAA" opacity=".7"/></svg>