<svg fill="#282b37" height="14" width="28" xmlns="http://www.w3.org/2000/svg"><path d="m5.034 1.26c-.578-.363-1.154-.55-1.76-.55-1.425 0-2.474 1.154-2.474 2.74 0 1.13.376 1.815 1.424 2.635l.646.497c.457.35.712.793.712 1.264 0 .591-.35.954-.928.954-.51 0-1.088-.215-1.827-.699l.228 2.15c.887.363 1.371.484 1.935.484 1.573 0 2.675-1.182 2.675-2.89 0-1.222-.417-1.894-1.841-3.023l-.524-.403c-.31-.242-.457-.525-.457-.874 0-.497.322-.82.833-.82.35 0 .766.175 1.357.591v-2.056zm1.589 11.774 1.976-.202v-2.352c.39.161.632.215.954.215 1.68 0 2.796-1.613 2.796-4.005 0-2.298-.981-3.844-2.433-3.844-.484 0-.873.148-1.411.565l-.108-.565-1.854.215c.054.645.08 1.237.08 2.446zm1.977-7.917c.363-.322.605-.443.9-.443.632 0 .968.699.968 2.016 0 1.451-.376 2.19-1.129 2.19-.255 0-.43-.067-.739-.268zm6.6 5.363v-7.634l-1.88.215v7.419zm-.94-10.47c-.591 0-1.062.47-1.062 1.062 0 .578.484 1.062 1.062 1.062.591 0 1.062-.47 1.062-1.075 0-.592-.47-1.049-1.062-1.049zm4.158 10.47v-3.588c0-.834.054-1.358.175-1.6.174-.376.51-.632.846-.632.444 0 .592.296.592 1.197v4.623h1.881v-5.027c0-1.8-.497-2.607-1.626-2.607-.699 0-1.183.269-1.868 1.048v-1.048l-1.882.215v7.419zm4.694-.376c.618.443 1.196.631 1.882.631 1.317 0 2.23-.994 2.23-2.405 0-.928-.349-1.506-1.25-2.084l-.47-.295c-.47-.31-.564-.43-.564-.74 0-.376.255-.631.631-.631.31 0 .605.12 1.09.443v-1.787c-.606-.323-.942-.43-1.412-.43-1.277 0-2.19.98-2.19 2.338 0 .86.308 1.385 1.115 1.895l.591.377c.444.282.578.47.578.833 0 .43-.269.712-.699.712s-.887-.228-1.626-.806z"/></svg>