<svg fill="#282b37" height="22" width="18" xmlns="http://www.w3.org/2000/svg"><path d="m.508 9.36h1.958v-2.855c1.741-.064 2.804-1.254 2.804-3.123 0-1.984-1.153-3.085-3.239-3.085h-1.523zm1.958-7.27c.602.038.896.473.896 1.305s-.294 1.254-.896 1.306v-2.612zm3.678 7.27h4.3v-1.792h-2.341v-7.27h-1.959zm8.186-9.306c-1.972 0-3.56 2.112-3.56 4.71 0 2.74 1.55 4.839 3.56 4.839 1.97 0 3.545-2.112 3.545-4.774 0-2.663-1.562-4.775-3.546-4.775zm-.014 1.92c.91 0 1.51 1.165 1.51 2.893s-.6 2.893-1.497 2.893c-.909 0-1.51-1.152-1.51-2.931 0-1.69.614-2.855 1.497-2.855zm-6.944 9.843-.41 4.8c.666-.23.884-.281 1.242-.281.922 0 1.408.525 1.408 1.536 0 .96-.41 1.497-1.139 1.497-.525 0-.78-.14-1.305-.69l-.986 1.369c.845.819 1.408 1.075 2.42 1.075 1.74 0 2.892-1.318 2.892-3.302 0-1.728-.986-3.008-2.33-3.008h-.204l.115-1.242h1.625l.217-1.754z"/></svg>