<svg width="16" height="16" fill="none" xmlns="http://www.w3.org/2000/svg"><g opacity=".7"><path d="M1.924 0C.863 0 0 .792 0 1.766 0 2.739.863 3.53 1.924 3.53c1.06 0 1.924-.792 1.924-1.766C3.848.793 2.984 0 1.924 0zm13.102 3.504a1.6 1.6 0 0 0-1.202.08 25.66 25.66 0 0 0-.39.196c-.24.123-.534.238-.872.34a3.02 3.02 0 0 1-.865.145c-.21 0-.392-.034-.54-.103l-.012-.005a17.015 17.015 0 0 0-1.978-.728 6.91 6.91 0 0 0-1.9-.254c-.94 0-1.989.226-3.122.673v8.145c1.317-.604 2.456-.911 3.384-.911.37 0 .738.052 1.09.154.37.108.676.224.912.346.294.152.64.294 1.03.42.418.134.838.202 1.249.202.992 0 2.125-.322 3.463-.984.21-.1.368-.204.481-.317a.854.854 0 0 0 .246-.628V4.78c0-.569-.391-1.081-.974-1.275zm-13.09.925c-.424 0-.826-.088-1.186-.243v11.21c0 .333.296.604.659.604h1.054c.363 0 .659-.271.659-.605V4.186a2.99 2.99 0 0 1-1.186.243z" fill="#AAA"/></g></svg>