<svg width="19" height="20" fill="none" xmlns="http://www.w3.org/2000/svg"><path opacity=".7" d="M16.914 0H8.008A1.76 1.76 0 0 0 6.25 1.758v2.031H1.758A1.76 1.76 0 0 0 0 5.547v12.695C0 19.212.789 20 1.758 20h8.906a1.76 1.76 0 0 0 1.758-1.758v-2.031h4.492a1.76 1.76 0 0 0 1.758-1.758V1.758A1.76 1.76 0 0 0 16.914 0zM11.25 18.242a.588.588 0 0 1-.586.586H1.758a.587.587 0 0 1-.586-.586V5.547c0-.323.263-.586.586-.586h8.906c.323 0 .586.263.586.586v12.695zm6.25-3.789a.588.588 0 0 1-.586.586h-4.492V5.547a1.76 1.76 0 0 0-1.758-1.758H7.422V1.758c0-.323.263-.586.586-.586h8.906c.323 0 .586.263.586.586v12.695z" fill="#008BE2"/><path opacity=".7" d="M7.545 9.416a1.83 1.83 0 0 0-1.334.49 1.83 1.83 0 0 0-1.333-.49c-1.295.058-2.055 1.51-1.367 2.627.053.086-.12-.095 2.306 2.294.23.226.598.225.826-.003 2.38-2.38 2.217-2.207 2.268-2.29.688-1.119-.07-2.57-1.366-2.628zm.396 1.963l-1.716 1.715-1.744-1.717a.564.564 0 0 1 .079-.607c.209-.265.643-.223.865.006l.79.79.781-.79c.233-.239.684-.27.887.02.12.16.154.384.058.583zm7.645 2.332h-.625a.587.587 0 0 1 0-1.172h.625a.585.585 0 1 1 0 1.172zm0-10h-.625a.586.586 0 0 1 0-1.172h.625a.586.586 0 0 1 0 1.172zm-6.25 13.75H8.71a.586.586 0 0 1 0-1.172h.625a.586.586 0 1 1 0 1.172h.001zm-5.625-10h-.625a.586.586 0 1 1 0-1.172h.625a.586.586 0 1 1 0 1.172z" fill="#008BE2"/></svg>