<svg width="40" height="40" fill="none" xmlns="http://www.w3.org/2000/svg"><g opacity=".2" fill="#fff"><path d="M30.993 30.358a4.523 4.523 0 0 0-3.485-3.015l-4.322-.785v-.334a6.502 6.502 0 0 0 1.928-1.708h1.306a1.94 1.94 0 0 0 1.94-1.935v-7.742c0-4.625-3.771-8.387-8.407-8.387-4.635 0-8.406 3.762-8.406 8.387v4.516c0 1.244.886 2.285 2.062 2.527a6.464 6.464 0 0 0 3.11 4.342v.334l-4.321.785a4.522 4.522 0 0 0-3.484 3.015l-.26.775-2.202-2.198a.645.645 0 0 1 0-.913l2.555-2.548-4.795-4.783-2.886 2.88A4.481 4.481 0 0 0 0 26.765c0 1.206.47 2.34 1.326 3.193l8.74 8.72a4.503 4.503 0 0 0 3.2 1.322c1.21 0 2.346-.47 3.18-1.303l3.15-2.88-.982-.978H32.49l-1.497-4.481zm-11.04-1.593l-1.94-1.935v-.03a6.47 6.47 0 0 0 3.88 0v.03l-1.94 1.936zm6.467-5.539h-.544c.188-.426.33-.876.422-1.344.276-.057.531-.167.768-.305v1.004c0 .356-.29.645-.646.645zm0-4.982c.384.224.646.636.646 1.111 0 .476-.261.887-.646 1.111v-2.222zm-13.58 1.111c0-.476.262-.887.647-1.111v2.222a1.286 1.286 0 0 1-.647-1.111zm.647-3.226v.737c-.23.06-.447.15-.647.267V14.84c0-3.913 3.191-7.097 7.113-7.097 3.922 0 7.113 3.184 7.113 7.097v2.294a2.54 2.54 0 0 0-.646-.267v-.737h-.647a7.123 7.123 0 0 1-5.063-2.092l-.757-.756-.757.756a7.123 7.123 0 0 1-5.063 2.092h-.646zm1.293 4.516v-3.25a8.393 8.393 0 0 0 5.173-2.293 8.39 8.39 0 0 0 5.174 2.293v3.25c0 .941-.258 1.821-.7 2.581h-4.474v1.29h3.41a5.153 5.153 0 0 1-3.41 1.29c-2.852 0-5.173-2.315-5.173-5.16zm-7.603 4.83l-.702.7-2.966-2.959.703-.7 2.965 2.958zm6.088 13.235a3.22 3.22 0 0 1-2.287-.945l-8.74-8.719a3.201 3.201 0 0 1-.946-2.28c0-.862.336-1.673.947-2.282l.355-.355 2.966 2.959-.023.023a1.936 1.936 0 0 0 0 2.738l4.637 4.626c.367.365.853.567 1.372.567.519 0 1.006-.201 1.348-.544l.049-.043 2.979 2.972-.371.34a3.221 3.221 0 0 1-2.286.943zm3.611-2.157l-2.972-2.966.854-.77 2.968 2.96-.85.776zm.445-3.004l-2.519-2.513-2.799 2.526a.661.661 0 0 1-.914 0l-1.412-1.41.463-1.387a3.232 3.232 0 0 1 2.489-2.154l4.52-.82 2.804 2.799 2.804-2.797 4.52.819a3.23 3.23 0 0 1 2.489 2.154l.93 2.783H17.321zM38.06 0h-9.054a1.94 1.94 0 0 0-1.94 1.936v5.16a1.94 1.94 0 0 0 1.94 1.936h1.728l-.67 3.891 6.241-3.89h1.755A1.94 1.94 0 0 0 40 7.096V1.936A1.94 1.94 0 0 0 38.06 0zm.646 7.097c0 .355-.29.645-.646.645h-2.126l-4.107 2.56.44-2.56h-3.26a.647.647 0 0 1-.647-.645V1.936c0-.356.29-.646.646-.646h9.054c.356 0 .646.29.646.646v5.16z"/><path d="M37.412 2.58h-7.76v1.29h7.76V2.58zm-2.586 2.581h-5.174v1.29h5.174v-1.29zm2.587 0h-1.294v1.29h1.294v-1.29zM6.06 16.037l-.665-1.106-1.752 1.049c1.832-7.441 8.539-12.754 16.31-12.754 1.7 0 3.376.252 4.983.748l.383-1.232a18.133 18.133 0 0 0-5.365-.806c-8.45 0-15.727 5.83-17.62 13.964L1.11 13.862 0 14.526l2.273 3.779 3.787-2.268zm27.567-.24l1.109.664 1.131-1.882c.596 1.739.9 3.557.9 5.421a16.79 16.79 0 0 1-3.75 10.562l1.005.813A18.079 18.079 0 0 0 38.06 20c0-1.973-.319-3.9-.94-5.746l1.9 1.138.666-1.107-3.788-2.267-2.272 3.779z"/></g></svg>