<svg fill="none" height="16" width="16" xmlns="http://www.w3.org/2000/svg"><g clip-rule="evenodd" fill="#c6c7ca" fill-rule="evenodd"><path d="M8 11.526a4.65 4.65 0 0 1-1.308-.187l1.307 2.934 1.307-2.933A4.649 4.649 0 0 1 8 11.526zM1.64 13.39a1.427 1.427 0 0 1-.159-.756l.051-.759-.486-.04a7.134 7.134 0 0 0-1.044 3.633A.478.478 0 0 0 .47 16h4.78c-.69-.46-3.296-2.013-3.609-2.61zm12.826-1.515l.05.76c.018.27-.041.53-.158.754-.117.223-.29.41-.504.54L10.751 16l4.78-.001a.475.475 0 0 0 .467-.483 7.134 7.134 0 0 0-1.044-3.681l-.488.041z"/><path d="M7.431 15.306L5.393 10.73a4.89 4.89 0 0 1-.79-.66 5.004 5.004 0 0 1-1.206-2.06l-3.18 1.994c-.354.213-.24.77.166.803l2.147.184-.115 1.708a.437.437 0 0 0 .213.406l4.237 2.825c.195.13.455.073.581-.127a.444.444 0 0 0 .03-.417zm6.152-2.607l-.114-1.708 2.145-.246c.406-.034.533-.591.18-.805l-3.192-1.93a5.004 5.004 0 0 1-1.204 2.061c-.24.248-.507.47-.794.662l-2.037 4.573-.044.08a.444.444 0 0 0 .029.417c.126.2.386.258.58.127l4.239-2.825a.437.437 0 0 0 .212-.406zM8 10.56c2.13 0 3.872-1.796 3.872-3.992v-.91H4.127v.91C4.127 8.764 5.87 10.56 8 10.56zM3.187 4.705h9.626a.476.476 0 0 0 .468-.483.476.476 0 0 0-.469-.483h-.823C11.721 2.6 11.515 1.203 10.756.42c-.678-.7-1.167-.361-1.769.056-.284.197-.61.424-.986.424-.364 0-.682-.228-.96-.427-.6-.43-1.089-.782-1.795-.054-.783.808-1.014 2.174-1.247 3.319h-.812a.476.476 0 0 0-.468.483c0 .267.21.483.468.483z"/></g></svg>