<svg width="85" height="85" fill="none" xmlns="http://www.w3.org/2000/svg"><path d="M85 57.524c0-12.39-8.348-23.214-20.12-26.476C64.14 13.803 49.88 0 32.456 0 14.56 0 0 14.56 0 32.456a32.355 32.355 0 004.5 16.497L.12 64.793l15.839-4.382a32.335 32.335 0 0015.088 4.467C34.31 76.651 45.135 85 57.525 85c4.946 0 9.755-1.317 13.98-3.82l13.376 3.7-3.7-13.375A27.376 27.376 0 0085 57.525zm-68.255-2.498L7.263 57.65l2.623-9.483-.598-.935A27.383 27.383 0 014.98 32.456c0-15.15 12.326-27.476 27.476-27.476 15.15 0 27.476 12.326 27.476 27.476 0 15.15-12.326 27.476-27.476 27.476a27.385 27.385 0 01-14.776-4.308l-.935-.598zm60.992 22.711l-7.036-1.946-.94.611a22.408 22.408 0 01-12.237 3.617c-9.737 0-18.294-6.296-21.326-15.324 14.911-1.72 26.778-13.585 28.497-28.498 9.028 3.033 15.325 11.59 15.325 21.327 0 4.363-1.251 8.595-3.618 12.238l-.611.94 1.947 7.035z" fill="#fff"/><path d="M29.967 47.049h4.98v4.98h-4.98v-4.98zM37.435 26.96a4.93 4.93 0 01-1.62 3.677l-5.85 5.354v6.077h4.98v-3.883l4.232-3.873a9.99 9.99 0 003.239-7.351c0-5.493-4.468-9.961-9.96-9.961-5.494 0-9.962 4.468-9.962 9.96h4.98a4.986 4.986 0 014.981-4.98 4.986 4.986 0 014.98 4.98z" fill="#fff"/></svg>