<svg width="17" height="16" fill="none" xmlns="http://www.w3.org/2000/svg"><g opacity=".7"><path d="M3.12 3.772c0 .082.122.175.286.175h9.188c.165 0 .287-.093.287-.175v-1.73l-1.985 1.421a.972.972 0 0 1-1.177-.056L8 1.87 6.28 3.408a.972.972 0 0 1-1.177.056L3.12 2.042v1.73zM5.4 7.51l1.907-1.872h-4.16L5.4 7.51zM8 5.753L6.11 7.61h3.76L8 5.753zm3.344 1.856H16a.294.294 0 0 0-.086-.093l-2.409-1.703-2.162 1.796zm1.486-1.971H8.69l1.887 1.87 2.253-1.87zM8.459 16l7.296-7.828h-4.98L8.458 16zm-2.66-7.828l2.189 7.401 2.189-7.4H5.799zm-5.553 0l7.259 7.788-2.303-7.788H.246zm2.235-2.35L.086 7.517A.294.294 0 0 0 0 7.61h4.632l-2.15-1.787zM3.693.847a.854.854 0 0 1-.861.845.853.853 0 0 1-.861-.845c0-.467.385-.846.861-.846s.861.379.861.846zm5.168 0A.854.854 0 0 1 8 1.69a.853.853 0 0 1-.861-.845C7.139.379 7.524 0 8 0s.861.379.861.846zm5.168 0a.853.853 0 0 1-.86.845.854.854 0 0 1-.862-.845c0-.467.385-.846.861-.846s.861.379.861.846z" fill="#AAA"/></g></svg>