<svg fill="#282b37" height="19" width="24" xmlns="http://www.w3.org/2000/svg"><path d="m3.951 8.44h1.47v-2.88h1.43v2.88h1.468v-6.797h-1.468v2.573h-1.431v-2.573h-1.47v6.797zm6.725 0v-5.453l-1.344.154v5.299zm-.672-7.48a.754.754 0 0 0 -.758.759c0 .413.346.758.758.758a.756.756 0 0 0 .759-.768.746.746 0 0 0 -.759-.749zm4.085 7.691c0 .864-.183 1.104-.826 1.104-.528 0-.96-.163-1.574-.605l.01 1.383c.633.336 1.142.47 1.728.47.633 0 1.2-.269 1.564-.74.327-.431.442-.95.442-1.996v-5.28l-1.287.154c-.316-.116-.518-.154-.768-.154-1.238 0-2.035 1.123-2.035 2.87 0 1.623.701 2.736 1.728 2.736.356 0 .643-.115 1.018-.412zm-.067-1.68c-.26.23-.432.317-.643.317-.452 0-.692-.5-.692-1.44 0-1.037.279-1.565.807-1.565.182 0 .307.048.528.192zm3.718 1.469v-2.563c0-.596.038-.97.125-1.143.124-.269.364-.451.604-.451.317 0 .423.211.423.854v3.303h1.344v-3.59c0-1.287-.355-1.863-1.162-1.863-.5 0-.835.192-1.334.749v-2.247l-1.344.154v6.797zm-14.396 3.654c-.412-.259-.825-.393-1.257-.393-1.018 0-1.767.825-1.767 1.958 0 .806.27 1.296 1.018 1.882l.46.355c.327.25.51.566.51.902 0 .423-.25.682-.663.682-.365 0-.777-.154-1.305-.5l.163 1.537c.633.259.979.345 1.382.345 1.123 0 1.91-.845 1.91-2.064 0-.873-.297-1.353-1.315-2.16l-.374-.288c-.22-.173-.326-.374-.326-.624 0-.355.23-.585.595-.585.25 0 .547.124.97.422v-1.469zm3.392 5.271c-.182.019-.259.028-.384.028-.355 0-.499-.163-.499-.556v-2.19h.835v-1.266h-.835v-1.652l-1.344.154v1.498h-.451v1.267h.451v2.112c0 .605.067.95.24 1.238.26.442.787.72 1.363.72.163 0 .26-.01.509-.038zm4.37-4.138-1.287.154c-.317-.116-.518-.154-.768-.154-1.238 0-2.035 1.123-2.035 2.87 0 1.623.7 2.736 1.728 2.736.355 0 .643-.115 1.018-.412l.076.412 1.335-.153c-.048-.461-.067-.883-.067-1.747zm-1.412 3.984c-.259.23-.432.317-.643.317-.451 0-.691-.5-.691-1.44 0-1.037.278-1.565.806-1.565.183 0 .308.048.528.192zm3.718-1.853v-3.628l-1.344.154v6.797h1.344v-2.688l1.306 2.688h1.497l-1.555-3.072 1.2-2.227h-1.497l-.95 1.977zm6.598 1.507c-.69.51-1.036.663-1.545.663-.614 0-.893-.26-.998-.893l2.669-.586c.01-.144.01-.22.01-.288 0-1.497-.769-2.534-1.873-2.534-1.219 0-2.17 1.238-2.17 2.822 0 1.642.903 2.784 2.209 2.784.508 0 .93-.134 1.545-.49l.154-1.478zm-2.562-1.296c.067-.672.355-1.046.796-1.046.375 0 .557.23.615.74zm3.312 2.842c.442.317.855.451 1.344.451.941 0 1.594-.71 1.594-1.718 0-.663-.25-1.075-.893-1.488l-.336-.211c-.336-.221-.403-.308-.403-.528 0-.27.182-.452.451-.452.221 0 .432.087.778.317v-1.277c-.432-.23-.672-.307-1.008-.307-.912 0-1.565.701-1.565 1.67 0 .615.22.99.797 1.354l.422.269c.317.202.413.336.413.595 0 .307-.192.509-.5.509-.306 0-.633-.163-1.16-.576z"/></svg>