<svg width="22" height="12" fill="#282B37" xmlns="http://www.w3.org/2000/svg"><path d="M4.843.702C4.21.305 3.577.1 2.915.1 1.355.099.206 1.364.206 3.1c0 1.237.412 1.988 1.56 2.886l.707.544c.5.383.78.869.78 1.384 0 .648-.383 1.045-1.016 1.045-.559 0-1.192-.236-2.002-.765l.25 2.355c.972.397 1.502.53 2.12.53 1.723 0 2.93-1.296 2.93-3.165 0-1.34-.457-2.076-2.017-3.312l-.574-.442c-.339-.265-.5-.574-.5-.957 0-.544.353-.897.912-.897.383 0 .84.19 1.487.647V.702zM6.722 10.8h2.252V5.987l4.445 5.21V.378h-2.252v4.814L6.722.01V10.8zM21.144.893C20.35.32 19.702.1 18.907.1c-2.429 0-4.195 2.31-4.195 5.505 0 3.032 1.81 5.476 4.063 5.476.971 0 1.737-.354 2.944-1.355V5.06H18.42v1.958h1.09v1.678c-.31.206-.471.265-.736.265-1.03 0-1.708-1.34-1.708-3.341 0-2.032.78-3.298 2.017-3.298.603 0 1.148.28 1.722.898l.338-2.326z"/></svg>