<svg viewBox="0 0 512 512" xmlns="http://www.w3.org/2000/svg"><path d="m512 256c0 141.384-114.616 256-256 256s-256-114.616-256-256c0 .061 256-255.972 256-256 141.384 0 256 114.616 256 256z" fill="#0052b4"/><path d="m256 0h-.043zm-.685 256h.685v-.685z" fill="#f0f0f0"/><path d="m256 133.565v-133.565h-.043c-141.366.024-255.957 114.629-255.957 256h133.565v-75.211l75.211 75.211h46.54l.685-.685v-46.537l-75.213-75.213z" fill="#f0f0f0"/><circle cx="367.304" cy="144.696" fill="#6da544" r="44.522"/><g fill="#d80027"><path d="m129.515 33.391a257.215 257.215 0 0 0 -96.124 96.124v126.485h66.783v-155.826h155.826v-66.783z"/><path d="m256 224.519-90.955-90.953h-31.48v.002l122.433 122.432h.002z"/><path d="m289.391 133.565h155.826v66.783h-155.826z"/></g><g fill="#496e2d"><path d="m445.217 256v-.001z"/><path d="m289.391 256v-.001z"/></g><path d="m289.391 300.522v44.522h23.424c14.045 13.764 33.27 22.261 54.489 22.261s40.444-8.497 54.489-22.261h23.424v-44.522z" fill="#ffda44"/><path d="m289.391 189.217v66.783c0 59.639 77.913 77.913 77.913 77.913s77.913-18.274 77.913-77.913v-66.783z" fill="#338af3"/><path d="m367.3 224.889c-19.477 0-19.477 17.809-38.954 17.809s-19.477-17.809-38.954-17.809v31.165c19.477 0 19.477 17.809 38.954 17.809s19.477-17.809 38.954-17.809c19.479 0 19.479 17.809 38.959 17.809s19.479-17.809 38.959-17.809v-31.165c-19.479 0-19.479 17.809-38.959 17.809s-19.48-17.809-38.959-17.809zm0-62.385c-19.477 0-19.477 17.809-38.954 17.809s-19.477-17.809-38.954-17.809v31.165c19.477 0 19.477 17.809 38.954 17.809s19.477-17.809 38.954-17.809c19.479 0 19.479 17.809 38.959 17.809s19.479-17.809 38.959-17.809v-31.165c-19.479 0-19.479 17.809-38.959 17.809s-19.48-17.809-38.959-17.809z" fill="#f3f3f3"/></svg>