<svg viewBox="0 0 512 512" xmlns="http://www.w3.org/2000/svg"><path d="m512 256c0 141.384-114.616 256-256 256s-256-114.616-256-256c0 .061 256-255.972 256-256 141.384 0 256 114.616 256 256z" fill="#0052b4"/><path d="m256 0h-.043zm-.685 256h.685v-.685z" fill="#f0f0f0"/><path d="m256 133.565v-133.565h-.043c-141.366.024-255.957 114.629-255.957 256h133.565v-75.211l75.211 75.211h46.54l.685-.685v-46.537l-75.213-75.213z" fill="#f0f0f0"/><path d="m129.515 33.391a257.215 257.215 0 0 0 -96.124 96.124v126.485h66.783v-155.826h155.826v-66.783z" fill="#d80027"/><path d="m256 224.519-90.955-90.953h-31.48v.002l122.433 122.432h.002z" fill="#d80027"/><path d="m400.696 155.826-33.392 11.131-33.391-11.131-11.13-27.826 11.13-27.826h66.783l-11.131 27.826z" fill="#acabb1"/><path d="m289.391 155.826v122.434c0 59.64 77.913 77.914 77.913 77.914s77.913-18.274 77.913-77.914v-122.434z" fill="#338af3"/><path d="m296.415 307.266c19.152 36.769 70.89 48.908 70.89 48.908s51.738-12.139 70.89-48.908l-70.89-118.048z" fill="#6da544"/><path d="m445.217 277.023-77.913-121.197-77.913 121.198v1.236c0 11.038 2.674 20.656 7.023 29.006l70.89-110.275 70.89 110.274c4.349-8.351 7.023-17.968 7.023-29.006z" fill="#ffda44"/></svg>