<svg viewBox="0 0 512 512" xmlns="http://www.w3.org/2000/svg"><path d="m512 256c0 141.384-114.616 256-256 256s-256-114.616-256-256c0 .061 256-255.972 256-256 141.384 0 256 114.616 256 256z" fill="#0052b4"/><path d="m256 0h-.043zm-.685 256h.685v-.685z" fill="#f0f0f0"/><path d="m256 133.565v-133.565h-.043c-141.366.024-255.957 114.629-255.957 256h133.565v-75.211l75.211 75.211h46.54l.685-.685v-46.537l-75.213-75.213z" fill="#f0f0f0"/><path d="m129.515 33.391a257.215 257.215 0 0 0 -96.124 96.124v126.485h66.783v-155.826h155.826v-66.783z" fill="#d80027"/><path d="m256 224.519-90.955-90.953h-31.48v.002l122.433 122.432h.002z" fill="#d80027"/><path d="m289.391 133.565v122.434c0 59.64 77.913 77.914 77.913 77.914s77.913-18.274 77.913-77.914v-122.434z" fill="#ffda44"/><path d="m356.174 178.087c0 12.295-9.966 44.522-22.261 44.522s-22.261-32.227-22.261-44.522 22.261-22.261 22.261-22.261 22.261 9.966 22.261 22.261z" fill="#ff9811"/><path d="m415.245 202.332c3.592-8.765 6.386-21.577 6.386-27.955 0-10.246-13.357-18.551-13.357-18.551s-13.357 8.306-13.357 18.551c0 6.378 2.794 19.19 6.386 27.955l-7.711 17.41a38.9 38.9 0 0 0 14.681 2.866 38.9 38.9 0 0 0 14.681-2.866z" fill="#a2001d"/><path d="m350.609 256s-11.13 22.261-11.13 44.522h55.652c-.001-22.261-11.131-44.522-11.131-44.522l-16.696-11.13z" fill="#6da544"/><path d="m384 256v-5.565c0-9.22-7.475-16.696-16.696-16.696-9.22 0-16.696 7.475-16.696 16.696v5.565z" fill="#d80027"/></svg>