<svg viewBox="0 0 512 512" xmlns="http://www.w3.org/2000/svg"><circle cx="256" cy="256" fill="#f0f0f0" r="256"/><path d="m74.98 437.02c-99.974-99.975-99.974-262.065 0-362.04-.007.011 147.629 181.02 147.629 181.02z"/><path d="m222.609 256-188.656-127.487a255.118 255.118 0 0 0 -15.439 31.763l95.509 95.725-95.506 95.73a254.82 254.82 0 0 0 15.426 31.741z" fill="#ffda44"/><path d="m509.833 222.609h-287.231l-147.624-147.625a256.992 256.992 0 0 0 -41.025 53.53l127.239 127.486-127.249 127.47a256.966 256.966 0 0 0 41.035 53.545l147.624-147.624h287.231a258.529 258.529 0 0 0 2.167-33.391c0-11.317-.744-22.461-2.167-33.391z" fill="#6da544"/><path d="m100.138 459.077c43.169 33.182 97.206 52.923 155.862 52.923 118.279 0 217.805-80.221 247.181-189.217h-266.748z" fill="#0052b4"/><path d="m503.181 189.217c-29.376-108.996-128.902-189.217-247.181-189.217-58.656 0-112.693 19.741-155.862 52.923l136.294 136.294z" fill="#d80027"/></svg>