<svg width="16" height="16" viewBox="0 0 16 16" fill="none" xmlns="http://www.w3.org/2000/svg">
<path d="M11.0266 11.7595C11.4668 11.7595 11.8236 11.205 11.8236 10.5209C11.8236 9.83679 11.4668 9.28223 11.0266 9.28223C10.5863 9.28223 10.2295 9.83679 10.2295 10.5209C10.2295 11.205 10.5863 11.7595 11.0266 11.7595Z" fill="#C6C7CA"/>
<path d="M12.6044 7.66449C12.9959 7.66449 13.3132 7.16902 13.3132 6.55783C13.3132 5.94664 12.9959 5.45117 12.6044 5.45117C12.2129 5.45117 11.8955 5.94664 11.8955 6.55783C11.8955 7.16902 12.2129 7.66449 12.6044 7.66449Z" fill="#C6C7CA"/>
<path d="M15.4381 2.28015L8.2254 0.0329967C8.21233 0.0296124 8.196 0.0262281 8.18293 0.0228439C8.16987 0.0194596 8.15353 0.0160753 8.14047 0.012691C8.04573 -0.00423034 7.951 -0.00423034 7.85627 0.012691C7.8432 0.0160753 7.82687 0.0194596 7.8138 0.0228439C7.80074 0.0262281 7.7844 0.0296124 7.77134 0.0329967L6.16088 0.533869L4.86076 0.939982L1.21846 2.07371L0.561862 2.27677C0.228665 2.38168 0 2.6998 0 3.05854V12.9305C0 13.2926 0.228665 13.6073 0.561862 13.7122L7.77134 15.9662C7.84647 15.9898 7.9216 16 8 16C8.07513 16 8.15353 15.9898 8.22867 15.9662L15.4381 13.719C15.7713 13.6141 16 13.296 16 12.9372V3.06192C16 2.70319 15.7713 2.38507 15.4381 2.28015ZM2.29318 12.0506C1.91098 12.0506 1.59739 11.5666 1.59739 10.971C1.59739 10.3753 1.90772 9.89139 2.29318 9.89139C2.67538 9.89139 2.98898 10.3753 2.98898 10.971C2.98898 11.5666 2.67538 12.0506 2.29318 12.0506ZM3.9363 8.97425C3.5149 8.97425 3.17191 8.43953 3.17191 7.78298C3.17191 7.12643 3.5149 6.59172 3.9363 6.59172C4.3577 6.59172 4.70069 7.12643 4.70069 7.78298C4.70069 8.43953 4.36096 8.97425 3.9363 8.97425ZM5.81135 5.92163C5.37036 5.92163 5.01429 5.36661 5.01429 4.68299C5.01429 3.99937 5.37036 3.44434 5.81135 3.44434C6.25235 3.44434 6.60841 3.99937 6.60841 4.68299C6.60841 5.36661 6.25235 5.92163 5.81135 5.92163ZM14.4222 12.3281L8.78726 14.0845V1.91465L14.4222 3.67109V12.3281Z" fill="#C6C7CA"/>
</svg>
