<svg width="16" height="16" viewBox="0 0 16 16" fill="none" xmlns="http://www.w3.org/2000/svg">
<path d="M2.375 7.5C2.75317 7.5 3.09546 7.34827 3.34839 7.10461L4.73596 7.79834C4.729 7.85486 4.71875 7.9104 4.71875 7.96875C4.71875 8.74414 5.34961 9.375 6.125 9.375C6.90039 9.375 7.53125 8.74414 7.53125 7.96875C7.53125 7.75232 7.47803 7.54968 7.39026 7.36633L9.27258 5.48401C9.45593 5.57178 9.65857 5.625 9.875 5.625C10.6504 5.625 11.2812 4.99414 11.2812 4.21875C11.2812 4.07275 11.2526 3.93469 11.2111 3.80225L12.8466 2.57593C13.0697 2.72498 13.3372 2.8125 13.625 2.8125C14.4004 2.8125 15.0312 2.18164 15.0312 1.40625C15.0312 0.630859 14.4004 0 13.625 0C12.8496 0 12.2188 0.630859 12.2188 1.40625C12.2188 1.55225 12.2474 1.69031 12.2889 1.82275L10.6534 3.04907C10.4303 2.90002 10.1628 2.8125 9.875 2.8125C9.09961 2.8125 8.46875 3.44336 8.46875 4.21875C8.46875 4.43518 8.52197 4.63782 8.60974 4.82117L6.72742 6.70349C6.54407 6.61572 6.34143 6.5625 6.125 6.5625C5.74683 6.5625 5.40454 6.71423 5.15161 6.95789L3.76404 6.26416C3.771 6.20764 3.78125 6.1521 3.78125 6.09375C3.78125 5.31836 3.15039 4.6875 2.375 4.6875C1.59961 4.6875 0.96875 5.31836 0.96875 6.09375C0.96875 6.86914 1.59961 7.5 2.375 7.5Z" fill="#C6C7CA"/>
<path d="M15.5312 15.0625H15.0312V5.15625C15.0312 4.89722 14.8215 4.6875 14.5625 4.6875H12.6875C12.4285 4.6875 12.2188 4.89722 12.2188 5.15625V15.0625H11.2812V7.96875C11.2812 7.70972 11.0715 7.5 10.8125 7.5H8.9375C8.67847 7.5 8.46875 7.70972 8.46875 7.96875V15.0625H7.53125V11.7188C7.53125 11.4597 7.32153 11.25 7.0625 11.25H5.1875C4.92847 11.25 4.71875 11.4597 4.71875 11.7188V15.0625H3.78125V9.84375C3.78125 9.58472 3.57153 9.375 3.3125 9.375H1.4375C1.17847 9.375 0.96875 9.58472 0.96875 9.84375V15.0625H0.46875C0.209717 15.0625 0 15.2722 0 15.5312C0 15.7903 0.209717 16 0.46875 16H15.5312C15.7903 16 16 15.7903 16 15.5312C16 15.2722 15.7903 15.0625 15.5312 15.0625Z" fill="#C6C7CA"/>
</svg>
