<svg width="16" height="16" viewBox="0 0 16 16" fill="none" xmlns="http://www.w3.org/2000/svg">
<path d="M15.6225 11.9297V11.2301C15.6225 10.9451 15.5736 10.6647 15.4804 10.3982C15.3187 9.93521 15.0227 9.51265 14.6164 9.18043L12.8111 7.70376V7.86363V10.1098V10.1374L12.8291 10.1533L14.4363 11.5661L13.7006 12.2506L13.5623 12.3791L12.8111 11.7188L12.1841 11.1677L11.5571 10.6167L10.9301 10.0656L9.53864 8.84216C9.40822 9.01866 9.28826 9.24355 9.26736 9.48997C9.24312 9.77911 9.36183 10.0584 9.63102 10.3434C9.6352 10.3487 9.64021 10.3536 9.64523 10.3589C9.84378 10.5656 10.0239 10.7486 10.1874 10.9103C10.2818 11.0037 10.37 11.0902 10.4528 11.1696C10.4737 11.1896 10.4942 11.2093 10.5138 11.2282C10.5339 11.2471 10.5535 11.266 10.5728 11.2841C10.5757 11.2864 10.5782 11.2887 10.5803 11.2909C10.602 11.3113 10.6229 11.331 10.6434 11.3503C10.6915 11.3952 10.737 11.4376 10.7801 11.4773L10.9059 11.591C11.0476 11.7173 11.1596 11.8118 11.2441 11.8802C11.2729 11.904 11.2984 11.9244 11.321 11.9418C11.3611 11.9735 11.3916 11.9962 11.4125 12.0113C11.415 12.0132 11.4188 12.0159 11.4188 12.0159L11.42 12.0166C11.4255 12.0204 11.4296 12.0238 11.4338 12.0264C11.4393 12.0306 11.4434 12.0336 11.4459 12.0351L11.461 12.0442L11.9914 12.3605L11.5994 12.8254C11.5496 12.8923 10.8829 13.8255 11.6031 14.7753L10.569 15.4167C9.72674 14.3055 10.0156 13.2264 10.2981 12.6353C10.1322 12.4962 9.91525 12.3042 9.64105 12.0442H2.34244V1.53174L0 1.91121L2.22373 13.1395L6.94958 12.3488V13.8395C6.94874 13.965 6.96923 15.2077 8.06437 15.9999H16L15.6225 11.9297Z" fill="#AAAAAA"/>
<path d="M8.99777 5.04689C8.86234 4.82314 8.60694 4.60581 8.36033 4.39605C8.30849 4.35183 8.2575 4.30836 8.20734 4.2649C8.03429 4.11447 7.85539 3.96669 7.68276 3.82382C7.64514 3.79321 7.60752 3.76184 7.5699 3.73047C7.53186 3.76184 7.49424 3.79321 7.45704 3.82382C7.28399 3.96669 7.10551 4.11447 6.93246 4.2649C6.8823 4.30836 6.83088 4.35183 6.77947 4.39605C6.53244 4.60581 6.27746 4.82314 6.14203 5.04689C6.05885 5.18409 5.99155 5.39461 6.14245 5.61722C6.26325 5.796 6.40035 5.8731 6.60057 5.87423H6.60517C6.73307 5.87423 6.86181 5.83946 6.97718 5.7737L7.5699 5.43807L8.16052 5.77256C8.27923 5.84022 8.40839 5.87575 8.53923 5.87423C8.73903 5.8731 8.87613 5.796 8.99735 5.61722C9.14825 5.39461 9.08053 5.18409 8.99777 5.04689Z" fill="#AAAAAA"/>
<path d="M3.60547 0V10.9104H7.58561H8.53697C8.38691 10.7268 8.26945 10.5374 8.1846 10.3435C8.05042 10.0374 7.99776 9.71913 8.02702 9.39182C8.04206 9.22514 8.07801 9.06754 8.12775 8.91975V8.91938C8.38733 8.1491 9.02853 7.64907 9.1138 7.58519L9.54726 7.26015L11.5662 9.03503V0H3.60547ZM10.0823 6.20943C9.94603 6.41013 9.78009 6.57605 9.59032 6.70342C9.29772 6.89996 8.94828 7.00541 8.56456 7.00805H8.55035C8.43665 7.00805 8.32379 6.99898 8.21261 6.98046V7.39017H7.58561H7.10534H6.95862V7.17095V6.98046C6.91975 6.98727 6.88087 6.99256 6.84158 6.99634C6.76843 7.00427 6.69487 7.00805 6.62088 7.00805H6.60667C5.97383 7.0039 5.43461 6.72005 5.08851 6.20943C4.73698 5.69012 4.72528 5.05213 5.05758 4.50259C5.07597 4.47235 5.09478 4.44249 5.11485 4.41339C5.21893 4.25843 5.34098 4.11896 5.46931 3.99008C5.62229 3.83701 5.78406 3.69943 5.93579 3.57017C5.98428 3.52859 6.03235 3.48778 6.07958 3.44696C6.26392 3.28708 6.44825 3.13439 6.62673 2.98698C6.79937 2.84412 6.97785 2.69634 7.15132 2.54629L7.58561 2.16909L8.01991 2.54629C8.19296 2.69634 8.37186 2.84412 8.54449 2.98698C8.72298 3.13439 8.90731 3.28708 9.09165 3.44696C9.13846 3.48778 9.18695 3.52859 9.23544 3.57017C9.5389 3.82831 9.88249 4.12085 10.1136 4.50259C10.446 5.05213 10.4342 5.69012 10.0823 6.20943Z" fill="#AAAAAA"/>
</svg>
