<svg width="17" height="16" viewBox="0 0 17 16" fill="none" xmlns="http://www.w3.org/2000/svg">
<path d="M3.11914 4.57175C3.11914 4.65437 3.24199 4.74681 3.40616 4.74681H12.5945C12.7586 4.74681 12.8814 4.65437 12.8814 4.57175V2.04151L10.8959 3.46338C10.5367 3.71168 10.0516 3.6885 9.71879 3.40715L8.00025 1.86865L6.28074 3.40797C5.94785 3.68957 5.4626 3.71287 5.10347 3.46433L3.11914 2.04151V4.57175Z" fill="#AAAAAA"/>
<path d="M5.40038 7.50969L7.30747 5.6377H3.14648L5.40038 7.50969Z" fill="#AAAAAA"/>
<path d="M7.99952 5.75342L6.10938 7.60853H9.87068L7.99952 5.75342Z" fill="#AAAAAA"/>
<path d="M11.3438 7.60929H16.0012C15.9797 7.57251 15.9504 7.54059 15.9151 7.51609L13.5064 5.81299L11.3438 7.60929Z" fill="#AAAAAA"/>
<path d="M12.8308 5.6377H8.69043L10.5779 7.50887L12.8308 5.6377Z" fill="#AAAAAA"/>
<path d="M8.45898 16L15.7552 8.17236H10.7741L8.45898 16Z" fill="#AAAAAA"/>
<path d="M5.7998 8.17236L7.98878 15.5734L10.1775 8.17236H5.7998Z" fill="#AAAAAA"/>
<path d="M0.24707 8.17236L7.50595 15.9601L5.20272 8.17236H0.24707Z" fill="#AAAAAA"/>
<path d="M2.48119 5.82275L0.0862221 7.51635C0.0508736 7.54084 0.0215555 7.57277 0 7.60954H4.63232L2.48119 5.82275Z" fill="#AAAAAA"/>
<path d="M3.69445 0.845569C3.69445 1.3125 3.30876 1.69101 2.833 1.69101C2.35724 1.69101 1.97168 1.3125 1.97168 0.845569C1.97168 0.378642 2.35724 0 2.833 0C3.30876 0 3.69445 0.378642 3.69445 0.845569Z" fill="#AAAAAA"/>
<path d="M8.8604 0.845569C8.8604 1.3125 8.47471 1.69101 7.99902 1.69101C7.52319 1.69101 7.1377 1.3125 7.1377 0.845569C7.1377 0.378642 7.52319 0 7.99902 0C8.47471 0 8.8604 0.378642 8.8604 0.845569Z" fill="#AAAAAA"/>
<path d="M14.0293 0.845569C14.0293 1.3125 13.6437 1.69101 13.1681 1.69101C12.6923 1.69101 12.3066 1.3125 12.3066 0.845569C12.3066 0.378642 12.6923 0 13.1681 0C13.6437 0 14.0293 0.378642 14.0293 0.845569Z" fill="#AAAAAA"/>
</svg>
