<svg width="16" height="16" viewBox="0 0 16 16" fill="none" xmlns="http://www.w3.org/2000/svg">
<path d="M14.5938 0H1.40625C0.630859 0 0 0.662109 0 1.4375V10.8125C0 11.5879 0.630859 12.2188 1.40625 12.2188H8.46875V10.3438H1.875V1.90625H14.125V3.78125H15.0625C15.4055 3.78125 15.7231 3.88049 16 4.04199V1.4375C16 0.662109 15.3691 0 14.5938 0Z" fill="#C6C7CA"/>
<path d="M15.0625 4.71875H10.3438C9.82593 4.71875 9.40625 5.13843 9.40625 5.65625V6.59375H16V5.65625C16 5.13843 15.5803 4.71875 15.0625 4.71875Z" fill="#C6C7CA"/>
<path d="M9.40625 7.53125H16V13.1875H9.40625V7.53125Z" fill="#C6C7CA"/>
<path d="M9.40625 15.0625C9.40625 15.5802 9.82593 16 10.3438 16H15.0625C15.5803 16 16 15.5802 16 15.0625V14.125H9.40625V15.0625Z" fill="#C6C7CA"/>
</svg>
