<svg width="16" height="16" viewBox="0 0 16 16" fill="none" xmlns="http://www.w3.org/2000/svg">
<path d="M7.99531 3.26904C5.38908 3.26904 3.26855 5.39123 3.26855 7.99951C3.26855 10.6078 5.38908 12.73 7.99531 12.73C10.6016 12.73 12.7221 10.6078 12.7221 7.99951C12.7221 5.39123 10.6016 3.26904 7.99531 3.26904Z" fill="#C6C7CA"/>
<path d="M7.99863 9.04493L9.3538 10.4001L10.3986 9.35477L9.04396 8.0001L10.3986 6.64493L9.3538 5.6001L7.99863 6.95477L6.64396 5.6001L5.59863 6.64493L6.9538 8.0001L5.59863 9.35477L6.64396 10.4001L7.99863 9.04493Z" fill="white"/>
<path d="M4.37207 0.850931L5.55713 2.88361C6.16262 2.59313 6.82756 2.4072 7.52815 2.34963V0.000488281C6.41534 0.0640377 5.34541 0.355139 4.37207 0.850931Z" fill="#C6C7CA"/>
<path d="M8.46582 0V2.34942C9.15641 2.40609 9.81225 2.58761 10.4109 2.87089L11.5856 0.832273C10.622 0.347771 9.56488 0.0632367 8.46582 0Z" fill="#C6C7CA"/>
<path d="M13.6572 2.33347C13.2678 1.9438 12.8455 1.59947 12.3967 1.30273L11.2217 3.34166C11.7765 3.72759 12.2594 4.21025 12.6457 4.7649L14.6814 3.58642C14.3862 3.14041 14.044 2.72065 13.6572 2.33347Z" fill="#C6C7CA"/>
<path d="M3.55732 1.32471C3.12101 1.61643 2.71005 1.95354 2.33067 2.33321C1.93408 2.73011 1.58412 3.16142 1.28418 3.61999L3.32589 4.78812C3.70932 4.23159 4.18973 3.74643 4.74238 3.3577L3.55732 1.32471Z" fill="#C6C7CA"/>
<path d="M0.819746 4.43506C0.339342 5.40068 0.0588122 6.45992 0 7.56043L2.34727 7.55167C2.40136 6.86023 2.58027 6.20325 2.86083 5.60322L0.819746 4.43506Z" fill="#C6C7CA"/>
<path d="M2.35051 8.49072L0.00292969 8.49948C0.0698669 9.59877 0.358241 10.6561 0.846457 11.6189L2.8791 10.4351C2.59354 9.83696 2.40964 9.18154 2.35051 8.49072Z" fill="#C6C7CA"/>
<path d="M3.34808 11.2456L1.31543 12.4297C1.60818 12.8695 1.94658 13.2833 2.32846 13.6655C2.72255 14.0599 3.1507 14.4082 3.60576 14.7075L4.77548 12.6657C4.21976 12.2807 3.73592 11.7993 3.34808 11.2456Z" fill="#C6C7CA"/>
<path d="M7.54113 13.6511C6.85023 13.596 6.19377 13.4163 5.59452 13.1343L4.4248 15.1757C5.38936 15.6581 6.44742 15.9401 7.5471 16.0002L7.54113 13.6511Z" fill="#C6C7CA"/>
<path d="M10.4249 13.1216C9.82725 13.4067 9.17169 13.5899 8.48145 13.6484L8.48738 15.9978C9.58613 15.9321 10.6426 15.6447 11.605 15.1577L10.4249 13.1216Z" fill="#C6C7CA"/>
<path d="M12.6523 11.2222C12.267 11.7781 11.7853 12.262 11.2314 12.6492L12.4118 14.6853C12.8544 14.3907 13.271 14.0502 13.6553 13.6655C14.0469 13.2736 14.3931 12.8479 14.6909 12.3956L12.6523 11.2222Z" fill="#C6C7CA"/>
<path d="M13.8884 8.98827C13.9347 8.91409 14.0019 8.83834 14.0904 8.76166C14.1786 8.68497 14.2749 8.61048 14.3794 8.53848C14.4185 8.51155 14.4576 8.4856 14.4967 8.46086H14.5011C14.5671 8.41798 14.6293 8.37761 14.6965 8.33973C14.8035 8.27931 14.8986 8.2258 14.9824 8.17917C15.0844 8.12347 15.1901 8.05961 15.2992 7.98762C15.4084 7.91562 15.5094 7.83049 15.6026 7.73314C15.6642 7.66834 15.7186 7.59728 15.7658 7.51997C15.7899 7.48085 15.8121 7.44047 15.8325 7.39822C15.8928 7.27272 15.9231 7.12873 15.9231 6.96595C15.9231 6.79378 15.8894 6.63447 15.8221 6.48798C15.7545 6.34149 15.657 6.21599 15.5294 6.11144C15.4015 6.00689 15.2447 5.92551 15.059 5.86728C14.8729 5.80936 14.6617 5.78027 14.4247 5.78027C14.2157 5.78027 14.0193 5.80251 13.8357 5.84664C13.6522 5.89077 13.4852 5.9465 13.3341 6.01377C13.183 6.08138 13.0519 6.15338 12.9403 6.23006C12.8289 6.30675 12.7429 6.3778 12.6826 6.44291L13.2818 7.13311C13.3375 7.06362 13.3991 6.99725 13.4667 6.93436C13.5339 6.87175 13.608 6.8148 13.6897 6.76344C13.7707 6.71244 13.8579 6.67175 13.9508 6.64169C14.0437 6.61133 14.146 6.59631 14.2573 6.59631C14.4666 6.59631 14.6267 6.64638 14.7383 6.74624C14.8497 6.8461 14.9056 6.96598 14.9056 7.10527C14.9056 7.19384 14.88 7.27147 14.8287 7.33908C14.7821 7.40075 14.7155 7.46177 14.6295 7.52157L13.1911 8.39202C13.051 8.51659 12.9409 8.65026 12.8602 8.79299C12.7789 8.93729 12.7219 9.0941 12.6894 9.26377C12.6569 9.43374 12.6406 9.62311 12.6406 9.83218H15.9998V8.9883H13.8884V8.98827Z" fill="#C6C7CA"/>
</svg>
