<svg width="16" height="16" viewBox="0 0 16 16" fill="none" xmlns="http://www.w3.org/2000/svg">
<path d="M11 10.3226C11.8272 10.3226 12.5 9.62806 12.5 8.77422C12.5 7.92038 11.8272 7.22583 11 7.22583C10.1728 7.22583 9.5 7.92038 9.5 8.77422C9.5 9.62806 10.1728 10.3226 11 10.3226Z" fill="#C6C7CA"/>
<path d="M15 0H1C0.447719 0 0 0.462129 0 1.03226V10.3226C0 10.8903 0.45 11.3548 1 11.3548H8.5V15.4839C8.5 15.6795 8.60694 15.8581 8.77637 15.9456C8.94581 16.0328 9.14819 16.0136 9.30006 15.8967L11 14.5806L12.6999 15.8967C12.7883 15.965 12.8938 16 13 16C13.0762 16 13.1528 15.9821 13.2236 15.9455C13.3931 15.8581 13.5 15.6794 13.5 15.4838V11.3548H15C15.55 11.3548 16 10.8903 16 10.3226V1.03226C16 0.464484 15.55 0 15 0ZM9.41334 10.7445C9.36403 10.5865 9.24391 10.4627 9.09084 10.4118L8.55275 10.2326L8.67116 9.66152C8.70484 9.49948 8.66116 9.33035 8.55325 9.20739L8.17406 8.77419L8.55322 8.34097C8.66113 8.21797 8.70484 8.04887 8.67113 7.88684L8.55272 7.31577L9.09081 7.13658C9.24388 7.08568 9.364 6.96194 9.41331 6.8039L9.58716 6.24771L10.1401 6.37045C10.2973 6.406 10.4609 6.35987 10.5806 6.24874L11 5.8571L11.4194 6.24874C11.5388 6.35987 11.7017 6.40626 11.8599 6.37045L12.4128 6.24771L12.5867 6.8039C12.636 6.9619 12.7561 7.08564 12.9092 7.13658L13.4473 7.31577L13.3289 7.88684C13.2952 8.04887 13.3389 8.218 13.4468 8.34097L13.8259 8.77419L13.4468 9.20742C13.3389 9.33042 13.2952 9.49952 13.3289 9.66155L13.4473 10.2326L12.9092 10.4118C12.7561 10.4627 12.636 10.5865 12.5867 10.7445L12.4131 11.3004L11.8601 11.1774C11.7036 11.1421 11.5388 11.1875 11.4194 11.2991L11 11.691L10.5806 11.2992C10.4878 11.2125 10.3679 11.1658 10.2451 11.1658C10.21 11.1658 10.1748 11.1696 10.1399 11.1774L9.58694 11.3004L9.41334 10.7445ZM2.5 2.06452C2.50044 2.06452 2.50078 2.06477 2.50122 2.06477H12.4988C12.4992 2.06477 12.4996 2.06452 12.5 2.06452C12.7764 2.06452 13 2.29587 13 2.58065C13 2.86594 12.7764 3.09677 12.5 3.09677V3.09703H2.5V3.09677C2.22412 3.09677 2 2.86594 2 2.58065C2 2.29587 2.22412 2.06452 2.5 2.06452ZM2.5 4.64516H7.5C7.77637 4.64516 8 4.87626 8 5.16129C8 5.44632 7.77637 5.67742 7.5 5.67742H2.5C2.22412 5.67742 2 5.44632 2 5.16129C2 4.87626 2.22412 4.64516 2.5 4.64516ZM5.5 8.25806H2.5C2.22412 8.25806 2 8.02697 2 7.74194C2 7.4569 2.22412 7.22581 2.5 7.22581H5.5C5.77637 7.22581 6 7.4569 6 7.74194C6 8.02697 5.77637 8.25806 5.5 8.25806Z" fill="#C6C7CA"/>
</svg>
