<svg width="41" height="20" viewBox="0 0 41 20" fill="none" xmlns="http://www.w3.org/2000/svg">
<rect x="21" width="20" height="20" rx="2" fill="#1E88E5"/>
<path d="M37 7.75758C37 7.9596 36.9277 8.13131 36.7832 8.27273L31.1781 13.7576L30.1252 14.7879C29.9806 14.9293 29.8052 15 29.5987 15C29.3923 15 29.2168 14.9293 29.0723 14.7879L28.0194 13.7576L25.2168 11.0152C25.0723 10.8737 25 10.702 25 10.5C25 10.298 25.0723 10.1263 25.2168 9.98485L26.2697 8.95455C26.4142 8.81313 26.5897 8.74242 26.7961 8.74242C27.0026 8.74242 27.1781 8.81313 27.3226 8.95455L29.5987 11.1894L34.6774 6.21212C34.8219 6.07071 34.9974 6 35.2039 6C35.4103 6 35.5858 6.07071 35.7303 6.21212L36.7832 7.24242C36.9277 7.38384 37 7.55556 37 7.75758Z" fill="white"/>
<rect x="0.5" y="0.5" width="19" height="19" rx="1.5" fill="#D6DDE2" fill-opacity="0.3" stroke="#C9C9C9"/>
</svg>
