<svg width="16" height="16" viewBox="0 0 16 16" fill="none" xmlns="http://www.w3.org/2000/svg">
<path d="M15.0061 8.5488V14.9533H3.33417V8.5488H15.0061ZM15.9994 7.50317H2.34082V15.9989H15.9994V7.50317Z" fill="#C6C7CA"/>
<path d="M12.2754 7.50342L13.6735 8.97514C13.663 9.02938 13.6425 9.07971 13.6425 9.13721C13.6425 9.60579 14.0032 9.98483 14.4483 9.98483C14.503 9.98483 14.5502 9.96326 14.6017 9.95281L16.0005 11.4245V7.50342H12.2754Z" fill="#C6C7CA"/>
<path d="M13.2062 12.6011C13.6513 12.6011 14.0121 12.2213 14.0121 11.7528C14.0121 11.2843 13.6513 10.9045 13.2062 10.9045C12.7612 10.9045 12.4004 11.2843 12.4004 11.7528C12.4004 12.2213 12.7612 12.6011 13.2062 12.6011Z" fill="#C6C7CA"/>
<path d="M9.16986 13.9822C10.516 13.9822 11.6073 12.9833 11.6073 11.7511C11.6073 10.5189 10.516 9.52002 9.16986 9.52002C7.8237 9.52002 6.73242 10.5189 6.73242 11.7511C6.73242 12.9833 7.8237 13.9822 9.16986 13.9822Z" fill="#C6C7CA"/>
<path d="M5.13434 12.5998C5.57906 12.5998 5.93957 12.2203 5.93957 11.7522C5.93957 11.284 5.57906 10.9045 5.13434 10.9045C4.68962 10.9045 4.3291 11.284 4.3291 11.7522C4.3291 12.2203 4.68962 12.5998 5.13434 12.5998Z" fill="#C6C7CA"/>
<path d="M2.34082 11.4243L3.73896 9.95256C3.79049 9.96367 3.8383 9.98524 3.89293 9.98524C4.33808 9.98524 4.69817 9.60554 4.69817 9.13697C4.69817 9.07946 4.67768 9.02979 4.66713 8.97555L6.06589 7.50317H2.34082V11.4243Z" fill="#C6C7CA"/>
<path d="M4.69977 14.3664C4.69977 13.8978 4.33906 13.5188 3.89391 13.5188C3.83928 13.5188 3.79209 13.5404 3.74056 13.5508L2.3418 12.0791V16.0002H6.06687L4.66872 14.5285C4.67928 14.4742 4.69977 14.4233 4.69977 14.3664Z" fill="#C6C7CA"/>
<path d="M14.4483 13.5181C14.0032 13.5181 13.6431 13.8978 13.6431 14.3664C13.6431 14.4239 13.6636 14.4736 13.6742 14.5278L12.2754 16.0002H16.0005V12.0791L14.6023 13.5508C14.5508 13.5397 14.503 13.5181 14.4483 13.5181Z" fill="#C6C7CA"/>
<path d="M11.4673 5.98795C11.9121 5.98795 12.2726 5.60846 12.2726 5.14034C12.2726 4.67221 11.9121 4.29272 11.4673 4.29272C11.0226 4.29272 10.6621 4.67221 10.6621 5.14034C10.6621 5.60846 11.0226 5.98795 11.4673 5.98795Z" fill="#C6C7CA"/>
<path d="M1.40994 7.50566C1.40994 6.96455 1.82715 6.52538 2.34121 6.52538H2.8503L2.87327 6.44173L10.0608 2.29843L10.6102 2.46703C10.6258 2.51931 10.6313 2.57421 10.658 2.62453C10.8716 3.03625 11.3608 3.1859 11.752 2.96109C11.7992 2.93365 11.8314 2.89117 11.8706 2.85522L12.4212 3.02514L13.6735 5.43139L13.5127 6.01041C13.4636 6.0261 13.4115 6.03198 13.3637 6.05943C13.1818 6.16399 13.0607 6.33521 12.9968 6.52538H15.3752L13.7697 3.43882H13.7703L11.9804 0L8.71232 1.88344H8.71294L3.26751 5.02229L0 6.90573L1.40994 9.61588V7.50566Z" fill="#C6C7CA"/>
<path d="M6.91126 5.22085C6.3705 5.53192 5.98123 6.00376 5.7627 6.52396H10.2533C10.2173 6.32464 10.1632 6.12924 10.0676 5.9456C9.50453 4.86468 8.09211 4.54053 6.91126 5.22085Z" fill="#C6C7CA"/>
</svg>
