<svg width="16" height="16" viewBox="0 0 16 16" fill="none" xmlns="http://www.w3.org/2000/svg">
<path fill-rule="evenodd" clip-rule="evenodd" d="M7.99852 11.5262C7.54546 11.5262 7.10662 11.4609 6.69043 11.3391L7.99755 14.2729L9.30439 11.3397C8.88889 11.4611 8.4508 11.5262 7.99852 11.5262Z" fill="#C6C7CA"/>
<path fill-rule="evenodd" clip-rule="evenodd" d="M1.64037 13.3896C1.52319 13.1655 1.46372 12.9062 1.48128 12.6344L1.53212 11.8754L1.04572 11.8345C0.396252 12.9039 0.0174086 14.1451 0.00240863 15.468C-0.0254038 15.7527 0.19119 16 0.468783 16L5.24837 15.9994C4.55809 15.5392 1.95253 13.9866 1.64037 13.3896Z" fill="#C6C7CA"/>
<path fill-rule="evenodd" clip-rule="evenodd" d="M14.4652 11.8753L14.5161 12.6343C14.5336 12.9061 14.4742 13.1654 14.357 13.3896C14.2406 13.612 14.0665 13.7995 13.8535 13.9295L10.75 15.9986L15.5304 15.998C15.7847 16.0006 15.9985 15.7826 15.9973 15.5148C15.9908 14.1743 15.6106 12.9163 14.9534 11.8342L14.4652 11.8753Z" fill="#C6C7CA"/>
<path fill-rule="evenodd" clip-rule="evenodd" d="M7.43203 15.3055L5.39382 10.7308C5.10798 10.5396 4.84282 10.3182 4.60285 10.0708C4.05117 9.50208 3.63217 8.79631 3.39895 8.00854L0.217361 10.0032C-0.136576 10.2172 -0.022732 10.7735 0.383892 10.8067L2.53036 10.9902L2.41592 12.6985C2.40483 12.8702 2.49229 13.0252 2.62839 13.1048L6.866 15.9299C7.06053 16.0602 7.32069 16.0032 7.44703 15.8027C7.5285 15.6733 7.53444 15.5159 7.47622 15.3854L7.43203 15.3055Z" fill="#C6C7CA"/>
<path fill-rule="evenodd" clip-rule="evenodd" d="M13.5834 12.6984L13.4689 10.9902L15.6139 10.7443C16.0205 10.7111 16.1474 10.1535 15.7934 9.93958L12.602 8.00952C12.3687 8.7969 11.9498 9.50229 11.3983 10.0708C11.1576 10.3189 10.8915 10.541 10.6047 10.7326L8.56724 15.3055L8.52299 15.3855C8.46477 15.5159 8.47071 15.6734 8.55221 15.8027C8.67859 16.0032 8.93871 16.0602 9.13327 15.93L13.3709 13.1048C13.507 13.0252 13.5945 12.8702 13.5834 12.6984Z" fill="#C6C7CA"/>
<path fill-rule="evenodd" clip-rule="evenodd" d="M8.0002 10.5597C10.1309 10.5597 11.8725 8.76432 11.8725 6.56781V5.65869H4.12793V6.56781C4.12793 8.76432 5.86952 10.5597 8.0002 10.5597Z" fill="#C6C7CA"/>
<path fill-rule="evenodd" clip-rule="evenodd" d="M3.18747 4.70531C6.39582 4.70531 9.60414 4.70531 12.8125 4.70531C13.0714 4.70531 13.2812 4.48895 13.2812 4.22208C13.2812 3.95521 13.0714 3.73885 12.8125 3.73885H11.9893C11.7212 2.60116 11.5154 1.20346 10.756 0.420523C10.0775 -0.278939 9.58936 0.0596777 8.98739 0.477319C8.70323 0.674478 8.37607 0.901468 8.00132 0.901468C7.63667 0.901468 7.31898 0.673383 7.04191 0.474452C6.44132 0.0432156 5.95241 -0.307772 5.24597 0.420491C4.46294 1.22771 4.2315 2.59391 3.99866 3.73888H3.1875C2.92863 3.73888 2.71875 3.95524 2.71875 4.22211C2.71872 4.48895 2.92859 4.70531 3.18747 4.70531Z" fill="#C6C7CA"/>
</svg>
