<svg width="16" height="16" viewBox="0 0 16 16" fill="none" xmlns="http://www.w3.org/2000/svg">
<path d="M12.5455 14.5H11.0547L10.7517 13H5.24834L4.94531 14.5H3.45455C3.20336 14.5 3 14.8355 3 15.25C3 15.6645 3.20336 16 3.45455 16H12.5455C12.7966 16 13 15.6645 13 15.25C13 14.8355 12.7966 14.5 12.5455 14.5Z" fill="#C6C7CA"/>
<path d="M12.6875 2.8125C12.4288 2.8125 12.2188 3.02258 12.2188 3.28125C12.2188 3.53992 12.4288 3.75 12.6875 3.75C12.9462 3.75 13.1562 3.53992 13.1562 3.28125C13.1562 3.02258 12.9462 2.8125 12.6875 2.8125Z" fill="#C6C7CA"/>
<path d="M14.5625 0H1.40625C0.630859 0 0 0.630859 0 1.40625V9.375H2.84375V7.96875C2.84375 7.70972 3.05347 7.5 3.3125 7.5H4.03674C4.08521 7.36365 4.14062 7.22986 4.20337 7.09851L3.69104 6.58581C3.50793 6.40271 3.50793 6.10608 3.69104 5.92297L5.01672 4.59729C5.19983 4.41418 5.49646 4.41418 5.67957 4.59729L6.19226 5.10998C6.32361 5.04724 6.45728 4.99145 6.59375 4.94287V4.21875C6.59375 3.95972 6.80347 3.75 7.0625 3.75H8.9375C9.19653 3.75 9.40625 3.95972 9.40625 4.21875V4.94299C9.5426 4.99145 9.67639 5.04736 9.80774 5.10998L10.3204 4.59729C10.5035 4.41431 10.8002 4.41431 10.9833 4.59729L12.309 5.92297C12.4921 6.10608 12.4921 6.40283 12.309 6.58581L11.7966 7.09851C11.8594 7.22998 11.9148 7.36365 11.9633 7.5H12.6875C12.9465 7.5 13.1562 7.70972 13.1562 7.96875V9.375H16V1.40625C16 0.630859 15.3379 0 14.5625 0ZM12.6875 4.6875C11.9121 4.6875 11.2812 4.05664 11.2812 3.28125C11.2812 2.50586 11.9121 1.875 12.6875 1.875C13.4629 1.875 14.0938 2.50586 14.0938 3.28125C14.0938 4.05664 13.4629 4.6875 12.6875 4.6875Z" fill="#C6C7CA"/>
<path d="M6.59375 8.90625C6.59375 9.06824 6.6311 9.22449 6.68469 9.375H9.31531C9.3689 9.22449 9.40625 9.06824 9.40625 8.90625C9.40625 8.13086 8.77539 7.5 8 7.5C7.22449 7.5 6.59375 8.13086 6.59375 8.90625Z" fill="#C6C7CA"/>
<path d="M4.83679 8.08594C4.78333 8.29285 4.59656 8.4375 4.38269 8.4375H3.78125V9.375H5.7179C5.6864 9.22058 5.65625 9.06543 5.65625 8.90625C5.65625 7.61401 6.70776 6.5625 8 6.5625C9.29224 6.5625 10.3438 7.61401 10.3438 8.90625C10.3438 9.06543 10.3136 9.22058 10.2821 9.375H12.2188V8.4375H11.6173C11.4034 8.4375 11.2167 8.29285 11.1632 8.08594C11.0885 7.79529 10.9718 7.51416 10.8162 7.25049C10.7076 7.06653 10.7374 6.83215 10.8884 6.68103L11.3147 6.25439L10.6519 5.59155L10.2252 6.01819C10.0741 6.1698 9.83923 6.19995 9.65527 6.09009C9.39209 5.93494 9.11145 5.81775 8.82031 5.74304C8.6134 5.68958 8.46875 5.50281 8.46875 5.28894V4.6875H7.53125V5.28894C7.53125 5.50281 7.3866 5.68958 7.17969 5.74304C6.88855 5.81775 6.60791 5.93494 6.34473 6.09009C6.16162 6.19995 5.92627 6.1698 5.77478 6.01819L5.34814 5.59155L4.6853 6.25439L5.11157 6.68103C5.26257 6.83215 5.29236 7.06653 5.18384 7.25049C5.0282 7.51416 4.9115 7.79529 4.83679 8.08594Z" fill="#C6C7CA"/>
<path d="M0 10.7812C0 11.5566 0.630859 12.1875 1.40625 12.1875H14.5625C15.3379 12.1875 16 11.5566 16 10.7812V10.3125H0V10.7812Z" fill="#C6C7CA"/>
</svg>
