<svg xmlns="http://www.w3.org/2000/svg" version="1.2"><font><font-face font-family="Discount" ascent="724" descent="-267" font-style="normal" font-weight="500" font-stretch="condensed" slope="-10" cap-height="708" x-height="552" underline-position="-66" underline-thickness="133"/><glyph glyph-name="NULL"/><glyph glyph-name="CR" horiz-adv-x="250"/><glyph glyph-name="space" horiz-adv-x="333"/><glyph glyph-name="dollar" unicode="$" horiz-adv-x="440" d="M238 718C140 690 75 600 75 494c0-67 23-115 81-167l40-36c29-26 40-49 40-80 0-51-34-85-84-85-42 0-78 15-148 64L9 21C42 3 76-9 109-14L87-133h108l21 123c105 26 175 119 175 233 0 79-29 135-103 200l-28 24c-20 18-30 37-30 60 0 41 30 69 75 69 32 0 59-12 95-43l27 152c-27 19-52 31-81 37l16 91H254l-16-95z"/><glyph glyph-name="percent" unicode="%" horiz-adv-x="683" d="M222 727c-96 0-177-102-177-222 0-94 52-157 129-157 93 0 172 102 172 221 0 92-52 158-124 158zm-13-112c11 0 17-12 17-31 0-59-23-124-44-124-11 0-17 11-17 29 0 62 23 126 44 126zm295 93L64 0h110l440 708H504zm5-348c-96 0-177-101-177-222 0-94 51-157 129-157 92 0 172 102 172 221 0 92-52 158-124 158zm-13-112c11 0 17-12 17-31 0-60-23-124-44-124-10 0-17 11-17 29 0 62 23 126 44 126z"/><glyph glyph-name="parenleft" unicode="(" horiz-adv-x="240" d="M190 758C71 581 13 410 13 236c0-84 12-160 41-253h122c-23 106-31 166-31 245 0 170 49 326 168 530H190z"/><glyph glyph-name="parenright" unicode=")" horiz-adv-x="241" d="M56-17c126 195 177 346 177 522 0 85-13 166-41 253H70c21-92 31-166 31-245 0-171-46-316-168-530H56z"/><glyph glyph-name="plus" unicode="+" horiz-adv-x="427" d="M136 294l-20-111h134l19 111h107l23 133H293l18 106H178l-19-106H53L29 294h107z"/><glyph glyph-name="hyphen" unicode="-" horiz-adv-x="165" d="M13 427l-24-133h165l24 133H13z"/><glyph glyph-name="period" unicode="." horiz-adv-x="225" d="M60 138c-43 0-75-32-75-75 0-41 35-76 76-76 42 0 75 32 75 74s-34 77-76 77z"/><glyph glyph-name="slash" unicode="/" horiz-adv-x="306" d="M232 708L-60 0H73l292 708H232z"/><glyph glyph-name="zero" unicode="0" horiz-adv-x="440" d="M273 727c-82 0-150-52-191-146C36 476 6 328 6 210 6 64 65-19 171-19c81 0 147 51 187 144 44 107 73 252 73 371 0 146-58 231-158 231zm-16-137c24 0 37-20 37-57 0-76-30-252-60-352-13-42-31-63-53-63s-35 21-35 58c0 72 29 243 59 351 12 43 28 63 52 63z"/><glyph glyph-name="one" unicode="1" horiz-adv-x="300" d="M29 0h153l125 708H114L81 570h49L29 0z"/><glyph glyph-name="two" unicode="2" horiz-adv-x="440" d="M383 137H209l118 158c88 117 117 180 117 254 0 101-78 181-178 181-99 0-167-56-222-182l126-49c24 64 48 91 82 91 28 0 46-21 46-53 0-44-32-107-97-190L-68 0h405l46 137z"/><glyph glyph-name="three" unicode="3" horiz-adv-x="440" d="M-39 77C16 7 76-22 162-22c137 0 230 105 230 257 0 61-12 100-44 143 61 53 91 113 91 180 0 100-73 172-175 172-73 0-129-32-190-110l101-70c28 32 40 40 63 40 31 0 50-22 50-57 0-61-41-113-90-113h-31l-20-114h23c49 0 75-27 75-79 0-64-35-109-85-109-36 0-64 17-96 56L-39 77z"/><glyph glyph-name="four" unicode="4" horiz-adv-x="440" d="M374 266l84 475-554-608h300L181 0h148l23 133h34l22 133h-34zm-201-6l93 113-28-113h-65z"/><glyph glyph-name="five" unicode="5" horiz-adv-x="440" d="M155 708L57 333c51 17 72 22 101 22 59 0 92-31 92-88 0-88-44-149-108-149-36 0-61 12-99 50L-51 65C5 8 67-19 145-19c152 0 254 121 254 302 0 114-57 191-143 191h-18l26 97h127l33 137H155z"/><glyph glyph-name="six" unicode="6" horiz-adv-x="440" d="M300 708c-34-36-88-98-140-161C36 394-8 299-8 182-8 62 65-19 173-19c129 0 232 135 232 305 0 109-60 188-143 188h-9c64 86 135 168 201 234H300zm-83-359c27 0 42-21 42-58 0-95-36-173-80-173-27 0-42 24-42 67 0 84 39 164 80 164z"/><glyph glyph-name="seven" unicode="7" horiz-adv-x="440" d="M96 708L63 571h217L1 0h151l346 708H96z"/><glyph glyph-name="eight" unicode="8" horiz-adv-x="440" d="M113 382C28 333-11 266-11 171-11 56 61-19 173-19c129 0 225 105 225 246 0 71-15 110-62 155 67 34 101 92 101 171 0 103-68 174-168 174-119 0-209-96-209-222 0-54 14-86 53-123zm121 57c-23 18-28 28-28 57 0 55 22 94 52 94 22 0 35-18 35-49 0-43-22-81-59-102zm-23-136c29-17 38-32 38-68 0-71-27-117-70-117-30 0-43 17-43 58 0 59 23 101 66 122 4 3 5 3 9 5z"/><glyph glyph-name="nine" unicode="9" horiz-adv-x="440" d="M146 0c33 34 88 98 140 161 126 154 168 246 168 364 0 121-73 202-181 202-129 0-232-136-232-305 0-108 60-188 141-188h11C131 150 60 67-8 0h154zm121 590c27 0 42-24 42-67 0-84-39-164-80-164-27 0-42 21-42 59 0 95 36 172 80 172z"/><glyph glyph-name="A" unicode="A" horiz-adv-x="552" d="M499 0L345 733-73 0H88l57 110h184L348 0h151zM315 227H202l86 170 27-170z"/><glyph glyph-name="B" unicode="B" horiz-adv-x="474" d="M-3 0h130c191 0 293 86 293 246 0 57-17 100-53 131 61 35 90 85 90 154 0 118-79 177-235 177H122L-3 0zm247 568h8c39 0 55-16 55-55 0-64-31-98-90-98l27 153zm-48-273c53 0 71-15 71-62 0-63-34-95-99-95l28 157z"/><glyph glyph-name="C" unicode="C" horiz-adv-x="484" d="M518 673c-50 40-89 54-144 54-187 0-353-212-353-451C21 104 123-19 265-19c59 0 110 18 167 59l-15 139c-43-37-83-54-128-54-70 0-108 53-108 151 0 161 85 301 183 301 38 0 68-17 108-64l46 160z"/><glyph glyph-name="D" unicode="D" horiz-adv-x="553" d="M-3 0h138c110 0 184 21 243 69 90 72 150 211 150 348 0 189-101 291-288 291H122L-3 0zm178 140l75 428h7c70 0 111-55 111-148 0-154-84-280-186-280h-7z"/><glyph glyph-name="E" unicode="E" horiz-adv-x="431" d="M-3 0h336l25 140H175l26 149h155l24 133H225l25 146h181l25 140H122L-3 0z"/><glyph glyph-name="F" unicode="F" horiz-adv-x="421" d="M-3 0h153l48 271h169l23 133H222l28 164h183l25 140H122L-3 0z"/><glyph glyph-name="G" unicode="G" horiz-adv-x="541" d="M520 673c-50 40-89 54-144 54-186 0-353-213-353-450C23 103 124-19 270-19c73 0 121 22 193 89l56 320H294l-23-133h75l-23-128c-14-3-22-4-33-4-70 0-107 53-107 152 0 160 85 300 183 300 38 0 67-17 108-64l46 160z"/><glyph glyph-name="H" unicode="H" horiz-adv-x="575" d="M-3 0h153l53 300h149L299 0h153l125 708H424l-48-268H228l47 268H122L-3 0z"/><glyph glyph-name="I" unicode="I" horiz-adv-x="273" d="M-3 0h153l125 708H122L-3 0z"/><glyph glyph-name="J" unicode="J" horiz-adv-x="338" d="M-42-5c26-10 50-14 78-14 125 0 195 79 226 258l83 469H192l-85-478c-12-72-37-106-78-106-18 0-37 5-57 14L-42-5z"/><glyph glyph-name="K" unicode="K" horiz-adv-x="535" d="M-3 0h153l59 333L317 0h160L354 367l232 341H415L223 413l52 295H122L-3 0z"/><glyph glyph-name="L" unicode="L" horiz-adv-x="411" d="M-3 0h336l25 140H175l100 568H122L-3 0z"/><glyph glyph-name="M" unicode="M" horiz-adv-x="645" d="M-55 0h155l87 267 71-294 175 294 3-267h139l-24 733-239-426-84 426L-55 0z"/><glyph glyph-name="N" unicode="N" horiz-adv-x="575" d="M-3 0h153l60 337L447-27l130 735H424l-60-337-238 362L-3 0z"/><glyph glyph-name="O" unicode="O" horiz-adv-x="615" d="M369 727C181 727 21 513 21 260 21 95 116-19 252-19c87 0 169 43 225 119 73 96 115 225 115 347 0 159-97 280-223 280zm-20-150c52 0 83-51 83-138 0-166-80-314-169-314-51 0-82 52-82 139 0 164 80 313 168 313z"/><glyph glyph-name="P" unicode="P" horiz-adv-x="445" d="M-3 0h153l40 223c157 3 264 109 264 265 0 66-23 131-62 168-36 36-86 52-164 52H122L-3 0zm253 568c38-2 54-23 54-69 0-85-31-132-89-135l35 204z"/><glyph glyph-name="Q" unicode="Q" horiz-adv-x="615" d="M86 53l-19 3C53 24 42-2 11-72c58-1 106-16 177-55 90-54 114-62 203-69l56 121c-72 4-123 19-195 56 55 0 103 15 151 47 108 74 189 252 189 419 0 159-97 280-224 280-186 0-347-214-347-463 0-81 26-160 71-213l-6 2zm263 524c52 0 83-51 83-138 0-166-80-314-169-314-51 0-82 52-82 139 0 164 80 313 168 313z"/><glyph glyph-name="R" unicode="R" horiz-adv-x="480" d="M-3 0h153l46 260h14L257 0h165l-73 304c74 41 115 115 115 204 0 131-83 200-241 200H122L-3 0zm253 568c42-3 57-19 57-62 0-72-31-113-88-116l31 178z"/><glyph glyph-name="S" unicode="S" horiz-adv-x="417" d="M404 686c-42 29-80 41-128 41-126 0-224-102-224-233 0-67 23-115 81-167l40-37c28-25 40-49 40-80 0-51-34-85-84-85-42 0-77 15-148 64l5-169C39-7 82-19 130-19c136 0 238 103 238 242 0 78-29 135-103 200l-28 24c-21 18-30 37-30 60 0 41 31 70 74 70 33 0 60-12 96-44l27 153z"/><glyph glyph-name="T" unicode="T" horiz-adv-x="422" d="M72 0h154l100 568h139l25 140H58L33 568h139L72 0z"/><glyph glyph-name="U" unicode="U" horiz-adv-x="555" d="M118 708L45 294c-9-49-14-97-14-127C31 58 114-19 232-19c74 0 146 33 185 86 36 49 48 87 73 228l73 413H416l-78-445c-14-72-14-72-21-92-11-29-35-46-66-46-42 0-69 24-69 61 0 13 3 34 11 80l78 442H118z"/><glyph glyph-name="V" unicode="V" horiz-adv-x="517" d="M57 708L191-27l393 735H422L257 360l-49 348H57z"/><glyph glyph-name="W" unicode="W" horiz-adv-x="670" d="M57 708L159-27l169 347 61-347 348 735H577L447 390l-48 343-162-343-27 318H57z"/><glyph glyph-name="X" unicode="X" horiz-adv-x="537" d="M92 0l157 231L325 0h154L347 378l237 330H424L293 515l-63 193H77l121-335L-68 0H92z"/><glyph glyph-name="Y" unicode="Y" horiz-adv-x="500" d="M113 0h154l62 353 240 355H409L273 493l-64 215H56l119-355L113 0z"/><glyph glyph-name="Z" unicode="Z" horiz-adv-x="475" d="M105 708L61 568h216L-68 0h452l45 140H182l345 568H105z"/><glyph glyph-name="a" unicode="a" horiz-adv-x="502" d="M487 568l-136-16c-45 12-67 16-94 16C117 568 2 396 2 186 2 56 54-16 146-16c37 0 66 12 105 43v-43L393 0c3 40 11 98 26 182l68 386zM267 153c-29-24-48-33-72-33-36 0-53 26-53 78 0 130 54 235 120 235 19 0 31-5 51-20l-46-260z"/><glyph glyph-name="b" unicode="b" horiz-adv-x="508" d="M129 0c43-12 64-16 90-16 143 0 258 171 258 382 0 130-52 202-145 202-32 0-53-8-97-36l34 189-149-13L-8-16 129 0zm83 399c29 24 48 33 72 33 36 0 53-26 53-78 0-130-54-235-120-235-19 0-31 5-51 20l46 260z"/><glyph glyph-name="c" unicode="c" horiz-adv-x="411" d="M354 188c-64-53-94-68-135-68-51 0-77 35-77 105 0 124 56 208 139 208 33 0 56-10 94-42l37 129c-43 34-81 48-131 48C125 568 1 413 1 219 1 74 76-16 197-16c51 0 84 12 149 54l8 150z"/><glyph glyph-name="d" unicode="d" horiz-adv-x="504" d="M365 708l-27-152c-37 9-59 12-82 12C117 568 2 395 2 186 2 56 53-16 146-16c37 0 66 12 105 43v-43L393 0c3 40 11 97 26 182l95 542-149-16zm-98-555c-29-24-48-33-72-33-36 0-53 26-53 78 0 130 54 235 120 235 19 0 31-5 51-20l-46-260z"/><glyph glyph-name="e" unicode="e" horiz-adv-x="469" d="M401 189c-82-54-121-69-176-69-62 0-85 25-85 93l291 50c8 58 11 86 11 116 0 110-70 189-168 189C123 568 2 412 2 217 2 69 74-16 200-16c66 0 114 16 195 67l6 138zM153 324c18 72 52 109 99 109 37 0 55-21 55-62l-1-21-153-26z"/><glyph glyph-name="f" unicode="f" horiz-adv-x="289" d="M366 796c-22 3-44 4-58 4-117 0-186-67-210-203l-8-45H43L20 420h47L-7 0h140l74 420h93l23 132h-93l10 56c5 29 27 45 62 45 8 0 14-1 26-3l38 146z"/><glyph glyph-name="g" unicode="g" horiz-adv-x="502" d="M-40-218c61-35 111-49 177-49 151 0 216 74 253 285l97 550-136-16c-45 12-67 16-93 16C117 568 2 396 2 186 2 56 54-16 146-16c37 0 67 12 105 43-21-138-40-164-118-164-51 0-94 18-149 63l-24-144zm307 371c-30-25-48-33-72-33-36 0-53 25-53 78 0 130 54 235 120 235 19 0 31-5 51-20l-46-260z"/><glyph glyph-name="h" unicode="h" horiz-adv-x="506" d="M132 0l51 286c17 99 50 147 100 147 23 0 36-14 36-40 0-8-1-21-3-33L252 0h140l66 374c6 31 9 64 9 83 0 69-40 111-104 111-53 0-94-21-144-75l41 231-143-16L-8 0h140z"/><glyph glyph-name="i" unicode="i" horiz-adv-x="244" d="M129 0l100 568-143-16L-11 0h140zm54 779c-46 0-79-33-79-78 0-43 36-80 79-80 45 0 79 34 79 79 0 43-36 79-79 79z"/><glyph glyph-name="j" unicode="j" horiz-adv-x="244" d="M99-175l131 743-143-16-131-743 143 16zm84 954c-46 0-79-33-79-78 0-43 36-80 79-80 45 0 79 34 79 79 0 44-35 79-79 79z"/><glyph glyph-name="k" unicode="k" horiz-adv-x="471" d="M193 346l67 378-143-16L-8 0h140l49 280L275 0h149L318 310l167 242H325L193 346z"/><glyph glyph-name="l" unicode="l" horiz-adv-x="250" d="M132 0l128 724-143-16L-8 0h140z"/><glyph glyph-name="m" unicode="m" horiz-adv-x="763" d="M249 0h140l51 286c17 99 50 147 100 147 23 0 36-14 36-40 0-8-1-21-3-33L509 0h140l66 374c6 31 9 64 9 83 0 69-40 111-104 111-57 0-95-21-157-88-9 56-46 88-103 88-54 0-94-21-144-75l13 75-143-16L-11 0h140l51 286c17 99 50 147 100 147 23 0 36-14 36-40 0-8-1-21-3-33L249 0z"/><glyph glyph-name="n" unicode="n" horiz-adv-x="503" d="M129 0l51 286c17 99 50 147 100 147 23 0 36-14 36-40 0-8-1-21-3-33L249 0h140l66 374c6 31 9 64 9 83 0 69-40 111-104 111-53 0-94-21-144-75l13 75-143-16L-11 0h140z"/><glyph glyph-name="o" unicode="o" horiz-adv-x="496" d="M278 568C125 568 2 413 2 218 2 77 79-16 195-16c148 0 270 154 270 342 0 142-78 242-187 242zm-17-135c38 0 63-35 63-91 0-120-54-222-118-222-40 0-64 35-64 92 0 121 54 221 119 221z"/><glyph glyph-name="p" unicode="p" horiz-adv-x="502" d="M105-175L136-3c35-9 57-13 80-13 141 0 256 172 256 382 0 130-51 202-145 202-36 0-64-11-105-42v42L80 552c-2-39-10-98-25-182l-99-560 149 15zm102 574c28 24 47 33 72 33 36 0 53-25 53-78 0-130-54-235-120-235-19 0-31 5-51 20l46 260z"/><glyph glyph-name="q" unicode="q" horiz-adv-x="502" d="M351 552c-42 12-64 16-91 16C118 568 3 398 3 186 3 56 55-16 148-16c32 0 53 8 97 36l-38-210 150 15 131 743-137-16zm-83-399c-29-24-48-33-72-33-36 0-53 26-53 78 0 130 54 235 120 235 19 0 31-5 51-20l-46-260z"/><glyph glyph-name="r" unicode="r" horiz-adv-x="328" d="M126 0l45 252c18 101 70 160 142 160h13l39 156h-8c-53 0-99-30-144-91l16 91-143-16L-11 0h137z"/><glyph glyph-name="s" unicode="s" horiz-adv-x="381" d="M-6 23C40-8 74-19 124-19c117 0 198 77 198 189 0 57-24 105-70 142l-31 24c-27 22-32 29-32 50 0 31 23 53 56 53 25 0 42-7 75-33l23 133c-37 23-66 32-107 32-108 0-190-81-190-188 0-51 18-86 62-122l39-33c25-20 35-37 35-60 0-33-25-55-62-55s-58 12-131 76l5-166z"/><glyph glyph-name="t" unicode="t" horiz-adv-x="293" d="M249 137c-20-2-28-3-40-3-32 0-44 9-44 34 0 10 1 16 2 24l40 228h87l23 132h-87l31 172-143-16-28-156H43L20 420h47L28 200c-5-31-8-58-8-80C20 50 81-4 159-4c18 0 27 1 54 4l36 137z"/><glyph glyph-name="u" unicode="u" horiz-adv-x="500" d="M343 552l-51-286c-17-99-50-147-100-147-23 0-36 14-36 39 0 11 1 22 3 34l66 376-142-16-66-374c-6-31-9-62-9-83C8 26 48-16 112-16c53 0 93 21 144 75l-13-75L385 0l100 568-142-16z"/><glyph glyph-name="v" unicode="v" horiz-adv-x="421" d="M149-25l312 577H316L205 313l-33 239H30L149-25z"/><glyph glyph-name="w" unicode="w" horiz-adv-x="630" d="M149-25l155 285 57-285 309 577H525L409 306l-54 271-143-271-40 246H30L149-25z"/><glyph glyph-name="x" unicode="x" horiz-adv-x="457" d="M-68 0H75l119 168L255 0h144L287 286l198 266H342L239 409l-53 143H42l103-263L-68 0z"/><glyph glyph-name="y" unicode="y" horiz-adv-x="420" d="M86 0L-6-191l143 16 322 727H316L189 240l-16 312H29L86 0z"/><glyph glyph-name="z" unicode="z" horiz-adv-x="404" d="M-68 0h386l41 133H167l271 419H80L31 420h174L-68 0z"/><glyph glyph-name="uni00A0" horiz-adv-x="333"/><glyph glyph-name="cent" unicode="¢" horiz-adv-x="466" d="M275 661C125 624 29 483 29 301 29 179 82 88 169 63l-16-94h107l16 88c38 7 66 20 115 53l8 158c-67-57-97-72-141-72-54 0-81 37-81 111 0 130 59 218 146 218 35 0 59-11 99-44l38 135c-25 21-48 33-78 42l16 89H290l-15-86z"/><glyph glyph-name="sterling" unicode="£" horiz-adv-x="440" d="M-45-19C12-13 48 5 94 52c45-50 86-71 137-71 77 0 121 37 175 146l-103 63c-26-52-46-72-74-72-23 0-41 16-53 47 27 43 46 93 54 141h101l22 127H238v26l-1 35c0 69 14 97 48 97 19 0 30-9 47-41l112 68c-44 74-98 109-170 109-114 0-181-87-181-233 0-21 1-37 2-61H35L12 306h77c0-69-48-146-107-170L-45-19z"/><glyph glyph-name="yen" unicode="¥" horiz-adv-x="530" d="M71 708l92-274h-53L88 307h94L128 0h154l54 307h93l23 127h-53l186 274H424L288 487l-64 221H71z"/><glyph glyph-name="section" unicode="§" horiz-adv-x="398" d="M-45-95c52-35 94-49 152-49 120 0 198 81 198 206 0 44-9 75-30 101 65 49 90 90 90 151 0 50-26 100-68 132l-39 29c-44 33-49 39-49 65 0 39 29 69 67 69 26 0 46-9 86-41l22 124c-36 24-70 34-111 34-112 0-198-85-198-195 0-41 9-70 30-102-69-58-93-98-93-156 0-54 22-93 76-131l37-27c36-26 45-39 45-67 0-41-26-70-64-70C61-22 26-4-27 45L-45-95zm242 450c26-16 38-37 38-64 0-26-10-45-34-66l-16 10c-24 16-37 37-37 60 0 25 10 45 35 70l14-10z"/><glyph glyph-name="Agrave" unicode="À" horiz-adv-x="552" d="M499 0L345 733-73 0H88l57 110h184L348 0h151zM315 227H202l86 170 27-170zm-57 759l-53-103 220-108 54 104-221 107z"/><glyph glyph-name="Aacute" unicode="Á" horiz-adv-x="552" d="M499 0L345 733-73 0H88l57 110h184L348 0h151zM315 227H202l86 170 27-170zm146 759L241 879l53-104 220 108-53 103z"/><glyph glyph-name="Acircumflex" unicode="Â" horiz-adv-x="552" d="M499 0L345 733-73 0H88l57 110h184L348 0h151zM315 227H202l86 170 27-170zm50 754L205 862l71-92 89 68 89-68 71 92-160 119z"/><glyph glyph-name="Atilde" unicode="Ã" horiz-adv-x="552" d="M499 0L345 733-73 0H88l57 110h184L348 0h151zM315 227H202l86 170 27-170zm146 700c-27-23-35-28-49-27-11 0-23 3-35 8l-34 13c-9 3-20 5-32 5-46 0-75-17-110-66l65-88c19 16 32 22 46 22 10 0 21-2 35-7l34-13c10-4 21-6 33-6 48 0 75 18 113 72l-66 87z"/><glyph glyph-name="Adieresis" unicode="Ä" horiz-adv-x="552" d="M499 0L345 733-73 0H88l57 110h184L348 0h151zM315 227H202l86 170 27-170zm-61 697c-45 0-76-31-76-76 0-41 35-76 77-76s75 33 75 76c0 42-34 76-76 76zm215 0c-44 0-76-32-76-75 0-42 35-77 77-77s75 33 75 76c0 42-34 76-76 76z"/><glyph glyph-name="Aring" unicode="Å" horiz-adv-x="552" d="M-73 0H88l57 110h184L348 0h151L352 702c72 0 121 46 121 116 0 66-52 118-118 118-69 0-118-48-118-115 0-56 42-109 92-116L-73 0zm388 227H202l86 170 27-170zm40 639c27 0 47-20 47-47s-21-48-48-48c-28 0-47 19-47 48 0 26 21 47 48 47z"/><glyph glyph-name="AE" unicode="Æ" horiz-adv-x="711" d="M352 708l-7 25L-73 0H88l57 110h185L349 0h264l25 140H470l-32 149h196l24 133H412l-32 146h331l24 140H352zm-37-481H202l86 169 27-169z"/><glyph glyph-name="Ccedilla" unicode="Ç" horiz-adv-x="484" d="M440 194c-72-56-100-69-148-69-70 0-108 52-108 147 0 166 82 304 181 304 38 0 68-17 108-63l46 160c-51 39-90 54-140 54-92 0-187-52-250-137C64 502 23 377 23 269 23 117 105-3 219-18l-23-71c29-5 43-15 43-33 0-20-21-40-43-40-18 0-36 9-64 33l-26-90c30-20 54-28 81-28 73 0 140 60 140 126 0 42-24 81-65 103 40 3 86 18 130 45l48 167z"/><glyph glyph-name="Egrave" unicode="È" horiz-adv-x="431" d="M-3 0h336l25 140H175l26 149h155l24 133H225l25 146h181l25 140H122L-3 0zm236 986l-53-103 220-108 53 104-220 107z"/><glyph glyph-name="Eacute" unicode="É" horiz-adv-x="431" d="M-3 0h336l25 140H175l26 149h155l24 133H225l25 146h181l25 140H122L-3 0zm414 986L191 879l53-104 220 108-53 103z"/><glyph glyph-name="Ecircumflex" unicode="Ê" horiz-adv-x="431" d="M-3 0h336l25 140H175l26 149h155l24 133H225l25 146h181l25 140H122L-3 0zm319 981L156 862l71-92 89 68 89-68 71 92-160 119z"/><glyph glyph-name="Edieresis" unicode="Ë" horiz-adv-x="431" d="M-3 0h336l25 140H175l26 149h155l24 133H225l25 146h181l25 140H122L-3 0zm213 924c-45 0-76-31-76-76 0-41 35-76 77-76s75 33 75 76c0 42-34 76-76 76zm215 0c-44 0-76-32-76-75 0-42 35-77 77-77s75 33 75 76c0 42-34 76-76 76z"/><glyph glyph-name="Igrave" unicode="Ì" horiz-adv-x="273" d="M-3 0h153l125 708H122L-3 0zm134 986L78 883l220-108 53 104-220 107z"/><glyph glyph-name="Iacute" unicode="Í" horiz-adv-x="273" d="M-3 0h153l125 708H122L-3 0zm344 986L121 879l53-104 220 108-53 103z"/><glyph glyph-name="Icircumflex" unicode="Î" horiz-adv-x="273" d="M-3 0h153l125 708H122L-3 0zm226 981L62 862l72-92 89 68 89-68 71 92-160 119z"/><glyph glyph-name="Idieresis" unicode="Ï" horiz-adv-x="273" d="M-3 0h153l125 708H122L-3 0zm157 910c-35 0-61-25-61-61 0-33 28-62 62-62s61 27 61 62c0 33-28 61-62 61zm140 0c-35 0-61-25-61-61 0-34 28-62 62-62 35 0 61 27 61 62 0 33-28 61-62 61z"/><glyph glyph-name="Ntilde" unicode="Ñ" horiz-adv-x="575" d="M-3 0h153l60 337L447-27l130 735H424l-60-337-238 362L-3 0zm467 927c-26-23-35-28-49-27-11 0-22 3-34 8l-35 13c-9 3-20 5-32 5-46 0-75-17-109-66l64-88c19 16 32 22 47 22 10 0 21-2 34-7l34-13c10-4 22-6 33-6 48 0 76 18 114 72l-67 87z"/><glyph glyph-name="Ograve" unicode="Ò" horiz-adv-x="615" d="M369 727C181 727 21 513 21 260 21 95 116-19 252-19c87 0 169 43 225 119 73 96 115 225 115 347 0 159-97 280-223 280zm-20-150c52 0 83-51 83-138 0-166-80-314-169-314-51 0-82 52-82 139 0 164 80 313 168 313zm-44 409l-53-103 220-108 53 104-220 107z"/><glyph glyph-name="Oacute" unicode="Ó" horiz-adv-x="615" d="M369 727C181 727 21 513 21 260 21 95 116-19 252-19c87 0 169 43 225 119 73 96 115 225 115 347 0 159-97 280-223 280zm-20-150c52 0 83-51 83-138 0-166-80-314-169-314-51 0-82 52-82 139 0 164 80 313 168 313zm149 409L278 879l53-104 220 108-53 103z"/><glyph glyph-name="Ocircumflex" unicode="Ô" horiz-adv-x="615" d="M369 727C181 727 21 513 21 260 21 95 116-19 252-19c87 0 169 43 225 119 73 96 115 225 115 347 0 159-97 280-223 280zm-20-150c52 0 83-51 83-138 0-166-80-314-169-314-51 0-82 52-82 139 0 164 80 313 168 313zm52 404L241 862l71-92 89 68 89-68 72 92-161 119z"/><glyph glyph-name="Otilde" unicode="Õ" horiz-adv-x="615" d="M369 727C181 727 21 513 21 260 21 95 116-19 252-19c87 0 169 43 225 119 73 96 115 225 115 347 0 159-97 280-223 280zm-20-150c52 0 83-51 83-138 0-166-80-314-169-314-51 0-82 52-82 139 0 164 80 313 168 313zm138 350c-26-23-35-28-49-27-11 0-22 3-34 8l-35 13c-9 3-20 5-32 5-46 0-75-17-109-66l64-88c19 16 32 22 46 22 11 0 22-2 35-7l34-13c10-4 22-6 33-6 48 0 76 18 114 72l-67 87z"/><glyph glyph-name="Odieresis" unicode="Ö" horiz-adv-x="615" d="M369 727C181 727 21 513 21 260 21 95 116-19 252-19c87 0 169 43 225 119 73 96 115 225 115 347 0 159-97 280-223 280zm-20-150c52 0 83-51 83-138 0-166-80-314-169-314-51 0-82 52-82 139 0 164 80 313 168 313zm-55 347c-44 0-76-32-76-75 0-42 35-77 77-77s75 33 75 76c0 42-34 76-76 76zm215 0c-44 0-76-32-76-75 0-42 35-77 77-77s75 33 75 76c0 42-34 76-76 76z"/><glyph glyph-name="Ugrave" unicode="Ù" horiz-adv-x="555" d="M118 708L45 294c-9-49-14-97-14-127C31 58 114-19 232-19c74 0 146 33 185 86 36 49 48 87 73 228l73 413H416l-78-445c-14-72-14-72-21-92-11-29-35-46-66-46-42 0-69 24-69 61 0 13 3 34 11 80l78 442H118zm140 278l-53-103 220-108 54 104-221 107z"/><glyph glyph-name="Uacute" unicode="Ú" horiz-adv-x="555" d="M118 708L45 294c-9-49-14-97-14-127C31 58 114-19 232-19c74 0 146 33 185 86 36 49 48 87 73 228l73 413H416l-78-445c-14-72-14-72-21-92-11-29-35-46-66-46-42 0-69 24-69 61 0 13 3 34 11 80l78 442H118zm360 278L258 879l53-104 220 108-53 103z"/><glyph glyph-name="Ucircumflex" unicode="Û" horiz-adv-x="555" d="M118 708L45 294c-9-49-14-97-14-127C31 58 114-19 232-19c74 0 146 33 185 86 36 49 48 87 73 228l73 413H416l-78-445c-14-72-14-72-21-92-11-29-35-46-66-46-42 0-69 24-69 61 0 13 3 34 11 80l78 442H118zm239 273L196 862l72-92 89 68 89-68 71 92-160 119z"/><glyph glyph-name="Udieresis" unicode="Ü" horiz-adv-x="555" d="M118 708L45 294c-9-49-14-97-14-127C31 58 114-19 232-19c74 0 146 33 185 86 36 49 48 87 73 228l73 413H416l-78-445c-14-72-14-72-21-92-11-29-35-46-66-46-42 0-69 24-69 61 0 13 3 34 11 80l78 442H118zm138 216c-44 0-76-32-76-75 0-42 35-77 77-77s75 33 75 76c0 42-34 76-76 76zm215 0c-44 0-76-32-76-75 0-42 35-77 77-77s75 33 75 76c0 42-34 76-76 76z"/><glyph glyph-name="Yacute" unicode="Ý" horiz-adv-x="500" d="M113 0h154l62 353 240 355H409L273 493l-64 215H56l119-355L113 0zm320 986L213 879l53-104 221 108-54 103z"/><glyph glyph-name="Thorn" unicode="Þ" horiz-adv-x="448" d="M-8 0h153l16 90c158 2 264 109 264 265 0 127-62 203-178 220l23 133H117L-8 0zm230 435c37-2 53-23 53-70 0-85-31-131-89-134l36 204z"/><glyph glyph-name="germandbls" unicode="ß" horiz-adv-x="504" d="M240 342h4c46 0 69-24 69-71 0-33-7-70-20-102-13-34-31-49-61-49-14 0-22 2-38 11L178 0c26-11 47-16 72-16 114 0 204 120 204 274 0 77-28 132-82 163 66 29 103 87 103 163 0 103-72 178-172 178-67 0-133-33-171-85-34-47-50-92-68-190L-55-190l143 15 119 675c19 108 34 133 78 133 31 0 51-20 51-51 0-73-24-111-74-117l-22-123z"/><glyph glyph-name="agrave" unicode="à" horiz-adv-x="502" d="M487 568l-136-16c-45 12-67 16-94 16C117 568 2 396 2 186 2 56 54-16 146-16c37 0 66 12 105 43v-43L393 0c3 40 11 98 26 182l68 386zM267 153c-29-24-48-33-72-33-36 0-53 26-53 78 0 130 54 235 120 235 19 0 31-5 51-20l-46-260zm-36 686l-54-103 220-107 54 103-220 107z"/><glyph glyph-name="aacute" unicode="á" horiz-adv-x="502" d="M487 568l-136-16c-45 12-67 16-94 16C117 568 2 396 2 186 2 56 54-16 146-16c37 0 66 12 105 43v-43L393 0c3 40 11 98 26 182l68 386zM267 153c-29-24-48-33-72-33-36 0-53 26-53 78 0 130 54 235 120 235 19 0 31-5 51-20l-46-260zm150 686L196 732l54-103 220 107-53 103z"/><glyph glyph-name="acircumflex" unicode="â" horiz-adv-x="502" d="M487 568l-136-16c-45 12-67 16-94 16C117 568 2 396 2 186 2 56 54-16 146-16c37 0 66 12 105 43v-43L393 0c3 40 11 98 26 182l68 386zM267 153c-29-24-48-33-72-33-36 0-53 26-53 78 0 130 54 235 120 235 19 0 31-5 51-20l-46-260zm40 682L146 715l72-92 89 68 89-68 71 92-160 120z"/><glyph glyph-name="atilde" unicode="ã" horiz-adv-x="502" d="M487 568l-136-16c-45 12-67 16-94 16C117 568 2 396 2 186 2 56 54-16 146-16c37 0 66 12 105 43v-43L393 0c3 40 11 98 26 182l68 386zM267 153c-29-24-48-33-72-33-36 0-53 26-53 78 0 130 54 235 120 235 19 0 31-5 51-20l-46-260zm136 628c-27-23-34-27-49-27-10 0-23 3-35 7l-34 13c-9 3-19 5-32 5-46 0-75-17-110-66l65-88c19 16 32 22 46 22 11 0 22-2 35-7l34-13c9-3 20-5 33-5 48 0 76 18 113 72l-66 87z"/><glyph glyph-name="adieresis" unicode="ä" horiz-adv-x="502" d="M487 568l-136-16c-45 12-67 16-94 16C117 568 2 396 2 186 2 56 54-16 146-16c37 0 66 12 105 43v-43L393 0c3 40 11 98 26 182l68 386zM267 153c-29-24-48-33-72-33-36 0-53 26-53 78 0 130 54 235 120 235 19 0 31-5 51-20l-46-260zm-56 624c-44 0-76-31-76-76 0-41 35-76 77-76s75 33 75 76c0 42-34 76-76 76zm215 0c-44 0-76-32-76-75 0-42 35-77 77-77 43 0 75 33 75 76 0 42-34 76-76 76z"/><glyph glyph-name="aring" unicode="å" horiz-adv-x="502" d="M487 568l-136-16c-45 12-67 16-94 16C117 568 2 396 2 186 2 56 54-16 146-16c37 0 66 12 105 43v-43L393 0c3 40 11 98 26 182l68 386zM267 153c-29-24-48-33-72-33-36 0-53 26-53 78 0 130 54 235 120 235 19 0 31-5 51-20l-46-260zm55 682c-68 0-118-48-118-115 0-68 51-120 119-120s117 48 117 116c0 67-52 119-118 119zm0-70c27 0 47-20 47-48 0-26-21-48-48-48-28 0-47 20-47 48 0 26 22 48 48 48z"/><glyph glyph-name="ae" unicode="æ" horiz-adv-x="754" d="M388 6c31-15 62-22 99-22 64 0 112 17 193 67l6 138c-82-54-120-69-176-69-61 0-85 26-85 93l291 50c9 57 11 84 11 116 0 110-70 189-168 189-24 0-48-4-73-13l2 13-136-16c-45 12-67 16-94 16C118 568 3 396 3 186 3 56 55-16 147-16c37 0 66 12 105 43v-43L388 0v6zM268 153c-29-24-48-33-72-33-36 0-53 26-53 78 0 130 54 235 120 235 19 0 31-5 51-20l-46-260zm170 171c18 72 52 109 99 109 36 0 55-21 55-61 0-4 0-14-1-22l-153-26z"/><glyph glyph-name="ccedilla" unicode="ç" horiz-adv-x="412" d="M133-89c29-5 43-15 43-33 0-19-22-40-43-40-18 0-37 10-64 33l-26-90c28-19 54-28 82-28 72 0 139 60 139 126 0 44-26 84-70 106 45 3 84 20 123 51l42 162-34-27c-49-40-73-52-104-52-49 0-76 34-76 96 0 124 61 218 142 218 48 0 77-18 88-54l41 141c-37 34-70 48-115 48C140 568 3 398 3 198 3 84 63 1 157-15l-24-74z"/><glyph glyph-name="egrave" unicode="è" horiz-adv-x="469" d="M401 189c-82-54-121-69-176-69-62 0-85 25-85 93l291 50c8 58 11 86 11 116 0 110-70 189-168 189C123 568 2 412 2 217 2 69 74-16 200-16c66 0 114 16 195 67l6 138zM153 324c18 72 52 109 99 109 37 0 55-21 55-62l-1-21-153-26zm55 515l-53-103 220-107 53 103-220 107z"/><glyph glyph-name="eacute" unicode="é" horiz-adv-x="469" d="M401 189c-82-54-121-69-176-69-62 0-85 25-85 93l291 50c8 58 11 86 11 116 0 110-70 189-168 189C123 568 2 412 2 217 2 69 74-16 200-16c66 0 114 16 195 67l6 138zM153 324c18 72 52 109 99 109 37 0 55-21 55-62l-1-21-153-26zm229 515L162 732l53-103 220 107-53 103z"/><glyph glyph-name="ecircumflex" unicode="ê" horiz-adv-x="469" d="M401 189c-82-54-121-69-176-69-62 0-85 25-85 93l291 50c8 58 11 86 11 116 0 110-70 189-168 189C123 568 2 412 2 217 2 69 74-16 200-16c66 0 114 16 195 67l6 138zM153 324c18 72 52 109 99 109 37 0 55-21 55-62l-1-21-153-26zm138 511L131 715l71-92 89 68 89-68 71 92-160 120z"/><glyph glyph-name="edieresis" unicode="ë" horiz-adv-x="469" d="M401 189c-82-54-121-69-176-69-62 0-85 25-85 93l291 50c8 58 11 86 11 116 0 110-70 189-168 189C123 568 2 412 2 217 2 69 74-16 200-16c66 0 114 16 195 67l6 138zM153 324c18 72 52 109 99 109 37 0 55-21 55-62l-1-21-153-26zm40 453c-44 0-75-31-75-76 0-41 35-76 77-76s75 33 75 76c0 42-34 76-77 76zm216 0c-44 0-76-32-76-75 0-42 35-77 77-77s75 33 75 76c0 42-34 76-76 76z"/><glyph glyph-name="igrave" unicode="ì" horiz-adv-x="244" d="M129-1l100 568-143-16L-11-1h140zM88 839L35 736l220-107 54 103L88 839z"/><glyph glyph-name="iacute" unicode="í" horiz-adv-x="244" d="M129-1l100 568-143-16L-11-1h140zm145 840L54 732l54-103 220 107-54 103z"/><glyph glyph-name="icircumflex" unicode="î" horiz-adv-x="244" d="M129-1l100 568-143-16L-11-1h140zm56 836L25 715l71-92 89 68 89-68 71 92-160 120z"/><glyph glyph-name="idieresis" unicode="ï" horiz-adv-x="244" d="M129-1l100 568-143-16L-11-1h140zm-17 764c-35 0-61-25-61-61 0-33 29-62 62-62 34 0 61 27 61 62 0 33-28 61-62 61zm140 0c-35 0-61-26-61-61 0-33 28-62 62-62s61 27 61 62c0 33-28 61-62 61z"/><glyph glyph-name="eth" unicode="ð" horiz-adv-x="494" d="M469 627l-48 92-74-49-28 51-133-13c36-56 67-110 83-145-71-8-122-32-163-79C43 413 3 307 3 209 3 76 76-16 181-16c153 0 285 168 285 361 0 64-17 114-77 229l80 53zM260 433c40 0 65-34 65-91 0-120-54-222-118-222-39 0-64 35-64 91 0 121 53 222 117 222z"/><glyph glyph-name="ntilde" unicode="ñ" horiz-adv-x="503" d="M129 0l51 286c17 99 50 147 100 147 23 0 36-14 36-40 0-8-1-21-3-33L249 0h140l66 374c6 31 9 64 9 83 0 69-40 111-104 111-53 0-94-21-144-75l13 75-143-16L-11 0h140zm271 781c-27-23-34-27-49-27-10 0-23 3-35 7l-34 13c-9 3-19 5-32 5-46 0-75-17-110-66l65-88c19 16 32 22 46 22 11 0 22-2 35-7l34-13c9-3 20-5 33-5 48 0 76 18 113 72l-66 87z"/><glyph glyph-name="ograve" unicode="ò" horiz-adv-x="496" d="M278 568C125 568 2 413 2 218 2 77 79-16 195-16c148 0 270 154 270 342 0 142-78 242-187 242zm-17-135c38 0 63-35 63-91 0-120-54-222-118-222-40 0-64 35-64 92 0 121 54 221 119 221zm-40 406l-53-103 220-107 53 103-220 107z"/><glyph glyph-name="oacute" unicode="ó" horiz-adv-x="496" d="M278 568C125 568 2 413 2 218 2 77 79-16 195-16c148 0 270 154 270 342 0 142-78 242-187 242zm-17-135c38 0 63-35 63-91 0-120-54-222-118-222-40 0-64 35-64 92 0 121 54 221 119 221zm131 406L172 732l53-103 220 107-53 103z"/><glyph glyph-name="ocircumflex" unicode="ô" horiz-adv-x="496" d="M278 568C125 568 2 413 2 218 2 77 79-16 195-16c148 0 270 154 270 342 0 142-78 242-187 242zm-17-135c38 0 63-35 63-91 0-120-54-222-118-222-40 0-64 35-64 92 0 121 54 221 119 221zm50 402L150 715l72-92 89 68 89-68 71 92-160 120z"/><glyph glyph-name="otilde" unicode="õ" horiz-adv-x="496" d="M278 568C125 568 2 413 2 218 2 77 79-16 195-16c148 0 270 154 270 342 0 142-78 242-187 242zm-17-135c38 0 63-35 63-91 0-120-54-222-118-222-40 0-64 35-64 92 0 121 54 221 119 221zm141 348c-26-23-34-27-49-27-11 0-23 3-35 7l-34 13c-9 3-20 5-33 5-45 0-74-17-109-66l65-88c19 16 32 22 46 22 11 0 21-2 35-7l34-13c9-3 20-5 33-5 48 0 75 17 113 72l-66 87z"/><glyph glyph-name="odieresis" unicode="ö" horiz-adv-x="496" d="M278 568C125 568 2 413 2 218 2 77 79-16 195-16c148 0 270 154 270 342 0 142-78 242-187 242zm-17-135c38 0 63-35 63-91 0-120-54-222-118-222-40 0-64 35-64 92 0 121 54 221 119 221zm-64 344c-44 0-76-31-76-76 0-41 35-76 77-76s75 33 75 76c0 42-34 76-76 76zm215 0c-44 0-76-32-76-75 0-42 35-77 77-77 43 0 75 33 75 76 0 42-34 76-76 76z"/><glyph glyph-name="oslash" unicode="ø" horiz-adv-x="494" d="M510 568H400l-25-33c-26 20-67 33-103 33C125 568 0 410 0 224c0-52 10-99 31-142l-74-98H67l22 29c34-20 64-29 103-29 148 0 270 154 270 341 0 52-10 98-30 140l78 103zM320 318c-9-116-57-198-117-198-11 0-18 2-28 7l145 191zm-180-93c4 117 55 208 117 208 12 0 21-3 33-10L140 225z"/><glyph glyph-name="ugrave" unicode="ù" horiz-adv-x="500" d="M343 552l-51-286c-17-99-50-147-100-147-23 0-36 14-36 39 0 11 1 22 3 34l66 376-142-16-66-374c-6-31-9-62-9-83C8 26 48-16 112-16c53 0 93 21 144 75l-13-75L385 0l100 568-142-16zM219 839l-53-103 220-107 53 103-220 107z"/><glyph glyph-name="uacute" unicode="ú" horiz-adv-x="500" d="M343 552l-51-286c-17-99-50-147-100-147-23 0-36 14-36 39 0 11 1 22 3 34l66 376-142-16-66-374c-6-31-9-62-9-83C8 26 48-16 112-16c53 0 93 21 144 75l-13-75L385 0l100 568-142-16zm59 287L182 732l53-103 220 107-53 103z"/><glyph glyph-name="ucircumflex" unicode="û" horiz-adv-x="500" d="M343 552l-51-286c-17-99-50-147-100-147-23 0-36 14-36 39 0 11 1 22 3 34l66 376-142-16-66-374c-6-31-9-62-9-83C8 26 48-16 112-16c53 0 93 21 144 75l-13-75L385 0l100 568-142-16zm-39 283L144 715l71-92 89 68 89-68 71 92-160 120z"/><glyph glyph-name="udieresis" unicode="ü" horiz-adv-x="500" d="M343 552l-51-286c-17-99-50-147-100-147-23 0-36 14-36 39 0 11 1 22 3 34l66 376-142-16-66-374c-6-31-9-62-9-83C8 26 48-16 112-16c53 0 93 21 144 75l-13-75L385 0l100 568-142-16zM195 777c-44 0-76-31-76-76 0-41 35-76 77-76s75 33 75 76c0 42-34 76-76 76zm215 0c-44 0-76-32-76-75 0-42 35-77 77-77 43 0 75 33 75 76 0 42-34 76-76 76z"/><glyph glyph-name="yacute" unicode="ý" horiz-adv-x="420" d="M86 0L-6-191l143 16 322 727H316L189 240l-16 312H29L86 0zm279 839L145 732l53-103 220 107-53 103z"/><glyph glyph-name="thorn" unicode="þ" horiz-adv-x="505" d="M117 708L-41-190l149 15L139 0c27-12 44-16 67-16 74 0 143 39 190 107 48 71 80 182 80 279 0 121-54 198-139 198-33 0-63-11-104-37l34 193-150-16zm93-309c32 25 50 33 72 33 34 0 54-29 54-79 0-127-55-234-121-234-19 0-31 5-51 20l46 260z"/><glyph glyph-name="ydieresis" unicode="ÿ" horiz-adv-x="420" d="M86 0L-6-191l143 16 322 727H316L189 240l-16 312H29L86 0zm71 777c-44 0-75-31-75-76 0-41 35-76 77-76s75 33 75 76c0 42-34 76-77 76zm216 0c-44 0-76-32-76-75 0-42 35-77 77-77s75 33 75 76c0 42-34 76-76 76z"/><glyph glyph-name="Amacron" unicode="Ā" horiz-adv-x="552" d="M499 0L345 733-73 0H88l57 110h184L348 0h151zM315 227H202l86 170 27-170zm-83 535h231l18 103H250l-18-103z"/><glyph glyph-name="amacron" unicode="ā" horiz-adv-x="502" d="M487 568l-136-16c-45 12-67 16-94 16C117 568 2 396 2 186 2 56 54-16 146-16c37 0 66 12 105 43v-43L393 0c3 40 11 98 26 182l68 386zM267 153c-29-24-48-33-72-33-36 0-53 26-53 78 0 130 54 235 120 235 19 0 31-5 51-20l-46-260zm-57 462h230l18 103H228l-18-103z"/><glyph glyph-name="Abreve" unicode="Ă" horiz-adv-x="552" d="M499 0L345 733-73 0H88l57 110h184L348 0h151zM315 227H202l86 170 27-170zM200 859c46-65 100-96 164-96 65 0 118 31 165 96l-69 80c-34-38-62-53-96-53-33 0-61 15-96 53l-68-80z"/><glyph glyph-name="abreve" unicode="ă" horiz-adv-x="502" d="M487 568l-136-16c-45 12-67 16-94 16C117 568 2 396 2 186 2 56 54-16 146-16c37 0 66 12 105 43v-43L393 0c3 40 11 98 26 182l68 386zM267 153c-29-24-48-33-72-33-36 0-53 26-53 78 0 130 54 235 120 235 19 0 31-5 51-20l-46-260zM162 712c46-65 100-96 164-96 65 0 119 32 165 96l-68 80c-36-38-63-53-97-53-33 0-61 16-96 53l-68-80z"/><glyph glyph-name="Aogonek" unicode="Ą" horiz-adv-x="552" d="M490-125c-27-23-49-32-75-32-18 0-29 10-29 27 0 25 37 68 113 130L345 733-73 0H88l57 110h184L348 0h41c-78-74-99-107-99-155 0-52 41-89 98-89 26 0 45 6 82 25l20 94zM315 227H202l86 170 27-170z"/><glyph glyph-name="aogonek" unicode="ą" horiz-adv-x="502" d="M251-30c-45-46-67-86-67-125 0-52 41-89 99-89 26 0 45 6 82 25l20 94c-28-23-50-32-75-32-19 0-30 10-30 27 0 25 40 70 113 130 3 40 11 98 26 182l68 386-136-16c-45 12-67 16-94 16C117 568 2 396 2 186 2 56 54-16 146-16c37 0 66 12 105 43v-57zm16 183c-29-24-48-33-72-33-36 0-53 26-53 78 0 130 54 235 120 235 19 0 31-5 51-20l-46-260z"/><glyph glyph-name="Cacute" unicode="Ć" horiz-adv-x="484" d="M518 673c-50 40-89 54-144 54-187 0-353-212-353-451C21 104 123-19 265-19c59 0 110 18 167 59l-15 139c-43-37-83-54-128-54-70 0-108 53-108 151 0 161 85 301 183 301 38 0 68-17 108-64l46 160zm-40 313L258 879l53-104 220 108-53 103z"/><glyph glyph-name="cacute" unicode="ć" horiz-adv-x="411" d="M354 188c-64-53-94-68-135-68-51 0-77 35-77 105 0 124 56 208 139 208 33 0 56-10 94-42l37 129c-43 34-81 48-131 48C125 568 1 413 1 219 1 74 76-16 197-16c51 0 84 12 149 54l8 150zm35 651L169 732l53-103 220 107-53 103z"/><glyph glyph-name="Ccaron" unicode="Č" horiz-adv-x="484" d="M518 673c-50 40-89 54-144 54-187 0-353-212-353-451C21 104 123-19 265-19c59 0 110 18 167 59l-15 139c-43-37-83-54-128-54-70 0-108 53-108 151 0 161 85 301 183 301 38 0 68-17 108-64l46 160zm-137 97l160 119-71 92-89-67-89 67-71-92 160-119z"/><glyph glyph-name="ccaron" unicode="č" horiz-adv-x="411" d="M354 188c-64-53-94-68-135-68-51 0-77 35-77 105 0 124 56 208 139 208 33 0 56-10 94-42l37 129c-43 34-81 48-131 48C125 568 1 413 1 219 1 74 76-16 197-16c51 0 84 12 149 54l8 150zm-63 435l160 120-71 92-89-68-89 68-72-92 161-120z"/><glyph glyph-name="Dcaron" unicode="Ď" horiz-adv-x="553" d="M-3 0h138c110 0 184 21 243 69 90 72 150 211 150 348 0 189-101 291-288 291H122L-3 0zm178 140l75 428h7c70 0 111-55 111-148 0-154-84-280-186-280h-7zm133 630l160 119-71 92-89-67-89 67-71-92 160-119z"/><glyph glyph-name="dcaron" unicode="ď" horiz-adv-x="504" d="M365 708l-27-152c-37 9-59 12-82 12C117 568 2 395 2 186 2 56 53-16 146-16c37 0 66 12 105 43v-43L393 0c3 40 11 97 26 182l95 542-149-16zm-98-555c-29-24-48-33-72-33-36 0-53 26-53 78 0 130 54 235 120 235 19 0 31-5 51-20l-46-260zm240 322h100l113 233H587l-80-233z"/><glyph glyph-name="Dcroat" unicode="Đ" horiz-adv-x="553" d="M48 289L-3 0h138c110 0 184 21 243 69 90 72 150 211 150 348 0 189-101 291-288 291H122L72 422H38L15 289h33zm202 279h7c70 0 111-55 111-148 0-154-84-280-186-280h-7l26 149h67l24 133h-67l25 146z"/><glyph glyph-name="dcroat" unicode="đ" horiz-adv-x="505" d="M394 0c3 40 11 98 26 182l62 352h41l21 121h-41l12 69-149-16-28-156c-26 12-43 16-67 16-74 0-143-39-189-107C33 389 1 279 1 182 1 61 55-16 139-16c37 0 69 12 113 43l1-43L394 0zM268 153c-32-25-51-33-73-33-34 0-54 29-54 78 0 128 56 235 122 235 19 0 31-5 51-20l-46-260z"/><glyph glyph-name="Emacron" unicode="Ē" horiz-adv-x="431" d="M-3 0h336l25 140H175l26 149h155l24 133H225l25 146h181l25 140H122L-3 0zm198 762h231l18 103H213l-18-103z"/><glyph glyph-name="emacron" unicode="ē" horiz-adv-x="469" d="M401 189c-82-54-121-69-176-69-62 0-85 25-85 93l291 50c8 58 11 86 11 116 0 110-70 189-168 189C123 568 2 412 2 217 2 69 74-16 200-16c66 0 114 16 195 67l6 138zM153 324c18 72 52 109 99 109 37 0 55-21 55-62l-1-21-153-26zm36 291h230l18 103H207l-18-103z"/><glyph glyph-name="Edotaccent" unicode="Ė" horiz-adv-x="431" d="M-3 0h336l25 140H175l26 149h155l24 133H225l25 146h181l25 140H122L-3 0zm311 924c-44 0-76-31-76-75 0-42 35-77 77-77s75 33 75 76c0 42-34 76-76 76z"/><glyph glyph-name="edotaccent" unicode="ė" horiz-adv-x="469" d="M401 189c-82-54-121-69-176-69-62 0-85 25-85 93l291 50c8 58 11 86 11 116 0 110-70 189-168 189C123 568 2 412 2 217 2 69 74-16 200-16c66 0 114 16 195 67l6 138zM153 324c18 72 52 109 99 109 37 0 55-21 55-62l-1-21-153-26zm145 453c-44 0-76-32-76-76 0-41 35-76 77-76s75 33 75 76c0 42-34 76-76 76z"/><glyph glyph-name="Eogonek" unicode="Ę" horiz-adv-x="431" d="M325-125c-27-23-49-32-75-32-18 0-29 10-29 27 0 25 30 60 112 130l25 140H175l26 149h155l24 133H225l25 146h181l25 140H122L-3 0h227c-77-73-99-107-99-155 0-52 41-89 98-89 26 0 45 6 82 25l20 94z"/><glyph glyph-name="eogonek" unicode="ę" horiz-adv-x="469" d="M313-125c-27-23-49-32-75-32-18 0-29 10-29 27 0 35 73 106 186 181l6 138c-83-54-121-69-176-69-62 0-85 25-85 93l291 50c8 57 11 86 11 116 0 110-70 189-168 189C123 568 2 412 2 216 2 71 75-16 195-16c-55-51-82-96-82-139 0-52 41-89 98-89 26 0 45 6 82 25l20 94zM153 324c18 72 52 109 99 109 37 0 55-21 55-62l-1-21-153-26z"/><glyph glyph-name="Ecaron" unicode="Ě" horiz-adv-x="431" d="M-3 0h336l25 140H175l26 149h155l24 133H225l25 146h181l25 140H122L-3 0zm305 770l161 119-72 92-89-67-88 67-72-92 160-119z"/><glyph glyph-name="ecaron" unicode="ě" horiz-adv-x="469" d="M401 189c-82-54-121-69-176-69-62 0-85 25-85 93l291 50c8 58 11 86 11 116 0 110-70 189-168 189C123 568 2 412 2 217 2 69 74-16 200-16c66 0 114 16 195 67l6 138zM153 324c18 72 52 109 99 109 37 0 55-21 55-62l-1-21-153-26zm150 299l160 120-72 92-88-68-89 68-72-92 161-120z"/><glyph glyph-name="Gbreve" unicode="Ğ" horiz-adv-x="541" d="M520 673c-50 40-89 54-144 54-186 0-353-213-353-450C23 103 124-19 270-19c73 0 121 22 193 89l56 320H294l-23-133h75l-23-128c-14-3-22-4-33-4-70 0-107 53-107 152 0 160 85 300 183 300 38 0 67-17 108-64l46 160zM228 859c47-65 100-96 165-96s118 31 165 96l-69 80c-35-38-63-53-96-53s-61 15-96 53l-69-80z"/><glyph glyph-name="gbreve" unicode="ğ" horiz-adv-x="502" d="M-40-218c61-35 111-49 177-49 151 0 216 74 253 285l97 550-136-16c-45 12-67 16-93 16C117 568 2 396 2 186 2 56 54-16 146-16c37 0 67 12 105 43-21-138-40-164-118-164-51 0-94 18-149 63l-24-144zm307 371c-30-25-48-33-72-33-36 0-53 25-53 78 0 130 54 235 120 235 19 0 31-5 51-20l-46-260zM136 712c46-64 100-96 165-96 64 0 117 31 164 96l-68 80c-35-37-63-53-97-53-33 0-61 15-96 53l-68-80z"/><glyph glyph-name="Gcommaaccent" unicode="Ģ" horiz-adv-x="541" d="M520 673c-50 40-89 54-144 54-186 0-353-213-353-450C23 103 124-19 270-19c73 0 121 22 193 89l56 320H294l-23-133h75l-23-128c-14-3-22-4-33-4-70 0-107 53-107 152 0 160 85 300 183 300 38 0 67-17 108-64l46 160zM105-267h100L312-55H178l-73-212z"/><glyph glyph-name="gcommaaccent" unicode="ģ" horiz-adv-x="502" d="M-40-218c61-35 111-49 177-49 151 0 216 74 253 285l97 550-136-16c-45 12-67 16-93 16C117 568 2 396 2 186 2 56 54-16 146-16c37 0 67 12 105 43-21-138-40-164-118-164-51 0-94 18-149 63l-24-144zm307 371c-30-25-48-33-72-33-36 0-53 25-53 78 0 130 54 235 120 235 19 0 31-5 51-20l-46-260zm176 695H343L229 615h133l81 233z"/><glyph glyph-name="Imacron" unicode="Ī" horiz-adv-x="273" d="M-3 0h153l125 708H122L-3 0zm96 762h231l18 103H112L93 762z"/><glyph glyph-name="imacron" unicode="ī" horiz-adv-x="244" d="M129-1l100 568-143-16L-11-1h140zM49 615h230l18 103H67L49 615z"/><glyph glyph-name="Kcommaaccent" unicode="Ķ" horiz-adv-x="535" d="M-3 0h153l59 333L317 0h160L354 367l232 341H415L223 413l52 295H122L-3 0zm79-267h100L290-33H156L76-267z"/><glyph glyph-name="kcommaaccent" unicode="ķ" horiz-adv-x="471" d="M193 346l67 378-143-16L-8 0h140l49 280L275 0h149L318 310l167 242H325L193 346zM60-267h100L273-33H140L60-267z"/><glyph glyph-name="Lacute" unicode="Ĺ" horiz-adv-x="411" d="M-3 0h336l25 140H175l100 568H122L-3 0zm365 986L142 879l53-104 220 108-53 103z"/><glyph glyph-name="lacute" unicode="ĺ" horiz-adv-x="250" d="M132 0l128 724-143-16L-8 0h140zm176 981L88 873l53-103 220 107-53 104z"/><glyph glyph-name="Lcommaaccent" unicode="Ļ" horiz-adv-x="411" d="M-3 0h336l25 140H175l100 568H122L-3 0zm17-267h100L228-33H94L14-267z"/><glyph glyph-name="lcommaaccent" unicode="ļ" horiz-adv-x="250" d="M133 0l127 724-142-16L-7 0h140zM-79-267H21L135-33H1l-80-234z"/><glyph glyph-name="Lcaron" unicode="Ľ" horiz-adv-x="411" d="M-3 0h336l25 140H175l100 568H122L-3 0zm263 475h100l113 233H340l-80-233z"/><glyph glyph-name="lcaron" unicode="ľ" horiz-adv-x="250" d="M132 0l128 724-143-16L-8 0h140zm121 475h100l114 233H334l-81-233z"/><glyph glyph-name="Lslash" unicode="Ł" horiz-adv-x="411" d="M122 708L61 364l-43-23-24-133 44 22L-3 0h336l25 140H175l30 170 112 57 24 133-112-57 46 265H122z"/><glyph glyph-name="lslash" unicode="ł" horiz-adv-x="250" d="M117 708L52 342l-39-27-22-126 39 26L-8 0h140l55 312 39 25 22 126-39-24 51 285-143-16z"/><glyph glyph-name="Nacute" unicode="Ń" horiz-adv-x="575" d="M-3 0h153l60 337L447-27l130 735H424l-60-337-238 362L-3 0zm464 986L241 879l53-104 221 108-54 103z"/><glyph glyph-name="nacute" unicode="ń" horiz-adv-x="503" d="M129 0l51 286c17 99 50 147 100 147 23 0 36-14 36-40 0-8-1-21-3-33L249 0h140l66 374c6 31 9 64 9 83 0 69-40 111-104 111-53 0-94-21-144-75l13 75-143-16L-11 0h140zm278 839L187 732l53-103 220 107-53 103z"/><glyph glyph-name="Ncommaaccent" unicode="Ņ" horiz-adv-x="575" d="M-3 0h153l60 337L447-27l130 735H424l-60-337-238 362L-3 0zm108-267h100L319-33H185l-80-234z"/><glyph glyph-name="ncommaaccent" unicode="ņ" horiz-adv-x="503" d="M129 0l51 286c17 99 50 147 100 147 23 0 36-14 36-40 0-8-1-21-3-33L249 0h140l66 374c6 31 9 64 9 83 0 69-40 111-104 111-53 0-94-21-144-75l13 75-143-16L-11 0h140zM43-267h100L256-33H123L43-267z"/><glyph glyph-name="Ncaron" unicode="Ň" horiz-adv-x="575" d="M-3 0h153l60 337L447-27l130 735H424l-60-337-238 362L-3 0zm371 770l160 119-71 92-89-67-89 67-71-92 160-119z"/><glyph glyph-name="ncaron" unicode="ň" horiz-adv-x="503" d="M129 0l51 286c17 99 50 147 100 147 23 0 36-14 36-40 0-8-1-21-3-33L249 0h140l66 374c6 31 9 64 9 83 0 69-40 111-104 111-53 0-94-21-144-75l13 75-143-16L-11 0h140zm175 623l160 120-72 92-88-68-89 68-72-92 161-120z"/><glyph glyph-name="Omacron" unicode="Ō" horiz-adv-x="615" d="M369 727C181 727 21 513 21 260 21 95 116-19 252-19c87 0 169 43 225 119 73 96 115 225 115 347 0 159-97 280-223 280zm-20-150c52 0 83-51 83-138 0-166-80-314-169-314-51 0-82 52-82 139 0 164 80 313 168 313zm-85 185h230l18 103H282l-18-103z"/><glyph glyph-name="omacron" unicode="ō" horiz-adv-x="496" d="M278 568C125 568 2 413 2 218 2 77 79-16 195-16c148 0 270 154 270 342 0 142-78 242-187 242zm-17-135c38 0 63-35 63-91 0-120-54-222-118-222-40 0-64 35-64 92 0 121 54 221 119 221zm-74 182h230l18 103H205l-18-103z"/><glyph glyph-name="Ohungarumlaut" unicode="Ő" horiz-adv-x="615" d="M369 727C181 727 21 513 21 260 21 95 116-19 252-19c87 0 169 43 225 119 73 96 115 225 115 347 0 159-97 280-223 280zm-20-150c52 0 83-51 83-138 0-166-80-314-169-314-51 0-82 52-82 139 0 164 80 313 168 313zm46 457L258 831l98-63 137 203-98 63zm189 0L447 831l97-63 137 203-97 63z"/><glyph glyph-name="ohungarumlaut" unicode="ő" horiz-adv-x="496" d="M278 568C125 568 2 413 2 218 2 77 79-16 195-16c148 0 270 154 270 342 0 142-78 242-187 242zm-17-135c38 0 63-35 63-91 0-120-54-222-118-222-40 0-64 35-64 92 0 121 54 221 119 221zm28 454L152 684l98-63 137 203-98 63zm189 0L341 684l98-63 137 203-98 63z"/><glyph glyph-name="OE" unicode="Œ" horiz-adv-x="799" d="M454 708c-26 13-54 19-83 19-189 0-349-213-349-464C22 95 116-19 253-19c33 0 66 6 98 19h350l25 140H505c27 45 48 92 65 149h152l23 133H592c1 12 1 19 1 24 0 44-7 82-22 122h228l24 140H454zM350 577c52 0 83-52 83-138 0-166-80-314-169-314-51 0-82 52-82 139 0 164 80 313 168 313z"/><glyph glyph-name="oe" unicode="œ" horiz-adv-x="778" d="M707 189c-82-54-120-69-176-69-61 0-85 26-85 93l291 50c9 57 11 83 11 116 0 109-70 189-166 189-58 0-121-26-166-69-32 43-84 69-139 69C128 568 4 411 4 222 4 79 79-16 193-16c64 0 128 26 168 69 51-56 77-69 143-69 69 0 114 16 197 67l6 138zM263 433c38 0 63-35 63-91 0-120-54-222-118-222-40 0-64 35-64 92 0 121 54 221 119 221zm196-109c18 72 52 109 99 109 36 0 55-21 55-61 0-4 0-14-1-22l-153-26z"/><glyph glyph-name="Racute" unicode="Ŕ" horiz-adv-x="480" d="M-3 0h153l46 260h14L257 0h165l-73 304c74 41 115 115 115 204 0 131-83 200-241 200H122L-3 0zm253 568c42-3 57-19 57-62 0-72-31-113-88-116l31 178zm162 418L191 879l54-104 220 108-53 103z"/><glyph glyph-name="racute" unicode="ŕ" horiz-adv-x="328" d="M126 0l45 252c18 101 70 160 142 160h13l39 156h-8c-53 0-99-30-144-91l16 91-143-16L-11 0h137zm240 839L146 732l53-103 220 107-53 103z"/><glyph glyph-name="Rcommaaccent" unicode="Ŗ" horiz-adv-x="480" d="M-3 0h153l46 260h14L257 0h165l-73 304c74 41 115 115 115 204 0 131-83 200-241 200H122L-3 0zm253 568c42-3 57-19 57-62 0-72-31-113-88-116l31 178zM50-267h100L264-33H131L50-267z"/><glyph glyph-name="rcommaaccent" unicode="ŗ" horiz-adv-x="328" d="M127 0l44 252c18 101 70 160 142 160h14l38 156h-8c-53 0-99-30-144-91l17 91-143-16L-11 0h138zM-89-267H11L125-33H-9l-80-234z"/><glyph glyph-name="Rcaron" unicode="Ř" horiz-adv-x="480" d="M-3 0h153l46 260h14L257 0h165l-73 304c74 41 115 115 115 204 0 131-83 200-241 200H122L-3 0zm253 568c42-3 57-19 57-62 0-72-31-113-88-116l31 178zm53 202l161 119-72 92-89-67-89 67-71-92 160-119z"/><glyph glyph-name="rcaron" unicode="ř" horiz-adv-x="328" d="M126 0l45 252c18 101 70 160 142 160h13l39 156h-8c-53 0-99-30-144-91l16 91-143-16L-11 0h137zm125 623l160 120-71 92-89-68-89 68-72-92 161-120z"/><glyph glyph-name="Sacute" unicode="Ś" horiz-adv-x="417" d="M404 686c-42 29-80 41-128 41-126 0-224-102-224-233 0-67 23-115 81-167l40-37c28-25 40-49 40-80 0-51-34-85-84-85-42 0-77 15-148 64l5-169C39-7 82-19 130-19c136 0 238 103 238 242 0 78-29 135-103 200l-28 24c-21 18-30 37-30 60 0 41 31 70 74 70 33 0 60-12 96-44l27 153zm-9 300L175 879l53-104 221 108-54 103z"/><glyph glyph-name="sacute" unicode="ś" horiz-adv-x="381" d="M-6 23C40-8 74-19 124-19c117 0 198 77 198 189 0 57-24 105-70 142l-31 24c-27 22-32 29-32 50 0 31 23 53 56 53 25 0 42-7 75-33l23 133c-37 23-66 32-107 32-108 0-190-81-190-188 0-51 18-86 62-122l39-33c25-20 35-37 35-60 0-33-25-55-62-55s-58 12-131 76l5-166zm381 816L155 732l53-103 220 107-53 103z"/><glyph glyph-name="Scedilla" unicode="Ş" horiz-adv-x="417" d="M237 447c-20 18-30 37-30 60 0 41 31 70 74 70 33 0 60-12 96-44l27 153c-42 29-80 41-128 41-126 0-224-102-224-233 0-67 23-115 81-167l40-37c28-25 40-49 40-80 0-51-34-85-84-85-42 0-77 15-148 64l5-169C26-2 69-15 109-18L86-89c30-5 43-16 43-37s-16-36-40-36c-21 0-38 9-67 33l-26-90c30-21 53-28 89-28 77 0 132 51 132 122 0 46-24 85-66 107C284-2 368 91 368 223c0 78-29 134-103 200l-28 24z"/><glyph glyph-name="scedilla" unicode="ş" horiz-adv-x="381" d="M72-89c30-5 43-16 43-37s-17-36-40-36c-21 0-38 9-67 33l-26-90c31-21 53-28 89-28 77 0 132 51 132 122 0 46-22 82-64 106 107 4 183 82 183 188 0 58-24 106-69 143l-31 24c-28 22-33 29-33 50 0 31 23 53 56 53 25 0 42-7 75-33l24 133c-38 23-67 32-108 32-108 0-190-81-190-188 0-52 17-86 62-123l40-32c24-19 34-38 34-60 0-34-25-56-62-56s-58 12-131 77l5-166C30-2 59-13 95-17L72-89z"/><glyph glyph-name="Scaron" unicode="Š" horiz-adv-x="417" d="M404 686c-42 29-80 41-128 41-126 0-224-102-224-233 0-67 23-115 81-167l40-37c28-25 40-49 40-80 0-51-34-85-84-85-42 0-77 15-148 64l5-169C39-7 82-19 130-19c136 0 238 103 238 242 0 78-29 135-103 200l-28 24c-21 18-30 37-30 60 0 41 31 70 74 70 33 0 60-12 96-44l27 153zm-110 84l160 119-71 92-89-67-89 67-72-92 161-119z"/><glyph glyph-name="scaron" unicode="š" horiz-adv-x="381" d="M-6 23C40-8 74-19 124-19c117 0 198 77 198 189 0 57-24 105-70 142l-31 24c-27 22-32 29-32 50 0 31 23 53 56 53 25 0 42-7 75-33l23 133c-37 23-66 32-107 32-108 0-190-81-190-188 0-51 18-86 62-122l39-33c25-20 35-37 35-60 0-33-25-55-62-55s-58 12-131 76l5-166zm251 600l160 120-71 92-89-68-89 68-71-92 160-120z"/><glyph glyph-name="Tcommaaccent" unicode="Ţ" horiz-adv-x="422" d="M72 0h154l100 568h139l25 140H58L33 568h139L72 0zM7-267h100L221-33H87L7-267z"/><glyph glyph-name="tcommaaccent" unicode="ţ" horiz-adv-x="293" d="M249 137c-20-2-28-3-40-3-32 0-44 9-44 34 0 9 1 16 2 24l40 228h87l23 132h-86l30 172-143-16-27-156H43L20 420h47L28 200c-5-31-8-58-8-80C20 50 81-4 159-4c18 0 27 1 54 4l36 137zM-42-267H58L172-33H38l-80-234z"/><glyph glyph-name="Tcaron" unicode="Ť" horiz-adv-x="422" d="M72 0h154l100 568h139l25 140H58L33 568h139L72 0zm223 770l161 119-72 92-89-67-89 67-71-92 160-119z"/><glyph glyph-name="tcaron" unicode="ť" horiz-adv-x="293" d="M249 137c-20-2-28-3-40-3-32 0-44 9-44 34 0 10 1 16 2 24l40 228h87l23 132h-87l31 172-143-16-28-156H43L20 420h47L28 200c-5-31-8-58-8-80C20 50 81-4 159-4c18 0 27 1 54 4l36 137zm49 460h100l77 158H341l-43-158z"/><glyph glyph-name="Umacron" unicode="Ū" horiz-adv-x="555" d="M118 708L45 294c-9-49-14-97-14-127C31 58 114-19 232-19c74 0 146 33 185 86 36 49 48 87 73 228l73 413H416l-78-445c-14-72-14-72-21-92-11-29-35-46-66-46-42 0-69 24-69 61 0 13 3 34 11 80l78 442H118zm122 54h230l18 103H258l-18-103z"/><glyph glyph-name="umacron" unicode="ū" horiz-adv-x="500" d="M343 552l-51-286c-17-99-50-147-100-147-23 0-36 14-36 39 0 11 1 22 3 34l66 376-142-16-66-374c-6-31-9-62-9-83C8 26 48-16 112-16c53 0 93 21 144 75l-13-75L385 0l100 568-142-16zm-160 63h230l19 103H201l-18-103z"/><glyph glyph-name="Uring" unicode="Ů" horiz-adv-x="555" d="M118 708L45 294c-9-49-14-97-14-127C31 58 114-19 232-19c74 0 146 33 185 86 36 49 48 87 73 228l73 413H416l-78-445c-14-72-14-72-21-92-11-29-35-46-66-46-42 0-69 24-69 61 0 13 3 34 11 80l78 442H118zm252 273c-68 0-118-48-118-114 0-68 51-120 119-120s117 48 117 116c0 66-52 118-118 118zm0-70c27 0 47-20 47-47s-21-48-48-48c-28 0-47 20-47 48 0 26 21 47 48 47z"/><glyph glyph-name="uring" unicode="ů" horiz-adv-x="500" d="M343 552l-51-286c-17-99-50-147-100-147-23 0-36 14-36 39 0 11 1 22 3 34l66 376-142-16-66-374c-6-31-9-62-9-83C8 26 48-16 112-16c53 0 93 21 144 75l-13-75L385 0l100 568-142-16zm-31 283c-68 0-118-49-118-115 0-68 52-120 119-120 69 0 118 49 118 116s-52 119-119 119zm0-70c27 0 47-20 47-48 0-27-21-48-48-48s-47 20-47 48c0 26 22 48 48 48z"/><glyph glyph-name="Uhungarumlaut" unicode="Ű" horiz-adv-x="555" d="M118 708L45 294c-9-49-14-97-14-127C31 58 114-19 232-19c74 0 146 33 185 86 36 49 48 87 73 228l73 413H416l-78-445c-14-72-14-72-21-92-11-29-35-46-66-46-42 0-69 24-69 61 0 13 3 34 11 80l78 442H118zm235 326L217 831l97-63 137 203-98 63zm189 0L405 831l98-63 137 203-98 63z"/><glyph glyph-name="uhungarumlaut" unicode="ű" horiz-adv-x="500" d="M343 552l-51-286c-17-99-50-147-100-147-23 0-36 14-36 39 0 11 1 22 3 34l66 376-142-16-66-374c-6-31-9-62-9-83C8 26 48-16 112-16c53 0 93 21 144 75l-13-75L385 0l100 568-142-16zm-61 335L145 684l98-63 137 203-98 63zm189 0L334 684l98-63 137 203-98 63z"/><glyph glyph-name="Uogonek" unicode="Ų" horiz-adv-x="555" d="M339-125c-28-23-49-32-75-32-18 0-29 10-29 27 0 20 16 43 53 77 93 83 106 96 129 121 36 48 48 84 73 227l73 413H416l-78-445c-14-72-14-72-21-92-11-29-35-46-66-46-42 0-69 24-69 61 0 13 3 34 11 80l78 442H118L45 294c-9-49-14-97-14-127C31 62 108-14 219-18c-55-52-80-95-80-137 0-52 41-89 98-89 26 0 45 6 82 25l20 94z"/><glyph glyph-name="uogonek" unicode="ų" horiz-adv-x="500" d="M240-34c-44-47-63-83-63-121 0-52 41-89 98-89 26 0 45 6 82 25l20 94c-27-23-49-32-75-32-18 0-29 10-29 27 0 25 35 66 112 130l100 568-142-16-51-286c-17-99-50-147-100-147-23 0-36 14-36 39 0 11 1 22 3 34l66 376-142-16-66-374c-6-31-9-62-9-83C8 26 48-16 112-16c53 0 93 21 144 75l-16-93z"/><glyph glyph-name="Ydieresis" unicode="Ÿ" horiz-adv-x="500" d="M113 0h154l62 353 240 355H409L273 493l-64 215H56l119-355L113 0zm117 924c-44 0-76-32-76-75 0-42 35-77 77-77s75 33 75 76c0 42-34 76-76 76zm215 0c-44 0-76-32-76-75 0-42 35-77 77-77s75 33 75 76c0 42-34 76-76 76z"/><glyph glyph-name="Zacute" unicode="Ź" horiz-adv-x="475" d="M105 708L61 568h216L-68 0h452l45 140H182l345 568H105zm339 278L224 879l53-104 220 108-53 103z"/><glyph glyph-name="zacute" unicode="ź" horiz-adv-x="404" d="M-68 0h386l41 133H167l271 419H80L31 420h174L-68 0zm449 839L160 732l54-103 220 107-53 103z"/><glyph glyph-name="Zdotaccent" unicode="Ż" horiz-adv-x="475" d="M105 708L61 568h216L-68 0h452l45 140H182l345 568H105zm216 216c-44 0-76-31-76-75 0-42 35-77 77-77s75 33 75 76c0 42-34 76-76 76z"/><glyph glyph-name="zdotaccent" unicode="ż" horiz-adv-x="404" d="M-68 0h386l41 133H167l271 419H80L31 420h174L-68 0zm339 777c-44 0-76-31-76-75 0-42 35-77 77-77s75 33 75 76c0 42-34 76-76 76z"/><glyph glyph-name="Zcaron" unicode="Ž" horiz-adv-x="475" d="M105 708L61 568h216L-68 0h452l45 140H182l345 568H105zm216 62l160 119-72 92-88-67-89 67-72-92 161-119z"/><glyph glyph-name="zcaron" unicode="ž" horiz-adv-x="404" d="M-68 0h386l41 133H167l271 419H80L31 420h174L-68 0zm327 623l160 120-71 92-89-68-89 68-71-92 160-120z"/><glyph glyph-name="afii10017" unicode="А" horiz-adv-x="552" d="M499 0L345 733-73 0H88l57 110h184L348 0h151zM315 227H202l86 170 27-170z"/><glyph glyph-name="afii10018" unicode="Б" horiz-adv-x="452" d="M195 289c53 0 71-16 71-61 0-59-34-89-98-90l27 151zm263 419H122L-3 0h130c92 0 153 15 202 50 57 41 91 113 91 191 0 77-32 135-89 161-29 14-54 18-113 20l26 146h189l25 140z"/><glyph glyph-name="afii10019" unicode="В" horiz-adv-x="474" d="M-3 0h130c191 0 293 86 293 246 0 57-17 100-53 131 61 35 90 85 90 154 0 118-79 177-235 177H122L-3 0zm247 568h8c39 0 55-16 55-55 0-64-31-98-90-98l27 153zm-48-273c53 0 71-15 71-62 0-63-34-95-99-95l28 157z"/><glyph glyph-name="afii10020" unicode="Г" horiz-adv-x="412" d="M122 708L-3 0h153l100 568h183l25 140H122z"/><glyph glyph-name="afii10021" unicode="Д" horiz-adv-x="553" d="M-80-190l156 15L107 0h218l-33-190 156 15 55 315h-53l100 568H159l-59-334C71 203 60 183-22 140l-58-330zm241 330c47 32 59 54 74 130l52 298h85l-75-428H161z"/><glyph glyph-name="afii10022" unicode="Е" horiz-adv-x="431" d="M-3 0h336l25 140H175l26 149h155l24 133H225l25 146h181l25 140H122L-3 0z"/><glyph glyph-name="afii10024" unicode="Ж" horiz-adv-x="798" d="M260 0h153l59 333L580 0h160L616 367l233 341H678L486 413l52 295H385l-52-295-95 295H73l119-321L-67 0h167l218 333L260 0z"/><glyph glyph-name="afii10025" unicode="З" horiz-adv-x="457" d="M-40 80C14 11 75-19 163-19c138 0 241 102 241 240 0 62-17 104-59 148 69 54 99 109 99 181 0 106-71 177-177 177-80 0-132-29-194-107l101-83c26 31 39 40 62 40 29 0 47-22 47-60 0-54-38-97-86-97h-31l-20-114h23c49 0 74-26 74-76 0-61-35-105-84-105-35 0-64 17-96 56L-40 80z"/><glyph glyph-name="afii10026" unicode="И" horiz-adv-x="574" d="M453 0l129 733-364-352 58 327H123L-7-27l364 354L299 0h154z"/><glyph glyph-name="afii10027" unicode="Й" horiz-adv-x="574" d="M453 0l129 733-364-352 58 327H123L-7-27l364 354L299 0h154zM195 859c47-65 100-96 165-96s118 31 164 96l-68 80c-35-38-63-53-96-53s-61 15-96 53l-69-80z"/><glyph glyph-name="afii10028" unicode="К" horiz-adv-x="535" d="M-3 0h153l59 333L317 0h160L354 367l232 341H415L223 413l52 295H122L-3 0z"/><glyph glyph-name="afii10029" unicode="Л" horiz-adv-x="535" d="M14-20c133 64 178 125 208 283l54 305h83L259 0h154l125 708H148L87 367C57 190 42 158-33 121L14-20z"/><glyph glyph-name="afii10030" unicode="М" horiz-adv-x="645" d="M-55 0h155l87 267 71-294 175 294 3-267h139l-24 733-239-426-84 426L-55 0z"/><glyph glyph-name="afii10031" unicode="Н" horiz-adv-x="575" d="M-3 0h153l53 300h149L299 0h153l125 708H424l-48-268H228l47 268H122L-3 0z"/><glyph glyph-name="afii10032" unicode="О" horiz-adv-x="615" d="M369 727C181 727 21 513 21 260 21 95 116-19 252-19c87 0 169 43 225 119 73 96 115 225 115 347 0 159-97 280-223 280zm-20-150c52 0 83-51 83-138 0-166-80-314-169-314-51 0-82 52-82 139 0 164 80 313 168 313z"/><glyph glyph-name="afii10033" unicode="П" horiz-adv-x="575" d="M-3 0h153l100 568h149L299 0h153l125 708H122L-3 0z"/><glyph glyph-name="afii10034" unicode="Р" horiz-adv-x="445" d="M-3 0h153l40 223c157 3 264 109 264 265 0 66-23 131-62 168-36 36-86 52-164 52H122L-3 0zm253 568c38-2 54-23 54-69 0-85-31-132-89-135l35 204z"/><glyph glyph-name="afii10035" unicode="С" horiz-adv-x="484" d="M518 673c-50 40-89 54-144 54-187 0-353-212-353-451C21 104 123-19 265-19c59 0 110 18 167 59l-15 139c-43-37-83-54-128-54-70 0-108 53-108 151 0 161 85 301 183 301 38 0 68-17 108-64l46 160z"/><glyph glyph-name="afii10036" unicode="Т" horiz-adv-x="422" d="M72 0h154l100 568h139l25 140H58L33 568h139L72 0z"/><glyph glyph-name="afii10037" unicode="У" horiz-adv-x="494" d="M54 708l101-521L53-13 209 0l358 708H407L256 380l-49 328H54z"/><glyph glyph-name="afii10038" unicode="Ф" horiz-adv-x="673" d="M198 0h152l9 52c176 18 300 163 300 351 0 138-71 230-194 252l10 53H322l-9-52C137 638 13 493 13 305 13 167 83 75 207 53l-9-53zm33 191c-41 18-58 53-58 115 0 104 45 186 116 211l-58-326zm210 326c40-17 58-53 58-115 0-103-47-188-116-211l58 326z"/><glyph glyph-name="afii10039" unicode="Х" horiz-adv-x="537" d="M92 0l157 231L325 0h154L347 378l237 330H424L293 515l-63 193H77l121-335L-68 0H92z"/><glyph glyph-name="afii10040" unicode="Ц" horiz-adv-x="581" d="M-3 0h355l-34-190 157 15 55 315h-53l100 568H424L323 140H175l100 568H122L-3 0z"/><glyph glyph-name="afii10041" unicode="Ч" horiz-adv-x="554" d="M278 0h153l125 708H403l-56-316c-32-9-48-12-73-12-44 0-63 15-63 51 0 23 1 30 19 137l25 140H101L75 557c-17-92-22-132-22-165 0-106 60-160 178-160 29 0 50 3 90 11L278 0z"/><glyph glyph-name="afii10042" unicode="Ш" horiz-adv-x="877" d="M577 708H424L323 140H175l100 568H122L-3 0h757l125 708H725L625 140H477l100 568z"/><glyph glyph-name="afii10043" unicode="Щ" horiz-adv-x="882" d="M654 0l-34-190 156 15 56 315h-54l101 568H725L625 140H477l100 568H424L323 140H175l100 568H122L-3 0h657z"/><glyph glyph-name="afii10044" unicode="Ъ" horiz-adv-x="496" d="M244 289c53 0 71-16 71-61 0-59-33-89-97-90l26 151zM40 0h137c92 0 153 15 202 50 57 41 91 113 91 192 0 76-32 134-89 160-29 14-54 18-113 20l50 286H52L27 568h113L40 0z"/><glyph glyph-name="afii10045" unicode="Ы" horiz-adv-x="687" d="M201 289c53 0 71-16 71-61 0-59-34-90-97-90l26 151zm-79 419L-3 0h137c91 0 152 15 201 50 57 41 91 113 91 191 0 77-32 135-88 161-29 14-54 18-113 20l50 286H122zM410 0h154l125 708H535L410 0z"/><glyph glyph-name="afii10046" unicode="Ь" horiz-adv-x="453" d="M201 289c53 0 71-16 71-61 0-59-34-90-97-90l26 151zm-79 419L-3 0h137c91 0 152 15 201 50 57 41 91 113 91 191 0 77-32 135-88 161-29 14-54 18-113 20l50 286H122z"/><glyph glyph-name="afii10047" unicode="Э" horiz-adv-x="491" d="M133 422l-23-133h174c-24-97-85-164-151-164-41 0-72 19-126 75L-27 41C25-2 68-19 127-19c187 0 341 207 341 458 0 167-97 288-231 288-48 0-92-14-141-45L62 507c65 54 96 70 137 70 70 0 106-47 108-140 0-7 0-9 1-15H133z"/><glyph glyph-name="afii10048" unicode="Ю" horiz-adv-x="817" d="M228 440l47 268H122L-3 0h153l53 300h21c-1-16-1-27-1-33 0-172 93-286 231-286 87 0 169 43 225 119 72 96 115 225 115 347 0 159-97 280-223 280-139 0-260-109-320-287h-23zm323 137c52 0 83-51 83-138 0-166-80-314-169-314-51 0-82 52-82 139 0 164 80 313 168 313z"/><glyph glyph-name="afii10049" unicode="Я" horiz-adv-x="501" d="M379 0l125 708H360c-187 0-293-91-293-250 0-66 20-118 60-154L-53 0h165l146 260h13L225 0h154zm-85 390c-43 0-67 26-67 72 0 67 35 104 99 106l-32-178z"/><glyph glyph-name="afii10065" unicode="а" horiz-adv-x="502" d="M487 568l-136-16c-45 12-67 16-94 16C117 568 2 396 2 186 2 56 54-16 146-16c37 0 66 12 105 43v-43L393 0c3 40 11 98 26 182l68 386zM267 153c-29-24-48-33-72-33-36 0-53 26-53 78 0 130 54 235 120 235 19 0 31-5 51-20l-46-260z"/><glyph glyph-name="afii10066" unicode="б" horiz-adv-x="496" d="M261 433c38 0 63-35 63-91 0-120-54-222-118-222-40 0-64 35-64 92 0 121 54 221 119 221zm90 275c-9-24-20-36-49-50-124-56-146-72-194-134C45 443 2 314 2 211 2 77 81-16 195-16c148 0 270 154 270 340 0 100-44 186-111 219-17 9-29 11-63 13v5c142 28 185 61 211 163l-151-16z"/><glyph glyph-name="afii10067" unicode="в" horiz-adv-x="427" d="M-11 0h149c95 0 137 11 179 48 40 35 63 87 63 140 0 47-17 84-49 108 53 34 70 62 70 115 0 93-66 141-192 141H86L-11 0zm182 239c50-2 69-15 69-48 0-36-27-58-72-58h-15l18 106zm33 187h5c34 0 52-15 52-46 0-41-22-58-75-59l18 105z"/><glyph glyph-name="afii10068" unicode="г" horiz-adv-x="392" d="M86 552L-11 0h140l74 420h194l23 132H86z"/><glyph glyph-name="afii10069" unicode="д" horiz-adv-x="499" d="M-87-190l143 15L87 0h205l-34-190 143 15 54 308h-53l74 419H114L64 270c-13-86-30-110-94-137l-57-323zm221 323c42 25 53 43 64 101l33 186h80l-51-287H134z"/><glyph glyph-name="afii10070" unicode="е" horiz-adv-x="469" d="M401 189c-82-54-121-69-176-69-62 0-85 25-85 93l291 50c8 58 11 86 11 116 0 110-70 189-168 189C123 568 2 412 2 217 2 69 74-16 200-16c66 0 114 16 195 67l6 138zM153 324c18 72 52 109 99 109 37 0 55-21 55-62l-1-21-153-26z"/><glyph glyph-name="afii10072" unicode="ж" horiz-adv-x="694" d="M265 280L215 0h140l50 280L498 0h149L542 310l166 242H548L416 346l37 206H313l-37-206-66 206H58l80-229L-77 0H79l186 280z"/><glyph glyph-name="afii10073" unicode="з" horiz-adv-x="399" d="M-40 61C16 7 69-16 140-16c120 0 203 79 203 194 0 50-13 83-44 112 51 38 75 81 75 133 0 84-64 145-150 145-68 0-103-15-174-75l61-95c30 29 52 39 78 39 28 0 45-16 45-43 0-32-26-54-63-54h-31l-20-113h21c42 0 62-15 62-45 0-37-31-65-72-65-34 0-52 9-89 46L-40 61z"/><glyph glyph-name="afii10074" unicode="и" horiz-adv-x="517" d="M403 0l101 573-320-267 43 246H87L-14-20l322 273L263 0h140z"/><glyph glyph-name="afii10075" unicode="й" horiz-adv-x="517" d="M403 0l101 573-320-267 43 246H87L-14-20l322 273L263 0h140zM146 712c47-65 100-96 165-96 64 0 118 32 164 96l-68 80c-35-38-63-53-96-53-34 0-62 16-96 53l-69-80z"/><glyph glyph-name="afii10076" unicode="к" horiz-adv-x="468" d="M190 346l36 206H86L-11 0h140l49 280L272 0h149L315 310l167 242H322L190 346z"/><glyph glyph-name="afii10077" unicode="л" horiz-adv-x="510" d="M-2-16C121 24 176 98 206 263l27 157h97L256 0h140l97 552H117L75 314C52 170 36 141-33 113L-2-16z"/><glyph glyph-name="afii10078" unicode="м" horiz-adv-x="563" d="M-67 0H63l78 219 73-239 160 239-1-219h133l-28 573-222-333-99 333L-67 0z"/><glyph glyph-name="afii10079" unicode="н" horiz-adv-x="517" d="M-11 0h140l38 213h133L262 0h140l98 552H360l-36-206H190l36 206H86L-11 0z"/><glyph glyph-name="afii10080" unicode="о" horiz-adv-x="496" d="M278 568C125 568 2 413 2 218 2 77 79-16 195-16c148 0 270 154 270 342 0 142-78 242-187 242zm-17-135c38 0 63-35 63-91 0-120-54-222-118-222-40 0-64 35-64 92 0 121 54 221 119 221z"/><glyph glyph-name="afii10081" unicode="п" horiz-adv-x="517" d="M-11 0h140l74 420h133L262 0h140l98 552H86L-11 0z"/><glyph glyph-name="afii10082" unicode="р" horiz-adv-x="502" d="M105-175L136-3c35-9 57-13 80-13 141 0 256 172 256 382 0 130-51 202-145 202-36 0-64-11-105-42v42L80 552c-2-39-10-98-25-182l-99-560 149 15zm102 574c28 24 47 33 72 33 36 0 53-25 53-78 0-130-54-235-120-235-19 0-31 5-51 20l46 260z"/><glyph glyph-name="afii10083" unicode="с" horiz-adv-x="411" d="M354 188c-64-53-94-68-135-68-51 0-77 35-77 105 0 124 56 208 139 208 33 0 56-10 94-42l37 129c-43 34-81 48-131 48C125 568 1 413 1 219 1 74 76-16 197-16c51 0 84 12 149 54l8 150z"/><glyph glyph-name="afii10084" unicode="т" horiz-adv-x="377" d="M56 0h140l74 420h126l24 132H26L3 420h127L56 0z"/><glyph glyph-name="afii10085" unicode="у" horiz-adv-x="420" d="M86 0L-6-191l143 16 322 727H316L189 240l-16 312H29L86 0z"/><glyph glyph-name="afii10086" unicode="ф" horiz-adv-x="573" d="M121-190l142 15 29 163c149 24 251 155 251 323 0 119-59 213-151 242l30 171-143-16-26-149C104 535 2 404 2 236 2 116 59 24 153-7l-32-183zm241 595c31-28 44-60 44-107 0-71-37-137-91-161l47 268zM182 141c-29 27-43 61-43 108 0 71 38 138 91 161l-48-269z"/><glyph glyph-name="afii10087" unicode="х" horiz-adv-x="457" d="M-68 0H75l119 168L255 0h144L287 286l198 266H342L239 409l-53 143H42l103-263L-68 0z"/><glyph glyph-name="afii10088" unicode="ц" horiz-adv-x="523" d="M316 0l-34-190 143 15 54 308h-53l74 419H360l-74-419H153l73 419H86L-11 0h327z"/><glyph glyph-name="afii10089" unicode="ч" horiz-adv-x="495" d="M241 0h140l98 552H339l-42-238c-30-9-42-11-62-11-41 0-63 15-63 43 0 11 2 31 6 54l27 152H65L38 396c-7-36-11-75-11-96 0-83 55-126 159-126 29 0 48 2 88 10L241 0z"/><glyph glyph-name="afii10090" unicode="ш" horiz-adv-x="790" d="M-11 0h687l97 552H633l-74-419H426l74 419H360l-74-419H153l73 419H86L-11 0z"/><glyph glyph-name="afii10091" unicode="щ" horiz-adv-x="796" d="M-11 0h600l-34-190 143 15 55 308h-54l74 419H633l-74-419H426l74 419H360l-74-419H153l73 419H86L-11 0z"/><glyph glyph-name="afii10092" unicode="ъ" horiz-adv-x="482" d="M233 239c50-2 69-15 69-48 0-36-27-58-73-58h-14l18 106zM125 420L51 0h145c96 0 137 11 180 48 42 36 66 95 66 158 0 106-66 166-183 166h-2l31 180H23L0 420h125z"/><glyph glyph-name="afii10093" unicode="ы" horiz-adv-x="637" d="M171 239c50-2 69-15 69-48 0-36-28-58-72-58h-15l18 106zM86 552L-11 0h145c96 0 137 11 180 48 41 36 66 95 66 158 0 106-66 166-183 166h-2l31 180H86zM522 0l98 552H480L382 0h140z"/><glyph glyph-name="afii10094" unicode="ь" horiz-adv-x="420" d="M171 239c50-2 69-15 69-48 0-36-28-58-72-58h-15l18 106zM86 552L-11 0h145c96 0 137 11 180 48 41 36 66 95 66 158 0 106-66 166-183 166h-2l31 180H86z"/><glyph glyph-name="afii10095" unicode="э" horiz-adv-x="411" d="M214 213c-13-55-54-93-98-93-39 0-66 19-103 71L-23 41C21 0 61-16 116-16c142 0 264 156 264 338 0 142-78 246-186 246-38 0-68-8-108-30L50 384c55 38 81 49 114 49 47 0 70-27 73-87H104L80 213h134z"/><glyph glyph-name="afii10096" unicode="ю" horiz-adv-x="681" d="M190 346l36 206H86L-11 0h140l38 213h21c6-143 78-229 193-229 148 0 270 154 270 341 0 143-77 243-188 243-114 0-210-83-256-222h-17zm257 87c39 0 63-35 63-91 0-120-54-222-118-222-40 0-64 34-64 92 0 122 53 221 119 221z"/><glyph glyph-name="afii10097" unicode="я" horiz-adv-x="461" d="M347 0l97 552H278c-142 0-227-73-227-196 0-59 19-98 59-121L-53 0h160l123 203h13L207 0h140zm-65 427l-18-106h-9c-39 0-54 13-54 47 0 40 21 59 66 59h15z"/><glyph glyph-name="uni2011" unicode="‑" horiz-adv-x="165" d="M13 427l-24-133h165l24 133H13z"/><glyph glyph-name="figuredash" unicode="‒" horiz-adv-x="440" d="M61 427L37 294h345l24 133H61z"/><glyph glyph-name="endash" unicode="–" horiz-adv-x="440" d="M61 427L37 294h345l24 133H61z"/><glyph glyph-name="emdash" unicode="—" horiz-adv-x="630" d="M28 427L4 294h600l24 133H28z"/><glyph glyph-name="afii00208" unicode="―" horiz-adv-x="630" d="M28 427L4 294h600l24 133H28z"/><glyph glyph-name="quoteleft" unicode="‘" horiz-adv-x="218" d="M252 708h-90L22 427h113l117 281z"/><glyph glyph-name="quoteright" unicode="’" horiz-adv-x="209" d="M22 427h90l140 281H138L22 427z"/><glyph glyph-name="quotesinglbase" unicode="‚" horiz-adv-x="209" d="M-71-101h90l140 281H45L-71-101z"/><glyph glyph-name="quotedblleft" unicode="“" horiz-adv-x="369" d="M412 708h-90L182 427h113l117 281zm-160 0h-90L22 427h113l117 281z"/><glyph glyph-name="quotedblright" unicode="”" horiz-adv-x="369" d="M22 427h90l140 281H138L22 427zm160 0h90l140 281H298L182 427z"/><glyph glyph-name="quotedblbase" unicode="„" horiz-adv-x="369" d="M-71-101h90l140 281H45L-71-101zm160 0h90l140 281H205L89-101z"/><glyph glyph-name="dagger" unicode="†" horiz-adv-x="345" d="M118 425L43 0h133l75 425h76l24 133h-76l26 150H168l-27-150H66L42 425h76z"/><glyph glyph-name="daggerdbl" unicode="‡" horiz-adv-x="345" d="M121 438l-19-104H26L4 207h76L43 0h134l36 207h76l22 127h-75l18 104h76l21 120h-76l27 150H168l-26-150H66L45 438h76z"/><glyph glyph-name="bullet" unicode="•" horiz-adv-x="399" d="M198 526c-97 0-171-74-171-170 0-95 79-174 173-174 96 0 171 74 171 168 0 97-78 176-173 176z"/><glyph glyph-name="ellipsis" unicode="…" horiz-adv-x="674" d="M60 138c-43 0-75-32-75-75 0-41 35-76 76-76 42 0 75 32 75 74s-34 77-76 77zm225 0c-43 0-75-32-75-75 0-41 35-76 76-76 42 0 75 32 75 74s-34 77-76 77zm224 0c-43 0-75-32-75-75 0-41 35-76 76-76 42 0 75 32 75 74s-34 77-76 77z"/><glyph glyph-name="perthousand" unicode="‰" horiz-adv-x="1001" d="M222 727c-96 0-177-102-177-222 0-94 51-157 129-157 93 0 172 102 172 221 0 92-52 158-124 158zm-13-112c11 0 17-12 17-31 0-59-23-124-44-124-11 0-17 11-17 29 0 62 23 126 44 126zm295 93L64 0h110l440 708H504zm5-348c-96 0-177-101-177-222 0-94 51-157 129-157 92 0 172 102 172 221 0 92-52 158-124 158zm-13-112c11 0 17-12 17-31 0-60-23-124-44-124-10 0-17 11-17 29 0 62 23 126 44 126zm331 112c-96 0-177-101-177-222 0-94 52-157 129-157 92 0 172 102 172 221 0 92-52 158-124 158zm-13-112c11 0 17-12 17-31 0-60-23-124-44-124-10 0-17 11-17 29 0 62 23 126 44 126z"/><glyph glyph-name="guilsinglleft" unicode="‹" horiz-adv-x="207" d="M4 321l58-172 104 31-46 141 84 126-79 48L4 321z"/><glyph glyph-name="guilsinglright" unicode="›" horiz-adv-x="207" d="M191 322l-58 173-104-31 47-142-85-126 79-47 121 173z"/><glyph glyph-name="uni203E" unicode="‾" horiz-adv-x="425" d="M90 908L66 775h440l24 133H90z"/><glyph glyph-name="fraction" unicode="⁄" horiz-adv-x="224" d="M210 708L-163 0h107l372 708H210z"/><glyph glyph-name="foursuperior" unicode="⁴" horiz-adv-x="293" d="M217 178l56 316L-83 89h187L88 0h99l15 89h14l22 89h-21zm-138-5l62 76-14-76H79z"/><glyph glyph-name="franc" unicode="₣" horiz-adv-x="691" d="M-3 0h153l48 271h136l23 133H222l28 164h183l25 140H122L-3 0zm493 0l38 219c18 102 70 160 142 160h14l38 156h-8c-53 0-98-29-143-92l16 92-143-16L352 0h138z"/><glyph glyph-name="Euro" unicode="€" horiz-adv-x="458" d="M393 140c-46-17-67-22-102-22-90 0-141 47-141 132 0 18 2 31 8 56h183l48 127H190c36 109 91 157 179 157 30 0 50-5 78-20l51 129c-43 20-75 28-119 28-152 0-271-105-334-294H2l-35-127h51c-6-35-9-58-9-83C9 82 113-19 257-19c33 0 59 5 87 17l49 142z"/><glyph glyph-name="afii61352" unicode="№" horiz-adv-x="1026" d="M-3 0h153l60 337L447-27l130 735H424l-60-337-238 362L-3 0zm549 127L524 0h380l22 127H546zm295 600c-137 0-248-140-248-315 0-127 69-211 173-211 135 0 244 139 244 308 0 128-70 218-169 218zm-15-121c35 0 57-32 57-83 0-108-49-200-106-200-36 0-58 31-58 83 0 109 48 200 107 200z"/><glyph glyph-name="trademark" unicode="™" horiz-adv-x="614" d="M64 283h100l57 324h64l18 101H70L52 607h69L64 283zm131 0h100l49 150 50-169 103 169-2-150h100l-21 440-150-256-59 256-170-440z"/><glyph glyph-name="uni2126" unicode="Ω" horiz-adv-x="622" d="M308 0h220l24 133h-61c68 80 105 187 105 304 0 170-94 290-226 290-180 0-344-212-344-444 0-57 9-101 31-150H-3L-27 0h220l24 137c-21 26-34 70-34 118 0 171 81 322 172 322 50 0 81-52 81-135 0-141-41-263-104-305L308 0z"/><glyph glyph-name="minus" unicode="−" horiz-adv-x="427" d="M376 294l23 133H53L29 294h347z"/><glyph glyph-name="dotmath" unicode="⋅" horiz-adv-x="250" d="M129 454c-43 0-75-32-75-75 0-41 35-76 76-76 42 0 75 32 75 74s-34 77-76 77z"/><glyph glyph-name="uniEA3F" unicode="" horiz-adv-x="667" d="M465 475h100l114 233H545l-80-233z"/><glyph glyph-name="uniEA4F" unicode="" horiz-adv-x="667" d="M507 848H407L293 615h133l81 233z"/><glyph glyph-name="uniEA67" unicode="" horiz-adv-x="667" d="M465 475h100l114 233H545l-80-233z"/><glyph glyph-name="uniEA68" unicode="" horiz-adv-x="667" d="M349 910c-35 0-61-26-61-61 0-33 29-62 62-62 35 0 61 27 61 62 0 33-28 61-62 61zm140 0c-35 0-61-26-61-61 0-33 29-62 62-62 34 0 61 27 61 62 0 33-28 61-62 61z"/><glyph glyph-name="uniEA6A" unicode="" horiz-adv-x="667" d="M323 763c-35 0-61-26-61-61 0-33 29-62 62-62 34 0 61 27 61 62 0 33-28 61-62 61zm140 0c-35 0-61-26-61-61 0-33 29-62 62-62 34 0 61 27 61 62 0 33-28 61-62 61z"/><glyph glyph-name="commaaccent" unicode="" horiz-adv-x="667" d="M137-267h100L351-33H217l-80-234z"/><glyph glyph-name="Acute" unicode="" horiz-adv-x="667" d="M536 986L316 879l53-104 220 108-53 103z"/><glyph glyph-name="Caron" unicode="" horiz-adv-x="667" d="M427 770l161 119-72 92-89-67-89 67-71-92 160-119z"/><glyph glyph-name="Dieresis" unicode="" horiz-adv-x="667" d="M312 924c-44 0-76-32-76-75 0-42 35-77 77-77s75 33 75 76c0 42-34 76-76 76zm215 0c-44 0-76-32-76-75 0-42 35-77 77-77s75 33 75 76c0 42-34 76-76 76z"/><glyph glyph-name="Grave" unicode="" horiz-adv-x="667" d="M316 986l-53-103 220-108 53 104-220 107z"/><glyph glyph-name="Hungarumlaut" unicode="" horiz-adv-x="667" d="M359 1034L222 831l98-63 137 203-98 63zm188 0L411 831l98-63 136 203-98 63z"/><glyph glyph-name="Macron" unicode="" horiz-adv-x="667" d="M290 762h230l18 103H308l-18-103z"/></font>
</svg>
