<svg width="20" height="20" fill="none" xmlns="http://www.w3.org/2000/svg"><g clip-path="url(#clip0)"><path opacity=".7" fill-rule="evenodd" clip-rule="evenodd" d="M12.422 5.572c-.379 0-.826.088-1.341.265-.516.177-.887.265-1.114.265-.177 0-.535-.078-1.073-.235-.538-.156-.996-.235-1.375-.235-.89 0-1.626.374-2.21 1.122-.583.748-.875 1.715-.875 2.903.002.657.1 1.31.288 1.94.207.688.495 1.35.856 1.97.384.673.77 1.177 1.16 1.513.389.336.78.504 1.175.504.262 0 .605-.087 1.027-.262.422-.174.792-.261 1.11-.261.318 0 .709.083 1.171.25.462.167.825.25 1.088.25.333 0 .667-.126 1-.379.334-.252.667-.634 1-1.144.212-.32.403-.65.573-.993a6.43 6.43 0 00.383-.955c-.46-.136-.87-.462-1.228-.978a2.967 2.967 0 01-.262-2.952c.185-.397.557-.832 1.118-1.307-.359-.445-.738-.77-1.137-.974a2.88 2.88 0 00-1.334-.307zm-.129-2.926c-.904.207-1.552.591-1.944 1.152-.391.561-.592 1.226-.602 1.994.394-.02.71-.084.947-.19a2.36 2.36 0 00.697-.5c.312-.303.557-.667.72-1.069.152-.384.228-.738.228-1.06 0-.051-.003-.102-.008-.153a.909.909 0 00-.037-.174zM10.002 0c5.522 0 10 4.477 10 10s-4.478 10-10 10C4.478 20 0 15.523 0 10S4.477 0 10 0z" fill="#fff"/></g><defs><clipPath id="clip0"><path fill="#fff" d="M0 0h20v20H0z"/></clipPath></defs></svg>