<svg width="40" height="40" fill="none" xmlns="http://www.w3.org/2000/svg"><path fill-rule="evenodd" clip-rule="evenodd" d="M11.094 12.5h17.812a2.347 2.347 0 0 1 2.344 2.344v10.312a2.347 2.347 0 0 1-2.344 2.344H11.094a2.347 2.347 0 0 1-2.344-2.344V14.844a2.347 2.347 0 0 1 2.344-2.344zm.3 13.017l5.626-4.688a.47.47 0 0 0-.601-.721l-5.625 4.688a.47.47 0 0 0 .6.72zM20 20.953a2.617 2.617 0 0 1-1.483-.462l-7.688-5.26a.468.468 0 1 1 .53-.774l7.688 5.26a1.679 1.679 0 0 0 1.906 0l7.689-5.26a.469.469 0 0 1 .53.774l-7.69 5.26c-.45.309-.967.462-1.482.462zm8.906 4.672a.47.47 0 0 0 .3-.83l-5.624-4.687a.47.47 0 0 0-.6.721l5.624 4.688a.468.468 0 0 0 .3.108z" fill="#fff"/></svg>