<svg width="40" height="40" fill="none" xmlns="http://www.w3.org/2000/svg"><path fill-rule="evenodd" clip-rule="evenodd" d="M21.556 28.597s.512-.058.773-.348c.24-.267.233-.767.233-.767s-.034-2.343 1.021-2.688c1.04-.34 2.375 2.264 3.79 3.265 1.07.758 1.883.592 1.883.592l3.784-.054s1.98-.126 1.04-1.73c-.076-.132-.546-1.188-2.812-3.357-2.373-2.27-2.055-1.903.803-5.83 1.74-2.393 2.436-3.853 2.218-4.478-.207-.596-1.487-.439-1.487-.439l-4.26.028s-.316-.045-.55.1c-.23.141-.376.47-.376.47s-.675 1.852-1.574 3.426c-1.897 3.321-2.655 3.497-2.966 3.29-.72-.48-.54-1.93-.54-2.96 0-3.22.473-4.562-.923-4.91-.463-.115-.804-.191-1.988-.203-1.52-.016-2.807.005-3.535.372-.485.246-.86.79-.631.822.282.039.92.177 1.257.652.437.612.421 1.988.421 1.988s.251 3.789-.585 4.259c-.575.323-1.362-.336-3.054-3.35-.866-1.543-1.52-3.25-1.52-3.25s-.126-.318-.352-.489c-.273-.207-.654-.272-.654-.272l-4.049.027s-.608.018-.83.29c-.2.243-.016.744-.016.744s3.169 7.646 6.758 11.499c3.291 3.533 7.028 3.301 7.028 3.301h1.693z" fill="#fff"/></svg>