<svg width="17" height="10" fill="none" xmlns="http://www.w3.org/2000/svg"><path fill-rule="evenodd" clip-rule="evenodd" d="M9.334 9.958s.307-.035.463-.209c.145-.16.14-.46.14-.46s-.02-1.406.613-1.613c.624-.204 1.425 1.359 2.274 1.96.642.454 1.13.355 1.13.355l2.27-.033s1.188-.075.625-1.038c-.047-.079-.329-.712-1.688-2.014-1.424-1.362-1.233-1.142.481-3.498 1.045-1.436 1.462-2.312 1.332-2.687-.125-.357-.893-.263-.893-.263l-2.556.016s-.19-.026-.33.06c-.137.085-.226.283-.226.283s-.404 1.11-.944 2.055c-1.138 1.993-1.593 2.098-1.78 1.974-.432-.288-.324-1.158-.324-1.776 0-1.932.284-2.737-.553-2.945C9.09.055 8.885.01 8.175.002c-.912-.01-1.684.003-2.121.224-.291.147-.515.474-.379.493.17.023.552.106.755.39.262.368.252 1.193.252 1.193s.151 2.274-.351 2.556c-.345.194-.817-.201-1.832-2.01-.52-.926-.913-1.95-.913-1.95s-.075-.19-.21-.293a1.035 1.035 0 00-.393-.163L.554.458S.189.468.056.632c-.12.145-.01.446-.01.446s1.902 4.588 4.055 6.9c1.975 2.12 4.217 1.98 4.217 1.98h1.016z" fill="#fff"/></svg>