<svg width="40" height="40" fill="none" xmlns="http://www.w3.org/2000/svg"><path fill-rule="evenodd" clip-rule="evenodd" d="M24.277 24.294c-.386.548-.951.979-1.696 1.288-.744.313-1.626.468-2.646.468-1.224 0-2.232-.212-3.028-.637a3.916 3.916 0 0 1-1.374-1.225c-.352-.51-.528-1.006-.528-1.489a.95.95 0 0 1 .317-.718c.21-.2.48-.3.807-.3.265 0 .49.077.672.234.184.155.34.385.47.691.158.363.328.666.512.91.183.243.441.445.773.602.333.157.77.237 1.311.237.744 0 1.349-.158 1.814-.478.465-.317.698-.716.698-1.193 0-.378-.126-.686-.376-.92-.252-.237-.576-.417-.973-.54a17.55 17.55 0 0 0-1.595-.398c-.89-.19-1.636-.416-2.236-.672-.6-.257-1.077-.606-1.429-1.049-.352-.444-.528-.994-.528-1.652 0-.627.185-1.184.558-1.67.372-.488.91-.863 1.615-1.125.705-.261 1.534-.392 2.486-.392.761 0 1.42.088 1.975.26.555.174 1.015.405 1.382.693.366.287.635.589.803.905.17.315.254.625.254.924 0 .274-.105.524-.317.743a1.05 1.05 0 0 1-.79.331c-.288 0-.507-.067-.656-.199-.15-.132-.312-.348-.486-.649-.226-.43-.496-.765-.813-1.006-.316-.241-.822-.361-1.521-.361-.648 0-1.171.13-1.569.392-.397.26-.596.576-.596.944a.91.91 0 0 0 .203.591c.134.166.321.308.559.427.235.119.475.212.718.28.242.068.642.166 1.201.296.699.15 1.331.316 1.898.497a6.05 6.05 0 0 1 1.446.66c.397.26.708.588.93.985.223.395.335.881.335 1.457 0 .689-.194 1.308-.58 1.858zm5.24-4.269c0-5.416-4.392-9.807-9.808-9.807-.507 0-1 .05-1.486.124a5.573 5.573 0 0 0-3.63-1.343A5.593 5.593 0 0 0 9 14.592c0 1.26.423 2.42 1.127 3.355a9.88 9.88 0 0 0-.225 2.078c0 5.418 4.39 9.809 9.807 9.809.696 0 1.375-.076 2.03-.215A5.557 5.557 0 0 0 25.406 31 5.592 5.592 0 0 0 31 25.407c0-1.527-.613-2.91-1.606-3.918.073-.48.122-.966.122-1.464z" fill="#fff"/></svg>