<svg width="24" height="16" fill="none" xmlns="http://www.w3.org/2000/svg"><path fill-rule="evenodd" clip-rule="evenodd" d="M3.094.5h17.812a2.347 2.347 0 012.344 2.344v10.312a2.347 2.347 0 01-2.344 2.344H3.094A2.347 2.347 0 01.75 13.156V2.844A2.347 2.347 0 013.094.5zm.3 13.017L9.02 8.829a.47.47 0 00-.601-.721l-5.625 4.688a.47.47 0 00.6.72zM12 8.953a2.618 2.618 0 01-1.483-.462L2.83 3.231a.469.469 0 11.53-.774l7.688 5.26a1.679 1.679 0 001.906 0l7.689-5.26a.469.469 0 01.53.774l-7.69 5.26c-.45.309-.967.462-1.482.462zm8.906 4.672a.47.47 0 00.3-.83l-5.624-4.687a.47.47 0 00-.6.72l5.624 4.689a.468.468 0 00.3.108z" fill="#fff"/></svg>