<svg width="40" height="40" fill="none" xmlns="http://www.w3.org/2000/svg"><path d="M20 5.014c-6.144 0-11.978-.546-14.206 5.17-.92 2.36-.787 5.425-.787 9.814 0 3.851-.124 7.471.787 9.813 2.223 5.718 8.105 5.17 14.203 5.17 5.883 0 11.95.612 14.205-5.17.922-2.384.787-5.404.787-9.813 0-5.854.323-9.632-2.518-12.47-2.876-2.874-6.767-2.514-12.477-2.514H20zm-1.343 2.7c12.816-.02 14.447-1.443 13.547 18.333-.32 6.995-5.65 6.227-12.202 6.227-11.946 0-12.29-.341-12.29-12.283 0-12.08.948-12.27 10.945-12.28v.004zm9.347 2.488a1.798 1.798 0 1 0-.001 3.596 1.798 1.798 0 0 0 .001-3.596zM20 12.303a7.697 7.697 0 0 0-7.699 7.695 7.696 7.696 0 0 0 7.7 7.693 7.694 7.694 0 1 0 0-15.388zm0 2.7c6.608 0 6.616 9.99 0 9.99-6.605 0-6.616-9.99 0-9.99z" fill="#fff"/></svg>