<svg width="40" height="40" fill="none" xmlns="http://www.w3.org/2000/svg"><path fill-rule="evenodd" clip-rule="evenodd" d="M28.858 11.133A12.397 12.397 0 0 0 20.052 7.5c-6.86 0-12.445 5.557-12.448 12.387 0 2.184.573 4.315 1.662 6.194L7.5 32.5l6.599-1.723a12.488 12.488 0 0 0 5.948 1.508h.005c6.86 0 12.445-5.557 12.448-12.388a12.283 12.283 0 0 0-3.642-8.764zm-8.805 19.06h-.004c-1.856 0-3.677-.497-5.266-1.435l-.377-.223-3.916 1.022 1.045-3.8-.246-.39a10.236 10.236 0 0 1-1.582-5.479c.002-5.677 4.643-10.296 10.35-10.296a10.302 10.302 0 0 1 7.315 3.02 10.21 10.21 0 0 1 3.027 7.284c-.002 5.678-4.643 10.297-10.346 10.297zm3.547-8.718c-.285-.103-.492-.155-.7.155-.207.31-.803 1.007-.984 1.214-.182.206-.363.232-.674.077-.311-.154-1.313-.481-2.501-1.536-.925-.82-1.55-1.834-1.73-2.144-.182-.31-.02-.478.136-.632.14-.139.31-.362.466-.542.156-.181.208-.31.311-.517.104-.206.052-.387-.026-.542-.077-.155-.7-1.678-.959-2.298-.252-.604-.509-.522-.7-.532-.18-.009-.388-.01-.596-.01-.207 0-.544.077-.829.387-.285.31-1.088 1.059-1.088 2.582 0 1.524 1.114 2.996 1.27 3.202.155.207 2.193 3.333 5.313 4.674.742.319 1.321.51 1.773.652.745.236 1.423.202 1.959.123.598-.09 1.84-.75 2.1-1.472.259-.723.259-1.343.18-1.472-.077-.13-.284-.207-.595-.362-.311-.154-1.84-.903-2.126-1.007z" fill="#fff"/></svg>