<svg width="60" height="48" fill="none" xmlns="http://www.w3.org/2000/svg"><path fill-rule="evenodd" clip-rule="evenodd" d="M2.758 19.87L55.088.317c2.39-1.05 4.697.557 3.785 4.1L49.962 45.1c-.623 2.89-2.426 3.583-4.925 2.247L31.463 37.63l-.248.233c-3.088 2.908-5.81 5.471-6.278 5.915l-.05.048c-.733.694-1.339 1.268-2.666 1.268-1.379 0-1.494-.395-1.77-1.347-.078-.263-.166-.569-.298-.92l-.006-.018.88-8.658 26.546-22.065c1.165-.953-.254-1.418-1.801-.553L15.533 29.108l-.375-1.113-13.051-3.946c-2.9-.86-2.92-2.79.65-4.179zm12.775 9.238l-.764.444 5.224 14.755.153-1.498-4.613-13.7z" fill="#fff"/></svg>