<svg width="16" height="14" fill="none" xmlns="http://www.w3.org/2000/svg"><path fill-rule="evenodd" clip-rule="evenodd" d="M10.389 0H5.612C2.512 0 0 2.447 0 5.466c0 2.975 2.44 5.395 5.477 5.465V14l7.377-3.622C14.717 9.488 16 7.623 16 5.466 16 2.447 13.488 0 10.389 0zm3.227 5.68c0 .73-.607 1.32-1.355 1.32s-1.355-.59-1.355-1.32c0-.728.607-1.32 1.355-1.32s1.355.592 1.355 1.32zM8 7c.748 0 1.355-.59 1.355-1.32 0-.728-.607-1.32-1.355-1.32s-1.355.592-1.355 1.32c0 .73.607 1.32 1.355 1.32zM5.092 5.68c0 .73-.606 1.32-1.355 1.32-.748 0-1.354-.59-1.354-1.32 0-.728.606-1.32 1.354-1.32.749 0 1.355.592 1.355 1.32z" fill="#fff"/></svg>