<svg viewBox="0 0 512 512" xmlns="http://www.w3.org/2000/svg"><path d="m512 256c0 141.384-114.616 256-256 256s-256-114.616-256-256c0 .061 256-255.972 256-256 141.384 0 256 114.616 256 256z" fill="#0052b4"/><path d="m256 0h-.043zm-.685 256h.685v-.685z" fill="#f0f0f0"/><path d="m256 133.565v-133.565h-.043c-141.365.024-255.957 114.629-255.957 256h133.565v-75.211l75.212 75.211h46.539l.685-.685v-46.537l-75.213-75.213z" fill="#f0f0f0"/><path d="m129.515 33.391a257.222 257.222 0 0 0 -96.124 96.124v126.485h66.783v-155.826h155.826v-66.783z" fill="#d80027"/><path d="m256 224.519-90.953-90.953h-31.481v.002l122.432 122.432h.002z" fill="#d80027"/><path d="m411.826 300.522v11.13h-89.043v-11.13h-33.392v44.521h22.261v11.131h111.305v-11.131h22.26v-44.521z" fill="#ffda44"/><path d="m289.391 133.565v122.435c0 59.639 77.913 77.913 77.913 77.913s77.913-18.274 77.913-77.913v-122.435z" fill="#338af3"/><path d="m367.3 224.889c-19.477 0-19.477 17.809-38.954 17.809s-19.477-17.809-38.954-17.809v31.165c19.477 0 19.477 17.809 38.954 17.809s19.477-17.809 38.954-17.809c19.479 0 19.479 17.809 38.959 17.809s19.479-17.809 38.959-17.809v-31.165c-19.479 0-19.479 17.809-38.959 17.809s-19.48-17.809-38.959-17.809zm0-62.385c-19.477 0-19.477 17.809-38.954 17.809s-19.477-17.809-38.954-17.809v31.165c19.477 0 19.477 17.809 38.954 17.809s19.477-17.809 38.954-17.809c19.479 0 19.479 17.809 38.959 17.809s19.479-17.809 38.959-17.809v-31.165c-19.479 0-19.479 17.809-38.959 17.809s-19.48-17.809-38.959-17.809z" fill="#f3f3f3"/></svg>