<svg viewBox="0 0 512 512" xmlns="http://www.w3.org/2000/svg"><circle cx="256" cy="256" fill="#f0f0f0" r="256"/><path d="m52.92 100.142c-20.109 26.163-35.272 56.318-44.101 89.077h133.178zm450.261 89.077c-8.829-32.758-23.993-62.913-44.101-89.076l-89.075 89.076zm-494.362 133.565c8.83 32.758 23.993 62.913 44.101 89.075l89.074-89.075zm403.039-269.863c-26.163-20.109-56.317-35.272-89.076-44.102v133.177zm-311.716 406.158c26.163 20.109 56.318 35.272 89.076 44.102v-133.176zm89.075-450.26c-32.758 8.83-62.913 23.993-89.075 44.101l89.075 89.075v-133.176zm133.566 494.362c32.758-8.83 62.913-23.993 89.075-44.101l-89.075-89.075zm47.222-180.397 89.075 89.076c20.108-26.162 35.272-56.318 44.101-89.076z" fill="#0052b4"/><g fill="#d80027"><path d="m509.833 222.609h-220.441v-220.442a258.556 258.556 0 0 0 -33.392-2.167c-11.319 0-22.461.744-33.391 2.167v220.441h-220.442a258.556 258.556 0 0 0 -2.167 33.392c0 11.319.744 22.461 2.167 33.391h220.441v220.442a258.35 258.35 0 0 0 66.783 0v-220.441h220.442a258.533 258.533 0 0 0 2.167-33.392c0-11.317-.744-22.461-2.167-33.391z"/><path d="m322.783 322.784 114.236 114.236a256.636 256.636 0 0 0 15.048-16.435l-97.802-97.802h-31.482zm-133.566 0h-.002l-114.235 114.235a256.636 256.636 0 0 0 16.435 15.048l97.802-97.804zm0-133.565v-.002l-114.236-114.237a256.636 256.636 0 0 0 -15.048 16.435l97.803 97.803h31.481zm133.566 0 114.237-114.238a256.328 256.328 0 0 0 -16.435-15.047l-97.802 97.803z"/></g></svg>