<svg viewBox="0 0 512 512" xmlns="http://www.w3.org/2000/svg"><path d="m512 256c0 141.384-114.616 256-256 256s-256-114.616-256-256c0 .061 256-255.972 256-256 141.384 0 256 114.616 256 256z" fill="#0052b4"/><path d="m256 0h-.043zm-.685 256h.685v-.685z" fill="#f0f0f0"/><path d="m256 133.565v-133.565h-.043c-141.366.024-255.957 114.629-255.957 256h133.565v-75.211l75.211 75.211h46.54l.685-.685v-46.537l-75.213-75.213z" fill="#f0f0f0"/><path d="m129.515 33.391a257.215 257.215 0 0 0 -96.124 96.124v126.485h66.783v-155.826h155.826v-66.783z" fill="#d80027"/><path d="m256 224.519-90.955-90.953h-31.48v.002l122.433 122.432h.002z" fill="#d80027"/><path d="m289.391 133.565v122.434c0 59.64 77.913 77.914 77.913 77.914s77.913-18.274 77.913-77.914v-122.434z" fill="#338af3"/><path d="m289.391 255.999c0 59.64 77.913 77.914 77.913 77.914s77.913-18.274 77.913-77.914z" fill="#a2001d"/><path d="m400.696 189.219h-22.262v-22.262h-22.261v22.262h-22.26v22.26h22.26v66.782h22.261v-66.782h22.262z"/></svg>