<svg width="16" height="16" fill="none" xmlns="http://www.w3.org/2000/svg"><path d="M15.95 7l-1.52.2a6.44 6.44 0 00-.47-1.74l-.1-.22 1.38-.65a8.33 8.33 0 00-1.57-2.25 7.9 7.9 0 00-1.29-1.04c-.1-.08-.22-.14-.34-.22l-.76 1.33a5.9 5.9 0 00-1.9-.73L9.7.18 9.6.15a8.37 8.37 0 00-3.24.03 7.7 7.7 0 00-2.8 1.18 8.9 8.9 0 00-.55.4l.96 1.2a6.14 6.14 0 00-1.37 1.52l-1.28-.85-.01.01A7.64 7.64 0 000 8c0 .34.03.67.06 1l1.53-.2.09.54c.08.41.21.83.37 1.2l.1.22-1.38.65a8.32 8.32 0 001.57 2.25c.4.39.82.74 1.29 1.04l.34.22.77-1.33a5.74 5.74 0 002 .76l-.1-.03-.33 1.5.12.03a8 8 0 006.56-1.61l-.96-1.2a5.97 5.97 0 001.36-1.51l1.29.84.01-.01a8.2 8.2 0 001.15-2.81A8.01 8.01 0 0015.95 7z" fill="url(#paint0_linear)"/><path d="M8.01 13.82a5.83 5.83 0 100-11.67 5.83 5.83 0 000 11.67z" fill="url(#paint1_linear)"/><path d="M14.7 12.4l-1.28-.85a7.27 7.27 0 01-1.36 1.52l.96 1.2c.22-.2.45-.39.65-.6.38-.39.73-.82 1.03-1.27zM13.95 5.45a6.73 6.73 0 01.46 1.74L15.94 7a7.7 7.7 0 00-.72-2.42l-1.38.66c.05.08.08.15.1.21z" fill="#E9E9E9"/><path d="M9.37 14.75c0-.17.15-.32.33-.32.18 0 .33.15.33.32 0 .18-.15.33-.33.33a.33.33 0 01-.33-.33zM6.08 1.26c0-.18.15-.33.32-.33.18 0 .33.15.33.33 0 .17-.15.33-.33.33a.33.33 0 01-.32-.33zM.86 6.78c0-.18.15-.33.33-.33.17 0 .32.15.32.33 0 .17-.15.32-.32.32a.33.33 0 01-.33-.32zM2.67 12.81c0-.17.15-.32.33-.32.18 0 .33.15.33.32 0 .18-.15.33-.33.33a.33.33 0 01-.33-.33zM14.42 9.6c0-.18.15-.33.33-.33.17 0 .32.15.32.33 0 .18-.15.33-.32.33a.33.33 0 01-.33-.33zM12.8 3.38c0-.18.15-.33.33-.33.18 0 .33.15.33.33 0 .17-.15.32-.33.32a.33.33 0 01-.33-.32z" fill="#fff"/><path d="M2.06 10.54c-.17-.39-.3-.79-.38-1.2l-.09-.53-1.52.18a7.7 7.7 0 00.6 2.15c.03.1.06.19.11.27l1.39-.65-.11-.22zM5.6 14a5.25 5.25 0 01-.85-.4l-.77 1.32a8.23 8.23 0 002.36.9l.33-1.5a7.05 7.05 0 01-1.07-.31zM10.4 2c.3.12.59.25.85.42l.77-1.32A8.22 8.22 0 009.66.19l-.32 1.5c.39.07.74.17 1.07.31zM3.43 3.43c.16-.17.35-.33.53-.48L3 1.75a8.3 8.3 0 00-1.69 1.86l1.29.85c.24-.38.53-.72.83-1.03z" fill="#E9E9E9"/><path d="M12.47 5.01l.4-.26a5.44 5.44 0 00-.74-.88l-.33.32c.26.26.48.53.67.82z" fill="#167DC8"/><path d="M12.95 5.88l.43-.19a5.75 5.75 0 00-.52-.94l-.39.26c.19.28.34.57.48.87z" fill="#3C9BE0"/><path d="M13.26 6.88l.47-.1c-.08-.38-.2-.74-.34-1.1l-.43.2c.13.32.23.66.3 1z" fill="#167DC8"/><path d="M11.8 11.78l.33.33c.3-.3.54-.6.76-.95l-.4-.25c-.18.31-.42.6-.69.87zM3.04 6l-.44-.18c-.14.33-.24.67-.3 1.03l.46.1c.07-.34.17-.65.28-.95z" fill="#3C9BE0"/><path d="M2.78 9.1l-.47.1c.08.37.2.74.34 1.1l.43-.2a6.66 6.66 0 01-.3-1zM2.76 6.94l-.47-.09A5.7 5.7 0 002.18 8h.46c.02-.36.06-.72.12-1.06z" fill="#167DC8"/><path d="M2.66 7.99h-.47c0 .41.04.82.13 1.2l.46-.1a4.43 4.43 0 01-.12-1.1zM3.09 10.1l-.43.2c.14.32.32.64.52.94l.39-.27a5.84 5.84 0 01-.48-.87zM4.23 11.78l-.32.33c.29.29.6.54.93.75l.25-.39c-.31-.2-.6-.43-.86-.7z" fill="#3C9BE0"/><path d="M3.57 10.96l-.4.27c.22.31.46.61.74.88l.32-.33a4.62 4.62 0 01-.66-.82zM5.1 12.48l-.26.4c.31.2.65.39 1.02.52l.18-.44a4.75 4.75 0 01-.95-.48zM3.53 5.06l-.4-.25c-.2.32-.38.66-.52 1.02l.44.18c.13-.34.29-.66.48-.95z" fill="#167DC8"/><path d="M8.01 2.63v-.46c-.41 0-.81.03-1.2.12l.1.47a4.5 4.5 0 011.1-.13zM5.91 3.06l-.19-.42c-.33.13-.64.31-.94.51l.26.38c.28-.18.57-.34.87-.47z" fill="#3C9BE0"/><path d="M6.92 2.75l-.1-.47c-.38.08-.75.2-1.1.34l.19.43c.31-.13.65-.23 1-.3z" fill="#167DC8"/><path d="M4.23 4.2l-.32-.33c-.3.29-.55.6-.76.94l.39.25c.19-.31.43-.6.7-.87z" fill="#3C9BE0"/><path d="M5.04 3.53l-.26-.4c-.32.22-.62.46-.89.74l.33.32a7 7 0 01.82-.66z" fill="#167DC8"/><path d="M13.27 6.88c.08.35.11.73.11 1.1h.47c0-.41-.04-.81-.13-1.2l-.45.1z" fill="#3C9BE0"/><path d="M13.28 9.03l.46.09c.08-.36.12-.76.12-1.15h-.47c-.01.38-.05.72-.11 1.06z" fill="#167DC8"/><path d="M11.8 4.2l.33-.33a5.4 5.4 0 00-.94-.76l-.26.4c.32.2.6.43.87.69zM13 9.98l.43.17c.14-.33.24-.67.3-1.03l-.46-.09c-.05.33-.15.64-.28.95zM6.02 12.96l-.18.44c.33.14.67.24 1.04.3l.09-.46a4.8 4.8 0 01-.95-.28z" fill="#3C9BE0"/><path d="M10.95 3.5l.25-.39a4.9 4.9 0 00-1.02-.53l-.18.44c.34.13.66.3.95.48z" fill="#167DC8"/><path d="M10.02 3.01l.17-.44a4.66 4.66 0 00-1.03-.3l-.09.46c.33.07.64.17.95.28z" fill="#3C9BE0"/><path d="M12.5 10.92l.4.26c.21-.32.39-.66.53-1.02l-.44-.18c-.13.34-.3.64-.48.94z" fill="#167DC8"/><path d="M8.01 13.36v.46c.42 0 .82-.04 1.2-.12l-.1-.47c-.34.09-.72.13-1.1.13z" fill="#3C9BE0"/><path d="M9.07 2.73l.09-.46A5.7 5.7 0 008 2.15v.47c.37.01.72.04 1.06.11zM6.97 13.25l-.09.47c.37.07.76.11 1.15.11v-.48a5.8 5.8 0 01-1.06-.1zM9.12 13.24l.1.47c.38-.08.74-.2 1.1-.34l-.2-.43c-.32.11-.65.22-1 .3z" fill="#167DC8"/><path d="M10.13 12.91l.2.43c.32-.14.63-.31.94-.51l-.27-.4c-.28.2-.56.36-.87.48z" fill="#3C9BE0"/><path d="M11 12.45l.26.39c.32-.22.62-.46.89-.73l-.33-.33c-.25.25-.53.48-.82.67z" fill="#167DC8"/><path d="M11.28 4.79a.31.31 0 00-.32.32c0 .09.04.13.09.22-.55.42-1.14.74-1.78.83-.73-.78-1-1.42-1.05-1.78.13-.05.23-.19.23-.28a.31.31 0 00-.32-.32.31.31 0 00-.32.32c0 .14.09.28.22.28-.09.36-.27.95-.9 1.64l-.15.14a3.57 3.57 0 01-1.78-.83.31.31 0 00-.23-.55.31.31 0 00-.32.33c0 .18.14.32.32.32h.1c.31.64.5 1.37.59 2.14.6-.4 1.46-.68 2.51-.68 1.05 0 1.92.27 2.51.68.1-.77.32-1.5.6-2.14h.09c.18 0 .32-.14.32-.32-.1-.19-.23-.32-.41-.32z" fill="#fff"/><path d="M8.08 6.84c1.05 0 1.92.28 2.52.69-.28-.41-.74-.78-1.33-1.42-.73-.78-1-1.42-1.05-1.78.14-.05.23-.18.23-.28a.31.31 0 00-.32-.32.31.31 0 00-.32.32c0 .14.09.28.23.28-.1.41-.32 1.05-1.05 1.78-.6.6-1.05.96-1.33 1.42.5-.37 1.37-.69 2.42-.69z" fill="#fff"/><path d="M5.52 8.08c-.23.45-.18.77-.18.77 0 .78.6 1.37 1.37 1.37.73 0 1.33-.59 1.37-1.28a2.78 2.78 0 01-1.64 2.38h3.29a2.78 2.78 0 01-1.65-2.38c.05.74.64 1.28 1.37 1.28.78 0 1.37-.59 1.37-1.37 0 0 .05-.36-.18-.77a4.36 4.36 0 00-2.56-.78c-1.05 0-1.92.32-2.56.78z" fill="#fff"/><defs><linearGradient id="paint0_linear" x1="8" y1="0" x2="8" y2="16" gradientUnits="userSpaceOnUse"><stop stop-color="#71C3FF"/><stop offset="1" stop-color="#0C76C2"/></linearGradient><linearGradient id="paint1_linear" x1="8.01" y1="2.15" x2="8.01" y2="13.82" gradientUnits="userSpaceOnUse"><stop stop-color="#71C3FF"/><stop offset="1" stop-color="#0C76C2"/></linearGradient></defs></svg>