<svg width="18" height="12" fill="none" xmlns="http://www.w3.org/2000/svg"><path d="M17.99 7.961a2.228 2.228 0 0 0-.477-1.148 2.62 2.62 0 0 0-.553-.52c-.565-.396-1.294-.604-2.05-.582a.04.04 0 0 0-.006 0l-.169.01c-.413.03-.829.133-1.202.299l-.005.002a4.06 4.06 0 0 0-.186.091c-1.167.601-2.031.846-2.615.938.256-.508.743-1.23 1.675-2.13a4.41 4.41 0 0 0 .144-.144c0-.002.002-.003.003-.004.271-.295.491-.646.638-1.02l.055-.147a.02.02 0 0 0 .002-.005c.322-.95.173-1.984-.39-2.697a2.342 2.342 0 0 0-.688-.589 2.508 2.508 0 0 0-1.558-.292c-.5.066-.99.274-1.414.601a3.284 3.284 0 0 0-.646.665 3.603 3.603 0 0 0-.43.8c-.36.97-.228 2.044.35 2.776a2.417 2.417 0 0 0 .543.505l-.837 1.847-6.36 1.068-.07.01c-.143.02-.292.04-.442.094-.557.202-.876.68-1.045 1.046a2.32 2.32 0 0 0-.168.47l-.084.367a.18.18 0 0 0 .046.165.201.201 0 0 0 .169.059l6.928-.828L6.131 12h2.46l1.33-2.67 2.024-.242c.081.225.199.436.351.629.551.698 1.531 1.123 2.558 1.107 1.18-.018 2.252-.578 2.798-1.46a2.25 2.25 0 0 0 .337-1.403zM9.936 4.155a.865.865 0 0 1-.21-.192c-.253-.32-.27-.781-.202-1.107.096-.453.359-.86.722-1.117.336-.237.718-.304 1.02-.18h.002a.81.81 0 0 1 .33.25c.19.243.276.629.222 1.007a1.83 1.83 0 0 1-.761 1.24c-.287.194-.752.337-1.123.1zm6.483 4.106a.918.918 0 0 1-.23.493c-.288.334-.778.546-1.31.569-.43.018-1.003-.104-1.316-.5a.91.91 0 0 1-.032-.043c-.205-.291-.174-.676.08-.981.248-.3.66-.508 1.132-.57l.054-.007c.442-.046 1.043.043 1.407.433a.754.754 0 0 1 .215.606z" fill="#008BE2"/></svg>