<?xml version="1.0" encoding="UTF-8"?>
<svg width="266px" height="347px" viewBox="0 0 266 347" version="1.1" xmlns="http://www.w3.org/2000/svg" xmlns:xlink="http://www.w3.org/1999/xlink">
    <!-- Generator: Sketch 53.2 (72643) - https://sketchapp.com -->
    <title>404</title>
    <desc>Created with Sketch.</desc>
    <g id="404" stroke="none" stroke-width="1" fill="none" fill-rule="evenodd">
        <g id="WPD-1440x-(1400w)-404" transform="translate(-592.000000, -120.000000)" fill-rule="nonzero">
            <g id="404" transform="translate(591.000000, 120.000000)">
                <path d="M21.3464833,73.005644 L91.5649142,73.0320966 C95.5672097,73.0333461 98.8113995,76.2775347 98.8126505,80.2798301 L98.857898,196.055614 C98.8591496,200.059678 95.6142288,203.306628 91.6101645,203.30788 C91.6086547,203.30788 91.6071448,203.30788 91.605635,203.30788 L21.3872055,203.276899 C17.38491,203.27565 14.1407203,200.031461 14.1394693,196.029166 L14.0942217,80.2533817 C14.0929702,76.2493175 17.337891,73.0023675 21.3419552,73.0011159 C21.3434651,73.0011154 21.3449749,73.0011154 21.3464848,73.0011159 Z" id="Rectangle" stroke="#E4E3D2" fill="#FFFFFF" transform="translate(56.476060, 138.154498) rotate(-13.560000) translate(-56.476060, -138.154498) "></path>
                <path d="M11.8045455,96 L11.3378788,94.2575211 L7.31818182,95.143201 L7,94.055355 L9.19545455,88.4043321 L11.2424242,88 L12.5151515,92.8134777 L13.6818182,92.4861613 L14,93.6799037 L12.8651515,93.9302046 L13.2893939,95.7015644 L11.8045455,96 Z M10.0757576,89.5018051 L8.43181818,93.631769 L11.019697,93.0637786 L10.0757576,89.5018051 Z" id="Shape" fill="#B5292A"></path>
                <polygon id="Path" fill="#B5292A" points="15.1546392 108 11 104.174757 12.8453608 99 17 102.815534"></polygon>
                <path d="M102.173516,180 L102.631659,181.738295 L106.701674,180.854742 L107,181.939976 L104.794521,187.567827 L102.727549,188 L101.449011,183.198079 L100.319635,183.447779 L100,182.256903 L101.14003,182.007203 L100.671233,180.316927 L102.173516,180 Z M103.899543,186.482593 L105.550989,182.362545 L102.951294,182.929172 L103.899543,186.482593 Z" id="Shape" fill="#B5292A"></path>
                <polygon id="Path" fill="#B5292A" points="98.848537 168 103 171.815534 101.16179 177 97 173.184466"></polygon>
                <path d="M62.0672693,157 L59.8646637,147.770238 L38.7883542,152.897883 L37,145.39101 L47.9220952,113.168885 L60.8750332,110 L67.3110875,137.09448 L72.9792608,135.730526 L75,144.109099 L69.3116193,145.503818 L71.5142249,154.733581 L62.0672693,157 Z M53.4791279,120.716779 L46.0124967,142.252891 L57.9146504,139.340388 L53.4791279,120.716779 Z" id="Shape" fill="#B5292A"></path>
                <path d="M95.2935186,49.9408222 L165.516869,49.927888 C169.520934,49.9272768 172.767365,53.1727168 172.767976,57.1767812 C172.767976,57.1775195 172.767976,57.1782578 172.767976,57.1789961 L172.74585,172.947208 C172.745238,176.950408 169.500157,180.195489 165.496957,180.1961 L95.2736068,180.211249 C91.2695424,180.21186 88.0231114,176.96642 88.0225002,172.962356 C88.0225001,172.961618 88.0225001,172.960879 88.0225002,172.960141 L88.0446257,57.1919292 C88.0452376,53.1887297 91.2903195,49.9436486 95.2935189,49.9430375 Z" id="Rectangle" stroke="#E4E3D2" fill="#FFFFFF" transform="translate(130.395238, 115.069569) rotate(6.440000) translate(-130.395238, -115.069569) "></path>
                <path d="M160.567568,164 C160.766192,162.506625 161.666563,161.190963 163,160.445623 L159,160 C160.134251,161.017295 160.714896,162.498942 160.567568,164 L160.567568,164 Z" id="Path" fill="#2A2828"></path>
                <path d="M157.038277,163.018384 C157.289981,164.623134 159.733602,166.434631 159.911892,168 L159.911892,168 C160.45725,166.513391 163.267939,165.25322 163.88671,163.737076 C164.109649,163.179582 163.998822,162.552787 163.595977,162.092798 C163.193131,161.632809 162.559469,161.40951 161.933685,161.507015 C161.3079,161.60452 160.785065,162.008016 160.562126,162.56551 L160.562126,162.56551 C160.518991,161.94033 160.107526,161.390113 159.495814,161.139622 C158.884103,160.889132 158.174585,160.980317 157.657101,161.375928 C157.139617,161.771539 156.900827,162.405326 157.038277,163.018384 Z" id="Path" fill="#2A2828"></path>
                <path d="M160.727011,173.23918 L161.893678,170.676538 L163,170.799544 L159.228448,179 L157.931034,178.856492 L156,170 L157.156609,170.133257 L157.75,172.900911 L160.727011,173.23918 Z M157.900862,173.78246 L158.443966,176.324601 C158.560457,176.852217 158.647759,177.386088 158.70546,177.92369 L158.70546,177.92369 C158.886494,177.431663 159.077586,176.898633 159.298851,176.437358 L160.385057,174.069476 L157.900862,173.78246 Z" id="Shape" fill="#000000"></path>
                <path d="M100.439024,68 C100.235029,69.4915874 99.3335317,70.8053346 98,71.5543767 L102,72 C100.862302,70.9835573 100.283345,69.4999817 100.439024,68 L100.439024,68 Z" id="Path" fill="#2A2828"></path>
                <path d="M103.960838,67.9816438 C103.709183,66.3800502 101.276519,64.5622906 101.098263,63 L101.098263,63 C100.553011,64.4836848 97.7428635,65.7413779 97.1137261,67.2545399 C96.7691586,68.1146559 97.2339214,69.0736658 98.1518029,69.3965485 C99.0696843,69.7194312 100.093101,69.2839175 100.437669,68.4238015 L100.437669,68.4238015 C100.475424,69.0501976 100.884575,69.6039434 101.496993,69.8574962 C102.109412,70.1110489 102.821806,70.0216435 103.341442,69.6260179 C103.861078,69.2303923 104.100311,68.5952743 103.960838,67.9816438 Z" id="Path" fill="#2A2828"></path>
                <path d="M99.0428289,55.0979644 C99.2856685,52.9179576 100.584332,50.7485333 103.002169,51.0236798 C105.420006,51.2988263 106.169641,53.7010669 105.969035,55.8810737 C105.768428,58.0610805 104.416973,60.25167 102.030811,59.9765235 C99.6446487,59.701377 98.7894312,57.2885539 99.0428289,55.0979644 Z M104.416973,55.7117528 C104.607022,54.0608738 104.269158,52.5369855 102.854354,52.3782472 C101.43955,52.2195088 100.742706,53.6269889 100.584332,55.2778679 C100.425958,56.9287469 100.732147,58.4526352 102.146952,58.6219561 C103.561756,58.791277 104.237483,57.3626318 104.416973,55.7117528 Z" id="Shape" fill="#2A2828"></path>
                <path d="M112.248305,108.200363 C113.641744,96.5400026 120.822529,85.569724 133.800832,87.152854 C146.779136,88.7359839 151.152702,101.045834 149.749092,112.706195 C148.345482,124.366556 141.103671,135.397724 128.196565,133.855187 C115.289459,132.31265 110.844696,119.860724 112.248305,108.200363 Z M139.903483,111.508699 C140.920591,103.17697 139.22202,96.4385199 132.783724,95.6672515 C126.345428,94.895983 123.039825,101.035686 122.043059,109.377563 C121.046293,117.71944 122.70418,124.51878 129.234016,125.300196 C135.763852,126.081613 138.896545,119.840428 139.903483,111.508699 Z" id="Shape" fill="#2A2828"></path>
                <path d="M167.852968,73.011882 L238.058757,72.9762811 C242.062821,72.9742506 245.310402,76.2185398 245.312432,80.2226037 C245.312433,80.2250558 245.312433,80.2275079 245.312432,80.2299599 L245.253659,196.025198 C245.251628,200.026389 242.008528,203.269488 238.007336,203.271517 L167.801548,203.307118 C163.797484,203.309148 160.549903,200.064859 160.547872,196.060795 C160.547871,196.058343 160.547871,196.055891 160.547872,196.053439 L160.606646,80.2582012 C160.608676,76.2570098 163.851777,73.0139109 167.852968,73.011882 Z" id="Rectangle" stroke="#E4E3D2" fill="#FFFFFF" transform="translate(202.930152, 138.141699) rotate(23.880000) translate(-202.930152, -138.141699) "></path>
                <path d="M193.022697,76.4436451 L193.834446,74.8033573 L190,73.2781775 L190.502003,72.2613909 L196.066756,69 L198,69.7673861 L195.799733,74.2470024 L196.867824,74.6786571 L196.323097,75.7913669 L195.255007,75.3597122 L194.453939,77 L193.022697,76.4436451 Z M196.034713,70.3429257 L191.933244,72.7122302 L194.379172,73.6714628 L196.034713,70.3429257 Z" id="Shape" fill="#B5292A"></path>
                <path d="M189.630799,82.5705577 L189.630799,82.5705577 C189.977517,80.1355979 186.866685,78.6020914 186.067307,81.8556121 C185.653171,83.5549032 187.28082,86.4664934 187.396393,88 L187.396393,88 C188.523227,87.0571007 191.624429,86.3939627 192.520117,84.8915407 C194.195922,82.0939273 191.056196,80.643313 189.630799,82.5705577 Z" id="Path" fill="#B5292A"></path>
                <path d="M212.970667,199.565269 L212.16,201.203593 L216,202.726946 L215.498667,203.742515 L209.941333,207 L208,206.223952 L210.208,201.749701 L209.141333,201.328144 L209.696,200.207186 L210.762667,200.638323 L211.573333,199 L212.970667,199.565269 Z M209.973333,205.649102 L214.058667,203.292216 L211.616,202.334132 L209.973333,205.649102 Z" id="Shape" fill="#B5292A"></path>
                <path d="M216.377426,194.42257 L216.377426,194.42257 C216.021193,196.869466 219.140639,198.393591 219.930128,195.148344 C220.353757,193.447959 218.717011,190.534494 218.611103,189 L218.611103,189 C217.475009,189.933138 214.374819,190.596703 213.489051,192.110461 C211.794537,194.889139 214.933238,196.351055 216.377426,194.42257 Z" id="Path" fill="#B5292A"></path>
                <path d="M199.024186,155.969978 L202.973953,147.402376 L183,138.347516 L186.202791,131.393952 L214.72093,113 L227,118.562851 L215.447442,143.666739 L220.84,146.103024 L217.258605,153.868683 L211.876279,151.432397 L207.926512,160 L199.024186,155.969978 Z M214.495814,122.369546 L195.27907,134.550972 L206.534884,139.626566 L214.495814,122.369546 Z" id="Shape" fill="#B5292A"></path>
                <ellipse id="Oval" fill="#000000" opacity="0.2" cx="126.5" cy="325" rx="70.5" ry="22"></ellipse>
                <path d="M72,231 L72,320.165065 C72,329.46349 96.1751327,337 126,337 C155.824867,337 180,329.46349 180,320.165065 L180,231 L72,231 Z" id="Path" fill="#424242"></path>
                <path d="M72,272.208661 C72,281.465165 96.1751327,289 126,289 C155.824867,289 180,281.505675 180,272.249171 L180,231 L72,231 L72,272.208661 Z" id="Path" fill="#656565"></path>
                <ellipse id="Oval" fill="#292929" cx="126.5" cy="236.5" rx="88.5" ry="27.5"></ellipse>
                <ellipse id="Oval" fill="#424242" cx="126.5" cy="230.5" rx="88.5" ry="27.5"></ellipse>
                <ellipse id="Oval" fill="#292929" cx="126" cy="231" rx="54" ry="17"></ellipse>
                <path d="M176.19678,240.801271 C175.514151,240.088498 176.664869,237.60975 178.761516,235.194833 C180.858162,232.779915 183.120591,231.48203 183.80322,232.194803 C184.485849,232.907576 183.335131,235.386324 181.238484,237.801241 C179.141838,240.216159 176.879409,241.524683 176.19678,240.801271 Z" id="Path" fill="#424242"></path>
                <polygon id="Rectangle" fill="#424242" transform="translate(213.734836, 269.017181) rotate(133.990000) translate(-213.734836, -269.017181) " points="207.990864 237.482649 219.435623 237.490487 219.478809 300.551714 208.034049 300.543876"></polygon>
                <path d="M176.19678,240.801271 C175.514151,240.088498 176.664869,237.60975 178.761516,235.194833 C180.858162,232.779915 183.120591,231.48203 183.80322,232.194803 C184.485849,232.907576 183.335131,235.386324 181.238484,237.801241 C179.141838,240.216159 176.879409,241.524683 176.19678,240.801271 Z" id="Path" fill="#656565"></path>
                <path d="M232.196471,294.805197 C231.514661,294.081786 232.663999,291.613676 234.767871,289.198759 C236.871743,286.783841 239.121718,285.475317 239.803529,286.198729 C240.485339,286.92214 239.336001,289.39025 237.232129,291.805167 C235.128257,294.220085 232.878282,295.51797 232.196471,294.805197 Z" id="Path" fill="#292929"></path>
                <path d="M232.196471,294.805197 C231.514661,294.081786 232.663999,291.613676 234.767871,289.198759 C236.871743,286.783841 239.121718,285.475317 239.803529,286.198729 C240.485339,286.92214 239.336001,289.39025 237.232129,291.805167 C235.128257,294.220085 232.878282,295.51797 232.196471,294.805197 Z" id="Path" fill="#292929"></path>
                <path d="M176,240.41513 L189.954993,254 C189.233005,253.303073 190.45007,250.879433 192.667604,248.528605 C194.885138,246.177778 197.278012,244.887943 198,245.595272 L198,245.595272 L184.045007,232 L176,240.41513 Z" id="Path" fill="#656565"></path>
                <polygon id="Path" fill="#FFFFFF" points="51.232 32 49 9.58480794 64.7577143 8 65.1691429 12.2054381 54.1531429 13.3552007 54.6262857 18.0992663 65.4057143 17.011653 65.8274286 21.2067328 55.0582857 22.2529132 55.5622857 27.3388002 66.5782857 26.2201122 67 30.4255503"></polygon>
                <path d="M95.5616013,22.61 L91.7808257,14.61 L88.3176763,14.37 L87.733654,22.08 L83,21.74 L84.6393607,0 L95.0390551,0.75 C99.6702491,1.09 102.28298,4.25 101.9756,8.29 C101.938581,11.3160547 99.6855446,13.8814863 96.6271858,14.38 L101.00223,23 L95.5616013,22.61 Z M97.139486,7.9 C97.1874452,7.07532723 96.8848977,6.26784169 96.3031684,5.6679064 C95.7214391,5.06797112 94.9120037,4.72867268 94.0656847,4.73 L89.0963726,4.37 L88.6557944,10.23 L93.6148605,10.59 C95.4898793,10.76 97.006288,9.76 97.139486,7.9 Z" id="Shape" fill="#FFFFFF"></path>
                <path d="M129.586923,34.753701 L124.5185,27.3974975 L121.092245,27.7318704 L121.872783,35.5339045 L117.199696,36 L115,14.0631119 L125.268626,13.0498607 C129.840345,12.5938977 132.94222,15.3094109 133.378104,19.3826806 C133.877103,22.4126129 132.129568,25.3637884 129.232134,26.3842463 L135,34.2369429 L129.586923,34.753701 Z M128.573239,19.8386437 C128.472926,19.0020736 128.029741,18.2446479 127.349459,17.7471396 C126.669176,17.2496314 125.812827,17.0566751 124.984795,17.2143231 L120.078561,17.7006837 L120.676635,23.6282031 L125.572732,23.13171 C126.416322,23.1205943 127.217381,22.7596836 127.784412,22.1352559 C128.351443,21.5108281 128.63348,20.6790067 128.563102,19.8386437 L128.573239,19.8386437 Z" id="Shape" fill="#FFFFFF"></path>
                <path d="M146.025358,11.0931623 C146.038714,7.99772382 147.32515,5.04742769 149.576316,2.94944159 C151.827481,0.851455493 154.840438,-0.205090081 157.892997,0.0330522904 C164.543315,0.277925575 169.195511,5.24681264 168.99368,11.9400158 C168.791849,18.6332189 163.695627,23.2449991 157.025125,22.9899227 C153.97185,22.9913651 151.054833,21.7119703 148.969755,19.4568623 C146.884678,17.2017543 145.81845,14.1730842 146.025358,11.0931623 L146.025358,11.0931623 Z M164.190112,11.7665638 C164.341485,7.61392106 161.828694,4.38975614 157.78199,4.23671034 C153.735287,4.08366454 150.970207,7.11397143 150.828926,11.2564112 C150.687645,15.3988509 153.160069,18.6434219 157.206773,18.7964677 C161.253476,18.9495135 163.998373,15.8885975 164.149746,11.7665638 L164.190112,11.7665638 Z" id="Shape" fill="#FFFFFF"></path>
                <path d="M199.152513,28.4 L195.801124,20.0711864 L192.449736,19.6745763 L191.584541,27.4847458 L187,26.9559322 L189.456359,5 L199.510525,6.16949153 C203.995618,6.69830508 206.402253,10.0135593 205.944793,14.1016949 C205.780804,17.1744804 203.490865,19.6874023 200.505002,20.0711864 L204.413298,29 L199.152513,28.4 Z M201.27075,13.5525424 C201.348167,12.7110151 201.080708,11.8743578 200.532153,11.2420839 C199.983599,10.6098101 199.203115,10.2385909 198.376821,10.2169492 L193.573495,9.65762712 L192.907195,15.5864407 L197.710521,16.1457627 C198.522705,16.3168377 199.367875,16.1345278 200.043289,15.6425665 C200.718702,15.1506052 201.163415,14.3933817 201.27075,13.5525424 L201.27075,13.5525424 Z" id="Shape" fill="#FFFFFF"></path>
            </g>
        </g>
    </g>
</svg>