<svg width="47" height="50" fill="none" xmlns="http://www.w3.org/2000/svg"><g fill="#ffffff"><path d="M44.903 7.094a2.099 2.099 0 0 0-1.156.342 2.123 2.123 0 0 0-.781.924 2.142 2.142 0 0 0 .373 2.297 25.016 25.016 0 0 1-11.983 5.555c-4.987-5.092-6.618-9.393-7.117-12.077a2.121 2.121 0 0 0 1.104-.94 2.147 2.147 0 0 0-.477-2.697 2.107 2.107 0 0 0-2.718 0 2.148 2.148 0 0 0-.478 2.697c.247.434.638.767 1.104.94-.466 2.496-1.917 6.414-6.15 11.057-.32.35-.633.671-.973 1.033A25.01 25.01 0 0 1 3.668 10.67c.362-.389.565-.902.566-1.436 0-.422-.124-.834-.357-1.185a2.12 2.12 0 0 0-.95-.786 2.102 2.102 0 0 0-2.307.463 2.139 2.139 0 0 0-.459 2.325c.16.39.432.723.78.957.348.235.757.36 1.176.36.208-.005.415-.04.612-.107a47.51 47.51 0 0 1 3.995 14.411c3.92-2.684 9.646-4.65 16.75-4.65 7.103 0 12.828 2.013 16.749 4.65a47.551 47.551 0 0 1 3.994-14.418c.214.075.44.113.666.114.561 0 1.1-.225 1.497-.625a2.142 2.142 0 0 0 0-3.017 2.109 2.109 0 0 0-1.497-.625l.02-.007z"/><path d="M6.442 28.262a11.479 11.479 0 0 0-1.212 5.287 9.246 9.246 0 0 0 2.498 6.58 9.102 9.102 0 0 0 6.383 2.873 9.095 9.095 0 0 0 6.529-2.517 9.238 9.238 0 0 0 2.85-6.433 18.479 18.479 0 0 1-3.207 9.542A18.273 18.273 0 0 1 12.566 50h21.896a18.253 18.253 0 0 1-7.713-6.392 18.458 18.458 0 0 1-3.212-9.53 9.238 9.238 0 0 0 2.86 6.43 9.095 9.095 0 0 0 6.534 2.507 9.102 9.102 0 0 0 6.379-2.882 9.246 9.246 0 0 0 2.488-6.584 11.534 11.534 0 0 0-1.212-5.307c-4.147-2.993-9.985-5.146-17.075-5.146s-12.922 2.18-17.07 5.166z"/></g></svg>