<svg width="444" height="225" fill="none" xmlns="http://www.w3.org/2000/svg"><path d="M444 0l-63.218 35.23-146.765 81.965c-7.357 4.313-17.549 4.313-24.96.042L62.891 35.696 0 .634v210.071c0 4.314 2.343 7.866 6.05 10.742C9.754 223.604 14.387 225 19.02 225l406.559-.592c5.559 0 9.211-1.438 12.917-3.595 3.706-2.876 5.504-6.471 5.504-10.743V0z" fill="#52566A"/><path d="M235.314 117.613c-7.401 4.296-17.652 4.296-25.108.042l-25.875-14.276L6 221.463C9.728 223.61 14.387 225 19.047 225l408.961-.59c5.591 0 9.264-1.431 12.992-3.579L261.737 103l-26.423 14.613z" fill="url(#paint0_radial)"/><path d="M235.314 117.613c-7.401 4.296-17.652 4.296-25.108.042l-25.875-14.276L6 221.463C9.728 223.61 14.387 225 19.047 225l408.961-.59c5.591 0 9.264-1.431 12.992-3.579L261.737 103l-26.423 14.613z" fill="#2E3141"/><defs><radialGradient id="paint0_radial" cx="0" cy="0" r="1" gradientUnits="userSpaceOnUse" gradientTransform="rotate(154.86 156.419 80.572) scale(391.154 701.966)"><stop offset=".057" stop-color="#3A3E51"/><stop offset="1" stop-color="#1D1F2C"/></radialGradient></defs></svg>