<svg width="32" height="32" viewBox="0 0 32 32" fill="none" xmlns="http://www.w3.org/2000/svg">
<rect width="32" height="32" rx="4" fill="#E5E5E5"/>
<path d="M16.0003 4.01157C11.0851 4.01157 6.41766 3.57468 4.63487 8.14647C3.89848 10.0347 4.00542 12.487 4.00542 15.9983C4.00542 19.0795 3.9066 21.9755 4.63487 23.8488C6.4136 28.4233 11.119 27.9851 15.9976 27.9851C20.7043 27.9851 25.5572 28.4747 27.3617 23.8488C28.0994 21.9416 27.9911 19.5259 27.9911 15.9983C27.9911 11.3156 28.2497 8.29255 25.9769 6.02288C23.6756 3.72346 20.5635 4.01157 15.9949 4.01157H16.0003ZM14.9255 6.17167C25.1782 6.15544 26.4831 5.01655 25.763 20.8379C25.5071 26.4336 21.2431 25.8195 16.0016 25.8195C6.44473 25.8195 6.16994 25.5463 6.16994 15.9929C6.16994 6.32857 6.92799 6.17708 14.9255 6.16897V6.17167ZM22.4032 8.16135C21.6086 8.16135 20.9642 8.80518 20.9642 9.59916C20.9642 10.3931 21.6086 11.037 22.4032 11.037C23.1978 11.037 23.8421 10.3931 23.8421 9.59916C23.8421 8.80518 23.1978 8.16135 22.4032 8.16135V8.16135ZM16.0003 9.84263C12.5985 9.84263 9.84109 12.5992 9.84109 15.9983C9.84109 19.3974 12.5985 22.1526 16.0003 22.1526C19.4021 22.1526 22.1581 19.3974 22.1581 15.9983C22.1581 12.5992 19.4021 9.84263 16.0003 9.84263V9.84263ZM16.0003 12.0027C21.2864 12.0027 21.2932 19.9939 16.0003 19.9939C10.7156 19.9939 10.7074 12.0027 16.0003 12.0027Z" fill="#2B2E3B"/>
</svg>
