<svg width="18" height="16" fill="none" xmlns="http://www.w3.org/2000/svg"><path d="M0 5.715v9.142C0 15.488.504 16 1.125 16H4.5V4.572H1.125C.504 4.572 0 5.084 0 5.715zm15.922-.001H12.6a.552.552 0 0 1-.485-.282.57.57 0 0 1-.007-.567l1.172-2.143c.257-.47.283-1.021.073-1.514a1.681 1.681 0 0 0-1.14-.981l-.826-.21a.556.556 0 0 0-.554.172L6.346 5.251a2.881 2.881 0 0 0-.721 1.911v5.98c0 1.575 1.262 2.857 2.813 2.857h5.595c1.264 0 2.38-.865 2.713-2.102l1.2-5.598A2.11 2.11 0 0 0 18 7.824c0-1.163-.932-2.11-2.078-2.11z" fill="#55BF4F"/></svg>