<svg fill="none" height="18" width="54" xmlns="http://www.w3.org/2000/svg"><path clip-rule="evenodd" d="m42.219 5.925-6.219.95 4.5 4.613-1.062 6.512 5.562-3.075 5.562 3.075-1.062-6.512 4.5-4.613-6.219-.95-2.781-5.925z" fill="#70ac30" fill-rule="evenodd"/><path d="m24.37 6.914.527-.08.227-.484 1.876-3.996 1.876 3.996.227.483.527.08 4.295.657-3.14 3.22-.353.36.081.498.73 4.48-3.76-2.078-.483-.267-.484.267-3.76 2.078.731-4.48.081-.498-.352-.36-3.141-3.22z" stroke="#ccc" stroke-width="2"/><path clip-rule="evenodd" d="m6.219 5.925-6.219.95 4.5 4.613-1.062 6.512 5.562-3.075 5.562 3.075-1.062-6.512 4.5-4.613-6.219-.95-2.781-5.925z" fill="#ccc" fill-rule="evenodd"/></svg>