<svg width="32" height="32" fill="none" xmlns="http://www.w3.org/2000/svg"><g opacity=".2" fill="#fff"><path d="M6.838 5.359H.941A.95.95 0 0 1 0 4.399c0-.53.421-.96.941-.96h5.897c.52 0 .941.43.941.96a.95.95 0 0 1-.941.96z"/><path d="M10.207 8.796c-2.377 0-4.31-1.973-4.31-4.397C5.896 1.973 7.83 0 10.206 0s4.311 1.972 4.311 4.398c0 2.424-1.934 4.397-4.31 4.397zm0-6.875c-1.339 0-2.428 1.112-2.428 2.478s1.09 2.477 2.428 2.477c1.34 0 2.429-1.111 2.429-2.477 0-1.366-1.09-2.478-2.429-2.478zm20.849 3.438H16.99a.95.95 0 0 1-.941-.96c0-.53.421-.96.941-.96h14.066c.52 0 .941.43.941.96a.95.95 0 0 1-.941.96zm-8.213 15.039c-2.377 0-4.31-1.973-4.31-4.398s1.933-4.397 4.31-4.397 4.31 1.973 4.31 4.397c0 2.425-1.933 4.398-4.31 4.398zm0-6.875c-1.34 0-2.428 1.111-2.428 2.477 0 1.366 1.089 2.477 2.428 2.477 1.34 0 2.429-1.11 2.429-2.477 0-1.366-1.09-2.477-2.429-2.477zM16.06 16.96H.941A.95.95 0 0 1 0 16c0-.53.421-.96.941-.96h15.12c.52 0 .94.43.94.96a.95.95 0 0 1-.94.96z"/><path d="M31.058 16.96h-4.844a.95.95 0 0 1-.941-.96c0-.53.42-.96.94-.96h4.845c.52 0 .94.43.94.96a.95.95 0 0 1-.94.96zM9.155 32c-2.378 0-4.311-1.973-4.311-4.398s1.933-4.398 4.31-4.398c2.378 0 4.311 1.973 4.311 4.398s-1.933 4.397-4.31 4.397zm0-6.876c-1.34 0-2.429 1.111-2.429 2.478 0 1.366 1.09 2.477 2.429 2.477 1.339 0 2.428-1.111 2.428-2.477 0-1.367-1.09-2.478-2.428-2.478zm21.902 3.438H15.94a.95.95 0 0 1-.941-.96c0-.53.421-.96.941-.96h15.12c.52 0 .94.43.94.96a.95.95 0 0 1-.94.96z"/><path d="M5.785 28.562H.941a.95.95 0 0 1-.941-.96c0-.53.421-.96.941-.96h4.844c.52 0 .941.43.941.96a.95.95 0 0 1-.941.96z"/></g></svg>