<svg width="80" height="80" fill="none" xmlns="http://www.w3.org/2000/svg"><path d="M15.484 43.871H7.742v-2.58h7.742v2.58zm36.129-2.58H18.065v2.58h33.548v-2.58zm0 5.16H7.742v2.581h43.87v-2.58zM58.065 80H0V10.323h7.742V5.16h12.331C21.4 2.128 24.427 0 27.945 0h3.467c3.517 0 6.544 2.128 7.87 5.161h12.33v5.162h7.743v41.356c3.69.334 6.968 2.09 9.3 4.71l9.068-10.767 1.974 1.662-9.47 11.245a14.086 14.086 0 0 1 2.031 7.277C72.258 73.632 65.89 80 58.065 80zm0-25.806c-6.403 0-11.613 5.21-11.613 11.612 0 6.403 5.21 11.613 11.613 11.613 6.402 0 11.612-5.21 11.612-11.613 0-1.858-.449-3.609-1.228-5.167L58.146 72.874 50.7 65.427l1.824-1.824 5.458 5.456 8.996-10.683a11.594 11.594 0 0 0-8.914-4.182zM37.39 14.755a7.741 7.741 0 0 1-3.361 5.834l.49 1.47 2.703.387c3.79.541 6.648 3.837 6.648 7.664v6.018h5.161V7.742h-9.075a8.529 8.529 0 0 1-2.474 6.921l-.092.093zm-6.703 13.885l-1.01-1.01-1.01 1.01.517 1.036h.985l.518-1.036zm4.32-3.903l-1.154-.165-2.152 1.435 1.59 1.59 1.716-2.86zm-.17-10.547v-1.752c0-.613-.435-1.146-1.037-1.266l-1.846-.37a4.42 4.42 0 0 1-2.278-1.228 4.419 4.419 0 0 1-2.277 1.229l-1.846.369a1.294 1.294 0 0 0-1.038 1.266v1.752a5.17 5.17 0 0 0 5.161 5.164 5.17 5.17 0 0 0 5.162-5.164zm-7.152 7.475l-.344 1.033 2.335 1.556 2.336-1.557-.345-1.034c-.636.172-1.3.271-1.988.271h-.005a7.67 7.67 0 0 1-1.989-.27zm-3.339 3.072l1.715 2.86 1.59-1.59-2.153-1.435-1.152.165zm-6.283 5.373v6.018h7.975l.996-4.98-.292-.584-1.193 1.194-3.928-6.549c-2.079.685-3.558 2.654-3.558 4.901zm10.607 6.018h2.014l-.774-3.87h-.465l-.775 3.87zm12.62 0v-6.018c0-2.248-1.48-4.216-3.558-4.9l-3.928 6.548-1.193-1.194-.292.583.996 4.981h7.974zM21.935 8.589c0 .75.148 1.473.409 2.152a3.866 3.866 0 0 1 2.703-2.098l1.846-.37a1.864 1.864 0 0 0 1.493-1.821v-1.29h2.58v1.29c0 .882.63 1.647 1.494 1.822l1.846.369a3.869 3.869 0 0 1 2.703 2.098c.261-.68.41-1.403.41-2.151a6.016 6.016 0 0 0-6.01-6.01h-3.467a6.015 6.015 0 0 0-6.008 6.01zM10.323 36.13h5.16v-6.018c0-3.827 2.859-7.123 6.647-7.663l2.704-.386.49-1.471a7.747 7.747 0 0 1-3.361-5.834l-.093-.092a8.54 8.54 0 0 1-2.473-6.923h-9.074v28.387zm39.606 41.29a14.232 14.232 0 0 1-5.508-7.742H38.71v-2.58h5.227a14.21 14.21 0 0 1-.066-1.29c0-.437.027-.865.066-1.29H38.71v-2.581h5.71c.256-.901.598-1.763 1.017-2.581H38.71v-2.58h8.414a14.328 14.328 0 0 1 2.805-2.581h-11.22v-2.581h12.904v1.566a14.09 14.09 0 0 1 5.161-1.502V12.903h-5.161V38.71H7.742V12.903H2.58V77.42h47.348zM7.742 51.613h7.742v7.742H7.742v-7.742zm2.58 5.161h2.581v-2.58h-2.58v2.58zm15.484-5.161h-7.742v2.58h7.742v-2.58zm0 5.161h-7.742v2.58h7.742v-2.58zM7.742 61.935h7.742v7.742H7.742v-7.742zm2.58 5.162h2.581v-2.58h-2.58v2.58zm15.484-5.161h-7.742v2.58h7.742v-2.58zm-7.742 7.741h7.742v-2.58h-7.742v2.58zm10.323-18.064h7.742v7.742h-7.742v-7.742zm2.58 5.161h2.581v-2.58h-2.58v2.58zm-2.58 5.161h7.742v7.742h-7.742v-7.742zm2.58 5.162h2.581v-2.58h-2.58v2.58zM7.743 74.839h7.742v-2.58H7.742v2.58zm10.322 0H36.13v-2.58H18.065v2.58z" fill="url(#paint0_linear)"/><path d="M15.484 43.871H7.742v-2.58h7.742v2.58zm36.129-2.58H18.065v2.58h33.548v-2.58zm0 5.16H7.742v2.581h43.87v-2.58zM58.065 80H0V10.323h7.742V5.16h12.331C21.4 2.128 24.427 0 27.945 0h3.467c3.517 0 6.544 2.128 7.87 5.161h12.33v5.162h7.743v41.356c3.69.334 6.968 2.09 9.3 4.71l9.068-10.767 1.974 1.662-9.47 11.245a14.086 14.086 0 0 1 2.031 7.277C72.258 73.632 65.89 80 58.065 80zm0-25.806c-6.403 0-11.613 5.21-11.613 11.612 0 6.403 5.21 11.613 11.613 11.613 6.402 0 11.612-5.21 11.612-11.613 0-1.858-.449-3.609-1.228-5.167L58.146 72.874 50.7 65.427l1.824-1.824 5.458 5.456 8.996-10.683a11.594 11.594 0 0 0-8.914-4.182zM37.39 14.755a7.741 7.741 0 0 1-3.361 5.834l.49 1.47 2.703.387c3.79.541 6.648 3.837 6.648 7.664v6.018h5.161V7.742h-9.075a8.529 8.529 0 0 1-2.474 6.921l-.092.093zm-6.703 13.885l-1.01-1.01-1.01 1.01.517 1.036h.985l.518-1.036zm4.32-3.903l-1.154-.165-2.152 1.435 1.59 1.59 1.716-2.86zm-.17-10.547v-1.752c0-.613-.435-1.146-1.037-1.266l-1.846-.37a4.42 4.42 0 0 1-2.278-1.228 4.419 4.419 0 0 1-2.277 1.229l-1.846.369a1.294 1.294 0 0 0-1.038 1.266v1.752a5.17 5.17 0 0 0 5.161 5.164 5.17 5.17 0 0 0 5.162-5.164zm-7.152 7.475l-.344 1.033 2.335 1.556 2.336-1.557-.345-1.034c-.636.172-1.3.271-1.988.271h-.005a7.67 7.67 0 0 1-1.989-.27zm-3.339 3.072l1.715 2.86 1.59-1.59-2.153-1.435-1.152.165zm-6.283 5.373v6.018h7.975l.996-4.98-.292-.584-1.193 1.194-3.928-6.549c-2.079.685-3.558 2.654-3.558 4.901zm10.607 6.018h2.014l-.774-3.87h-.465l-.775 3.87zm12.62 0v-6.018c0-2.248-1.48-4.216-3.558-4.9l-3.928 6.548-1.193-1.194-.292.583.996 4.981h7.974zM21.935 8.589c0 .75.148 1.473.409 2.152a3.866 3.866 0 0 1 2.703-2.098l1.846-.37a1.864 1.864 0 0 0 1.493-1.821v-1.29h2.58v1.29c0 .882.63 1.647 1.494 1.822l1.846.369a3.869 3.869 0 0 1 2.703 2.098c.261-.68.41-1.403.41-2.151a6.016 6.016 0 0 0-6.01-6.01h-3.467a6.015 6.015 0 0 0-6.008 6.01zM10.323 36.13h5.16v-6.018c0-3.827 2.859-7.123 6.647-7.663l2.704-.386.49-1.471a7.747 7.747 0 0 1-3.361-5.834l-.093-.092a8.54 8.54 0 0 1-2.473-6.923h-9.074v28.387zm39.606 41.29a14.232 14.232 0 0 1-5.508-7.742H38.71v-2.58h5.227a14.21 14.21 0 0 1-.066-1.29c0-.437.027-.865.066-1.29H38.71v-2.581h5.71c.256-.901.598-1.763 1.017-2.581H38.71v-2.58h8.414a14.328 14.328 0 0 1 2.805-2.581h-11.22v-2.581h12.904v1.566a14.09 14.09 0 0 1 5.161-1.502V12.903h-5.161V38.71H7.742V12.903H2.58V77.42h47.348zM7.742 51.613h7.742v7.742H7.742v-7.742zm2.58 5.161h2.581v-2.58h-2.58v2.58zm15.484-5.161h-7.742v2.58h7.742v-2.58zm0 5.161h-7.742v2.58h7.742v-2.58zM7.742 61.935h7.742v7.742H7.742v-7.742zm2.58 5.162h2.581v-2.58h-2.58v2.58zm15.484-5.161h-7.742v2.58h7.742v-2.58zm-7.742 7.741h7.742v-2.58h-7.742v2.58zm10.323-18.064h7.742v7.742h-7.742v-7.742zm2.58 5.161h2.581v-2.58h-2.58v2.58zm-2.58 5.161h7.742v7.742h-7.742v-7.742zm2.58 5.162h2.581v-2.58h-2.58v2.58zM7.743 74.839h7.742v-2.58H7.742v2.58zm10.322 0H36.13v-2.58H18.065v2.58z" fill="#5388DE"/><defs><linearGradient id="paint0_linear" x1="39.849" y1="80" x2="39.849" gradientUnits="userSpaceOnUse"><stop stop-color="#9F2FFF"/><stop offset="1" stop-color="#0BB1D3"/></linearGradient></defs></svg>