<svg width="12" height="12" fill="none" xmlns="http://www.w3.org/2000/svg"><path d="M0 7.713V.857C0 .384.336 0 .75 0H3v8.57H.75c-.414 0-.75-.383-.75-.857zm10.615.002H8.399c-.193 0-.29.147-.323.211a.474.474 0 0 0-.005.425l.781 1.608c.172.352.19.766.05 1.135-.141.37-.418.638-.76.736l-.551.157a.346.346 0 0 1-.37-.129l-2.99-3.796a2.323 2.323 0 0 1-.481-1.434V2.144C3.75.962 4.591 0 5.625 0h3.73c.843 0 1.587.649 1.809 1.577l.8 4.198c.024.117.036.236.036.356 0 .873-.621 1.583-1.385 1.583z" fill="#DB1414"/></svg>