<svg fill="none" height="48" width="48" xmlns="http://www.w3.org/2000/svg"><linearGradient id="a" gradientUnits="userSpaceOnUse" x1="24" x2="24" y1="2" y2="46"><stop offset="0" stop-color="#71c3ff"/><stop offset="1" stop-color="#0c76c2"/></linearGradient><path d="M45.243 32.766l.003-.006.002-.007c.23-.573.186-1.153.088-1.622-.099-.47-.278-.943-.432-1.34l-.043-.11a10.385 10.385 0 0 1-.35-.994c-.089-.327-.094-.522-.07-.636.023-.107.106-.282.32-.55.181-.227.397-.452.653-.717l.147-.153c.297-.311.645-.684.915-1.09.272-.408.524-.936.524-1.559 0-.627-.257-1.157-.533-1.564-.273-.406-.625-.777-.925-1.085l-.145-.15a10.419 10.419 0 0 1-.654-.708c-.21-.26-.28-.42-.298-.503-.02-.119-.01-.319.084-.649.08-.288.198-.588.335-.942l.067-.173c.155-.4.333-.875.427-1.35s.127-1.057-.117-1.629c-.24-.575-.678-.963-1.086-1.234-.407-.27-.872-.479-1.265-.651l-.156-.068c-.354-.154-.65-.284-.91-.43-.298-.167-.434-.297-.492-.386l-.006-.009-.006-.009c-.065-.094-.136-.276-.18-.617-.039-.305-.047-.64-.057-1.04l-.003-.138c-.011-.429-.028-.938-.12-1.413-.093-.476-.282-1.031-.722-1.472-.438-.437-.99-.629-1.465-.725s-.984-.117-1.415-.13l-.18-.005c-.383-.011-.708-.02-1.007-.058-.347-.043-.534-.112-.631-.176-.09-.058-.22-.194-.386-.492-.146-.26-.276-.556-.43-.91l-.068-.156c-.172-.393-.382-.858-.651-1.265-.271-.409-.661-.847-1.239-1.088l-.006-.003-.007-.003c-.573-.229-1.153-.185-1.622-.087-.47.099-.943.278-1.34.432l-.11.043c-.377.146-.694.269-.994.35-.327.088-.522.094-.636.07-.107-.023-.282-.106-.55-.32a10.793 10.793 0 0 1-.717-.653l-.153-.147c-.311-.297-.684-.645-1.09-.915-.408-.272-.936-.524-1.559-.524s-1.15.252-1.558.523c-.406.27-.777.616-1.086.912l-.151.145c-.264.253-.485.466-.707.643-.261.207-.421.278-.509.296-.118.021-.318.01-.648-.083a10.872 10.872 0 0 1-.942-.336l-.173-.067c-.4-.154-.875-.333-1.35-.427s-1.057-.126-1.629.117c-.575.241-.963.679-1.234 1.087-.27.406-.479.872-.651 1.265l-.068.155c-.154.354-.284.65-.43.91-.167.298-.297.434-.386.493l-.009.006-.009.006c-.094.064-.276.135-.617.179-.305.039-.64.047-1.04.057l-.138.004c-.429.01-.938.027-1.413.12-.476.093-1.031.281-1.472.722-.437.437-.629.989-.725 1.464s-.117.984-.13 1.415l-.005.18c-.011.383-.02.709-.058 1.008-.043.346-.112.534-.176.63-.058.09-.194.22-.492.387-.26.146-.556.275-.91.43l-.156.067c-.393.172-.858.382-1.265.651-.409.272-.847.661-1.088 1.239l-.003.006-.003.007c-.229.573-.185 1.153-.087 1.623.099.469.278.942.432 1.339l.043.11c.146.377.269.694.35.994.088.327.094.522.07.636-.023.108-.106.282-.32.55-.181.227-.397.452-.653.718l-.147.153c-.297.31-.645.683-.915 1.089-.272.409-.524.936-.524 1.56 0 .62.25 1.15.52 1.56.269.407.614.782.91 1.096l.147.155c.253.267.465.491.642.716.21.266.282.43.3.519.021.118.01.318-.083.648-.082.288-.198.588-.336.942l-.067.173c-.154.4-.333.875-.427 1.35s-.127 1.057.117 1.63c.241.574.679.962 1.087 1.233.406.27.872.479 1.265.651l.155.068c.354.154.65.284.91.43.298.167.434.297.493.386l.006.009.006.009c.064.094.135.276.179.617.039.305.047.64.057 1.04l.004.138c.01.429.027.938.12 1.413.093.476.281 1.031.722 1.472.437.437.989.629 1.464.725s.984.117 1.415.13l.18.005c.383.011.709.02 1.008.058.346.043.534.112.63.176.09.058.22.194.387.492.146.26.275.556.43.91l.067.156c.172.393.382.858.651 1.265.272.409.661.847 1.239 1.088l.006.003.007.002c.573.23 1.153.186 1.623.088.469-.099.942-.278 1.339-.432l.11-.043c.377-.146.694-.268.994-.35.327-.089.522-.094.636-.07.108.023.282.106.55.32.227.181.452.397.718.653l.153.147c.31.297.683.645 1.089.915.409.272.936.524 1.56.524.627 0 1.156-.257 1.563-.532.406-.273.778-.625 1.087-.923l.132-.127c.273-.265.503-.487.733-.67.267-.21.433-.284.528-.303.118-.02.319-.01.651.084.288.08.588.198.942.335l.173.067c.4.155.875.333 1.35.427s1.057.127 1.629-.117c.575-.24.963-.678 1.234-1.086.27-.407.479-.872.651-1.265l.068-.156c.154-.354.284-.65.43-.91.167-.298.297-.434.386-.492l.009-.006.009-.006c.094-.065.276-.136.617-.18.305-.039.64-.047 1.04-.057l.138-.003c.429-.011.938-.028 1.413-.12.476-.093 1.031-.282 1.472-.722.437-.438.629-.99.725-1.465s.117-.984.13-1.415l.005-.18c.011-.383.02-.708.058-1.007.043-.347.112-.534.176-.631.058-.09.194-.22.492-.386.26-.146.556-.276.91-.43l.156-.068c.393-.172.858-.382 1.265-.651.409-.271.847-.661 1.088-1.239z" fill="url(#a)" stroke="#fff" stroke-width="2"/></svg>