<svg width="20" height="20" fill="none" xmlns="http://www.w3.org/2000/svg"><path d="M10 20c5.514 0 10-4.486 10-10 0-.952-.133-1.89-.396-2.788a.833.833 0 1 0-1.6.468c.218.746.33 1.527.33 2.32 0 4.595-3.74 8.333-8.334 8.333-4.595 0-8.333-3.738-8.333-8.333 0-4.595 3.738-8.333 8.333-8.333 1.67 0 3.277.488 4.646 1.411a.833.833 0 0 0 .932-1.381A9.938 9.938 0 0 0 10 0C4.486 0 0 4.486 0 10s4.486 10 10 10z" fill="#70AC30"/><path d="M18.573 1.928l-8.604 8.584-2.753-2.745a.837.837 0 0 0-1.182 0 .833.833 0 0 0 0 1.179l3.344 3.336a.833.833 0 0 0 1.182 0l9.195-9.174a.833.833 0 0 0 0-1.18.837.837 0 0 0-1.182 0z" fill="#70AC30"/></svg>