<svg width="32" height="32" fill="none" xmlns="http://www.w3.org/2000/svg"><rect width="32" height="32" rx="4" fill="#E5E5E5"/><path fill-rule="evenodd" clip-rule="evenodd" d="M16.445 23.945s.409-.046.618-.278c.193-.213.187-.614.187-.614s-.027-1.874.817-2.15c.831-.272 1.9 1.811 3.032 2.613.856.606 1.506.473 1.506.473l3.027-.044s1.583-.1.833-1.384c-.062-.105-.438-.95-2.25-2.685-1.9-1.817-1.645-1.523.642-4.665 1.392-1.913 1.949-3.081 1.774-3.582-.165-.476-1.19-.35-1.19-.35l-3.408.021s-.252-.035-.44.08c-.183.113-.3.377-.3.377s-.54 1.481-1.26 2.74c-1.517 2.657-2.124 2.798-2.372 2.633-.577-.385-.433-1.545-.433-2.37 0-2.574.38-3.648-.737-3.926-.371-.092-.644-.153-1.591-.163-1.216-.013-2.246.004-2.828.298-.388.196-.687.632-.505.657.226.031.736.142 1.006.522.35.49.337 1.59.337 1.59s.2 3.031-.469 3.408c-.46.258-1.09-.27-2.443-2.68-.693-1.235-1.216-2.6-1.216-2.6s-.1-.255-.28-.391c-.22-.166-.525-.218-.525-.218l-3.238.021s-.487.014-.665.233c-.159.194-.013.595-.013.595s2.536 6.116 5.407 9.198c2.633 2.827 5.622 2.642 5.622 2.642h1.355z" fill="#2B2E3B"/></svg>