<svg width="66" height="56" fill="none" xmlns="http://www.w3.org/2000/svg"><path d="M24.197 26.133c7.196 0 13.029-5.85 13.029-13.066C37.226 5.85 31.393 0 24.196 0c-7.195 0-13.028 5.85-13.028 13.067 0 7.216 5.833 13.066 13.029 13.066zm0 3.734a24.189 24.189 0 0 0-17.102 7.116A24.33 24.33 0 0 0 0 54.133c0 .496.196.97.545 1.32.35.35.823.547 1.316.547h44.67c.495 0 .968-.196 1.317-.546.35-.35.545-.825.545-1.32a24.33 24.33 0 0 0-7.095-17.151 24.189 24.189 0 0 0-17.101-7.116zm39.941-5.6h-5.584v-5.6c0-.496-.196-.97-.545-1.32a1.859 1.859 0 0 0-3.177 1.32v5.6h-5.584c-.494 0-.967.196-1.316.546A1.87 1.87 0 0 0 49.248 28h5.584v5.6c0 .495.196.97.545 1.32a1.858 1.858 0 0 0 3.177-1.32V28h5.584c.494 0 .967-.197 1.316-.547a1.87 1.87 0 0 0-1.316-3.186z" fill="#fff" fill-opacity=".1"/></svg>