<svg width="40" height="40" fill="none" xmlns="http://www.w3.org/2000/svg"><path d="M39.88 17.512l-3.812.472a19.302 19.302 0 0 0-.22-1.323 16.075 16.075 0 0 0-.945-3.023c-.063-.19-.157-.347-.252-.536l3.465-1.637a20.79 20.79 0 0 0-1.449-2.583 19.264 19.264 0 0 0-2.489-3.024 19.76 19.76 0 0 0-3.213-2.614c-.283-.189-.567-.346-.85-.535l-1.922 3.307a13.438 13.438 0 0 0-2.142-1.04 14.74 14.74 0 0 0-2.614-.787l.819-3.748c-.095-.032-.19-.032-.284-.063A20.925 20.925 0 0 0 20.003 0c-1.418 0-2.772.157-4.127.44-1.291.284-2.551.662-3.748 1.198a19.08 19.08 0 0 0-3.245 1.764c-.472.315-.945.661-1.386 1.007l2.394 2.993c-.472.378-.913.755-1.323 1.196a15.343 15.343 0 0 0-2.11 2.615l.031-.032-3.213-2.11-.031.031c-.725 1.071-1.323 2.237-1.827 3.465a21.71 21.71 0 0 0-1.04 3.527 20.023 20.023 0 0 0-.22 6.394l3.811-.472c.063.44.126.882.22 1.323.221 1.039.536 2.078.946 3.023.063.19.157.347.252.536l-3.465 1.637c.41.882.913 1.764 1.449 2.583a19.263 19.263 0 0 0 2.488 3.024 19.754 19.754 0 0 0 3.213 2.614c.284.189.567.346.85.535l1.922-3.307c.693.41 1.386.756 2.142 1.04a14.36 14.36 0 0 0 2.867.85c-.095-.032-.158-.032-.252-.063l-.82 3.748c.095.032.19.032.284.063a20.03 20.03 0 0 0 3.907.378c1.417 0 2.803-.157 4.126-.44 1.292-.284 2.552-.662 3.749-1.198a19.077 19.077 0 0 0 3.244-1.764c.473-.315.945-.661 1.386-1.008l-2.394-2.992c.473-.377.914-.755 1.323-1.196a14.947 14.947 0 0 0 2.08-2.583l3.213 2.11.031-.031a20.478 20.478 0 0 0 1.827-3.496c.441-1.134.82-2.3 1.04-3.528.252-1.26.378-2.583.378-3.905.063-.82 0-1.638-.095-2.457z" fill="#BDBBBB"/><path d="M20.033 34.55c8.055 0 14.585-6.528 14.585-14.582 0-8.054-6.53-14.583-14.585-14.583S5.448 11.915 5.448 19.968c0 8.054 6.53 14.583 14.585 14.583z" fill="#FAFAFA"/><path d="M36.766 30.992l-3.213-2.11a18.205 18.205 0 0 1-2.08 2.582c-.409.41-.881.82-1.322 1.197l2.394 2.992c.567-.472 1.134-.944 1.638-1.48a22.804 22.804 0 0 0 2.583-3.18zm-1.89-17.353c.41.976.725 1.984.946 3.024.094.44.157.882.22 1.322l3.811-.472a13.662 13.662 0 0 0-.283-1.638c-.284-1.291-.662-2.55-1.197-3.748-.095-.22-.19-.44-.315-.661l-3.465 1.638c.126.189.22.378.284.535zm-11.44 23.243c0-.44.379-.819.82-.819.44 0 .819.378.819.82 0 .44-.378.818-.82.818a.834.834 0 0 1-.818-.819zM15.193 3.15c0-.441.378-.819.82-.819.44 0 .818.378.818.819 0 .44-.378.819-.819.819a.813.813 0 0 1-.819-.819zM2.15 16.946c0-.441.378-.819.819-.819.44 0 .818.378.818.819 0 .44-.377.819-.818.819a.813.813 0 0 1-.82-.82zm4.532 15.086c0-.441.378-.82.82-.82.44 0 .818.379.818.82 0 .44-.378.819-.819.819a.813.813 0 0 1-.819-.82zM36.05 24c0-.44.378-.819.819-.819.44 0 .819.378.819.819a.834.834 0 0 1-.819.819.813.813 0 0 1-.819-.819zM32.013 8.44c0-.44.378-.818.82-.818.44 0 .818.378.818.818 0 .441-.378.82-.819.82a.834.834 0 0 1-.819-.82zM5.14 26.362a16.835 16.835 0 0 1-.944-3.023 19.302 19.302 0 0 1-.22-1.323l-3.812.472c.063.567.158 1.102.284 1.638.283 1.291.66 2.551 1.196 3.748.095.22.19.44.315.661l3.465-1.637c-.126-.19-.19-.347-.284-.536zm8.855 8.662a13.122 13.122 0 0 1-2.111-1.04l-1.922 3.307c.85.504 1.733.914 2.646 1.292 1.04.41 2.111.756 3.245.976l.82-3.748c-.946-.189-1.828-.472-2.678-.787zM26.023 5.008c.724.284 1.449.63 2.11 1.04l1.922-3.308c-.85-.504-1.733-.913-2.646-1.291-1.04-.41-2.111-.756-3.245-.976l-.819 3.748c.977.189 1.858.44 2.678.787zm-17.45 3.56c.41-.41.882-.82 1.323-1.197L7.502 4.378c-.567.473-1.134.945-1.638 1.48A20.747 20.747 0 0 0 3.281 9.04l3.213 2.11c.599-.945 1.323-1.795 2.08-2.583z" fill="#E9E9E9"/><path d="M31.184 12.536l.977-.662c-.536-.787-1.134-1.543-1.827-2.205l-.82.82c.63.63 1.198 1.322 1.67 2.047z" fill="#FAFAFA"/><path d="M32.377 14.71l1.071-.473a14.376 14.376 0 0 0-1.291-2.363l-.976.662c.472.693.85 1.417 1.196 2.173z" fill="#BDBBBB"/><path d="M33.165 17.197l1.165-.252c-.189-.945-.504-1.859-.85-2.74l-1.071.472c.315.819.567 1.67.756 2.52z" fill="#FAFAFA"/><path d="M29.515 29.448l.819.819a13.527 13.527 0 0 0 1.89-2.362l-.977-.63c-.472.787-1.07 1.512-1.732 2.173zM7.599 14.993l-1.102-.441c-.347.819-.599 1.669-.756 2.582l1.165.22c.158-.818.41-1.605.693-2.361z" fill="#BDBBBB"/><path d="M6.94 22.74l-1.166.252c.189.945.504 1.858.85 2.74l1.071-.473a16.647 16.647 0 0 1-.756-2.52zm-.043-5.386l-1.165-.22c-.189.913-.284 1.89-.284 2.866h1.166c.031-.913.126-1.795.283-2.646z" fill="#FAFAFA"/><path d="M6.643 19.968H5.477c0 1.04.095 2.047.315 2.992l1.166-.252c-.22-.85-.315-1.795-.315-2.74zm1.08 5.293l-1.07.472c.346.82.787 1.607 1.291 2.362l.977-.661c-.473-.693-.85-1.417-1.197-2.173zm2.867 4.188l-.819.819a14.584 14.584 0 0 0 2.331 1.89l.63-.977c-.787-.504-1.512-1.07-2.142-1.732z" fill="#BDBBBB"/><path d="M8.914 27.401l-.977.662c.536.787 1.134 1.543 1.827 2.204l.819-.818c-.63-.63-1.197-1.292-1.67-2.048zm3.814 3.81l-.63.977c.787.536 1.637.977 2.55 1.323l.442-1.102a11.874 11.874 0 0 1-2.362-1.197zm-3.91-18.549l-.977-.63a12.236 12.236 0 0 0-1.323 2.551l1.103.441c.315-.85.724-1.637 1.197-2.362z" fill="#FAFAFA"/><path d="M20.037 6.582V5.417c-1.04 0-2.047.094-2.992.315l.252 1.165a11.25 11.25 0 0 1 2.74-.315zm-5.263 1.071l-.472-1.07c-.82.346-1.607.787-2.362 1.29l.66.946c.694-.441 1.418-.85 2.174-1.166z" fill="#BDBBBB"/><path d="M17.29 6.866l-.251-1.165c-.945.189-1.859.504-2.74.85l.472 1.07a15.628 15.628 0 0 1 2.52-.755z" fill="#FAFAFA"/><path d="M10.584 10.488l-.819-.819a13.522 13.522 0 0 0-1.89 2.363l.977.63c.473-.788 1.071-1.512 1.732-2.174z" fill="#BDBBBB"/><path d="M12.604 8.82l-.661-.977c-.787.535-1.543 1.134-2.205 1.827l.82.818a17.524 17.524 0 0 1 2.046-1.669z" fill="#FAFAFA"/><path d="M33.178 17.197c.189.881.283 1.826.283 2.771h1.165c0-1.04-.094-2.047-.315-2.992l-1.133.22z" fill="#BDBBBB"/><path d="M33.202 22.583l1.165.22c.19-.913.284-1.89.284-2.866h-1.166a17.453 17.453 0 0 1-.283 2.646z" fill="#FAFAFA"/><path d="M29.515 10.488l.82-.818a13.523 13.523 0 0 0-2.363-1.89l-.63.976a14.577 14.577 0 0 1 2.173 1.732zm2.965 14.456l1.102.441c.347-.819.599-1.67.756-2.583l-1.165-.22c-.126.819-.378 1.606-.693 2.362zM15.055 32.41l-.441 1.102c.818.347 1.669.599 2.582.756l.22-1.165a12 12 0 0 1-2.361-.693z" fill="#BDBBBB"/><path d="M27.378 8.756l.63-.977a12.237 12.237 0 0 0-2.55-1.322l-.442 1.102c.85.315 1.638.724 2.362 1.197z" fill="#FAFAFA"/><path d="M25.043 7.527l.44-1.102a11.648 11.648 0 0 0-2.582-.756l-.22 1.165c.819.158 1.606.41 2.362.693z" fill="#BDBBBB"/><path d="M31.277 27.308l.976.63c.536-.788.977-1.638 1.323-2.552l-1.102-.44c-.315.85-.725 1.606-1.197 2.361z" fill="#FAFAFA"/><path d="M20.03 33.385v1.166c1.04 0 2.047-.095 2.992-.315l-.252-1.166c-.85.22-1.795.315-2.74.315z" fill="#BDBBBB"/><path d="M22.676 6.834l.22-1.165a14.269 14.269 0 0 0-2.866-.284v1.166c.913.031 1.795.094 2.646.283zm-5.253 26.3l-.22 1.165c.913.189 1.89.283 2.866.283v-1.197c-.914 0-1.796-.094-2.646-.252zm5.382-.032l.252 1.166c.945-.19 1.858-.505 2.74-.85l-.473-1.072c-.819.284-1.637.567-2.52.756z" fill="#FAFAFA"/><path d="M25.336 32.283l.473 1.07a14.376 14.376 0 0 0 2.362-1.29l-.661-.977a10.51 10.51 0 0 1-2.174 1.197z" fill="#BDBBBB"/><path d="M27.5 31.118l.662.976c.787-.535 1.543-1.134 2.204-1.826l-.819-.82c-.63.63-1.322 1.198-2.047 1.67z" fill="#FAFAFA"/><path d="M28.203 11.96a.78.78 0 0 0-.8.799c0 .229.114.343.229.571-1.372 1.028-2.857 1.828-4.456 2.056-1.828-1.942-2.514-3.54-2.628-4.455.343-.114.571-.457.571-.685a.78.78 0 0 0-.8-.8.78.78 0 0 0-.8.8c0 .343.23.685.572.685-.229.914-.686 2.4-2.285 4.113l-.343.342c-1.714-.228-3.199-1.028-4.456-2.056a.873.873 0 0 0 .229-.571.78.78 0 0 0-.8-.8.78.78 0 0 0-.8.8c0 .457.343.8.8.8h.229c.8 1.599 1.257 3.427 1.485 5.369 1.485-1.029 3.656-1.714 6.284-1.714 2.627 0 4.798.686 6.284 1.714.228-1.942.8-3.77 1.485-5.37h.228a.78.78 0 0 0 .8-.799c-.228-.457-.571-.8-1.028-.8z" fill="#BDBBBB"/><path d="M20.21 17.098c2.628 0 4.8.686 6.284 1.714-.685-1.028-1.828-1.942-3.313-3.541-1.828-1.942-2.513-3.542-2.628-4.455.343-.115.572-.457.572-.686a.78.78 0 0 0-.8-.8.78.78 0 0 0-.8.8c0 .343.229.686.571.686-.228 1.028-.8 2.627-2.628 4.455-1.485 1.485-2.627 2.399-3.313 3.54 1.257-.913 3.428-1.713 6.056-1.713z" fill="#BDBBBB"/><path d="M13.81 20.184c-.57 1.142-.456 1.942-.456 1.942 0 1.942 1.485 3.427 3.427 3.427 1.828 0 3.313-1.485 3.428-3.199-.115 2.628-1.828 4.912-4.113 5.94h8.226c-2.285-1.028-4-3.313-4.113-5.94.114 1.828 1.6 3.199 3.427 3.199 1.942 0 3.428-1.485 3.428-3.427 0 0 .114-.914-.457-1.942-1.6-1.143-3.77-1.942-6.398-1.942-2.628 0-4.799.8-6.398 1.942z" fill="#BDBBBB"/></svg>