<svg width="203" height="61" fill="none" xmlns="http://www.w3.org/2000/svg"><path d="M101.5 57L64 43.516v1.188a4 4 0 0 0 2.647 3.764l33.5 12.045a3.997 3.997 0 0 0 2.706 0l33.5-12.045A4 4 0 0 0 139 44.704v-1.188L101.5 57z" fill="#CCC"/><path d="M56.662 39.09A4 4 0 0 1 54 35.32V12H12v-2h42V0h95v10h42v2h-42v23.32a4 4 0 0 1-2.662 3.77l-43.5 15.435a4.003 4.003 0 0 1-2.676 0l-43.5-15.435z" fill="#fff"/><path d="M56.662 39.09A4 4 0 0 1 54 35.32V12H12v-2h42V0h95v10h42v2h-42v23.32a4 4 0 0 1-2.662 3.77l-43.5 15.435a4.003 4.003 0 0 1-2.676 0l-43.5-15.435z" fill="#1E88E5"/><path d="M193 10h2v2h-2v-2z" fill="#fff"/><path d="M193 10h2v2h-2v-2z" fill="#1E88E5"/><path d="M197 10h2v2h-2v-2z" fill="#fff"/><path d="M197 10h2v2h-2v-2z" fill="#1E88E5"/><path d="M203 10h-2v2h2v-2z" fill="#fff"/><path d="M203 10h-2v2h2v-2z" fill="#1E88E5"/><path d="M0 10h2v2H0v-2z" fill="#fff"/><path d="M0 10h2v2H0v-2z" fill="#1E88E5"/><path d="M4 10h2v2H4v-2z" fill="#fff"/><path d="M4 10h2v2H4v-2z" fill="#1E88E5"/><path d="M10 10H8v2h2v-2z" fill="#fff"/><path d="M10 10H8v2h2v-2z" fill="#1E88E5"/><path d="M174 17h-20v2h20v-2z" fill="#fff"/><path d="M174 17h-20v2h20v-2z" fill="#CCC"/><path d="M164 24h-10v2h10v-2z" fill="#fff"/><path d="M164 24h-10v2h10v-2z" fill="#CCC"/><path d="M29 17h20v2H29v-2z" fill="#fff"/><path d="M29 17h20v2H29v-2z" fill="#CCC"/><path d="M39 24h10v2H39v-2z" fill="#fff"/><path d="M39 24h10v2H39v-2z" fill="#CCC"/><path d="M44 10L54 0v10H44zm115 0L149 0v10h10z" fill="#0F6ABA"/></svg>