<svg width="40" height="40" fill="none" xmlns="http://www.w3.org/2000/svg"><g opacity=".3" fill="#fff"><path d="M38.065 0H21.29a1.938 1.938 0 0 0-1.935 1.935v1.936H5.806a1.938 1.938 0 0 0-1.935 1.935v18.75C1.547 26.05 0 28.653 0 31.614 0 36.237 3.763 40 8.387 40a8.358 8.358 0 0 0 6.038-2.58h14.607c.84 0 1.55-.542 1.817-1.291h.764a1.938 1.938 0 0 0 1.935-1.935v-17.42h4.517A1.938 1.938 0 0 0 40 14.84V1.935A1.938 1.938 0 0 0 38.065 0zm-18.71 12.903H9.032v-3.87h10.323v3.87zM7.297 24.61l-.914 1.826a11.6 11.6 0 0 0-.76 1.952h-3.55a7.105 7.105 0 0 1 5.224-3.778zm8.187 7.004c0 .672-.1 1.32-.275 1.935h-3.762c.109-.639.166-1.287.166-1.935 0-.648-.057-1.296-.166-1.936h3.762c.175.617.275 1.264.275 1.936zm-7.097 6.299l-.849-1.7a10.168 10.168 0 0 1-.553-1.373H9.79c-.155.47-.332.932-.553 1.374l-.85 1.699zm-1.734-4.364a10.28 10.28 0 0 1-.201-1.935c0-.65.078-1.297.2-1.936h3.47c.122.64.2 1.286.2 1.936 0 .65-.078 1.297-.2 1.935h-3.47zM1.29 31.613c0-.672.1-1.32.275-1.936h3.762c-.108.64-.166 1.288-.166 1.936 0 .648.058 1.296.166 1.935H1.565a7.075 7.075 0 0 1-.275-1.935zm7.097-6.299l.85 1.699c.22.442.397.904.552 1.374H6.985c.154-.47.331-.932.552-1.374l.85-1.699zm2.764 3.073a11.611 11.611 0 0 0-.76-1.951l-.914-1.827a7.106 7.106 0 0 1 5.224 3.778h-3.55zM2.074 34.84h3.55a11.6 11.6 0 0 0 .76 1.951l.913 1.827a7.105 7.105 0 0 1-5.223-3.778zm7.403 3.778l.914-1.827c.312-.625.565-1.279.76-1.951h3.55a7.105 7.105 0 0 1-5.224 3.778zm19.555-2.488H15.443a8.33 8.33 0 0 0 0-9.032h3.912v-1.29h-4.93a8.417 8.417 0 0 0-1.589-1.29h6.519v-1.291H8.387a8.343 8.343 0 0 0-3.226.647V5.806c0-.355.29-.645.645-.645h13.549v2.58H7.742v6.453h11.613v.645c0 .227.046.442.119.645h-3.99v1.29h7.742v2.796a2.368 2.368 0 0 0 2.366 2.366c.74 0 1.448-.355 1.892-.947l2.193-2.925v17.42a.646.646 0 0 1-.645.645zm3.226-1.935c0 .355-.289.645-.645.645h-.645V16.774h1.29v17.42zm6.452-19.355c0 .355-.29.645-.645.645H30l-3.549 4.731a1.077 1.077 0 0 1-1.935-.646v-4.085H21.29a.646.646 0 0 1-.645-.645V1.935c0-.355.29-.645.645-.645h16.775c.356 0 .645.29.645.645V14.84z"/><path d="M27.742 8.765L25.806 6.83l-2.848 2.847 4.784 4.784 9.3-9.3-2.849-2.848-6.451 6.452zm0 3.871l-2.959-2.959 1.023-1.023 1.936 1.936 6.451-6.452 1.024 1.023-7.475 7.475zm-20 2.848h6.452v1.29H7.742v-1.29zm0 2.58h14.194v1.29H7.742v-1.29zm0 2.581h14.194v1.29H7.742v-1.29zm12.903 7.742h7.742v-5.161h-7.742v5.16zm1.29-3.871h5.162v2.58h-5.162v-2.58zm-3.87 5.161h2.58v1.29h-2.58v-1.29zm3.87 0h6.452v1.29h-6.452v-1.29zm-3.87 3.226h2.58v1.29h-2.58v-1.29zm3.87 0h1.29v1.29h-1.29v-1.29zm2.581 0h1.29v1.29h-1.29v-1.29zm2.58 0h1.291v1.29h-1.29v-1.29z"/></g></svg>