<svg width="16" height="16" fill="none" xmlns="http://www.w3.org/2000/svg"><path d="M12.308 14c0-.18-.061-.337-.183-.469a.57.57 0 0 0-.865 0 .668.668 0 0 0-.183.469c0 .18.06.337.183.469a.57.57 0 0 0 .865 0 .668.668 0 0 0 .183-.469zm2.461 0c0-.18-.06-.337-.183-.469a.57.57 0 0 0-.865 0 .668.668 0 0 0-.182.469c0 .18.06.337.182.469a.57.57 0 0 0 .865 0A.668.668 0 0 0 14.77 14zM16 11.667V15c0 .278-.09.514-.27.708a.857.857 0 0 1-.653.292H.923a.857.857 0 0 1-.654-.292C.09 15.514 0 15.278 0 15v-3.333c0-.278.09-.514.27-.709a.857.857 0 0 1 .653-.291h4.471l1.298 1.416c.372.39.808.584 1.308.584s.936-.195 1.308-.584l1.307-1.416h4.462c.256 0 .474.097.654.291.18.195.269.43.269.709zM12.875 5.74c.109.284.064.527-.135.729l-4.307 4.666a.55.55 0 0 1-.433.198.55.55 0 0 1-.433-.198L3.26 6.47c-.2-.202-.244-.445-.135-.73.109-.27.298-.406.567-.406h2.462V.667c0-.18.06-.337.183-.47A.57.57 0 0 1 6.769 0h2.462a.57.57 0 0 1 .432.198.668.668 0 0 1 .183.469v4.666h2.462c.269 0 .458.136.567.407z" fill="#fff" opacity=".7"/></svg>