<svg width="22" height="20" fill="none" xmlns="http://www.w3.org/2000/svg"><path d="M13.876 1.668l7.68 13.34A3.32 3.32 0 0 1 22 16.67 3.325 3.325 0 0 1 18.68 20H11L8.344 10 11 0c1.23 0 2.303.671 2.876 1.668z" fill="#FFD764"/><path d="M8.124 1.668l-7.68 13.34A3.32 3.32 0 0 0 0 16.67 3.325 3.325 0 0 0 3.32 20H11V0C9.77 0 8.699.671 8.125 1.668z" fill="#FFD764"/><path d="M20.407 15.675l-7.68-13.341a1.998 1.998 0 0 0-1.67-1.001l6.57 17.335h1.054a1.997 1.997 0 0 0 1.726-2.993z" fill="#FFB751"/><path d="M19.117 15.675c.15.302.23.646.23.996 0 1.101-.771 1.998-1.72 1.998H3.322a1.997 1.997 0 0 1-1.726-2.994l7.68-13.341a2 2 0 0 1 1.784-1c.59.022 1.135.401 1.432 1l6.626 13.34z" fill="#FFD764"/><path d="M11 14.229v2.22c.611 0 1.107-.498 1.107-1.11 0-.614-.496-1.11-1.107-1.11z" fill="#555"/><path d="M11.003 14.229c.122 0 .222.496.222 1.11 0 .612-.1 1.11-.222 1.11a1.108 1.108 0 0 1-1.107-1.11c0-.614.496-1.11 1.107-1.11zM11 4.684v8.213c.611 0 1.107-.498 1.107-1.11V5.794c0-.613-.496-1.11-1.107-1.11z" fill="#555"/><path d="M11.003 4.685c.122 0 .222.496.222 1.11v5.993c0 .612-.1 1.11-.222 1.11a1.108 1.108 0 0 1-1.107-1.11V5.794c0-.613.496-1.11 1.107-1.11z" fill="#555"/></svg>