<svg width="20" height="20" fill="none" xmlns="http://www.w3.org/2000/svg"><mask id="a" maskUnits="userSpaceOnUse" x="0" y="0" width="20" height="20"><path fill-rule="evenodd" clip-rule="evenodd" d="M0 10V0h20v20H0V10z" fill="#fff"/></mask><g mask="url(#a)"><path fill-rule="evenodd" clip-rule="evenodd" d="M20 10c0 5.523-4.477 10-10 10S0 15.523 0 10 4.477 0 10 0s10 4.477 10 10z" fill="#8AB617"/></g><path fill-rule="evenodd" clip-rule="evenodd" d="M18.273 10A8.271 8.271 0 1 1 1.73 10a8.271 8.271 0 1 1 16.543 0z" fill="#94C01F"/><path fill-rule="evenodd" clip-rule="evenodd" d="M14.322 8.931H11.07V5.679H8.932v3.252H5.68v2.138h3.252v3.252h2.138V11.07h3.252V8.931z" fill="#FEFEFE"/></svg>