<svg width="22" height="16" fill="none" xmlns="http://www.w3.org/2000/svg"><path d="M18.852.213a.737.737 0 0 0-1.037 0L15.487 2.52A10.69 10.69 0 0 0 11 1.454C5.04 1.454.353 7.298.156 7.547a.723.723 0 0 0 0 .897 20.28 20.28 0 0 0 5.004 4.313L3.148 14.75a.727.727 0 0 0-.169.798.726.726 0 0 0 .401.398.74.74 0 0 0 .805-.168L18.852 1.241a.724.724 0 0 0 0-1.028zM7.333 7.995A3.623 3.623 0 0 1 8.41 5.427 3.688 3.688 0 0 1 11 4.36a3.61 3.61 0 0 1 2.002.622L7.962 9.98a3.534 3.534 0 0 1-.629-1.985zm14.511-.45a20.417 20.417 0 0 0-3.752-3.497l-3.476 3.446c.029.165.046.332.051.5a3.623 3.623 0 0 1-1.075 2.569A3.687 3.687 0 0 1 11 11.628a3.6 3.6 0 0 1-.504-.05l-2.494 2.47c.969.315 1.98.48 2.998.488 5.96 0 10.648-5.845 10.844-6.093a.723.723 0 0 0 0-.897z" fill="#2E87C8"/></svg>