<svg width="40" height="20" fill="none" xmlns="http://www.w3.org/2000/svg"><rect x="20" width="20" height="20" rx="2" fill="#1E88E5"/><path d="M36 7.758a.694.694 0 0 1-.217.515l-5.605 5.485-1.053 1.03A.725.725 0 0 1 28.6 15a.725.725 0 0 1-.527-.212l-1.053-1.03-2.802-2.743A.694.694 0 0 1 24 10.5c0-.202.072-.374.217-.515l1.053-1.03a.725.725 0 0 1 .526-.213c.207 0 .382.071.527.213l2.276 2.234 5.078-4.977A.725.725 0 0 1 34.204 6c.206 0 .382.07.526.212l1.053 1.03a.694.694 0 0 1 .217.516z" fill="#fff"/><rect width="20" height="20" rx="2" fill="#FAFAFA"/><rect x=".5" y=".5" width="19" height="19" rx="1.5" stroke="#CCC" stroke-opacity=".7"/></svg>