<svg width="12" height="20" fill="none" xmlns="http://www.w3.org/2000/svg"><path d="M10.493 8.612c-.962 0-1.607-.995-1.221-1.883l2.09-4.801C11.757 1.019 11.096 0 10.112 0H5.333c-.542 0-1.032.323-1.25.823L.091 9.998c-.309.71.207 1.506.976 1.506h3.475c.708 0 1.22.682 1.026 1.368l-1.767 6.282c-.196.699.706 1.16 1.15.588l6.728-8.681c.77-.996.067-2.45-1.186-2.45z" fill="url(#paint0_linear)"/><path d="M4.95 19.742l6.73-8.681c.77-.996.067-2.45-1.187-2.45-.961 0-1.606-.994-1.22-1.882l2.09-4.801C11.757 1.019 11.096 0 10.111 0H8.243L4.81 8.141c-.4.949.29 2.001 1.313 2.001 1.899 0 3.057 2.104 2.052 3.727l-3.795 6.127a.63.63 0 0 0 .572-.254z" fill="url(#paint1_linear)"/><defs><linearGradient id="paint0_linear" x1="5.345" y1="-5.227" x2="6.516" y2="22.073" gradientUnits="userSpaceOnUse"><stop stop-color="#FFD945"/><stop offset=".304" stop-color="#FFCD3E"/><stop offset=".856" stop-color="#FFAD2B"/><stop offset="1" stop-color="#FFA325"/></linearGradient><linearGradient id="paint1_linear" x1="11.153" y1="7.051" x2="-6.16" y2="17.704" gradientUnits="userSpaceOnUse"><stop stop-color="#E87264" stop-opacity="0"/><stop offset=".652" stop-color="#F67150" stop-opacity=".652"/><stop offset="1" stop-color="#FF7044"/></linearGradient></defs></svg>