<svg width="24" height="24" fill="none" xmlns="http://www.w3.org/2000/svg"><path fill-rule="evenodd" clip-rule="evenodd" d="M21.383 8.826a9.871 9.871 0 0 1-4.14 11.548 9.876 9.876 0 0 1-12.19-1.396A9.87 9.87 0 0 1 3.636 6.792a9.875 9.875 0 0 1 11.542-4.16V.428A12.002 12.002 0 0 0 0 12.003C0 18.629 5.373 24 12 24s12-5.371 12-11.997c0-1.073-.142-2.141-.423-3.177h-2.194zm-4.926 2.908a1.914 1.914 0 0 0 1.023-1.714c0-1.342-1.171-2.176-2.943-2.176-1.771 0-2.914.834-2.914 2.136.033.75.47 1.422 1.143 1.754a2.285 2.285 0 0 0-1.555 2.103c0 1.445 1.315 2.37 3.355 2.37s3.348-.936 3.348-2.405a2.234 2.234 0 0 0-1.457-2.068zm-8.863-2.16v6.514H9.67V7.907H6.086v1.668h1.508zm5.577 4.029c0 .69.492 1.074 1.395 1.074s1.4-.372 1.4-1.074c0-.703-.503-1.063-1.4-1.063-.897 0-1.395.383-1.395 1.063zm1.395-2.56c-.76 0-1.183-.337-1.183-.909 0-.605.428-.942 1.183-.942.754 0 1.177.36 1.177.942 0 .583-.417.909-1.177.909zM20.81.937v2.285h2.246v1.656h-2.286v2.286H19.12V4.878h-2.286V3.222h2.286V.937h1.691z" fill="#B3B6B7"/></svg>