<svg width="21" height="20" fill="none" xmlns="http://www.w3.org/2000/svg"><path fill-rule="evenodd" clip-rule="evenodd" d="M9.825 10.18l-2.88-2.853-1.93 1.91L9.826 14l10.19-10.09L18.088 2l-8.262 8.18z" fill="#88C540"/><mask id="a" maskUnits="userSpaceOnUse" x="0" y="0" width="20" height="20"><path fill-rule="evenodd" clip-rule="evenodd" d="M.016 20h19.783V0H.016v20z" fill="#fff"/></mask><g mask="url(#a)"><path fill-rule="evenodd" clip-rule="evenodd" d="M17.73 9.17c.028.273.043.55.043.83 0 4.385-3.528 7.952-7.865 7.952S2.042 14.385 2.042 10c0-4.384 3.529-7.951 7.866-7.951 1.903 0 3.65.687 5.013 1.83l1.432-1.448A9.78 9.78 0 0 0 9.907 0C4.454 0 .017 4.486.017 10s4.437 10 9.892 10c5.454 0 9.891-4.486 9.891-10 0-.891-.126-1.75-.344-2.573L17.73 9.17z" fill="#88C540"/></g></svg>