<svg width="48" height="48" fill="none" xmlns="http://www.w3.org/2000/svg"><path d="M32.851 39.157l-2.855-1.2.389-3.072-1.353-2.343-2.855-1.2.389-3.072-2.31-4a10.458 10.458 0 0 0 .084-12.737V7.645C24.34 3.43 20.91 0 16.695 0c-4.012 0-7.31 3.106-7.62 7.04C3.953 7.715 0 12.098 0 17.404c0 4.383 2.697 8.135 6.521 9.69v17.442L10.018 48h4.371v-3.716l-1.873-2.466 1.873-2.467v-2.705l-1.873-2.467 1.873-2.466v-4.62c3.825-1.554 6.522-5.306 6.522-9.689 0-5.284-3.92-9.652-9.011-10.355a4.84 4.84 0 0 1 4.795-4.237 4.838 4.838 0 0 1 4.832 4.833v1.322a10.476 10.476 0 0 0-1.537-.787 13.177 13.177 0 0 1 3.733 9.224c0 2.692-.802 5.284-2.32 7.496a13.276 13.276 0 0 1-3.757 3.656l8.518 14.753 4.777 1.28 3.785-2.185-1.875-3.248zM13.263 15.085a2.807 2.807 0 1 1-5.615 0 2.807 2.807 0 0 1 5.615 0z" fill="#fff" fill-opacity=".1"/><path d="M44.753 27.44l-3.073.39-1.199-2.856-2.343-1.353-3.072.39-1.2-2.856-4-2.31a10.47 10.47 0 0 0-3.599-9.414c.452.554.863 1.148 1.228 1.78a13.197 13.197 0 0 1 1.74 7.652 13.268 13.268 0 0 1-1.674 5.505l1.44 2.496.474.82-.002.02 11.565 6.676 4.777-1.28L48 29.315l-3.247-1.875z" fill="#fff" fill-opacity=".1"/></svg>