<svg width="33" height="40" fill="none" xmlns="http://www.w3.org/2000/svg"><g opacity=".2" fill="#fff"><path d="M8.126 16.039a.79.79 0 0 0-.554-.23.782.782 0 0 0-.554 1.334.79.79 0 0 0 .554.23.786.786 0 0 0 .784-.781.786.786 0 0 0-.23-.553zm6.411 7.51l-4.749-5.566a.785.785 0 0 0-1.104-.089.78.78 0 0 0-.09 1.102l4.75 5.566a.783.783 0 0 0 1.193-1.013zM9.917 0H3.02a.782.782 0 0 0-.783.781v3.977c0 .431.35.781.783.781h6.896c.433 0 .783-.35.783-.781V.78A.782.782 0 0 0 9.917 0zm-.784 3.977H3.805V1.563h5.328v2.414z"/><path d="M32.928 12.875a.784.784 0 0 0-.712-.453h-4.589V1.943a.782.782 0 0 0-.784-.781h-6.895a.783.783 0 0 0-.784.78v2.035h-6.112a.782.782 0 0 0-.783.78v4.85H6.156a.782.782 0 0 0-.783.781v2.034H.783a.78.78 0 1 0-.597 1.287l12.258 14.362V39.22a.781.781 0 0 0 .784.781.785.785 0 0 0 .552-.226l6.544-6.466a.78.78 0 0 0 .232-.555v-4.682l3.853-4.515a.78.78 0 0 0-.089-1.101.785.785 0 0 0-1.104.089l-4.04 4.734a.78.78 0 0 0-.187.506v4.643l-4.977 4.918v-9.561a.78.78 0 0 0-.187-.506L2.479 13.984h28.042l-3.274 3.836a.78.78 0 0 0 .089 1.102c.33.28.824.24 1.105-.089l4.372-5.124a.78.78 0 0 0 .115-.834zm-20.66-.453H6.94v-1.253h5.329v1.253zm6.896 0h-5.328v-1.253h5.328v1.253zm0-4.85v2.035h-5.328V5.539h5.328v2.034zm6.896 4.85H20.73V8.354h5.329v4.068zm0-5.63H20.73V2.724h5.329v4.068z"/><path d="M26.277 20.258a.79.79 0 0 0-.553-.23.786.786 0 0 0-.784.781.786.786 0 0 0 .784.782.785.785 0 0 0 .784-.781.786.786 0 0 0-.23-.552z"/></g></svg>