<svg width="32" height="32" fill="none" xmlns="http://www.w3.org/2000/svg"><rect y=".001" width="32" height="32" rx="4" fill="#E5E5E5"/><path fill-rule="evenodd" clip-rule="evenodd" d="M26.2 9.886a8.18 8.18 0 0 1-2.269.653c.85-.512 1.431-1.262 1.744-2.25a7.712 7.712 0 0 1-2.512.981c-.763-.846-1.72-1.269-2.87-1.269-1.087 0-2.015.394-2.784 1.183-.768.788-1.153 1.74-1.153 2.855 0 .372.031.68.094.924a10.93 10.93 0 0 1-4.537-1.25 11.22 11.22 0 0 1-3.6-2.981 4.078 4.078 0 0 0-.544 2.038c0 1.462.569 2.584 1.706 3.366-.588-.013-1.213-.18-1.875-.5 0 1 .313 1.855.938 2.605.624.75 1.393 1.215 2.306 1.395a3.572 3.572 0 0 1-.957.153 5.15 5.15 0 0 1-.73-.077 4.104 4.104 0 0 0 1.396 2 3.682 3.682 0 0 0 2.278.808c-1.45 1.154-3.081 1.731-4.893 1.731-.325 0-.638-.02-.938-.058 1.85 1.205 3.863 1.808 6.037 1.808 1.4 0 2.713-.228 3.938-.683 1.225-.455 2.275-1.064 3.15-1.827a12.043 12.043 0 0 0 2.26-2.634A11.864 11.864 0 0 0 24.25 12.5c-.001-.23-.007-.404-.02-.52A7.765 7.765 0 0 0 26.2 9.887z" fill="#2B2E3B"/></svg>