<svg width="24" height="24" fill="none" xmlns="http://www.w3.org/2000/svg"><path d="M21 6V0h-3a6.75 6.75 0 0 0-6 3.675A6.75 6.75 0 0 0 6 0H3v6H0v6h1.5v12h21V12H24V6h-3zm-7.738-1.5H18V3h-3.664A5.226 5.226 0 0 1 18 1.5h1.5V6h-6.697a5.21 5.21 0 0 1 .46-1.5zM4.5 1.5H6c1.37 0 2.686.539 3.664 1.5H6v1.5h4.738c.228.474.382.98.459 1.5H4.5V1.5zm-3 6H9v3H1.5v-3zm12 15h-3V18H9v4.5H3V12h6v1.5h1.5V12h3v10.5zm0-12h-3v-3h3v3zm7.5 12h-6V12h6v10.5zm1.5-12H15v-3h7.5v3z" fill="#55BF4F"/><path d="M10.5 15H9v1.5h1.5V15z" fill="#55BF4F"/></svg>