<svg width="12" height="12" viewBox="0 0 12 12" fill="none" xmlns="http://www.w3.org/2000/svg">
<g opacity="0.3">
<path d="M0.749756 6.39282V11.199C0.749756 11.6412 1.08651 12 1.49976 12H5.24976V6.39282H0.749756Z" fill="#555555"/>
<path d="M11.25 3.18869H8.877C9.04725 3.06453 9.1935 2.94118 9.2955 2.83063C9.90075 2.181 9.90075 1.12364 9.2955 0.474009C8.7075 -0.158804 7.683 -0.157202 7.09575 0.474009C6.77025 0.822456 5.90775 2.24108 6.027 3.18869H5.973C6.0915 2.24108 5.229 0.822456 4.90425 0.474009C4.31625 -0.157202 3.29175 -0.157202 2.7045 0.474009C2.1 1.12364 2.1 2.181 2.70375 2.83063C2.8065 2.94118 2.95275 3.06453 3.123 3.18869H0.75C0.33675 3.18869 0 3.54836 0 3.98972V5.19126C0 5.41235 0.168 5.59178 0.375 5.59178H5.25V3.98972H6.75V5.59178H11.625C11.832 5.59178 12 5.41235 12 5.19126V3.98972C12 3.54836 11.664 3.18869 11.25 3.18869ZM5.20575 3.16226C5.20575 3.16226 5.17425 3.18869 5.067 3.18869C4.54875 3.18869 3.5595 2.61356 3.23625 2.26591C2.922 1.92788 2.922 1.37677 3.23625 1.03873C3.3885 0.875324 3.59025 0.785609 3.80475 0.785609C4.0185 0.785609 4.22025 0.875324 4.3725 1.03873C4.878 1.58183 5.3805 2.96921 5.20575 3.16226ZM6.93225 3.18869C6.82575 3.18869 6.79425 3.16306 6.79425 3.16226C6.6195 2.96921 7.122 1.58183 7.6275 1.03873C7.92975 0.712715 8.4585 0.711113 8.76375 1.03873C9.07875 1.37677 9.07875 1.92788 8.76375 2.26591C8.4405 2.61356 7.45125 3.18869 6.93225 3.18869Z" fill="#555555"/>
<path d="M6.74976 6.39282V12H10.4998C10.9138 12 11.2498 11.6412 11.2498 11.199V6.39282H6.74976Z" fill="#555555"/>
</g>
</svg>
