<svg width="18" height="16" fill="none" xmlns="http://www.w3.org/2000/svg"><path d="M0 10.285V1.143C0 .512.504 0 1.125 0H4.5v11.428H1.125A1.134 1.134 0 0 1 0 10.285zm15.922.001H12.6a.552.552 0 0 0-.485.282.57.57 0 0 0-.007.567l1.172 2.143c.257.47.283 1.021.073 1.514-.21.493-.626.851-1.14.981l-.826.21a.556.556 0 0 1-.554-.172l-4.486-5.062a2.881 2.881 0 0 1-.721-1.911v-5.98c0-1.575 1.262-2.857 2.813-2.857h5.595c1.264 0 2.38.865 2.713 2.102l1.2 5.598c.036.156.054.315.054.475 0 1.163-.932 2.11-2.078 2.11z" fill="#FF4151"/></svg>