<svg width="16" height="24" fill="none" xmlns="http://www.w3.org/2000/svg"><path d="M13.99 10.334c-1.282 0-2.142-1.194-1.627-2.259l2.786-5.761C15.676 1.223 14.795 0 13.482 0h-6.37C6.39 0 5.736.388 5.445.988L.121 11.998c-.412.852.276 1.807 1.302 1.807h4.633c.944 0 1.626.818 1.368 1.641l-2.356 7.54c-.262.838.94 1.391 1.532.704l8.971-10.417c1.029-1.194.09-2.939-1.58-2.939z" fill="url(#paint0_linear)"/><path d="M6.599 23.69l8.97-10.417c1.03-1.194.09-2.939-1.58-2.939-1.283 0-2.143-1.194-1.628-2.259l2.786-5.761C15.675 1.223 14.793 0 13.48 0h-2.492L6.41 9.77c-.534 1.138.388 2.4 1.752 2.4 2.531 0 4.075 2.525 2.735 4.472l-5.06 7.354a.882.882 0 0 0 .763-.305z" fill="url(#paint1_linear)"/><defs><linearGradient id="paint0_linear" x1="7.127" y1="-6.272" x2="8.392" y2="26.499" gradientUnits="userSpaceOnUse"><stop stop-color="#FFD945"/><stop offset=".304" stop-color="#FFCD3E"/><stop offset=".856" stop-color="#FFAD2B"/><stop offset="1" stop-color="#FFA325"/></linearGradient><linearGradient id="paint1_linear" x1="14.868" y1="8.461" x2="-6.819" y2="23.288" gradientUnits="userSpaceOnUse"><stop stop-color="#E87264" stop-opacity="0"/><stop offset=".652" stop-color="#F67150" stop-opacity=".652"/><stop offset="1" stop-color="#FF7044"/></linearGradient></defs></svg>