<svg width="90" height="68" fill="none" xmlns="http://www.w3.org/2000/svg"><path d="M86.7 34l3.234-12.282a1.956 1.956 0 0 0-.338-1.697 1.926 1.926 0 0 0-1.541-.764h-7.839c-.728 0-1.318.594-1.318 1.328 0 .734.59 1.328 1.318 1.328h6.939L84.103 33.5a1.983 1.983 0 0 0 0 1.003l3.052 11.585h-6.993c-.728 0-1.318.594-1.318 1.328 0 .734.59 1.328 1.318 1.328h7.893c.608 0 1.17-.278 1.541-.764.37-.486.494-1.105.338-1.697L86.7 34zM9.717 46.088H2.845L5.897 34.5a1.982 1.982 0 0 0 0-1.003L2.845 21.913H9.73c.728 0 1.318-.594 1.318-1.328 0-.734-.59-1.328-1.318-1.328H1.946a1.958 1.958 0 0 0-1.88 2.461l3.235 12.283L.066 46.282a1.956 1.956 0 0 0 .338 1.696c.371.486.933.765 1.542.765h7.772c.728 0 1.319-.595 1.319-1.328 0-.734-.59-1.328-1.319-1.328zm61.365-15.64a26.548 26.548 0 0 0-8.686-16.343 26.176 26.176 0 0 0-34.792-.002 26.547 26.547 0 0 0-8.687 16.338 1.326 1.326 0 0 0 1.131 1.493 1.32 1.32 0 0 0 1.482-1.14 23.884 23.884 0 0 1 7.818-14.698 23.553 23.553 0 0 1 31.305.002A23.885 23.885 0 0 1 68.47 30.8a1.322 1.322 0 0 0 1.481 1.14 1.326 1.326 0 0 0 1.132-1.493zm-1.113 5.36a1.323 1.323 0 0 0-1.47 1.154C67.036 48.876 56.934 57.858 45 57.858c-11.943 0-22.046-8.99-23.502-20.913a1.321 1.321 0 0 0-1.47-1.156 1.326 1.326 0 0 0-1.147 1.48c1.618 13.252 12.847 23.245 26.12 23.245 13.261 0 24.49-9.985 26.116-23.225a1.327 1.327 0 0 0-1.147-1.482z" fill="#2E87C8"/><path d="M63.359 27.258c0-1.795-1.45-3.255-3.231-3.255H48.635l1.068-2.625a5.496 5.496 0 0 0-.92-6.082 3.202 3.202 0 0 0-2.665-1.036 3.209 3.209 0 0 0-2.44 1.495l-.017.026-5.695 9.484a2.268 2.268 0 0 0-1.697-.782l-5.515-.029h-.012c-.607 0-1.178.237-1.609.67a2.29 2.29 0 0 0-.672 1.628v16.98a2.292 2.292 0 0 0 2.281 2.299h5.515a2.288 2.288 0 0 0 2.184-1.632l4.474 1.537A19.582 19.582 0 0 0 49.289 47h7.972c1.781 0 3.23-1.46 3.23-3.255v-1.232a3.26 3.26 0 0 0-.207-1.15 3.261 3.261 0 0 0 1.433-2.704V37.43c0-.46-.094-.896-.265-1.292a3.26 3.26 0 0 0 1.24-2.562v-1.232c0-.533-.128-1.036-.355-1.48a3.257 3.257 0 0 0 1.022-2.373v-1.232zM35.902 43.375h-4.805V27.112l4.805.026v16.237zm24.226-14.286h-7.185c-.729 0-1.319.594-1.319 1.328 0 .734.59 1.328 1.319 1.328h6.518c.327 0 .594.269.594.598v1.233c0 .33-.267.598-.594.598h-6.518c-.729 0-1.319.595-1.319 1.328 0 .734.59 1.328 1.319 1.328h5.543c.328 0 .595.27.595.6v1.23c0 .33-.267.6-.595.6H52.943c-.729 0-1.319.594-1.319 1.328 0 .733.59 1.328 1.319 1.328h4.318c.327 0 .594.269.594.599v1.231c0 .33-.267.599-.594.599h-7.972c-1.883 0-3.742-.31-5.524-.923l-4.947-1.7a2.54 2.54 0 0 0-.28-.078V28.53c.462-.204.86-.543 1.142-.988l.016-.026 6.211-10.342a.586.586 0 0 1 .445-.268.587.587 0 0 1 .493.192 2.84 2.84 0 0 1 .465 3.163 1.35 1.35 0 0 0-.033.075l-1.826 4.492c-.167.41-.12.876.125 1.244.245.367.655.588 1.095.588h13.457c.327 0 .594.269.594.599v1.231c0 .33-.267.599-.594.599z" fill="#2E87C8"/><path d="M77.385 32.667a4.836 4.836 0 0 1-.517-4.628c1.436-3.513.033-7.553-3.264-9.397a4.811 4.811 0 0 1-2.46-3.942c-.218-3.794-3.222-6.82-6.987-7.04a4.768 4.768 0 0 1-3.913-2.478c-1.83-3.322-5.84-4.735-9.328-3.288a4.741 4.741 0 0 1-4.593-.521 7.392 7.392 0 0 0-9.82 1.114 4.751 4.751 0 0 1-4.362 1.538c-3.72-.63-7.317 1.648-8.368 5.297a4.788 4.788 0 0 1-3.268 3.293c-3.622 1.059-5.882 4.683-5.258 8.43a4.827 4.827 0 0 1-1.526 4.395c-2.807 2.537-3.283 6.79-1.107 9.893a4.837 4.837 0 0 1 .518 4.627c-1.437 3.514-.033 7.553 3.264 9.398a4.811 4.811 0 0 1 2.459 3.943c.218 3.793 3.223 6.819 6.987 7.04a4.768 4.768 0 0 1 3.914 2.477c1.83 3.322 5.84 4.735 9.328 3.288a4.741 4.741 0 0 1 4.593.521A7.368 7.368 0 0 0 47.962 68c2.047 0 4.077-.85 5.535-2.487a4.751 4.751 0 0 1 4.362-1.538c3.719.629 7.316-1.648 8.368-5.297a4.788 4.788 0 0 1 3.268-3.293c3.622-1.059 5.882-4.683 5.258-8.43a4.827 4.827 0 0 1 1.526-4.395c2.807-2.537 3.283-6.79 1.106-9.893zm-2.867 7.916a7.482 7.482 0 0 0-2.366 6.812c.403 2.417-1.055 4.756-3.392 5.439a7.424 7.424 0 0 0-5.066 5.103c-.678 2.355-2.998 3.824-5.398 3.418a7.363 7.363 0 0 0-6.762 2.384 4.768 4.768 0 0 1-6.336.719 7.365 7.365 0 0 0-4.28-1.377c-.957 0-1.92.188-2.839.569a4.778 4.778 0 0 1-6.018-2.122 7.39 7.39 0 0 0-6.066-3.84c-2.429-.142-4.367-2.094-4.508-4.542a7.456 7.456 0 0 0-3.811-6.11c-2.127-1.19-3.033-3.797-2.106-6.064a7.496 7.496 0 0 0-.802-7.172 4.856 4.856 0 0 1 .714-6.383 7.483 7.483 0 0 0 2.366-6.812c-.403-2.418 1.055-4.756 3.392-5.439a7.424 7.424 0 0 0 5.066-5.103c.678-2.355 2.998-3.825 5.398-3.418a7.36 7.36 0 0 0 6.762-2.384 4.769 4.769 0 0 1 6.336-.719 7.348 7.348 0 0 0 7.118.808 4.778 4.778 0 0 1 6.019 2.122 7.39 7.39 0 0 0 6.066 3.84c2.428.142 4.367 2.094 4.508 4.541a7.456 7.456 0 0 0 3.811 6.112c2.127 1.19 3.033 3.796 2.106 6.063a7.496 7.496 0 0 0 .802 7.172 4.855 4.855 0 0 1-.714 6.383z" fill="#2E87C8"/></svg>