<svg width="7" height="7" viewBox="0 0 7 7" fill="none" xmlns="http://www.w3.org/2000/svg">
<path opacity="0.8" fill-rule="evenodd" clip-rule="evenodd" d="M6.96942 1.05229L2.76904 6.88562C2.73583 6.92157 2.68147 7 2.61504 7C2.54559 7 2.50029 6.94771 2.46104 6.90523C2.42178 6.86275 0.0785116 4.42484 0.0785116 4.42484L0.0332165 4.37582C0.0150984 4.34641 0 4.31046 0 4.27124C0 4.23203 0.0150984 4.19608 0.0332165 4.16667C0.0452952 4.15359 0.0543542 4.14379 0.0664329 4.12745C0.298948 3.86275 0.770018 3.3268 0.800215 3.29412C0.83947 3.25163 0.872687 3.19608 0.945159 3.19608C1.02065 3.19608 1.06897 3.26471 1.1052 3.30392C1.14144 3.34314 2.46406 4.71895 2.46406 4.71895L5.82496 0.0457516C5.85516 0.0196078 5.89139 0 5.93065 0C5.9699 0 6.00614 0.0163399 6.03634 0.0424837L6.96036 0.830065C6.98451 0.862745 6.99961 0.901961 6.99961 0.944444C7.00263 0.986928 6.98753 1.02288 6.96942 1.05229Z" fill="white" fill-opacity="0.7"/>
</svg>
