<svg width="32" height="30" viewBox="0 0 32 30" fill="none" xmlns="http://www.w3.org/2000/svg">
<path d="M21.2161 16.022L1.04342 16.022C0.467451 16.022 0 15.5638 0 14.9993C0 14.4347 0.467451 13.9766 1.04342 13.9766L21.2161 13.9766C21.7921 13.9766 22.2596 14.4347 22.2596 14.9993C22.2596 15.5638 21.7921 16.022 21.2161 16.022Z" fill="#DFDEDE"/>
<path d="M15.6484 21.4775C15.3812 21.4775 15.1142 21.3781 14.9109 21.1776C14.5033 20.7781 14.5033 20.1305 14.9109 19.7307L19.7385 14.9991L14.9109 10.2673C14.5033 9.86781 14.5033 9.21988 14.9109 8.82038C15.3188 8.42088 15.9796 8.42088 16.3871 8.82038L21.952 14.275C22.3596 14.6745 22.3596 15.3222 21.952 15.7217L16.3871 21.1761C16.1826 21.3781 15.9156 21.4775 15.6484 21.4775Z" fill="#DFDEDE"/>
<path d="M16.6952 30C10.3636 30 4.77379 26.2664 2.45182 20.4871C2.24039 19.9635 2.50455 19.369 3.04028 19.1618C3.57447 18.9573 4.18254 19.2122 4.39397 19.7401C6.39879 24.7296 11.2277 27.9546 16.6952 27.9546C23.9823 27.9546 29.9119 22.1426 29.9119 15C29.9119 7.85743 23.9823 2.04544 16.6952 2.04544C11.2277 2.04544 6.39879 5.27041 4.39397 10.2599C4.18101 10.7878 3.57447 11.0427 3.04028 10.8382C2.50455 10.631 2.24039 10.0365 2.45182 9.51286C4.77379 3.73358 10.3636 0 16.6952 0C25.133 0 31.9988 6.72959 31.9988 15C31.9988 23.2704 25.133 30 16.6952 30Z" fill="#DFDEDE"/>
</svg>
