<svg width="10" height="9" viewBox="0 0 10 9" fill="none" xmlns="http://www.w3.org/2000/svg">
<path fill-rule="evenodd" clip-rule="evenodd" d="M9.95631 1.35294L3.95578 8.85294C3.90833 8.89916 3.83068 9 3.73577 9C3.63655 9 3.57185 8.93277 3.51577 8.87815C3.45969 8.82353 0.112159 5.68908 0.112159 5.68908L0.0474521 5.62605C0.0215691 5.58824 0 5.54202 0 5.4916C0 5.44118 0.0215691 5.39496 0.0474521 5.35714C0.0647074 5.34034 0.0776489 5.32773 0.0949042 5.30672C0.427069 4.96639 1.10003 4.27731 1.14316 4.23529C1.19924 4.18067 1.2467 4.10924 1.35023 4.10924C1.45807 4.10924 1.52709 4.19748 1.57886 4.2479C1.63063 4.29832 3.52008 6.06723 3.52008 6.06723L8.32137 0.0588235C8.36451 0.0252101 8.41627 0 8.47235 0C8.52843 0 8.5802 0.0210084 8.62334 0.0546218L9.94337 1.06723C9.97788 1.10924 9.99945 1.15966 9.99945 1.21429C10.0038 1.26891 9.98219 1.31513 9.95631 1.35294Z" fill="#55BF4F"/>
</svg>
