<svg width="562" height="319" fill="none" opacity="0.1" xmlns="http://www.w3.org/2000/svg"><path d="M8.497 233.193H0v8.532h8.497v-8.532z" fill="#E55D60"/><path d="M22.204 131.125h-8.657v13.443h8.657v-13.443zM562 191.899h-6.172v5.635H562v-5.635z" fill="#3272AF"/><path d="M557.351 224.741h-5.531v9.579h5.531v-9.579z" fill="#E55D60"/><path d="M452.744 9.338h-5.771v9.579h5.771v-9.58zm-64.205 71.64h-7.375v7.405h7.375v-7.405zm2.721-19.963h-10.1v6.52h10.1v-6.52zm-16.516 11.269l2.244-2.254-4.168-4.186-8.898 8.935v1.852l6.172 6.198 7.615-7.567-2.965-2.978zm-88.164-9.418h-8.978v5.796h8.978v-5.796zm2.881 10.304h-7.695v9.74h7.695v-9.74zm13.786 2.898h-8.177v7.083h8.177v-7.083z" fill="#F2F2F2"/><path d="M170.183 123.479h-5.21v5.232h5.21v-5.232zm18.837 10.866h-6.493v4.75h6.493v-4.75z" fill="#3272AF"/><path d="M215.556 46.768h-4.65v4.668h4.65v-4.668zm13.462 5.875h-4.088v4.105h4.088v-4.105zm10.18 1.852h-4.569v4.588h4.569v-4.588z" fill="#F2F2F2"/><path d="M497.478 201.478l-6.733-6.761-2.725 2.736 15.15 15.214h11.543l-11.223-11.189h-6.012z" fill="#3272AF"/><path d="M530.823 240.518l3.447-3.461-6.172-6.118v-4.749l-13.387-13.523h-11.543l27.655 27.851z" fill="#E55D60"/><path d="M561.772 209.366h-5.932v3.301h5.932v-3.301z" fill="#3272AF"/><path d="M561.772 212.667h-5.932v2.656h5.932v-2.656z" fill="#E55D60"/><path d="M184.531 129.274h7.696V117.12l10.741-10.787h-9.138l-9.299 9.338v13.603z" fill="#3272AF"/><path d="M206.413 102.872h15.551l7.616-7.647v-6.842h-9.459v4.83h-13.227l-13.066 13.12h9.138l3.447-3.461z" fill="#F2F2F2"/><path d="M463.727 211.137v-41.374l28.777-28.898v-34.532H380.761l-7.134 7.164h-53.868l7.214-7.164h-37.755l-23.968 24.068h-14.349v10.947H235.19v25.678l-10.02 10.062h-13.146l14.509-14.57V126.94H215.39v25.356l-12.264-12.236-6.012 6.038h-23.086v-7.325h-19.319v-9.418h-10.341l-8.657 8.693H115.03v-13.442l6.733-6.843 7.295 7.325h12.986v-18.755h-30.621l-16.032 16.099v9.096H64.689L43.367 152.94v23.826l-10.742 10.786v22.378l2.725 2.737h454.188l-1.523-1.53h-24.288z" fill="#3272AF"/><path d="M50.425 227.8L38 240.276H23.33l-10.1 10.143V263.7l20.682 20.768v21.733h11.783v-10.625l15.23-15.294H72.47V252.27h33.667v13.04h17.876l13.226 13.282h16.914v-21.573h29.659l17.636 17.709h19.238v22.458l12.425 12.477h18.036V319h21.804l12.184-12.235h13.307v8.371h21.082v-18.513h18.276l10.261 10.303h38.156l12.826-12.879h18.036V265.31h-7.295v-11.35h35.351l12.745 12.799h21.323l10.581-10.625 6.333 6.359v18.836l-6.894 6.922v11.833h8.577v8.532h5.852v-7.727L518.08 286.4v-45.077l-28.537-28.656H35.355l15.07 15.133z" fill="#E55D60"/><path d="M506.535 118.81l7.776 7.888v15.133l20.922 20.929h21.002v-13.282l-13.467-13.603v-14.167L528.9 107.782h-12.746v-1.449h-9.619v12.477z" fill="#3272AF"/><path d="M492.513 91.361l10.18 10.223 3.848 3.864v.885h9.619V83.231h9.058v-18.11l-15.791-15.858 9.218-9.177-9.779-9.9h-13.548l15.471-15.536L496.2 0l-39.92 40.086v12.638l-20.36 20.365h-22.044l-33.106 33.244h111.743V91.361zm-350.466 13.201l-14.749-14.81h-8.497v9.176l-7.375 7.405h30.621v-1.771zm187.657-1.046l-13.067-13.12h-11.543l-15.871 15.937h37.755l2.726-2.817z" fill="#F2F2F2"/><path d="M555.839 165.98h-4.73v11.833h4.73V165.98z" fill="#3272AF"/></svg>