<svg width="147" height="132" viewBox="0 0 147 132" fill="none" xmlns="http://www.w3.org/2000/svg">
<mask id="mask0" mask-type="alpha" maskUnits="userSpaceOnUse" x="0" y="0" width="147" height="132">
<rect width="147" height="132" fill="#C4C4C4"/>
</mask>
<g mask="url(#mask0)">
<path d="M74.7038 21.8817C74.7038 21.8817 71.8038 21.187 68.4398 23.271C68.4398 23.271 68.9038 24.8919 71.4558 24.8919C74.5878 24.8919 74.7038 21.8817 74.7038 21.8817ZM54.5198 26.2812C54.5198 26.2812 55.9118 28.9441 58.6958 27.6706C61.0158 26.6286 60.7838 24.8919 60.7838 24.8919C56.9558 24.4288 54.5198 26.2812 54.5198 26.2812ZM51.9678 23.7341C56.0278 22.6922 57.8838 22.9237 61.0158 22.5764C61.8278 22.4606 62.8718 22.3448 63.9158 22.1133C63.9158 22.1133 63.9158 22.1133 64.0318 22.1133C69.2518 20.9555 70.4118 19.4504 75.6318 18.5242H75.9798C76.0958 19.4504 76.2118 20.4924 76.2118 21.5344C76.2118 21.8817 76.3278 22.1133 76.3278 22.4606C76.5598 23.7341 76.6758 25.0077 76.7918 26.0497C76.7918 26.397 76.9078 26.8601 76.9078 27.2075H76.7918C71.4558 29.1757 70.2958 26.6286 66.8158 26.5128C66.2358 26.5128 65.6558 26.5128 64.9598 26.7444C64.9598 26.7444 64.9598 26.7444 64.8438 26.7444C59.8558 27.9021 60.8998 31.7228 54.4038 32.1859C54.2878 31.8386 54.1718 31.4912 54.0558 31.1439C53.5918 29.8703 53.1278 28.481 52.6638 26.8601C52.6638 26.8601 52.3158 26.1655 52.0838 24.8919C52.0838 24.4288 52.0838 24.0815 51.9678 23.7341Z" fill="#052E2F"/>
<path d="M76.0964 18.5241C75.5164 14.2403 73.8925 11.4617 70.0645 10.8828C70.2965 10.8828 70.6444 10.8828 70.8764 10.8828C73.4284 10.8828 75.0524 10.0723 76.0964 9.14612C77.4884 10.1881 77.9525 14.3561 77.4885 18.1767C77.2565 19.6818 77.0245 21.1869 76.4445 22.4605C76.4445 22.1132 76.3285 21.8816 76.3285 21.5343C76.3285 20.4923 76.2124 19.4503 76.0964 18.5241Z" fill="#472917"/>
<path d="M51.9678 23.7344C51.9678 24.0817 52.0838 24.4291 52.1998 24.7764C51.8518 24.4291 51.5038 24.0817 51.1558 23.7344C47.9078 20.2611 45.8198 14.1249 48.3718 12.504C49.8798 14.0091 51.7358 15.3985 53.2438 15.9773C51.7358 18.9876 51.7358 21.7662 51.9678 23.7344Z" fill="#472917"/>
<path d="M69.948 10.8833C63.916 10.8833 54.984 10.9991 53.128 16.0933C51.62 15.3986 49.88 14.1251 48.256 12.62C44.892 9.26243 42.804 4.63134 46.748 3.24201C52.78 1.15802 61.016 -1.15752 65.772 1.50535C70.528 4.16823 73.544 8.22043 77.72 6.48377C77.72 6.48377 77.372 7.8731 75.98 9.14665C74.936 10.0729 73.312 10.8833 70.76 10.8833C70.528 10.7675 70.296 10.8833 69.948 10.8833Z" fill="#784029"/>
<path d="M54.2883 31.0282C51.2723 32.6491 48.2563 23.85 51.1563 23.7343C51.5043 24.0816 51.8523 24.4289 52.2003 24.7762C52.4323 26.0498 52.7803 26.7445 52.7803 26.7445C53.3603 28.3653 53.8243 29.7547 54.2883 31.0282Z" fill="#D19D71"/>
<path d="M77.4874 18.1769C79.4594 19.2189 79.6914 26.1655 76.9074 26.0497C76.7914 25.0077 76.6754 23.7342 76.4434 22.4606C76.9074 21.1871 77.2554 19.682 77.4874 18.1769Z" fill="#D19D71"/>
<path d="M76.7919 36.0068C77.0239 34.7332 77.1399 33.1124 77.1399 30.681C78.1839 32.0704 79.4599 33.3439 80.6199 34.2701C80.6199 34.2701 78.4159 37.6277 73.5439 40.059C75.2839 38.7854 76.6759 37.1646 76.7919 36.0068Z" fill="#D19D71"/>
<path d="M54.6365 32.0706C55.6805 34.8492 56.6085 36.8174 57.3045 38.091C53.4765 35.6597 51.8525 32.7652 51.8525 32.7652C52.7805 32.5337 53.7085 32.3021 54.6365 32.0706Z" fill="#D19D71"/>
<path d="M68.4404 23.2712C71.6884 21.1872 74.7044 21.8819 74.7044 21.8819C74.7044 21.8819 74.5884 24.8921 71.4564 24.8921C68.9044 24.8921 68.4404 23.2712 68.4404 23.2712Z" fill="#ACD4E0"/>
<path d="M60.7835 24.8918C60.7835 24.8918 61.0155 26.5127 58.6955 27.6705C55.9115 28.944 54.5195 26.2812 54.5195 26.2812C54.5195 26.2812 56.9555 24.4287 60.7835 24.8918Z" fill="#ACD4E0"/>
<path d="M57.3047 38.2066C56.4927 36.8172 55.6807 34.9648 54.6367 32.1861C61.2487 31.723 60.0887 27.9024 65.0767 26.7446C65.0767 26.7446 65.0767 26.7446 65.1927 26.7446C65.8887 26.6288 66.4687 26.5131 67.0487 26.5131C70.4127 26.6288 71.6887 29.1759 77.0247 27.2077H77.1407C77.2567 28.5971 77.2567 29.639 77.3727 30.681C77.3727 33.2281 77.2567 34.849 77.0247 36.0068C76.7927 37.1646 75.4007 38.7854 73.6607 40.059C72.0367 41.2168 70.1807 42.2588 68.7887 42.6061C66.8167 43.0692 63.6847 42.7219 61.3647 41.9114C60.0887 41.4483 59.0447 40.8694 58.5807 40.1748C58.1167 39.4801 57.7687 38.9012 57.3047 38.2066Z" fill="#E6B586"/>
<path d="M61.132 22.5766C58 22.9239 56.028 22.5766 52.084 23.7343C51.736 21.7661 51.852 18.9875 53.244 16.093C55.1 10.9988 64.032 10.9988 70.064 10.8831C74.008 11.4619 75.516 14.2406 76.096 18.5244H75.748C70.528 19.4506 69.368 20.9557 64.148 22.1134H64.032C62.988 22.345 61.944 22.4608 61.132 22.5766Z" fill="#E6B586"/>
<path d="M39.556 65.8771C45.356 72.0133 43.036 79.0757 40.136 80.2335C37.004 81.3913 29 88.9168 29 88.9168C29 88.9168 28.304 88.2221 27.724 86.9486C27.608 86.6012 27.492 86.2539 27.376 85.7908C27.028 84.1699 27.144 81.9701 28.536 79.3073C28.652 79.0757 28.768 78.8442 28.884 78.7284C32.712 72.2449 37.7 74.5604 38.048 65.7613C38.048 65.2982 38.048 64.9509 37.932 64.4878C38.628 64.9509 39.092 65.414 39.556 65.8771Z" fill="#C4002A"/>
<path d="M38.1644 65.7612C37.8164 74.5603 32.8284 72.2447 29.0004 78.7283C28.8844 78.9598 28.7684 79.1914 28.6524 79.3072C27.1444 81.97 27.1444 84.1698 27.4924 85.7907C27.6084 86.2538 27.7244 86.6011 27.8404 86.9484C27.6084 91.0006 14.9644 92.8531 8.81643 87.18C2.66843 81.6227 8.81643 75.9496 8.81643 75.9496C5.33643 66.1085 15.4284 64.9508 15.4284 64.9508C17.1684 57.3095 21.6924 56.7306 24.5924 57.3095C26.2164 57.541 27.2604 58.2357 27.2604 58.2357C27.2604 58.2357 33.0604 53.9519 36.4244 59.7408C36.4244 59.7408 37.7004 62.0563 38.0484 64.6034C38.1644 64.9508 38.1644 65.4139 38.1644 65.7612Z" fill="#C4002A"/>
<path d="M107.996 72.2449C108.692 72.4765 109.388 72.8238 110.084 73.4027C116.348 78.6127 114.608 94.1268 115.536 97.8317C115.536 97.8317 116.464 105.241 111.94 109.294C107.416 113.346 103.82 113.23 103.82 113.23C103.82 113.23 98.7159 107.673 97.3239 102C96.7439 99.6841 101.616 95.9792 103.82 94.5899C103.82 94.5899 103.588 86.3697 97.7879 80.5809C97.7879 80.5809 98.0199 80.002 98.4839 79.3073C99.8759 76.7602 103.704 71.2029 107.996 72.2449Z" fill="#C4002A"/>
<path d="M82.2442 106.515C78.6482 105.589 74.8202 104.083 70.9922 102.578C71.3402 102.347 71.6882 101.884 71.9202 101.536L73.7762 97.4841C74.2402 96.5579 74.1242 95.4002 73.5442 94.5897C76.3282 95.6317 79.5762 96.6737 83.0562 97.7157C82.7082 98.8735 82.5922 99.9155 82.7082 100.957C82.8242 102.347 82.7082 104.315 82.2442 106.515Z" fill="#C4002A"/>
<path d="M60.3205 97.8316C55.1005 95.4003 51.1565 93.3163 50.2285 92.7374C52.6645 90.3061 54.5205 88.4537 55.5645 87.4117C55.9125 87.0643 56.1445 86.717 56.3765 86.2539C58.0005 87.2959 60.4365 88.801 64.1485 90.5377C63.4525 90.7692 62.8725 91.3481 62.5245 92.0428L60.6685 96.095C60.3205 96.6739 60.2045 97.2528 60.3205 97.8316Z" fill="#C4002A"/>
<path d="M60.089 116.24C59.045 115.777 58.233 115.314 57.653 114.851C56.957 116.356 53.361 123.766 44.777 130.249C43.617 131.06 42.573 131.87 41.645 132.449C35.845 136.154 33.757 134.996 32.945 133.375C32.829 133.028 32.713 132.681 32.597 132.449C28.537 117.051 42.109 101.189 50.461 92.7374C51.389 93.2005 55.333 95.2845 60.553 97.8316C60.669 98.7578 61.249 99.5683 62.177 100.031L68.209 102.81C69.253 103.273 70.297 103.157 71.225 102.463C75.053 103.968 78.997 105.473 82.477 106.399C80.157 119.25 69.833 142.869 58.233 147.616C44.545 153.173 48.025 155.141 44.893 156.299C44.893 156.299 43.965 163.709 33.525 171.119C38.281 162.667 37.121 157.92 36.889 157.225C36.657 156.531 31.669 154.331 24.709 160.699C27.377 155.489 30.625 150.858 36.657 151.205C36.657 151.205 38.629 147.153 43.153 143.795C43.037 143.911 47.909 131.407 60.089 116.24Z" fill="#3191D7"/>
<path d="M81.7806 108.831C82.0126 108.02 82.1286 107.21 82.2446 106.515C78.6486 105.589 74.8206 104.084 70.9926 102.579C70.1806 103.157 69.0206 103.389 67.9766 102.926L61.9446 100.147C61.0166 99.6841 60.4366 98.8737 60.3206 97.9475C55.1006 95.5161 51.1566 93.4322 50.2286 92.8533C50.1126 92.969 49.9966 93.0848 49.8806 93.2006C59.9726 101.421 54.4046 115.661 47.6766 122.261C43.2686 127.123 38.2806 131.06 32.9446 133.723C33.8726 135.228 35.9606 136.038 41.5286 132.565C42.4566 131.986 43.5006 131.291 44.6606 130.365C53.2446 123.882 56.8406 116.472 57.5366 114.967C58.1166 115.43 58.9286 115.893 59.9726 116.356C47.7926 131.407 42.9206 144.027 42.9206 144.027C38.2806 147.5 36.4246 151.437 36.4246 151.437C30.3926 151.205 27.1446 155.72 24.4766 160.93C31.4366 154.563 36.4246 156.762 36.6566 157.457C36.8886 158.152 38.0486 162.898 33.2926 171.35C43.7326 163.94 44.6606 156.531 44.6606 156.531H44.7766C44.5446 156.299 44.4286 155.952 44.1966 155.72C43.1526 152.479 44.0806 144.953 49.1846 146.342C50.3446 129.323 62.9886 111.725 81.7806 108.831Z" fill="#2B7DBA"/>
<path d="M45.8198 56.7309C45.7038 57.0782 44.1958 62.404 39.5558 65.9931C39.0918 65.5299 38.6278 65.0668 38.0478 64.6037C37.6998 62.1724 36.4238 59.7411 36.4238 59.7411C33.0598 53.9522 27.2598 58.236 27.2598 58.236C27.2598 58.236 26.0998 57.6571 24.5918 57.3098C26.6798 49.7842 33.0598 46.6583 33.4078 46.5425C33.6398 47.2371 33.9878 47.816 34.5678 48.5107C37.6998 51.8682 45.9358 53.6049 45.9358 53.6049C45.9358 53.6049 45.8198 54.8784 45.8198 56.7309Z" fill="#2574AE"/>
<path d="M96.7436 60.7832C97.7876 64.8354 96.9756 69.1192 95.2356 73.4029C91.8716 82.3178 84.7956 91.1168 83.0556 97.7161C79.4596 96.6741 76.3276 95.6321 73.5436 94.5902C73.3116 94.127 72.8476 93.7797 72.3836 93.5482L66.3516 90.7695C65.6556 90.4222 64.8436 90.4222 64.1476 90.6537C60.5516 88.9171 57.9996 87.412 56.3756 86.37C58.8116 82.0862 53.4756 76.6447 50.8076 68.1929C52.3156 69.0034 54.2876 69.2349 56.8396 68.4245C64.9596 66.109 71.1076 65.5301 77.8356 65.8774C83.4036 66.2247 93.7276 67.8456 96.7436 60.7832Z" fill="#2574AE"/>
<path d="M96.7436 60.7832C93.7276 67.8456 83.4036 66.2247 77.8356 65.9932C71.1076 65.6458 65.0756 66.2247 56.8396 68.5403C54.2876 69.2349 52.3156 69.0034 50.8076 68.3087C53.4756 76.7605 58.8116 82.202 56.3756 86.4857C56.8396 86.8331 57.4196 87.1804 58.1156 87.5277C65.5396 78.2656 77.1396 71.5505 86.8836 77.4551C88.6236 78.4971 90.2476 79.6549 91.7556 80.8127C93.0316 78.3813 94.3076 75.95 95.2356 73.4029C96.8596 69.2349 97.6716 64.9512 96.7436 60.7832Z" fill="#2B7DBA"/>
<path d="M50.808 68.1927C46.864 66.2244 45.936 60.3198 45.82 56.6149C45.704 54.7625 45.82 53.489 45.82 53.489C45.82 53.489 37.584 51.7523 34.452 48.3948C33.872 47.8159 33.524 47.1212 33.292 46.4265C32.248 42.7217 37.12 38.901 43.152 36.0066C47.908 37.2801 55.1 40.1746 60.784 42.6059C65.772 44.6899 69.716 46.5423 69.716 46.5423C69.716 46.5423 76.328 39.2484 89.436 38.2064C91.64 38.5537 93.38 38.4379 94.076 38.4379C95.816 38.2064 109.388 40.8692 107.648 53.0258C107.648 53.0258 108.808 54.7625 109.504 58.0043C110.2 61.3618 110.432 66.456 107.88 72.4764C103.704 71.3186 99.76 76.8759 98.252 79.5388C98.252 79.5388 95.932 75.834 95.236 73.6342C96.86 69.3504 97.672 65.0667 96.744 61.0145C93.728 68.0769 83.404 66.456 77.836 66.2244C71.108 65.8771 65.076 66.456 56.84 68.7715C54.404 69.2347 52.316 69.0031 50.808 68.1927Z" fill="#3191D7"/>
<path d="M81.6643 47.9314L55.4482 50.4785L69.8323 62.172L81.6643 47.9314Z" fill="#3191D7"/>
<path d="M59.1602 41.9112C57.8842 41.3323 56.6082 40.8692 55.2162 40.2903C54.0562 43.1847 52.3162 45.7318 50.1122 47.5842C45.4722 51.2891 37.1202 51.2891 33.4082 46.3107C33.4082 46.4265 33.4082 46.5423 33.5242 46.658C33.7562 47.3527 34.1042 47.9316 34.6842 48.6262C37.8162 51.9838 46.0522 53.7204 46.0522 53.7204C46.0522 53.7204 45.9362 54.994 46.0522 56.8464C46.1682 60.5513 47.0962 66.3402 51.0402 68.4241C52.5482 69.2346 54.5202 69.4661 57.0722 68.6557C58.8122 68.1926 60.5522 67.7295 62.1762 67.3822C59.1602 66.6875 56.2602 65.7613 53.7082 64.9508C43.1522 60.204 52.2002 47.7 59.1602 41.9112Z" fill="#2B7DBA"/>
<path d="M109.62 57.8886C109.156 55.9204 108.576 54.4153 108.112 53.7207C104.516 54.068 100.92 53.9522 97.3241 53.3733C88.7401 51.7524 86.4201 45.3847 86.6521 38.5538C84.4481 38.9012 82.3601 39.48 80.6201 40.0589C87.3481 46.0794 91.5241 53.3733 90.3641 61.3619C90.1321 63.4459 89.2041 65.0668 87.8121 66.2246C91.6401 65.8773 95.2361 64.4879 96.7441 60.7831C97.7881 64.8353 96.9761 69.119 95.2361 73.4028C95.9321 75.6026 98.2521 79.3074 98.2521 79.3074C99.7601 76.6445 103.588 71.0872 107.88 72.245C110.548 66.2246 110.316 61.2462 109.62 57.8886Z" fill="#2B7DBA"/>
<path d="M82.2438 106.515C82.5918 104.315 82.8238 102.347 82.7078 100.957C82.5918 99.9155 82.7078 98.8735 83.0558 97.7157C84.7958 91.1164 91.7558 82.3174 95.2358 73.4025C95.9318 75.6023 98.2518 79.3071 98.2518 79.3071C97.7878 80.1176 97.5558 80.5807 97.5558 80.5807C103.356 86.3696 103.588 94.5897 103.588 94.5897C101.384 96.0948 96.5118 99.6839 97.0918 101.999C98.4838 107.673 103.588 113.23 103.588 113.23C103.588 113.23 107.184 113.461 111.708 109.293C116.232 105.241 115.304 97.8315 115.304 97.8315C114.376 94.0109 116.232 78.6125 109.852 73.4025C109.156 72.8236 108.46 72.4763 107.764 72.2447C110.316 66.2243 110.084 61.2459 109.388 57.7726C115.768 72.2447 131.08 84.9802 142.448 87.4116C142.448 87.4116 132.936 102.115 141.288 112.072C149.524 122.029 136.184 142.522 123.772 146.458C111.36 150.279 104.168 142.058 92.4518 154.562C80.8518 167.066 75.8638 141.132 57.8838 147.731C69.7158 142.985 79.9238 119.366 82.2438 106.515Z" fill="#FF8303"/>
<path d="M98.3687 79.3074C98.3687 79.3074 96.0487 75.6025 95.3527 73.4027C95.2367 73.75 95.0047 74.2132 94.8887 74.5605C95.5847 76.6445 96.6287 78.6127 97.6727 80.5809C97.6727 80.4651 97.9047 80.002 98.3687 79.3074Z" fill="#FF6603"/>
<path d="M97.7881 80.9283C98.8321 82.665 99.9921 84.4017 101.384 86.0225C100.456 84.2859 99.4121 82.4334 97.7881 80.9283Z" fill="#FF6603"/>
<path d="M79.808 115.661C75.516 128.397 67.28 144.027 58 147.847C69.368 143.679 75.516 152.478 81.432 156.415C79.46 142.753 78.532 129.207 79.808 115.661Z" fill="#FF6603"/>
<path d="M143.84 118.324C141.288 117.282 138.736 115.893 136.416 114.156C129.92 109.641 122.38 104.778 115.536 99.3367C115.536 101.768 115.072 106.399 111.824 109.294C107.3 113.346 103.704 113.23 103.704 113.23C103.704 113.23 98.6003 107.673 97.2083 102C96.6283 99.684 101.5 95.9791 103.704 94.5898C103.704 94.5898 103.588 90.4218 101.384 85.9065C100.108 84.2856 98.8323 82.549 97.7883 80.8123C97.6723 80.6966 97.6723 80.6965 97.5563 80.5808C97.5563 80.5808 97.5563 80.5808 97.5563 80.465C96.3963 78.4968 95.4683 76.5286 94.7723 74.4446C93.7283 76.9917 92.3363 79.5388 90.9443 82.0859C95.0043 105.01 103.008 128.165 116 147.616C118.436 147.616 120.988 147.384 123.888 146.458C134.096 143.332 144.884 128.976 143.84 118.324Z" fill="#FF6603"/>
<path d="M73.5449 94.5896C74.1249 95.4001 74.2409 96.4421 73.7769 97.484L71.9209 101.42C71.6889 101.884 71.4569 102.231 70.9929 102.462C70.1809 103.041 69.0209 103.273 67.9769 102.81L61.9449 100.031C61.0169 99.568 60.4369 98.7576 60.3209 97.8314C60.2049 97.2525 60.3209 96.6736 60.5529 96.2105L62.4089 92.1583C62.7569 91.4636 63.3369 90.8848 64.0329 90.6532C64.7289 90.4216 65.5409 90.4216 66.2369 90.769L72.2689 93.5476C72.8489 93.7792 73.1969 94.1265 73.5449 94.5896Z" fill="#FF8303"/>
<path d="M68.6732 42.4901C70.0652 42.1428 71.9212 41.2166 73.5452 39.943C78.4172 37.3959 80.6212 34.1542 80.6212 34.1542C83.6372 36.5855 86.8852 37.6275 89.4372 38.0906C76.3292 39.1326 69.7172 46.4266 69.7172 46.4266C69.7172 46.4266 65.8892 44.6899 60.7852 42.4901L61.1332 41.6797C63.5692 42.6059 66.7012 42.9532 68.6732 42.4901Z" fill="#FF8303"/>
<path d="M60.9006 42.6061C55.2166 40.1748 48.0246 37.2803 43.2686 36.0068C46.0526 34.6175 49.0686 33.5755 51.8526 32.765C51.8526 32.765 53.4766 35.6594 57.3046 38.0908C57.7686 38.9012 58.1166 39.4801 58.4646 39.9432C58.9286 40.6379 59.9726 41.2168 61.2486 41.6799L60.9006 42.6061Z" fill="#FF8303"/>
<path d="M33.525 46.6583C32.713 47.7003 32.017 48.6265 31.321 49.5527C30.625 50.4789 29.929 51.2893 29.233 52.0998C28.537 52.9102 27.841 53.8364 27.145 54.6469C26.449 55.5731 25.753 56.4993 24.825 57.4255H24.709C25.289 55.11 26.449 52.9102 27.957 51.0578C29.581 49.2054 31.437 47.5845 33.525 46.5425V46.6583Z" fill="#2B7DBA"/>
<path d="M46.0526 56.7308C45.5886 58.5833 44.6606 60.3199 43.6166 61.9408C42.5726 63.5617 41.1806 64.951 39.6726 66.1088L39.5566 65.993C39.9046 64.951 40.3686 64.1406 40.8326 63.3301C41.2966 62.5197 41.7606 61.825 42.2246 61.0146C42.6886 60.3199 43.2686 59.6253 43.8486 58.9306C44.4286 58.2359 45.1246 57.5413 45.9366 56.8466L46.0526 56.7308Z" fill="#3191D7"/>
<path d="M142.796 87.5276C141.404 90.1905 140.476 92.9692 139.78 95.7478C139.084 98.5265 138.736 101.421 139.2 104.315C139.548 107.094 140.708 109.641 142.564 111.841C144.652 114.388 145.348 117.861 145 120.871C144.652 123.997 143.608 126.892 142.216 129.555C140.824 132.218 139.084 134.765 137.228 137.08C135.372 139.396 133.168 141.48 130.848 143.332C128.528 145.185 125.744 146.69 122.844 147.5C119.944 148.311 116.812 148.542 113.796 148.426C110.78 148.311 107.88 148.079 105.096 148.542C102.312 148.89 99.7604 150.163 97.5564 151.9C96.3964 152.71 95.3524 153.752 94.4244 154.794C93.4964 155.836 92.3364 157.11 90.9444 157.92C89.5524 158.846 87.6964 159.425 85.9564 159.194C84.2164 158.962 82.5924 158.268 81.3164 157.341C78.7644 155.605 76.6764 153.405 74.3564 151.668C72.1524 149.816 69.7164 148.311 66.9324 147.5C65.5404 147.153 64.1484 146.921 62.6404 147.037C61.1324 147.153 59.7404 147.384 58.3484 147.732L58.2324 147.5C60.9004 146.342 64.1484 145.764 67.1644 146.342C70.1804 146.921 73.0804 148.426 75.5164 150.163C77.9524 151.9 80.1564 153.984 82.5924 155.373C83.7524 156.068 85.0284 156.647 86.1884 156.762C87.3484 156.878 88.5084 156.415 89.6684 155.72C90.2484 155.373 90.7124 154.91 91.2924 154.447C91.7564 153.984 92.2204 153.405 92.8004 152.942C93.8444 151.9 95.0044 150.858 96.2804 149.932C98.8324 148.079 101.848 146.69 104.98 146.342C108.112 145.995 111.128 146.342 114.028 146.574C116.928 146.806 119.828 146.806 122.728 146.227C125.512 145.648 128.18 144.374 130.616 142.638C133.052 140.901 135.14 138.817 136.88 136.501C138.736 134.186 140.244 131.639 141.288 128.976C142.448 126.313 143.144 123.419 143.26 120.64C143.376 117.861 142.796 115.083 141.172 112.999C140.244 111.841 139.316 110.452 138.736 108.946C138.156 107.441 137.808 105.936 137.576 104.431C137.344 101.305 137.808 98.1791 138.736 95.4005C139.2 94.0112 139.78 92.6218 140.476 91.2325C141.172 89.8432 141.868 88.5696 142.796 87.4119V87.5276Z" fill="#FF6603"/>
<path d="M109.737 57.7726C111.361 61.2459 113.333 64.4877 115.653 67.4979C117.973 70.5081 120.525 73.2867 123.309 75.8338C126.093 78.3809 129.109 80.8123 132.357 82.7805C133.981 83.8225 135.605 84.6329 137.345 85.4433C139.085 86.2538 140.825 86.8327 142.681 87.2958L142.565 87.6431C138.505 87.9904 134.445 86.8327 130.849 85.096C128.993 84.2856 127.253 83.2436 125.629 82.0858C124.005 80.928 122.497 79.6545 120.989 78.3809C119.597 76.9916 118.205 75.6023 116.929 73.9814C115.769 72.3605 114.493 70.8554 113.565 69.1188C111.593 65.6454 109.969 61.9406 109.505 57.8884L109.737 57.7726Z" fill="#FF9C03"/>
<path d="M98.3686 79.4231C97.7886 78.4969 97.2086 77.5707 96.6285 76.5287C96.1645 75.4867 95.5845 74.5605 95.3525 73.4027H95.4685C96.0485 73.75 96.3965 74.2131 96.7445 74.6763C97.0925 75.1394 97.4405 75.6025 97.6725 76.0656C97.9045 76.5287 98.1365 77.1076 98.2525 77.5707C98.3685 78.0338 98.4846 78.6127 98.3686 79.4231Z" fill="#3191D7"/>
<path d="M51.1561 23.7345C50.6921 23.8503 50.4601 24.1976 50.3441 24.5449C50.2281 24.8923 50.2281 25.3554 50.3441 25.7027C50.4601 26.5132 50.6921 27.3236 51.0401 28.0183C51.2721 28.8287 51.7361 29.5234 52.2001 30.1022C52.6641 30.6811 53.3601 31.26 54.2881 30.9127C53.9401 31.1442 53.4761 31.1442 53.0121 31.0285C52.5481 30.9127 52.2001 30.5654 51.9681 30.3338C51.3881 29.7549 50.9241 28.9445 50.5761 28.134C50.2281 27.3236 49.9961 26.5132 49.9961 25.5869C49.9961 25.1238 49.9961 24.6607 50.2281 24.3134C50.3441 23.9661 50.6921 23.6187 51.1561 23.7345Z" fill="#E6B586"/>
<path d="M77.489 18.1769C78.185 18.64 78.533 19.4504 78.765 20.1451C78.997 20.9555 79.113 21.6502 79.113 22.4606C79.113 23.2711 78.997 24.0815 78.649 24.7762C78.417 25.4708 77.721 26.1655 76.793 26.0497V25.934C77.605 25.8182 77.953 25.1235 78.185 24.5446C78.417 23.85 78.533 23.1553 78.417 22.3449C78.417 21.6502 78.417 20.8398 78.301 20.1451C78.301 19.7978 78.185 19.4504 78.069 19.1031C77.953 18.7558 77.837 18.5242 77.489 18.1769Z" fill="#E6B586"/>
<path d="M70.0645 10.7673C71.2245 10.5357 72.6165 10.7673 73.6605 11.4619C74.8205 12.1566 75.6324 13.3144 76.0964 14.4721C76.5604 15.6299 76.7924 16.9034 76.7924 18.0612C76.7924 19.219 76.6765 20.3768 76.3285 21.5345H76.2124C76.0964 19.219 75.8644 16.9034 74.9364 14.8195C74.4724 13.7775 73.8925 12.8512 72.9645 12.1566C72.2685 11.4619 71.1085 11.1146 70.0645 10.7673Z" fill="#503323"/>
<path d="M48.4877 12.6196C48.1397 13.1985 48.1397 13.6616 48.2557 14.1247C48.2557 14.5878 48.4877 15.0509 48.6037 15.514C48.8357 15.9772 48.9517 16.4403 49.0677 16.9034C49.2997 17.3665 49.4157 17.8296 49.6477 18.4085C49.9957 19.4505 50.4597 20.3767 50.9237 21.4187L52.3157 24.6604L52.1997 24.7762C51.2717 24.0816 50.4597 23.1553 49.7637 22.2291C49.0677 21.3029 48.4877 20.2609 48.0237 19.1031C47.5597 18.0611 47.2117 16.9034 47.0957 15.6298C47.0957 15.0509 47.0957 14.4721 47.2117 13.7774C47.3277 13.1985 47.7917 12.6196 48.2557 12.3881L48.4877 12.6196Z" fill="#593A29"/>
<path d="M76.2117 9.03076C77.1397 9.8412 77.4877 11.1148 77.6037 12.1567C77.8357 13.3145 77.8357 14.4723 77.8357 15.6301C77.7197 17.9456 77.4877 20.2612 76.5597 22.4609L76.4437 22.3451C76.3277 21.0716 76.2117 19.9138 76.2117 18.8718C76.2117 17.7141 76.2117 16.6721 76.2117 15.6301C76.2117 15.0512 76.2117 14.5881 76.2117 14.0092C76.2117 13.4303 76.2117 12.9672 76.3277 12.3883C76.3277 11.8094 76.3277 11.3463 76.3277 10.7674C76.3277 10.1885 76.3277 9.72542 76.0957 9.14654L76.2117 9.03076Z" fill="#593A29"/>
<path d="M75.8642 18.524C73.8922 18.8713 71.9202 19.4502 70.0642 20.2606C68.2082 21.0711 66.2362 21.7657 64.2642 22.1131C62.2922 22.5762 60.2042 22.8077 58.2322 22.8077C56.1442 22.9235 54.1722 23.1551 52.2002 23.6182V23.5024C53.1282 23.0393 54.1722 22.692 55.1002 22.3446C56.1442 22.1131 57.1882 21.8815 58.2322 21.7657C60.3202 21.5342 62.1762 21.3026 64.1482 20.8395C66.1202 20.4922 67.9762 19.7975 69.8322 19.2186C70.7602 18.8713 71.8042 18.6398 72.8482 18.4082C73.7762 18.524 74.7042 18.4082 75.8642 18.524Z" fill="#C99A69"/>
<path d="M77.0242 27.2076C76.2122 27.7864 75.1682 28.1338 74.1242 28.3653C73.0802 28.5969 71.9202 28.4811 70.8762 28.2496C69.8322 28.018 68.9042 27.5549 68.0922 27.5549C67.2802 27.4391 66.3522 27.4391 65.5402 27.6707C64.6122 27.9022 63.9162 28.1338 63.1042 28.5969C62.4082 29.06 61.7122 29.7547 60.9002 30.4493C60.0882 31.144 59.0442 31.7229 58.0002 31.9544C56.9562 32.186 55.9122 32.186 54.8682 32.0702V31.9544C55.9122 31.8387 56.8402 31.7229 57.7682 31.3755C58.6962 31.0282 59.5082 30.4493 60.3202 29.7547C61.0162 29.06 61.7122 28.2496 62.5242 27.6707C63.3362 27.0918 64.3802 26.6287 65.3082 26.5129C66.3522 26.2813 67.3962 26.2813 68.3242 26.5129C69.3682 26.7445 70.2962 27.0918 71.2242 27.4391C72.1522 27.7864 73.1962 27.9022 74.1242 27.7864C75.0522 27.7864 75.9802 27.4391 77.0242 27.2076Z" fill="#C99A69"/>
<path d="M66.7002 21.3028C66.8162 20.3766 67.1642 19.6819 67.6282 19.103C68.0922 18.5241 68.9042 18.2926 69.4842 17.9452C70.1802 17.5979 70.8762 17.2506 71.5722 17.019C72.2682 16.7875 73.0802 16.5559 73.7762 16.5559V16.7875C73.1962 17.1348 72.6162 17.4821 72.0362 17.9452C71.4562 18.4083 70.9922 18.8715 70.5282 19.3346C70.0642 19.7977 69.6002 20.4923 69.0202 20.7239C68.4402 21.0712 67.7442 21.3028 66.7002 21.3028Z" fill="#472917"/>
<path d="M61.1323 22.6921C60.3203 23.1552 59.5083 23.1552 58.8123 23.1552C58.1163 23.1552 57.5363 22.6921 56.8403 22.4606C56.1443 22.229 55.5643 21.9975 54.8683 21.8817C54.1723 21.6501 53.4763 21.5344 52.7803 21.5344V21.3028C53.4763 20.9555 54.2883 20.8397 54.9843 20.7239C55.7963 20.6081 56.4923 20.6081 57.3043 20.7239C58.0003 20.7239 58.8123 20.6081 59.5083 20.9555C60.2043 21.3028 60.7843 21.7659 61.3643 22.5764L61.1323 22.6921Z" fill="#472917"/>
<path d="M67.0487 26.397C66.7007 25.355 66.3527 24.1973 66.0047 23.1553H65.8887C65.8887 24.313 65.8887 25.355 66.1207 26.2813L67.0487 26.397Z" fill="#1A3F40"/>
<path d="M66.1191 26.397C66.1191 26.7444 66.2351 27.0917 66.2351 27.439C66.3511 28.1337 66.4671 28.8283 66.5831 29.4072C66.6991 29.7546 66.6991 30.1019 66.8151 30.3335C66.8151 30.4492 66.9311 30.6808 66.9311 30.7966C66.9311 30.7966 66.9311 30.7966 66.8151 30.7966C66.5831 30.9123 66.3511 31.0281 66.1191 31.1439C65.6551 31.2597 65.0751 31.3754 64.4951 31.2597V31.3754C65.5391 31.9543 66.9311 31.8386 67.9751 31.2597C67.9751 30.565 67.8591 29.8703 67.7431 29.1757C67.6271 28.481 67.3951 27.7864 67.2791 27.0917C67.1631 26.8601 67.1631 26.5128 67.0471 26.2812L66.1191 26.397Z" fill="#FFD3A5"/>
<path d="M70.8767 34.0384C70.5287 34.1542 70.1807 34.0384 69.8327 34.1542H68.7887C68.4407 34.1542 68.3247 34.27 68.2087 34.3857C68.0927 34.5015 67.8607 34.7331 67.7447 34.8489L67.6287 35.0804L67.2807 35.312C67.1647 35.312 67.1647 35.312 67.0487 35.312L66.7007 35.4277L66.4687 35.1962C66.3527 35.0804 66.0047 34.9646 65.8887 34.8489C65.7727 34.8489 65.7727 34.8489 65.6567 34.8489C65.5407 34.8489 65.5407 34.8489 65.4247 34.8489C65.3087 34.8489 65.3087 34.8489 65.1927 34.9646L64.2647 35.312C63.9167 35.4277 63.5687 35.5435 63.2207 35.6593V35.5435C63.8007 35.0804 64.2647 34.6173 64.9607 34.27C65.3087 34.0384 65.6567 33.9226 66.0047 33.9226C66.3527 33.9226 66.7007 34.1542 67.0487 34.27H66.9327H67.1647C67.3967 33.9226 67.6287 33.6911 67.8607 33.4595C68.2087 33.228 68.5567 33.228 68.9047 33.3437C69.4847 33.5753 70.1807 33.8069 70.8767 34.0384Z" fill="#C99A69"/>
<path d="M70.8767 34.0388C70.1807 33.9231 69.4847 33.6915 68.7887 33.6915C68.4407 33.6915 68.0927 33.6915 67.7447 33.8073C67.3967 34.0388 67.2807 34.2704 67.0487 34.5019H66.8167C66.5847 34.2704 66.2367 34.1546 65.8887 34.1546C65.5407 34.1546 65.1927 34.2704 64.9607 34.3862C64.3807 34.7335 63.8007 35.1966 63.2207 35.6597C63.6847 35.0808 64.1487 34.5019 64.7287 34.0388L64.9607 33.9231C65.0767 33.8073 65.1927 33.8073 65.1927 33.8073C65.4247 33.6915 65.6567 33.6915 65.8887 33.6915C66.3527 33.6915 66.7007 33.9231 67.1647 34.1546L66.7007 34.0388C66.8167 34.0388 66.8167 34.0388 66.9327 34.0388L66.5847 34.2704C66.8167 33.9231 67.0487 33.5757 67.5127 33.3442C67.9767 33.1126 68.4407 33.1126 68.7887 33.2284C69.6007 33.3442 70.2967 33.5757 70.8767 34.0388Z" fill="#EAC38F"/>
<path d="M64.96 37.0486C65.772 37.2801 66.584 37.1644 67.396 36.9328C68.208 36.7013 69.02 36.3539 69.716 36.0066L69.832 36.1224C69.716 36.7013 69.368 37.1644 69.02 37.3959C68.672 37.7433 68.208 37.9748 67.744 38.0906C67.28 38.2064 66.7 38.2064 66.236 38.0906C65.772 37.9748 65.308 37.7433 64.96 37.0486Z" fill="#C99A69"/>
<path d="M64.96 37.1644C65.424 37.0487 65.772 37.0487 66.236 36.9329C66.584 36.8171 67.048 36.8171 67.396 36.7013C67.744 36.7013 68.208 36.4698 68.556 36.354C68.904 36.2382 69.368 36.1224 69.832 36.1224C69.136 36.5855 68.324 36.9329 67.512 37.1644C66.7 37.396 65.772 37.396 64.96 37.1644Z" fill="#EAC38F"/>
<path d="M74.4728 30.681C74.7048 31.1441 74.8208 31.6072 74.9368 31.9546C75.0528 32.3019 75.0528 32.765 74.9368 33.1124C74.9368 33.4597 74.8208 33.807 74.7048 34.1543C74.5888 34.5017 74.3568 34.9648 74.1248 35.4279H74.0088C73.8928 34.6175 73.7768 33.807 73.8928 32.9966C73.8928 32.1861 74.0088 31.3757 74.4728 30.681Z" fill="#C99A69"/>
<path d="M58.2326 34.1542C58.8126 34.7331 59.3926 35.3119 59.7406 36.1224C60.0886 36.817 60.4366 37.6275 60.6686 38.4379H60.5526C60.0886 38.2064 59.7406 37.859 59.5086 37.6275C59.2766 37.3959 59.0446 37.0486 58.8126 36.7013C58.6966 36.3539 58.4646 36.0066 58.3486 35.6593C58.2326 35.1962 58.1166 34.8488 58.2326 34.1542Z" fill="#C99A69"/>
<path d="M46.1685 53.6047C46.6325 56.4991 47.2125 59.3935 48.3725 61.9406C48.9525 63.2142 49.5325 64.2562 50.3445 65.0666C51.1565 65.8771 51.9685 66.2244 52.8965 66.3402C53.8245 66.4559 54.8685 66.2244 56.0285 65.8771L58.1165 65.1824C58.8125 64.9508 59.6245 64.7193 60.3205 64.4877C63.3365 63.6773 66.3525 63.2142 69.4845 62.8668C72.6165 62.6353 75.7485 62.6353 78.7645 62.9826C81.7805 63.33 84.5645 63.6773 87.2325 63.6773C89.9005 63.6773 92.4525 63.33 94.3085 61.8249C96.1645 60.3197 97.0925 57.5411 97.5565 54.6467H97.9045C98.0205 56.1518 98.0205 57.6569 97.6725 59.0462C97.3245 60.5513 96.7445 61.9406 95.7005 63.0984C94.6565 64.2562 93.3805 65.0666 91.9885 65.5297C90.5965 65.9928 89.0885 66.3402 87.5805 66.4559C84.5645 66.6875 81.6645 66.4559 78.6485 66.2244C75.7485 66.1086 72.7325 66.1086 69.8325 66.3402C66.9325 66.5717 64.0325 67.0348 61.1325 67.7295C59.7405 68.0768 58.2325 68.4242 56.8405 68.7715C55.3325 69.1188 53.8245 69.2346 52.3165 68.8873C50.8085 68.5399 49.5325 67.6137 48.6045 66.3402C47.6765 65.0666 47.0965 63.6773 46.7485 62.288C45.9365 59.3935 45.8205 56.3833 45.9365 53.4889L46.1685 53.6047Z" fill="#3191D7"/>
<path d="M33.5249 46.5425C33.8729 47.7003 34.8009 48.6265 35.7289 49.3211C36.6569 50.0158 37.8169 50.5947 38.9769 51.0578C40.1369 51.5209 41.2969 51.984 42.4569 52.4471C43.6169 52.7944 44.7769 53.1418 46.0529 53.4891V53.7207C44.6609 54.1838 43.2689 54.2995 41.9929 54.1838C40.7169 54.068 39.4409 53.7207 38.1649 53.1418C37.0049 52.5629 35.7289 51.8682 34.8009 50.7105C34.3369 50.1316 33.8729 49.5527 33.6409 48.858C33.4089 48.1634 33.2929 47.3529 33.5249 46.5425Z" fill="#3191D7"/>
<path d="M51.8525 32.6491C52.7805 32.4176 53.7085 32.186 54.6365 31.9545V32.186C53.8245 32.6491 53.1285 33.1122 52.3165 33.5753L51.8525 32.6491Z" fill="#E6B586"/>
<path d="M52.4321 33.5754C51.1561 34.2701 49.9961 34.9647 48.7201 35.5436C47.9081 36.0067 46.9801 36.354 46.1681 36.8172L43.0361 35.8909C45.8201 34.5016 48.8361 33.4596 51.8521 32.6492L52.4321 33.5754Z" fill="#FF9C03"/>
<path d="M46.1676 36.9329C46.0516 37.0487 45.9357 37.0487 45.7037 37.1644C44.7757 37.6275 43.7317 38.0907 42.8037 38.6695C41.8757 39.1326 40.8317 39.7115 39.9037 40.1746C38.9757 40.6377 38.0476 41.2166 37.2356 41.7955C36.4236 42.3744 35.6116 42.9533 34.9156 43.7637C34.2196 44.4584 33.7556 45.2688 33.6396 46.5424L33.4076 46.6582C33.0596 45.5004 33.2916 44.2268 33.8716 43.3006C34.4516 42.2586 35.2636 41.4482 36.0756 40.6377C37.8156 39.1326 39.7876 37.8591 41.7596 36.8171C42.2236 36.5855 42.6877 36.354 43.1517 36.1224L46.1676 36.9329Z" fill="#2B7DBA"/>
<path d="M84.6797 38.7854C86.4197 39.7116 88.2757 40.4062 90.1317 40.7536C91.0597 40.9851 92.1037 41.1009 93.1477 41.1009H93.9597C94.1917 41.1009 94.6557 41.1009 94.4237 41.1009C94.5397 41.1009 94.8877 41.2167 95.2357 41.3325C96.6277 41.6798 98.0197 42.2587 99.4117 42.9533C100.688 43.648 101.848 44.4584 102.776 45.3847C104.632 47.2371 105.328 49.6684 105.096 52.5629L104.98 54.8784L105.56 54.4153C105.56 54.4153 105.676 54.6468 105.792 54.7626L106.024 55.2257C106.14 55.5731 106.372 55.8046 106.488 56.152C106.836 56.8466 107.068 57.5413 107.3 58.2359C107.764 59.6253 108.112 61.1304 108.344 62.6355C108.46 64.1406 108.576 65.7615 108.46 67.3823C108.344 69.0032 108.228 70.6241 107.88 72.3608L108.228 72.4765C109.62 69.3506 110.432 65.993 110.432 62.6355C110.432 60.8988 110.316 59.2779 109.968 57.5413C109.62 55.9204 109.04 54.2995 108.228 52.7944C108.46 51.0577 108.46 49.3211 107.996 47.5844C107.532 45.8478 106.604 44.2269 105.328 42.9533C102.776 40.4062 99.4117 38.9011 95.9317 38.2065C95.4677 38.0907 95.0037 38.0907 94.5397 38.0907C94.0757 38.0907 93.7277 38.2065 93.2637 38.2065C92.4517 38.2065 91.5237 38.2065 90.7117 38.0907L84.6797 38.7854Z" fill="#2B7DBA"/>
<path d="M80.7366 34.0383C79.4606 32.9963 78.3006 31.8385 77.3726 30.5649L77.1406 30.7965C77.8366 32.3016 78.7646 33.8067 80.0406 35.196L80.7366 34.0383Z" fill="#E6B586"/>
<path d="M79.9238 35.0802C81.1998 36.5853 82.8238 37.8589 84.6798 38.7851L90.4798 38.0904C88.7398 37.8589 87.1158 37.5115 85.4918 36.8169C83.7518 36.1222 82.1278 35.196 80.7358 34.0382L79.9238 35.0802Z" fill="#FF9C03"/>
<path d="M35.2635 134.881C36.5395 134.533 37.5835 133.839 38.5115 133.028C39.5555 132.334 40.4835 131.523 41.4115 130.713C42.3395 129.902 43.3835 129.092 44.3115 128.281C45.2395 127.471 46.1675 126.66 47.0955 125.734C48.0235 124.924 48.9515 123.998 49.7635 123.187C50.6915 122.377 51.5035 121.335 52.4315 120.524C54.1715 118.672 55.9115 116.819 57.6515 114.735L57.8835 114.851C56.8395 117.282 55.4475 119.482 53.9395 121.682C52.4315 123.766 50.6915 125.734 48.7195 127.587C46.7475 129.323 44.6595 130.944 42.4555 132.449C41.4115 133.144 40.2515 133.839 38.9755 134.417C37.8155 134.996 36.5395 135.459 35.1475 135.344L35.2635 134.881Z" fill="#226A9F"/>
<path d="M56.2604 86.2539C57.0724 84.8646 56.8404 83.2437 56.3764 81.7386C55.9124 80.2335 55.2164 78.7284 54.5204 77.3391C53.1284 74.4447 51.6204 71.5502 50.6924 68.4242L51.0404 68.3085C52.6644 71.2029 54.4044 73.8658 56.1444 76.5287C56.9564 77.918 57.8844 79.3073 58.5804 81.044C58.9284 81.8544 59.1604 82.8964 59.2764 84.0542C59.3924 85.2119 59.1604 86.4855 58.5804 87.5275C58.5804 87.6433 58.4644 87.7591 58.4644 87.7591L56.2604 86.2539Z" fill="#2B7DBA"/>
<path d="M50.1113 92.6216C51.0393 91.5796 52.0833 90.6534 53.1273 89.7272L54.8673 87.9905C55.4473 87.4116 56.0273 86.8327 56.3753 86.1381L58.6953 87.6432C58.4633 88.1063 58.2313 88.5694 57.8833 88.9167L57.4193 89.4956L56.8393 90.0745L55.2153 91.9269C54.5193 92.7374 53.7073 93.432 53.0113 94.2425L50.1113 92.6216Z" fill="#FF1A3D"/>
<path d="M53.012 94.2428C52.664 94.5902 52.316 95.0533 51.968 95.4006C49.764 97.7161 47.676 100.032 45.82 102.579C43.848 105.01 41.992 107.441 40.252 110.104C38.512 112.651 37.12 115.314 35.844 118.093C34.684 120.872 33.756 123.766 33.408 126.776C33.176 128.281 33.176 129.786 33.292 131.407C33.292 131.755 33.292 132.218 33.408 132.565C33.408 132.912 33.524 133.26 33.64 133.491C33.872 134.07 34.452 134.533 35.264 134.765V135.112C34.452 135.112 33.524 134.649 33.06 133.954C32.596 133.26 32.364 132.449 32.248 131.639C31.9 130.018 31.668 128.397 31.668 126.776C31.668 123.534 32.248 120.293 33.292 117.167C35.38 111.031 39.092 105.473 43.152 100.379C45.24 97.8319 47.444 95.4006 49.648 93.0851C49.764 92.9693 49.996 92.7377 50.112 92.6219L53.012 94.2428Z" fill="#2B7DBA"/>
<path d="M24.4766 160.815C25.6366 158.383 27.0286 155.952 29.0006 154.1C29.9286 153.174 31.0886 152.363 32.3646 151.9C33.6406 151.437 35.0326 151.205 36.4246 151.205L36.3086 151.321C37.1206 149.816 38.0486 148.427 39.2086 147.153C40.3686 145.88 41.5286 144.722 42.9206 143.68L42.8046 143.796C43.8486 141.248 45.1246 138.817 46.4006 136.386C47.6766 133.955 49.0686 131.639 50.5766 129.323C53.4766 124.692 56.7246 120.177 60.2046 116.009L60.4366 116.125C59.7406 117.398 59.0446 118.556 58.3486 119.714L56.2606 123.303C54.8686 125.619 53.4766 128.05 52.2006 130.365C50.8086 132.681 49.6486 135.112 48.3726 137.544C47.0966 139.975 45.9366 142.406 44.8926 144.722L44.6606 145.301L44.1966 145.648C42.9206 146.574 41.8766 147.616 40.7166 148.658C40.1366 149.237 39.6726 149.816 39.2086 150.395C38.7446 150.974 38.2806 151.668 37.9326 152.247L37.2366 153.289L36.3086 153.174C33.9886 152.826 31.7846 153.521 29.8126 155.142C28.8846 155.952 27.8406 156.763 27.0286 157.805C26.2166 158.847 25.4046 159.889 24.5926 161.046L24.4766 160.815Z" fill="#226A9F"/>
<path d="M80.6201 96.9056C80.7361 96.6741 80.7361 96.3267 80.8521 96.0952C81.3161 94.8216 81.7801 93.6639 82.4761 92.5061C83.6361 90.3063 84.9121 88.2223 86.1881 86.1383C88.7401 82.0861 91.4081 78.2655 93.4961 74.0975C95.5841 70.0453 97.2081 65.53 96.6281 60.7831L96.9761 60.6674C97.5561 62.9829 97.5561 65.4142 97.0921 67.8455C96.7441 70.1611 95.9321 72.4766 95.0041 74.6764C93.1481 79.0759 90.7121 83.2439 88.2761 87.2961C87.1161 89.3801 85.9561 91.4641 84.9121 93.5481C84.3321 94.8216 83.7521 96.211 83.4041 97.6003L80.6201 96.9056Z" fill="#2B7DBA"/>
<path d="M82.592 106.631C82.476 106.978 82.476 107.325 82.36 107.557C81.896 109.872 81.2 112.188 80.504 114.503C79.112 119.019 77.256 123.534 75.168 127.818C73.08 132.102 70.644 136.27 67.628 139.974C66.12 141.827 64.496 143.679 62.64 145.184C61.712 145.995 60.668 146.69 59.624 147.268C58.58 147.847 57.42 148.31 56.376 148.774C54.172 149.7 52.084 150.742 49.996 152.015C48.952 152.71 48.024 153.405 47.328 154.215C46.98 154.678 46.632 155.141 46.284 155.604C45.936 156.067 45.356 156.415 44.776 156.646L44.892 156.415C44.66 158.036 43.964 159.541 43.268 160.93C42.456 162.319 41.644 163.709 40.6 164.867C38.512 167.298 36.076 169.498 33.524 171.35L33.292 171.119C35.728 169.035 37.816 166.719 39.556 164.172C40.484 162.898 41.18 161.625 41.76 160.235C42.108 159.541 42.34 158.846 42.572 158.152C42.688 157.804 42.804 157.457 42.804 157.109C42.92 156.762 42.92 156.415 42.92 156.183V155.257L44.08 154.678C44.312 154.562 44.428 154.447 44.544 154.447C44.66 154.331 44.66 154.331 44.776 154.215C45.008 153.984 45.356 153.289 45.82 152.71C46.748 151.552 47.792 150.626 48.836 149.931C50.924 148.426 53.128 147.268 55.448 146.226L57.072 145.416C57.536 145.184 58 144.953 58.348 144.721C59.16 144.142 60.088 143.564 60.784 142.869C62.408 141.48 63.8 139.859 65.192 138.006C70.528 130.828 74.356 122.145 77.372 113.461C78.068 111.262 78.648 109.062 79.228 106.862C79.344 106.399 79.46 106.052 79.46 105.589L82.592 106.631Z" fill="#2B7DBA"/>
<path d="M79.46 105.704C79.576 105.01 79.692 104.315 79.808 103.736C79.924 103.157 79.924 102.694 79.924 102.231C79.924 101.768 79.924 101.536 79.924 100.494C79.924 99.2209 80.156 98.0631 80.504 97.0211L83.404 97.8316C83.172 98.642 83.056 99.5682 83.056 100.494C83.172 102.578 82.94 104.662 82.592 106.746L79.46 105.704Z" fill="#FF1A3D"/>
<path d="M56.0286 113.346L57.7686 113.925C58.2326 114.156 58.6966 114.388 59.1606 114.619C59.6246 114.851 60.0886 115.198 60.5526 115.546C61.0166 115.893 61.4806 116.356 61.8286 116.935C61.1326 117.166 60.4366 117.166 59.8566 117.166C59.2766 117.051 58.5806 116.935 58.1166 116.588C57.5366 116.24 57.0726 115.893 56.6086 115.314C56.2606 114.735 55.9126 114.156 56.0286 113.346Z" fill="#226A9F"/>
<path d="M38.0481 65.7613C37.8161 64.372 37.2361 63.0984 36.5401 61.9406C36.1921 61.3618 35.8441 60.6671 35.4961 60.3198C35.0321 59.7409 34.6841 59.3935 34.2201 59.0462C33.2921 58.4673 32.3641 58.3515 31.4361 58.5831C30.9721 58.6989 30.3921 58.9304 29.9281 59.162C29.4641 59.3935 28.8841 59.8567 28.6521 60.0882L27.8401 60.7829L26.2161 60.204C25.8681 60.0882 25.2881 59.8567 24.7081 59.8567C24.1281 59.7409 23.6641 59.7409 23.2001 59.7409C22.2721 59.7409 21.4601 60.0882 20.8801 60.5513C20.3001 61.0144 19.7201 61.7091 19.2561 62.6353C18.7921 63.5615 18.5601 64.6035 18.3281 65.7613L17.8641 67.6137L15.7761 68.0768C15.6601 68.0768 15.4281 68.1926 15.1961 68.1926C14.9641 68.3084 14.7321 68.3084 14.5001 68.4242C14.0361 68.5399 13.6881 68.7715 13.2241 69.003C12.4121 69.4662 11.9481 69.9293 11.6001 70.5082C11.2521 71.087 11.0201 71.6659 11.0201 72.4764C11.0201 73.2868 11.1361 74.213 11.4841 75.255L12.1801 77.2232L10.6721 78.381C10.6721 78.381 10.3241 78.7283 10.2081 78.8441C10.0921 79.0757 9.86013 79.1914 9.74413 79.423C9.39613 79.8861 9.16413 80.2334 9.04813 80.6965C8.70013 81.507 8.58413 82.3174 8.81613 83.0121C9.16413 83.7068 9.62813 84.5172 10.4401 85.4434C11.1361 86.2539 12.1801 86.9485 13.2241 87.5274C15.4281 88.6852 17.9801 89.2641 20.6481 89.3798C21.9241 89.3798 23.3161 89.3798 24.5921 89.0325C25.2881 88.9167 25.8681 88.6852 26.4481 88.3379C27.0281 87.9905 27.4921 87.5274 27.6081 86.9485H27.9561C27.9561 87.759 27.4921 88.4536 26.9121 88.9167C26.3321 89.3798 25.6361 89.7272 25.0561 89.9587C23.6641 90.5376 22.2721 90.7692 20.8801 90.8849C17.9801 91.1165 15.0801 90.7692 12.4121 89.6114C11.0201 89.0325 9.86013 88.3378 8.70013 87.2959C7.65613 86.3696 6.72813 85.0961 6.26413 83.7068C5.80013 82.3174 5.91613 80.6966 6.38013 79.3072C6.84413 77.9179 7.65613 76.6444 8.70013 75.6024L8.58413 75.9497C8.12013 74.7919 7.88813 73.4026 7.77213 72.129C7.77213 70.8555 8.00413 69.4662 8.81613 68.3084C9.51213 67.1506 10.5561 66.3402 11.7161 65.6455C12.8761 65.0666 14.1521 64.6035 15.4281 64.372L15.0801 64.8351C15.4281 63.4457 15.7761 62.1722 16.4721 60.8986C17.1681 59.6251 18.0961 58.5831 19.2561 57.7727C20.4161 56.9622 21.9241 56.7307 23.3161 56.8464C24.7081 56.9622 26.1001 57.3096 27.3761 57.8884H27.1441C28.4201 57.078 29.6961 56.4991 31.2041 56.3833C32.7121 56.2676 34.2201 56.7307 35.2641 57.7727C36.3081 58.8147 37.0041 60.0882 37.4681 61.4775C37.9321 62.8669 38.3961 64.2562 38.2801 65.7613H38.0481Z" fill="#FF1A3D"/>
<path d="M35.4969 72.7084C34.2209 72.7084 33.2929 72.361 32.4809 71.7822C31.6689 71.319 30.8569 70.6244 30.2769 69.9297C29.6969 69.1193 29.2329 68.3088 29.0009 67.2668C28.7689 66.3406 28.6529 65.1829 29.0009 64.0251L29.2329 63.9093C30.0449 65.5302 30.9729 67.0353 32.1329 68.4246C33.1769 69.8139 34.4529 71.2033 35.7289 72.4768L35.4969 72.7084Z" fill="#A10029"/>
<path d="M28.5365 79.4231C27.1445 79.1915 25.9845 78.7284 24.9405 78.0338C23.8965 77.4549 22.9685 76.7602 22.1565 75.9498C21.3445 75.1393 20.5325 74.2131 19.9525 73.1711C19.3725 72.1291 18.7925 71.0871 18.5605 69.6978L18.6765 69.582C20.4165 71.0871 22.0405 72.708 23.7805 74.3289C25.4045 75.9498 27.0285 77.5707 28.6525 79.3073L28.5365 79.4231Z" fill="#A10029"/>
<path d="M27.4924 85.9066C27.4924 86.0224 27.4924 86.1382 27.3764 86.1382C27.2604 86.2539 27.2604 86.3697 27.1444 86.4855C26.9124 86.6013 26.7964 86.7171 26.5644 86.8328C26.1004 87.0644 25.7524 87.0644 25.2884 87.1802C24.4764 87.2959 23.6644 87.1802 22.9684 87.0644C21.4604 86.8328 20.1844 86.2539 18.9084 85.5593C17.6324 84.8646 16.5884 84.0542 15.5444 83.0122C14.5004 81.9702 13.6884 80.8124 13.1084 79.4231L13.2244 79.1915C15.4284 80.8124 17.6324 82.2017 20.0684 83.4753C21.2284 84.17 22.3884 84.7488 23.6644 85.2119C24.2444 85.4435 24.9404 85.6751 25.5204 85.7908C26.1004 85.9066 26.9124 86.0224 27.3764 85.5593L27.4924 85.9066Z" fill="#A10029"/>
<path d="M35.496 72.7081C32.828 70.2768 30.508 67.4982 29 64.1406H29.116C29.812 64.8353 30.392 65.4142 30.972 66.1088C31.552 66.8035 32.132 67.4982 32.596 68.077C33.06 68.7717 33.64 69.4664 34.104 70.161C34.8 70.8557 35.264 71.6661 35.496 72.7081Z" fill="#D4002A"/>
<path d="M28.5365 79.4231L23.5485 74.5605L18.5605 69.6978L18.6765 69.582C19.8365 70.0451 20.7645 70.7398 21.6925 71.4345C22.6205 72.1291 23.4325 72.9396 24.3605 73.75C25.1725 74.5605 25.9845 75.3709 26.6805 76.2971C27.4925 77.2233 28.1885 78.2653 28.5365 79.4231Z" fill="#D4002A"/>
<path d="M27.4924 85.9067C26.9124 86.4856 26.1004 86.3698 25.5204 86.254C24.8244 86.1382 24.2444 85.9067 23.5484 85.6751C22.2724 85.212 21.1124 84.6331 19.8364 83.9385C17.5164 82.5491 15.1964 81.1598 13.1084 79.4231L13.2244 79.3074C15.7764 80.3494 18.0964 81.6229 20.5324 82.8965C21.6924 83.5911 22.8524 84.17 24.0124 84.7489C24.5924 85.0962 25.1724 85.3278 25.7524 85.5593C26.2164 85.7909 26.7964 86.1382 27.4924 85.9067Z" fill="#D4002A"/>
<path d="M103.589 113.461C102.313 111.956 101.153 110.451 99.9929 108.83C98.9489 107.209 98.0209 105.473 97.3249 103.62C97.2089 103.157 96.9769 102.694 96.8609 102.231C96.7449 101.768 96.8609 101.189 97.0929 100.726C97.5569 99.7997 98.1369 98.9893 98.8329 98.2946C100.225 96.9053 101.849 95.7475 103.473 94.5897L103.357 94.7055C103.241 92.1584 102.545 89.6113 101.617 87.18C100.689 84.7487 99.1809 82.5489 97.4409 80.6965L97.5569 80.5807C98.7169 81.2754 99.6449 82.3174 100.457 83.2436C101.385 84.2856 102.081 85.4433 102.661 86.6011C103.241 87.8747 103.821 89.0324 104.169 90.4218C104.517 91.8111 104.865 93.0846 104.981 94.474V95.2844L104.285 95.7475C102.777 96.7895 101.269 97.9473 99.9929 99.2208C99.4129 99.7997 98.8329 100.494 98.4849 101.073C98.3689 101.189 98.3689 101.305 98.3689 101.421V101.536V101.768C98.3689 101.768 98.3689 101.536 98.3689 101.652V101.768V101.884L98.4849 102.231C98.4849 102.463 98.6009 102.694 98.6009 102.926C99.0649 104.662 99.8769 106.399 100.689 108.136C101.153 108.946 101.501 109.872 102.081 110.683C102.545 111.493 103.009 112.419 103.589 113.23V113.461Z" fill="#A10029"/>
<path d="M107.764 72.1289C108.924 72.3605 109.968 73.0551 110.78 73.9813C111.592 74.7918 112.288 75.8338 112.752 76.9916C113.796 79.1913 114.26 81.5069 114.608 83.8224C114.956 86.138 115.072 88.5693 115.188 90.8848L115.304 94.4739C115.304 95.6317 115.304 96.7895 115.536 97.9472C115.652 99.7997 115.536 101.652 115.188 103.389C114.84 105.125 114.028 106.862 112.984 108.367C111.824 109.757 110.316 110.914 108.808 111.84C107.3 112.767 105.56 113.461 103.704 113.461V113.23C105.444 112.767 106.952 111.84 108.344 110.914C109.04 110.335 109.62 109.872 110.316 109.178L110.78 108.715L111.012 108.483L111.244 108.251C111.476 107.904 111.708 107.673 111.94 107.325C112.752 106.052 113.216 104.547 113.564 102.926C113.68 102.115 113.796 101.305 113.796 100.494C113.796 99.6839 113.796 98.7577 113.68 98.1788V98.4103C113.448 97.5999 113.448 97.021 113.332 96.3263C113.332 95.7475 113.216 95.0528 113.216 94.4739V90.8848C113.1 88.5693 113.216 86.2537 112.984 84.054C112.868 81.7384 112.52 79.5387 111.824 77.4547C111.36 76.4127 110.896 75.4864 110.2 74.5602C110.084 74.3287 109.852 74.0971 109.736 73.8656C109.62 73.634 109.388 73.4025 109.156 73.2867C108.692 72.9393 108.344 72.592 107.764 72.3605V72.1289Z" fill="#FF1A3D"/>
<path d="M97.6719 80.6965C98.7159 78.6125 99.9919 76.6443 101.616 74.9077C102.428 74.0972 103.356 73.2868 104.4 72.7079C105.444 72.129 106.72 71.8975 107.88 72.129V72.2448C106.72 72.3606 105.792 72.9395 104.864 73.5183C104.052 74.0972 103.24 74.9077 102.544 75.7181C101.732 76.5286 101.036 77.339 100.34 78.1494C99.4119 78.9599 98.5999 79.8861 97.6719 80.6965Z" fill="#D91A3D"/>
<path d="M73.4277 94.4742C74.4717 94.8216 75.3997 95.2847 76.4437 95.632C78.7637 96.4425 81.0837 97.1371 83.4037 97.8318V97.9476C82.1277 97.716 80.9677 97.4845 79.8077 97.2529C78.6477 96.9056 77.3717 96.674 76.2117 96.3267C75.3997 96.0951 74.5877 95.8636 73.7757 95.5162L73.4277 94.4742Z" fill="#D91A3D"/>
<path d="M63.9162 91.2325C63.4522 91.001 63.1042 90.7694 62.6402 90.5379C61.5962 89.959 60.5522 89.2643 59.5082 88.6854C58.4642 87.9908 57.4202 87.2961 56.4922 86.4856V86.3699C58.5802 87.6434 60.6682 88.917 62.8722 89.959C63.5682 90.3063 64.1482 90.6536 64.8442 90.8852L63.9162 91.2325Z" fill="#D91A3D"/>
<path d="M60.6673 98.0635C59.7393 97.6004 58.9273 97.253 57.9993 96.7899C55.3313 95.5164 52.6633 94.1271 50.1113 92.7377V92.6219C51.5033 93.2008 52.8953 93.7797 54.1713 94.3586L58.2313 96.0953C59.0433 96.4426 59.7393 96.7899 60.5513 97.1373L60.6673 98.0635Z" fill="#A10029"/>
<path d="M71.1091 101.884C72.2691 102.347 73.4291 102.81 74.5891 103.389C75.9811 103.968 77.2571 104.547 78.6491 105.126C80.0411 105.705 81.4331 106.168 82.8251 106.747V106.862C79.9251 106.052 77.1411 105.126 74.3571 104.084C73.0811 103.621 71.6891 103.042 70.4131 102.463L71.1091 101.884Z" fill="#A10029"/>
<path d="M89.668 38.2064C86.072 38.5538 82.476 39.3642 79.112 40.6377C77.372 41.3324 75.748 42.1428 74.24 43.1848C72.732 44.1111 71.224 45.2688 69.948 46.5424C65.656 44.5742 61.248 42.7217 56.84 40.8693C54.636 39.9431 52.432 39.1326 50.228 38.3222C48.024 37.5118 45.704 36.7013 43.5 36.1224C48.14 37.1644 52.664 38.9011 57.072 40.522C61.48 42.2586 65.888 44.1111 70.18 46.0793L69.6 46.1951C70.992 44.8057 72.384 43.7637 74.008 42.7217C75.632 41.6797 77.256 40.9851 78.996 40.2904C80.736 39.5958 82.476 39.1326 84.332 38.7853C85.956 38.438 87.812 38.2064 89.668 38.2064Z" fill="#FF9C03"/>
<path d="M80.7359 34.27C80.3879 35.0805 80.0399 35.6593 79.4599 36.2382C78.9959 36.8171 78.4159 37.396 77.7199 37.8591C77.0239 38.3222 76.4439 38.7853 75.7479 39.1327C75.0519 39.48 74.3559 39.8273 73.5439 39.9431C74.9359 39.2484 76.2119 38.438 77.3719 37.396C78.6479 36.4698 79.8079 35.4278 80.7359 34.27Z" fill="#FF9C03"/>
<path d="M51.9678 32.765C52.6638 33.807 53.4758 34.849 54.4038 35.6594C55.3318 36.5857 56.3758 37.3961 57.4198 38.0908C56.7238 37.8592 56.1438 37.6277 55.5638 37.2803C54.9838 36.933 54.5198 36.4699 54.0558 36.1226C53.5918 35.6594 53.1278 35.1963 52.7798 34.6175C52.3158 34.0386 52.0838 33.4597 51.9678 32.765Z" fill="#FF9C03"/>
<path d="M51.9685 23.7344C51.8525 22.9239 51.8525 22.1135 51.8525 21.303C51.8525 19.4506 52.3165 17.5982 53.1285 15.9773H53.2445C52.5485 17.714 52.2005 19.4506 52.3165 21.303C52.3165 22.1135 52.4325 22.8081 52.5485 23.6186L51.9685 23.7344Z" fill="#EAC38F"/>
<path d="M52.5478 23.6184C52.5478 23.7342 52.5478 23.85 52.6638 23.9657C52.8958 24.7762 53.1278 25.7024 53.4758 26.3971V26.5128C54.0558 28.3653 54.7518 30.2177 55.5638 32.0701L54.5198 31.9544C53.9398 30.2177 53.3598 28.4811 52.7798 26.7444C52.4318 25.8182 52.0838 24.7762 51.9678 23.85L52.5478 23.6184Z" fill="#1A3F40"/>
<path d="M55.5643 31.9545C55.5643 32.0703 55.6803 32.1861 55.6803 32.3019C56.4923 34.2701 57.3043 36.1225 58.3483 37.8592C58.5803 38.3223 58.9283 38.7854 59.1603 39.1327C59.3923 39.3643 59.3923 39.4801 59.5083 39.5958C59.6243 39.7116 59.8563 39.8274 59.9723 39.9432C60.6683 40.4063 61.7123 40.7536 62.6403 40.9852C64.4963 41.4483 66.7003 41.7956 68.4403 41.4483C70.1803 40.9852 72.0363 39.9432 73.6603 38.6696C74.4723 38.0907 75.1683 37.3961 75.7483 36.5856C75.8643 36.3541 75.9803 36.2383 76.0963 36.0068C76.0963 35.891 76.0963 35.891 76.2123 35.7752V35.6594V35.4279C76.3283 34.9648 76.4443 34.3859 76.4443 33.9228C76.6763 31.723 76.6763 29.4074 76.6763 27.0919L77.1403 26.8604C77.3723 29.1759 77.3723 31.6072 77.2563 33.9228C77.2563 34.5016 77.1403 34.9648 77.0243 35.5436C77.0243 36.1225 76.7923 36.5856 76.4443 37.0487C75.8643 37.975 75.0523 38.6696 74.2403 39.3643C72.6163 40.6378 70.7603 41.9114 68.6723 42.3745C66.5843 42.7218 64.3803 42.4903 62.2923 42.0272C61.2483 41.7956 60.2043 41.3325 59.2763 40.7536C58.8123 40.5221 58.3483 40.059 58.1163 39.5958C57.7683 39.1327 57.5363 38.6696 57.3043 38.2065C56.1443 36.1225 55.2163 33.9228 54.4043 31.6072L55.5643 31.9545Z" fill="#EAC38F"/>
<path d="M76.5599 27.323C76.5599 25.3548 76.3279 23.5024 76.2119 21.5342H76.3279C76.5599 23.3866 76.7919 25.2391 77.0239 27.0915L76.5599 27.323Z" fill="#1A3F40"/>
<path d="M77.9519 6.4837C77.6039 7.64147 76.9079 8.68347 75.9799 9.37813C75.0519 10.0728 73.8919 10.5359 72.7319 10.7675C71.5719 10.999 70.2959 10.999 69.1359 10.999C67.9759 10.999 66.8159 10.999 65.6559 11.1148C63.3359 11.2306 61.0159 11.4621 58.6959 12.041C57.5359 12.3883 56.4919 12.7357 55.5639 13.4303C54.5199 14.125 53.7079 15.0512 53.3599 16.0932L53.1279 15.9774C53.1279 14.7039 53.8239 13.4303 54.7519 12.3883C55.6799 11.4621 56.9559 10.7675 58.1159 10.3043C60.5519 9.26235 62.9879 9.0308 65.4239 8.79924C66.5839 8.79924 67.8599 8.79924 69.0199 8.79924L70.7599 8.91502C71.2239 8.91502 71.8039 8.91502 72.2679 8.91502C73.1959 8.91502 74.2399 8.68346 75.1679 8.33613C76.0959 8.10458 77.0239 7.40992 77.7199 6.36792L77.9519 6.4837Z" fill="#804C36"/>
<path d="M53.1286 16.2088C51.1566 15.3984 49.5326 14.009 48.0246 12.5039C46.6326 10.9988 45.2406 9.26218 44.6606 7.06241C44.3126 6.02042 44.4286 4.74687 45.2406 3.82065C45.7046 3.35754 46.1686 3.12599 46.6326 2.89443L48.1406 2.31554C50.2286 1.73666 52.2006 1.15777 54.2886 0.694663C56.3766 0.231554 58.4646 0 60.6686 0C62.7566 0 65.0766 0.463109 66.8166 1.73666C68.6726 2.89443 70.2966 4.16798 72.0366 5.32575C72.9646 5.90464 73.7766 6.36775 74.8206 6.5993C75.8646 6.83086 76.9086 6.71508 77.8366 6.36775L77.9526 6.71508C77.4886 7.06241 77.0246 7.40974 76.4446 7.52552C75.8646 7.75707 75.2846 7.75707 74.5886 7.75707C73.3126 7.75707 72.1526 7.29397 71.1086 6.94663C69.0206 6.02042 67.1646 4.97842 65.4246 4.16798L64.7286 3.82065C64.4966 3.70487 64.3806 3.70487 64.1486 3.70487C63.8006 3.47332 63.4526 3.47332 63.1046 3.35754C62.2926 3.24176 61.4806 3.24176 60.6686 3.24176C58.9286 3.35754 57.0726 3.58909 55.1006 4.0522C53.1286 4.39953 51.2726 4.97842 49.3006 5.55731L47.9086 5.90464C47.6766 5.90464 47.5606 6.02042 47.5606 6.02042V5.90464C47.4446 5.90464 47.4446 6.13619 47.4446 6.48352C47.4446 7.06241 47.7926 7.87285 48.1406 8.79907C48.4886 9.60951 48.9526 10.42 49.5326 11.3462C50.5766 12.967 51.8526 14.5879 53.4766 16.093L53.1286 16.2088Z" fill="#85523D"/>
<path d="M61.9434 35.891C63.6834 35.5437 65.3074 35.1963 67.0474 34.7332C68.7874 34.3859 70.4114 33.9228 72.1514 33.5754C70.5274 34.3859 68.9034 34.849 67.1634 35.3121C66.3514 35.5437 65.4234 35.6594 64.6114 35.7752C63.6834 35.7752 62.7554 35.891 61.9434 35.891Z" fill="#966B40"/>
<path d="M28.8844 89.0328C27.2604 87.2962 26.7964 84.7491 27.2604 82.4335C27.7244 80.118 28.8844 78.034 30.5084 76.2973C31.3204 75.4869 32.2484 74.6764 33.1764 74.0976C34.1044 73.4029 35.1484 72.824 35.8444 72.0136C37.4684 70.3927 37.9324 67.9614 38.0484 65.7616H38.2804C38.6284 66.9194 38.7444 68.1929 38.7444 69.4665C38.6284 70.74 38.1644 72.1293 37.2364 73.2871C36.3084 74.4449 35.2644 75.1396 34.4524 75.8342C33.6404 76.5289 32.8284 77.1078 32.2484 77.8024C31.5524 78.4971 30.9724 79.3075 30.5084 80.118C29.9284 80.9284 29.5804 81.8546 29.1164 82.6651C28.4204 84.4017 28.3044 86.4857 29.1164 88.6855L28.8844 89.0328Z" fill="#FF1A3D"/>
<path d="M38.164 64.4878C40.252 66.2245 41.992 68.4242 42.804 71.0871C43.616 73.75 43.5 76.7602 41.876 79.0757C41.412 79.6546 40.948 80.1177 40.252 80.465C39.672 80.6966 39.092 81.0439 38.512 81.3913C37.352 82.0859 36.308 82.8964 35.264 83.8226C33.176 85.5592 31.088 87.2959 29.116 89.1483L29 89.0326C30.392 86.6012 32.248 84.5173 34.22 82.549C35.148 81.507 36.308 80.6966 37.468 79.7704C37.816 79.5388 38.048 79.3073 38.396 79.1915C38.628 79.0757 38.744 78.9599 38.976 78.8442L39.324 78.7284H39.44H39.556C39.672 78.6126 40.02 78.3811 40.252 78.0337C40.832 77.3391 41.18 76.2971 41.296 75.2551C41.528 74.2131 41.412 73.0553 41.296 71.8975C40.948 69.582 39.788 67.2664 38.164 64.9509V64.4878Z" fill="#A10029"/>
<path d="M72.5005 93.5479C73.3125 93.8952 73.8925 94.5898 74.1245 95.4003C74.3565 96.2107 74.1245 97.1369 73.7765 97.8316L72.7325 100.147C72.3845 100.842 72.1525 101.768 71.4565 102.347C70.7605 102.926 69.9485 103.273 69.0205 103.157C68.5565 103.157 68.2085 102.926 67.7445 102.694L66.5845 102.115L62.0605 99.9156V99.7998C62.8725 99.9156 63.6845 100.263 64.4965 100.494L66.9325 101.305C67.2805 101.421 67.7445 101.536 68.0925 101.768L68.4405 101.884L68.6725 102C68.7885 102 68.9045 102 69.1365 102.115C69.7165 102.115 70.2965 102 70.6445 101.536C70.8765 101.305 70.9925 101.189 71.1085 100.842L71.6885 99.684C72.1525 98.9894 72.5005 98.1789 72.9645 97.4843C73.1965 97.1369 73.3125 96.7896 73.4285 96.5581C73.5445 96.2107 73.5445 95.8634 73.5445 95.5161C73.4285 94.9372 73.0805 94.2425 72.5005 93.5479Z" fill="#DD4F00"/>
<path d="M62.0602 100.147C61.2482 99.7998 60.6682 99.1051 60.4362 98.1789C60.2042 97.3685 60.4362 96.4423 60.7842 95.7476L61.8282 93.432C62.1762 92.7374 62.4082 91.8112 63.1042 91.2323C63.8002 90.6534 64.6122 90.3061 65.5402 90.4218C66.0042 90.4218 66.3522 90.6534 66.8162 90.885L67.9762 91.4638L72.5002 93.6636V93.7794C71.6882 93.6636 70.8762 93.3163 70.0642 93.0847L67.6282 92.2743C67.2802 92.1585 66.8162 92.0427 66.4682 91.8112L66.1202 91.6954L65.8882 91.5796C65.7722 91.5796 65.6562 91.5796 65.4242 91.4638C64.8442 91.4638 64.2642 91.5796 63.9162 92.0427C63.6842 92.2743 63.5682 92.3901 63.4522 92.7374L62.8722 93.8952C62.4082 94.5898 62.0602 95.4003 61.5962 96.0949C61.3642 96.4423 61.2482 96.7896 61.1322 97.0212C61.0162 97.3685 61.0162 97.7158 61.0162 98.0631C61.0162 98.7578 61.3642 99.4525 62.0602 100.147Z" fill="#FF9C03"/>
<path d="M80.6643 54.6132C80.0347 54.6132 79.657 55.2415 79.657 55.7442C79.657 55.9955 79.7829 56.2469 80.0347 56.4982C78.3979 58.1319 76.3833 59.263 74.2427 59.8913C71.4727 57.5036 70.4654 55.4928 70.0876 54.1105C70.4654 53.9848 70.7172 53.4821 70.7172 53.1051C70.7172 52.4767 70.0876 52.0997 69.584 52.0997C68.9544 52.0997 68.5767 52.7281 68.5767 53.2308C68.5767 53.7335 68.9544 54.1105 69.3321 54.1105C69.2062 55.3672 68.7026 57.3779 66.688 59.8913C66.5621 60.017 66.4362 60.2683 66.1843 60.394C63.9179 60.2683 61.7774 59.3886 59.8887 58.1319C60.0146 57.8806 60.1405 57.6293 60.1405 57.3779C60.1405 56.7496 59.511 56.3725 59.0073 56.3725C58.3777 56.3725 58 57.0009 58 57.5036C58 58.1319 58.6296 58.509 59.1332 58.509C59.2591 58.509 59.385 58.5089 59.385 58.3833C60.6442 60.5197 61.5256 62.7818 62.0292 65.4209C63.9179 63.9128 66.688 62.6561 70.3394 62.2791C73.9909 61.9021 76.8869 62.6561 79.0274 63.7871C79.1533 61.148 79.5311 58.6346 80.4125 56.3725C80.5384 56.3725 80.6643 56.3725 80.7902 56.3725C81.4198 56.3725 81.7975 55.7442 81.7975 55.2415C81.6716 54.9902 81.1679 54.4875 80.6643 54.6132Z" fill="#F4F4F4"/>
<path d="M62.072 67.3536C61.4424 68.8617 61.6943 70.1184 61.6943 70.1184C61.9461 72.6318 64.2125 74.5169 66.7308 74.3912C69.249 74.1398 71.0118 72.0034 71.0118 69.6157C71.1377 73.2601 69.249 76.5276 66.2271 78.1613L71.7673 77.6586L77.3074 77.1559C74.0337 76.0249 71.5155 73.2601 71.0118 69.6157C71.3896 72.0034 73.5301 73.7628 76.0483 73.6372C78.5666 73.3858 80.4553 71.1237 80.3294 68.6103C80.3294 68.6103 80.3294 67.4793 79.448 65.9712C77.1815 64.7145 74.1596 63.8348 70.5082 64.2118C66.9826 64.3375 64.0866 65.7199 62.072 67.3536Z" fill="#F4F4F4"/>
<path d="M62.072 67.3536C61.4424 68.8617 61.6943 70.1184 61.6943 70.1184C61.9461 72.6318 64.2125 74.5169 66.7308 74.3912C69.249 74.1398 71.0118 72.0034 71.0118 69.6157C71.1377 73.2601 69.249 76.5276 66.2271 78.1613L71.7673 77.6586L77.3074 77.1559C74.0337 76.0249 71.5155 73.2601 71.0118 69.6157C71.3896 72.0034 73.5301 73.7628 76.0483 73.6372C78.5666 73.3858 80.4553 71.1237 80.3294 68.6103C80.3294 68.6103 80.3294 67.4793 79.448 65.9712C77.1815 64.7145 74.1596 63.8348 70.5082 64.2118C66.9826 64.3375 64.0866 65.7199 62.072 67.3536Z" fill="url(#paint0_linear)"/>
</g>
<defs>
<linearGradient id="paint0_linear" x1="70.9899" y1="64.1238" x2="76.9072" y2="80.484" gradientUnits="userSpaceOnUse">
<stop offset="0.333333" stop-color="white"/>
<stop offset="1" stop-color="#D0D0D0"/>
</linearGradient>
</defs>
</svg>
