<svg width="30" height="30" fill="none" xmlns="http://www.w3.org/2000/svg">
  <g clip-path="url(#american-express-color-30px__clip0)">
    <path d="M28 0H2a2 2 0 00-2 2v26a2 2 0 002 2h26a2 2 0 002-2V2a2 2 0 00-2-2z" fill="#006FCF"/>
    <path d="M19.345 8.987c-.093.072-.102.174-.132.262-.548 1.495-1.102 2.986-1.64 4.486-.069.185-.151.243-.346.238a16.274 16.274 0 00-1.19 0c-.198.01-.29-.053-.363-.247-.549-1.53-1.112-3.05-1.675-4.574-.03-.078-.035-.175-.132-.243v2.452c0 .801-.005 1.602.005 2.399 0 .17-.043.218-.213.213a37.69 37.69 0 00-1.481 0c-.166.005-.204-.053-.204-.208.005-2.263.005-4.526 0-6.789 0-.145.034-.194.189-.194.889.005 1.777.01 2.67 0 .17 0 .2.088.243.204.481 1.33.967 2.661 1.447 3.987.034.097.073.194.127.33.306-.855.602-1.67.898-2.486.223-.617.447-1.229.665-1.85.044-.131.097-.19.253-.19.864.01 1.728.01 2.597 0 .17 0 .219.049.214.219-.005 2.253-.005 4.51 0 6.764 0 .18-.068.209-.223.209-.476-.01-.957-.01-1.433 0-.184.004-.242-.044-.242-.238.01-1.496.004-2.991.004-4.487-.01-.078.015-.17-.038-.257zm-7.371 14.008c0 .131-.005.224.184.224 1.908-.005 3.817-.005 5.725 0 .16 0 .19-.059.184-.2-.01-.305-.004-.611-.004-.922 0-.52 0-.52-.51-.52-1.146 0-2.297-.005-3.443.005-.175 0-.223-.048-.213-.213a4.677 4.677 0 000-.68c-.015-.2.043-.258.247-.258 1.18.01 2.36 0 3.54.01.233.005.286-.073.277-.286-.015-.364-.02-.729 0-1.093.01-.213-.049-.267-.267-.267-1.19.01-2.375 0-3.564.01-.2 0-.248-.058-.234-.243.015-.219.02-.437 0-.655-.014-.2.04-.258.248-.258 1.229.01 2.457 0 3.686.01.174 0 .242-.03.233-.223a16.271 16.271 0 010-1.19c.01-.194-.063-.223-.238-.223-1.875.004-3.754.004-5.628 0-.204 0-.233.072-.233.247.005 1.117.005 2.229.005 3.346.01 1.131.01 2.258.005 3.38zM6.142 6.782c-.131-.005-.2.039-.253.165-.252.588-.514 1.17-.772 1.753-.738 1.67-1.476 3.35-2.219 5.026-.106.238-.102.243.16.243.56 0 1.117-.005 1.676.004.136 0 .199-.038.247-.165.146-.373.311-.743.462-1.121.048-.117.097-.175.243-.175.995.01 1.986.005 2.98 0 .142 0 .195.058.244.175.15.374.32.743.466 1.117.048.126.112.17.248.17.587-.01 1.18-.005 1.767 0 .16 0 .223-.015.14-.195-1.01-2.282-2.02-4.564-3.024-6.846-.054-.117-.122-.146-.238-.146-.355.005-.71.005-1.068.005-.345-.01-.705 0-1.059-.01zm.932 1.996c.03-.068.063-.131.107-.223.335.806.665 1.582.996 2.379H6.17c.31-.743.607-1.452.903-2.156zm13.49 14.44a.432.432 0 00.368-.174c.544-.641 1.098-1.272 1.642-1.918.13-.156.194-.18.335-.01.475.573.985 1.112 1.442 1.7.247.315.51.422.898.403.631-.034 1.267-.01 1.918-.01-.044-.131-.131-.194-.2-.272-.95-1.078-1.902-2.16-2.86-3.234-.11-.126-.13-.194-.009-.335.933-1.034 1.855-2.073 2.778-3.112.053-.064.14-.112.145-.229-.723 0-1.442.005-2.16-.005a.445.445 0 00-.374.166c-.52.616-1.059 1.223-1.578 1.84-.117.14-.17.121-.282-.005-.53-.622-1.068-1.238-1.598-1.855a.369.369 0 00-.31-.145c-.704.004-1.409 0-2.113.004-.048 0-.116-.029-.16.059.088.097.175.199.262.3.899 1.01 1.792 2.02 2.695 3.02.122.137.112.205-.005.336-.655.723-1.3 1.461-1.951 2.19-.365.408-.724.82-1.127 1.272.801.01 1.52.005 2.243.015z" fill="#fff"/>
  </g>
  <defs>
    <clipPath id="american-express-color-30px__clip0">
      <path fill="#fff" d="M0 0h30v30H0z"/>
    </clipPath>
  </defs>
</svg>
