<svg width="44" height="16" fill="none" xmlns="http://www.w3.org/2000/svg">
  <path d="M11.99 3.57c-.067.053-.074.127-.095.19-.398 1.086-.8 2.169-1.192 3.258-.049.134-.109.176-.25.173a11.76 11.76 0 00-.864 0c-.144.007-.211-.039-.264-.18-.399-1.11-.808-2.214-1.217-3.322-.021-.056-.025-.126-.095-.176v1.78c0 .583-.004 1.164.003 1.743 0 .123-.031.158-.155.155-.36-.007-.715-.007-1.075 0-.12.003-.148-.039-.148-.152.003-1.643.003-3.286 0-4.93 0-.105.024-.14.137-.14.646.003 1.29.007 1.94 0 .123 0 .144.063.176.148.349.966.702 1.932 1.05 2.895.025.07.054.14.092.24.223-.621.438-1.213.653-1.806.162-.448.324-.892.483-1.343.032-.095.07-.138.183-.138.628.007 1.255.007 1.887 0 .123 0 .158.036.155.159-.004 1.636-.004 3.276 0 4.912 0 .13-.05.151-.162.151a25.582 25.582 0 00-1.04 0c-.135.004-.177-.031-.177-.172.007-1.086.004-2.172.004-3.258-.007-.057.01-.124-.029-.187zm29.711 1.523c-.035-.05-.074-.102-.109-.155-.631-.945-1.262-1.894-1.893-2.842-.05-.074-.089-.138-.201-.134-.505.007-1.009.007-1.513 0-.095 0-.13.02-.13.127.003 1.653.003 3.307 0 4.964 0 .117.042.134.14.13.364-.003.727-.006 1.094 0 .126.004.155-.038.151-.158-.007-.617-.003-1.23-.003-1.847V3.89l.134.19c.655.988 1.311 1.976 1.964 2.963.053.08.098.144.218.14.476-.006.952-.006 1.425 0 .113 0 .137-.034.137-.14-.003-1.65-.003-3.297 0-4.947 0-.113-.035-.138-.14-.134-.343.007-.681.01-1.023 0-.173-.007-.226.031-.222.215.01.966.003 1.936.003 2.902-.01.007-.021.01-.032.014zM27.1 11.948c1.315-.427 1.431-1.936.779-2.673-.346-.395-.804-.571-1.315-.578-1.016-.015-2.031-.007-3.047-.011-.102 0-.14.021-.14.134.003 1.65.003 3.297 0 4.947 0 .113.038.138.14.134.37-.003.74-.007 1.11 0 .131.004.156-.042.153-.162a72.956 72.956 0 010-1.53c0-.046-.032-.106.042-.134.152-.057.48.02.589.148.455.521.91 1.043 1.364 1.569.05.056.092.113.187.11.53-.008 1.058-.004 1.587-.008.007 0 .01-.018.021-.032-.557-.606-1.118-1.216-1.696-1.847.092-.025.159-.043.226-.067zm-2.215-1.03c-.08 0-.113-.021-.113-.11.004-.274.004-.55 0-.824-.003-.096.036-.117.124-.117.44.004.881-.003 1.319.004.211.003.412.046.546.229.117.159.13.338.05.518-.096.201-.275.286-.483.293-.24.01-.48.004-.723.004v.003a28.8 28.8 0 00-.72 0zm-1.431-5.402c-.043-.046-.085-.095-.13-.145-.047-.049-.036-.08.027-.095.04-.01.082-.017.12-.031.61-.205 1.023-.6 1.143-1.242.113-.6-.01-1.146-.483-1.572-.381-.346-.854-.455-1.354-.459-.956-.007-1.915 0-2.87-.003-.106 0-.142.024-.138.137.004 1.65.004 3.297 0 4.947 0 .11.028.141.138.138.36-.007.715-.014 1.075.003.166.008.19-.049.19-.197-.01-.494-.003-.987-.003-1.477 0-.05-.021-.11.035-.145.092-.056.48.01.554.095.462.533.924 1.065 1.386 1.594.049.056.084.127.176.127.54-.004 1.075 0 1.664 0-.529-.585-1.03-1.132-1.53-1.675zm-2.158-1.301c-.102.003-.134-.032-.13-.13.003-.265.003-.53 0-.794-.004-.095.024-.134.126-.134.466.007.928.004 1.393.007.19.004.36.064.476.226.226.31.053.723-.331.797-.286.053-.575.01-.811.024-.279 0-.501-.003-.723.004zM6.638 13.742c0 .096-.004.163.134.163a822.98 822.98 0 014.157 0c.116 0 .138-.043.134-.145-.007-.222-.004-.444-.004-.67 0-.377 0-.377-.37-.377-.832 0-1.668-.004-2.5.003-.127 0-.162-.035-.155-.155a3.38 3.38 0 000-.493c-.01-.145.032-.187.18-.187.857.007 1.714 0 2.57.007.17.003.208-.053.201-.208a8.498 8.498 0 010-.794c.008-.155-.035-.194-.194-.194-.863.007-1.724 0-2.588.007-.144 0-.18-.042-.169-.176.01-.159.014-.317 0-.476-.01-.145.028-.187.18-.187.892.007 1.784 0 2.676.007.127 0 .177-.02.17-.162a11.315 11.315 0 010-.864c.007-.14-.046-.162-.173-.162-1.361.003-2.726.003-4.087 0-.148 0-.17.053-.17.18.004.81.004 1.618.004 2.43.007.82.007 1.639.004 2.453zm7.81-6.72c0 .127.021.169.162.169 1.368-.007 2.736-.007 4.105 0 .13 0 .155-.042.151-.159a13.49 13.49 0 010-.846c.007-.152-.042-.18-.187-.18-.881.007-1.76 0-2.64.007-.149 0-.216-.024-.202-.19a2.886 2.886 0 000-.494c-.01-.137.043-.162.17-.162.863.007 1.724 0 2.588.007.144 0 .208-.021.197-.187a7.226 7.226 0 010-.829c.007-.148-.035-.183-.183-.183-.864.007-1.724 0-2.588.007-.148 0-.194-.042-.18-.187a2.489 2.489 0 000-.458c-.014-.148.039-.183.183-.183.892.007 1.784 0 2.677.007.134 0 .169-.036.165-.166-.01-.286-.01-.575 0-.864.004-.127-.024-.17-.162-.17-1.361.008-2.726.008-4.087 0-.148 0-.169.05-.169.18.004.812.004 1.619.004 2.43 0 .818.003 1.636-.004 2.45zm14.549 6.724c0 .085-.01.159.12.155a968.37 968.37 0 014.175 0c.091 0 .123-.028.12-.12-.004-.289-.011-.575.003-.864.007-.165-.032-.215-.208-.215-.885.01-1.774 0-2.659.007-.134 0-.172-.035-.162-.165a2.93 2.93 0 000-.459c-.018-.173.042-.215.212-.211.857.01 1.713 0 2.57.007.141 0 .18-.043.173-.177a11.43 11.43 0 010-.828c.007-.145-.032-.187-.18-.187-.857.007-1.714 0-2.57.007-.152 0-.226-.025-.205-.198a2.049 2.049 0 000-.44c-.014-.159.035-.205.201-.205.885.007 1.774.004 2.659.007.123 0 .176-.021.169-.162-.01-.286-.01-.575 0-.864.007-.141-.046-.162-.17-.159-1.36.004-2.725.004-4.086 0-.137 0-.162.04-.162.17.007.81.003 1.618.003 2.43-.003.828-.003 1.65-.003 2.47zM2.403 1.969c-.095-.004-.145.028-.183.12-.184.426-.374.85-.561 1.273C1.123 4.575.587 5.795.048 7.012c-.078.172-.075.175.116.175.405 0 .81-.003 1.216.004.1 0 .145-.028.18-.12.106-.271.226-.54.335-.814.035-.085.07-.127.176-.127.723.007 1.443.003 2.166 0 .102 0 .14.042.176.127.11.271.233.539.338.81.036.092.081.124.18.124.427-.007.857-.004 1.284 0 .116 0 .162-.01.102-.141C5.583 5.393 4.85 3.735 4.12 2.078c-.039-.085-.088-.106-.173-.106-.257.004-.514.004-.775.004-.25-.007-.512 0-.77-.007zm.677 1.449c.021-.05.046-.095.078-.162.243.585.483 1.15.722 1.728H2.424c.226-.54.44-1.055.656-1.566zm29.545 3.77c.095 0 .117-.053.145-.12.109-.268.222-.53.328-.797.038-.1.088-.145.204-.145.709.007 1.421.007 2.13 0 .106 0 .159.032.194.13.11.272.229.54.338.811.036.092.085.12.184.12.43-.007.857-.007 1.287 0 .155.004.14-.049.091-.155-.726-1.64-1.452-3.283-2.175-4.926-.05-.113-.11-.14-.226-.137-.486.007-.973.01-1.463 0-.145-.004-.201.05-.254.173-.56 1.28-1.125 2.556-1.69 3.832-.175.395-.348.794-.535 1.213.5 0 .97-.003 1.442 0zm2.419-2.324c.039.088.032.127-.077.123a69.873 69.873 0 00-1.217 0c-.074 0-.116-.014-.078-.099.226-.532.448-1.068.692-1.646.24.57.458 1.096.68 1.622zm5.66 3.843c-.86.032-1.446.582-1.57 1.372-.134.86.328 1.551 1.175 1.745.197.046.394.053.595.057.416.003.833 0 1.252.01a.38.38 0 01.363.236.388.388 0 01-.045.416c-.103.135-.247.17-.406.17-.874 0-1.749.003-2.623-.004-.124 0-.163.032-.16.155.008.3.005.6 0 .9 0 .088.008.14.12.14.939-.003 1.88.015 2.818-.01.97-.028 1.587-.554 1.707-1.428.084-.606-.057-1.15-.61-1.506-.321-.208-.688-.257-1.065-.26-.399-.004-.8 0-1.199 0a.726.726 0 01-.275-.043.388.388 0 01-.264-.395.39.39 0 01.3-.367c.094-.02.197-.028.295-.028.681-.003 1.361 0 2.046 0 .074 0 .148.018.19-.08.159-.36.324-.713.497-1.087-1.065 0-2.105-.028-3.142.007zm-3.604-.01c-.487 0-.973-.015-1.46.003-.96.035-1.59.652-1.643 1.583-.039.674.303 1.217.927 1.467.265.106.547.13.829.134.43.004.857-.003 1.283.01a.39.39 0 01.395.41c-.003.222-.169.388-.405.405a2.11 2.11 0 01-.159.004c-.85 0-1.703.003-2.553-.004-.12 0-.162.025-.158.152.01.303.007.61 0 .917 0 .084.017.127.116.127.945-.004 1.89.017 2.835-.011 1.044-.035 1.671-.642 1.717-1.626.025-.55-.152-1.019-.645-1.318-.321-.194-.68-.244-1.047-.247-.399-.004-.797 0-1.2 0a.731.731 0 01-.26-.039c-.184-.067-.29-.219-.279-.402a.39.39 0 01.321-.367c.092-.017.187-.024.279-.024a90.787 90.787 0 011.953.003c.176.004.275-.039.339-.211a9.12 9.12 0 01.363-.8c.067-.135.06-.177-.106-.173-.48.01-.963.003-1.446.003.004-.003.004 0 .004.004zm-24.224 5.208c.12 0 .193-.04.267-.127.395-.466.797-.924 1.192-1.393.095-.113.141-.13.244-.007.345.416.715.807 1.047 1.234.18.23.37.307.652.293.459-.025.92-.007 1.393-.007-.032-.096-.095-.141-.145-.198-.69-.783-1.382-1.569-2.076-2.348-.082-.092-.096-.141-.007-.244.676-.75 1.346-1.505 2.016-2.26.04-.046.103-.08.106-.166-.525 0-1.047.004-1.569-.003a.323.323 0 00-.271.12c-.378.448-.77.888-1.146 1.336-.085.103-.124.088-.205-.003-.384-.452-.776-.9-1.16-1.347a.268.268 0 00-.226-.106c-.511.003-1.022 0-1.534.003-.035 0-.084-.02-.116.043.064.07.127.144.19.218.653.734 1.302 1.467 1.957 2.194.089.098.082.148-.003.243-.476.525-.945 1.061-1.418 1.59-.264.296-.525.596-.818.924.582.007 1.104.004 1.63.01zm4.985-.166c0 .13.032.17.166.166.356-.011.716-.007 1.075 0 .128.003.156-.043.156-.16-.007-.461 0-.926-.004-1.388-.003-.127.039-.159.162-.155.47.007.938.003 1.407.003.201 0 .399-.007.593-.056.638-.155 1.11-.512 1.287-1.164.18-.663.091-1.284-.416-1.791-.385-.388-.875-.501-1.404-.497-.952 0-1.9.003-2.852-.004-.148 0-.17.05-.17.18.007.81.004 1.618.004 2.43 0 .803.003 1.621-.004 2.436zm1.513-2.722c-.088.003-.123-.021-.123-.117.007-.303.003-.61 0-.913 0-.092.028-.12.12-.12.461.004.927-.003 1.389.004.32.007.525.155.596.402.109.391-.127.723-.543.74-.247.01-.494.004-.74.004-.23 0-.466-.004-.699 0zm12.292-7.818c.081 0 .13-.007.127-.109-.007-.338-.003-.68 0-1.023 0-.077-.028-.102-.102-.098-.68.014-1.365-.046-2.042.039-.945.12-1.64.595-1.96 1.512-.24.684-.233 1.386-.025 2.077.211.688.666 1.16 1.34 1.418.472.18.966.176 1.46.172.077 0 .098-.053.123-.105.148-.314.29-.628.44-.938.057-.113.029-.138-.087-.138-.3.004-.6.014-.896-.021-.497-.06-.864-.293-1.033-.78a1.913 1.913 0 01-.056-1.025c.112-.557.461-.878 1.026-.963.303-.046.61-.014.863-.021.304.003.565 0 .822.003zm-4.88-1.072c0-.116-.025-.165-.152-.162-.363.007-.726.01-1.093 0-.14-.003-.162.046-.162.17.003 1.629.003 3.261 0 4.89 0 .12.025.162.152.162.363-.007.726-.01 1.093 0 .137.004.162-.045.162-.169-.007-.814-.004-1.629-.004-2.447 0-.814 0-1.629.004-2.444z" fill="#fff"/>
</svg>
