<svg width="50" height="16" fill="none" xmlns="http://www.w3.org/2000/svg">
  <path d="M3.327 2.023L0 11.773h1.955l.94-2.845h2.703l.965 2.845H8.56l-3.336-9.75H3.327zm1.797 5.283H3.377L4.11 5.16c.05-.15.1-.292.142-.433.05.15.091.3.15.458l.723 2.12zm6.722.022c-.898-.357-.998-.524-.998-.781 0-.333.274-.533.723-.533.524 0 .94.208 1.14.333l.383.241.507-1.547-.233-.15c-.44-.291-1.106-.457-1.78-.457-1.506 0-2.595.948-2.595 2.262 0 1.206 1.064 1.847 1.963 2.171.89.333.965.566.965.849 0 .532-.557.607-.89.607-.516 0-1.073-.216-1.39-.407L9.26 9.69l-.5 1.572.242.142c.549.324 1.281.507 2.005.507 1.655 0 2.77-.932 2.77-2.313 0-1.389-1.107-1.963-1.93-2.27zm4.866-4.441l-1.863.565v1.115h-1.007v1.606h1.007v3.186c0 .89.175 1.522.549 1.946.366.391.907.616 1.539.616.566 0 .973-.117 1.164-.183l.25-.083-.1-1.614-.432.124a2.026 2.026 0 01-.583.067c-.224 0-.532 0-.532-.907V6.173h1.689V4.567h-1.68v-1.68zM22.943 4.5l-.34-.05a2.147 2.147 0 00-1.88.64l-.026-.523H18.95l.025.375c.033.557.058 1.19.058 2.004v4.825h1.889v-3.81c0-.175.016-.358.033-.482.141-.749.607-1.215 1.24-1.215.15 0 .24 0 .324.017l.433.091-.009-1.871zm3.435-.066c-2.104 0-3.577 1.555-3.577 3.793 0 2.18 1.423 3.693 3.47 3.693 1.73 0 3.584-1.19 3.584-3.801.009-2.171-1.422-3.685-3.477-3.685zm1.573 3.726c0 1.256-.683 2.171-1.614 2.171-.932 0-1.606-.906-1.606-2.137 0-.799.341-2.155 1.63-2.155 1.257-.017 1.59 1.381 1.59 2.121zm8.102-5.367c-.616-.557-1.556-.84-2.77-.84-.815 0-1.589.058-2.304.175l-.291.05v9.591h1.871V8.21c.192.016.391.025.59.025 1.265 0 2.338-.391 3.02-1.098.533-.55.8-1.281.8-2.18-.01-.873-.334-1.639-.916-2.163zm-.965 2.221c0 1.365-1.198 1.564-1.913 1.564a4.22 4.22 0 01-.607-.033V3.617a5.97 5.97 0 01.748-.033c.799 0 1.772.25 1.772 1.43zM42.7 9.857V7.428c0-1.938-1.007-2.994-2.82-2.994-.84 0-1.723.233-2.33.615l-.241.15.507 1.497.383-.258c.391-.266.957-.424 1.506-.424.382-.008.657.083.84.258.15.15.241.374.274.657-1.472.042-2.545.391-3.21 1.048-.458.458-.691 1.032-.691 1.722 0 1.107.799 2.221 2.346 2.221a2.9 2.9 0 001.755-.574l.05.433h1.788l-.066-.408a10.769 10.769 0 01-.092-1.514zm-3.145.483c-.283 0-.749-.1-.749-.774 0-.258.075-.466.242-.624.216-.216.707-.466 1.805-.482v.773c0 .059-.009.158-.034.258-.133.391-.54.849-1.264.849zm8.343-5.774l-1.372 4.052c-.034.1-.067.208-.1.307-.034-.1-.067-.2-.108-.29l-1.498-4.07h-2.054l2.578 6.464.009.017a.515.515 0 01.058.15c-.017.033-.042.1-.058.14-.225.475-.558.924-.89 1.19l-.009.009a2.45 2.45 0 01-.915.507l-.333.108.483 1.614.308-.058c.191-.034.857-.192 1.622-.832.915-.815 1.522-2.105 2.32-4.201l1.956-5.108h-1.997z" fill="#fff"/>
  <path d="M6.888 4.7c1.215-1.24 3.278-1.98 5.515-1.98.874 0 1.722.108 2.53.333l.066.016 1.43-.432-.64-.25c-1.223-.466-2.629-.715-4.076-.715-2.105 0-4.068.507-5.524 1.43l-.158.1.608 1.772.25-.274z" fill="#B0B0B0"/>
</svg>
