<svg width="30" height="30" fill="none" xmlns="http://www.w3.org/2000/svg">
  <g clip-path="url(#bangkokbank-color-30px__clip0)">
    <path d="M28 0H2a2 2 0 00-2 2v26a2 2 0 002 2h26a2 2 0 002-2V2a2 2 0 00-2-2z" fill="#1F4396"/>
    <path d="M22.192 15.48c-.181-.687-.444-1.195-.867-1.97-.138-.221-.317-.467-.476-.728-1.841-2.73-5.473-7.494-5.806-7.8 0 0-.023-.017-.041-.017-.021 0-.044.017-.044.017-.33.306-3.964 5.07-5.805 7.8-.16.261-.338.507-.478.727-.422.776-.684 1.284-.866 1.97a8.18 8.18 0 00-.032 3.236c.185.89 1.03 1.798 1.88 2.476l1.3 1.033s3.635 2.621 3.973 2.787c0 0 .034.022.072.022.037 0 .069-.022.069-.022.339-.166 3.971-2.787 3.971-2.787l1.3-1.033c.852-.678 1.696-1.586 1.88-2.476.206-1.013.197-2.245-.03-3.236zm-8.33 6.835c-.025.04-.084.027-.127.023-.212-.15-.738-.53-.738-.53-.905-.671-1.818-1.29-2.686-1.98-1.331-1.466-1.196-2.928-.788-4.397.014-.095.058-.238.183-.264.376.554 1.172 1.695 1.172 1.695.774 1.113 1.715 2.117 2.605 3.163.61.56.364 1.503.38 2.29zm1.14-2.905c-.017 0-.047-.013-.074-.042-1.153-1.364-2.46-2.907-3.606-4.277-.208-.348-.42-.681-.443-1.129-.013-.35-.035-.67.254-1.108l.245-.36s2.35-3.303 3.587-4.869c0 0 .016-.021.037-.021.017 0 .033.021.033.021 1.237 1.565 3.586 4.87 3.586 4.87l.247.359c.288.438.266.759.25 1.108-.022.448-.234.781-.44 1.129-1.148 1.37-2.454 2.913-3.606 4.277-.027.029-.055.041-.07.042zm4.681.418c-.868.69-1.782 1.308-2.687 1.98 0 0-.526.38-.739.53-.042.004-.101.016-.126-.023.016-.787-.231-1.73.38-2.29.89-1.046 1.83-2.05 2.604-3.163 0 0 .796-1.14 1.172-1.695.123.026.168.17.183.264.41 1.47.544 2.932-.787 4.397z" fill="#fff"/>
  </g>
  <defs>
    <clipPath id="bangkokbank-color-30px__clip0">
      <path fill="#fff" d="M0 0h30v30H0z"/>
    </clipPath>
  </defs>
</svg>
