<svg width="74" height="16" fill="none" xmlns="http://www.w3.org/2000/svg">
  <path d="M14.673 5.971h.418c.257 0 .423-.153.423-.416 0-.256-.135-.424-.423-.424h-.418v.84zm0-1.421h.384c.253 0 .414-.113.414-.354 0-.236-.173-.366-.414-.366h-.384v.72zM13.38 6.71v-.404c.145-.056.23-.167.235-.29V3.765c-.006-.123-.09-.234-.235-.289V3.07h1.816c.325 0 .69-.004.97.15.312.165.414.47.414.773 0 .415-.19.7-.656.814v.01c.535.059.719.433.719.858 0 .297-.078.628-.35.82-.296.211-.675.216-1.039.216H13.38zm5.015-1.212c-.204.072-.63.161-.63.399 0 .132.065.284.272.284a.52.52 0 00.358-.102v-.581zm.067 1.01c-.243.178-.55.259-.865.259-.535 0-.801-.33-.801-.764 0-.536.3-.693.815-.842l.768-.208v-.244c0-.132-.121-.24-.281-.24-.185 0-.312.108-.312.24v.26h-.864v-.582c.394-.246.82-.407 1.296-.407.306 0 .562.043.82.213.32.22.325.501.32.812v.988c0 .14-.015.263.14.36l.07.36H18.53m18.637-.742h.418c.258 0 .423-.153.423-.416 0-.256-.135-.424-.423-.424h-.418v.84zm0-1.421h.384c.254 0 .414-.113.414-.354 0-.236-.173-.366-.414-.366h-.384v.72zm-1.292 2.16v-.404c.146-.056.23-.167.234-.29V3.765c-.005-.123-.088-.234-.234-.289V3.07h1.816c.326 0 .69-.004.971.15.311.165.414.47.414.773 0 .415-.19.7-.656.814v.01c.534.059.718.433.718.858 0 .297-.078.628-.349.82-.297.211-.676.216-1.04.216h-1.874zm4.998-1.212c-.203.072-.628.161-.628.399 0 .132.064.284.27.284a.519.519 0 00.358-.102v-.581zm.067 1.01c-.242.178-.55.259-.865.259-.534 0-.8-.33-.8-.764 0-.536.3-.693.815-.842l.768-.208v-.244c0-.132-.122-.24-.281-.24-.185 0-.313.108-.313.24v.26H39.4v-.582c.393-.246.819-.407 1.296-.407.305 0 .561.043.819.213.32.22.325.501.32.812v.988c0 .14-.015.263.14.36l.07.36H41.01l-.069-.205zM20.875 4.202c.316-.186.635-.227.79-.221.24.008.413.077.53.178.209.175.233.37.233.6v1.213c0 .13.054.28.204.352v.388h-1.15c-.067-.272-.063-.556-.063-.832v-.933c0-.016.014-.14-.034-.237-.078-.102-.273-.178-.462-.102v1.394c0 .131-.015.28.14.352v.358h-1.358v-.358c.15-.076.21-.2.21-.336V4.815c0-.144-.064-.238-.21-.331v-.448h1.17m22.522.166c.315-.186.635-.227.791-.221.238.008.412.077.53.178.208.175.232.37.232.6v1.213c0 .13.054.28.205.352v.388h-1.15c-.068-.272-.063-.556-.063-.832v-.933c0-.016.014-.14-.034-.237-.078-.102-.274-.178-.463-.102v1.394c0 .131-.014.28.141.352v.358h-1.359v-.358c.15-.076.21-.2.21-.336V4.815c0-.144-.064-.238-.21-.331v-.448h1.17m-18.949.614c-.052-.032-.23-.052-.297-.052-.331 0-.376.284-.376.429v.618c0 .137.063.474.381.474.057 0 .24-.017.293-.045V4.65zm1.22-.257c-.151.082-.21.197-.21.332V6.59c0 .302.015.71-.253.934-.262.226-.6.264-.95.264-.51 0-.86-.174-1.307-.39V6.89h.927c0 .03.005.196.034.256.033.06.156.101.248.101.252 0 .293-.353.293-.506v-.17a1.365 1.365 0 01-.71.195c-.756 0-.943-.487-.943-1.074V5.17c0-.582.065-1.189.89-1.189.271 0 .573.065.792.209v-.153h1.189v.357zm1.242.531l.369-.274c.13-.124.16-.276.16-.509v-.106h1.092v.357c-.038.018-.145.056-.228.145l-.625.55.625.9c.078.14.136.29.32.366v.358h-.973l-.73-1.164h-.01V6c0 .144.055.255.21.353v.358h-1.359v-.358c.146-.098.21-.192.21-.336V3.781c0-.144-.055-.255-.21-.352V3.07h1.15m19.543 1.854l.368-.274c.13-.124.16-.276.16-.509v-.106h1.092v.357c-.038.018-.145.056-.228.145l-.626.55.626.9c.078.14.137.29.321.366v.358h-.974l-.729-1.164h-.01V6c0 .144.054.255.21.353v.358h-1.36v-.358c.146-.098.21-.192.21-.336V3.781c0-.144-.054-.255-.21-.352V3.07h1.15m-13.86 1.854l.368-.274c.13-.124.16-.276.16-.509v-.106h1.092v.357c-.038.018-.146.056-.228.145l-.626.55.626.9c.078.14.137.29.32.366v.358h-.973l-.729-1.164h-.01V6c0 .144.054.255.21.353v.358h-1.36v-.358c.146-.098.21-.192.21-.336V3.781c0-.144-.055-.255-.21-.352V3.07h1.15m-2.93 2.843c0 .144.11.365.326.365.24 0 .331-.22.331-.365V4.869c0-.145-.081-.4-.327-.4s-.33.251-.33.4v1.044zm1.692-.22c0 .297-.01.632-.286.84-.277.208-.685.234-1.034.234-.317 0-.764-.022-1.03-.179-.375-.216-.375-.543-.375-.896v-.696c0-.29.006-.604.292-.799.277-.191.651-.217.996-.217.31 0 .777.021 1.044.158.37.195.393.518.393.858v.696zm42.111 7.273c.006.41-.057.419-.26.462h-2.466c-.182.01-.349-.1-.36-.301l.006-3.264c-.041-.071-.077-.147-.164-.165-.077-.005-.155.012-.196.065l-.058.13-.004 3.168c0 .2-.085.39-.407.367H67.28c-.137.01-.473.004-.483-.311l.021-3.224c-.024-.113.007-.223-.212-.223l-.3-.015c-.159.015-.172-.086-.172-.172v-.679c.027-.129.072-.153.404-.153h1.442c.23 0 .2.254.2.254l.008 3.262c.018.07.03.17.11.2.09.052.17.038.27.015 0 0 .122-.044.122-.233l-.007-2.886c.004-.21.012-.543.463-.608.374 0 1.575-.005 2.03 0 .233 0 .46.047.513.29l.002 3.322a.251.251 0 00.13.151c.118.029.2.013.253-.063l.042-.072.028-1L72.14 8.9c0-.173-.014-.26.217-.26h.908c.15.01.202.073.209.217l-.007 4.109zm-7.733.251c.01.2-.11.211-.189.2h-1.002s-.189.021-.189-.223l-.01-3.327c-.018-.105-.056-.118-.145-.188-.134-.048-.201-.029-.35-.017-.251.081-.14.399-.169.617l-.004 2.704c0 .322.034.434-.245.434h-2.603c-.194.003-.402-.01-.4-.456l-.01-3.106c-.025-.112-.045-.22-.2-.222 0 0-.27.01-.392 0-.132-.01-.132-.165-.132-.165l.002-.683c0-.144.217-.144.217-.144l1.583.003s.223.023.245.267l.006 3.328c-.006.082.069.153.129.194a.497.497 0 00.365-.011c.076-.047.112-.095.1-.207l.006-3.17c.024-.147.051-.39.353-.39h2.38c.513-.014.658.087.658.476l-.004 4.086zm-5.951.123c0 .1-.077.09-.157.094l-1.711-.004c-.18.01-.221-.052-.278-.167l-.006-4.499s-.012-.112.107-.112h1.153l.128.089-.013 3.425c.012.135 0 .256.13.303l.547.004c.112 0 .107.13.107.13l-.007.738zm-2.724-.361c-.04.194-.14.394-.339.446 0 0-3.33-.007-3.324-.008-.267.001-.296-.105-.362-.275 0 0 .003-1.14.01-1.692 0-.065.084-.17.135-.182.142-.013 1.031-.005 1.031-.005.174 0 .164.1.188.23v.778c.04.03.058.16.26.16l.796.002c.156.011.195-.101.219-.213l.005-2.339c.018-.136-.067-.271-.299-.262l-.582.009c-.11-.009-.253.034-.268-.167 0 0 0-.448-.003-.773l.07-.041 2.097-.01c.183.042.344.087.36.361l.006 3.98zm-4.596.118c.017.25-.199.289-.352.33l-2.05-.007c-.096.012-.167.01-.178-.107-.007-.136 0-.448 0-.75 0 0-.029-.144.158-.144l.856-.009c.158 0 .231-.086.216-.245 0 0-.009-.636 0-.836a.306.306 0 00-.216-.231l-1.987-.005c-.269 0-.384-.116-.402-.366l.006-1.581c-.023-.364.161-.49.478-.49h3.304c.053.013.201-.007.201.26v.576c0 .217-.2.183-.327.191l-2.157.012c-.107.035-.147.117-.16.222-.016.107.048.166.119.231.134.057.317.011.465.04l1.76-.013c.249.016.265.166.265.468v2.454m-.015 2.776c-.101.089-.24.054-.359.078l-.84-.014c-.041-.028-.118-.01-.118-.082-.088-.305.153-.81-.207-.97-.31-.07-.675 0-.98-.064a5.355 5.355 0 01-.011-.881l.05-.049a45.943 45.943 0 012.1 0c.13.06.27.113.33.254a.847.847 0 01.064.27l-.03 1.458zm-4.411-2.608s.008.165-.135.165h-1.055c-.174 0-.132-.146-.144-.217V10.05a.453.453 0 00-.298-.365h-.922c-.202 0-.208.106-.225.17l-.006 3.478s.037.096-.15.096c0 0-1.035.025-1.143.013-.113-.013-.093-.168-.093-.168v-4.44c-.014-.13.074-.183.246-.183h3.26c.49 0 .665.113.665.719v3.894m-4.867-.108c0 .187-.043.274-.274.274h-2.162c-.29 0-.255-.078-.255-.125 0 0-.014-.476-.014-.678 0-.2.142-.23.142-.23h.866c.091.003.303.057.303-.189v-.677c0-.288-.043-.317-.258-.331l-1.96.004c-.043-.048-.12-.012-.166-.042-.142-.059-.212-.189-.24-.329V9.158c-.014-.236.058-.505.692-.505l2.852.004c.324 0 .465-.052.465.251v.665c0 .2-.144.186-.36.172l-1.993.002c-.08.023-.17.046-.217.123-.028.088-.041.218.006.306l.111.07 2.107-.011c.259.028.362.387.357.558l-.002 2.364zm-4.499.044s.037.226-.194.226h-.98c-.16 0-.202-.16-.202-.16l.004-3.248c-.006-.1.008-.276-.192-.3l-.902-.008c-.303.015-.188.173-.217.274 0 0 .073.245-.187.202h-1.038s-.157.014-.157-.144V8.917c.013-.346.243-.269.416-.269l3.263.005c.17.03.348.172.39.344L38.67 13.2zm-10.215 0s.037.226-.193.226h-.98c-.16 0-.203-.16-.203-.16l.004-3.248c-.006-.1.01-.276-.192-.3l-.901-.008c-.303.015-.188.173-.217.274 0 0 .072.245-.188.202h-1.038s-.158.014-.158-.144V8.917c.015-.346.245-.269.417-.269l3.264.005c.17.03.348.172.39.344l-.005 4.203zm5.674.019s.008.211-.15.211c-.275 0-.981.004-1.067 0-.14-.008-.154-.197-.154-.197l.015-3.205c-.014-.094-.055-.199-.142-.246l-.129-.041h-2.045a.308.308 0 00-.213.193l.006 2.21c.01.102.094.178.183.223.129-.016.247.03.346-.04l.07-.111.012-1.565c.006-.104-.049-.33.269-.375h1.067c.244 0 .244.13.244.13.012.27 0 .722 0 .722.015.114-.201.114-.304.111-.075.012-.157.077-.142.263v1.673c-.03.247-.346.248-.511.255h-2.018c-.165-.037-.384-.008-.427-.299l.006-4.207c.022-.205.199-.268.364-.268h4.36c.146.047.214.139.29.284.037.09.048.194.072.288l-.002 3.99z" fill="#fff"/>
  <path d="M25.41 13.42l-2.289.008c-.26 0-.308-.201-.36-.33-.02-.43 0-.877-.055-1.295-.017-.076-.075-.117-.146-.135-.077-.005-.13.035-.183.065l-.064.13-.007 1.194c.014.363-.194.363-.36.363l-2.243.001a.453.453 0 01-.294-.201c-.118-.346-.065-.769-.082-1.133a39.567 39.567 0 00-.04-2.2c-.077-.211-.517-.17-.517-.17-.084.024-.17-.02-.17-.134l.01-.693c.005-.124.024-.22.062-.25h1.586c.205.03.338.194.398.395.01.16.028.547.028.547l.06 2.605a.359.359 0 00.134.164c.088.017.194.017.259-.04l.065-.142c.017-.447-.089-.953.046-1.37.165-.23.5-.19.754-.194.187 0 .463.023.657-.06l.041-.112s.002-1.489-.006-1.6c-.014-.231.102-.182.102-.182h1.11c.144 0 .187.038.173.182l.01 1.667a.239.239 0 00.088.085l1.12.043c.186.022.315.08.359.267l.001 2.197c-.002.224-.075.328-.247.328zm-.84-1.21c.012-.165.053-.378-.088-.489-.053-.04-.142-.04-.224-.04-.1.004-.141.1-.158.182 0 .182-.03.41.14.488.071.04.165.004.242-.013.053-.024.07-.07.088-.128zm-6.428.698a.54.54 0 01-.24.406.672.672 0 01-.356.116H14.24c-.288-.037-.585-.072-.721-.36-.04-.448-.076-.926-.04-1.386l.127-.063c.4-.012.914-.017 1.235 0 .14.223-.083.641.252.728.453.037.964.025 1.434.013.072-.006.131-.03.194-.053.153-.2.053-.517.083-.758.018-.118-.06-.224-.141-.27-.34-.06-.729-.03-1.082-.025l-1.692.024a.52.52 0 01-.394-.43 26.283 26.283 0 010-1.698c.029-.282.099-.434.347-.5h4.094c.064.018.188.067.173.226v.75s0 .13-.23.13l-2.797.012c-.077.005-.159.076-.182.152 0 .088-.018.182.058.241l.106.059c.965.04 1.75-.03 2.743.024a.436.436 0 01.328.394l.007 2.268zm-7.656-5.337c-.131-.494-.32-.86-.625-1.418-.1-.159-.228-.336-.343-.524C8.192 3.664 5.577.233 5.338.013c0 0-.017-.013-.03-.013a.064.064 0 00-.032.013c-.238.22-2.854 3.65-4.18 5.616-.115.188-.243.365-.344.524C.448 6.71.26 7.077.128 7.57A5.89 5.89 0 00.105 9.9c.134.64.742 1.295 1.354 1.783l.936.744s2.618 1.887 2.861 2.007c0 0 .024.016.051.016.027 0 .05-.016.05-.016.244-.12 2.86-2.007 2.86-2.007l.937-.744c.612-.488 1.22-1.142 1.353-1.782a5.878 5.878 0 00-.021-2.33zm-5.999 4.923c-.018.028-.06.019-.091.016a58.716 58.716 0 01-.532-.382c-.652-.483-1.31-.929-1.934-1.425-.959-1.056-.862-2.109-.568-3.167.01-.068.042-.171.133-.19.27.4.843 1.22.843 1.22.558.803 1.235 1.525 1.876 2.278.44.404.262 1.083.273 1.65zm.821-2.092c-.013 0-.034-.01-.054-.03-.83-.983-1.77-2.094-2.596-3.08-.15-.25-.302-.49-.319-.813-.01-.252-.026-.483.183-.798l.176-.259s1.692-2.38 2.583-3.506c0 0 .012-.016.027-.016.012 0 .024.016.024.016.89 1.127 2.582 3.506 2.582 3.506l.177.259c.208.315.192.546.181.798-.016.322-.17.562-.318.812-.826.987-1.766 2.098-2.595 3.08-.02.021-.04.03-.05.03zm3.37.3c-.624.497-1.283.943-1.935 1.426 0 0-.378.275-.531.382-.03.003-.073.012-.091-.016.012-.567-.167-1.246.274-1.65.64-.752 1.317-1.475 1.875-2.277 0 0 .573-.821.843-1.22.09.018.121.121.132.19.296 1.057.392 2.11-.566 3.166z" fill="#fff"/>
</svg>
