<svg width="52" height="16" fill="none" xmlns="http://www.w3.org/2000/svg">
  <path fill-rule="evenodd" clip-rule="evenodd" d="M4.115 13.25A5.428 5.428 0 106.74 2.717 5.428 5.428 0 004.115 13.25zm2.513-7.407c.752.26 1.302.648 1.194 1.37-.078.529-.372.785-.76.875.534.278.806.705.547 1.444-.322.919-1.086.996-2.101.804l-.247.988-.596-.148.244-.975c-.155-.038-.312-.08-.475-.123l-.244.979-.595-.148.246-.99-.167-.044-.257-.066-.775-.193.295-.682s.44.117.433.108c.169.042.244-.068.273-.141l.39-1.562a4.501 4.501 0 01.063.016.493.493 0 00-.062-.02l.278-1.115c.007-.127-.037-.286-.278-.346a7.172 7.172 0 00-.432-.108l.158-.636.821.205v.003l.38.09.244-.979.596.149-.24.959c.16.036.321.073.478.112l.237-.953.596.149-.244.978zM4.744 9.391c.486.129 1.548.41 1.717-.27.173-.693-.857-.925-1.36-1.037a6.76 6.76 0 01-.146-.034l-.327 1.31.116.03zm.458-1.916c.405.108 1.29.344 1.443-.273.157-.63-.702-.82-1.121-.914A5.168 5.168 0 015.4 6.26l-.297 1.19.098.025z" fill="#B0B0B0"/>
  <path d="M15.909 5.842c.44 0 .82.079 1.14.234.321.156.586.367.799.632.21.266.366.577.466.934.1.358.15.742.15 1.154 0 .633-.115 1.23-.349 1.793a4.493 4.493 0 01-2.384 2.459 4.361 4.361 0 01-1.785.365c-.083 0-.229-.002-.434-.007a6.334 6.334 0 01-.707-.061 8.317 8.317 0 01-.845-.166 4.236 4.236 0 01-.846-.302l2.377-9.988 2.13-.33-.852 3.544a3.31 3.31 0 01.55-.192c.183-.046.38-.07.59-.07zm-1.786 5.882c.32 0 .623-.08.907-.234.284-.155.53-.364.736-.625.206-.262.368-.557.487-.887a3.02 3.02 0 00.179-1.031c0-.44-.073-.783-.22-1.03-.146-.247-.417-.371-.81-.371-.13 0-.296.024-.502.068a1.25 1.25 0 00-.557.29l-.906 3.764c.054.01.103.018.144.027a1.48 1.48 0 00.295.028h.247zm6.55 1.496h-2.034l1.718-7.227h2.047l-1.731 7.227zm.99-8.107c-.285 0-.542-.085-.77-.254-.23-.168-.344-.427-.344-.776 0-.192.039-.373.116-.543a1.45 1.45 0 01.756-.735c.17-.073.35-.11.544-.11.283 0 .54.085.768.254.229.17.344.43.344.777 0 .192-.04.373-.117.543a1.43 1.43 0 01-.755.735 1.34 1.34 0 01-.543.109zm2.523-.923l2.13-.33-.523 2.13h2.282l-.412 1.675h-2.268l-.604 2.528a2.86 2.86 0 00-.096.59c-.01.184.014.342.068.475a.597.597 0 00.296.308c.142.074.345.111.611.111.22 0 .433-.02.64-.062.205-.04.413-.097.624-.171l.152 1.566a7.135 7.135 0 01-.893.26c-.321.075-.702.11-1.141.11-.632 0-1.122-.093-1.47-.28a1.634 1.634 0 01-.743-.77 2.449 2.449 0 01-.192-1.12c.019-.422.083-.866.192-1.333l1.348-5.688zm3.799 6.146c0-.623.101-1.21.303-1.76.2-.55.49-1.03.866-1.443.374-.41.83-.736 1.367-.975a4.37 4.37 0 011.793-.357 4.454 4.454 0 011.993.426l-.702 1.595a6.563 6.563 0 00-.57-.2 2.48 2.48 0 00-.721-.09c-.679 0-1.215.235-1.615.7-.398.468-.598 1.096-.598 1.884 0 .467.1.845.303 1.133.201.29.573.433 1.113.433a3.792 3.792 0 001.43-.288l.15 1.635c-.256.1-.54.19-.851.269a4.735 4.735 0 01-1.114.115c-.568 0-1.049-.083-1.442-.247a2.745 2.745 0 01-.975-.666 2.511 2.511 0 01-.557-.983 4.03 4.03 0 01-.173-1.181zm9.035 3.077c-.486 0-.908-.074-1.265-.22a2.335 2.335 0 01-.886-.618 2.671 2.671 0 01-.529-.941 3.803 3.803 0 01-.177-1.201c0-.55.088-1.101.267-1.65a4.67 4.67 0 01.79-1.483c.347-.44.774-.8 1.277-1.08.503-.28 1.081-.42 1.73-.42.477 0 .897.075 1.26.221.36.146.657.354.892.619.233.266.41.579.528.941a3.8 3.8 0 01.179 1.202c0 .549-.088 1.099-.26 1.65a4.762 4.762 0 01-.77 1.483 4.03 4.03 0 01-1.27 1.078c-.509.28-1.098.42-1.767.42zm1.016-5.88c-.302 0-.568.087-.796.26a2.246 2.246 0 00-.577.66 3.258 3.258 0 00-.351.873 3.76 3.76 0 00-.116.9c0 .458.074.815.219 1.072.147.256.412.384.797.384.303 0 .568-.087.797-.261.228-.174.42-.394.577-.66.156-.265.273-.556.351-.872a3.81 3.81 0 00.116-.9c0-.457-.073-.815-.22-1.072-.147-.256-.413-.384-.797-.384zm5.265 5.687h-2.035l1.717-7.227h2.049L43.3 13.22zm.988-8.107a1.26 1.26 0 01-.769-.254c-.229-.168-.344-.427-.344-.776 0-.192.04-.373.117-.543a1.433 1.433 0 01.756-.735c.17-.073.35-.11.542-.11.284 0 .541.085.77.254.229.17.344.43.344.777 0 .192-.04.373-.118.543a1.427 1.427 0 01-.754.735c-.17.074-.35.109-.544.109zm2.209 1.21c.154-.045.327-.1.514-.158a7.578 7.578 0 011.416-.288 8.73 8.73 0 01.981-.049c1.073 0 1.812.312 2.22.935.408.623.479 1.475.214 2.556l-.935 3.902H48.86l.907-3.82a8.18 8.18 0 00.13-.695 1.65 1.65 0 00-.007-.59.707.707 0 00-.253-.413c-.135-.105-.337-.157-.612-.157-.266 0-.535.028-.81.083l-1.334 5.592h-2.047l1.663-6.898z" fill="#fff"/>
</svg>
