<svg width="72" height="16" fill="none" xmlns="http://www.w3.org/2000/svg">
  <path d="M41.807 7.393c.103-.134.196-.268.302-.397.853-1.043 2.323-1.057 3.17-.633.538.267.835.731 1.004 1.289.116.379.169.771.169 1.163 0 1.463 0 2.926.004 4.388 0 .174-.044.214-.217.192-.813-.103-1.399-.78-1.403-1.659-.005-.78 0-1.56-.005-2.345 0-.37-.049-.732-.16-1.084-.373-1.15-1.656-1.07-2.22-.517-.532.522-.692 1.164-.692 1.877 0 1.168-.005 2.337.004 3.505 0 .183-.049.24-.235.232-.39-.014-.786-.014-1.177 0-.177.004-.222-.05-.217-.223.004-2.43.004-4.86.004-7.295 0-.482-.004-.963 0-1.445a1.628 1.628 0 011.479-1.592c.15-.013.142.067.142.165v4.361c.017.009.035.013.048.018zm-16.903 4.08c-.018.633-.253 1.141-.706 1.547-.315.281-.688.45-1.114.5-.99.116-1.976.102-2.909-.281-1.625-.67-2.504-1.931-2.77-3.635-.173-1.119-.107-2.234.346-3.281.742-1.708 2.047-2.707 3.88-2.993.573-.089 1.155-.115 1.728.005.83.178 1.487.963 1.54 1.81.005.045.01.112-.017.134-.049.04-.098-.018-.142-.04a4.288 4.288 0 00-2.984-.41c-1.439.312-2.464 1.48-2.646 2.983-.093.785-.076 1.565.235 2.305.502 1.209 1.425 1.869 2.722 1.985.963.089 1.882-.08 2.726-.58.031-.022.062-.027.111-.05zm23.995-.998c0-.91-.005-1.815.004-2.725 0-.156-.04-.21-.2-.205-.27.014-.546-.009-.817.01-.186.008-.208-.077-.186-.228.07-.526.497-.972 1.021-1.035.173-.017.182-.089.182-.227.01-.495-.044-.99.049-1.48.19-1.008 1.017-1.744 2.078-1.869a3.794 3.794 0 011.212.045c.133.026.204.08.2.236a18.88 18.88 0 00-.005.981c0 .13 0 .205-.168.125-.271-.134-.569-.138-.862-.094-.501.076-.803.415-.87.981-.044.384-.013.772-.022 1.16-.005.133.08.129.173.129.426 0 .853.009 1.279-.004.2-.01.217.07.182.236-.124.624-.626 1.034-1.283 1.039-.338.004-.338.004-.338.339 0 1.757-.004 3.509.005 5.266 0 .21-.063.259-.258.25a16.835 16.835 0 00-1.159 0c-.182.009-.222-.058-.217-.228.004-.9 0-1.801 0-2.702zM33.59 11.692c.345.24.687.432 1.07.54a3.22 3.22 0 001.62.057c.493-.107.746-.392.737-.807a.73.73 0 00-.275-.553 2.095 2.095 0 00-.662-.365c-.457-.17-.915-.33-1.345-.558-.928-.486-1.319-1.253-1.11-2.207.142-.638.572-1.043 1.132-1.32a3.702 3.702 0 012.038-.361c.781.08 1.447.825 1.452 1.614 0 .018-.01.036-.018.071-.386-.24-.786-.41-1.23-.463-.453-.054-.906-.067-1.332.138-.382.187-.542.504-.453.878.053.21.191.344.364.455.249.16.529.25.804.348.497.174.972.392 1.42.678 1.089.704 1.11 2.39-.008 3.143-.484.326-1.021.478-1.59.544-.417.05-.834.076-1.252-.035-.808-.205-1.42-.999-1.363-1.797zM54.919 7.62c.182-.322.337-.638.586-.897.48-.5 1.057-.669 1.727-.517.133.031.204.085.2.24-.014.406-.005.817-.005 1.223 0 .084.005.142-.12.084-.843-.374-1.633-.089-2.073.74-.24.455-.315.946-.32 1.454-.004 1.084-.004 2.163.005 3.246 0 .16-.036.223-.209.214-.417-.013-.84-.008-1.257 0-.12 0-.164-.035-.164-.16.005-1.802-.009-3.608.01-5.409.004-.758.545-1.369 1.287-1.53.31-.066.328-.053.328.26.005.351.005.7.005 1.051zm9.426.894c-.209-.924-.64-1.695-1.527-2.105-1.368-.633-3.428-.384-4.4 1.53-.644 1.266-.6 2.599-.054 3.897.351.825 1 1.35 1.86 1.6.423.12.849.16 1.284.148.76-.027 1.496-.134 2.184-.486.151-.08.231-.166.218-.353-.018-.294-.004-.588-.009-.883 0-.053.036-.133-.03-.165-.05-.022-.094.036-.139.067a3.533 3.533 0 01-2.042.575c-1.19-.026-1.971-.73-2.065-1.855-.013-.156.032-.191.178-.191.737.004 1.479.004 2.216.004h2.255c.089 0 .173.013.173-.125 0-.562.023-1.114-.102-1.658zm-1.754.62h-2.81c-.076 0-.164.022-.147-.117.107-.69.546-1.431 1.279-1.645 1.021-.294 1.852.321 1.958 1.445.031.316.031.316-.28.316zm9.276-.719c-.24-.95-.72-1.726-1.67-2.082-1.607-.602-3.49-.058-4.32 1.76-.497 1.089-.48 2.226-.129 3.345.346 1.11 1.11 1.797 2.251 2.047.578.13 1.164.107 1.75.036.537-.067 1.056-.201 1.536-.469.071-.04.16-.062.16-.182-.005-.393 0-.785 0-1.218-.08.05-.124.076-.169.107a3.541 3.541 0 01-2.025.571c-1.19-.018-1.944-.687-2.078-1.842-.017-.151.005-.21.178-.205.604.01 1.212.005 1.82.005h2.638c.084 0 .19.04.19-.12-.004-.59.014-1.178-.132-1.753zm-1.919.718h-2.251c-.12 0-.244 0-.364.004-.12 0-.177-.009-.146-.16.097-.468.284-.892.635-1.222.462-.437 1.016-.548 1.611-.361.578.178.84.642.955 1.204.107.535.098.535-.44.535zm-37.886-.351c0-.214-.014-.428-.04-.638-.124-1.017-.724-1.703-1.678-1.93-.587-.139-1.173-.13-1.768-.054-.928.116-1.598.74-1.776 1.645-.022.116-.049.232-.017.353.026-.01.04-.01.053-.018.058-.045.115-.09.177-.134.64-.473 1.35-.714 2.145-.687.848.031 1.328.526 1.34 1.374 0 .098-.021.142-.128.156-.475.062-.95.129-1.425.2-.569.08-1.137.139-1.665.393-.63.303-1.035.789-1.159 1.485-.138.78-.044 1.507.564 2.087.382.36.852.503 1.363.543.808.063 1.519-.151 2.07-.775.115-.13.212-.268.314-.406.018.004.036.009.054.009 0 .272.008.544-.005.816-.004.147.036.2.187.196.39-.009.785-.013 1.176 0 .169.005.213-.045.213-.214 0-1.463 0-2.93.005-4.401zm-1.563 1.6c.022.607-.138 1.169-.644 1.584-.462.379-.995.463-1.558.285-.413-.134-.662-.49-.675-.919-.014-.53.177-.842.626-1.025.475-.192.985-.205 1.483-.29.19-.031.382-.05.573-.08.142-.027.217.004.195.17-.009.08 0 .164 0 .276z" fill="#fff"/>
  <path d="M3.723 5.055l7.874.835s-.34 2.63-3.023 2.379c-2.682-.251-5.996-.64-5.996-.64l1.145-2.574z" fill="url(#cashfree-white-16vh__paint0_linear)"/>
  <path d="M9.456.031l8.092.859s-.35 2.702-3.104 2.447c-2.756-.256-6.17-.653-6.17-.653L9.456.03z" fill="url(#cashfree-white-16vh__paint1_linear)"/>
  <path d="M4.15 5.132s-.536-.041-.659 1.246c-.122 1.288-.64 7.031-.64 7.031S2.663 16.084 0 15.984l.891-9.218s.414-2.242 3.26-1.634zM9.892.106s-.55-.04-.682 1.279c-.127 1.324-.66 7.232-.66 7.232s-.19 2.753-2.93 2.643l.913-9.478c.005.004.437-2.297 3.36-1.676z" fill="#fff"/>
  <defs>
    <linearGradient id="cashfree-white-16vh__paint0_linear" x1="2.577" y1="6.671" x2="11.595" y2="6.671" gradientUnits="userSpaceOnUse">
      <stop stop-color="#BBB"/>
      <stop offset=".358" stop-color="#fff"/>
    </linearGradient>
    <linearGradient id="cashfree-white-16vh__paint1_linear" x1="8.275" y1="1.694" x2="17.546" y2="1.694" gradientUnits="userSpaceOnUse">
      <stop stop-color="#BBB"/>
      <stop offset=".497" stop-color="#fff"/>
    </linearGradient>
  </defs>
</svg>
