<svg width="59" height="16" fill="none" xmlns="http://www.w3.org/2000/svg">
  <path d="M10.148 1.543C4.538 1.543 0 4.196 0 7.489c0 1.396.82 2.676 2.212 3.705-.684-.846-1.072-1.783-1.072-2.79 0-3.407 4.447-6.175 9.92-6.175 3.535 0 6.636 1.144 8.392 2.882-1.573-2.104-5.154-3.568-9.304-3.568z" fill="#fff"/>
  <path d="M9.255 9.173c.413 0 .745-.087.997-.26.292-.192.438-.47.438-.836 0-.676-.222-1.301-.665-1.877A4.135 4.135 0 008.32 4.9a4.173 4.173 0 00-1.615-.301c-1.198 0-2.182.388-2.952 1.164-.77.776-1.155 1.712-1.155 2.808 0 1.105.403 2.034 1.208 2.787.805.754 1.812 1.13 3.02 1.13.644 0 1.263-.091 1.857-.274.704-.21 1.217-.515 1.54-.917.18-.22.271-.438.271-.658 0-.575-.322-.863-.966-.863-.141 0-.503.121-1.087.363s-1.082.363-1.495.363c-.493 0-.91-.114-1.253-.342-.342-.228-.538-.557-.589-.986h4.152zM5.632 6.769c.292-.242.654-.363 1.087-.363.423 0 .782.123 1.08.37.296.246.46.561.49.945H5.073c.08-.393.267-.71.559-.952zm6.416 4.566c.745.758 1.731 1.137 2.96 1.137.734 0 1.348-.11 1.841-.329.685-.31 1.027-.69 1.027-1.137a.955.955 0 00-.264-.678.901.901 0 00-.687-.28c-.191 0-.433.054-.725.164-.292.11-.609.164-.95.164-.585 0-1.037-.182-1.36-.548-.282-.329-.422-.767-.422-1.315 0-.52.136-.954.407-1.301.302-.384.73-.575 1.284-.575.342 0 .666.057.973.17.307.115.556.172.748.172.292 0 .533-.091.724-.274a.892.892 0 00.287-.671c0-.511-.332-.895-.996-1.15-.493-.183-1.072-.275-1.736-.275-1.269 0-2.285.368-3.05 1.103-.765.735-1.148 1.683-1.148 2.842 0 1.123.363 2.05 1.087 2.78zm7.036.01c.785.776 1.787 1.164 3.005 1.164 1.228 0 2.229-.383 3.004-1.15.745-.75 1.118-1.685 1.118-2.808 0-1.133-.378-2.078-1.133-2.836s-1.751-1.137-2.989-1.137c-1.218 0-2.212.381-2.982 1.144-.77.762-1.155 1.705-1.155 2.829 0 1.114.377 2.045 1.132 2.794zm1.767-4.082c.291-.393.704-.59 1.238-.59.523 0 .93.202 1.223.604.261.347.392.767.392 1.26 0 .511-.126.936-.377 1.274-.292.401-.705.602-1.238.602-.524 0-.931-.2-1.223-.602-.262-.347-.393-.772-.393-1.274s.126-.927.378-1.274z" fill="#B0B0B0"/>
  <path d="M29.637 4.389h1.088c1.147 0 1.72.434 1.72 1.3 0 .887-.573 1.33-1.72 1.33h-1.088v-2.63zm0 6.403V9.087h1.691c1.188 0 2.124-.297 2.809-.89.684-.594 1.026-1.43 1.026-2.507 0-1.087-.377-1.931-1.132-2.534-.715-.575-1.681-.863-2.899-.863h-2.264c-.655 0-1.108.119-1.36.356-.251.237-.377.652-.377 1.244v6.895c0 1.076.418 1.614 1.253 1.614.836 0 1.253-.537 1.253-1.61zm8.577-3.482c.29-.375.686-.562 1.187-.562.51 0 .906.187 1.186.562.24.328.361.735.361 1.219 0 .484-.12.895-.36 1.233-.281.383-.677.575-1.187.575-.511 0-.912-.192-1.203-.575-.25-.338-.375-.75-.375-1.233 0-.475.13-.881.39-1.22zm4.002 5.095c.806 0 1.208-.54 1.208-1.619v-4.46c0-1.07-.402-1.605-1.208-1.605-.493 0-.88.233-1.162.698-.494-.53-1.148-.794-1.963-.794-1.117 0-2.038.41-2.763 1.233a3.923 3.923 0 00-1.027 2.698c0 1.023.327 1.914.982 2.671.714.822 1.62 1.233 2.717 1.233.866 0 1.55-.278 2.054-.835.241.52.629.78 1.162.78zm6.87-6.809L47.591 9.13l-1.389-3.343c-.15-.374-.286-.625-.407-.753-.202-.21-.479-.315-.83-.315-.343 0-.627.105-.854.315-.226.21-.34.47-.34.78 0 .22.046.425.136.617l2.46 5.217-1.005 1.984c-.135.282-.202.532-.202.75 0 .327.111.586.333.776.22.19.513.286.875.286.433 0 .79-.297 1.072-.89l3.73-8.013c.13-.283.196-.539.196-.767 0-.703-.403-1.055-1.208-1.055-.463 0-.82.292-1.072.877zm8.278 4.641h-2.41l3.24-3.779c.33-.384.496-.708.496-.974 0-.292-.126-.477-.378-.555-.252-.078-.639-.117-1.162-.117h-3.91c-1.038 0-1.556.334-1.556 1 0 .676.514 1.014 1.54 1.014h2.099l-3.352 3.931c-.241.283-.362.567-.362.85 0 .456.428.684 1.283.684h4.454c1.027 0 1.54-.337 1.54-1.013 0-.694-.507-1.041-1.522-1.041z" fill="#fff"/>
</svg>
