<svg width="30" height="30" fill="none" xmlns="http://www.w3.org/2000/svg">
  <g clip-path="url(#ecopayz-color-30px__clip0)">
    <path d="M28 0H2a2 2 0 00-2 2v26a2 2 0 002 2h26a2 2 0 002-2V2a2 2 0 00-2-2z" fill="#0E4595"/>
    <path d="M11.931 8.96c-5.127 0-9.276 2.426-9.276 5.436 0 1.276.75 2.446 2.022 3.387-.625-.773-.98-1.63-.98-2.55 0-3.115 4.065-5.645 9.068-5.645 3.231 0 6.066 1.046 7.671 2.634-1.438-1.923-4.71-3.261-8.505-3.261z" fill="#97C24B"/>
    <path d="M11.116 15.936c.377 0 .68-.08.91-.238.267-.175.4-.43.4-.764 0-.617-.202-1.19-.607-1.715a3.78 3.78 0 00-1.56-1.19 3.816 3.816 0 00-1.476-.275c-1.095 0-1.994.355-2.698 1.064a3.513 3.513 0 00-1.056 2.567c0 1.01.368 1.86 1.104 2.548.736.689 1.656 1.033 2.76 1.033.59 0 1.155-.084 1.698-.25.644-.193 1.113-.472 1.408-.84.165-.2.248-.4.248-.6 0-.526-.294-.79-.883-.79-.13 0-.46.111-.994.333-.534.22-.989.331-1.366.331-.451 0-.833-.104-1.146-.313a1.196 1.196 0 01-.538-.901h3.796zm-3.313-2.198c.267-.22.598-.331.994-.331.386 0 .715.112.987.338.27.225.42.513.448.864h-2.94a1.48 1.48 0 01.511-.87zm5.865 4.175c.681.693 1.583 1.04 2.705 1.04.672 0 1.233-.1 1.684-.301.625-.284.938-.63.938-1.04a.872.872 0 00-.241-.619.824.824 0 00-.628-.257c-.175 0-.396.05-.662.15-.267.1-.557.15-.87.15-.534 0-.948-.166-1.242-.5-.258-.3-.386-.701-.386-1.202 0-.476.124-.872.372-1.19.276-.35.667-.525 1.173-.525.313 0 .61.052.89.156.281.105.509.157.684.157a.92.92 0 00.662-.25.816.816 0 00.262-.614c0-.468-.303-.818-.91-1.052-.451-.167-.98-.25-1.588-.25-1.159 0-2.088.336-2.787 1.008-.7.672-1.05 1.538-1.05 2.598 0 1.026.332 1.873.994 2.541zm6.432.007c.717.71 1.633 1.064 2.746 1.064 1.123 0 2.038-.35 2.747-1.052.68-.684 1.02-1.54 1.02-2.566 0-1.035-.344-1.9-1.034-2.592-.69-.693-1.601-1.04-2.733-1.04-1.113 0-2.021.349-2.725 1.046-.704.697-1.056 1.559-1.056 2.586 0 1.018.345 1.87 1.035 2.554zm1.614-3.732c.267-.358.644-.538 1.132-.538.478 0 .851.184 1.118.55.239.318.359.702.359 1.153 0 .467-.116.856-.345 1.164-.267.368-.644.551-1.132.551-.479 0-.851-.183-1.118-.55-.24-.318-.359-.706-.359-1.165 0-.46.115-.847.345-1.165z" fill="#fff"/>
  </g>
  <defs>
    <clipPath id="ecopayz-color-30px__clip0">
      <path fill="#fff" d="M0 0h30v30H0z"/>
    </clipPath>
  </defs>
</svg>
