<svg width="62" height="16" fill="none" xmlns="http://www.w3.org/2000/svg">
  <g clip-path="url(#entropay-white-16vh__clip0)" fill-rule="evenodd" clip-rule="evenodd" fill="#fff">
    <path d="M3.735 3.836C1.585 3.836 0 5.562 0 7.744c0 2.18 1.742 3.907 4.001 3.907a4.644 4.644 0 002.981-1.068c-.524-.99-.934-.907-2.543-.687v-.002c-.146.02-.292.03-.438.03-1.176 0-1.946-.847-2.087-1.506H7.47c.015-.283.015-.565.015-.706 0-2.292-1.71-3.876-3.75-3.876zM1.914 7.052c.063-.658.612-1.506 1.821-1.506 1.239 0 1.835.863 1.867 1.506H1.914zm29.99-3.215a3.908 3.908 0 103.668 2.396 3.901 3.901 0 00-3.668-2.396zm0 6.057c-1.272 0-2.056-.99-2.056-2.15 0-1.161.784-2.15 2.056-2.15 1.271 0 2.055.989 2.055 2.15 0 1.16-.784 2.15-2.055 2.15zM12.62 3.836a2.569 2.569 0 00-2.227 1.271v-.07l-.003.002a1.087 1.087 0 00-1.093-1.013v-.002h-.662v7.438h1.883V6.551s.502-.958 1.475-.958c.816 0 1.475.455 1.475 1.523v4.346h1.883V6.644c0-1.788-1.287-2.808-2.73-2.808zm14.3 0c-1.38 0-2.024 1.271-2.024 1.271V5.02l-.005.002a1.082 1.082 0 00-1.121-1v.003h-.663v7.438h1.883V6.598a1.966 1.966 0 011.664-1.005c.307-.006.612.053.894.173l.66-1.695a4.053 4.053 0 00-1.288-.235zm13.851 0a2.698 2.698 0 00-2.244 1.16v-.08c-.001.001 0 .025-.007-.023a.957.957 0 00-.946-.866v-.003h-.789v11.047h1.883v-4.378a2.657 2.657 0 002.103.958c1.93 0 3.624-1.617 3.624-3.907 0-2.292-1.695-3.908-3.624-3.908zm-.33 6.057a2.062 2.062 0 01-1.774-1.035V6.629a2.062 2.062 0 011.774-1.035c1.27 0 2.04.926 2.04 2.15 0 1.224-.77 2.15-2.04 2.15zm10.492-4.896a2.666 2.666 0 00-2.244-1.16c-1.93 0-3.624 1.615-3.624 3.907 0 2.29 1.694 3.907 3.624 3.907a2.571 2.571 0 002.244-1.161v.04l.009-.01a1.089 1.089 0 001.056.94v.002h.677V4.024h-1.742v.973zm-.142 3.861a2.082 2.082 0 01-1.757 1.036c-1.271 0-2.056-.926-2.056-2.15 0-1.224.785-2.15 2.056-2.15a2.082 2.082 0 011.757 1.036v2.228zm9.185-4.831l-1.961 5.446-2.511-5.446h-2.087l3.624 7.61s-.317.82-.328.845h.003a3.5 3.5 0 01-.877 1.194c-.062.057-.126.106-.19.156-.574.412-.788.795-.586 1.38l-.004.002.026.069.287.73a4.066 4.066 0 001.995-1.266c.469-.524.9-1.194 1.676-3.26L62 4.027h-2.024zM20.358 9.895c-.503 0-.973-.267-.973-1.177V5.72h2.244V4.025h-2.244V2.58v.162c0-.822-.6-.928-.915-.928l.114-.002h-1.082v2.213h-1.46V5.72h1.46v3.296c0 1.584 1.098 2.636 2.542 2.636.63.008 1.25-.161 1.79-.487l-.691-1.537a1.49 1.49 0 01-.785.267z"/>
  </g>
  <defs>
    <clipPath id="entropay-white-16vh__clip0">
      <path fill="#fff" d="M0 0h62v16H0z"/>
    </clipPath>
  </defs>
</svg>
