<svg width="68" height="16" fill="none" xmlns="http://www.w3.org/2000/svg">
  <path d="M48.528 9.441H0v.701h48.528v-.7z" fill="#CCC"/>
  <path d="M19.22 11.77h-.713s-.84 1.062-.887 1.109v-1.11h-.607v2.721h.607V13.3l.922 1.19h.771s-1.168-1.436-1.18-1.46c.012-.011 1.122-1.26 1.122-1.26h-.035zm3.316.743c0 .408.269.595.666.747l.046.012c.222.081.456.163.444.408 0 .187-.128.374-.362.374-.257 0-.443-.199-.514-.385l-.011-.024-.397.35.011.012c.222.35.537.537.911.537.596 0 .97-.362.97-.934 0-.537-.41-.7-.736-.829-.234-.093-.42-.163-.42-.338 0-.176.175-.292.338-.292.175 0 .304.07.42.21l.012.023.28-.385-.011-.012c-.187-.187-.56-.303-.818-.303a.832.832 0 00-.829.829zm3.001-.747h-.584v2.72h.607v-2.72h-.023zm2.977 0h-.712s-.841 1.062-.888 1.109v-1.11h-.607v2.721h.607v-1.19l.923 1.19h.77s-1.167-1.436-1.179-1.46c.012-.011 1.121-1.26 1.121-1.26h-.035zm6.282-.071h-.42v2.791h.595v-1.81c.035.047 1.53 1.857 1.53 1.857h.432v-2.768h-.608v1.787a165.732 165.732 0 00-1.53-1.857zm8.535 0h-.42v2.791h.607v-1.81c.035.047 1.53 1.857 1.53 1.857h.431v-2.768h-.607v1.787a317.929 317.929 0 01-1.541-1.857zm5.033.071h-.713s-.84 1.062-.887 1.109v-1.11h-.607v2.721h.607v-1.19l.922 1.19h.771s-1.168-1.436-1.18-1.46c.012-.011 1.122-1.26 1.122-1.26h-.035zm-27.556.77c.023.058.338.9.35.923h-.654c.012-.036.28-.865.304-.923zm.245-.84h-.456l-1.156 2.79h.63s.234-.549.246-.572h.993c.011.023.222.572.222.572h.642l-1.121-2.79z" fill="#fff"/>
  <path d="M29.425 13.797c-.199-.187-.339-.455-.339-.7 0-.42.339-.865.84-.865a.79.79 0 01.55.21.87.87 0 01.292.643c0 .408-.374.91-.841.91a.69.69 0 01-.502-.198zm-.958-.677c0 .409.164.794.467 1.062.269.246.62.374 1.005.374.829 0 1.46-.619 1.46-1.436a1.4 1.4 0 00-.468-1.051 1.436 1.436 0 00-.992-.374c-.83 0-1.472.63-1.472 1.425zm4.111-.899c.21 0 .338.035.408.105a.321.321 0 01.094.175c0 .035.011.059.011.094 0 .28-.151.397-.525.397h-.058v-.783h.07v.012zm-.654-.455h-.012v2.72h.607v-1.062c.035.058.69 1.062.69 1.062h.723s-.806-1.109-.829-1.144c.409-.07.584-.444.584-.747 0-.059-.012-.129-.012-.187a.704.704 0 00-.222-.409c-.175-.152-.432-.233-.759-.233h-.77zm6.41.455c.152 0 .245.023.304.082a.31.31 0 01.081.163c0 .024.012.059.012.082 0 .257-.105.339-.397.339h-.047v-.666h.047zm.023 1.098c.199 0 .386.011.49.105.047.035.07.093.083.163 0 .024.011.047.011.082 0 .338-.268.374-.56.374h-.105v-.724h.081zm-.665-1.553h-.012v2.72h.91c.596 0 .947-.292.947-.77 0-.047 0-.094-.012-.152-.047-.245-.198-.479-.479-.537.175-.117.245-.339.245-.514 0-.07 0-.129-.011-.187a.637.637 0 00-.187-.362c-.152-.14-.374-.198-.689-.198h-.712zm3.468.77c.023.058.338.9.35.923h-.654c.011-.036.28-.865.303-.923zm.244-.84h-.455l-1.156 2.79h.63s.234-.549.246-.572h.992c.012.023.222.572.222.572h.642l-1.12-2.79zm-31.981.171h-.91v.304h.933v-.304h-.023zm.631 1.262H9.68l.011.841v.199c0 .093.024.163.094.222a.54.54 0 00.28.105h.42v-.327h-.28c-.023 0-.046 0-.07-.024a.133.133 0 01-.035-.093v-.082l-.011-.83h-.035v-.011zm-1.121-.589H8.57l-.012 1.435v.199c0 .093.023.163.093.222a.54.54 0 00.292.105h.538v-.327h-.386c-.023 0-.046 0-.082-.024a.132.132 0 01-.035-.093v-.093l.012-1.425h-.058z" fill="#fff"/>
  <path d="M10.697 12.046l.011.666c0 .222-.035.222-.21.222h-.409l-.012-.876h.62v-.012zm.362-.304h-1.39l.011 1.484h1.122c.222 0 .315-.164.315-.327l-.011-1.157h-.047z" fill="#fff"/>
  <path d="M10.906 12.336H9.855l.012.303h1.086v-.303h-.047zm-.246 1h-.362l.28.689.094.245c.058.152.128.234.315.234h.28v-.292h-.081c-.105 0-.164-.024-.245-.222l-.269-.654h-.012zm-2.335-.988l-.012.268h1.133v-.28h-1.12v.012zm1.122.586H8.033l.012.303h1.414l-.012-.303z" fill="#fff"/>
  <path d="M11.034 13.328s-.07.257-.07.269c-.058.128-.187.093-.187.093l-.023-.011v.292h.257c.21 0 .222-.152.222-.152l.128-.48v-.023l-.327.012zm-2.102-1.609h-.385l-.315.619c-.035.058-.164.058-.164.058h-.011v.292h.245c.152 0 .198-.129.198-.129l.444-.805.012-.024h-.024v-.011zm5.828.035h-1.367l.012.386h1.449l-.012-.386h-.082zm-1.8-.035h-.35l-.28.619c-.023.046-.129.046-.129.046h-.035l.012.316h.234a.18.18 0 00.186-.14l.386-.795.023-.046h-.046zm-.186.828l-.186.385c-.047.105-.094.14-.164.14h-.175l.012.327h.233c.28 0 .386-.233.386-.245l.28-.584.023-.047h-.409v.024z" fill="#fff"/>
  <path d="M12.762 13.105h-.385l.023 1.39h.468l-.024-1.39h-.082zm1.928-.375h-.386l.035 1.191v.047c0 .129 0 .14-.035.14h-.876l.012.397h1.004c.082 0 .362-.023.35-.327l-.011-.198-.035-1.25h-.059z" fill="#fff"/>
  <path d="M14.83 12.55h-1.472l.012.386h1.542v-.385h-.081zm-7.672-.777H4.32l.012.316 2.884.011v-.327h-.058zm.012.872H4.343v.315h2.872v-.316H7.17zm-.141-.399H4.483v.245h2.58v-.245H7.03z" fill="#fff"/>
  <path d="M5.967 11.59h-.409v1.344h.456l-.012-1.344h-.035zm0 1.496H5.57l.011.864v.14c0 .094-.011.094-.07.094h-.175v.316h.385c.117 0 .316-.047.316-.328v-.21l-.012-.876h-.058zm-1.413 1.202c.082 0 .187-.058.257-.163 0 0 .07-.105.082-.117h.374l-.024.023-.14.175-.023.035c-.187.234-.199.234-.502.234h-.222v-.187c.012.012.198 0 .198 0zm.316-1.413h.384l-.023.023-.14.175c-.222.257-.245.27-.467.257h-.292v-.186h.152c.152 0 .187-.036.245-.117l.012-.012.058-.07.07-.07zm1.729.07l.082.07.011.012c.094.07.14.117.292.117h.234c.011.023 0 .163 0 .186h-.304c-.21.012-.245.012-.56-.257l-.199-.175s-.012-.011-.035-.023h.385c.012 0 .094.07.094.07zm-2.232.567l-.023-.024h.385l.023.024c.082.093.187.105.327.105h.199v.21h-.315c-.327 0-.374-.047-.538-.245l-.058-.07zm2.313.508c.01.011.081.116.081.116.082.105.187.164.269.164h.198v.187h-.233c-.304 0-.316-.012-.514-.234l-.035-.035-.14-.175-.024-.023h.397zm.151-.505l.023-.035h.374l-.023.024-.059.07c-.163.198-.21.245-.537.245h-.303v-.21h.21c.152.012.245-.012.315-.094zm-3.375-.617H.164v.316h3.34v-.316h-.048zm-.269-1.144H.408v.315h2.838v-.315h-.059z" fill="#fff"/>
  <path d="M2.58 11.836h-.35l-.012 2.674.432.011v-2.685h-.07zm-1.062.094v1.786s-.012.362-.222.549c-.21.187-.269.245-.269.245l-.315-.292.245-.222s.129-.105.129-.478V11.93h.432zm61.244-.094c-.341-.17-.693-.352-1.237-.352-.48 0-.864.182-1.237.352-.384.182-.79.363-1.323.363-.47 0-.832-.16-1.205-.341-.395-.182-.79-.363-1.333-.363-.48 0-.864.17-1.237.341-.395.182-.8.363-1.334.363h-.085c.053.064.107.139.17.203.534-.022.94-.203 1.334-.374.373-.17.714-.32 1.152-.32.501 0 .864.171 1.248.352.384.182.778.363 1.29.363.576 0 1.003-.192 1.408-.384.363-.17.715-.33 1.152-.33.49 0 .81.16 1.152.33.373.181.746.384 1.376.384.064-.064.117-.139.17-.203-.053 0-.106.011-.16.011-.586-.032-.949-.213-1.3-.395z" fill="#fff"/>
  <path d="M61.525 11.871c-.48 0-.864.181-1.237.352-.384.181-.79.363-1.323.363-.47 0-.832-.16-1.205-.342-.395-.18-.79-.362-1.333-.362-.48 0-.864.17-1.238.341-.33.15-.672.299-1.098.341.053.064.117.118.17.182.384-.064.694-.203 1.003-.342.373-.17.715-.32 1.152-.32.501 0 .864.171 1.248.352.384.171.778.363 1.29.363.576 0 1.003-.192 1.408-.384.363-.17.715-.33 1.152-.33.49 0 .81.16 1.152.33.299.15.597.31 1.035.363.063-.064.117-.128.18-.182-.49-.032-.81-.192-1.12-.352-.34-.192-.692-.373-1.236-.373z" fill="#fff"/>
  <path d="M61.525 12.254c-.48 0-.864.181-1.237.352-.384.181-.79.363-1.323.363-.469 0-.832-.16-1.205-.342-.394-.181-.79-.362-1.333-.362-.48 0-.864.17-1.237.34-.245.107-.49.225-.768.289.064.053.117.107.181.16.245-.075.459-.17.672-.267.373-.16.715-.32 1.152-.32.501 0 .864.17 1.248.352.384.17.779.363 1.29.363.576 0 1.003-.192 1.408-.384.363-.17.715-.33 1.152-.33.49 0 .81.16 1.152.33.213.107.427.213.693.288.064-.053.128-.107.182-.16-.31-.064-.555-.192-.79-.31-.341-.191-.693-.362-1.237-.362z" fill="#fff"/>
  <path d="M61.525 12.628c-.48 0-.864.181-1.237.341-.384.181-.79.363-1.323.363-.469 0-.832-.17-1.205-.341-.395-.182-.79-.374-1.333-.374-.48 0-.864.17-1.237.341l-.448.192.181.15c.117-.043.235-.096.352-.15.373-.17.715-.32 1.152-.32.501 0 .864.171 1.248.352.384.182.778.363 1.29.363.576 0 1.003-.192 1.408-.384.363-.17.715-.33 1.152-.33.49 0 .81.16 1.152.33.117.064.234.117.362.17a1.23 1.23 0 00.182-.149 5.845 5.845 0 01-.459-.213c-.341-.16-.693-.341-1.237-.341z" fill="#fff"/>
  <path d="M61.525 13.012c-.48 0-.864.17-1.237.352-.384.181-.79.362-1.323.362-.47 0-.832-.17-1.205-.341-.395-.181-.79-.363-1.333-.363-.48 0-.864.171-1.237.342-.043.021-.086.042-.128.053.064.043.128.096.192.139.01 0 .01-.011.02-.011.374-.17.715-.32 1.153-.32.501 0 .864.17 1.248.352.384.181.778.363 1.29.363.576 0 1.003-.192 1.408-.384.363-.171.715-.331 1.152-.331.49 0 .81.16 1.152.33.01.011.032.011.042.022l.192-.128a.573.573 0 01-.138-.075c-.352-.181-.704-.362-1.248-.362z" fill="#fff"/>
  <path d="M60.288 13.739c-.384.181-.79.362-1.322.362-.47 0-.832-.16-1.206-.341-.394-.181-.789-.363-1.333-.363-.384 0-.714.118-1.024.246.075.042.139.085.214.128.256-.107.512-.182.81-.182.502 0 .864.171 1.248.352.384.182.779.363 1.29.363.577 0 1.003-.192 1.408-.384.363-.17.715-.33 1.152-.33.352 0 .608.074.854.191.074-.042.138-.085.202-.128-.288-.138-.608-.266-1.056-.266-.48.01-.864.181-1.237.352z" fill="#fff"/>
  <path d="M58.997 14.687a6.714 6.714 0 01-6.708-6.71c0-3.7 3.007-6.708 6.708-6.708s6.709 3.008 6.709 6.709a6.7 6.7 0 01-6.709 6.709zm0-14.687a7.984 7.984 0 00-7.988 7.989 7.984 7.984 0 007.988 7.988 7.99 7.99 0 007.989-7.989A7.984 7.984 0 0058.997 0z" fill="#fff"/>
  <path d="M62.73 6.008c-.053.246-.298.512-.437.619-.31.256-2.378 1.514-2.613 1.802-.234.288-.277.715-.277 1.046v2.431h.32v-.629c0-.213.117-.555.373-.81.427-.449 1.419-1.003 2.059-1.472.544-.395.575-.928.575-1.398V5.934v.074z" fill="#B0B0B0"/>
  <path d="M59.413 8.277c.224-.288 2.357-1.59 2.666-1.835.31-.245.662-.63.662-1.109v-2.72c0 .384-.214.672-.491 1.035-.31.416-1.75 1.184-2.453 1.685-.704.501-.95.992-.95 1.61v4.97h.32v-2.59c-.01-.33.011-.757.246-1.045zm-1.621-2.803c-.65-.502-1.973-1.568-2.133-1.781-.15-.214-.501-.598-.501-1.056v2.527c0 .363.17 1.014.8 1.472.629.459 1.514 1.13 1.78 1.397.267.267.513.747.513 1.44v2.443h.32V7.063c.01-.8-.128-1.099-.779-1.59z" fill="#B0B0B0"/>
  <path d="M2.335 6.053v.665c0 .094-.012.175-.07.222-.035.035-.117.047-.222.047h-.409V5.352c.094.012.316.035.456.128.245.164.245.374.245.573zM2.312 4.51c.77.28 1.062.082 1.074.07l.023-.011-.163-.678-.059.035s-.21.117-.782-.081c-.537-.187-1.016-.187-1.413.011-.619.316-.817.981-.817 1.016v.467h.677v1.658H.467v.736h1.81c.21 0 .42 0 .595-.152.199-.175.222-.42.222-.689V5.89c0-.374-.07-.654-.444-.922-.443-.316-1.25-.327-1.53-.316.129-.128.514-.385 1.192-.14zm8.711.458c0-.9-.643-1.296-1.285-1.296a1.58 1.58 0 00-1.366.782l-.023.035.618.409.024-.047s.222-.432.689-.444c.152 0 .292.047.397.152a.633.633 0 01.187.467v2.721h.759V4.968zm7.332 0c0-.9-.642-1.296-1.284-1.296-.946 0-1.367.77-1.367.782l-.011.035.607.409.023-.047s.222-.432.69-.444c.151 0 .291.047.396.152a.632.632 0 01.187.467v2.721h.76V4.968zm1.285-.202h1.238c.222 0 .42 0 .595.152.199.175.222.42.222.689v1.296c0 .502-.397.876-.922.876-.514 0-.923-.386-.923-.876 0-.502.397-.887.923-.887h.151v-.304c0-.152-.035-.199-.058-.222-.035-.035-.117-.047-.222-.047h-1.856v-.572c.011-.023.186-.665.782-.98.374-.21.829-.234 1.354-.082.526.151.818 0 .818 0l.046-.024.024.047.222.572.011.035-.035.024c-.35.21-.84.14-1.179.046-.806-.257-1.098.105-1.191.257zm1.133 2.382c.373 0 .373-.549 0-.549-.374 0-.374.55 0 .55zm14.478-2.382h1.238c.222 0 .42 0 .596.152.198.175.221.42.221.689v1.296c0 .502-.397.876-.91.876-.514 0-.923-.386-.923-.876 0-.502.397-.887.923-.887h.151v-.304c0-.152-.035-.199-.058-.222-.047-.035-.117-.047-.222-.047h-1.856v-.572c.011-.023.186-.665.782-.98.374-.21.829-.234 1.355-.082.525.151.817 0 .817 0l.046-.024.257.654-.035.024c-.35.21-.84.14-1.179.046-.817-.257-1.12.105-1.203.257zm1.133 2.382c.374 0 .374-.549 0-.549s-.374.55 0 .55zM24.205 3.672c-1.062-.012-1.705.654-1.705.666l-.011.011v.654l.035.012c.245.07.502.152.607.187-.082.081-.245.292-.245.689v1.844h.77V6.007c0-.105 0-.28.117-.432.117-.151.362-.233.362-.233l.035-.012v-.502l-.023-.012c-.012 0-.292-.105-.444-.151-.128-.035-.222-.059-.268-.082.116-.07.385-.187.782-.187.012 0 .992.023.992.829v2.499h.771V5.062c-.012-.83-.7-1.378-1.775-1.39zm5.558.477c-.07.058-.117.093-.152.116.024.036.047.082.082.129.117.198.175.455.175.724v2.604h-.77v-1.18c0-.186-.444-.945-1.145-.945-.233 0-.42.175-.42.385v.047c.035 0 .093-.012.163-.012.526 0 .923.362.923.864s-.397.876-.923.876c-.525 0-.922-.374-.922-.876v-.9c0-.548.397-1.108 1.168-1.108.618 0 1.015.362 1.179.548v-.21c0-.677-.7-.829-.946-.829-.817 0-1.086.56-1.098.584l-.023.035-.689-.303.012-.036c0-.011.479-1.015 1.786-1.015.42 0 .701.116.771.14a.74.74 0 00.128-.094c.28-.245.292-.502.292-.502v-.046h.888v.046c.011.047-.035.56-.479.958zm-2.067 3c.374 0 .374-.548 0-.548-.373 0-.373.549 0 .549zm1.577-4.915a5.134 5.134 0 00-1.086-.117c-.373 0-.63.024-.759.047.105-.14.374-.385.876-.385.572.023.853.315.97.455zm.806.14a1.8 1.8 0 00-1.775-1.296c-1.366-.011-1.751 1.273-1.763 1.285v.583l.058-.011c.012 0 .596-.094 1.53-.094.992 0 1.88.176 1.892.176l.058.011v-.654zm2.149 1.298c-1.063-.012-1.705.654-1.705.666l-.012.011v.654l.035.012c.234.07.502.152.607.187-.093.081-.245.292-.245.689v1.844h.77V6.007c0-.105 0-.28.118-.432.116-.151.362-.233.362-.233l.035-.012v-.502l-.024-.012c-.011 0-.292-.105-.443-.151-.129-.035-.222-.059-.269-.082.117-.07.374-.187.782-.187.012 0 .993.023.993.829v2.499h.77V5.062c-.011-.83-.712-1.378-1.774-1.39zm12.06.891V7.74h-.77V4.53L42.14 6.465V7.74h-.76v-2.3h-.15c-.526 0-.923-.385-.923-.9 0-.49.408-.875.922-.875s.91.374.91.876v.665l.094-.163.981-1.331h.222c.233 0 .455 0 .642.163.199.175.21.409.21.69zm-3.047-.245c-.362 0-.362.537 0 .537s.362-.537 0-.537zm7.169-.599v3.176c0 .268-.011.513-.221.689-.175.151-.374.151-.596.151h-1.611c-.222 0-.42 0-.596-.151-.198-.176-.221-.42-.221-.69v-.21c0-.455.268-.677.397-.759-.164-.093-.514-.385-.526-1.12 0-.783.537-1.133 1.028-1.133.525 0 .922.385.922.876 0 .502-.397.875-.922.875h-.07c.035.059.116.152.338.199.28.058.596.023.596.023h.046v.666h-.432c-.338 0-.63.023-.63.373 0 .257.07.316.409.316h1.027c.07 0 .164 0 .21-.047.059-.047.07-.14.07-.222V3.72h.783zm-2.346.595c-.362 0-.362.537 0 .537.373 0 .373-.537 0-.537zm-41.369 0c-.362 0-.362.537 0 .537s.362-.537 0-.537zm3.946 2.51a.889.889 0 01-.257.654 1.074 1.074 0 01-.735.304c-.432 0-.876-.245-.876-.794v-.362a3.86 3.86 0 00-.42.339c-.316.28-.526.537-.643.665-.093.105-.105.117-.128.117h-.7v-2.3H4.73c-.526 0-.911-.386-.911-.9 0-.49.397-.875.91-.875.514 0 .9.374.9.876v1.786l-.012.339c.093-.094.269-.269.56-.514.292-.234.514-.35.596-.374V3.72h.747v1.973c.199.023 1.098.21 1.121 1.133zm-.946-.291c-.397 0-.397.595 0 .595s.397-.595 0-.595zm7.636-1.141V7.74h-.77V5.404c0-.596-.468-1.051-1.086-1.051-.771 0-1.121.549-1.121 1.086 0 .303.07.525.128.654.047-.187.129-.526.129-.526.116-.478.443-.77.875-.77.35 0 .84.257.84.817 0 .596-.513.806-.84.806a.914.914 0 01-.327-.07c-.023.081-.093.28-.14.537a3.785 3.785 0 00-.105.805v.047h-.77V7.53c0-.339-.117-.654-.234-.97-.152-.396-.304-.805-.269-1.33.082-1.028 1.005-1.577 1.845-1.577.537 0 .993.164 1.343.49a1.8 1.8 0 01.502 1.25zm-1.845-.07c-.373 0-.373.549 0 .549.374 0 .374-.549 0-.549zm26.856 1.585c0 .49-.409.876-.922.876-.526 0-.911-.374-.911-.876V2.995l.047-.91-.596 1.004h-.455l-.444-1.39a.297.297 0 01-.047-.105c-.023-.058-.035-.07-.058-.07-.035-.011-.047-.023-.047-.046V.672h.362c.059 0 .117.035.187.093.058.059.093.14.093.14l.339.958.712-1.203h.69v5.371c.034 0 .08-.011.151-.011.502 0 .9.373.9.887zm-.922.245c.373 0 .373-.548 0-.548-.374 0-.374.548 0 .548z" fill="#fff"/>
</svg>
