<svg width="46" height="16" fill="none" xmlns="http://www.w3.org/2000/svg">
  <path d="M5.57 9.3c-.5-.515-1.103-1.352-1.478-2.565 0 0-.014-.044-.036-.044s-.044.052-.044.052C3.189 9.41 1.205 10.46.529 10.688c-.037.015-.037.044-.037.06.346.94.867 1.792 1.521 2.527.015.007.037.022.074 0 2.123-1.213 3.335-3.578 3.497-3.91.015-.028 0-.05-.015-.065zm4.82 0c.007 0 .007 0 0 0 .499-.515 1.101-1.352 1.483-2.565 0 0 .015-.044.037-.044s.044.052.044.052c.823 2.667 2.807 3.718 3.483 3.945.037.015.037.044.037.06a7.899 7.899 0 01-1.521 2.527c-.015.007-.037.022-.074 0-2.13-1.213-3.335-3.578-3.497-3.91-.015-.028.007-.05.007-.065zm1.44 5.628c-3.006-2.924-3.8-8.148-3.8-8.148s-.014-.089-.05-.089c-.037 0-.052.089-.052.089s-.786 5.224-3.799 8.148c0 0-.03.03 0 .051a7.952 7.952 0 003.792.985h.102a7.953 7.953 0 003.792-.985c.044-.022.014-.051.014-.051zm.323-13.759c-.044-.022-.044.037-.044.037.007.94.132 6.142 3.762 7.73.037.014.044-.008.044-.015a7.82 7.82 0 00.059-.934 8.004 8.004 0 00-3.821-6.818zm-8.333 0c.045-.022.045.037.045.037-.008.94-.132 6.142-3.762 7.73-.03.014-.044-.008-.044-.015A7.972 7.972 0 013.82 1.169zm7.848-.273A7.896 7.896 0 008.215 0c-.037 0-.03.044-.03.044 0 1.587.257 5.298 1.492 7.803.007.03.03.015.044.015l.007-.008c.125-.132 2.043-2.24 1.97-6.899 0-.037-.023-.059-.03-.059zm-7.37 0A7.923 7.923 0 017.751 0c.037 0 .03.044.03.044 0 1.587-.257 5.298-1.5 7.803-.006.03-.036.015-.036.015-.007 0-.007-.008-.007-.008-.125-.132-2.043-2.24-1.97-6.899 0-.037.015-.059.03-.059zm18.223 2.567h.814s.133.03.133.142v.397h.02c.224-.448.661-.63 1.21-.63v.955c-.07 0-.132.01-.183.01-.57.061-1.037.377-1.037 1.14v1.607s.02.295-.255.295h-.691V3.463h-.01zm19.806 0h.803s.143.03.143.142v.397h.01c.224-.448.661-.63 1.21-.63v.955c-.06 0-.122.01-.183.01-.57.061-1.037.377-1.037 1.14v1.607s.02.295-.255.295h-.691V3.463zm-13.55.186v3.57s0 .153-.142.153h-.804v-.387h-.02c-.214.275-.59.478-1.119.478-.661 0-1.434-.274-1.434-1.414V3.455h.803s.143.02.143.184v2.136c0 .539.213.773.702.773.712 0 .925-.519.925-.997V3.445h.794c-.01.02.152.041.152.204zm.926-.186h.783s.163.02.163.173v.213h.02c.275-.335.692-.478 1.068-.478.926 0 1.343.468 1.343 1.333v2.533s.01.152-.132.152h-.804V5c0-.356-.163-.702-.651-.702-.458 0-.834.305-.834 1.027v1.913s0 .152-.143.152h-.803V3.463h-.01zm5.981.77c-.712 0-.915.62-.925 1.038.01.417.213 1.038.925 1.038.712 0 .926-.621.926-1.038-.01-.417-.214-1.038-.926-1.038zm1.842-.6v3.662c0 1.017-.835 1.526-1.893 1.526-1.24 0-1.75-.865-1.75-1.353h.998c.07.275.335.488.803.488.61 0 .895-.315.895-.793v-.417c-.305.325-.773.437-1.118.437-.977 0-1.7-.722-1.7-1.902s.723-1.902 1.7-1.902c.57 0 .874.193 1.098.468h.02V3.47h.784c0-.01.163-.01.163.163zm3.997.562l-.448.417-.091.081a.689.689 0 00-.072-.111c-.152-.224-.447-.438-.925-.438-.438-.01-.712.143-.712.377 0 .681 2.472.101 2.472 1.586 0 .946-.845 1.374-1.74 1.374-.854 0-1.465-.265-1.82-.62-.072-.082.02-.164.02-.164l.62-.478c.214.316.62.489 1.13.489.447 0 .762-.245.762-.458 0-.672-2.431-.112-2.431-1.607 0-.885.763-1.272 1.74-1.272.793 0 1.26.336 1.505.58.122.122-.01.244-.01.244zm3.53-.731h.804s.142.01.142.153v3.6s.02.153-.142.153h-.794V3.464h-.01zM45.999 2c0-.122-.163-.132-.163-.132h-.793v.824s-.02.132.142.132H46V2zM22.023 3.462h-1.017a.572.572 0 00-.346.142l-1.342 1.333V2.82c0-.173-.143-.285-.143-.285l-.803-.661v5.513h.783c.183 0 .163-.203.163-.203V6.137c0-.04.03-.081.081-.081.071 0 .153.091.153.091l1.088 1.089s.193.152.417.152h.966L20.05 5.415l1.973-1.953zm.051 7.326c-.132.03-.244.082-.346.143a.933.933 0 00-.254.234.62.62 0 00-.102.366s0 .224.081.366c.062.102.163.214.255.285.091.071.203.132.315.193.112.051.214.102.315.163.092.061.173.122.245.193a.399.399 0 01.091.265c0 .081-.04.152-.122.213-.081.061-.397.133-.732.02a9.557 9.557 0 01-.417-.193v.509c.101.05.183.092.274.122.092.03.295.092.54.092.335 0 .58-.082.742-.245a.87.87 0 00.244-.61.552.552 0 00-.071-.295.926.926 0 00-.173-.234 1.037 1.037 0 00-.234-.183c-.092-.05-.173-.102-.254-.142-.072-.041-.143-.072-.214-.112-.071-.03-.132-.071-.183-.102a.354.354 0 01-.132-.142.362.362 0 01-.051-.194c0-.07.01-.132.05-.183a.323.323 0 01.123-.112.73.73 0 01.213-.05c.428-.041.773.152.773.152v-.427a1.826 1.826 0 00-.976-.092zm7.578 0a1.34 1.34 0 00-.355.143.805.805 0 00-.255.234.619.619 0 00-.102.366s0 .224.082.366c.06.102.163.214.254.285.092.071.204.132.316.193.111.051.223.102.315.163.102.061.173.122.244.193a.398.398 0 01.091.265c0 .081-.04.152-.122.213-.081.061-.396.133-.732.02-.081-.03-.417-.193-.417-.193v.509c.102.05.183.092.275.122.091.03.295.092.539.092.335 0 .58-.082.732-.245a.828.828 0 00.244-.61.664.664 0 00-.06-.295 1.26 1.26 0 00-.174-.234 1.036 1.036 0 00-.234-.183 3.165 3.165 0 00-.254-.142c-.071-.041-.142-.072-.214-.112-.06-.03-.122-.071-.183-.102a.45.45 0 01-.132-.142.362.362 0 01-.05-.194c0-.07.01-.132.05-.183a.323.323 0 01.122-.112.744.744 0 01.214-.05 1.46 1.46 0 01.773.152v-.427a1.79 1.79 0 00-.966-.092zm-6.714 3.243c.071 0 .112.051.112.122v.58c0 .102-.112.153-.112.153l-.335.183V14.03h.335zm2.096-3.152c.102 0 .142.05.142.163v2.472c0 .132-.132.152-.132.152h-.64l-.764-1.912h.407c.142 0 .173.101.173.101l.427 1.13v-2.106h.387zm5.625-.852c0 .133-.03.183-.153.183h-1.648v-.01l.244-.315s.062-.092.224-.092h.895v-.325c0-.132.092-.183.092-.183l.346-.183v.925zm-2.359.661h-.387a.237.237 0 00-.194.091l-.06.081a1.437 1.437 0 00-.58-.111c-.387 0-.672.101-.865.305-.183.193-.285.488-.285.854v1.76h.346v.01h.04c.092 0 .123-.05.123-.122v-1.109h.458c.101 0 .122-.02.162-.07.01 0 .214-.347.214-.347h-.824c0-.122 0-.244.01-.346a.725.725 0 01.082-.274.4.4 0 01.183-.183.813.813 0 01.356-.072c.142 0 .254.02.345.062.092.04.153.091.194.162.04.071.071.153.081.255.01.091.02.203.02.325v1.709h.397c.082 0 .122-.05.122-.122v-1.638c0-.335-.081-.61-.234-.803l.295-.418zm-7.945.363c-.194-.203-.479-.305-.855-.305-.387 0-.671.102-.865.305-.193.194-.284.489-.284.855v1.76h.396c.082 0 .122-.051.122-.123v-1.515c0-.122 0-.244.01-.346a.726.726 0 01.082-.275.378.378 0 01.193-.183.813.813 0 01.356-.071c.143 0 .255.02.336.061a.38.38 0 01.183.173c.04.071.071.152.081.254.01.092.02.204.02.326v1.698h.387c.082 0 .122-.05.122-.121v-1.648c.01-.367-.091-.652-.284-.845z" fill="#fff"/>
</svg>
