<svg width="30" height="30" fill="none" xmlns="http://www.w3.org/2000/svg">
  <g clip-path="url(#mastercard-color-30px__clip0)">
    <path d="M28 0H2a2 2 0 00-2 2v26a2 2 0 002 2h26a2 2 0 002-2V2a2 2 0 00-2-2z" fill="#000"/>
    <path d="M18.536 8.645h-7.073v12.708h7.073V8.645z" fill="#FF5F00"/>
    <path d="M11.913 15a8.104 8.104 0 013.076-6.353 8.033 8.033 0 00-4.985-1.729 8.078 8.078 0 00-8.083 8.083 8.078 8.078 0 008.083 8.083 8.033 8.033 0 004.985-1.73 8.07 8.07 0 01-3.076-6.353z" fill="#EB001B"/>
    <path d="M28.078 15a8.078 8.078 0 01-8.083 8.084 8.034 8.034 0 01-4.984-1.73 8.037 8.037 0 003.076-6.353 8.104 8.104 0 00-3.076-6.354 8.033 8.033 0 014.984-1.729c4.468 0 8.083 3.637 8.083 8.083z" fill="#F79E1B"/>
  </g>
  <defs>
    <clipPath id="mastercard-color-30px__clip0">
      <path fill="#fff" d="M0 0h30v30H0z"/>
    </clipPath>
  </defs>
</svg>
