<svg width="26" height="16" fill="none" xmlns="http://www.w3.org/2000/svg">
  <g clip-path="url(#mastercard-white-16vh__clip0)">
    <path d="M3.822 15.965v-1.062c0-.407-.252-.672-.685-.672-.216 0-.45.07-.613.3-.126-.194-.306-.3-.577-.3-.18 0-.36.053-.504.248v-.213h-.379v1.7h.379v-.939c0-.3.162-.442.414-.442s.379.16.379.442v.938h.378v-.938c0-.3.18-.442.415-.442.252 0 .378.16.378.442v.938h.415zm5.606-1.699h-.613v-.513h-.378v.513h-.343v.337h.343v.778c0 .39.162.62.594.62.163 0 .343-.053.47-.124l-.109-.319a.601.601 0 01-.324.089c-.18 0-.253-.106-.253-.283v-.761h.613v-.337zm3.209-.035a.51.51 0 00-.451.248v-.213h-.379v1.7h.379v-.956c0-.284.126-.443.36-.443.073 0 .163.018.235.036l.108-.354c-.072-.018-.18-.018-.252-.018zm-4.85.177c-.18-.124-.432-.177-.702-.177-.433 0-.721.212-.721.549 0 .283.216.442.594.495l.18.018c.199.035.307.088.307.177 0 .124-.144.212-.396.212-.253 0-.451-.088-.577-.177l-.18.283c.198.142.468.213.739.213.504 0 .793-.23.793-.549 0-.3-.235-.46-.595-.513l-.18-.018c-.163-.018-.289-.053-.289-.16 0-.123.126-.194.325-.194.216 0 .432.089.54.142l.163-.301zm10.06-.177a.51.51 0 00-.451.248v-.213h-.379v1.7h.379v-.956c0-.284.126-.443.36-.443.072 0 .162.018.234.036l.109-.354c-.073-.018-.18-.018-.253-.018zm-4.832.885c0 .513.36.885.92.885.252 0 .432-.053.612-.195l-.18-.3a.737.737 0 01-.45.159c-.307 0-.523-.213-.523-.55 0-.318.216-.53.522-.548.163 0 .307.053.451.16l.18-.301c-.18-.142-.36-.195-.612-.195-.56 0-.92.372-.92.885zm3.497 0v-.85h-.378v.213a.656.656 0 00-.541-.248c-.487 0-.865.372-.865.885s.378.885.865.885c.252 0 .433-.089.54-.248v.212h.38v-.85zm-1.388 0c0-.301.199-.549.523-.549.306 0 .523.23.523.549 0 .3-.217.549-.523.549a.526.526 0 01-.523-.55zM10.6 14.23c-.505 0-.866.354-.866.885 0 .53.361.885.884.885.252 0 .505-.071.703-.23l-.18-.266a.871.871 0 01-.505.177c-.234 0-.469-.106-.523-.407h1.28v-.142c.018-.548-.307-.902-.793-.902zm0 .319c.234 0 .396.141.432.406h-.9c.035-.23.197-.406.468-.406zm9.391.566v-1.522h-.378v.885a.656.656 0 00-.541-.248c-.487 0-.865.372-.865.885s.378.885.865.885c.252 0 .433-.089.54-.248v.212h.38v-.85zm-1.388 0c0-.301.199-.549.523-.549.306 0 .523.23.523.549 0 .3-.216.549-.523.549a.526.526 0 01-.523-.55zm-12.654 0v-.85H5.57v.213a.656.656 0 00-.54-.248c-.487 0-.866.372-.866.885s.379.885.866.885c.252 0 .432-.089.54-.248v.212h.379v-.85zm-1.406 0c0-.301.198-.549.523-.549.306 0 .522.23.522.549 0 .3-.216.549-.522.549a.526.526 0 01-.523-.55z" fill="#fff"/>
    <path d="M13.339 1.36H7.66v10.017h5.678V1.359z" fill="#E5E5E5"/>
    <path d="M8.022 6.371c0-2.035.973-3.84 2.47-5.008A6.525 6.525 0 006.488 0C2.902 0 0 2.85 0 6.371c0 3.522 2.902 6.372 6.49 6.372a6.525 6.525 0 004.001-1.363 6.32 6.32 0 01-2.47-5.009z" fill="#B0B0B0"/>
    <path d="M21 6.371c0 3.522-2.902 6.372-6.49 6.372a6.525 6.525 0 01-4.001-1.363 6.294 6.294 0 002.47-5.009c0-2.035-.974-3.84-2.47-5.008A6.525 6.525 0 0114.51 0C18.098 0 21 2.867 21 6.371z" fill="#fff"/>
  </g>
  <defs>
    <clipPath id="mastercard-white-16vh__clip0">
      <path fill="#fff" d="M0 0h26v16H0z"/>
    </clipPath>
  </defs>
</svg>
