<svg width="76" height="16" fill="none" xmlns="http://www.w3.org/2000/svg">
  <path d="M25.73 3.672h-.414c-.404 0-.581.12-.847.575l-2.206 3.661-.916-3.62c-.109-.435-.227-.606-.69-.606h-.345c-.453 0-.738.272-.827.756l-1.024 5.89c-.08.445.118.676.492.676h.158c.394 0 .57-.201.64-.635l.827-4.76.798 3.187c.07.322.128.534.73.534.501 0 .62-.181.797-.474l1.95-3.278-.827 4.76c-.079.455.118.677.483.677h.167c.394 0 .571-.212.64-.636l1.015-5.93c.088-.475-.138-.777-.601-.777zm6.156 4.215c-.049-1.432-.994-2.48-2.59-2.48-1.822 0-2.936 1.522-2.886 3.186.059 1.523 1.083 2.502 2.59 2.502 1.872-.01 2.936-1.543 2.886-3.208zm-2.876 2.159c-.857 0-1.399-.636-1.428-1.503-.04-1.12.68-2.108 1.704-2.108.788 0 1.409.635 1.438 1.513.03 1.18-.69 2.098-1.714 2.098zm6.945-4.64c-.759 0-1.36.384-1.763 1.029.039-.736-.355-.948-.759-.948-.187 0-.335.05-.345.07l-.827 4.791c-.079.495.187.636.542.636h.148c.384 0 .541-.162.62-.636l.492-2.874c.355-.636.75-.938 1.36-.938.61 0 .975.373.985.988.01.162-.03.363-.06.605l-.383 2.22c-.08.494.197.635.541.635h.148c.384 0 .542-.162.62-.636l.424-2.45c.05-.273.079-.515.07-.737-.03-1.029-.7-1.755-1.813-1.755zm23.305 0c-.62 0-1.084.363-1.399 1.029.05-.736-.344-.948-.748-.948-.197 0-.335.05-.345.07l-.837 4.791c-.08.495.236.636.59.636h.148c.335 0 .493-.162.582-.636l.275-1.603c.207-1.25.66-2.118 1.39-2.118.354 0 .58.15.728.322.02.02.571-.201.552-.867-.03-.414-.434-.676-.936-.676zm6.363.084c-.512 0-.798.251-.965.917-.325-.625-.995-1.009-1.773-1.009-1.655 0-2.807 1.513-2.807 3.228 0 1.412.847 2.461 2.186 2.461.818 0 1.448-.343 1.852-1.039-.059.726.079.948.591.948.453 0 .601-.171.65-.686.06-.948.375-2.49.739-4.66 0-.04-.207-.16-.473-.16zm-3.073 4.558c-.808 0-1.27-.524-1.27-1.452 0-1.09.62-2.179 1.772-2.179.936 0 1.33.706 1.33 1.483 0 .978-.65 2.148-1.832 2.148zm10.933-4.642c-.906 0-1.507.474-1.93 1.17-.207-.736-.828-1.17-1.616-1.17-.69 0-1.29.333-1.704.969.02-.676-.364-.878-.758-.878-.197 0-.335.05-.345.07l-.828 4.791c-.078.495.188.636.542.636h.148c.335 0 .542-.141.62-.636l.513-2.975c.374-.595.729-.847 1.28-.847.542 0 .877.413.877 1.039 0 .1-.01.212-.03.333l-.413 2.45c-.08.495.197.636.541.636h.138c.335 0 .552-.151.63-.636l.513-2.975c.374-.595.729-.847 1.28-.847.522 0 .907.323.907.988 0 .162-.03.363-.07.605l-.384 2.22c-.078.494.188.635.542.635h.148c.384 0 .542-.162.62-.636l.424-2.45c.05-.273.07-.515.07-.737.009-1.079-.7-1.755-1.715-1.755zM43.746 7.807c0-.746-.148-1.24-.473-1.674-.355-.464-1.015-.746-1.783-.746-2.325 0-3.162 1.755-3.162 3.278 0 1.452 1.024 2.42 2.6 2.42 1.577 0 2.463-.716 2.463-1.29 0-.384-.266-.515-.571-.545-.414.544-.985.807-1.763.807-.69 0-1.508-.273-1.567-1.534h3.576c.384.01.68-.211.68-.716zm-1.153-.171H39.61c.285-.777.945-1.26 1.782-1.26.424 0 .75.12.966.362.187.222.256.525.236.898zm12.253-.566H52.72c-.256 0-.374.06-.453.141-.128.142-.197.464-.197.606.01.221.197.353.541.353h1.508c-.207 1.079-.877 1.825-2.03 1.825-1.211 0-2.019-.787-2.068-2.128-.06-1.684 1.034-3.076 2.58-3.076.907 0 1.616.494 1.902 1.15.04.05.876.05.847-.686-.01-.263-.158-.575-.433-.837-.444-.454-1.281-.848-2.394-.848-1.556 0-2.788.878-3.428 2.149 0-.01-.01-.01-.01-.01a.666.666 0 00-.542-.253c-.344 0-.57.111-.906.717l-1.655 2.975-.62-2.965c-.118-.555-.315-.727-.66-.727-.404 0-.729.303-.72.374l1.183 4.79-1.221 2.058c-.128.222-.138.514.325.514h.256c.482 0 .64-.302.876-.716l3.33-5.769a4.563 4.563 0 00-.128 1.281c.059 1.937 1.34 3.106 3.21 3.106.887 0 1.596-.342 1.99-.867-.03.565.266.787.66.787.217 0 .375-.07.375-.111l.541-3.107c.09-.484-.088-.726-.532-.726z" fill="#fff"/>
  <path d="M15.693 7.998c0 4.418-3.497 7.998-7.812 7.998-4.314 0-7.81-3.58-7.81-7.998 0-1.22.265-2.37.738-3.399a6.68 6.68 0 00-.463 2.39c0 3.622 2.857 4.146 4.068 4.136 1.852-.02 4.01-.948 5.831-2.663 0 0-.236 1.352-.305 1.765-.069.404.187.757.581.757h.158c.404 0 .7-.343.768-.757l.66-3.772c.079-.424-.187-.756-.6-.756H7.821c-.413 0-.788.222-.857.645 0 .02-.03.141-.03.172-.058.403.217.706.611.706h1.921l-.088.09C8.049 8.593 6.404 9.3 5.045 9.3c-1.35 0-2.867-.877-2.867-2.844C2.178 2.37 5.921 0 7.881 0c4.305 0 7.812 3.58 7.812 7.998z" fill="#B0B0B0"/>
</svg>
