<svg width="65" height="16" fill="none" xmlns="http://www.w3.org/2000/svg">
  <path d="M4.526 12.32a.906.906 0 01-.752-.426L.11 5.584a.903.903 0 01.327-1.21.903.903 0 011.21.326l3.663 6.279a.903.903 0 01-.327 1.21.817.817 0 01-.458.13z" fill="#fff"/>
  <path d="M13.748 8.89c0-.459-.163-.884-.425-1.342-.393-.719-.85-1.177-1.472-1.471a3.06 3.06 0 00-1.7-.327 3.72 3.72 0 00.36-1.308c.065-.654-.164-1.243-.556-1.962a3.284 3.284 0 00-.949-1.047c-.392-.228-.784-.392-1.242-.425-.458-.032-.916 0-1.406.098-.164.033-.327.099-.49.131l-.197.098c-.294.098-1.046.524-1.308.687l-1.275.752h-.033a1.04 1.04 0 00-.36 1.374.985.985 0 001.34.36h.034l2.06-1.178c.196-.098.392-.163.588-.196.197-.033.393 0 .589.033.196.065.36.163.556.294.163.13.294.294.425.49.098.197.196.393.229.622.033.229.033.425 0 .621s-.098.36-.229.523a1.225 1.225 0 01-.425.393l-1.243.752-.523.294-.327.196c-.458.262-.589.818-.327 1.276.164.294.49.457.818.457a.75.75 0 00.457-.13l.687-.393 1.766-.948c.196-.098.36-.164.556-.164.196 0 .392.033.556.098.196.066.36.164.523.295.163.13.294.294.425.49.098.197.164.393.196.589.033.196.033.425-.033.621-.032.196-.13.36-.261.556a2.09 2.09 0 01-.49.425L7.6 12.257h-.163l-.556.327-1.08.589c-.457.262-.653.85-.392 1.308.164.327.49.523.85.523a.75.75 0 00.458-.13l2.616-1.407 2.126-1.144a5.949 5.949 0 001.243-.949c.36-.36.62-.752.784-1.144.197-.458.295-.883.262-1.34zm27.076 1.699c-.196 0-.425 0-.588-.164-.164-.163-.164-.392-.164-.588V4.932c0-.196 0-.425.164-.589.163-.163.392-.163.588-.163h1.832c1.275 0 1.994.72 1.994 1.798 0 .72-.457 1.177-.817 1.341.392.196.883.589.883 1.439 0 1.21-.818 1.864-1.962 1.864h-1.93v-.033zm.524-5.297v1.471h1.242c.523 0 .818-.294.818-.752s-.295-.752-.818-.752h-1.242v.033zm1.308 4.185c.556 0 .85-.36.85-.785 0-.425-.262-.784-.85-.784h-1.308v1.57h1.308zm4.054-.88c0 .622.36 1.047 1.047 1.047.294 0 .589-.066.817-.262.197-.13.295-.163.425-.163.23 0 .458.229.458.49 0 .23-.196.425-.458.589-.327.229-.752.327-1.275.327-1.112 0-2.19-.49-2.19-2.42 0-1.537.817-2.42 2.06-2.42 1.275 0 1.994.916 2.06 2.093 0 .196-.033.392-.164.523-.163.164-.327.164-.523.164H46.71v.032zm1.7-1.308c-.13-.294-.391-.49-.784-.49-.392 0-.654.196-.785.49a1.245 1.245 0 00-.098.524h1.799a2.034 2.034 0 00-.131-.524zm2.388-.364h-.13c-.23 0-.295 0-.393-.066a.416.416 0 01-.23-.392c0-.164.066-.327.23-.392.098-.066.163-.066.392-.066h.131v-.621c0-.294 0-.393.065-.523a.578.578 0 01.524-.295c.228 0 .425.098.523.295.065.13.065.229.065.523v.621h.36c.229 0 .294 0 .392.066.131.065.23.196.23.392 0 .163-.066.327-.23.392-.098.066-.163.066-.392.066h-.36V9.18c0 .229.066.393.393.425.163 0 .261.033.36.066.13.065.228.196.228.425 0 .196-.098.36-.229.425-.098.065-.261.065-.49.065h-.066c-.98 0-1.373-.654-1.373-1.34V6.925zm3.172 0h-.13c-.23 0-.295 0-.393-.066a.416.416 0 01-.23-.392c0-.164.066-.327.23-.392.098-.066.163-.066.392-.066h.13v-.621c0-.294 0-.393.066-.523a.578.578 0 01.524-.295c.228 0 .425.098.523.295.065.13.065.229.065.523v.621h.36c.229 0 .294 0 .392.066.131.065.23.196.23.392 0 .163-.066.327-.23.392-.098.066-.163.066-.392.066h-.36V9.18c0 .229.066.393.392.425a1 1 0 01.36.066c.131.065.23.196.23.425 0 .196-.099.36-.23.425-.098.065-.261.065-.49.065h-.066c-.98 0-1.373-.654-1.373-1.34V6.925zm3.793 1.672c0 .622.36 1.047 1.047 1.047.294 0 .588-.066.817-.262.196-.13.294-.163.425-.163.23 0 .458.229.458.49 0 .23-.196.425-.458.589-.327.229-.752.327-1.275.327-1.112 0-2.191-.49-2.191-2.42 0-1.537.818-2.42 2.06-2.42 1.275 0 1.995.916 2.06 2.093 0 .196-.033.392-.163.523-.164.164-.327.164-.523.164h-2.257v.032zm1.7-1.308c-.13-.294-.392-.49-.784-.49-.393 0-.654.196-.785.49a1.245 1.245 0 00-.098.524h1.798c-.065-.23-.065-.36-.13-.524zm4.417-1.473c.36 0 .588.066.817.23.163.13.294.294.294.49a.622.622 0 01-.163.425.603.603 0 01-.393.163c-.13 0-.229-.032-.392-.13a1.064 1.064 0 00-.458-.131c-.392 0-.785.261-.785.85v2.093c0 .294 0 .392-.065.523a.578.578 0 01-.523.294c-.262 0-.426-.098-.524-.294-.065-.13-.065-.229-.065-.523V6.634c0-.294 0-.392.098-.523a.577.577 0 01.49-.262c.164 0 .295.066.36.13a.468.468 0 01.164.36c.261-.261.687-.523 1.144-.523z" fill="#BBB"/>
  <path d="M20.615 8.89L19.57 6.83v2.878c0 .294 0 .392-.098.556a.635.635 0 01-.556.294.635.635 0 01-.556-.294c-.066-.164-.098-.262-.098-.556V4.9c0-.262.032-.458.196-.59a.622.622 0 01.425-.163c.164 0 .262.033.36.099.13.065.229.228.327.392l1.6 3.042 1.602-3.041a.961.961 0 01.327-.392.66.66 0 01.785.065c.164.163.196.327.196.589v4.84c0 .294 0 .392-.098.555a.635.635 0 01-.556.295.635.635 0 01-.555-.295c-.066-.163-.099-.261-.099-.556V6.863l-.948 2.027c-.163.294-.294.425-.588.425-.295 0-.458-.098-.622-.425z" fill="#fff"/>
  <path d="M23.492 10.624c-.261 0-.49-.131-.588-.327-.098-.164-.098-.262-.098-.556V7.059l-.949 1.864c-.163.294-.294.458-.654.458-.327 0-.49-.164-.654-.458l-.948-1.864v2.682c0 .294 0 .392-.098.556-.098.196-.327.327-.589.327-.261 0-.49-.131-.588-.327-.099-.164-.099-.295-.099-.556V4.9c0-.262.033-.458.197-.654a.594.594 0 01.458-.196c.163 0 .294.032.392.098.163.098.262.294.327.392l1.537 2.943 1.537-2.943c.065-.098.163-.294.327-.392a.697.697 0 01.392-.098c.197 0 .327.065.458.196.164.163.196.36.196.654v4.84c0 .294 0 .392-.098.556.033.196-.196.327-.458.327zm-.588-3.99v3.107c0 .294 0 .392.065.523a.577.577 0 00.49.261.538.538 0 00.491-.261c.066-.13.066-.229.066-.523V4.9c0-.262-.033-.425-.164-.556a.542.542 0 00-.392-.163.745.745 0 00-.36.098c-.098.065-.196.196-.294.36L21.17 7.745l-1.635-3.107c-.099-.163-.197-.294-.295-.36a.587.587 0 00-.36-.097.542.542 0 00-.392.163c-.13.13-.163.327-.163.556v4.84c0 .294 0 .392.065.523a.577.577 0 00.49.261.538.538 0 00.491-.261c.164-.13.164-.229.164-.523V6.634l1.144 2.224c.164.327.294.425.556.425.262 0 .392-.098.556-.425l1.112-2.224zm3.989 3.961c-.457 0-.85-.164-1.111-.426-.393-.392-.491-.817-.491-1.34V6.605c0-.294 0-.392.065-.523a.538.538 0 01.49-.262c.23 0 .426.098.491.262.066.13.066.229.066.523v2.06c0 .622.392.85.785.85.36 0 .785-.196.785-.85v-2.06c0-.294 0-.392.065-.523a.538.538 0 01.49-.262c.23 0 .425.098.49.262.066.13.066.229.066.523v3.14c0 .294 0 .392-.098.523a.577.577 0 01-.49.261.523.523 0 01-.36-.13c-.098-.099-.13-.197-.163-.328-.197.36-.654.524-1.08.524z" fill="#fff"/>
  <path d="M26.894 10.658c-.458 0-.85-.164-1.145-.425-.327-.328-.49-.753-.49-1.374V6.635c0-.294 0-.392.065-.556.098-.196.294-.294.556-.294.262 0 .458.098.556.294.065.131.065.262.065.556v2.06c0 .72.556.785.72.785.163 0 .72-.065.72-.784v-2.06c0-.295 0-.393.065-.557.098-.196.294-.294.556-.294.261 0 .457.098.555.294.066.131.066.262.066.556v3.14c0 .294 0 .392-.098.556a.635.635 0 01-.556.294.542.542 0 01-.392-.164c-.099-.065-.131-.163-.164-.261-.229.294-.654.458-1.08.458zm-.981-4.775c-.23 0-.393.098-.458.262-.065.098-.065.229-.065.49V8.86c0 .589.13.981.457 1.275.262.262.622.393 1.08.393.425 0 .85-.164 1.144-.49l.066-.066.032.098c.033.163.066.229.164.327.098.065.196.13.327.13.196 0 .392-.097.457-.228.066-.13.066-.196.066-.49v-3.14c0-.294 0-.392-.066-.49-.065-.164-.261-.262-.457-.262-.197 0-.393.098-.458.262-.066.098-.066.228-.066.49v2.06c0 .654-.425.883-.817.883-.392 0-.818-.229-.818-.883v-2.06c0-.294 0-.392-.065-.49-.163-.197-.327-.295-.523-.295zm7.225.161c.262.131.556.36.556.654 0 .164-.065.262-.163.393-.066.098-.23.163-.36.163-.13 0-.229-.033-.392-.163-.197-.131-.327-.197-.556-.197a.823.823 0 00-.654.295c-.164.229-.262.523-.262 1.013 0 .491.066.818.262 1.047a.823.823 0 00.654.294c.229 0 .36-.065.556-.196.163-.13.261-.164.392-.164.13 0 .262.066.36.164a.542.542 0 01.163.392c0 .295-.294.524-.556.654-.261.164-.556.23-.915.23-.916 0-2.093-.491-2.093-2.388 0-1.896 1.144-2.387 2.093-2.387.36-.033.621.033.915.196z" fill="#fff"/>
  <path d="M32.19 10.656c-.392 0-.948-.098-1.438-.49-.458-.426-.72-1.08-.72-1.93 0-.883.23-1.504.72-1.93.457-.424 1.046-.49 1.439-.49.36 0 .653.066.948.23.261.13.588.359.588.686 0 .164-.065.294-.163.425a.603.603 0 01-.392.164.638.638 0 01-.426-.164c-.196-.13-.327-.196-.523-.196a.76.76 0 00-.621.294c-.164.23-.262.523-.262.981 0 .49.066.785.262 1.014a.76.76 0 00.621.294.8.8 0 00.523-.196c.164-.098.262-.196.425-.196.131 0 .295.065.393.163.13.131.163.262.163.425 0 .262-.196.491-.588.72-.295.13-.556.196-.949.196zm.033-4.774c-.621 0-2.027.229-2.027 2.322 0 2.125 1.406 2.354 2.027 2.354.36 0 .621-.065.883-.229.36-.196.523-.392.523-.621 0-.131-.065-.23-.163-.36a.5.5 0 00-.327-.13c-.131 0-.23.032-.36.163-.196.163-.36.196-.589.196-.294 0-.523-.098-.686-.327-.196-.229-.262-.556-.262-1.046 0-.491.098-.818.262-1.047a.87.87 0 01.686-.327c.262 0 .393.066.59.196.163.098.26.164.359.164.13 0 .229-.066.327-.131a.525.525 0 00.163-.36c0-.294-.327-.523-.523-.621a1.853 1.853 0 00-.883-.196zm6.083 4.414a.538.538 0 01-.49.262c-.23 0-.426-.098-.491-.262-.065-.13-.065-.229-.065-.523v-2.06c0-.622-.393-.85-.785-.85-.393 0-.785.196-.785.85v2.06c0 .294 0 .392-.066.523a.538.538 0 01-.49.262c-.229 0-.425-.098-.49-.262-.066-.13-.066-.229-.066-.523v-4.84c0-.294 0-.392.066-.523a.538.538 0 01.49-.262c.229 0 .425.099.49.262.066.13.066.229.066.523v1.374c.294-.295.621-.49 1.145-.49.457 0 .85.163 1.111.424.393.393.49.818.49 1.341v2.224c-.032.261-.065.36-.13.49z" fill="#fff"/>
  <path d="M37.816 10.622c-.262 0-.458-.098-.556-.294-.066-.13-.066-.262-.066-.556v-2.06c0-.72-.556-.785-.72-.785-.163 0-.719.065-.719.785v2.06c0 .294 0 .392-.065.556-.098.196-.294.294-.556.294-.262 0-.458-.098-.556-.294-.065-.13-.065-.262-.065-.556v-4.84c0-.294 0-.392.065-.556.098-.196.294-.294.556-.294.262 0 .458.098.556.294.065.131.065.262.065.556v1.276c.327-.295.654-.426 1.08-.426.457 0 .85.164 1.144.426.327.327.49.752.49 1.373v2.224c0 .294 0 .392-.065.556-.13.163-.327.261-.589.261zM36.474 6.83c.392 0 .817.229.817.883v2.06c0 .294 0 .392.066.49.065.164.261.262.458.262.196 0 .392-.098.457-.261.066-.099.066-.23.066-.491V7.548c0-.588-.131-.98-.458-1.275-.262-.262-.621-.392-1.08-.392-.457 0-.784.13-1.111.457l-.098.098V4.932c0-.294 0-.392-.066-.49-.065-.164-.261-.262-.457-.262-.23 0-.393.098-.458.262-.066.098-.066.229-.066.49v4.873c0 .294 0 .392.066.49.065.164.261.262.458.262.196 0 .392-.098.457-.262.066-.098.066-.229.066-.49v-2.06c.032-.687.458-.916.883-.916z" fill="#fff"/>
</svg>
