<svg width="58" height="16" fill="none" xmlns="http://www.w3.org/2000/svg">
  <path d="M56.788 3.612c-.737-.498-1.852-.749-3.315-.749h-3.83l-1.423 7.614h-5.017l.322-1.727h3.022l.358-1.94-3.02.004.323-1.72h3.113l.414-2.23h-6.322l-1.351 7.222h-2.32l1.36-7.223h-3.304l-1.352 7.222h-2.26l1.362-7.222h-3.303l-1.425 7.614h-5.053l.319-1.727h3.034l.359-1.93-3.031-.002.321-1.723h3.148l.412-2.232h-19.7L7.506 8.896 5.274 2.863H1.845L0 12.71h3.274l1.117-6.2 2.167 6.2h11.736l1.426-7.615h1.836l-1.427 7.615h30.878l.895-4.807 1.448 4.807h3.276l-1.5-3.928.343-.073c.756-.16 1.346-.502 1.757-1.016.41-.52.62-1.185.62-1.985 0-.932-.347-1.617-1.059-2.096h.001zm-41.344 6.865h-5.012l.324-1.727h3.143l.357-1.946h-3.114l.3-1.71h5.005l-1.004 5.383h.001zM54.09 7.16c-.33.227-.807.338-1.46.338h-.648l.497-2.642h.476c.542 0 .938.085 1.21.26.214.137.467.408.467.92 0 .62-.295.953-.543 1.124z" fill="#fff"/>
</svg>
