<svg width="49" height="16" fill="none" xmlns="http://www.w3.org/2000/svg">
  <path d="M37.463 7.053c-.15.99-.907.99-1.638.99h-.417l.292-1.848A.23.23 0 0135.927 6h.191c.498 0 .969 0 1.211.283.145.17.189.422.134.77zm-.318-2.583h-2.76a.384.384 0 00-.378.323l-1.115 7.074a.23.23 0 00.227.266h1.416a.268.268 0 00.265-.226l.316-2.007a.383.383 0 01.379-.323h.872c1.818 0 2.867-.88 3.14-2.622.124-.762.006-1.361-.351-1.78-.393-.462-1.088-.706-2.011-.706" fill="#fff"/>
  <path d="M17.786 7.055c-.151.99-.907.99-1.639.99h-.416l.292-1.848a.23.23 0 01.227-.194h.19c.499 0 .97 0 1.212.283.145.17.189.422.134.77zm-.319-2.583H14.71a.384.384 0 00-.38.323l-1.114 7.074a.23.23 0 00.227.266h1.317a.383.383 0 00.379-.324l.3-1.908a.383.383 0 01.38-.324h.872c1.818 0 2.866-.88 3.14-2.623.124-.761.005-1.36-.351-1.78-.393-.46-1.088-.705-2.011-.705zm6.405 5.123c-.128.755-.726 1.262-1.49 1.262-.384 0-.69-.124-.888-.357-.195-.231-.269-.561-.207-.928a1.478 1.478 0 011.48-1.271c.376 0 .68.125.881.36.203.237.282.569.224.934zm1.842-2.572h-1.322a.23.23 0 00-.227.195l-.058.37-.092-.135c-.286-.415-.924-.554-1.56-.554-1.46 0-2.707 1.106-2.95 2.657-.126.775.054 1.514.492 2.03.404.474.979.672 1.664.672 1.177 0 1.83-.756 1.83-.756l-.06.367a.23.23 0 00.227.266h1.19c.188 0 .35-.137.379-.324l.714-4.522a.23.23 0 00-.228-.265" fill="#B0B0B0"/>
  <path d="M43.55 9.595c-.128.755-.727 1.262-1.491 1.262-.383 0-.69-.124-.887-.357-.196-.231-.27-.561-.207-.928a1.478 1.478 0 011.48-1.271c.375 0 .68.125.88.36.203.237.283.569.225.934zm1.841-2.572H44.07a.23.23 0 00-.228.195l-.057.37-.093-.135c-.286-.415-.923-.554-1.56-.554-1.46 0-2.706 1.106-2.949 2.657-.126.775.053 1.514.492 2.03.403.474.979.672 1.664.672 1.177 0 1.83-.756 1.83-.756l-.06.367a.227.227 0 00.052.186.23.23 0 00.175.08h1.189c.188 0 .35-.137.38-.324l.713-4.522a.23.23 0 00-.227-.265" fill="#fff"/>
  <path d="M32.75 7.023h-1.328a.382.382 0 00-.317.168l-1.832 2.698-.776-2.593a.384.384 0 00-.368-.274h-1.305a.23.23 0 00-.217.305l1.462 4.292-1.376 1.94a.23.23 0 00.188.363h1.327a.384.384 0 00.315-.165l4.415-6.373a.23.23 0 00-.188-.361" fill="#B0B0B0"/>
  <path d="M46.948 4.664l-1.133 7.203a.23.23 0 00.228.266h1.138c.189 0 .35-.137.379-.324l1.116-7.074a.23.23 0 00-.227-.266h-1.274a.23.23 0 00-.227.195" fill="#fff"/>
  <path d="M4.096 4.344a.5.5 0 01.494-.422h3.133c.37 0 .717.024 1.033.075.173.028.344.066.512.114.191.054.376.128.552.22.157-1 0-1.681-.542-2.298-.595-.678-1.671-.969-3.048-.969H2.233a.572.572 0 00-.565.483L.004 12.1a.343.343 0 00.339.396H2.81l.62-3.93.666-4.222z" fill="#B0B0B0"/>
  <path d="M9.82 4.33a6.526 6.526 0 01-.04.234C9.252 7.27 7.45 8.205 5.145 8.205H3.973a.57.57 0 00-.562.483l-.6 3.807-.172 1.08a.3.3 0 00.297.347h2.08a.5.5 0 00.494-.422l.02-.106.392-2.485.025-.137a.5.5 0 01.494-.422h.312c2.014 0 3.592-.818 4.053-3.186.192-.988.092-1.815-.416-2.395a1.986 1.986 0 00-.57-.44" fill="#fff"/>
  <path d="M9.269 4.11a3.624 3.624 0 00-.513-.114 6.46 6.46 0 00-1.034-.076H4.59a.5.5 0 00-.494.423L3.43 8.565l-.02.123a.57.57 0 01.563-.483h1.173c2.303 0 4.107-.936 4.633-3.642a6.52 6.52 0 00.041-.234 2.846 2.846 0 00-.551-.22" fill="#E5E5E5"/>
</svg>
