<svg width="57" height="16" fill="none" xmlns="http://www.w3.org/2000/svg">
  <path d="M14.835 7.242c-.01-.286-.144-.433-.405-.443h-1.397c-.33.02-.501.202-.51.543v2.512c.009.352.197.532.565.542h1.28a.42.42 0 00.33-.15.36.36 0 00.137-.294v-2.71zm-4.105-.357c.01-.628.15-1.106.421-1.432a1.8 1.8 0 01.537-.346 1.59 1.59 0 01.654-.15h2.563c1.131.01 1.706.628 1.724 1.857v3.78c-.008.437-.18.815-.51 1.132a1.638 1.638 0 01-1.171.512h-2.424v2.726H10.73V6.885zm9.136 3.145c0 .106.048.19.143.252a.471.471 0 00.326.114h1.377c.311 0 .473-.121.482-.365v-.514c0-.281-.164-.423-.495-.423h-1.364c-.18 0-.304.03-.373.086-.064.067-.096.198-.096.393v.458zm2.328-2.833c.01-.275-.151-.407-.482-.398H18.1V4.957h4.066c1.185.02 1.786.592 1.806 1.721v3.854c-.01.487-.16.89-.449 1.209-.303.33-.693.497-1.172.497h-2.457c-1.197-.01-1.803-.556-1.822-1.642V9.109c.01-1.135.59-1.711 1.737-1.731h2.385v-.18zm6.814 5.924a.58.58 0 00.365-.151.386.386 0 00.144-.295v-.437h-2.296c-.299 0-.538-.038-.717-.114a1.654 1.654 0 01-.566-.382 1.845 1.845 0 01-.386-.609 1.923 1.923 0 01-.123-.737V4.957h1.793v4.855c0 .389.158.584.48.584h1.266c.15 0 .281-.05.39-.15a.381.381 0 00.16-.306V4.957h1.777v8.023c-.01.594-.162 1.07-.456 1.43-.297.36-.705.545-1.225.554H25.43V13.12h3.579zm3.696-2.725H35.9c.292-.01.444-.128.453-.352v-.166a.364.364 0 00-.042-.158c-.072-.14-.16-.208-.263-.208h-1.584a1.768 1.768 0 01-1.209-.484c-.34-.289-.516-.644-.526-1.06V6.593c.019-1.072.601-1.618 1.748-1.637h3.706v1.842h-3.14c-.368 0-.554.113-.554.339v.178c0 .234.19.35.568.35h1.58c.42.01.779.171 1.078.486.301.316.458.692.468 1.13v1.343c-.01.378-.185.755-.52 1.13a1.447 1.447 0 01-.5.384c-.173.066-.408.1-.71.1h-3.748v-1.843zm8.546-.366c0 .106.049.19.146.252.083.074.19.114.323.114h1.38c.311 0 .472-.121.481-.365v-.514c0-.281-.166-.423-.496-.423h-1.365c-.179 0-.303.03-.371.086-.064.067-.098.198-.098.393v.458zm2.33-2.833c.008-.275-.153-.407-.484-.398h-3.61V4.957h4.067c1.183.02 1.785.592 1.803 1.721v3.854c-.01.487-.16.89-.448 1.209-.3.33-.691.497-1.17.497h-2.46c-1.196-.01-1.803-.556-1.82-1.642V9.109c.008-1.135.588-1.711 1.736-1.731h2.386v-.18zm3.234-3.286c.011-.497.194-.896.553-1.196.349-.304.807-.46 1.373-.469h1.138v1.78h-.69c-.378.008-.572.19-.58.54v.39h1.27V6.8h-1.27v5.438h-1.794V3.91zm8.164 3.252V7.12a.286.286 0 00-.115-.235.526.526 0 00-.309-.086h-1.248a.55.55 0 00-.39.137.39.39 0 00-.186.334v.74l2.248-.847zm-2.22 2.604v.115c0 .147.038.264.116.35.057.108.133.164.233.164h3.684v1.842h-3.917c-.357 0-.636-.033-.832-.1a1.512 1.512 0 01-.577-.348 1.536 1.536 0 01-.4-.598c-.073-.213-.11-.495-.11-.848l-.015-3.687c.02-1.114.602-1.68 1.745-1.7h2.417c1.117.02 1.683.606 1.7 1.763v1.457l-4.044 1.59z" fill="#fff"/>
  <path d="M.77 4.68c.141-.063.282-.111.423-.142a2.724 2.724 0 015.332.001c.403.077.736.24.995.482a3.876 3.876 0 00-.027-.68 3.658 3.658 0 00-3.64-3.333A3.658 3.658 0 00.204 4.513a5.176 5.176 0 00-.009.526C.36 4.9.55 4.775.77 4.68z" fill="#B0B0B0"/>
  <path d="M5.991 4.957h-4.38c-.21 0-.428.049-.653.15a1.8 1.8 0 00-.538.346c-.271.326-.41.804-.42 1.432v3.424c.01.63.149 1.107.42 1.432.143.139.32.253.538.349.225.098.443.148.654.148h4.38c1.13-.01 1.706-.63 1.724-1.857V6.814c-.018-1.229-.593-1.847-1.725-1.857z" fill="#B0B0B0"/>
</svg>
