<svg width="40" height="16" fill="none" xmlns="http://www.w3.org/2000/svg">
  <path d="M31.266 4.024l.33-.265c1.149-.975 2.62-.867 3.603.29.099.115.148.123.247.024.067-.074.14-.132.207-.206.768-.752 1.784-.975 2.734-.554 1 .446 1.537 1.231 1.545 2.33.017 2.37.008 4.733.008 7.104 0 .843-.52 1.372-1.354 1.372-.33 0-.661-.025-.992.008-.339.033-.438-.075-.438-.43.017-2.313.009-4.626.009-6.939v-.29c-.009-.536-.223-.76-.736-.784-.462-.025-.784.256-.834.727-.008.107 0 .223 0 .33v5.99c0 .875-.504 1.388-1.38 1.38-.446-.009-1.049.198-1.305-.092-.223-.247-.074-.834-.074-1.272V6.593c0-.727-.471-1.099-1.082-.851-.38.157-.504.463-.504.859.008 1.917 0 3.825 0 5.741v.455c-.025.801-.537 1.305-1.33 1.313-.33.009-.661-.024-.992.009-.355.033-.462-.066-.454-.447.017-3.246.008-6.493.008-9.748 0-.14.009-.272 0-.413-.016-.181.058-.24.24-.24.76.01 1.512.01 2.272 0 .19 0 .28.05.264.257-.017.149 0 .28.008.496z" fill="#BBB"/>
  <path d="M13.753 8.502v3.387c-.008 1.47-.777 2.23-2.247 2.24-.645 0-1.297.007-1.941 0-1.306-.017-2.264-.885-2.33-2.19a26.546 26.546 0 01-.008-2.809c.066-1.338 1.09-2.28 2.445-2.296.355-.009.719 0 1.074 0 .347-.009.479-.207.47-.537 0-.33-.148-.48-.478-.463a25.1 25.1 0 01-1.116 0c-.908-.016-1.412-.512-1.404-1.404 0-.364-.165-.851.074-1.066.207-.182.678-.066 1.033-.066.925-.008 1.842 0 2.767 0 .983 0 1.653.67 1.66 1.66.01 1.174 0 2.363 0 3.544zm-2.528 1.876v-.413c0-.843 0-.843-.843-.81-.42.017-.652.231-.66.67-.009.346-.009.685 0 1.032.008.595.272.752 1.131.776.636.017.314-.43.372-.677.033-.182-.008-.388 0-.578zm9.88-2.772c0 1.264.017 2.536-.008 3.8-.016.975-.248 1.859-1.19 2.38-.38.206-.792.322-1.222.33-.95.016-1.9 0-2.85.016-.231 0-.28-.082-.273-.289.017-.347-.008-.685.009-1.032a1.204 1.204 0 011.181-1.19c.43-.016.85-.008 1.28 0 .347 0 .537-.14.537-.512 0-.38-.181-.512-.528-.52-.579-.017-1.157.066-1.727-.1-.983-.289-1.702-1.107-1.726-2.123-.05-1.61-.017-3.222-.025-4.832 0-.182.058-.24.24-.232.677.009 1.346.017 2.023 0 .298-.008.256.157.256.339v3.635c0 .528.248.81.71.826.546.016.786-.207.786-.76 0-1.223.008-2.454-.009-3.676 0-.29.075-.372.364-.364.603.025 1.214.033 1.817 0 .33-.016.38.108.372.397-.025 1.297-.017 2.602-.017 3.907zM.057 9.48V5.431c0-1.322.81-2.148 2.14-2.132.867.008 1.734-.099 2.593.066 1.099.215 1.793 1.066 1.801 2.198.008 1.198 0 2.395 0 3.593 0 1.504-.884 2.42-2.387 2.462-.455.017-.91.008-1.363 0-.207-.008-.298.058-.29.28.017.331.009.662 0 .992-.016.71-.52 1.223-1.222 1.231-.413.008-.934.174-1.198-.066-.248-.223-.066-.752-.074-1.148-.009-1.14 0-2.289 0-3.429zM2.55 7.454v.785c0 .934 0 .934.934.851.405-.033.595-.231.603-.636.008-.463-.017-.933.008-1.396.05-1.338-.198-1.206-1.289-1.214-.198 0-.264.057-.264.256.017.446.008.9.008 1.354z" fill="#fff"/>
  <path d="M23.444 9.493c0-1.098-.008-2.205.008-3.304 0-.256-.057-.364-.338-.355-.372.016-.868.124-1.074-.058-.256-.24-.058-.752-.091-1.148v-.083c0-.388-.124-.843.041-1.132.165-.289.67-.107 1.025-.198.702-.182 1.23-.587 1.66-1.148.297-.38.67-.653 1.148-.744.256-.05.413-.016.397.314-.025.463 0 .934-.008 1.404-.009.199.066.265.264.257.33-.009.66.008.991-.009.199-.008.265.066.256.265a82.26 82.26 0 000 2.024c0 .19-.05.289-.256.264-.041-.008-.082 0-.124 0-.363.033-.867-.165-1.057.083-.182.23-.066.71-.066 1.082 0 2.247-.008 4.486.008 6.732 0 .314-.083.413-.396.389-.298-.025-.604 0-.91-.008-.891-.034-1.478-.637-1.478-1.529V9.493z" fill="#BBB"/>
</svg>
