<svg width="32" height="16" fill="none" xmlns="http://www.w3.org/2000/svg">
  <g clip-path="url(#payu-white-16vh__clip0)">
    <path d="M31.723 3.349h-1.416a.274.274 0 01-.277-.278V1.63c0-.155.122-.277.277-.277h1.416c.155 0 .277.122.277.277v1.44a.274.274 0 01-.277.278zm-1.892-1.995h-.962a.194.194 0 01-.188-.189V.189c0-.1.088-.189.188-.189h.962c.1 0 .189.089.189.189v.976c.01.11-.078.189-.189.189zM3.652 3.996H1.593C.487 3.996 0 4.484 0 5.594v7.09c0 .421.133.565.564.565h.144c.42 0 .565-.133.565-.566V9.921h2.379c2.124 0 3.109-.943 3.109-2.963 0-2.019-.996-2.962-3.11-2.962zm0 4.749h-2.39V5.76c0-.41.154-.566.564-.566h1.826c1.172 0 1.847.289 1.847 1.764 0 1.154-.298 1.787-1.847 1.787zm5.753-2.718c-.82 0-1.328.1-1.516.145-.343.077-.487.166-.487.565v.111c0 .156.022.256.066.333.056.089.144.133.266.133a.815.815 0 00.21-.033c.2-.044.819-.155 1.505-.155 1.228 0 1.737.344 1.737 1.176v.743H9.637c-1.992 0-2.921.677-2.921 2.13 0 1.41.962 2.186 2.7 2.186 2.069 0 2.998-.71 2.998-2.296V8.313c0-1.542-.984-2.286-3.01-2.286zm1.792 5.004c0 .788-.287 1.254-1.792 1.254-.985 0-1.472-.355-1.472-1.098 0-.81.487-1.121 1.715-1.121h1.538v.965h.011zm8.079-4.228l-1.604 6.413c-.465 1.886-1.273 2.685-2.767 2.785h-.11c-.321 0-.42-.178-.487-.466l-.022-.122c-.022-.133-.044-.278.033-.378.077-.1.21-.133.41-.144 1.006-.1 1.338-.566 1.67-1.62a1.666 1.666 0 01-.553.078c-1.095 0-1.394-.766-1.649-1.698l-1.316-4.848c-.045-.167-.078-.333.01-.444.09-.11.255-.133.421-.133h.11c.421 0 .576.122.687.521l1.306 4.816c.165.599.343.699.763.699.343 0 .553-.111.697-.7l1.15-4.815c.09-.399.255-.532.676-.532h.122c.165 0 .331.01.42.122.089.133.066.3.033.466zm9.404-1.875V9.8c0 .788-.177 1.442-.52 1.975-.653 1.032-1.925 1.586-3.74 1.586h-.022c-1.815 0-3.087-.554-3.74-1.586-.343-.533-.52-1.198-.52-1.975V4.928c0-.788.32-.932 1.184-.932h.265c.863 0 1.184.144 1.184.932V9.8c0 .31.055.566.188.754.233.366.697.522 1.439.533.741 0 1.206-.167 1.438-.533.122-.2.188-.444.188-.754V4.928c0-.788.321-.932 1.184-.932h.266c.885 0 1.206.144 1.206.932z" fill="#fff"/>
    <path d="M29.644 6.044H27.74a.374.374 0 01-.377-.377v-1.93c0-.211.166-.378.377-.378h1.903c.21 0 .376.167.376.378v1.93c.011.211-.166.377-.376.377z" fill="#fff"/>
    <path d="M27.497 3.996h-.133V5.66c0 .211.166.378.377.378h.94v-1.11c0-.788-.32-.932-1.184-.932z" fill="#BBB"/>
  </g>
  <defs>
    <clipPath id="payu-white-16vh__clip0">
      <path fill="#fff" d="M0 0h32v16H0z"/>
    </clipPath>
  </defs>
</svg>
