<svg width="30" height="30" fill="none" xmlns="http://www.w3.org/2000/svg">
  <g clip-path="url(#payu-color-30px__clip0)">
    <path d="M28 0H2a2 2 0 00-2 2v26a2 2 0 002 2h26a2 2 0 002-2V2a2 2 0 00-2-2z" fill="#A6BD3F"/>
    <path d="M24.579 9.243H22.35a.432.432 0 01-.435-.436v-2.27a.43.43 0 01.435-.435h2.228c.243 0 .435.192.435.436v2.269a.431.431 0 01-.435.436zm-2.977-3.141h-1.514a.305.305 0 01-.296-.297V4.27c0-.157.14-.296.296-.296h1.514c.157 0 .296.14.296.296v1.536c.018.175-.122.297-.296.297zm-1.81 5.626v7.662c0 1.239-.279 2.269-.818 3.106-1.027 1.624-3.03 2.496-5.884 2.496h-.035c-2.854 0-4.856-.872-5.883-2.496-.54-.837-.818-1.884-.818-3.106v-7.662c0-1.24.505-1.466 1.862-1.466h.418c1.358 0 1.863.227 1.863 1.466v7.662c0 .488.087.89.296 1.187.365.575 1.096.82 2.262.837 1.167 0 1.898-.262 2.263-.837.192-.315.296-.699.296-1.187v-7.662c0-1.24.505-1.466 1.863-1.466h.417c1.393 0 1.898.227 1.898 1.466z" fill="#fff"/>
    <path d="M21.307 13.482h-2.994a.588.588 0 01-.592-.594V9.851c0-.331.261-.593.592-.593h2.994c.33 0 .592.262.592.593v3.037c.017.332-.261.594-.592.594z" fill="#fff"/>
    <path d="M17.93 10.262h-.209v2.618c0 .331.261.593.592.593h1.48v-1.745c0-1.24-.505-1.466-1.863-1.466z" fill="#A6BD3F"/>
  </g>
  <defs>
    <clipPath id="payu-color-30px__clip0">
      <path fill="#fff" d="M0 0h30v30H0z"/>
    </clipPath>
  </defs>
</svg>
