<svg width="36" height="16" fill="none" xmlns="http://www.w3.org/2000/svg">
  <path d="M17.448 9.07h.559v1.252h.403l.724-1.251h.61l-.869 1.468v.01l.921 1.604h-.63l-.746-1.345h-.403v1.345h-.558V9.07h-.01zm3.6.818c.672 0 1.22.486 1.22 1.158 0 .683-.538 1.159-1.21 1.159-.673 0-1.21-.476-1.21-1.159-.01-.682.527-1.158 1.2-1.158zm1.654.051h.528v1.738h.693V9.94h.527v1.737h.693V9.94h.527v2.213h-2.947V9.938h-.02zm4.53-.051c.631 0 .983.465.983 1.044a1.562 1.562 0 01-.02.217h-1.521c.031.383.33.59.662.59.227 0 .455-.103.63-.238l.218.393a1.42 1.42 0 01-.89.32c-.734 0-1.189-.527-1.189-1.158 0-.692.465-1.168 1.128-1.168zm1.241 1.8c.27-.042.466-.27.466-1.056V9.94h1.613v2.213h-.548v-1.77h-.538v.249c0 .962-.258 1.52-.993 1.541v-.486zm3.651-1.8c.631 0 .983.465.983 1.044a1.532 1.532 0 01-.02.217h-1.521c.03.383.33.59.662.59.227 0 .455-.103.63-.238l.218.393a1.42 1.42 0 01-.89.32c-.734 0-1.189-.527-1.189-1.158 0-.692.465-1.168 1.127-1.168zm1.438.051h.548v.848h.27l.537-.847h.61l-.703 1.054v.01l.786 1.149h-.641l-.58-.9H34.1v.9h-.549V9.938h.011zm-12.514 1.79c.362 0 .662-.28.662-.693 0-.404-.3-.693-.663-.693-.361 0-.651.28-.651.693 0 .413.29.693.652.693zm6.609-.962c0-.29-.197-.465-.445-.465-.28 0-.486.186-.538.465h.983zm4.891 0c0-.29-.196-.465-.444-.465-.28 0-.486.186-.538.465h.982z" fill="#B0B0B0"/>
  <path d="M25.174 2.358V7.58a.14.14 0 01-.145.145h-1.065a.142.142 0 01-.145-.145V2.358a.142.142 0 01.089-.135.141.141 0 01.056-.01h1.065a.142.142 0 01.145.145zm8.315-.145a.24.24 0 01.145.062c.031.031.031.083.02.124l-1.758 5.234a.147.147 0 01-.134.093h-.951c-.063 0-.114-.031-.135-.093l-1.024-3.051-1.024 3.05a.147.147 0 01-.135.094h-.951c-.062 0-.114-.031-.134-.094L25.649 2.4a.14.14 0 01.02-.124c.022-.041.073-.062.114-.062h1.19c.062 0 .114.041.135.103l.94 3.093 1.035-3.093a.147.147 0 01.134-.093h.838c.062 0 .114.031.134.093l1.035 3.093.941-3.093a.143.143 0 01.135-.103h1.19zm1.8 0c.072 0 .134.062.144.145V7.58a.14.14 0 01-.144.145h-1.066a.141.141 0 01-.144-.145V2.358a.14.14 0 01.144-.145h1.066zM23.199 7.54c.061.072.01.175-.084.175h-1.303a.167.167 0 01-.134-.062l-.217-.268a2.918 2.918 0 01-1.562.465 2.887 2.887 0 010-5.771 2.887 2.887 0 012.43 4.447l.87 1.014zm-10.892 2.533c.27.104.373.507.393.683.042.32-.05.445-.154.445s-.249-.124-.404-.372c-.155-.249-.217-.528-.134-.673.051-.093.165-.134.3-.083zm-1.572 1.17a.81.81 0 01.518.216c.32.27.413.58.248.807a.545.545 0 01-.424.186.738.738 0 01-.486-.175c-.29-.249-.372-.663-.187-.89a.401.401 0 01.331-.145zm-3.62 2.988A7.115 7.115 0 117.116 0a7.116 7.116 0 017.116 7.115 7.16 7.16 0 01-1.003 3.652c-.02.03-.072.02-.083-.021-.248-1.748-1.313-2.71-2.864-3-.135-.02-.156-.103.02-.124.476-.041 1.148-.03 1.5.031A4.71 4.71 0 007.126 2.4 4.71 4.71 0 002.42 7.105a4.71 4.71 0 004.706 4.706h.217a6.348 6.348 0 01-.093-1.272c.01-.29.072-.331.197-.104.651 1.128 1.582 2.141 3.402 2.545 1.49.331 2.979.713 4.582 2.75.145.177-.072.363-.238.218-1.634-1.448-3.123-1.924-4.478-1.924-1.52.01-2.554.207-3.6.207zm13.498-7.85l-.57-.693c-.061-.072-.01-.186.084-.186h1.2c.061-.165.092-.352.092-.538 0-.858-.64-1.603-1.52-1.603-.879 0-1.52.745-1.52 1.603 0 .859.641 1.593 1.52 1.593.248.01.497-.062.714-.176z" fill="#fff"/>
</svg>
