<svg width="75" height="16" fill="none" xmlns="http://www.w3.org/2000/svg">
  <path d="M19.44 9.861c.32.341.706.61 1.134.788a4.372 4.372 0 001.63.283c.318 0 .615-.04.86-.061.243-.032.483-.09.714-.175.219-.06.398-.162.576-.221.142-.082.288-.156.437-.222l-.222-.474a3.86 3.86 0 01-.378.175 4.09 4.09 0 01-.397.16c-.16.056-.328.09-.497.102-.217.036-.437.05-.657.04a2.096 2.096 0 01-1.133-.283 2.254 2.254 0 01-.715-.726 3.683 3.683 0 01-.344-1.09 9.914 9.914 0 01-.1-1.373c0-.384.04-.788.06-1.191.03-.366.127-.723.284-1.053.142-.308.353-.578.616-.788.333-.214.72-.327 1.114-.323a1.87 1.87 0 011.112.35c.318.22.497.584.576 1.07h.497v-1.55a6.905 6.905 0 00-.497-.174 2.659 2.659 0 00-.576-.12c-.218-.04-.397-.04-.615-.062-.172 0-.378-.04-.516-.04a4.935 4.935 0 00-1.73.283c-.452.17-.857.45-1.18.815a3.027 3.027 0 00-.668 1.28A5.785 5.785 0 0018.607 7a5.334 5.334 0 00.218 1.636c.104.454.315.875.616 1.226zm30.153.814a2.617 2.617 0 001.014-.324c.315-.178.565-.454.715-.787.204-.442.3-.926.278-1.413a2.904 2.904 0 00-.172-1.09 1.76 1.76 0 00-.575-.748 2.82 2.82 0 00-1.054-.403 7.198 7.198 0 00-1.57-.12h-.657V3.93a.493.493 0 01.12-.385.999.999 0 01.496-.061h.933c.24-.01.479.004.716.04a.8.8 0 01.436.162.917.917 0 01.279.385c.09.215.164.438.218.665h.385V3h-5.673v.243c.04 0 .06.04.158.04.1.04.16.061.172.101a.735.735 0 01.1.175c0 .101.04.175.04.323v5.977a.803.803 0 01-.04.323c0 .101-.04.16-.1.175a.267.267 0 01-.172.101.34.34 0 01-.158.04v.243h2.862c.417 0 .834-.022 1.248-.066zm-1.876-.566a.286.286 0 01-.1-.222c0-.101-.04-.222-.04-.384v-3.25h.657c.576 0 1.015.16 1.273.464.257.304.378.807.378 1.495.01.367-.03.734-.119 1.09a1.543 1.543 0 01-.344.625 2.35 2.35 0 01-.457.283c-.183.04-.37.06-.557.061-.172-.04-.344-.04-.437-.061a.373.373 0 01-.254-.101zm-6.233.384c-.04 0-.06-.04-.159-.04-.1-.04-.16-.061-.171-.101-.012-.04-.06-.102-.1-.175 0-.101-.04-.175-.04-.323V7.705h.776a6.77 6.77 0 001.133-.1c.337-.055.66-.174.954-.35.287-.178.515-.438.656-.748.177-.406.259-.849.24-1.292a3.095 3.095 0 00-.219-1.191 2.05 2.05 0 00-.619-.68 2.04 2.04 0 00-.894-.283A8.737 8.737 0 0041.987 3H38.96v.243c.04 0 .06.04.16.04.1.04.158.061.172.101a.733.733 0 01.1.175c0 .101.039.175.039.323V9.84c.01.11-.004.22-.04.323 0 .101-.04.16-.1.175a.267.267 0 01-.171.1.338.338 0 01-.16.041v.222h2.505l.019-.222v.014zm-.418-6.623a.304.304 0 01.04-.175.176.176 0 01.06-.12.242.242 0 01.172-.061c.1 0 .172-.04.343-.04.187.01.373.03.557.06.17.063.325.159.458.283.13.158.237.335.318.524.067.264.1.535.1.807 0 .666-.1 1.151-.279 1.495-.179.345-.516.524-.994.524h-.775V3.87zm-3.1 5.088h-.497c-.043.245-.1.488-.172.726a.728.728 0 01-.239.404.583.583 0 01-.437.16 4.048 4.048 0 01-.775.04 3.392 3.392 0 01-.715-.04 1.165 1.165 0 01-.397-.12.31.31 0 01-.158-.243 1.404 1.404 0 01-.04-.444V6.98h1.319c.118 0 .239.04.378.04.127.012.254.032.378.061.11.028.217.068.318.12V6.192a.752.752 0 01-.318.12c-.25.048-.501.081-.755.102h-1.332V3.845c0-.119.02-.237.06-.349.06-.061.16-.061.318-.061h.836a3.8 3.8 0 01.715.04.868.868 0 01.437.16c.125.101.22.234.278.385.091.216.164.44.218.667h.398V3H32.48v.243c.04 0 .06.04.158.04.1.04.158.061.172.101a.733.733 0 01.1.175c0 .101.04.175.04.323V9.84a.8.8 0 01-.04.323c0 .101-.04.16-.1.175a.267.267 0 01-.172.1.339.339 0 01-.158.041v.222h5.486V8.958zm-8.388 1.717a2.617 2.617 0 001.014-.324c.317-.183.573-.457.736-.787.204-.441.3-.926.279-1.413a2.902 2.902 0 00-.172-1.09 1.76 1.76 0 00-.576-.748 2.82 2.82 0 00-1.054-.403 7.194 7.194 0 00-1.57-.12h-.656V3.93a.495.495 0 01.118-.385c.158-.062.329-.083.497-.061h.934a3.8 3.8 0 01.715.04c.157.013.308.07.436.162a.917.917 0 01.279.385c.09.215.164.438.218.665h.397V3h-5.69v.243c.04 0 .06.04.16.04.1.04.158.061.172.101a.735.735 0 01.1.175c0 .101.039.175.039.323V9.84a.854.854 0 01-.04.323c0 .101-.04.16-.1.175a.267.267 0 01-.171.1.34.34 0 01-.16.041v.283h2.862c.461-.026.834-.026 1.233-.087zm-1.869-.566a.287.287 0 01-.1-.222c0-.101-.039-.222-.039-.384v-3.25h.657c.576 0 1.014.16 1.272.464.258.304.378.807.378 1.495.01.367-.03.734-.118 1.09a1.544 1.544 0 01-.344.625 2.345 2.345 0 01-.458.283c-.183.04-.37.06-.557.061-.172-.04-.318-.04-.436-.061a.338.338 0 01-.255-.101zM74.5 12.93H18.568v.747h55.934v-.747zm-4.473-5.106c.16.222.279.404.437.585.118.175.278.384.397.566.12.198.252.387.397.566.146.199.28.408.397.625.119.175.219.404.318.585l2.579.04c-.279-.282-.516-.565-.794-.848a12.89 12.89 0 00-.617-.687c-.24-.283-.458-.524-.656-.747a20.03 20.03 0 01-.575-.687 7.774 7.774 0 01-.516-.686c-.14-.222-.344-.505-.497-.748l.119-.16c.172-.243.397-.505.656-.807a8.42 8.42 0 01.776-.909c.251-.296.518-.578.8-.845a7 7 0 01.714-.585h-1.79a4.71 4.71 0 01-.278.566 5.067 5.067 0 01-.437.718c-.158.243-.343.524-.496.807-.153.283-.344.524-.516.787a7.246 7.246 0 01-.497.687c-.158.222-.278.384-.378.524.14.208.297.431.457.653z" fill="#fff"/>
  <path d="M69.809 10.487c-.04 0-.06-.04-.16-.04-.1-.04-.159-.061-.172-.102a.73.73 0 01-.1-.174c0-.102-.04-.175-.04-.323V3.909a.798.798 0 01.04-.323c0-.101.04-.16.1-.175a.71.71 0 01.172-.101.34.34 0 01.16-.04v-.262h-2.505v.243c.04 0 .06.04.16.04.1.04.158.06.171.101a.725.725 0 01.1.175c0 .101.04.174.04.323v5.958a.806.806 0 01-.04.323c0 .101-.04.16-.1.174a.266.266 0 01-.171.102.339.339 0 01-.16.04v.222h2.505v-.222zm-16.591-.688c.1-.444.279-1.07.516-1.858h2.445l.344 1.01c.143.366.258.744.343 1.13.083.22.137.45.159.686h1.947c-.1-.161-.172-.385-.318-.626a9.84 9.84 0 01-.436-1.09l-1.768-5.09a2.795 2.795 0 01-.16-.565c-.039-.16-.039-.283-.06-.384h-2.185v.243c.04 0 .06.04.158.04.1.04.159.06.172.101a.73.73 0 01.1.175v.16c.002.174-.032.346-.1.505l-1.232 3.069c-.219.566-.437 1.07-.576 1.434-.14.363-.318.726-.397.97-.119.242-.219.464-.318.625a4.43 4.43 0 00-.219.403h1.391c.046-.316.111-.63.194-.938zm1.75-5.533l1.001 3.13h-2.102l1.102-3.13zm6.908 6.227h-.062c-.04 0-.06-.04-.16-.04-.1-.04-.158-.061-.171-.101a.736.736 0 01-.1-.175c0-.101-.04-.175-.04-.323v-2.97h2.962v2.949c.01.11-.004.22-.04.323 0 .101-.039.16-.099.175a.267.267 0 01-.172.1.339.339 0 01-.158.041v.243h2.505v-.243c-.04 0-.06-.04-.158-.04-.1-.04-.16-.061-.172-.101a.716.716 0 01-.1-.175c0-.101-.04-.175-.04-.323V3.845a.794.794 0 01.04-.323c0-.101.04-.16.1-.174a.717.717 0 01.172-.102.34.34 0 01.158-.04V3h-2.464v.243c.04 0 .06.04.159.04.1.04.16.061.171.101a.73.73 0 01.1.175c0 .101.04.175.04.323v2.49H61.42V3.87a.803.803 0 01.04-.323c0-.102.039-.161.099-.175a.707.707 0 01.172-.101.295.295 0 01.158-.04V3h-2.498v.243c.04 0 .06.04.158.04.1.04.158.061.172.101a.738.738 0 01.1.175c0 .101.04.175.04.323v5.977a.85.85 0 01-.04.323c0 .101-.04.16-.1.175a.267.267 0 01-.172.101.34.34 0 01-.158.04v.243h2.505l-.02-.262v.014zM13.478 3.8c-.16-.222-.318-.444-.457-.667L4.473 8.12.347 5.718c-.094.26-.152.53-.172.807l4.338 2.552L13.478 3.8z" fill="#fff"/>
  <path d="M4.473 10L.041 7.417a1.997 1.997 0 00-.04.484c0 1.976.773 3.871 2.149 5.269a7.277 7.277 0 005.186 2.183 7.277 7.277 0 005.187-2.183 7.512 7.512 0 002.148-5.27 7.409 7.409 0 00-.794-3.391L4.473 10z" fill="#fff"/>
  <path d="M12.425 2.511c-.21-.2-.429-.389-.657-.566L4.473 6.247.956 4.207c-.119.222-.24.465-.378.727l3.856 2.262 7.99-4.685z" fill="#fff"/>
  <path d="M11.052 1.46a6.913 6.913 0 00-.86-.444L4.474 4.362 1.91 2.893c-.172.175-.344.404-.516.626l3.06 1.778 6.598-3.838z" fill="#fff"/>
</svg>
