<svg width="50" height="16" fill="none" xmlns="http://www.w3.org/2000/svg">
  <path d="M1.44 9.366c-.134-.113-.314-.158-.54-.158H0v.54h.698c.203.023.18.023.203.09h.022-.022c-.046.09-.27.27-.27.563v3.67h.765v-3.579c-.023-.203.247-.316.27-.676a.67.67 0 00-.225-.45zm11.797 3.174l-.788-2.296h-.63l-.788 2.296-.608-2.296h-.765l1.013 3.827h.585l.878-2.544.856 2.544h.585l1.036-3.827h-.766l-.608 2.296zm3.783-1.936c-.27-.293-.653-.428-1.126-.428-.36 0-.653.068-.9.203l-.046.022-.022.023v.81l.157-.09c.248-.157.496-.247.766-.247s.45.067.585.225c.135.157.203.36.203.63v2.319h.743v-2.476c0-.428-.135-.766-.36-.991zm-12.112-.067a1.618 1.618 0 00-.473-.27 1.724 1.724 0 00-.608-.09c-.383 0-.72.112-1.035.337v-.27h-.743v3.827h.743v-2.476c0-.203.09-.338.315-.496.225-.157.45-.225.698-.225.247 0 .45.068.585.203a.678.678 0 01.203.518v2.476h.742v-2.544c0-.203-.045-.405-.112-.563a1.402 1.402 0 00-.315-.428zm4.322-.293h-.743v2.927a1.53 1.53 0 01-.878.247c-.337 0-.585-.067-.765-.18a.475.475 0 01-.248-.45.38.38 0 01.068-.225c.045-.068.112-.135.18-.203.067-.045.157-.09.247-.135.09-.023.18-.045.293-.045h.495v-.698h-.562c-.473 0-.608-.112-.608-.293 0-.18.112-.27.495-.27.045 0 .113 0 .203.023.09.022.225.045.36.067l.045.023.067.022v-.698l-.067-.022a2.069 2.069 0 00-.63-.113c-.18 0-.338.023-.496.068-.157.045-.27.112-.405.203a.916.916 0 00-.27.315.883.883 0 00-.09.405c0 .18.067.36.202.495a.71.71 0 00.248.203 1.102 1.102 0 00-.293.27 1.074 1.074 0 00-.247.653c0 .36.157.698.473.945.315.27.765.383 1.328.383.675 0 1.238-.203 1.598-.63v-.023h.023v-3.265H9.23zM20.554 8.96v.607h3.017v-.675h-3.017v.068zm9.725 4.21a1.53 1.53 0 01-.878.247c-.337 0-.585-.067-.765-.18-.18-.112-.248-.248-.27-.45a.38.38 0 01.067-.225c.045-.068.113-.135.18-.203.068-.045.158-.09.248-.135.09-.023.18-.045.293-.045h.495v-.698h-.563c-.473 0-.608-.112-.608-.293 0-.18.113-.27.496-.27.045 0 .112 0 .202.023.09.022.203.045.36.067l.045.023.068.022v-.698l-.068-.022a2.07 2.07 0 00-.63-.113c-.18 0-.338.023-.495.068a1.34 1.34 0 00-.405.203.916.916 0 00-.27.315.882.882 0 00-.09.405c0 .18.067.338.202.495a.71.71 0 00.248.203 1.102 1.102 0 00-.293.27c-.158.203-.248.405-.248.653 0 .383.158.698.473.945.315.27.766.383 1.328.383.676 0 1.239-.203 1.599-.63l.022-.045v-3.242h-.743v2.927zm.27-4.503c-.225 0-.382.045-.495.158-.112.112-.135.27-.135.45v.247h.743v-.18c.023-.112 0-.112.18-.135h.36v-.539h-.653zm-7.721 4.052c0 .203-.09.36-.27.495a.986.986 0 01-.63.226.784.784 0 01-.541-.18c-.113-.113-.18-.248-.18-.473v-1.284c0-.405-.18-.765-.495-.99-.293-.225-.676-.338-1.149-.338-.697 0-1.238.27-1.62.833v3.063h1.283v-.698h-.54v-2.116c.202-.248.495-.36.9-.36.27 0 .495.067.653.18.157.112.247.27.247.518v1.215c0 .383.136.72.383.968.248.248.608.383 1.036.383.337 0 .675-.112.945-.315v.225h.743v-3.827h-.765v2.476zm3.624-1.62l.653-.586-.63-.338-1.419 1.216.203.045c.923.158 1.306.518 1.306 1.126 0 .27-.09.472-.293.63-.202.158-.45.248-.81.27h-.09c-.09 0-.158 0-.226-.022-.09-.023-.157-.023-.247-.045v-3.152h-.72v3.647l.067.022c.383.136.765.226 1.193.226h.045c.563 0 1.013-.158 1.373-.45.316-.27.473-.654.473-1.126v-.023c0-.653-.315-1.125-.878-1.44z" fill="#fff"/>
  <path fill-rule="evenodd" clip-rule="evenodd" d="M34.061.11H50v15.78H34.06V.11zm12.428 5.856l1.688 6.596-3.174 1.509H42.48V11.82s4.683 2.476 3.445-3.085c-.405-1.89-2.68-4.435-3.895-5.02a.458.458 0 00-.056.034.82.82 0 01-.056.034c-1.216.697-3.377 3.129-3.782 4.975-1.216 5.538 3.466 3.062 3.466 3.062v2.25h-2.521l-3.197-1.508 1.689-6.596 4.457-4.052 4.458 4.052z" fill="#fff"/>
  <path d="M21.252 3.512l.135-.788s-.653-.247-1.53-.247c-.879 0-1.96.247-1.96 1.485 0 1.104 1.261 1.284 1.554 1.374.293.067 1.17.247 1.17.72s-.652.63-1.057.63c-.901-.022-1.576-.427-1.576-.427l-.136.833s.676.382 1.689.382 2.004-.427 2.004-1.44c0-.946-.563-1.284-1.464-1.486-1.035-.248-1.238-.406-1.238-.676 0-.292.293-.562 1.058-.562.653-.023 1.35.202 1.35.202zm4.772-.024l.113-.81s-.585-.248-1.35-.248c-.789 0-2.545.157-2.545 2.544 0 2.363 1.801 2.498 2.5 2.498.697 0 1.417-.292 1.417-.292l-.112-.788s-.495.225-1.193.225c-.676 0-1.531-.113-1.531-1.666 0-1.576.855-1.666 1.553-1.666.518.023 1.148.203 1.148.203zm4.278 1.346V4.79s.72-.09.72-1.058c0-.99-.923-1.215-1.733-1.215h-2.184v4.862h2.296c1.08 0 1.869-.36 1.869-1.373-.023-.968-.833-1.126-.968-1.17zM28.05 3.326h1.284c.428 0 .765.135.765.608 0 .428-.225.608-.765.608H28.05V3.326zm1.374 3.242H28.05V5.24h1.418c.337 0 .81.067.81.63-.022.63-.405.698-.855.698z" fill="#fff"/>
</svg>
