<svg width="30" height="30" fill="none" xmlns="http://www.w3.org/2000/svg">
  <g clip-path="url(#scb-color-30px__clip0)">
    <path d="M28 0H2a2 2 0 00-2 2v26a2 2 0 002 2h26a2 2 0 002-2V2a2 2 0 00-2-2z" fill="#4B2885"/>
    <path d="M23.863 20.414l-2.435-9.512L15 5.06l-6.428 5.843-2.435 9.512 4.61 2.175h3.636v-3.246s-6.752 3.571-5-4.415c.585-2.662 3.702-6.168 5.455-7.175.065-.032.097-.065.162-.097 1.753.844 5.032 4.512 5.616 7.24 1.786 8.018-4.967 4.447-4.967 4.447v3.247h3.636l4.578-2.176z" fill="#FCAF17"/>
  </g>
  <defs>
    <clipPath id="scb-color-30px__clip0">
      <path fill="#fff" d="M0 0h30v30H0z"/>
    </clipPath>
  </defs>
</svg>
