<svg width="34" height="16" fill="none" xmlns="http://www.w3.org/2000/svg">
  <path fill-rule="evenodd" clip-rule="evenodd" d="M24.256 4.64c.766 0 1.386-.618 1.386-1.38 0-.762-.62-1.381-1.386-1.381-.764 0-1.384.619-1.384 1.381s.62 1.38 1.384 1.38zm-10.612.745c-.063.157-.513 1.424-1.601 2.737V2.507l-2.9.572v10.177h2.9V10.11c.84 1.256 1.255 3.146 1.255 3.146h3.473c-.344-1.424-1.847-4.049-1.847-4.049a12.668 12.668 0 002.036-3.822h-3.316zm7.624-.106c-2.598.083-3.916 1.245-3.916 3.554v4.423h2.834V9.649c0-1.383.181-1.975 1.827-2.032V5.32c-.277-.059-.745-.04-.745-.04zM4.279 6.506c-.355-.023-1.178-.076-1.178-.814 0-.89 1.184-.89 1.628-.89.781 0 1.793.23 2.515.445 0 0 .403.141.746.286l.031.009V3.103l-.043-.013c-.853-.297-1.844-.583-3.681-.583-3.168 0-4.29 1.84-4.29 3.416 0 .908.39 3.046 4.018 3.292.308.02 1.124.066 1.124.829 0 .63-.668 1-1.792 1a8.846 8.846 0 01-3.153-.61v2.512c1.087.284 2.312.426 3.747.426 3.098 0 4.485-1.74 4.485-3.465 0-1.956-1.552-3.227-4.157-3.4zm18.573 6.75h2.81V5.394h-2.81v7.862zm8.103-10.247v10.247h2.812V2.507l-2.812.502zm-4.102 0l2.809-.502v10.749h-2.809V3.009z" fill="#fff"/>
</svg>
