<svg width="30" height="30" fill="none" xmlns="http://www.w3.org/2000/svg">
  <g clip-path="url(#visa-color-30px__clip0)">
    <path d="M28 0H2a2 2 0 00-2 2v26a2 2 0 002 2h26a2 2 0 002-2V2a2 2 0 00-2-2z" fill="#0E4595"/>
    <path d="M11.086 19.15l1.35-8.236h2.158l-1.35 8.235h-2.158zm9.955-8.058a5.382 5.382 0 00-1.934-.346c-2.133 0-3.635 1.117-3.648 2.718-.012 1.183 1.073 1.843 1.891 2.237.84.404 1.123.661 1.119 1.022-.006.552-.671.804-1.292.804-.863 0-1.322-.125-2.031-.433l-.278-.13-.303 1.843c.504.23 1.436.43 2.404.44 2.269 0 3.742-1.105 3.758-2.814.008-.937-.567-1.65-1.812-2.238-.754-.38-1.216-.635-1.211-1.02 0-.343.39-.709 1.236-.709a3.851 3.851 0 011.615.316l.194.095.292-1.785zm5.554-.178h-1.668c-.516 0-.903.147-1.13.683l-3.205 7.547h2.266s.37-1.015.454-1.237l2.765.003c.064.288.262 1.234.262 1.234h2.003l-1.747-8.23zm-2.646 5.318l.86-2.302c-.013.022.177-.477.286-.786l.146.71.5 2.378h-1.792zM9.254 10.914L7.141 16.53l-.225-1.141c-.394-1.316-1.62-2.74-2.99-3.454l1.933 7.201 2.283-.002 3.398-8.22H9.254" fill="#fff"/>
    <path d="M5.17 10.918H1.69l-.028.171c2.708.682 4.5 2.33 5.243 4.309l-.757-3.785c-.13-.521-.51-.677-.978-.695" fill="#F2AE14"/>
  </g>
  <defs>
    <clipPath id="visa-color-30px__clip0">
      <path fill="#fff" d="M0 0h30v30H0z"/>
    </clipPath>
  </defs>
</svg>
