<svg width="36" height="16" fill="none" xmlns="http://www.w3.org/2000/svg">
  <g clip-path="url(#visa-white-16vh__clip0)">
    <path d="M15.6 13.703h-2.916l1.824-11.379h2.916L15.6 13.704zM26.171 2.602a7.13 7.13 0 00-2.616-.485c-2.88 0-4.907 1.55-4.92 3.765-.024 1.634 1.452 2.542 2.556 3.087 1.128.557 1.512.92 1.512 1.417-.012.762-.912 1.113-1.752 1.113-1.164 0-1.788-.18-2.736-.605l-.384-.182-.408 2.555c.684.314 1.944.593 3.253.605 3.06 0 5.052-1.525 5.075-3.886.012-1.295-.768-2.288-2.448-3.099-1.02-.52-1.644-.872-1.644-1.404.012-.485.528-.98 1.68-.98a4.917 4.917 0 012.172.435l.264.12.396-2.456zm3.877 7.07l1.164-3.184c-.012.025.24-.665.384-1.09l.204.981s.552 2.724.672 3.293h-2.424zm3.6-7.348h-2.256c-.696 0-1.224.206-1.524.944l-4.332 10.435h3.06l.612-1.707h3.744c.084.4.348 1.707.348 1.707H36L33.648 2.324zm-23.4 0l-2.856 7.76L7.08 8.51c-.528-1.816-2.184-3.789-4.032-4.77l2.616 9.951h3.084L13.33 2.324h-3.083z" fill="#fff"/>
    <path d="M4.74 2.324H.048L0 2.554c3.66.944 6.084 3.22 7.08 5.956L6.06 3.28c-.168-.726-.684-.932-1.32-.956z" fill="#B0B0B0"/>
  </g>
  <defs>
    <clipPath id="visa-white-16vh__clip0">
      <path fill="#fff" d="M0 0h36v16H0z"/>
    </clipPath>
  </defs>
</svg>
