<svg width="30" height="30" fill="none" xmlns="http://www.w3.org/2000/svg">
  <g clip-path="url(#vtb-color-30px__clip0)">
    <path d="M28 0H2a2 2 0 00-2 2v26a2 2 0 002 2h26a2 2 0 002-2V2a2 2 0 00-2-2z" fill="#0A2973"/>
    <mask id="a" maskUnits="userSpaceOnUse" x="4" y="10" width="22" height="10">
      <path d="M4.777 19.52h20.446v-9.043H4.777v9.044z" fill="#fff"/>
    </mask>
    <g mask="url(#a)">
      <path fill-rule="evenodd" clip-rule="evenodd" d="M9.45 14.697v.032c.341.125.667.344.838.485.528.438.76 1.017.76 1.768 0 1.236-.651 2.128-1.723 2.41-.326.093-.667.125-1.304.125H4.777v-9.044h2.872c.59 0 .993.03 1.35.125 1.04.281 1.724 1.001 1.724 2.143 0 .61-.218 1.127-.575 1.471a2.176 2.176 0 01-.698.485zm-2.872.955v2.378H7.82c.372 0 .714-.031.962-.266.249-.235.357-.532.357-.923 0-.297-.077-.579-.233-.782-.264-.329-.59-.407-1.148-.407h-1.18zm-.016-1.565h1.01c.31 0 .465 0 .62-.047.42-.125.683-.5.683-1.017 0-.61-.28-.876-.683-1.001-.17-.047-.341-.063-.683-.063h-.947v2.128zm7.188 5.43V11.99h-2.592v-1.517h7.203l-.512 1.517h-2.298v7.527h-1.8zm5.17 0v-9.044h5.838l-.512 1.517h-3.54v2.003h1.444c1.164 0 1.77.282 2.189.642.326.281.884.907.884 2.144 0 1.22-.574 1.893-1.055 2.237-.559.391-1.149.5-2.345.5H18.92zm1.786-1.518h1.35c.513 0 .823-.125 1.04-.407.11-.14.264-.391.264-.86 0-.47-.155-.799-.465-1.033-.186-.141-.435-.22-.854-.22h-1.335V18z" fill="#fff"/>
    </g>
  </g>
  <defs>
    <clipPath id="vtb-color-30px__clip0">
      <path fill="#fff" d="M0 0h30v30H0z"/>
    </clipPath>
  </defs>
</svg>
