<svg width="39" height="16" fill="none" xmlns="http://www.w3.org/2000/svg">
  <path fill-rule="evenodd" clip-rule="evenodd" d="M2.653 1.02l-.664 1.817h9.195l.664-1.817H2.653zm-.996 2.725L.993 5.563h9.196l.663-1.818H1.657zM.664 6.471L0 8.29h9.195l.663-1.818H.664z" fill="#B0B0B0"/>
  <mask id="a" maskUnits="userSpaceOnUse" x="13" y="3" width="26" height="12">
    <path d="M13.796 14.919h25.171V3.785h-25.17V14.92z" fill="#fff"/>
  </mask>
  <g mask="url(#a)">
    <path fill-rule="evenodd" clip-rule="evenodd" d="M19.549 8.978v.038c.42.155.821.424 1.032.598.65.54.936 1.252.936 2.176 0 1.523-.803 2.62-2.121 2.967-.402.116-.822.154-1.606.154h-3.994V3.777h3.536c.726 0 1.223.039 1.662.154 1.28.347 2.122 1.233 2.122 2.64 0 .75-.268 1.386-.707 1.81a2.68 2.68 0 01-.86.597zm-3.536 1.175v2.928h1.529c.458 0 .879-.038 1.185-.327.306-.29.44-.655.44-1.137 0-.366-.096-.713-.287-.963-.325-.404-.727-.5-1.415-.5h-1.452zm-.02-1.926h1.243c.382 0 .573 0 .764-.058.517-.154.841-.616.841-1.252 0-.751-.344-1.079-.84-1.233-.211-.057-.421-.077-.842-.077h-1.165v2.62zm8.85 6.684V5.646H21.65V3.777h8.868l-.63 1.869h-2.83v9.265h-2.216zm6.364 0V3.777h7.187l-.631 1.869h-4.358V8.11h1.778c1.433 0 2.179.347 2.694.79.402.347 1.09 1.117 1.09 2.64 0 1.502-.707 2.33-1.3 2.754-.688.481-1.414.616-2.886.616h-3.574zm2.198-1.868h1.663c.63 0 1.013-.154 1.28-.501.134-.174.325-.482.325-1.06 0-.577-.19-.982-.573-1.271-.23-.173-.535-.27-1.051-.27h-1.644v3.102z" fill="#fff"/>
  </g>
</svg>
