<svg width="68" height="16" fill="none" xmlns="http://www.w3.org/2000/svg">
  <path d="M59.81.001c1.272 0 2.481.29 3.566.81.17.076.342.167.512.26l-.744.657L62.028.581l-1.922 1.681-1.132-1.207-3.535 3.133 2.263 2.46-.884.764 2.233 2.46-.884.764 3.195 3.5 1.89-1.713 1.645 1.835c-.326.244-.683.49-1.07.703a8.187 8.187 0 01-4 1.038c-4.481 0-8.125-3.59-8.125-8.006C51.687 3.607 55.33 0 59.811 0v.001zm-1.488 7.502l1.938-1.712 1.737 1.911-1.94 1.711-1.735-1.91zm1.38 3.302l1.923-1.727 1.751 1.91-1.938 1.712-1.737-1.895zm-2.76-6.556l1.938-1.712 1.737 1.91L58.68 6.16l-1.736-1.91zm3.55-.917l1.442-1.284 1.303 1.421-1.443 1.3-1.302-1.437zm2.574 5.883l1.441-1.283 1.303 1.436-1.442 1.284-1.302-1.437zm1.271 2.889l1.442-1.284 1.302 1.42-1.442 1.3-1.302-1.436zm.59-6.603l.961-.855.868.948-.961.855-.869-.948zm-1.24-2.826l.96-.871.87.963-.962.856-.869-.948zm2.465 5.654l.96-.856.884.948-.977.855-.867-.947zm-4.326-2.124l1.442-1.284 1.302 1.421-1.44 1.284-1.304-1.421zm-57.573.307H4.18l-1.374 5.2H1.684L0 4.324h1.165l1.164 5.511h.073l1.35-5.511h.926l1.445 5.511h.074l1.06-5.511h1.217L6.79 11.71H5.666l-1.413-5.2zm5.699 2.054h2.38c-.052-1.093-.583-1.531-1.144-1.531-.635 0-1.123.49-1.236 1.531zm3.212 1.96v.792a3.66 3.66 0 01-1.841.48c-1.748 0-2.464-1.085-2.464-2.73 0-1.585.801-2.73 2.36-2.73 1.3 0 2.1.843 2.1 2.541v.386h-3.39c0 1.25.51 1.802 1.581 1.802.562 0 1.082-.198 1.654-.542zm2.575.436c.332.146.697.167.956.167.77 0 1.351-.48 1.351-2.168 0-1.323-.478-1.75-1.174-1.75-.416 0-.718.115-1.133.344v3.407zm.01-4.177c.312-.167.842-.387 1.404-.387 1.289 0 1.986.897 1.986 2.563 0 1.948-.937 2.897-2.444 2.897-.551 0-1.404-.177-2.027-.512v-7.27l1.081-.26v2.969zm8.07 3.359h.051l2.224-5.824h1.29v7.387H26.26V6.352h-.093l-2.121 5.355h-.665l-2.121-5.23h-.095v5.23h-.935V4.32h1.259l2.329 5.824zm8.153-1.077c0-1.405-.571-2-1.278-2-.686 0-1.279.594-1.279 2 0 1.428.54 2 1.28 2 .737 0 1.277-.572 1.277-2zm-3.648 0c0-1.824.998-2.73 2.37-2.73 1.374 0 2.371.906 2.371 2.73 0 1.78-.945 2.73-2.37 2.73-1.425 0-2.37-.95-2.37-2.73zm5.563-1.958c.468-.281 1.456-.771 2.651-.771 1.248 0 1.715.489 1.715 1.561v3.773h-1.08V8.14c0-.823-.405-.969-.936-.969-.416 0-.947.188-1.27.376v4.125h-1.08V7.11zm6.655 1.457h2.38c-.05-1.093-.581-1.531-1.143-1.531-.634 0-1.122.49-1.237 1.531zm3.212 1.96v.792a3.655 3.655 0 01-1.84.48c-1.746 0-2.463-1.085-2.463-2.73 0-1.585.8-2.73 2.359-2.73 1.3 0 2.1.843 2.1 2.541v.386h-3.388c0 1.25.508 1.802 1.579 1.802.561 0 1.083-.198 1.653-.542zm4.476-4.188h1.113l-1.883 5.206c-.52 1.438-1.153 2.189-2.349 2.189v-.853c.707 0 1.143-.562 1.394-1.334l-1.997-5.208h1.144l1.331 3.833h.063l1.184-3.833z" fill="#fff"/>
</svg>
