<svg width="48" height="16" fill="none" xmlns="http://www.w3.org/2000/svg">
  <path d="M46.092 6.132c.488-.008.976 0 1.464-.015.203-.008.285.046.285.275a1535.92 1535.92 0 000 8.314c0 .321-.188.26-.368.26H39.72c-.623 0-1.246.008-1.876 0-.736-.007-1.178-.46-1.186-1.217 0-2.113.008-4.218-.007-6.331a2.353 2.353 0 01.72-1.768c.593-.59 1.276-1.057 1.921-1.577 1.584-1.271 3.175-2.55 4.759-3.828.09-.069.18-.13.33-.245v6.086a231.48 231.48 0 00-.007 3.238c0 .268-.083.437-.308.59-1.824 1.247-3.64 2.518-5.457 3.781-.097.07-.232.1-.262.268.052-.007.105 0 .142-.015 2.44-.812 4.871-1.623 7.31-2.42.233-.076.293-.198.293-.436 0-1.66.008-3.314 0-4.96zm-3.19-.092c-.007-.444-.3-.674-.72-.566-.503.13-.968.68-1.006 1.201-.03.444.293.728.713.636.533-.115 1.014-.727 1.014-1.271z" fill="#fff"/>
  <path d="M46.093 6.143c0 1.654-.007 3.3.008 4.953 0 .238-.06.36-.293.437-2.44.804-4.871 1.615-7.31 2.419-.045.015-.09.008-.143.015.023-.176.165-.199.263-.268 1.816-1.263 3.632-2.526 5.456-3.781.225-.154.308-.322.308-.59-.008-1.08.007-2.159.007-3.238.57.084 1.141-.008 1.704.053zm-3.191-.1c.008.543-.48 1.156-1.005 1.27-.42.092-.743-.191-.713-.635.03-.52.495-1.08 1.005-1.202.413-.1.706.13.713.567zM3.204 10.222l-1.857 4.247H0l2.035-4.545C1.084 9.424.443 8.53.443 6.868c0-2.326 1.441-3.49 3.156-3.49h1.743V14.46H4.184v-4.248l-.98.01zm.98-5.834h-.622c-.943 0-1.857.634-1.857 2.48 0 1.787.839 2.354 1.857 2.354h.622V4.388z" fill="#B0B0B0"/>
  <path d="M10.996 6.654v7.814H9.827V10.96H8.056v3.508H6.869V6.654h1.187V9.97h1.762V6.654h1.178zm6.086 9.342h-1.064v-1.538h-3.28v1.538h-1.064v-2.528h.471c.697-1.662.773-4.075.773-6.15v-.664h3.552v6.824h.603c.01-.01.01 2.518.01 2.518zm-1.771-8.371h-1.32v.135c0 1.643-.075 4.046-.715 5.708h2.035V7.625zm5.041 6.948c-1.583 0-2.553-1.287-2.553-3.69 0-2.508.687-4.344 2.308-4.344 1.272 0 2.11.98 2.11 3.623v.663h-3.184c0 1.769.49 2.7 1.432 2.7.669 0 1.197-.307 1.508-.528l.273.933c-.49.393-1.13.643-1.894.643zm-1.31-4.728h1.97c0-1.336-.217-2.306-.896-2.306-.735 0-.989.913-1.074 2.306zm5.578.73v3.893h-1.187V6.654h1.187v3.614l1.838-3.614h1.196l-1.903 3.672 2.176 4.142h-1.29l-2.017-3.893zm3.468-.019c0-2.45.923-4.017 2.723-4.017.688 0 1.083.183 1.413.404l-.17 1.143c-.32-.278-.772-.538-1.262-.538-.848 0-1.46.98-1.46 2.941 0 1.95.452 3.066 1.413 3.066.575 0 1.017-.23 1.29-.48l.274.903a2.298 2.298 0 01-1.592.586c-1.64.01-2.63-1.336-2.63-4.008z" fill="#fff"/>
</svg>
