<svg width="95" height="42" xmlns="http://www.w3.org/2000/svg"><defs><radialGradient cx="71.459%" cy="50.384%" fx="71.459%" fy="50.384%" r="75.887%" gradientTransform="matrix(.20655 .63562 -.97844 .13418 1.06 -.018)" id="a"><stop stop-color="#E9ED62" offset="0%"/><stop stop-color="#E8E961" offset="15%"/><stop stop-color="#E4DC5C" offset="30%"/><stop stop-color="#DDC855" offset="46%"/><stop stop-color="#D4AB4B" offset="62%"/><stop stop-color="#C7853F" offset="78%"/><stop stop-color="#B9582F" offset="93%"/><stop stop-color="#B24328" offset="100%"/></radialGradient><linearGradient x1="50.032%" y1="100%" x2="50.032%" y2="0%" id="b"><stop stop-color="#939598" offset="0%"/><stop stop-color="#FFF" offset="79%"/></linearGradient><linearGradient x1="49.884%" y1="100%" x2="49.884%" y2="-.006%" id="c"><stop stop-color="#939598" offset="0%"/><stop stop-color="#FFF" offset="79%"/></linearGradient><linearGradient x1="49.64%" y1="99.974%" x2="49.64%" y2="0%" id="d"><stop stop-color="#939598" offset="0%"/><stop stop-color="#FFF" offset="79%"/></linearGradient><linearGradient x1="50.021%" y1="100%" x2="50.021%" y2="0%" id="e"><stop stop-color="#939598" offset="0%"/><stop stop-color="#FFF" offset="79%"/></linearGradient></defs><g fill="none" fill-rule="evenodd"><rect fill="#A92A24" x=".48" y=".48" width="94.05" height="41.05" rx="2.52"/><path d="M92 1a2.05 2.05 0 0 1 2 2.05V39a2.05 2.05 0 0 1-2 2H3a2.05 2.05 0 0 1-2-2V3a2.05 2.05 0 0 1 2-2h89zm0-1H3a3 3 0 0 0-3 3v36a3 3 0 0 0 3 3h89a3 3 0 0 0 3-3V3a3 3 0 0 0-3-3z" fill="#96221D" fill-rule="nonzero"/><path d="M21 21l3-10.92a11.65 11.65 0 0 0-3.66-.6 11.52 11.52 0 0 0 0 23 11.36 11.36 0 0 0 4.1-.77L21 21z" fill="url(#a)"/><path fill="#FFF" d="M34.61 25.37L36.15 25.37 39.15 29.42 42 25.37 43.43 25.37 43.43 34.05 41.87 34.05 41.87 27.77 39.13 31.63 38.9 31.63 36.14 27.81 36.14 34.05 34.61 34.05z"/><path fill="#FFF" d="M46.44 25.37L51.44 25.37 51.44 26.79 48 26.79 48 29 51.13 29 51.13 30.43 48 30.43 48 32.68 51.63 32.68 51.63 34.1 46.44 34.1z"/><path fill="#FFF" d="M54.23 25.37L55.77 25.37 58.77 29.42 61.6 25.37 63 25.37 63 34.05 61.49 34.05 61.49 27.77 58.75 31.63 58.53 31.63 55.76 27.81 55.76 34.05 54.23 34.05z"/><path d="M66.06 25.39c.48 0 1.64-.06 2.5-.06 2.08 0 2.86.94 2.86 2.15a2 2 0 0 1-1.24 2 1.94 1.94 0 0 1 1.53 2c0 1.78-1.4 2.6-3.23 2.6-.8 0-1.91 0-2.42-.06v-8.63zm1.53 1.4V29h1a1.14 1.14 0 0 0 1.29-1.15c0-.71-.55-1.08-1.37-1.08-.32-.01-.65 0-.92.02zm0 3.53v2.29c.331.047.665.07 1 .07 1 0 1.59-.44 1.59-1.26 0-.82-.56-1.1-1.52-1.1h-1.07z" fill="#FFF" fill-rule="nonzero"/><path fill="#FFF" d="M74.36 25.37L79.36 25.37 79.36 26.79 75.86 26.79 75.86 29 79 29 79 30.43 75.89 30.43 75.89 32.68 79.52 32.68 79.52 34.1 74.36 34.1z"/><path d="M82.16 34.05v-8.68h2.65C87.18 25.34 88 26.52 88 28a2.5 2.5 0 0 1-1.68 2.48L89 34.05h-1.85l-2.39-3.25h-1.07v3.25h-1.53zm1.53-7.26v2.58h1c.88 0 1.67-.44 1.67-1.34 0-.68-.38-1.26-1.62-1.26l-1.05.02z" fill="#FFF" fill-rule="nonzero"/><path fill="#A0A3AA" d="M0.94 11.57L21 21 0.94 30.62z"/><path fill="#A0A3AA" d="M30.42 1.03L20.99 21 11.37 1.03z"/><path fill="#A0A3AA" d="M30.42 41.02L20.99 21 11.37 41.02z"/><path d="M34.88 7.5H31.3L25 20.81h3l1-2.37h5.89l1 2.37h4.92L34.88 7.5zM30 15.93l1.92-3.85 1.84 3.85H30z" fill="url(#b)" fill-rule="nonzero"/><path d="M49.66 7.5h-8.87v13.31h4.57v-4.66H50a4 4 0 0 0 4.21-4.07 4.28 4.28 0 0 0-4.55-4.58zm-1.86 6.3h-2.49v-4h2.62s1.52 0 1.52 1.94c0 .03 0 2.06-1.65 2.06z" fill="url(#c)" fill-rule="nonzero"/><path d="M68.6 10.69s-1.32-3.91-6.85-3.91c-5.79 0-7 4.66-7 7.22a7.46 7.46 0 0 0 13.9 3.07L67 15.44S65.57 18 63.3 18a3.89 3.89 0 0 1-3.7-4c0-2.26 1.37-4.32 3.58-4.32a4.79 4.79 0 0 1 3.88 2.4l1.54-1.39z" fill="url(#d)"/><path fill="url(#e)" d="M67.48 7.49L73.71 20.81 77.42 20.81 79.44 15.93 81.59 20.81 85.13 20.81 91.35 7.49 88.35 7.49 84.37 15.93 81.81 10.51 83.47 7.49 75.32 7.5 77.92 12.88 76.39 15.93 72.68 7.49z"/></g></svg>