<svg width="69" height="42" xmlns="http://www.w3.org/2000/svg" xmlns:xlink="http://www.w3.org/1999/xlink"><defs><path id="a" d="M0.022419813 0.0204457414L10.4393136 0.0204457414 10.4393136 7.88782604 0.022419813 7.88782604z"/></defs><g fill="none" fill-rule="evenodd"><path d="M3.053 6.694v2.944h2.29c.873.055 1.636-.545 1.69-1.418v-.054c0-.927-.763-1.527-1.908-1.527l-2.072.055zm0-4.307v2.617H5.18c.763.054 1.472-.491 1.526-1.254v-.11c0-.708-.708-1.253-1.69-1.253H3.053zM0 .642h4.144c1.854 0 2.508.054 3.053.272 1.036.491 1.636 1.473 1.636 2.618 0 1.09-.327 1.635-1.418 2.18 1.145.382 1.908 1.473 1.8 2.672 0 1.8-1.418 2.999-3.49 2.999H0V9.638h.818V2.387H0V.642zm16.193 5.67a1.64 1.64 0 0 0-1.635-1.635h-.055c-.927 0-1.69.708-1.854 1.58l3.544.055zm2.072 2.4c-.382 1.798-1.854 2.889-3.816 2.889-2.29 0-3.98-1.8-3.98-4.307 0-2.508 1.69-4.308 3.98-4.308 1.253 0 2.453.6 3.162 1.69.545.927.872 1.963.818 3.054H12.54c.218 2.126 1.581 2.235 1.963 2.235.763.055 1.472-.49 1.69-1.2l2.072-.054zM5.185 20.407h3.763v5.343h-1.2v-1.69c-.218.382-.49.709-.818 1.036-.708.6-1.58.927-2.453.927-2.508 0-4.471-2.454-4.471-5.616 0-3.162 1.963-5.67 4.416-5.67 1.363-.055 2.563.709 3.217 1.853v-1.69h1.145v3.435h-1.2a3.596 3.596 0 0 0-.6-1.308c-.544-.71-1.417-1.145-2.289-1.2-1.309 0-3.271 1.145-3.271 4.47 0 2.618 1.417 4.526 3.271 4.526 1.472-.054 2.672-1.145 2.944-2.562.055-.273.055-.6.055-.873H5.13l.055-.981m10.577 1.145l-.763.109c-2.508.327-3.326.763-3.326 1.8a1.677 1.677 0 0 0 1.69 1.58c1.2-.054 2.235-.927 2.4-2.126v-1.363zm2.345 4.253h-2.345v-1.472c-.545 1.036-1.636 1.635-2.78 1.635-1.364.11-2.563-.981-2.672-2.344v-.164c0-1.58 1.363-2.344 4.634-2.671l.763-.055v-.818c0-.927-.708-1.526-1.853-1.526s-1.745.381-1.963 1.472h-1.254a2.9 2.9 0 0 1 .927-1.69c.6-.491 1.417-.71 2.18-.71 1.69 0 3.109.764 3.109 2.836v4.525h1.145l.109.982zm3.434-6.707c.382-.545 1.091-1.69 2.618-1.69 1.09 0 1.69.545 1.908 1.69.218-.381.436-.708.763-1.035.491-.437 1.09-.71 1.745-.71 1.254 0 1.963.819 1.963 2.236v5.18h1.145v.981h-2.29v-5.725c0-1.145-.382-1.69-1.2-1.69-1.417 0-2.18 1.69-2.18 2.29v4.144h1.199v.981h-2.4v-5.888c0-1.036-.38-1.472-1.199-1.472-1.254 0-2.18 1.58-2.18 2.344v4.09h1.199v.98h-3.544v-.98h1.2V18.5h-1.2v-.982h2.399l.054 1.581m13.686 3.217a2.559 2.559 0 0 0 2.344 2.563c1.418 0 2.29-1.254 2.29-3.272 0-2.017-.927-3.216-2.29-3.216-1.2 0-2.399 1.308-2.399 2.508l.055 1.417zm-2.29-7.796h2.29v4.743c.327-.6 1.254-1.8 2.671-1.8 1.854 0 3.272 1.91 3.272 4.308 0 2.236-1.527 4.144-3.272 4.144-1.472 0-2.18-.982-2.671-1.636v1.527h-2.345v-.982h1.145v-9.323h-1.09v-.981z" fill="#FFFFFE"/><path fill="#FFFFFE" d="M41.870156 14.5195351L44.214648 14.5195351 44.214648 24.8243298 45.3050405 24.8243298 45.3050405 25.8057254 41.815587 25.8057254 41.815587 24.8243298 43.0151175 24.8243298 43.0151175 15.4465028 41.870156 15.4465028 41.870156 14.5195351"/><path d="M52.12 21.008c0-.764-.272-1.472-.817-2.072-.382-.327-.873-.545-1.364-.49a2.39 2.39 0 0 0-2.18 1.744c-.055.272-.164.545-.164.818h4.525zm1.2 2.508c-.11.49-.327.872-.654 1.254a3.398 3.398 0 0 1-2.617 1.2c-2.236 0-3.817-1.745-3.817-4.253 0-2.4 1.581-4.253 3.598-4.253 2.018 0 3.653 1.581 3.653 4.47h-5.942c.109 1.2.381 1.909.926 2.454.437.382.982.6 1.527.6.927 0 1.527-.436 1.963-1.418l1.363-.054zM5.07 31.28l-1.417 4.798h2.835L5.071 31.28zm-1.308-2.018H6.38l2.999 9.051h.818v1.745H7.742l-.709-2.345H3.217l-.709 2.345H0v-1.745h.818l2.944-9.05z" fill="#FFFFFE"/><path fill="#FFFFFE" d="M10.0868008 31.8250927L13.3581194 31.8250927 13.3581194 33.406183 12.5402898 33.406183 13.6852513 38.258733 15.0483477 31.8250927 17.1747048 31.8250927 18.5378012 38.1497361 19.6281938 33.406183 18.8103641 33.406183 18.8103641 31.8250927 22.0816828 31.8250927 22.0816828 33.406183 21.3729911 33.406183 19.6281938 40.0033893 17.4472677 40.0033893 16.0843123 34.3331507 14.7756438 40.0033893 12.5948587 40.0033893 10.7954925 33.406183 10.0868008 33.406183 10.0868008 31.8250927"/><path d="M27.861 36.187c-1.908.163-3.162.327-3.162 1.472 0 .654.545 1.09 1.363 1.09.981 0 1.8-.763 1.854-1.744v-.818h-.055zm1.963 2.29h.709v1.581H27.97v-.981c-.6.763-1.526 1.145-2.508 1.145-1.636 0-2.89-1.09-2.89-2.563 0-2.399 2.727-2.672 5.344-2.89 0-1.254-.437-1.635-1.472-1.635-1.036 0-1.418.49-1.473 1.254v.054l-1.962-.054c.109-1.636 1.417-2.672 3.38-2.672 2.29 0 3.49 1.036 3.49 2.89l-.055 3.87zm4.575-5.343c.545-1.036 1.145-1.472 2.071-1.472.328 0 .6.054.927.109v1.908c-.327-.055-.654-.11-.981-.11-1.036-.054-1.908.71-1.963 1.691v3.162h.982v1.581h-3.817v-1.58h.818v-5.017h-.818v-1.58h2.78v1.308m9.106 1.799a1.64 1.64 0 0 0-1.636-1.636h-.054c-.927 0-1.69.709-1.854 1.581l3.544.055zm2.126 2.399c-.381 1.8-1.854 2.89-3.816 2.89-2.29 0-3.98-1.8-3.98-4.308s1.69-4.307 3.98-4.307c1.254 0 2.453.6 3.162 1.69.545.927.872 1.963.818 3.053h-5.889c.218 2.127 1.582 2.236 1.963 2.236.763.054 1.472-.49 1.69-1.2l2.072-.054zm21.007-11.674a.54.54 0 0 0 .203-.075.418.418 0 0 0 .14-.151.514.514 0 0 0 .051-.245.493.493 0 0 0-.117-.34c-.076-.087-.201-.13-.373-.13h-.911v.96h.764c.085 0 .166-.006.243-.019zm-.077-1.25c.263 0 .467.063.615.192.148.129.222.305.222.529a.834.834 0 0 1-.113.44.586.586 0 0 1-.365.259v.007a.432.432 0 0 1 .314.207c.03.05.052.106.066.168a1.637 1.637 0 0 1 .044.397c.003.07.01.138.02.205.01.067.025.13.045.191a.46.46 0 0 0 .086.16h-.409a.23.23 0 0 1-.052-.115.947.947 0 0 1-.017-.165l-.009-.195a2.338 2.338 0 0 0-.062-.396.446.446 0 0 0-.073-.157.355.355 0 0 0-.131-.108.48.48 0 0 0-.216-.04h-.895v1.176h-.367v-2.755h1.297z" fill="#FFFFFE"/><path d="M66.293 23.647a2.238 2.238 0 0 0-2.236 2.235 2.238 2.238 0 0 0 2.236 2.236 2.239 2.239 0 0 0 2.236-2.236 2.239 2.239 0 0 0-2.236-2.235zm0 4.907a2.675 2.675 0 0 1-2.671-2.672 2.675 2.675 0 0 1 2.671-2.671 2.675 2.675 0 0 1 2.672 2.671 2.675 2.675 0 0 1-2.672 2.672z" fill="#FFFFFE"/><path fill="#FFFFFE" d="M46.7721011 39.9749063L47.7908631 39.9749063 47.7908631 38.9780001 46.7721011 38.9780001z"/><path d="M51.373 39.372c1.117 0 1.785-.898 1.785-2.377 0-1.39-.7-2.278-1.785-2.278-1.063 0-1.72.887-1.72 2.322 0 1.468.646 2.333 1.72 2.333zM48.7 37.017c0-1.796 1.107-3.034 2.706-3.034 1.566 0 2.705 1.282 2.705 3.034 0 1.83-1.117 3.09-2.727 3.09-1.6 0-2.684-1.25-2.684-3.09z" fill="#FFFFFE"/><g transform="translate(54.67 33.952)"><mask id="b" fill="#fff"><use xlink:href="#a"/></mask><path d="M1.742 1.477c.285-.613.438-.8.701-1.051C2.75.163 3.133.02 3.517.02c.142 0 .34.022.635.066v.866a3.453 3.453 0 0 0-.624-.077c-1.6 0-1.786 1.654-1.786 1.742v2.716H2.75v.69H.055v-.69H.9V.82H.022v-.7h1.72v1.357m7.032.822c0-.646-.788-1.566-1.686-1.566-.964 0-1.556.788-1.556 2.07 0 1.303.603 2.092 1.61 2.092.866 0 1.632-.844 1.632-1.534V2.3zm0 2.278C8.238 5.333 7.646 5.585 7 5.585c-1.413 0-2.388-1.161-2.388-2.837 0-1.588.953-2.716 2.29-2.716 1.084 0 1.566.69 1.872 1.139V.119h1.665V.82h-.821v4.842c0 1.424-.91 2.234-2.509 2.234-.974 0-1.807-.427-2.201-1.117a3.312 3.312 0 0 1-.241-.58h.953c.35.711.767.974 1.555.974.997 0 1.6-.514 1.6-1.369V4.577z" fill="#FFFFFE" mask="url(#b)"/></g></g></svg>