<svg width="95" height="42" xmlns="http://www.w3.org/2000/svg"><defs><linearGradient x1="50%" y1="100%" x2="50%" y2="0%" id="a"><stop stop-color="#26A6D9" offset="0%"/><stop stop-color="#1464A8" offset="100%"/></linearGradient><linearGradient x1="0%" y1="49.969%" y2="49.969%" id="b"><stop stop-color="#2395CD" stop-opacity="0" offset="0%"/><stop stop-color="#6AB8E0" offset="100%"/></linearGradient></defs><g fill="none" fill-rule="evenodd"><rect fill="url(#a)" width="95" height="42" rx="3"/><path fill="url(#b)" d="M25.65 22.55H95V38.92H25.65z"/><path d="M39.16 7.25a5.26 5.26 0 0 1 5.47 3.95H42.1a3 3 0 0 0-2.94-1.63c-2.25 0-3.52 1.7-3.52 3.85 0 2.15 1.37 3.83 3.52 3.83 1.65 0 2.86-.5 3.37-2.3h-3.28v-2.17h5.64a8.36 8.36 0 0 1-.36 3.37 5.39 5.39 0 0 1-5.37 3.44A5.92 5.92 0 0 1 33 13.42a5.93 5.93 0 0 1 6.16-6.17z" fill="#FFF"/><path d="M48.76 17.44l-.93 2h-2.68v-.34l5.53-11.8h1.19l5.5 11.79v.34H54.7l-.94-2-5 .01zm.84-2.17h3.33l-1.66-4-1.67 4z" fill="#FFF" fill-rule="nonzero"/><path fill="#FFF" d="M65.66 15.15L61.35 15.15 61.35 19.43 58.79 19.43 58.79 7.4 66.16 7.4 66.16 9.65 61.35 9.65 61.35 12.9 65.66 12.9z"/><path fill="#FFF" d="M75 15.15L70.69 15.15 70.69 19.43 68.13 19.43 68.13 7.4 75.5 7.4 75.5 9.65 70.69 9.65 70.69 12.9 75 12.9z"/><path d="M82.81 7.25c2.39 0 4.78 1.15 5.46 3.95h-2.52a3 3 0 0 0-2.94-1.63c-2.25 0-3.52 1.7-3.52 3.85 0 2.15 1.37 3.83 3.52 3.83 1.65 0 2.85-.5 3.37-2.3h-3.29v-2.17h5.64a8.19 8.19 0 0 1-.36 3.37 5.37 5.37 0 0 1-5.36 3.44 5.93 5.93 0 0 1-6.14-6.17 5.94 5.94 0 0 1 6.14-6.17z" fill="#FFF"/><path d="M9.61 9h12a.62.62 0 0 0 0-1.24h-.91v-.7a.47.47 0 0 0-.21-.41L16 3.57a.48.48 0 0 0-.55 0L10.7 6.64a.5.5 0 0 0-.22.42v.73h-.87a.62.62 0 0 0 0 1.21zm1.86-1.71l4.24-2.75 4 2.75v.47h-2.83V7l-1.16-.81-1.25.81v.79h-3v-.5zm14.18 29.57h-3l-2.5-17.43h1.43a.62.62 0 1 0 0-1.23h-12a.62.62 0 0 0 0 1.23h1.52L8.75 36.86H5.67a.62.62 0 0 0 0 1.24h20a.62.62 0 0 0 0-1.24h-.02zm-5.17-6.57l-.13-.67-9.72 2.61.58-4.23 8.6-2.28.67 4.57zm-1.57-10.86l.28 2-7.38 2.14.56-4.12 6.54-.02zm-8.74 17.43l10.9-2.52.37 2.52H10.17z" fill="#FFF" fill-rule="nonzero"/><path d="M7.15 11.53l2.47.93h.1a.29.29 0 0 0 .28-.19.3.3 0 0 0-.17-.39L7.36 11a.3.3 0 0 0-.38.17.3.3 0 0 0 .17.36zm2.36 3.31l-2.31.9a.3.3 0 0 0-.16.39.29.29 0 0 0 .27.19.23.23 0 0 0 .11 0l2.3-.9a.294.294 0 1 0-.21-.55v-.03zm11.66-2.55a.29.29 0 0 0 .28.19h.1l2.45-.95a.3.3 0 0 0 .17-.39.3.3 0 0 0-.38-.17l-2.47.93a.3.3 0 0 0-.15.39zM24 15.74l-2.3-.9a.3.3 0 1 0-.22.55l2.3.9a.23.23 0 0 0 .11 0 .32.32 0 0 0 .28-.19.3.3 0 0 0-.17-.36z" fill="#FFF"/><path d="M11.78 13.69a3.89 3.89 0 1 0 7.78 0 3.89 3.89 0 0 0-7.78 0zm1.3 1.81a3.14 3.14 0 0 1-.57-1.81h1.06c0 .41.123.81.35 1.15l-.84.66zm.85-3l-.8-.71a3.13 3.13 0 0 1 1.48-1.1l.4 1a2 2 0 0 0-1.08.84v-.03zm1.74 4.32a3.29 3.29 0 0 1-1-.18l.36-1a1.84 1.84 0 0 0 1.36 0l.36 1a3.29 3.29 0 0 1-1.08.21v-.03zm3.16-3.16a3.11 3.11 0 0 1-.62 1.87l-.86-.63a2.06 2.06 0 0 0 .42-1.24h1.06zm-2.21-3a3.2 3.2 0 0 1 1.54 1.06l-.81.7a2.18 2.18 0 0 0-1.06-.75l.33-1.01z" fill="#FFF" fill-rule="nonzero"/><path fill="#00334C" d="M52.86 26L52.86 25.13 56.33 25.13 56.33 26 55.08 26 55.08 29.81 54.08 29.81 54.08 26z"/><path d="M61.92 29.63v.14h-1.07l-1-1.55h-.84v1.55h-1v-4.68h2a1.56 1.56 0 0 1 1.65 1.6 1.49 1.49 0 0 1-.83 1.38l1.09 1.56zM60 27.4a.72.72 0 0 0 0-1.4h-1v1.4h1z" fill="#00334C" fill-rule="nonzero"/><path d="M63.67 28.22v-3.13h1v3.11a.77.77 0 0 0 .87.75.77.77 0 0 0 .86-.75v-3.11h1v3.13a1.66 1.66 0 0 1-1.85 1.61 1.68 1.68 0 0 1-1.88-1.61zm6.57.17c0 .43.49.61.94.61.45 0 .9-.1.9-.59s-.58-.58-1-.61c-.85-.08-1.71-.37-1.71-1.33 0-.96.83-1.47 1.76-1.47s1.79.37 1.79 1.42H72c0-.38-.45-.54-.85-.54-.4 0-.8.21-.8.58s.41.5.9.56c1 .08 1.84.3 1.84 1.4 0 1.1-1 1.44-1.88 1.46-.88.02-1.91-.46-1.91-1.48l.94-.01z" fill="#00334C"/><path fill="#00334C" d="M74.55 26L74.55 25.13 78 25.13 78 26 76.77 26 76.77 29.81 75.77 29.81 75.77 26z"/><path fill="#00334C" d="M82.61 26L80.75 26 80.75 27 82.49 27 82.49 27.88 80.75 27.88 80.75 28.95 82.66 28.95 82.66 29.85 79.74 29.85 79.74 25.09 82.61 25.09z"/><path d="M86.44 25.1a2.34 2.34 0 0 1 0 4.67H84.7V25.1h1.74zm0 3.77a1.44 1.44 0 0 0 0-2.87h-.74v2.87h.74zm-38.32 6.81l-.36.78h-1v-.14l2.15-4.58h.46l2.14 4.58v.14h-1l-.37-.78h-2.02zm.33-.84h1.3l-.65-1.55-.65 1.55z" fill="#00334C" fill-rule="nonzero"/><path fill="#00334C" d="M55.79 34.79L54.11 34.79 54.11 36.46 53.11 36.46 53.11 31.78 56 31.78 56 32.65 54.11 32.65 54.11 33.92 55.79 33.92z"/><path fill="#00334C" d="M60.51 34.79L58.84 34.79 58.84 36.46 57.84 36.46 57.84 31.78 60.71 31.78 60.71 32.65 58.84 32.65 58.84 33.92 60.51 33.92z"/><path fill="#00334C" d="M64.66 35.66L64.66 36.46 62.34 36.46 62.34 35.66 63 35.66 63 32.55 62.39 32.55 62.39 31.78 64.61 31.78 64.61 32.55 64 32.55 64 35.66z"/><path fill="#00334C" d="M67.6 35.56L69.6 35.56 69.6 36.46 66.6 36.46 66.6 31.78 67.6 31.78z"/><path fill="#00334C" d="M73.46 35.66L73.46 36.46 71.14 36.46 71.14 35.66 71.8 35.66 71.8 32.55 71.19 32.55 71.19 31.78 73.41 31.78 73.41 32.55 72.8 32.55 72.8 35.66z"/><path d="M76.37 35.68l-.36.78H75v-.14l2.15-4.58h.46l2.14 4.58v.14h-1l-.36-.78h-2.02zm.33-.84H78l-.64-1.55-.66 1.55z" fill="#00334C" fill-rule="nonzero"/><path fill="#00334C" d="M80.55 32.65L80.55 31.78 84 31.78 84 32.65 82.77 32.65 82.77 36.46 81.77 36.46 81.77 32.65z"/><path fill="#00334C" d="M88.61 32.65L86.75 32.65 86.75 33.65 88.49 33.65 88.49 34.53 86.75 34.53 86.75 35.6 88.66 35.6 88.66 36.51 85.74 36.51 85.74 31.78 88.61 31.78z"/></g></svg>