<svg width="95" height="42" xmlns="http://www.w3.org/2000/svg"><defs><radialGradient cx="50.182%" cy="50.046%" fx="50.182%" fy="50.046%" r="75.315%" id="a"><stop stop-color="#FFFF8B" offset="0%"/><stop stop-color="#F8F684" offset="20%"/><stop stop-color="#E6DC71" offset="54%"/><stop stop-color="#C9B351" offset="97%"/><stop stop-color="#C7B04F" offset="100%"/></radialGradient><radialGradient cx="50.198%" cy="50.177%" fx="50.198%" fy="50.177%" r="50.149%" id="b"><stop stop-color="#FAF285" offset="0%"/><stop stop-color="#F2E97D" offset="21%"/><stop stop-color="#DECF69" offset="56%"/><stop stop-color="#BDA749" offset="99%"/></radialGradient><linearGradient x1="73.343%" y1="16.514%" x2="12.824%" y2="104.383%" id="c"><stop stop-color="#C2272D" offset="0%"/><stop stop-color="#9A2023" offset="100%"/></linearGradient><linearGradient x1="108.608%" y1="3.364%" x2="40.38%" y2="115.902%" id="d"><stop stop-color="#C2272D" offset="0%"/><stop stop-color="#9A2023" offset="100%"/></linearGradient></defs><g fill="none" fill-rule="evenodd"><rect fill="#980000" width="95" height="42" rx="3"/><path d="M44.14 19.45a2.28 2.28 0 0 1-.88.19 3.23 3.23 0 0 1-1.26-.25 2.82 2.82 0 0 1-1-.67 3.27 3.27 0 0 1-.59-1 3.69 3.69 0 0 1-.21-1.25 3.78 3.78 0 0 1 .21-1.28 3.38 3.38 0 0 1 .59-1c.278-.3.62-.532 1-.68a3.06 3.06 0 0 1 1.27-.25c.312.002.622.049.92.14.288.087.557.23.79.42.242.182.444.414.59.68.163.282.262.596.29.92h-1.3a1.29 1.29 0 0 0-.47-.77 1.35 1.35 0 0 0-.83-.26 1.54 1.54 0 0 0-.77.18A1.39 1.39 0 0 0 42 15a2.09 2.09 0 0 0-.29.68 3.33 3.33 0 0 0 0 1.53c.06.235.157.458.29.66.131.195.31.354.52.46.237.126.502.188.77.18a1.47 1.47 0 0 0 1-.34 1.48 1.48 0 0 0 .42-1h-1.35v-1h2.58v3.33h-.86l-.14-.7a1.94 1.94 0 0 1-.8.65z" fill="#FFF"/><path d="M46.89 16.42a1.42 1.42 0 0 1 .21-.71 1.62 1.62 0 0 1 .48-.46 2.36 2.36 0 0 1 .66-.24 3.61 3.61 0 0 1 .73-.07 5.17 5.17 0 0 1 .68 0c.218.035.43.099.63.19.182.087.34.217.46.38.129.192.192.42.18.65v2.31a5.46 5.46 0 0 0 0 .58 1 1 0 0 0 .12.41h-1.2a1.6 1.6 0 0 1-.05-.21.83.83 0 0 1 0-.22 1.65 1.65 0 0 1-.69.42 2.74 2.74 0 0 1-.81.12c-.2 0-.398-.027-.59-.08a1.21 1.21 0 0 1-.48-.24 1.11 1.11 0 0 1-.33-.41 1.51 1.51 0 0 1-.11-.59 1.34 1.34 0 0 1 .13-.63 1.2 1.2 0 0 1 .35-.39 1.76 1.76 0 0 1 .48-.22l.54-.11.54-.07a3 3 0 0 0 .48-.08.73.73 0 0 0 .32-.15.31.31 0 0 0 .11-.29.68.68 0 0 0-.06-.31.42.42 0 0 0-.17-.18.92.92 0 0 0-.25-.09h-.31a.85.85 0 0 0-.56.16.66.66 0 0 0-.24.51l-1.25.02zm2.81.9a.4.4 0 0 1-.19.11l-.25.07H48.69l-.27.07a.71.71 0 0 0-.23.12.55.55 0 0 0-.19.31.62.62 0 0 0-.06.29.57.57 0 0 0 .06.27.55.55 0 0 0 .16.18.85.85 0 0 0 .24.09h.29a1 1 0 0 0 .55-.12.76.76 0 0 0 .3-.29.85.85 0 0 0 .11-.34 1.42 1.42 0 0 0 0-.27l.05-.49z" fill="#FFF" fill-rule="nonzero"/><path d="M53.06 15.06v.6c.15-.22.348-.4.58-.53a1.55 1.55 0 0 1 .78-.19c.265-.005.529.05.77.16.243.12.432.327.53.58.14-.207.32-.384.53-.52a1.45 1.45 0 0 1 .81-.22c.22 0 .437.027.65.08.192.055.369.15.52.28.148.135.26.303.33.49a2 2 0 0 1 .12.74v3h-1.21V17c.01-.14.01-.28 0-.42a.85.85 0 0 0-.09-.34.59.59 0 0 0-.23-.24.9.9 0 0 0-.41-.08.71.71 0 0 0-.41.1.63.63 0 0 0-.25.26 1 1 0 0 0-.12.36 2.69 2.69 0 0 0 0 .4v2.46h-1.27V17v-.39a1.35 1.35 0 0 0-.07-.36.56.56 0 0 0-.22-.26.78.78 0 0 0-.44-.1.79.79 0 0 0-.23 0 .7.7 0 0 0-.27.14.84.84 0 0 0-.23.31 1.32 1.32 0 0 0-.1.53v2.63H51.9v-4.44h1.16z" fill="#FFF"/><path d="M60.88 13.36v2.24a1.25 1.25 0 0 1 .61-.5 2 2 0 0 1 .79-.16 1.65 1.65 0 0 1 .66.13c.222.1.423.243.59.42.19.213.336.46.43.73a3.56 3.56 0 0 1 0 2.11 2.12 2.12 0 0 1-.43.72 1.6 1.6 0 0 1-.59.42 1.66 1.66 0 0 1-.66.14 2.37 2.37 0 0 1-.87-.15 1.13 1.13 0 0 1-.59-.53v.57h-1.16v-6.14h1.22zm2 3.38a1.3 1.3 0 0 0-.19-.45.86.86 0 0 0-.79-.43.85.85 0 0 0-.46.11 1 1 0 0 0-.33.32 1.53 1.53 0 0 0-.19.45 2.35 2.35 0 0 0-.06.54c-.001.178.02.356.06.53.037.163.101.318.19.46a1 1 0 0 0 .33.31.85.85 0 0 0 .46.12.91.91 0 0 0 .79-.43 1.27 1.27 0 0 0 .19-.46 2.26 2.26 0 0 0 .06-.53 2.35 2.35 0 0 0-.09-.54h.03z" fill="#FFF" fill-rule="nonzero"/><path fill="#FFF" d="M66.16 13.36L66.16 19.5 64.94 19.5 64.94 13.36z"/><path d="M68.44 18.43c.216.192.501.29.79.27a1.05 1.05 0 0 0 .64-.19.76.76 0 0 0 .32-.39h1.08a2.1 2.1 0 0 1-.79 1.15 2.34 2.34 0 0 1-1.29.34 2.59 2.59 0 0 1-1-.17 2 2 0 0 1-.71-.47 2.08 2.08 0 0 1-.45-.74 2.63 2.63 0 0 1-.16-.95 2.6 2.6 0 0 1 .16-.93 2.28 2.28 0 0 1 .47-.74 2.1 2.1 0 0 1 .71-.49 2.34 2.34 0 0 1 .93-.18 2.05 2.05 0 0 1 1 .22 1.9 1.9 0 0 1 .7.58c.183.256.316.544.39.85a2.9 2.9 0 0 1 .08 1h-3.2c0 .312.118.611.33.84zm1.38-2.33a.87.87 0 0 0-.67-.24 1.14 1.14 0 0 0-.48.09 1 1 0 0 0-.31.25 1.05 1.05 0 0 0-.17.31 1.1 1.1 0 0 0 0 .29h2a1.38 1.38 0 0 0-.37-.7z" fill="#FFF" fill-rule="nonzero"/><path d="M73.22 15.06v.82a1.83 1.83 0 0 1 .23-.38c.096-.118.21-.22.34-.3a1.47 1.47 0 0 1 .4-.19 1.33 1.33 0 0 1 .45-.07.82.82 0 0 1 .26 0v1.13H74.47a1.35 1.35 0 0 0-.57.11 1 1 0 0 0-.37.31 1.17 1.17 0 0 0-.21.45 2.47 2.47 0 0 0-.06.56v2h-1.2v-4.44h1.16zm3.29 3.33a.61.61 0 0 0 .21.24.86.86 0 0 0 .29.13c.116.015.234.015.35 0 .09.01.18.01.27 0a1 1 0 0 0 .26-.09.52.52 0 0 0 .19-.17.43.43 0 0 0 .08-.27c0-.187-.12-.327-.36-.42a7.94 7.94 0 0 0-1-.27l-.52-.14a1.88 1.88 0 0 1-.45-.22 1.12 1.12 0 0 1-.32-.33 1 1 0 0 1-.12-.5 1.34 1.34 0 0 1 .17-.7 1.24 1.24 0 0 1 .44-.44 2 2 0 0 1 .6-.21 4 4 0 0 1 .7-.06 3.2 3.2 0 0 1 .7.06c.216.037.423.115.61.23.39.236.635.654.65 1.11H78.1a.53.53 0 0 0-.26-.47 1.17 1.17 0 0 0-.57-.13h-.23a.46.46 0 0 0-.21.05.37.37 0 0 0-.17.13.28.28 0 0 0-.07.21.34.34 0 0 0 .12.27.83.83 0 0 0 .31.17c.148.046.298.083.45.11l.5.12.52.14c.16.056.31.134.45.23.132.091.24.21.32.35.084.16.125.34.12.52a1.53 1.53 0 0 1-.17.74 1.59 1.59 0 0 1-.46.47 2 2 0 0 1-.65.26c-.495.1-1.005.1-1.5 0a1.76 1.76 0 0 1-.66-.26 1.41 1.41 0 0 1-.47-.47 1.54 1.54 0 0 1-.2-.75h1.16a.59.59 0 0 0 .08.36z" fill="#FFF"/><path d="M43.57 22l2.29 6.13h-1.4L44 26.75h-2.29l-.49 1.36h-1.35L42.19 22h1.38zm.08 3.76l-.78-2.25-.8 2.25h1.58z" fill="#FFF" fill-rule="nonzero"/><path d="M47.49 23.67v.62a1.4 1.4 0 0 1 .6-.56 1.73 1.73 0 0 1 .76-.18 2.23 2.23 0 0 1 .8.13c.195.08.366.207.5.37.125.173.21.37.25.58.05.247.074.498.07.75v2.73h-1.2V25.6a1.52 1.52 0 0 0-.17-.82.66.66 0 0 0-.61-.27.84.84 0 0 0-.72.3 1.63 1.63 0 0 0-.22 1v2.33h-1.22v-4.47h1.16z" fill="#FFF"/><path d="M51.42 24.93a2.06 2.06 0 0 1 .46-.74 2.09 2.09 0 0 1 .72-.47 2.63 2.63 0 0 1 .95-.17 2.59 2.59 0 0 1 1 .17c.272.107.52.267.73.47.204.211.361.463.46.74a3 3 0 0 1 0 1.93 2.11 2.11 0 0 1-.46.73 2.08 2.08 0 0 1-.73.47 2.59 2.59 0 0 1-1 .16 2.63 2.63 0 0 1-.95-.16 2 2 0 0 1-.72-.47 2.11 2.11 0 0 1-.46-.73 3 3 0 0 1 0-1.93zm1.11 1.49c.03.159.087.311.17.45a1 1 0 0 0 .33.32 1.19 1.19 0 0 0 1 0 .85.85 0 0 0 .33-.32c.09-.136.152-.29.18-.45a2.29 2.29 0 0 0 .05-.52 2.32 2.32 0 0 0-.05-.53 1.12 1.12 0 0 0-.18-.45 1 1 0 0 0-.33-.33 1.19 1.19 0 0 0-1 0c-.13.089-.241.2-.33.33a1.28 1.28 0 0 0-.17.45 2.32 2.32 0 0 0-.05.53c-.003.175.014.35.05.52z" fill="#FFF" fill-rule="nonzero"/><path d="M57.79 23.67v.62a1.34 1.34 0 0 1 .6-.56 1.73 1.73 0 0 1 .76-.18 2.27 2.27 0 0 1 .8.13c.193.083.364.21.5.37.125.173.21.37.25.58.05.247.074.498.07.75v2.73h-1.2V25.6a1.62 1.62 0 0 0-.17-.82.67.67 0 0 0-.61-.27.84.84 0 0 0-.72.3c-.182.3-.263.65-.23 1v2.33h-1.21v-4.47h1.16zm5.45 5.77a1.78 1.78 0 0 1-1 .23h-.38a2.31 2.31 0 0 1-.37 0v-1h.35c.12.015.24.015.36 0a.46.46 0 0 0 .36-.19.66.66 0 0 0 .11-.36.62.62 0 0 0-.05-.27l-1.52-4.18h1.29l1 3 1-3h1.26l-1.86 5a1.51 1.51 0 0 1-.55.77zm4.05-5.77v.6a1.82 1.82 0 0 1 .58-.53 1.55 1.55 0 0 1 .78-.19c.265 0 .527.054.77.16.243.12.432.327.53.58a1.8 1.8 0 0 1 .54-.52 1.39 1.39 0 0 1 .8-.22c.22-.002.439.029.65.09.19.051.368.143.52.27.148.138.26.31.33.5a2 2 0 0 1 .12.73v3H71.7V25.6v-.43a1.13 1.13 0 0 0-.1-.34.57.57 0 0 0-.23-.23.76.76 0 0 0-.4-.09.81.81 0 0 0-.42.1.69.69 0 0 0-.25.26 1.09 1.09 0 0 0-.12.36 2.73 2.73 0 0 0 0 .41v2.47h-1.26v-2.49-.39a1.35 1.35 0 0 0-.07-.36.62.62 0 0 0-.22-.26.84.84 0 0 0-.44-.1 1.39 1.39 0 0 0-.23 0 .91.91 0 0 0-.27.15.76.76 0 0 0-.23.31 1.28 1.28 0 0 0-.09.52v2.58h-1.23v-4.4h1.15z" fill="#FFF"/><path d="M73.87 24.93a2.06 2.06 0 0 1 .46-.74 2.09 2.09 0 0 1 .72-.47 2.59 2.59 0 0 1 1-.17 2.63 2.63 0 0 1 1 .17 2.05 2.05 0 0 1 1.19 1.21 3 3 0 0 1 0 1.93 2.13 2.13 0 0 1-.47.73 2 2 0 0 1-.72.47 2.63 2.63 0 0 1-1 .16 2.59 2.59 0 0 1-1-.16 2 2 0 0 1-.72-.47 2.11 2.11 0 0 1-.46-.73 2.82 2.82 0 0 1 0-1.93zM75 26.42c.03.159.087.311.17.45a.85.85 0 0 0 .33.32 1 1 0 0 0 .52.12c.18.005.36-.036.52-.12a.85.85 0 0 0 .33-.32 1.37 1.37 0 0 0 .18-.45 2.78 2.78 0 0 0 0-1.05 1.29 1.29 0 0 0-.18-.45 1 1 0 0 0-.33-.33 1.05 1.05 0 0 0-.52-.12 1 1 0 0 0-.52.12 1 1 0 0 0-.33.33 1.28 1.28 0 0 0-.17.45 2.33 2.33 0 0 0 0 1.05z" fill="#FFF" fill-rule="nonzero"/><path d="M82.07 28.11v-.62a1.29 1.29 0 0 1-.6.56 1.72 1.72 0 0 1-.76.17 2.29 2.29 0 0 1-.8-.12 1.16 1.16 0 0 1-.49-.37 1.47 1.47 0 0 1-.26-.58 3.42 3.42 0 0 1-.07-.75v-2.73h1.22v2.51a1.59 1.59 0 0 0 .17.82.67.67 0 0 0 .61.27.84.84 0 0 0 .72-.3A1.61 1.61 0 0 0 82 26v-2.33h1.22v4.44h-1.15zM85.2 27a.8.8 0 0 0 .22.23.7.7 0 0 0 .29.13c.114.032.232.049.35.05.09.01.18.01.27 0a1 1 0 0 0 .26-.1.52.52 0 0 0 .19-.17.46.46 0 0 0 .08-.27c0-.18-.12-.32-.37-.41a7.1 7.1 0 0 0-1-.28A4 4 0 0 1 85 26a2.15 2.15 0 0 1-.46-.21 1 1 0 0 1-.31-.34.94.94 0 0 1-.12-.49 1.38 1.38 0 0 1 .16-.71 1.24 1.24 0 0 1 .45-.43 1.76 1.76 0 0 1 .62-.22 3.2 3.2 0 0 1 .7-.07c.235-.002.47.021.7.07.215.042.421.12.61.23.177.112.328.263.44.44.137.219.21.472.21.73h-1.2a.54.54 0 0 0-.27-.48 1.25 1.25 0 0 0-.56-.12h-.23a.79.79 0 0 0-.22.06.48.48 0 0 0-.17.12.36.36 0 0 0-.06.22.34.34 0 0 0 .12.27 1 1 0 0 0 .31.16 4 4 0 0 0 .44.12l.51.11c.176.04.35.09.52.15.16.049.313.123.45.22.13.098.238.22.32.36a1 1 0 0 1 .12.52 1.39 1.39 0 0 1-.18.73 1.32 1.32 0 0 1-.46.48c-.2.123-.42.208-.65.25a4 4 0 0 1-1.49 0 1.94 1.94 0 0 1-.66-.26 1.44 1.44 0 0 1-.47-.48 1.5 1.5 0 0 1-.21-.74h1.16a.74.74 0 0 0 .08.31z" fill="#FFF"/><path d="M89.63 21.8a1.47 1.47 0 0 1 .33-.47 1.59 1.59 0 0 1 .49-.29 1.53 1.53 0 0 1 1.14 0c.175.069.338.167.48.29.451.431.583 1.1.33 1.67a1.29 1.29 0 0 1-.33.46 1.5 1.5 0 0 1-.48.3 1.67 1.67 0 0 1-1.14 0 1.44 1.44 0 0 1-.82-.76 1.59 1.59 0 0 1 0-1.21v.01zm.37 1.06a.93.93 0 0 0 .23.37.92.92 0 0 0 .35.24c.139.06.289.091.44.09.148 0 .294-.03.43-.09a.92.92 0 0 0 .35-.24 1.08 1.08 0 0 0 .24-.37 1.17 1.17 0 0 0-.24-1.28.92.92 0 0 0-.35-.24 1.07 1.07 0 0 0-.43-.09 1.08 1.08 0 0 0-.44.09.92.92 0 0 0-.35.24 1 1 0 0 0-.23.36 1.22 1.22 0 0 0 0 .92zm1-1.28a.81.81 0 0 1 .48.11.4.4 0 0 1 .17.37.42.42 0 0 1 0 .2.38.38 0 0 1-.09.13.47.47 0 0 1-.14.08.43.43 0 0 1-.17 0l.45.72h-.35l-.4-.7h-.2v.7h-.33v-1.61H91zm0 .68a.53.53 0 0 0 .23 0c.06 0 .09-.09.09-.18a.16.16 0 0 0 0-.11.16.16 0 0 0-.08-.06.2.2 0 0 0-.11 0h-.39v.43l.26-.08z" fill="#FFF" fill-rule="nonzero"/><circle stroke="#000" stroke-width=".35" fill="url(#a)" cx="19.54" cy="21" r="15.25"/><circle stroke="#000" stroke-width=".35" fill="url(#b)" cx="19.54" cy="21" r="14.07"/><path d="M7.24 17.15a.43.43 0 0 0 0-.13.08.08 0 0 1 .07 0h.35a.09.09 0 0 1 .06.07h-.09a1 1 0 0 0-.22.06.58.58 0 0 0-.29.38c-.1.37.19.69.6.79a1 1 0 0 0 .51 0 .61.61 0 0 0 .52-.32.27.27 0 0 0 0-.15s-.08-.08-.2-.11h-.22c-.06 0-.12 0-.18.16a.09.09 0 0 1-.08.07.11.11 0 0 1 0-.11c0-.12.08-.25.09-.32.01-.07 0-.24.08-.34.08-.1 0-.07.06-.06.06.01 0 0 0 .07s0 .1.08.12l.32.1h.1v.31a3.27 3.27 0 0 1-.05.41 1.09 1.09 0 0 1-.42.66.82.82 0 0 1-.73.1.83.83 0 0 1-.56-.46 1.22 1.22 0 0 1 0-.79 1.63 1.63 0 0 1 .2-.51z" fill="#000"/><path d="M7.85 15.59h.31c.46 0 1 .08 1.14.08.14 0 .29 0 .35-.1s.06-.05.08 0c.02.05 0 0 0 .1a3.36 3.36 0 0 0-.16.33 2.93 2.93 0 0 0-.12.28s-.06.07-.08.06c-.02-.01 0 0 0-.08v-.15a2.29 2.29 0 0 0-.45-.11h-.06a4.32 4.32 0 0 0-.19.43c.081.1.18.185.29.25.06 0 .1 0 .16-.07s.06-.06.09 0 0 0 0 .1a1.78 1.78 0 0 0-.1.2l-.1.24c0 .07 0 .07-.07.07s0 0 0-.09 0-.2-.12-.33-.68-.64-.82-.8a1.08 1.08 0 0 0-.1-.24.15.15 0 0 1 0-.06s-.11-.11-.05-.11zm.86.42h-.57s.34.35.39.38l.19-.39h-.01v.01z" fill="#000" fill-rule="nonzero"/><path d="M8.43 14.37c.1-.13.15-.18.29-.38.093.015.187.018.28.01.29.05.82.14.92.14-.08-.15-.31-.57-.46-.81a1.91 1.91 0 0 0-.14-.21v-.05c.13-.19.25-.38.26-.4.01-.02.05-.06.08 0s0 0 0 .1a.5.5 0 0 0 0 .13c0 .06 0 .1.15.18.15.08.79.54.94.62.15.08.12.05.23 0 .11-.05.08 0 .09 0 .01 0 0 .06 0 .09l-.25.33s-.12.19-.16.23c-.04.04-.05.07-.08.05-.03-.02 0-.06 0-.1 0-.04 0-.17-.12-.25-.12-.08-.64-.48-.75-.56-.11-.08 0 0 0 0 .13.24.37.65.46.79.09.14.18.29.23.37.05.08 0 .11 0 .12h-.09l-.31-.15c-.36-.09-1-.21-1-.21.17.14.46.38.72.56.26.18.18.1.3 0s.08-.05.1 0c.02.05 0 0 0 .09l-.15.19c0 .05-.1.17-.14.22-.04.05-.05.07-.08 0s0 0 0-.1 0-.2-.12-.34-.61-.54-.82-.7c0 0-.12-.08-.2 0l-.08.07h-.08c-.02 0-.05.02-.02-.03z" fill="#000"/><path d="M11.37 12a.47.47 0 0 1 .55.1.5.5 0 0 1 .11.45 1.19 1.19 0 0 1-.28.43 4.58 4.58 0 0 1-.38.36l-.16.16s-.08.05-.09 0c-.01-.05 0-.07 0-.09 0-.02.07-.17 0-.25-.07-.08-.21-.25-.58-.64l-.3-.27H9.95c-.02 0 0-.06 0-.08l.13-.13.4-.42a.87.87 0 0 1 .35-.22.36.36 0 0 1 .37.11.39.39 0 0 1 .17.49zm-.81-.13a.21.21 0 0 0 0 .07v.05l.39.41H11a.54.54 0 0 0 .16-.24.29.29 0 0 0-.08-.27.33.33 0 0 0-.52-.01v-.01zm.71.44a.39.39 0 0 0-.19.1v.07l.09.13.32.31.09.05a.27.27 0 0 0 .18-.05.37.37 0 0 0-.06-.49.38.38 0 0 0-.43-.11v-.01z" fill="#000" fill-rule="nonzero"/><path d="M11.4 11l.25-.18c.09-.06.24-.19.29-.23.05-.04.08 0 .09 0 .01 0 0 .06 0 .08 0 .02-.09.16-.07.19.02.03.23.35.47.67.11.15.23.31.3.39.07.08.14 0 .15 0l.18-.11a1 1 0 0 0 .15-.14.11.11 0 0 0 0-.06c.014-.1.014-.2 0-.3a.1.1 0 0 1 0-.08h.06c.036.113.079.223.13.33v.07c0 .01-.24.16-.69.49l-.34.27h-.08c-.01 0 0-.06 0-.09s.09-.16 0-.27c-.09-.11-.16-.24-.4-.56-.24-.32-.24-.33-.3-.4s-.1-.11-.22-.06-.08 0-.09 0c-.01 0 .08-.01.12-.01zm2.32-1.5a1 1 0 0 0 .2-.13h.05l.15.27v.09a.1.1 0 0 1-.09 0c-.1-.13-.2-.13-.25-.11a1.7 1.7 0 0 0-.34.16v.09l.27.52.2-.11c.15-.08.13-.09.13-.21v-.1c0-.01.05 0 .06.06l.08.17.1.16v.1c0 .02-.06 0-.08 0-.02 0-.14-.09-.21-.06l-.25.12a.14.14 0 0 0 0 .06l.17.31a2 2 0 0 0 .11.2.12.12 0 0 0 .09 0l.19-.09a.7.7 0 0 0 .21-.14.58.58 0 0 0 .09-.28v-.14c0-.01.05.05.06.06.028.115.048.232.06.35 0 0 0 .06-.05.07l-.82.43a2.71 2.71 0 0 0-.27.16h-.1c-.01 0 0-.06 0-.09s.12-.14.06-.27-.11-.25-.27-.55a4 4 0 0 0-.27-.49.15.15 0 0 0-.21-.09h-.1c-.01 0 0-.06.06-.07l.48-.25.49-.2z" fill="#000"/><path d="M15.84 9.44l-.09.11a4.5 4.5 0 0 0 .61.49.41.41 0 0 0 .25 0h.06v.06a1 1 0 0 1-.17.09.49.49 0 0 1-.48 0c-.1-.07-.31-.24-.49-.4l-.11-.07h-.11l.19.51c.06.11.08.12.2.11.12-.01.08 0 .09 0 .01 0 0 .06-.07.07l-.34.11-.27.11h-.1c-.01 0 0 0 0-.06s.11-.13.09-.21c-.07-.26-.15-.45-.24-.7l-.18-.48c0-.05-.07-.1-.2-.08-.13.02-.08 0-.09 0a.1.1 0 0 1 .07-.07l.21-.08.46-.18a.75.75 0 0 1 .51 0 .4.4 0 0 1 .24.25.41.41 0 0 1-.04.42zM15.33 9a.29.29 0 0 0-.22 0H15v.07c0 .02.17.52.21.6.04.08 0 0 0 0a.73.73 0 0 0 .24-.14.36.36 0 0 0 0-.33.39.39 0 0 0-.12-.2z" fill="#000" fill-rule="nonzero"/><path d="M17.37 8.29l.05.05.08.26v.07a.09.09 0 0 1-.09 0 .52.52 0 0 0-.15-.17.32.32 0 0 0-.25 0 .27.27 0 0 0-.2.32c0 .14.15.21.43.31.44.15.5.33.52.46a.51.51 0 0 1-.16.46.93.93 0 0 1-.78.17.17.17 0 0 1-.1-.06 1.25 1.25 0 0 1-.11-.29V9.8a.38.38 0 0 1 .14.12.44.44 0 0 0 .44.19.27.27 0 0 0 .21-.3c0-.11-.11-.2-.37-.31-.26-.11-.51-.25-.56-.49a.49.49 0 0 1 .1-.4.62.62 0 0 1 .43-.29 1.55 1.55 0 0 1 .37-.03z" fill="#000"/><path d="M19.15 8.13c0 .06.09.21.12.29.17.43.37.9.43 1.05.06.15.17.25.25.27.08.02.08 0 .08 0l-.09.05H19.26a.1.1 0 0 1-.09 0l.07-.06c.07-.06.11-.07.11-.11a1.81 1.81 0 0 0-.13-.36h-.47a1.29 1.29 0 0 0-.09.36c0 .07 0 .1.13.12.13.02.08 0 .08.06s0 0-.08 0h-.57l.07-.06c.07-.06.16-.1.23-.26s.33-.91.43-1.17a1.4 1.4 0 0 0 .16-.2h.05s-.03-.03-.01.02zm0 1c0-.12-.16-.42-.21-.53-.05-.11 0 0 0 0s-.16.47-.17.53c-.01.06 0 0 0 0h.38s.01-.03 0-.04v.04z" fill="#000" fill-rule="nonzero"/><path d="M20.41 8.1l.45.08h.05c0 .06.11.15.2.3.09.15.55.76.66.91.11.15 0 0 0 0s.06-.39.08-.54c.02-.15 0-.24 0-.31s0-.11-.14-.16-.1-.05-.09-.08c.01-.03 0 0 .08 0h.51s.06 0 .06.05 0 0-.08 0-.17.1-.19.19c-.02.09-.15.86-.17 1-.02.14 0 .38 0 .46a.11.11 0 0 1-.06 0c-.06 0-.12-.09-.14-.13l-.15-.25c-.22-.35-.58-.85-.79-1.17 0 0 0 .13-.06.35a4.55 4.55 0 0 0-.09.71c0 .07 0 .12.15.18s.08 0 .07.07c-.01.07 0 0-.09 0h-.52s-.06 0-.06-.05 0 0 .07 0 .2 0 .24-.24c.04-.24.16-.81.18-1 .02-.19 0-.15 0-.16a.24.24 0 0 0-.18-.16s-.07 0-.07-.06.04.01.08.01z" fill="#000"/><path d="M24.19 9.84a.89.89 0 0 1-.54.59 1.08 1.08 0 0 1-.67 0 1 1 0 0 1-.59-.5.88.88 0 0 1 0-.68.83.83 0 0 1 .55-.56 1.1 1.1 0 0 1 .63 0 .91.91 0 0 1 .62 1.15zm-1.05-1a.84.84 0 0 0-.36.52c-.13.41-.05.91.32 1a.36.36 0 0 0 .26 0 1 1 0 0 0 .39-.56 1.06 1.06 0 0 0 0-.76.49.49 0 0 0-.28-.25.4.4 0 0 0-.33.03v.02z" fill="#000" fill-rule="nonzero"/><path d="M24.84 9.21l.39.22a.13.13 0 0 1 0 .07c0 .06.05.17.09.34.04.17.25.91.3 1.08.1-.154.19-.315.27-.48l.13-.27c0-.06 0-.12-.08-.21s-.08-.07-.06-.1c.02-.03 0 0 .09 0l.15.08.31.15s.05.05 0 .07a.11.11 0 0 1-.09 0 .21.21 0 0 0-.25.11l-.49.86c-.05.1-.16.34-.2.41-.04.07-.06 0-.07 0-.01 0-.08-.13-.09-.18-.01-.05 0-.17-.05-.28-.08-.41-.25-1-.33-1.37l-.18.3a4.35 4.35 0 0 0-.32.64c0 .06 0 .12.07.22s.06.07.05.09c-.01.02-.06 0-.1 0l-.19-.11-.19-.11s-.06-.05-.05-.07c.01-.02.06 0 .09 0s.2 0 .3-.15c.1-.15.43-.69.52-.86.09-.17.07-.13.07-.15a.27.27 0 0 0-.12-.21s-.05-.06 0-.08c.05-.02-.01-.03.03-.01zm2.03 1.15l.29.25.23.17s.05.06 0 .08a.09.09 0 0 1-.09 0c-.08 0-.12 0-.14.06-.02.06-.06.37-.09.6.06 0 .38-.14.52-.21.14-.07.13-.08 0-.19s0-.08 0-.1c0-.02.05 0 .06 0l.15.13.27.19s.05.05 0 .07c-.05.02-.06 0-.11 0a.47.47 0 0 0-.33 0 5 5 0 0 0-.62.2.28.28 0 0 0-.11.09c-.09.12-.26.35-.31.43-.05.08 0 .1 0 .22a.08.08 0 0 1 0 .09h-.09l-.26-.22c-.15-.12-.3-.21-.33-.24-.03-.03-.05-.05 0-.07a.13.13 0 0 1 .11 0c.14.06.18.05.21 0s.28-.35.32-.41a.56.56 0 0 0 .07-.13 5.06 5.06 0 0 0 .08-.62v-.35-.1c0-.02.13.03.17.06zm1.69 1.36l.31.38v.05a1.31 1.31 0 0 0-.12.24c-.11.27-.33.76-.35.86.16 0 .62-.16.9-.25a1.36 1.36 0 0 0 .23-.09h.06c.15.18.31.33.32.35.01.02.05.07 0 .08-.05.01-.05 0-.09 0l-.12-.06s-.1 0-.21.1c-.11.1-.71.63-.82.76-.11.13-.08.11 0 .24a.11.11 0 0 1 0 .1h-.09l-.26-.32-.19-.21s-.05-.07 0-.09a.13.13 0 0 1 .1 0c.09.07.17 0 .27-.05s.62-.52.72-.61c.1-.09 0 0 0 0l-.88.26-.4.13h-.12v-.09a2.82 2.82 0 0 0 .18-.3c.17-.34.43-.89.44-.93.01-.04 0 0 0 0-.18.12-.48.36-.72.56-.24.2-.13.16-.07.29.06.13 0 .09 0 .11 0 .02 0 0-.08 0l-.22-.23-.18-.19s-.06-.07 0-.09c.06-.02.05 0 .1 0s.18.08.36 0 .67-.46.87-.63c0 0 .1-.1.06-.18l-.05-.11v-.08c0-.02.01-.04.05 0z" fill="#000"/><path d="M30.41 15.72a.88.88 0 0 1-.79.09 1.07 1.07 0 0 1-.51-.44 1 1 0 0 1-.12-.76.88.88 0 0 1 .43-.53.84.84 0 0 1 .78-.08c.199.088.366.235.48.42a.9.9 0 0 1-.27 1.3zm-.11-1.46a.84.84 0 0 0-.61.15c-.37.22-.64.65-.45 1a.35.35 0 0 0 .22.16 1 1 0 0 0 .66-.16 1.08 1.08 0 0 0 .48-.59.52.52 0 0 0 0-.37.39.39 0 0 0-.3-.19z" fill="#000" fill-rule="nonzero"/><path d="M31.32 15.68c0 .11.07.23.1.32s.12.26.14.32c.02.06 0 .08 0 .09 0 .01-.05 0-.08-.06s-.1-.1-.2-.08l-.69.25c-.31.11-.36.2-.42.32a.56.56 0 0 0 0 .32.41.41 0 0 0 .49.32 4.63 4.63 0 0 0 .76-.23 1.6 1.6 0 0 0 .2-.09.21.21 0 0 0 .07-.23v-.09c0-.01 0 0 .06.06s.05.17.08.25c.03.08.08.17.1.24.02.07 0 .07 0 .08a.11.11 0 0 1-.08-.06c-.08-.12-.14-.13-.3-.07l-.59.19a.77.77 0 0 1-.82-.08.68.68 0 0 1-.2-.31.79.79 0 0 1 0-.56c.08-.19.2-.3.6-.45l.63-.25c.05 0 .09-.06.07-.17-.02-.11 0-.09 0-.09s.06.01.08.06zm.91 3.06v.05l-.26.08h-.07a.09.09 0 0 1 0-.1.43.43 0 0 0 .17-.15.29.29 0 0 0 0-.24.26.26 0 0 0-.31-.2c-.15 0-.21.15-.31.43-.15.44-.33.5-.46.53a.49.49 0 0 1-.45-.16.8.8 0 0 1-.18-.37 1 1 0 0 1 0-.41l.06-.1a1.72 1.72 0 0 1 .29-.11h.07s0 .08-.12.15a.44.44 0 0 0-.18.43.26.26 0 0 0 .3.21c.11 0 .2-.1.3-.36.1-.26.25-.51.49-.57a.49.49 0 0 1 .4.1.63.63 0 0 1 .23.41c.02.14.02.29.03.38zM9.87 27.57c.1-.09.13-.11.09-.21-.04-.1 0-.06 0-.07 0-.01 0 0 .05 0s.1.16.14.22l.16.21v.06c0 .01 0 0-.05 0s-.09-.07-.19 0a3.87 3.87 0 0 0-.35.23c-.29.2-.42.3-.48.35-.06.05-.11.12-.07.23.04.11 0 .05 0 .06 0 .01 0 0-.05 0L9 28.37l-.17-.22v-.06c0-.06 0 0 .06 0s.11.07.22 0l.44-.31.32-.21zm.13.76l.21.13-.09.06a.48.48 0 0 1 .29.15.24.24 0 0 1 .06.21.43.43 0 0 1-.17.24l-.31.27a.1.1 0 0 0 0 .13h-.06l-.13-.17a.68.68 0 0 0-.11-.12v-.07a.08.08 0 0 1 .05 0s.07 0 .19-.07l.19-.15c.11-.1.16-.15.17-.21a.17.17 0 0 0 0-.13.19.19 0 0 0-.14-.08c-.16.14-.34.28-.42.36-.08.08-.06.06 0 .13s0 0 0 .05l-.3-.06-.14-.15v-.06c0-.01 0 0 .05 0h.13l.41-.32s.05-.06.05-.13c0 0 .07-.02.07-.01zm1.16 1.26l-.05.08-.17-.19-.35.35a.14.14 0 0 0-.06.11.19.19 0 0 0 0 .1.33.33 0 0 0 .1.06h-.1a.33.33 0 0 1-.22-.11.26.26 0 0 1-.08-.22.24.24 0 0 1 .09-.16l.37-.35v-.06a.06.06 0 0 1 .06 0c.096.01.194.01.29 0h.06v.05c0 .05-.08.08-.08.09 0 .01 0 0 0 0l.14.25z" fill="#000"/><path d="M11.65 30.38h-.06l-.35-.32-.06.06a.33.33 0 0 0 0 .48.25.25 0 0 0 .23.08h-.05a.44.44 0 0 1-.42-.09.43.43 0 0 1 0-.62.48.48 0 0 1 .51-.15.33.33 0 0 1 .16.09.28.28 0 0 1 .04.47zm-.37-.38l.16.14h.12a.14.14 0 0 0 0-.19.26.26 0 0 0-.28.05z" fill="#000" fill-rule="nonzero"/><path d="M12 30.36a1 1 0 0 0 .24.07h.05a1.27 1.27 0 0 1-.1.12c.1-.04.21-.04.31 0a.11.11 0 0 1 0 .15.16.16 0 0 1-.19.05.22.22 0 0 0-.07-.12h-.08a.16.16 0 0 0-.06.05 3.75 3.75 0 0 0-.27.36c-.05.08-.05.12 0 .21h-.06l-.21-.18-.16-.07v-.05h.06c.07 0 .11 0 .18-.09l.25-.32c.05-.06.05-.07 0-.17l.11-.01zm.64.51l.25.07-.07.09a.51.51 0 0 1 .32.05.24.24 0 0 1 .12.19c0 .07 0 .16-.09.28L13 32a.1.1 0 0 0 0 .13h-.07L12.8 32l-.14-.08v-.06h.06c.05 0 .07 0 .16-.12l.13-.2c.08-.13.11-.2.1-.26a.17.17 0 0 0-.07-.11.34.34 0 0 0-.15 0 5.14 5.14 0 0 0-.29.47v.18c0 .05 0 0-.06 0l-.17-.12-.17-.1v-.05h.18l.29-.44a.16.16 0 0 0 0-.14l-.03-.1z" fill="#000"/><path d="M14.16 31.78a.33.33 0 0 1-.05.26l-.16.3v.15H14a.24.24 0 0 1-.27 0 .17.17 0 0 1-.1-.19h-.29a.21.21 0 0 1-.07-.28.19.19 0 0 1 .19-.09l.33.06s.07-.12.09-.17c.02-.05.05-.17 0-.22-.05-.05-.1 0-.16.09h-.22s.14-.1.32-.12a.53.53 0 0 1 .2 0 .29.29 0 0 1 .14.21zm-.5.55a.83.83 0 0 0 .14-.22c-.08 0-.21-.06-.27 0a.13.13 0 0 0 .05.18s.05.06.08.04z" fill="#000" fill-rule="nonzero"/><path d="M15 32.12v.1l-.23-.11-.19.45a.2.2 0 0 0 0 .13.2.2 0 0 0 .08.08h.14a.1.1 0 0 1-.08 0 .34.34 0 0 1-.24 0 .28.28 0 0 1-.17-.17.29.29 0 0 1 0-.18c.07-.16.15-.33.22-.47h-.05.05l.28-.07h.06v.05a1 1 0 0 0-.05.11l.18.08z" fill="#000"/><path d="M15.22 32.25h.28s-.12.3-.17.43l-.1.28c0 .06 0 .09.06.13.06.04 0 0 0 0h-.06l-.21-.09h-.15H15.02c.04-.08.074-.164.1-.25.07-.18.09-.26.1-.29.01-.03 0 0 0-.11 0 0-.05-.11 0-.1zm.41-.27a.13.13 0 0 1-.16.07.12.12 0 0 1-.07-.16.14.14 0 0 1 .17-.08.13.13 0 0 1 .06.19v-.02zm.93 1.11a.5.5 0 0 1-.61.33.49.49 0 0 1-.35-.61.42.42 0 0 1 .25-.28.49.49 0 0 1 .37 0 .48.48 0 0 1 .34.56zm-.56-.51a.47.47 0 0 0-.16.28c-.08.27 0 .47.11.51a.16.16 0 0 0 .13 0 .69.69 0 0 0 .16-.29c0-.13.08-.46-.1-.51a.14.14 0 0 0-.14.01z" fill="#000" fill-rule="nonzero"/><path d="M16.85 32.74h.25v.1a.51.51 0 0 1 .32-.07.26.26 0 0 1 .18.13.44.44 0 0 1 0 .29c0 .12-.06.37-.07.41a.11.11 0 0 0 .07.11h-.06l-.21-.05h-.17s-.05 0 0 0h.05c.05 0 .07 0 .1-.18s0-.15.05-.23a.42.42 0 0 0 0-.28.23.23 0 0 0-.11-.07.21.21 0 0 0-.16 0c0 .21-.08.43-.09.55-.01.12 0 .08.06.12.06.04 0 0 0 0h-.45-.05.05c.05 0 .08 0 .1-.09.02-.09.07-.28.11-.51a.14.14 0 0 0 0-.13l.03-.1z" fill="#000"/><path d="M18.6 33a.29.29 0 0 1 0 .26v.34c0 .06 0 .12.07.13h.07a.24.24 0 0 1-.25.11.18.18 0 0 1-.16-.14.41.41 0 0 1-.27.09.18.18 0 0 1-.16-.23.16.16 0 0 1 .13-.15l.34-.07a1 1 0 0 0 0-.2s0-.17-.13-.18c-.13-.01-.1 0-.11.14-.01.14 0 0 0 0l-.17.06c0-.07.1-.15.25-.23a.41.41 0 0 1 .2 0 .23.23 0 0 1 .19.07zm-.25.69a.92.92 0 0 0 0-.25c-.09 0-.23 0-.24.14a.14.14 0 0 0 .11.15.11.11 0 0 0 .13-.03v-.01z" fill="#000" fill-rule="nonzero"/><path d="M19.08 32.52s0-.05-.06-.1a3 3 0 0 1 .32-.08v1.42c0 .09 0 .09.1.12H19h-.05c.09 0 .11 0 .12-.16.01-.16 0-.35 0-.56 0-.21.02-.53.01-.64zm1.63-.16v.23h-.05a.31.31 0 0 0-.33-.21.23.23 0 0 0-.2.25c0 .14.1.22.33.34.23.12.36.33.37.45a.38.38 0 0 1-.16.34.68.68 0 0 1-.32.11 1.08 1.08 0 0 1-.37 0c0-.08-.05-.18-.05-.25l.12.17a.32.32 0 0 0 .31.15.27.27 0 0 0 .23-.27c0-.1-.08-.2-.28-.31-.2-.11-.31-.36-.31-.55a.36.36 0 0 1 .1-.3.55.55 0 0 1 .36-.15h.25z" fill="#000"/><path d="M21.88 33a.05.05 0 0 1-.05 0l-.46.07a.31.31 0 0 0 0 .09.34.34 0 0 0 .37.3.23.23 0 0 0 .2-.13.11.11 0 0 1 0 .06.46.46 0 0 1-.33.26.43.43 0 0 1-.48-.4.5.5 0 0 1 .2-.49.37.37 0 0 1 .18-.08.31.31 0 0 1 .37.32zm-.54 0h.21c.06 0 .1 0 .09-.09a.16.16 0 0 0-.15-.13.25.25 0 0 0-.15.29V33z" fill="#000" fill-rule="nonzero"/><path d="M22 32.78a1 1 0 0 0 .21-.13h.05v.17c0 .04 0 0 0 0s.11-.2.21-.23a.12.12 0 0 1 .15.06.16.16 0 0 1-.08.18h-.05a.18.18 0 0 0-.14 0l-.06.05a.2.2 0 0 0 0 .07c0 .11.08.32.12.45.04.13.06.1.18.1h-.27l-.2.06h-.06c.08 0 .08-.08.06-.2a3.85 3.85 0 0 1-.1-.4c0-.07 0-.08-.11-.12-.11-.04 0 0 0 0a.09.09 0 0 1 .09-.06zm.8-.24l.22-.06.2-.07v.06c0 .06-.06.06 0 .09l.3.37v-.44c0-.07 0-.09-.1-.09h-.05c-.05 0 0 0 0 0h.1l.17-.07h.05s-.07.05-.09.14c-.02.09 0 .31 0 .44v.42h-.05l-.15-.18c-.1-.13-.29-.35-.39-.45a.18.18 0 0 0-.12 0h-.06s-.06-.15-.03-.16z" fill="#000"/><path d="M24 31.76a.13.13 0 0 1-.07.16.12.12 0 0 1-.16-.07.14.14 0 0 1 .07-.17.12.12 0 0 1 .16.08zm-.13.47l.22-.18.16.43c.035.092.075.182.12.27 0 .06.06.07.13.06l-.22.08-.17.08a.06.06 0 0 1-.06 0s.06-.07.05-.1a1 1 0 0 0-.09-.25c-.07-.18-.11-.25-.12-.29-.01-.04 0 0-.1 0l.1-.1h-.02z" fill="#000" fill-rule="nonzero"/><path d="M25.05 31.67h.06c.01 0 0 .12 0 .14 0 .02-.05 0-.11 0a.55.55 0 0 0-.22 0 .19.19 0 0 0-.09.12.44.44 0 0 0 .06.29.38.38 0 0 0 .47.22.3.3 0 0 0 .16-.18v.08a.41.41 0 0 1-.24.29.43.43 0 0 1-.4 0 .53.53 0 0 1-.21-.21.48.48 0 0 1 0-.48.7.7 0 0 1 .25-.23.42.42 0 0 1 .27-.04z" fill="#000"/><path d="M26 31.41v.06l-.41.23v.08a.34.34 0 0 0 .46.15.25.25 0 0 0 .14-.2v.06a.44.44 0 0 1-.22.36.42.42 0 0 1-.58-.2.49.49 0 0 1 0-.53.35.35 0 0 1 .14-.13.3.3 0 0 1 .47.12zm-.49.23l.18-.11c.05 0 .08-.06.05-.12a.15.15 0 0 0-.18-.06.24.24 0 0 0-.04.29h-.01zm2.15-1.56a.77.77 0 0 1 .15.65.79.79 0 0 1-1.39.32.69.69 0 0 1-.15-.63.84.84 0 0 1 .29-.45.76.76 0 0 1 1.1.11zm-1.23.23a.7.7 0 0 0 .2.52.88.88 0 0 0 .49.32.48.48 0 0 0 .41-.07.36.36 0 0 0 .13-.24.82.82 0 0 0-.21-.53c-.14-.17-.56-.52-.89-.25a.36.36 0 0 0-.13.25zm1.49-1.57a.61.61 0 0 1 .14-.36.35.35 0 0 1 .19-.11.15.15 0 0 1 .12 0 .15.15 0 0 1 0 .17.11.11 0 0 1-.08 0 .39.39 0 0 0-.29.06c-.05.06 0 .18 0 .23.083.112.177.216.28.31l.19-.2a1.3 1.3 0 0 0 .15-.19.09.09 0 0 1 0-.06l.1.08.48.44c.05.05.09 0 .14 0a.05.05 0 0 1 .05 0v.06l-.17.16-.12.15h-.05c-.05 0 0 0 0-.05a.11.11 0 0 0 0-.11 1.79 1.79 0 0 0-.2-.2 2.69 2.69 0 0 0-.27-.24l-.22.23v.05l.4.38c.08.06.11.08.19 0s0 0 .05 0 0 0 0 .05l-.15.15c-.08.08-.1.12-.15.17-.05.05 0 0-.05 0s0 0 0-.05v-.16l-.43-.4-.23.24c.11.1.35.33.44.4.09.07.09.06.16 0s.05 0 .06 0c.01 0 0 0 0 .05l-.16.16-.14.16h-.06a.21.21 0 0 1 0-.06c.05-.09 0-.11-.05-.18a5.07 5.07 0 0 0-.4-.38l-.07.06a.65.65 0 0 1 0-.11.07.07 0 0 0 0-.05 1.46 1.46 0 0 1-.17-.24.58.58 0 0 1 .09-.6.45.45 0 0 1 .23-.01zm-.29.39c0 .08.13.22.32.4l.22-.24A1.14 1.14 0 0 1 28 29a.36.36 0 0 0-.28.08.22.22 0 0 0-.09.05z" fill="#000" fill-rule="nonzero"/><path d="M29.43 27.82a.08.08 0 0 1 .07 0s.07.1.05.13h-.09a.46.46 0 0 0-.21.1.19.19 0 0 0 0 .15.47.47 0 0 0 .18.22.36.36 0 0 0 .52 0 .23.23 0 0 0 .06-.23v.07a.45.45 0 0 1-.08.37.42.42 0 0 1-.35.19.48.48 0 0 1-.28-.1.44.44 0 0 1-.2-.42.62.62 0 0 1 .11-.33.38.38 0 0 1 .22-.15z" fill="#000"/><path d="M30.15 27.14l-.26.4.07.05a.34.34 0 0 0 .47-.08.24.24 0 0 0 0-.24.1.1 0 0 1 0 .05.45.45 0 0 1 0 .42.44.44 0 0 1-.62.1.49.49 0 0 1-.23-.48.35.35 0 0 1 .06-.18.29.29 0 0 1 .51-.04zm-.32.43a1.74 1.74 0 0 0 .11-.18v-.13a.14.14 0 0 0-.18 0 .24.24 0 0 0 .07.31z" fill="#000" fill-rule="nonzero"/><path d="M22 11.93h-1.73v9.81h1.2v-4.21h2l2.26 4.21h1.48L22 11.93zm-.56 4v-2.24L22.76 16l-1.32-.07z" stroke="#980000" stroke-width=".27" fill="url(#c)" fill-rule="nonzero"/><path stroke="#980000" stroke-width=".27" fill="url(#d)" d="M19.3 21.74L19.3 17.46 16.48 17.46 15.67 18.95 18.05 18.95 18.05 20.36 13.7 20.36 17.52 13.54 18 13.54 18 15.31 19.3 15.31 19.3 11.93 16.73 11.93 11.4 21.74z"/><path d="M21.45 30.51a3 3 0 0 1-3.15-3.19 3 3 0 0 1 3.15-3.18 3 3 0 0 1 3.15 3.18 3 3 0 0 1-3.15 3.19zm0-5.21c-1 0-1.71.71-1.71 2s.67 2 1.71 2 1.71-.71 1.71-2-.68-2-1.71-2z" stroke="#000" stroke-width=".34" fill="#FFF" fill-rule="nonzero"/><path d="M18.37 25.23c-.69 0-1.08.3-1.08.7 0 .4.48.64 1.07.76l.6.14c1.17.24 2 .79 2 1.82s-1 1.86-2.61 1.86c-1.61 0-2.68-.69-2.72-2l1-.11c0 .62 1 1 1.74 1s1.19-.31 1.19-.76-.41-.61-1.14-.78l-.73-.17c-1.14-.25-1.84-.77-1.84-1.69 0-1.12 1.08-1.87 2.55-1.87 1.47 0 2.49.76 2.51 1.86h-1.39c-.05-.47-.47-.76-1.15-.76z" stroke="#000" stroke-width=".34" fill="#FFF"/><path d="M28.23 22.61a1.16 1.16 0 0 1 .61-.6 1.32 1.32 0 0 1 .44-.08c.15 0 .3.028.44.08a1.1 1.1 0 0 1 .6.6 1.05 1.05 0 0 1 0 .89 1.1 1.1 0 0 1-1.04.68 1.11 1.11 0 0 1-.44-.08 1.16 1.16 0 0 1-.61-.6 1.1 1.1 0 0 1-.09-.45 1 1 0 0 1 .09-.44zm.19.83a.88.88 0 0 0 .2.3c.08.09.18.161.29.21a1 1 0 0 0 .74 0 .86.86 0 0 0 .29-.21.88.88 0 0 0 .2-.3 1 1 0 0 0 .07-.39.93.93 0 0 0-.27-.68.84.84 0 0 0-.29-.2.9.9 0 0 0-.74 0 .84.84 0 0 0-.29.2.93.93 0 0 0-.27.68 1 1 0 0 0 .07.39zm.93-1a.54.54 0 0 1 .35.09c.08.07.12.174.11.28.01.1-.027.2-.1.27a.43.43 0 0 1-.24.09l.37.59h-.22l-.36-.57h-.21v.57h-.21V22.4l.51.04zm-.09.58h.13a.35.35 0 0 0 .11 0 .16.16 0 0 0 .08-.06.23.23 0 0 0 0-.13.17.17 0 0 0 0-.1.12.12 0 0 0-.06-.06.17.17 0 0 0-.1 0h-.37V23l.21.02z" fill="#000" fill-rule="nonzero"/><path stroke="#000" stroke-width=".34" fill="#FFF" d="M16.75 30.42L15.33 30.42 15.33 24.22 16.75 24.22z"/></g></svg>