<svg width="118" height="42" xmlns="http://www.w3.org/2000/svg"><defs><radialGradient cx="2.008%" cy="62.048%" fx="2.008%" fy="62.048%" r="215.857%" gradientTransform="matrix(.35593 0 0 1 .013 0)" id="a"><stop stop-color="#8F2A77" offset="11%"/><stop stop-color="#5B1768" offset="100%"/></radialGradient></defs><g transform="translate(0 -1)" fill="none" fill-rule="evenodd"><path d="M21 1h94a3 3 0 0 1 3 3v36a3 3 0 0 1-3 3H21C9.402 43 0 33.598 0 22S9.402 1 21 1z" fill="url(#a)" fill-rule="nonzero"/><path d="M37.07 8.28v.16a2.72 2.72 0 1 0 0-5.44 2.72 2.72 0 0 0 0 5.44v-.32a2.43 2.43 0 0 1-1.7-.7 2.4 2.4 0 0 1 0-3.39 2.43 2.43 0 0 1 1.7-.7 2.41 2.41 0 0 1 2.4 2.39 2.36 2.36 0 0 1-.71 1.7 2.39 2.39 0 0 1-1.69.7v.16z" fill="#FFF"/><path d="M38.55 5.52h-.62a1.45 1.45 0 0 1-.15.67l-.5-.53.17-.14a.9.9 0 0 0 .34-.67.8.8 0 0 0-.79-.75.83.83 0 0 0-.93.76.93.93 0 0 0 .3.66c-.45.28-.61.53-.61.89 0 .56.47.94 1.17.94a1.28 1.28 0 0 0 .9-.31l.22.23h.82l-.62-.64a2 2 0 0 0 .3-1.11zm-1.66-.2l-.06-.06c-.17-.18-.21-.25-.21-.36a.3.3 0 0 1 .31-.29.29.29 0 0 1 .3.27c0 .12-.09.27-.34.44zm.52 1.34a.78.78 0 0 1-.5.17.51.51 0 0 1-.55-.45c0-.16.11-.3.33-.46l.72.74z" fill="#FFF"/><path fill="#43225E" d="M16.1 8.41L17.62 4.97 25.46 4.81 28.19 11.46z"/><path d="M3.58 22c.006 9.792 7.948 17.726 17.74 17.72 9.792-.006 17.726-7.948 17.72-17.74-.006-9.792-7.948-17.726-17.74-17.72A17.72 17.72 0 0 0 3.58 22M18.25 7h6.27l7.92 22.43h-6L21.31 13l-5.19 16.5h-6L18.25 7" fill="#FFF"/><path d="M24.48 26.2a3.22 3.22 0 1 1-3.21-3.2 3.21 3.21 0 0 1 3.21 3.21m-7.84 6.49c.09.46.13 1.05.19 1.64V34c0-.39.06-.78.12-1.17l.35-2.51h.89l-.86 4.6h-1L16 33.1c-.09-.48-.12-1-.18-1.46-.06.49-.09 1-.18 1.46l-.31 1.82h-1l-.88-4.6h.89l.39 2.51c.06.39.1.78.13 1.17v.34c.06-.59.11-1.18.19-1.64l.42-2.38h.71l.46 2.38m2.97.38h.73l-.23-1.31c0-.21-.06-.42-.09-.64-.03-.22 0-.2 0-.3v.3c0 .22 0 .43-.09.64l-.32 1.31zm-1.29 1.84l1.1-4.6h1.16l1 4.6h-.88l-.22-1.17h-1l-.23 1.17h-.93zm4.62-2.66h.68c.28 0 .5-.2.5-.66s-.21-.6-.54-.61h-.64v1.27zm0 .68v2h-.85v-4.6h1.62c.74 0 1.31.26 1.31 1.1 0 .51-.13 1-.71 1.11.51.06.66.39.66.83 0 .19 0 1.32.19 1.45v.09h-.95a5 5 0 0 1-.09-1.17c0-.28 0-.66-.29-.75a2.58 2.58 0 0 0-.73-.06h-.16zm4.16 1.3c.77 0 .82-.4.82-1.73 0-1.09-.11-1.52-.63-1.52h-.56v3.25h.37zm-1.23.68v-4.6h1.79c.367.008.703.204.89.52.218.5.304 1.047.25 1.59 0 .91 0 2-.7 2.37-.2.094-.42.135-.64.12h-1.59zm5.48-3.2c0-.41 0-.82-.5-.82-.29 0-.48.12-.48.43s.22.49.5.66a7.62 7.62 0 0 1 1 .75c.274.257.414.626.38 1A1.26 1.26 0 0 1 30.88 35a1.24 1.24 0 0 1-1.4-1.4v-.34h.86v.27c0 .45.11.78.54.78a.47.47 0 0 0 .53-.54.7.7 0 0 0-.34-.61 6.71 6.71 0 0 1-1.36-1.06 1.29 1.29 0 0 1-.22-.71c0-.78.44-1.21 1.35-1.21 1.37 0 1.33 1.05 1.34 1.51h-.83m-19.9 1.39h.74L12 31.77c0-.21-.06-.42-.08-.64v-.3.3c0 .22 0 .43-.08.64l-.39 1.31zm-1.28 1.84l1.09-4.6h1.16l1.05 4.6h-.92l-.23-1.17h-1l-.22 1.17h-.93z" fill="#000" fill-rule="nonzero"/><path d="M25.48 2a.502.502 0 1 0-.09-1h-.08a.49.49 0 0 0-.4.56.5.5 0 0 0 .37.38c-.2.64-.64 1.93-.91 2-.27.07-.61-1.16-.79-1.82a.47.47 0 0 0 .26-.51.48.48 0 0 0-.48-.4h-.08a.5.5 0 0 0-.4.57.48.48 0 0 0 .32.37c-.25.74-.75 2.13-1.05 2.19-.3.06-1.15-1.14-1.58-1.79a.49.49 0 0 0 .16-.46.47.47 0 0 0-.47-.4h-.09a.48.48 0 0 0-.39.56.49.49 0 0 0 .35.38c-.1.74-.33 2.1-.66 2.16-.33.06-1.39-1-1.94-1.62a.5.5 0 0 0 .15-.45.48.48 0 0 0-.47-.4h-.09a.48.48 0 0 0-.39.56.48.48 0 0 0 .45.4c.14.68.37 1.93.11 2-.26.07-1.25-1-1.73-1.5a.49.49 0 0 0-.22-.92h-.09a.49.49 0 0 0-.39.57.48.48 0 0 0 .52.39l1.46 3.37c-.07 0 0 .37 0 .43l.13.75a.18.18 0 0 0-.07.18c0 .13.14.15.4.13.26-.02 1.59-.17 4-.6 2.41-.43 3.73-.76 4-.83.27-.07.36-.14.33-.26a.19.19 0 0 0-.13-.15l-.14-.78s-.07-.34-.13-.34L25.42 2h.06" fill="#EFD500"/><path d="M46.93 7.28h2.77c1.52 0 2.3.72 2.3 1.77a1.47 1.47 0 0 1-1.24 1.48v.07a1.6 1.6 0 0 1 1.51 1.68c0 1.1-.82 1.91-2.38 1.91h-3l.04-6.91zm2.55 2.89a.92.92 0 0 0 1-.88c0-.5-.37-.83-1-.83h-1.09v1.71h1.09zm.11 2.83c.81 0 1.17-.34 1.17-.86s-.44-1-1.14-1h-1.23V13h1.2z" fill="#FFF" fill-rule="nonzero"/><path fill="#FFF" fill-rule="nonzero" d="M53.52 7.28L58.17 7.28 58.17 8.48 55 8.48 55 10.13 58 10.13 58 11.33 55 11.33 55 13 58.21 13 58.21 14.21 53.52 14.21z"/><path d="M62 8.41c-.71 0-1.11.32-1.11.77s.53.72 1.11.82l.62.15c1.2.27 2.07.88 2.08 2 .01 1.12-1 2.07-2.69 2.07s-2.74-.77-2.78-2.26h1.42c0 .69.59 1 1.35 1 .76 0 1.22-.34 1.22-.85s-.42-.68-1.17-.86l-.75-.19c-1.17-.28-1.89-.87-1.89-1.88 0-1.26 1.11-2.09 2.62-2.09s2.57.91 2.59 2.18h-1.4c-.05-.55-.48-.86-1.22-.86z" fill="#FFF" fill-rule="nonzero"/><path fill="#FFF" fill-rule="nonzero" d="M65.57 7.28L71.24 7.28 71.24 8.48 69.13 8.48 69.13 14.19 67.68 14.19 67.68 8.48 65.57 8.48z"/><path d="M74.38 7.28h2.73a2.24 2.24 0 0 1 2.47 2.34A2.25 2.25 0 0 1 77.07 12h-1.23v2.24h-1.46V7.28zm2.46 3.5a1.1 1.1 0 0 0 1.24-1.16 1.1 1.1 0 0 0-1.25-1.15h-1v2.31h1.01zm6.96 3.5c-1.84 0-3.23-1.3-3.23-3.55S82 7.19 83.8 7.19a3.2 3.2 0 0 1 3.2 3.54 3.21 3.21 0 0 1-3.2 3.55zm0-5.8c-1.06 0-1.75.79-1.75 2.25S82.74 13 83.8 13s1.76-.79 1.76-2.26c0-1.47-.7-2.26-1.76-2.26z" fill="#FFF" fill-rule="nonzero"/><path fill="#FFF" fill-rule="nonzero" d="M88.36 7.28L89.82 7.28 89.82 10.28 89.91 10.28 92.39 7.28 94.14 7.28 91.58 10.37 94.17 14.19 92.43 14.19 90.54 11.35 89.82 12.22 89.82 14.22 88.36 14.22z"/><path fill="#FFF" fill-rule="nonzero" d="M95.13 7.28L99.78 7.28 99.78 8.48 96.59 8.48 96.59 10.13 99.59 10.13 99.59 11.33 96.59 11.33 96.59 13 99.8 13 99.8 14.21 95.13 14.21z"/><path d="M101.22 7.28H104c1.58 0 2.49.85 2.49 2.2a2 2 0 0 1-1.21 1.93l1.47 2.78h-1.61l-1.32-2.55h-1.12v2.55h-1.46l-.02-6.91zm2.61 3.27a1 1 0 0 0 1.13-1 1 1 0 0 0-1.09-1h-1.19v2h1.15z" fill="#FFF" fill-rule="nonzero"/><path fill="#FFF" fill-rule="nonzero" d="M46.51 18.28L48.11 18.28 49.25 23.08 49.31 23.08 50.57 18.28 51.94 18.28 53.19 23.09 53.25 23.09 54.4 18.28 56 18.28 54 25.19 52.59 25.19 51.28 20.67 51.22 20.67 49.91 25.19 48.49 25.19z"/><path fill="#FFF" fill-rule="nonzero" d="M57 18.28L61.65 18.28 61.65 19.48 58.42 19.48 58.42 21.13 61.42 21.13 61.42 22.33 58.42 22.33 58.42 24 61.63 24 61.63 25.21 57 25.21z"/><path d="M63.05 18.28h2.77c1.52 0 2.29.74 2.29 1.77a1.47 1.47 0 0 1-1.25 1.48v.07a1.61 1.61 0 0 1 1.52 1.68c0 1.1-.82 1.91-2.38 1.91h-3l.05-6.91zm2.55 2.89a.92.92 0 0 0 1-.88c0-.5-.37-.83-1-.83h-1.09v1.71h1.09zm.1 2.83c.82 0 1.17-.34 1.17-.86a1 1 0 0 0-1.13-1h-1.23V24h1.19zm6.42-4.59c-.71 0-1.11.32-1.11.77s.5.72 1.1.85l.62.15c1.2.27 2.06.88 2.07 2 .01 1.12-1 2.07-2.68 2.07-1.68 0-2.75-.77-2.78-2.26h1.41c0 .69.59 1 1.35 1 .76 0 1.22-.34 1.22-.85s-.42-.68-1.17-.86l-.75-.19c-1.17-.28-1.89-.87-1.88-1.88 0-1.26 1.1-2.09 2.61-2.09 1.51 0 2.55.85 2.57 2.08h-1.4c-.05-.48-.48-.79-1.18-.79z" fill="#FFF" fill-rule="nonzero"/><path fill="#FFF" fill-rule="nonzero" d="M77.54 25.19L76.08 25.19 76.08 18.28 77.54 18.28z"/><path fill="#FFF" fill-rule="nonzero" d="M78.63 18.28L84.3 18.28 84.3 19.48 82.19 19.48 82.19 25.19 80.74 25.19 80.74 19.48 78.63 19.48z"/><path fill="#FFF" fill-rule="nonzero" d="M85.37 18.28L90 18.28 90 19.48 86.83 19.48 86.83 21.13 89.83 21.13 89.83 22.33 86.83 22.33 86.83 24 90 24 90 25.21 85.37 25.21z"/><path d="M46.82 35.79l2.52-2.2c.55-.5.89-.86.89-1.38a.9.9 0 0 0-1-.92.92.92 0 0 0-1 1h-1.55A2.29 2.29 0 0 1 49.25 30a2.28 2.28 0 0 1 2.55 2.2c0 .92-.49 1.59-1.72 2.65l-.84.76h2.69V37h-5.11v-1.21zM53 33.57c0-2.35 1-3.58 2.78-3.58 1.78 0 2.79 1.23 2.79 3.57s-1 3.6-2.79 3.6S53 35.92 53 33.57zm4 0c0-1.48-.41-2.24-1.21-2.24s-1.2.76-1.2 2.24c0 1.48.4 2.24 1.2 2.24.8 0 1.21-.76 1.15-2.24H57zM62.63 37H61v-4.93h-.07a1.7 1.7 0 0 1-1.39.51v-1.32A1.41 1.41 0 0 0 61 30.09h1.65L62.63 37zm3.96-7a2.39 2.39 0 0 1 2.64 2.36 4 4 0 0 1-.84 2.25L66.77 37h-1.65l1.62-2.39a2.36 2.36 0 0 1-.55.07A2.12 2.12 0 0 1 64 32.41 2.38 2.38 0 0 1 66.59 30zm0 3.43a1.08 1.08 0 1 0-1-1.07 1 1 0 0 0 1.01 1.06l-.01.01z" fill="#EFD500" fill-rule="nonzero"/><path fill="#EFD500" fill-rule="nonzero" d="M72 30.09L73.85 30.09 74.85 34.61 74.9 34.61 76.1 30.09 77.6 30.09 78.79 34.62 78.85 34.62 79.85 30.09 81.69 30.09 79.69 36.99 78.15 36.99 76.9 32.8 76.85 32.8 75.61 37 74 37z"/><path fill="#EFD500" fill-rule="nonzero" d="M84.32 37L82.65 37 82.65 30.1 84.32 30.1z"/><path fill="#EFD500" fill-rule="nonzero" d="M91.64 37L90.23 37 87.48 33 87.48 33 87.48 37 85.77 37 85.77 30.1 87.2 30.1 89.92 34.1 90 34.1 90 30.1 91.66 30.1z"/><path fill="#EFD500" fill-rule="nonzero" d="M99 37L97.53 37 94.78 33 94.78 33 94.78 37 93.07 37 93.07 30.1 94.51 30.1 97.22 34.1 97.28 34.1 97.28 30.1 99 30.1z"/><path fill="#EFD500" fill-rule="nonzero" d="M100.37 30.09L105.19 30.09 105.19 31.44 102 31.44 102 32.86 104.9 32.86 104.9 34.22 102 34.22 102 35.64 105.15 35.64 105.15 37 100.33 37z"/><path d="M106.56 30.09h2.85c1.64 0 2.59.84 2.59 2.23a2.06 2.06 0 0 1-1.19 1.92l1.44 2.76h-1.83l-1.27-2.49h-.92V37h-1.67v-6.91zm2.69 3.2a.89.89 0 0 0 1-.93.88.88 0 0 0-1-.93h-1v1.86h1z" fill="#EFD500" fill-rule="nonzero"/></g></svg>