<svg viewBox="0 0 512 512" xmlns="http://www.w3.org/2000/svg"><circle cx="256" cy="256" fill="#f0f0f0" r="256"/><path d="m256 0c-45.261 0-87.769 11.762-124.661 32.372v447.256c36.893 20.61 79.4 32.372 124.661 32.372 141.384 0 256-114.616 256-256s-114.616-256-256-256z" fill="#6da544"/><path d="m132.092 31.951a256.545 256.545 0 0 0 -40.676 27.983l196.065 196.066-196.066 196.066a256.636 256.636 0 0 0 40.676 27.983l379.909-224.049z" fill="#f0f0f0"/><path d="m110.47 45.382a257.592 257.592 0 0 0 -22.45 17.44l167.98 193.178-167.981 193.178a257.398 257.398 0 0 0 22.45 17.44l357.709-210.618z" fill="#ffda44"/><path d="m91.415 59.934a257.758 257.758 0 0 0 -16.435 15.046l158.759 181.02-158.759 181.02a256.605 256.605 0 0 0 16.435 15.046l196.066-196.066z"/><path d="m74.98 74.98c-99.974 99.974-99.974 262.065 0 362.04l181.02-181.02z" fill="#d80027"/></svg>