<svg xmlns="http://www.w3.org/2000/svg" viewBox="0 0 512 512"><circle cx="256" cy="256" r="256" fill="#F0F0F0"/><path d="M345.043 256c0 22.261-39.866 77.913-89.043 77.913S166.957 278.261 166.957 256c0-49.178 39.866-89.043 89.043-89.043s89.043 39.865 89.043 89.043z" fill="#D80027"/><path d="M345.043 256c0 49.178-39.866 89.043-89.043 89.043S166.957 305.178 166.957 256" fill="#0052B4"/><path d="M350.441 334.705l23.61-23.611 15.742 15.74-23.61 23.612z"/><path d="M311.085 374.06l23.61-23.612 15.742 15.741-23.61 23.611z"/><path d="M397.67 381.918l23.61-23.611 15.742 15.74-23.61 23.612z"/><path d="M358.313 421.279l23.61-23.611 15.742 15.74-23.61 23.612z"/><path d="M374.054 358.313l23.61-23.611 15.742 15.74-23.61 23.612z"/><path d="M334.709 397.668l23.61-23.612 15.742 15.741-23.61 23.611z"/><path d="M397.678 177.29l-62.962-62.964 15.741-15.74 62.962 62.963z"/><path d="M334.713 161.557l-23.61-23.611 15.74-15.74 23.61 23.612z"/><path d="M374.059 200.908l-23.61-23.611 15.74-15.74 23.61 23.611z"/><path d="M381.915 114.337l-23.61-23.612 15.741-15.74 23.61 23.611z"/><path d="M421.283 153.687l-23.61-23.611 15.741-15.74 23.61 23.61z"/><path d="M90.723 358.317l62.962 62.964-15.742 15.74-62.961-62.963z"/><path d="M153.681 374.05l23.61 23.612-15.74 15.74-23.61-23.612z"/><path d="M114.33 334.703l23.611 23.612-15.74 15.74-23.611-23.611z"/><path d="M137.943 311.09l62.962 62.965-15.741 15.74-62.962-62.964z"/><path d="M153.683 90.719l-62.961 62.964-15.741-15.741 62.961-62.964z"/><path d="M177.286 114.325l-62.962 62.964-15.74-15.74 62.961-62.964z"/><path d="M200.911 137.946L137.95 200.91l-15.74-15.74 62.961-62.964z"/></svg>