<svg viewBox="0 0 512 512" xmlns="http://www.w3.org/2000/svg"><circle cx="256" cy="256" fill="#ffda44" r="256"/><path d="m294.932 509.057c41.636-6.352 79.962-22.748 112.456-46.618l-151.388-206.439zm-77.865-506.114c-41.635 6.352-79.961 22.748-112.457 46.617l151.39 206.44zm-112.457 459.496c32.494 23.869 70.82 40.265 112.455 46.619l38.935-253.058zm-55.05-357.829c-23.87 32.496-40.264 70.821-46.617 112.457l253.057 38.933zm-46.617 190.322c6.352 41.636 22.748 79.962 46.618 112.456l206.439-151.388zm506.114-77.865c-6.353-41.635-22.748-79.961-46.618-112.456l-206.439 151.389zm-101.669-167.508c-32.495-23.869-70.82-40.264-112.456-46.616l-38.932 253.057zm55.053 357.83c23.869-32.495 40.264-70.822 46.618-112.456l-253.059-38.933z" fill="#d80027"/><circle cx="256" cy="256" fill="#d80027" r="89.043"/><circle cx="256" cy="256" fill="#ffda44" r="66.783"/></svg>