<svg fill="none" height="12" width="18" xmlns="http://www.w3.org/2000/svg"><path d="m17.996 0h-17.996v12h17.996z" fill="#c8414b"/><path d="m18 2.524h-18v6.952h18z" fill="#ffd250"/><path d="m7.605 5.996.264-1.205a.176.176 0 0 0 -.171-.216h-.186a.178.178 0 0 0 -.17.216z" fill="#c8414b"/><path d="m7.913 5.365h-.62v2.687h.62z" fill="#f5f5f5"/><path d="m8.068 5.048h-.931v.317h.931z" fill="#fab446"/><path d="m8.069 5.996h-1.551v.317h1.55v-.317zm0 1.266-.932-.318v-.313l.931.313v.318zm-5.123-1.266.263-1.205a.176.176 0 0 0 -.17-.216h-.186a.178.178 0 0 0 -.17.216z" fill="#c8414b"/><path d="m4.034 5.048c-.17 0-.311.14-.311.317v2.056c0 .385.352 1.107 1.551 1.107s1.555-.726 1.555-1.107v-2.056a.314.314 0 0 0 -.312-.317z" fill="#f5f5f5"/><path d="m5.278 6.631h-1.551v-1.261c0-.177.14-.317.311-.317h1.24v1.58zm0 0h1.55v.79c0 .434-.348.79-.775.79a.785.785 0 0 1 -.776-.79v-.79z" fill="#c8414b"/><path d="m3.723 6.631h1.551v.79c0 .434-.349.79-.776.79a.785.785 0 0 1 -.775-.79z" fill="#fab446"/><path d="m4.966 8.048v-1.417h-.312v1.564a.823.823 0 0 0 .312-.147zm-.62.144v-1.56h-.31v1.416c.088.068.196.12.31.144z" fill="#c8414b"/><path d="m4.967 5.996h-.932v.318h.932z" fill="#ffb441"/><path d="m4.967 5.365h-.932v.318h.932z" fill="#fab446"/><path d="m4.811 5.554h-.62v.57h.62z" fill="#fab446"/><path d="m3.258 5.365h-.62v2.687h.62z" fill="#f5f5f5"/><path d="m3.414 7.893h-.932v.317h.932zm0-2.845h-.932v.317h.932z" fill="#fab446"/><path d="m3.566 8.21h-1.24v.318h1.24z" fill="#5064aa"/><path d="m8.225 7.893h-.932v.317h.932z" fill="#fab446"/><path d="m8.22 8.21h-1.24v.318h1.24z" fill="#5064aa"/><path d="m6.209 4.734h-1.863v.318h1.863z" fill="#fab446"/><path d="m5.433 3.786h-.313v.948h.312v-.948z" fill="#ffb441"/><g fill="#f5f5f5"><path d="m4.966 4.258a.468.468 0 0 1 -.464-.472c0-.26.208-.472.464-.472s.464.211.464.472c0 .26-.208.472-.464.472zm0-.63a.158.158 0 0 0 -.156.158c0 .087.07.159.156.159a.158.158 0 0 0 .156-.159.158.158 0 0 0 -.156-.159z"/><path d="m5.587 4.258a.468.468 0 0 1 -.464-.472c0-.26.208-.472.464-.472s.464.211.464.472a.466.466 0 0 1 -.464.472zm0-.63a.158.158 0 0 0 -.156.158c0 .087.07.159.156.159a.158.158 0 0 0 .156-.159.158.158 0 0 0 -.156-.159z"/><path d="m6.206 4.576a.468.468 0 0 1 -.464-.473c0-.26.208-.472.464-.472s.464.212.464.472a.464.464 0 0 1 -.464.473zm0-.631a.158.158 0 0 0 -.156.158c0 .087.07.16.156.16a.158.158 0 0 0 .156-.16.158.158 0 0 0 -.156-.158zm-1.86.63a.468.468 0 0 1 -.463-.472c0-.26.208-.472.464-.472s.464.212.464.472c0 .261-.208.473-.464.473zm0-.63a.158.158 0 0 0 -.155.158c0 .087.07.16.156.16a.158.158 0 0 0 .156-.16.158.158 0 0 0 -.156-.158z"/></g><path d="m6.206 7.262v.159c0 .087-.07.158-.156.158a.158.158 0 0 1 -.156-.158v-.159zm.311-.317h-.931v.472c0 .26.208.472.464.472a.468.468 0 0 0 .464-.472z" fill="#fab446"/><path d="m6.054 6.314a.314.314 0 0 1 -.312-.318v-.316c0-.174.138-.317.312-.317.17 0 .312.14.312.317v.317a.316.316 0 0 1 -.312.318z" fill="#ffa0d2"/><path d="m5.738 6.567a.473.473 0 0 1 -.523.532.469.469 0 0 1 -.4-.408.473.473 0 0 1 .522-.532.469.469 0 0 1 .401.408z" fill="#5064aa"/><path d="m5.433 3.155h-.313v.948h.312v-.948z" fill="#fab446"/><path d="m4.347 4.734-.312-.317.182-.185a1.478 1.478 0 0 1 2.115 0l.182.185-.311.317z" fill="#c8414b"/><path d="m5.429 4.394a.159.159 0 0 1 -.178.182.159.159 0 0 1 .048-.314.16.16 0 0 1 .13.132zm-.62 0a.159.159 0 0 1 -.177.182.159.159 0 0 1 .048-.314.16.16 0 0 1 .13.132zm1.24 0a.159.159 0 0 1 -.177.182.159.159 0 0 1 .048-.314.16.16 0 0 1 .13.132z" fill="#ffd250"/><path d="m4.034 5.996h-1.552v.318h1.552zm-1.552 1.266.932-.317v-.315l-.932.314v.317z" fill="#c8414b"/></svg>