<svg width="20" height="20" fill="none" xmlns="http://www.w3.org/2000/svg"><g opacity=".5" fill="#CCC"><path d="M14.294 12.579h-.91l-.314-.315a7.362 7.362 0 0 0 1.796-4.831 7.433 7.433 0 1 0-7.433 7.433 7.387 7.387 0 0 0 4.831-1.79l.315.314v.904L18.296 20 20 18.296l-5.706-5.717zm-6.861 0a5.146 5.146 0 1 1 0-10.293 5.146 5.146 0 0 1 0 10.293z"/><path fill-rule="evenodd" clip-rule="evenodd" d="M8 5.65A2.35 2.35 0 0 0 5.65 8a.65.65 0 0 1-1.3 0A3.65 3.65 0 0 1 8 4.35a.65.65 0 0 1 0 1.3z"/></g></svg>