<svg width="20" height="20" fill="none" xmlns="http://www.w3.org/2000/svg"><path d="M15.818 8.32C12.968 2.777 11.484.671 6.826.76 5.166.79 5.565-.329 4.3.095 3.036.52 4.12 1.14 2.827 2.099-.802 4.791-.468 7.281 1.215 13.216c.71 2.5-1.709 2.622-.752 5.044.699 1.767 5.85 2.507 11.285.686 5.436-1.823 8.86-5.439 8.162-7.206-.957-2.423-2.89-1.085-4.092-3.42zm-4.659 9.132c-4.854 1.627-8.843.671-9.012.245-.29-.734 1.567-3.181 7.116-5.042 5.55-1.86 8.647-1.17 8.971-.351.191.485-2.22 3.52-7.075 5.148zM9.6 13.505c-2.538.85-4.3 1.823-5.444 2.699.804.66 2.31.82 3.81.317 1.909-.638 3.083-2.108 2.619-3.28-.006-.015-.014-.027-.02-.041-.314.093-.635.193-.965.305z" fill="#fff" fill-opacity=".5"/></svg>