<svg width="36" height="32" fill="none" xmlns="http://www.w3.org/2000/svg"><rect x="33" y="27.733" width="30" height="16" rx="2" transform="rotate(-180 33 27.733)" fill="#FEB83C"/><rect x="33" y="27.733" width="30" height="16" rx="2" transform="rotate(-180 33 27.733)" fill="url(#paint0_linear)"/><path d="M13.743 24.533l3.1-8.533h-2.399l-2.029 6.154L10.398 16H8l3.087 8.533h2.656zm5.82 0V16h-2.115v8.533h2.116zm3.591 0v-2.865h1.993c1.845 0 2.853-1.293 2.853-2.828 0-1.548-1.008-2.84-2.853-2.84h-4.108v8.533h2.115zm1.71-4.785h-1.71V17.92h1.71c.566 0 .984.333.984.921 0 .576-.418.909-.984.909z" fill="#2C2F3C"/><path d="M18 5.31l-.86 1.254.86 1.254.86-1.254L18 5.31zm0 0l-.86 1.254.86 1.254.86-1.254L18 5.31zm7.25-1.947l-3.356 2.185L18.407.206c-.18-.275-.634-.275-.814 0l-3.487 5.342-3.357-2.185c-.353-.23-.842.057-.734.43l1.281 4.412h2.954c.26 0 .47.184.47.41 0 .227-.21.41-.47.41h-2.716l.387 1.333c.053.181.24.309.455.309h11.248c.215 0 .402-.128.455-.31l.386-1.331H21.75c-.26 0-.47-.184-.47-.41 0-.227.21-.41.47-.41h2.954l1.28-4.413c.11-.374-.38-.66-.733-.43zm-5.442 3.412l-1.406 2.051c-.181.265-.621.267-.804 0l-1.406-2.05a.367.367 0 0 1 0-.423L17.598 4.3c.181-.264.621-.266.804 0l1.406 2.052a.367.367 0 0 1 0 .422zm-2.668-.211L18 7.818l.86-1.254L18 5.31l-.86 1.254z" fill="#FFCE77"/><path d="M14.7 2.986l-.883 1.351-1.31-.852.347-1.514c.08-.347.591-.45.834-.166l1.012 1.18zm8.793.498l-1.31.853-.882-1.352 1.011-1.18c.243-.284.755-.182.835.165l.346 1.514z" fill="#FFBB43"/><path d="M18 32l-6-4.267h12L18 32z" fill="#FFC661"/><path d="M36 19.734L33 22.4v-5.333l3 2.667z" fill="#FFCC71"/><path d="M0 19.734L3 22.4v-5.333l-3 2.667z" fill="#FFBB43"/><defs><linearGradient id="paint0_linear" x1="63" y1="43.733" x2="32.255" y2="29.322" gradientUnits="userSpaceOnUse"><stop stop-color="#FEB83C"/><stop offset="1" stop-color="#FFCE77"/></linearGradient></defs></svg>