<svg width="16" height="16" fill="none" xmlns="http://www.w3.org/2000/svg"><path opacity=".5" fill-rule="evenodd" clip-rule="evenodd" d="M11.634 10.498L16 14.853 14.85 16l-4.372-4.36a6.467 6.467 0 01-3.966 1.351 6.472 6.472 0 01-4.604-1.903A6.442 6.442 0 010 6.495C0 4.76.678 3.13 1.908 1.902A6.478 6.478 0 016.512 0c1.74 0 3.375.676 4.604 1.903a6.442 6.442 0 011.908 4.592 6.43 6.43 0 01-1.39 4.003zM1.628 6.495c0 1.302.508 2.526 1.431 3.445a4.854 4.854 0 003.453 1.427c1.305 0 2.53-.507 3.453-1.426a4.831 4.831 0 001.431-3.446 4.825 4.825 0 00-1.431-3.443 4.852 4.852 0 00-3.453-1.428c-1.305 0-2.53.507-3.453 1.427a4.828 4.828 0 00-1.431 3.444z" fill="#999"/></svg>