<svg width="18" height="12" fill="none" xmlns="http://www.w3.org/2000/svg"><path d="M18 0H0v12h18V0z" fill="#F4F4F4"/><path d="M12.048 4.341L18 .525V0h-.411l-6.774 4.341h1.233zm-.265 3.567l6.218 3.981v-.802l-4.984-3.18h-1.234zM0 .912l5.323 3.429H6.58L0 .111v.801zm6.29 6.996L0 11.945V12h1.137l6.411-4.092H6.29z" fill="#D8001E"/><path d="M16.767 0h-6.29v4.037L16.767 0zM7.693 0h-6.29l6.29 4.037V0zM18 4.341V1.576l-4.258 2.765H18zm0 6.276v-2.71h-4.258L18 10.618zM1.766 12h5.927V8.212L1.766 12zm8.71 0h5.928l-5.927-3.788V12zM0 7.908v2.848l4.427-2.848H0zM0 4.34h4.427L0 1.493v2.848z" fill="#323E95"/><path d="M8.25 0v5.06H0v2.129h8.25V12h1.67V7.189H18v-2.13H9.92V0H8.25z" fill="#D8001E"/></svg>