<svg width="20" height="16" fill="none" xmlns="http://www.w3.org/2000/svg"><path fill-rule="evenodd" clip-rule="evenodd" d="M.934 6.623L18.65.106c.809-.35 1.59.185 1.281 1.366l-3.017 13.56c-.21.965-.821 1.195-1.667.75l-4.596-3.239-.087.08-2.122 1.97-.017.016c-.248.231-.453.422-.903.422-.466 0-.505-.131-.6-.449a4.072 4.072 0 00-.1-.306l-.002-.006.298-2.886 8.987-7.355c.395-.318-.086-.473-.61-.184L5.26 9.703l-.127-.371L.713 8.016c-.981-.287-.988-.93.22-1.393zm4.325 3.08L5 9.85l1.769 4.918.051-.5L5.26 9.704z" fill="#1E9BF8"/></svg>