<svg fill="none" height="50" width="207" xmlns="http://www.w3.org/2000/svg" xmlns:xlink="http://www.w3.org/1999/xlink"><clipPath id="a"><path d="m0 0h207v50h-207z"/></clipPath><g clip-path="url(#a)"><path d="m64.9 46.7c0-1.9 1.3-3.3 3.2-3.3s3.2 1.4 3.2 3.3-1.3 3.3-3.2 3.3-3.2-1.4-3.2-3.3zm5.3 0c0-1.3-.8-2.3-2.1-2.3s-2.1 1-2.1 2.3.8 2.3 2.1 2.3c1.2 0 2.1-1 2.1-2.3zm7 3.2-3.3-4.5v4.5h-1.1v-6.3h1.2l3.2 4.4v-4.4h1.1v6.3zm2.9 0v-6.3h1.1v5.3h2.8v1zm5.2 0v-6.3h1.1v6.3zm7.301 0-3.3-4.5v4.5h-1.1v-6.3h1.1l3.2 4.4v-4.4h1.1v6.3zm2.899 0v-6.3h4.3v1h-3.2v1.6h3.1v1h-3.1v1.8h3.2v1h-4.3zm8.801 0v-6.3h2.8c1.3 0 2.1.9 2.1 2s-.7 2-2.1 2h-1.7v2.4h-1.1zm3.6-4.4c0-.6-.5-1-1.1-1h-1.5v2h1.5c.7 0 1.1-.4 1.1-1zm2.3 1.2c0-1.9 1.3-3.3 3.2-3.3s3.2 1.4 3.2 3.3-1.3 3.3-3.2 3.3-3.2-1.4-3.2-3.3zm5.2 0c0-1.3-.8-2.3-2.1-2.3s-2.1 1-2.1 2.3.8 2.3 2.1 2.3 2.1-1 2.1-2.3zm6.5 3.2-2.1-2.7-.5.6v2h-1.1v-6.3h1.1v3l2.5-3h1.4l-2.5 3 2.7 3.3h-1.5zm2.499 0v-6.3h4.3v1h-3.2v1.6h3.1v1h-3.1v1.8h3.2v1h-4.3zm9.6 0-1.4-2.4h-1.1v2.4h-1.1v-6.3h2.8c1.2 0 2.1.8 2.1 2 0 1.1-.7 1.7-1.5 1.9l1.5 2.5h-1.3zm.1-4.4c0-.6-.5-1-1.1-1h-1.5v2h1.5c.6 0 1.1-.4 1.1-1zm9.1 4.4-1.4-2.4h-1.1v2.4h-1.1v-6.3h2.8c1.2 0 2.1.8 2.1 2 0 1.1-.7 1.7-1.5 1.9l1.5 2.5h-1.3zm.1-4.4c0-.6-.5-1-1.1-1h-1.5v2h1.5c.6 0 1.1-.4 1.1-1zm2.3 1.2c0-1.9 1.3-3.3 3.2-3.3s3.2 1.4 3.2 3.3-1.3 3.3-3.2 3.3-3.2-1.4-3.2-3.3zm5.3 0c0-1.3-.8-2.3-2.1-2.3s-2.1 1-2.1 2.3.8 2.3 2.1 2.3 2.1-1 2.1-2.3zm2.301 0c0-1.9 1.4-3.3 3.3-3.3 1.3 0 2.1.7 2.5 1.4l-.9.5c-.3-.5-.9-.9-1.6-.9-1.2 0-2.2 1-2.2 2.3s.9 2.3 2.2 2.3c.7 0 1.3-.4 1.6-.9l.9.5c-.5.8-1.3 1.4-2.5 1.4-1.8 0-3.3-1.3-3.3-3.3zm10.899 3.2-2.1-2.7-.5.6v2h-1.1v-6.3h1.1v3l2.5-3h1.4l-2.5 3 2.7 3.3h-1.5zm2.101-.9.6-.9c.4.5 1.1.9 2 .9s1.3-.4 1.3-.9c0-1.3-3.7-.5-3.7-2.8 0-1 .9-1.8 2.3-1.8 1 0 1.8.3 2.4.9l-.6.8c-.5-.5-1.2-.7-1.8-.7s-1.1.3-1.1.8c0 1.2 3.6.4 3.6 2.8 0 1.1-.7 1.9-2.4 1.9-1.2 0-2.1-.4-2.6-1zm7.9.9v-5.3h-1.9v-1h4.9v1h-1.9v5.3zm8.099 0-.5-1.2h-2.9l-.5 1.2h-1.3l2.5-6.3h1.4l2.5 6.3zm-1.9-5.2-1.1 3h2.3zm7.9 5.2-1.4-2.4h-1.1v2.4h-1.1v-6.3h2.8c1.2 0 2.1.8 2.1 2 0 1.1-.7 1.7-1.5 1.9l1.5 2.5h-1.3zm.1-4.4c0-.6-.5-1-1.1-1h-1.5v2h1.5c.6 0 1.1-.4 1.1-1zm2.2 3.5.6-.9c.4.5 1.1.9 2 .9s1.3-.4 1.3-.9c0-1.3-3.7-.5-3.7-2.8 0-1 .9-1.8 2.3-1.8 1 0 1.8.3 2.4.9l-.6.8c-.5-.5-1.2-.7-1.8-.7s-1.1.3-1.1.8c0 1.2 3.6.4 3.6 2.8 0 1.1-.7 1.9-2.4 1.9-1.2 0-2-.4-2.6-1z" fill="#999"/><path d="m127.101 22.8c-.4-.7-.9-1.2-1.5-1.6-.7-.4-1.5-.6-2.4-.6s-1.8.2-2.4.6c-.7.4-1.2.9-1.5 1.6-.2.4-.4.9-.4 1.4-.1.5-.1 1.1-.1 1.7v5c0 .6 0 1.2.1 1.7s.2 1 .4 1.4c.4.7.9 1.2 1.5 1.6.7.4 1.5.6 2.4.6s1.8-.2 2.4-.6c.7-.4 1.2-.9 1.5-1.6.2-.4.4-.9.4-1.4.1-.5.1-1.1.1-1.7v-5c0-.6 0-1.2-.1-1.7-.1-.6-.2-1-.4-1.4zm-2.5 8.5c0 .6-.1 1-.4 1.3s-.6.4-1.1.4-.8-.1-1.1-.4-.4-.7-.4-1.3v-5.9c0-.6.1-1 .4-1.3s.6-.4 1.1-.4.8.1 1.1.4.4.7.4 1.3zm14.6-10.7h-3.1l-3.7 6.8v-12.7h-3.1v21.4h3.1v-4.5l1.5-2.3 2.7 6.8h3.3l-4.4-9.2zm7.4.3c-.6-.2-1.2-.4-1.9-.4-1 0-1.8.2-2.4.6-.7.4-1.2.9-1.5 1.6-.2.4-.4.9-.4 1.4-.1.5-.1 1.1-.1 1.7v5c0 .6 0 1.2.1 1.7s.2 1 .4 1.4c.4.7.9 1.2 1.5 1.6.7.4 1.5.6 2.4.6.7 0 1.3-.1 1.9-.4.6-.2 1-.6 1.4-1 .8-.8 1.2-1.9 1.2-3.2h-3c0 .3-.2.7-.3 1-.2.3-.6.5-1.1.5s-.8-.1-1.1-.4-.4-.6-.4-1.1v-2.1h6v-4.2c0-1.4-.4-2.5-1.2-3.4-.4-.3-.9-.6-1.5-.9zm-.4 6.2h-3v-1.7c0-.6.1-1 .4-1.3s.6-.4 1.1-.4.8.1 1.1.4.4.7.4 1.3zm9.599-6c-.6.3-1.2.8-1.8 1.3v-1.8h-3v15.5h3v-9.1c0-.6.1-1.1.3-1.5s.5-.8.8-1c.3-.3.6-.4 1-.6.4-.1.7-.2 1-.2s.6.1.9.2v-3.2c-.8-.1-1.6 0-2.2.4zm-39.5 1.7c-.4-.7-.9-1.2-1.5-1.6-.7-.4-1.5-.6-2.4-.6h-4.5v18.7h3v-3.2h1.9c.8 0 1.5-.2 2.1-.6.7-.4 1.2-.9 1.5-1.6.2-.4.4-.9.4-1.4.1-.5.1-1.1.1-1.7v-5c0-.6 0-1.2-.1-1.7s-.3-.9-.5-1.3zm-2.4 8.5c0 .6-.1 1-.4 1.3s-.6.4-1.1.4h-1.5v-9.4h1.5c.5 0 .8.1 1.1.4s.4.7.4 1.3z" fill="#3387c8"/><path d="m65.4 28.6h-.1l-2.4-13.9h-2.4l-2.4 13.5-1.5-13.5h-3.3l3.2 21.4h2.9l2.3-13.9 2.3 13.9h2.9l3.2-21.4h-3.2zm13.8-5.8c-.4-.7-.9-1.2-1.5-1.6-.7-.4-1.5-.6-2.4-.6-1 0-1.8.2-2.4.6-.7.4-1.2.9-1.5 1.6-.2.4-.4.9-.4 1.4-.1.5-.1 1.1-.1 1.7v5c0 .6 0 1.2.1 1.7s.2 1 .4 1.4c.4.7.9 1.2 1.5 1.6.7.4 1.5.6 2.4.6 1 0 1.8-.2 2.4-.6.7-.4 1.2-.9 1.5-1.6.2-.4.4-.9.4-1.4.1-.5.1-1.1.1-1.7v-5c0-.6 0-1.2-.1-1.7 0-.6-.1-1-.4-1.4zm-2.4 8.5c0 .6-.1 1-.4 1.3s-.6.4-1.1.4-.8-.1-1.1-.4-.4-.7-.4-1.3v-5.9c0-.6.1-1 .4-1.3s.6-.4 1.1-.4.8.1 1.1.4.4.7.4 1.3zm7.802-8.9v-1.8h-3v15.5h3v-9.1c0-.6.1-1.1.3-1.5s.5-.8.8-1c.3-.3.6-.4 1-.6.4-.1.7-.2 1-.2s.6.1.9.2v-3.2c-.9 0-1.6.2-2.2.5-.6.2-1.2.6-1.8 1.2zm8.798-7.7h-3v21.4h3zm8.301 0v5.9h-1.5c-1 0-1.8.2-2.4.6-.7.4-1.2.9-1.5 1.6-.2.4-.4.9-.4 1.4-.1.5-.1 1.1-.1 1.7v5c0 .6 0 1.2.1 1.7s.2 1 .4 1.4c.4.7.9 1.2 1.5 1.6.7.4 1.5.6 2.4.6h4.5v-21.5zm-1.5 18.3c-.5 0-.8-.1-1.1-.4s-.4-.7-.4-1.3v-5.9c0-.6.1-1 .4-1.3s.6-.4 1.1-.4h1.5v9.3zm77.3-12.1c-.6-.2-1.2-.4-1.9-.4-1 0-1.8.2-2.4.6-.7.4-1.2.9-1.5 1.6-.2.4-.4.9-.4 1.4-.1.5-.1 1.1-.1 1.7v5c0 .6 0 1.2.1 1.7s.2 1 .4 1.4c.4.7.9 1.2 1.5 1.6.7.4 1.5.6 2.4.6.7 0 1.3-.1 1.9-.4s1-.6 1.4-1c.8-.8 1.2-1.9 1.2-3.2h-3c0 .3-.2.7-.3 1-.2.3-.6.5-1.1.5s-.8-.1-1.1-.4-.4-.6-.4-1.1v-2.1h6v-4.2c0-1.4-.4-2.5-1.2-3.4-.4-.3-.9-.6-1.5-.9zm-.4 6.2h-3v-1.7c0-.6.1-1 .4-1.3s.6-.4 1.1-.4.8.1 1.1.4.4.7.4 1.3zm12.7-5.3c-.4-.4-.9-.7-1.5-.9s-1.2-.3-1.8-.3c-.7 0-1.3.1-1.9.3s-1 .5-1.4.9c-.8.8-1.3 1.9-1.4 3.3h3c.1-.5.3-.9.6-1.1.3-.3.7-.4 1.1-.4.6 0 1 .2 1.2.5s.3.8.3 1.3v1.6h-1.4c-1 0-1.7.1-2.4.3-.6.2-1.1.5-1.5.9s-.6 1-.8 1.6c-.1.6-.2 1.4-.2 2.2s.1 1.5.3 2 .5.9.8 1.2.7.5 1.1.6.7.2 1.1.2c.7 0 1.3-.1 1.7-.4s.8-.7 1.2-1.3h.1v1.7h3v-10.6c0-.8-.1-1.5-.4-2.1-.1-.6-.4-1.1-.8-1.5zm-1.7 9.6c0 .6-.1 1.1-.4 1.4s-.7.5-1.2.5-.9-.2-1.2-.5c-.3-.4-.4-.8-.4-1.4 0-.8.2-1.4.7-1.7s1-.5 1.7-.5c.2 0 .5 0 .8.1zm8.001-16.7h-3v21.4h3zm10.3 14.3c-.4-.8-1.2-1.4-2.3-1.8l-1.8-.7c-.6-.2-.9-.5-1.1-.7-.1-.3-.2-.5-.2-.8 0-.4.1-.7.4-1.1.3-.3.6-.5 1.1-.5.4 0 .7.1 1.1.4.3.3.5.6.5 1.2h2.9c0-.6-.1-1.2-.3-1.7s-.5-1-.9-1.4-.8-.7-1.4-.9c-.5-.2-1.1-.3-1.7-.3s-1.2.1-1.7.3-1 .5-1.4.9-.7.9-1 1.4c-.2.5-.4 1.1-.4 1.8 0 1 .3 1.9.8 2.6s1.3 1.2 2.3 1.6l1.5.5c.6.2 1 .5 1.2.8s.3.7.3 1.1c0 .5-.2.9-.5 1.2s-.7.4-1.2.4c-.6 0-1-.2-1.2-.5-.2-.4-.4-.7-.4-1.2h-2.9c0 .8.2 1.4.4 2 .3.6.6 1 1 1.4.8.8 1.9 1.2 3.1 1.2.7 0 1.3-.1 1.8-.4.6-.2 1-.6 1.4-1s.7-.9.9-1.4.3-1.1.3-1.8c0-1-.2-1.8-.6-2.6zm-40.301-8.4h-1.5c-1 0-1.8.2-2.4.6-.7.4-1.2.9-1.5 1.6-.2.4-.4.9-.4 1.4-.1.5-.1 1.1-.1 1.7v5c0 .6 0 1.2.1 1.7s.2 1 .4 1.4c.4.7.9 1.2 1.5 1.6.7.4 1.5.6 2.4.6h4.5v-21.4h-3zm-1.5 12.4c-.5 0-.8-.1-1.1-.4s-.4-.7-.4-1.3v-5.9c0-.6.1-1 .4-1.3s.6-.4 1.1-.4h1.5v9.3z" fill="#e6e7e8"/><g fill="#3387c8"><path d="m7.5 28-.3.3s-2.4 2.5-2.4 6.1v.8c0 5.3 4.3 9.6 9.6 9.6 1.7 0 3.2-.4 4.6-1.2l5-2.8 5 2.8c1.4.7 2.9 1.2 4.6 1.2 5.3 0 9.6-4.3 9.6-9.6v-.8c0-3.6-2.4-6.1-2.4-6.1l-.5-.3c-4.3-2.7-10-4.4-16.3-4.4s-12.1 1.7-16.5 4.4z"/><path d="m29.9 48.6c-2-2-5.3-6-5.9-9.4-.6 3.4-3.9 7.3-5.9 9.4-.5.5-.1 1.4.6 1.4h10.6c.7 0 1.1-.9.6-1.4zm15.9-41.4c-1.2 0-2.2 1-2.2 2.2 0 .6.2 1.1.6 1.4-3.6 2.9-7.7 4.9-12.2 5.6-5.1-5.2-6.7-9.5-7.3-12.2.8-.3 1.4-1.1 1.4-2 0-1.2-.9-2.2-2.1-2.2s-2.2 1-2.2 2.2c0 .9.6 1.7 1.4 2-.5 2.5-2 6.5-6.3 11.2-.3.3-.6.7-1 1-4.5-.7-8.6-2.7-12.2-5.6.4-.4.6-.9.6-1.5 0-1.2-1-2.2-2.2-2.2-1.1.1-2.1 1-2.1 2.2s1 2.2 2.2 2.2c.2 0 .4 0 .6-.1 2.1 4.4 3.4 9.2 4.1 14.6 4-2.7 9.8-4.7 17.1-4.7 7.2 0 13.1 2 17.1 4.7.7-5.4 2-10.2 4.1-14.6.2.1.4.1.6.1 1.2 0 2.2-1 2.2-2.2-.1-1.2-1-2.1-2.2-2.1z"/></g></g></svg>