<svg width="208" height="50" fill="none" xmlns="http://www.w3.org/2000/svg"><path d="M45.164 7.078a2.123 2.123 0 0 0-1.573 3.555 25.253 25.253 0 0 1-12.053 5.543c-5.015-5.08-6.656-9.372-7.158-12.05a2.13 2.13 0 1 0-1.473 0c-.469 2.49-1.929 6.4-6.187 11.033-.322.348-.636.669-.978 1.03A25.246 25.246 0 0 1 3.69 10.647 2.102 2.102 0 0 0 3.9 8.03a2.13 2.13 0 1 0-1.77 3.312c.21-.005.418-.04.616-.107a47.112 47.112 0 0 1 4.018 14.38c3.944-2.678 9.702-4.64 16.847-4.64 7.145 0 12.903 2.008 16.847 4.64a47.151 47.151 0 0 1 4.017-14.387c.216.075.442.113.67.114a2.13 2.13 0 1 0 0-4.258l.02-.007zm63.933 29.69V16.203h4.768c.663.001 1.325.07 1.975.208.625.13 1.215.395 1.728.776.539.406.965.943 1.238 1.56.337.83.495 1.722.462 2.617v3.408a6.322 6.322 0 0 1-.462 2.618 4.056 4.056 0 0 1-1.218 1.593 4.257 4.257 0 0 1-1.715.783 9.647 9.647 0 0 1-1.975.208h-1.339v6.794h-3.462zm3.428-9.8h1.219a2.266 2.266 0 0 0 1.621-.476 2.173 2.173 0 0 0 .488-1.606V21.29a2.204 2.204 0 0 0-.488-1.634 2.266 2.266 0 0 0-1.621-.475h-1.219v7.786zm15.601 8.614a4.696 4.696 0 0 1-3.435 1.185 4.75 4.75 0 0 1-3.462-1.185c-.804-.794-1.206-2.033-1.206-3.715v-5.59c0-1.687.402-2.928 1.206-3.722a4.745 4.745 0 0 1 3.468-1.185 4.687 4.687 0 0 1 3.435 1.185c.804.799 1.205 2.04 1.205 3.722v5.59c-.004 1.678-.408 2.916-1.211 3.715zm-3.435-11.628a1.564 1.564 0 0 0-1.279.475c-.289.418-.426.92-.389 1.426v6.427c-.039.506.098 1.01.389 1.426a1.561 1.561 0 0 0 1.279.475c1.091 0 1.633-.67 1.633-1.901v-6.427c0-1.265-.542-1.9-1.633-1.9zm9.568 3.018a34.94 34.94 0 0 1 1.051-2.008l2.056-3.622h2.886l-3.482 6.42 3.777 8.977h-3.154l-2.585-6.333-1.279 2.203v4.13h-3.033V16.188h3.033v12.344c.215-.475.462-.997.73-1.56zm9.337 5.31c-.039.507.098 1.01.389 1.427a1.56 1.56 0 0 0 1.279.475c1.091 0 1.633-.67 1.633-1.901v-.221h2.793v-.194c0 1.678-.391 2.916-1.172 3.715a5.419 5.419 0 0 1-6.763 0c-.777-.794-1.165-2.033-1.165-3.715v-5.59c0-1.687.388-2.928 1.165-3.722a5.417 5.417 0 0 1 6.763 0c.781.799 1.172 2.04 1.172 3.722v3.682h-6.094v2.323zm3.301-4.786v-1.64c0-1.265-.542-1.901-1.633-1.901a1.564 1.564 0 0 0-1.279.475c-.289.417-.426.92-.389 1.426v1.64h3.301zm3.902-6.127h2.826v2.383c.027-.133.074-.262.14-.381.166-.38.392-.73.67-1.038a2.866 2.866 0 0 1 3.214-.77c.369.131.694.363.937.67.287.387.49.829.596 1.298.153.659.223 1.333.208 2.009v.836h-2.792v-.542a2.357 2.357 0 0 0-.355-1.5 1.278 1.278 0 0 0-1.339-.34 1.837 1.837 0 0 0-.951 1.124 2.69 2.69 0 0 0-.154.924v10.71h-3.033l.033-15.383z" fill="#2988C9"/><path d="M61.1 28.354c-.12-.89-.234-1.814-.341-2.778a58.61 58.61 0 0 1-.255-2.926c-.1.991-.194 1.969-.28 2.926a63.969 63.969 0 0 1-.316 2.778l-1.158 8.415h-4.018l-3.06-20.585h3.476l1.191 8.1c.161 1.191.302 2.316.436 3.347.134 1.031.24 2.182.341 3.347.074-1.191.174-2.316.295-3.347.12-1.03.268-2.196.448-3.407l1.186-8.034h3.394l1.159 8.1c.16 1.192.294 2.317.415 3.348.12 1.03.228 2.182.328 3.347.1-1.192.201-2.316.315-3.347.114-1.031.247-2.196.428-3.408l1.192-8.033h3.147l-3.06 20.572h-4.057L61.1 28.354zm16.404 7.229a5.612 5.612 0 0 1-6.896 0c-.804-.795-1.206-2.033-1.206-3.716v-5.59c0-1.686.402-2.927 1.206-3.722a5.612 5.612 0 0 1 6.896 0c.804.8 1.206 2.04 1.206 3.723v5.59c0 1.677-.402 2.916-1.206 3.715zM74.07 23.955a1.567 1.567 0 0 0-1.279.475c-.283.42-.417.921-.381 1.426v6.426a2.236 2.236 0 0 0 .381 1.426 1.566 1.566 0 0 0 1.28.476c1.09 0 1.64-.67 1.64-1.901v-6.427c-.013-1.265-.55-1.901-1.64-1.901zm5.802-2.585h2.826v2.383c.026-.134.076-.264.147-.381.166-.38.392-.73.67-1.038a2.86 2.86 0 0 1 3.214-.77c.369.131.694.363.937.67.286.387.49.83.596 1.299a8.12 8.12 0 0 1 .208 2.008v.837h-2.8v-.543a2.303 2.303 0 0 0-.354-1.5 1.272 1.272 0 0 0-1.34-.34 1.821 1.821 0 0 0-.91 1.15 2.678 2.678 0 0 0-.16.925v10.71H79.87V21.37zm9.887-5.186h3.032v20.585h-3.032V16.184zm87.824 16.1a2.237 2.237 0 0 0 .388 1.425 1.574 1.574 0 0 0 1.279.476c1.092 0 1.634-.67 1.634-1.901v-.221h2.799v-.195c0 1.68-.395 2.92-1.172 3.716a5.425 5.425 0 0 1-6.77 0c-.772-.795-1.158-2.033-1.158-3.716v-5.59c0-1.686.386-2.927 1.158-3.721a5.427 5.427 0 0 1 6.77 0c.777.796 1.172 2.008 1.172 3.722v3.682h-6.1v2.323zm3.301-4.787v-1.64c0-1.265-.542-1.901-1.634-1.901a1.568 1.568 0 0 0-1.279.475c-.285.418-.422.92-.388 1.426v1.64h3.301zm-12.719-11.313c.664.001 1.325.07 1.975.207.623.132 1.21.397 1.721.777.537.413.959.957 1.225 1.58.332.831.487 1.723.456 2.617v10.236a6.424 6.424 0 0 1-.456 2.61 3.927 3.927 0 0 1-1.225 1.58 4.32 4.32 0 0 1-1.748.77c-.649.14-1.311.21-1.975.208h-4.848V16.184h4.875zm-1.4 17.613h1.279a2.28 2.28 0 0 0 1.621-.476 2.223 2.223 0 0 0 .495-1.633V21.27a2.242 2.242 0 0 0-.495-1.64 2.28 2.28 0 0 0-1.621-.475h-1.279v14.64zm28.404-17.613h3.066v20.585h-3.033l-.033-20.585zm9.387 14.932a4.806 4.806 0 0 0-1.628-1.091 9.434 9.434 0 0 1-2.932-1.694 4.17 4.17 0 0 1-1.005-2.1 4.17 4.17 0 0 1 .275-2.311 3.652 3.652 0 0 1 2.276-2.236c2.264-.784 5.558-.215 6.275 2.436.13.519.191 1.052.18 1.587v.529h-2.792v-.495a2.016 2.016 0 0 0-.669-1.721 1.703 1.703 0 0 0-2.009.127 1.971 1.971 0 0 0-.469 1.962 2.83 2.83 0 0 0 1.487 1.251 9.94 9.94 0 0 1 3.046 1.755 4.689 4.689 0 0 1 1.406 3.5 4.395 4.395 0 0 1-1.192 3.067 4.687 4.687 0 0 1-3.314 1.084 4.598 4.598 0 0 1-3.348-1.124c-.768-.76-1.154-1.94-1.158-3.542v-.375h2.792v.67c0 .984.428 1.914 1.526 2.008 1.681.08 2.163-2.222 1.253-3.287zM100.412 16.184h-.107v7.089c-.278-.54-.688-1-1.192-1.339a3.128 3.128 0 0 0-1.841-.536 4.019 4.019 0 0 0-1.34.208 2.377 2.377 0 0 0-1.037.67c-.314.394-.542.85-.67 1.338a7.2 7.2 0 0 0-.247 2.049v6.841a7.181 7.181 0 0 0 .254 2.049c.125.49.353.946.67 1.339.28.311.638.542 1.037.67.432.144.885.214 1.34.207a3.195 3.195 0 0 0 2.008-.61c.54-.39.95-.934 1.179-1.56v2.17h2.893V16.184h-2.947zm-.12 15.892a2.227 2.227 0 0 1-.523 1.5 1.625 1.625 0 0 1-1.292.609 1.44 1.44 0 0 1-1.111-.402 2.25 2.25 0 0 1-.375-1.5v-6.426a2.256 2.256 0 0 1 .368-1.5 1.453 1.453 0 0 1 1.118-.401 1.626 1.626 0 0 1 1.292.609c.352.42.538.953.523 1.5v6.011zm93.556 1.353v-7.183c0-1.687-.373-2.92-1.119-3.702a4.4 4.4 0 0 0-3.347-1.171 4.513 4.513 0 0 0-3.348 1.171c-.795.786-1.192 2.02-1.192 3.702v.349h2.825v-.737a2.416 2.416 0 0 1 .362-1.44 1.404 1.404 0 0 1 1.219-.488 1.338 1.338 0 0 1 1.185.489 1.843 1.843 0 0 1-.409 2.57c-.574.362-1.179.673-1.808.931-.547.283-1.075.603-1.58.957a4.998 4.998 0 0 0-2.009 2.825c-.368 1.54-.107 3.702 1.34 4.606a3.621 3.621 0 0 0 3.836-.174 3.346 3.346 0 0 0 1.125-1.58v2.216h2.92v-2.062c0-.388.006-.817 0-1.279zm-3.034-1.338a2.27 2.27 0 0 1-.508 1.506 1.636 1.636 0 0 1-1.34.609 1.465 1.465 0 0 1-1.54-1.56 3.035 3.035 0 0 1 1.668-2.624c.549-.301 1.145-.515 1.687-.823.027.93.033 1.92.033 2.885v.007z" fill="#fff"/><path d="M58.148 43.223a3.27 3.27 0 0 1 3.428 3.387 3.347 3.347 0 0 1-3.428 3.388 3.264 3.264 0 0 1-3.192-2.064 3.258 3.258 0 0 1-.223-1.324 3.302 3.302 0 0 1 3.415-3.387zm0 5.697a2.158 2.158 0 0 0 2.21-2.31 2.194 2.194 0 0 0-2.21-2.31 2.177 2.177 0 0 0-2.19 2.31 2.214 2.214 0 0 0 2.19 2.31zm9.843.969l-3.616-4.546v4.546h-1.078v-6.56h.917l3.616 4.565v-4.566h1.078v6.56h-.917zm3.068-6.56h1.151v5.482h2.959v1.078h-4.11v-6.56zm5.563 0h1.151v6.56h-1.151v-6.56zm8.05 6.56l-3.616-4.546v4.546h-1.072v-6.56h.918l3.615 4.565v-4.566h1.079v6.56h-.925zm3.078-6.56h3.796v1.077H88.9v1.633h2.364v1.078H88.9v1.694h2.738v1.078H87.75v-6.56zm8.309 6.56v-6.56h1.861c1.935 0 2.545 1.03 2.545 2.108s-.838 2.095-2.404 2.095h-.85v2.37l-1.152-.013zm1.151-5.483v2.008c.275 0 .556.047.817.047.67 0 1.219-.328 1.219-1.058s-.422-1.024-1.212-1.024l-.824.027zm7.95-1.183a3.27 3.27 0 0 1 3.201 2.061c.167.422.244.873.227 1.326a3.352 3.352 0 0 1-.994 2.422 3.353 3.353 0 0 1-2.434.966 3.263 3.263 0 0 1-3.415-3.388 3.297 3.297 0 0 1 2.096-3.162 3.299 3.299 0 0 1 1.319-.225zm0 5.697a2.159 2.159 0 0 0 2.087-1.425 2.15 2.15 0 0 0 .122-.885 2.19 2.19 0 0 0-1.337-2.136 2.2 2.2 0 0 0-.872-.173 2.172 2.172 0 0 0-2.063 1.432c-.102.28-.145.58-.127.877a2.227 2.227 0 0 0 .606 1.618 2.217 2.217 0 0 0 1.584.692zm5.121-5.592h1.159v3.113l2.584-3.113h1.386l-2.678 3.053 2.873 3.508h-1.467l-2.678-3.348v3.348h-1.159l-.02-6.56zm6.678 0h3.803v1.078h-2.678v1.633h2.363v1.078h-2.363v1.694h2.738v1.078h-3.896l.033-6.56zm5.744 6.56v-6.56h2.009c1.788 0 2.384.89 2.384 2.008a1.9 1.9 0 0 1-1.273 1.881l2.056 2.678h-1.393l-1.814-2.457h-.804v2.457l-1.165-.006zm1.159-5.482v1.948h.749c.67 0 1.253-.335 1.253-1.01 0-.516-.282-.958-1.219-.958l-.783.02zm7.934 5.483v-6.56h2.009c1.788 0 2.384.89 2.384 2.007a1.894 1.894 0 0 1-1.272 1.882l2.055 2.677h-1.399l-1.808-2.457h-.804v2.457l-1.165-.006zm1.159-5.483v1.948h.75c.669 0 1.252-.335 1.252-1.01 0-.516-.281-.958-1.219-.958l-.783.02zm8.177-1.184a3.268 3.268 0 0 1 3.422 3.388 3.317 3.317 0 0 1-.979 2.432 3.317 3.317 0 0 1-2.443.955 3.255 3.255 0 0 1-2.453-.942 3.255 3.255 0 0 1-.962-2.445 3.314 3.314 0 0 1 .975-2.432 3.307 3.307 0 0 1 2.44-.956zm0 5.697a2.153 2.153 0 0 0 2.078-1.426c.101-.283.141-.584.119-.883a2.195 2.195 0 0 0-.6-1.635 2.205 2.205 0 0 0-3.2 0 2.198 2.198 0 0 0-.6 1.635 2.227 2.227 0 0 0 2.203 2.31zm10.23.334a3.023 3.023 0 0 1-2.103.743 3.391 3.391 0 0 1-3.388-3.387 3.388 3.388 0 0 1 3.388-3.387 2.961 2.961 0 0 1 2.009.67l-.576.85a2.477 2.477 0 0 0-1.48-.443 2.115 2.115 0 0 0-2.136 2.31 2.177 2.177 0 0 0 .625 1.661 2.172 2.172 0 0 0 1.652.649c.562 0 1.108-.186 1.553-.53l.456.864zm1.454-5.925h1.152v3.113l2.591-3.113h1.387l-2.679 3.053 2.873 3.508h-1.487l-2.678-3.348v3.348h-1.152l-.007-6.56zm6.293 1.706a1.868 1.868 0 0 1 2.049-1.814 2.537 2.537 0 0 1 1.875.67l-.623.863a1.51 1.51 0 0 0-1.165-.489c-.569 0-.917.295-.917.723 0 1.339 2.973.93 2.973 3.113 0 1.111-.964 1.861-2.19 1.861a2.428 2.428 0 0 1-2.149-1.03l.67-.79a2 2 0 0 0 1.506.742c.549 0 .958-.274.958-.77-.02-1.252-2.987-.944-2.987-3.08zm5.188-1.706h5.41v1.078h-2.129v5.483h-1.152v-5.483h-2.129v-1.078zm8.062-.02h1.017l2.759 6.581h-1.225l-.67-1.68h-2.792l-.67 1.68h-1.165l2.746-6.58zm-.482 3.823h1.921l-.957-2.33-.964 2.33zm5.646 2.758v-6.56h2.009c1.788 0 2.377.89 2.377 2.007a1.895 1.895 0 0 1-1.266 1.882l2.056 2.677h-1.406l-1.808-2.463h-.804v2.457h-1.158zm1.158-5.483v1.948h.75c.67 0 1.252-.335 1.252-1.01 0-.516-.281-.958-1.218-.958l-.784.02zm5.021.628a1.848 1.848 0 0 1 .625-1.353 1.85 1.85 0 0 1 1.417-.461 2.542 2.542 0 0 1 1.882.67l-.623.863a1.514 1.514 0 0 0-1.158-.489c-.576 0-.924.295-.924.723 0 1.339 2.973.93 2.973 3.113 0 1.111-.965 1.861-2.197 1.861a2.433 2.433 0 0 1-2.142-1.03l.669-.79a2.015 2.015 0 0 0 1.507.742c.549 0 .957-.274.957-.77-.013-1.252-2.986-.944-2.986-3.079z" fill="#C7C8CA"/><path d="M6.48 28.198a11.378 11.378 0 0 0-1.219 5.275 9.184 9.184 0 0 0 8.933 9.432 9.188 9.188 0 0 0 9.434-8.93A18.34 18.34 0 0 1 12.64 49.888h22.023a18.325 18.325 0 0 1-10.988-15.886 9.184 9.184 0 0 0 9.448 8.917 9.188 9.188 0 0 0 8.92-9.446 11.433 11.433 0 0 0-1.22-5.295c-4.171-2.986-10.044-5.135-17.175-5.135-7.13 0-12.996 2.176-17.168 5.155z" fill="#2988C9"/></svg>