<svg width="110" height="42" xmlns="http://www.w3.org/2000/svg"><defs><linearGradient x1="100%" y1="50%" x2="0%" y2="50%" id="a"><stop stop-color="#3C3A3C" offset="0%"/><stop stop-color="#2E2829" offset="78%"/></linearGradient><linearGradient x1="49.995%" y1="99.976%" x2="49.995%" y2="0%" id="b"><stop stop-color="#FFE60B" offset="0%"/><stop stop-color="#FFF8CB" offset="24%"/><stop stop-color="#CE8300" offset="56%"/><stop stop-color="#DCAD00" offset="100%"/></linearGradient><linearGradient x1="49.994%" y1="100%" x2="49.994%" y2="0%" id="c"><stop stop-color="#0F2E11" offset="0%"/><stop stop-color="#0D3011" offset="33%"/><stop stop-color="#07370F" offset="45%"/><stop stop-color="#003E0D" offset="50%"/><stop stop-color="#006E20" offset="91%"/><stop stop-color="#0F6911" offset="100%"/></linearGradient><linearGradient x1="50.003%" y1="99.983%" x2="50.003%" y2=".013%" id="d"><stop stop-color="#FFF29E" offset="0%"/><stop stop-color="#FFE60B" offset="23%"/><stop stop-color="#E7C708" offset="28%"/><stop stop-color="#B08102" offset="41%"/><stop stop-color="#9A6500" offset="47%"/><stop stop-color="#A57100" offset="48%"/><stop stop-color="#D5A700" offset="54%"/><stop stop-color="#F4C900" offset="58%"/><stop stop-color="#FFD600" offset="61%"/><stop stop-color="#FFE033" offset="63%"/><stop stop-color="#FFE85F" offset="66%"/><stop stop-color="#FFEE81" offset="69%"/><stop stop-color="#FFF39A" offset="72%"/><stop stop-color="#FFF6A9" offset="74%"/><stop stop-color="#FFF7AE" offset="76%"/><stop stop-color="#FFF7AB" offset="76%"/><stop stop-color="#FFF27E" offset="79%"/><stop stop-color="#FFEE57" offset="82%"/><stop stop-color="#FFEB37" offset="85%"/><stop stop-color="#FFE81F" offset="88%"/><stop stop-color="#FFE60E" offset="92%"/><stop stop-color="#FFE503" offset="96%"/><stop stop-color="#FFE500" offset="100%"/></linearGradient><linearGradient x1="50.035%" y1="100.145%" x2="50.035%" y2="0%" id="e"><stop stop-color="#FFF29E" offset="0%"/><stop stop-color="#FFE60B" offset="23%"/><stop stop-color="#E7C708" offset="28%"/><stop stop-color="#B08102" offset="41%"/><stop stop-color="#9A6500" offset="47%"/><stop stop-color="#A57100" offset="48%"/><stop stop-color="#D5A700" offset="54%"/><stop stop-color="#F4C900" offset="58%"/><stop stop-color="#FFD600" offset="61%"/><stop stop-color="#FFE033" offset="63%"/><stop stop-color="#FFE85F" offset="66%"/><stop stop-color="#FFEE81" offset="69%"/><stop stop-color="#FFF39A" offset="72%"/><stop stop-color="#FFF6A9" offset="74%"/><stop stop-color="#FFF7AE" offset="76%"/><stop stop-color="#FFF7AB" offset="76%"/><stop stop-color="#FFF27E" offset="79%"/><stop stop-color="#FFEE57" offset="82%"/><stop stop-color="#FFEB37" offset="85%"/><stop stop-color="#FFE81F" offset="88%"/><stop stop-color="#FFE60E" offset="92%"/><stop stop-color="#FFE503" offset="96%"/><stop stop-color="#FFE500" offset="100%"/></linearGradient><linearGradient x1="50.051%" y1="100%" x2="50.051%" y2="0%" id="f"><stop stop-color="#FFF29E" offset="0%"/><stop stop-color="#FFE60B" offset="23%"/><stop stop-color="#E7C708" offset="28%"/><stop stop-color="#B08102" offset="41%"/><stop stop-color="#9A6500" offset="47%"/><stop stop-color="#A57100" offset="48%"/><stop stop-color="#D5A700" offset="54%"/><stop stop-color="#F4C900" offset="58%"/><stop stop-color="#FFD600" offset="61%"/><stop stop-color="#FFE033" offset="63%"/><stop stop-color="#FFE85F" offset="66%"/><stop stop-color="#FFEE81" offset="69%"/><stop stop-color="#FFF39A" offset="72%"/><stop stop-color="#FFF6A9" offset="74%"/><stop stop-color="#FFF7AE" offset="76%"/><stop stop-color="#FFF7AB" offset="76%"/><stop stop-color="#FFF27E" offset="79%"/><stop stop-color="#FFEE57" offset="82%"/><stop stop-color="#FFEB37" offset="85%"/><stop stop-color="#FFE81F" offset="88%"/><stop stop-color="#FFE60E" offset="92%"/><stop stop-color="#FFE503" offset="96%"/><stop stop-color="#FFE500" offset="100%"/></linearGradient><linearGradient x1="49.947%" y1="100%" x2="49.947%" y2="0%" id="g"><stop stop-color="#FFF29E" offset="0%"/><stop stop-color="#FFE60B" offset="23%"/><stop stop-color="#E7C708" offset="28%"/><stop stop-color="#B08102" offset="41%"/><stop stop-color="#9A6500" offset="47%"/><stop stop-color="#A57100" offset="48%"/><stop stop-color="#D5A700" offset="54%"/><stop stop-color="#F4C900" offset="58%"/><stop stop-color="#FFD600" offset="61%"/><stop stop-color="#FFE033" offset="63%"/><stop stop-color="#FFE85F" offset="66%"/><stop stop-color="#FFEE81" offset="69%"/><stop stop-color="#FFF39A" offset="72%"/><stop stop-color="#FFF6A9" offset="74%"/><stop stop-color="#FFF7AE" offset="76%"/><stop stop-color="#FFF7AB" offset="76%"/><stop stop-color="#FFF27E" offset="79%"/><stop stop-color="#FFEE57" offset="82%"/><stop stop-color="#FFEB37" offset="85%"/><stop stop-color="#FFE81F" offset="88%"/><stop stop-color="#FFE60E" offset="92%"/><stop stop-color="#FFE503" offset="96%"/><stop stop-color="#FFE500" offset="100%"/></linearGradient></defs><g fill="none" fill-rule="evenodd"><path d="M107 42H86.09V0H107a3 3 0 0 1 3 3v36a3 3 0 0 1-3 3z" fill="url(#a)"/><rect fill="url(#b)" x=".48" y=".48" width="93.87" height="41.05" rx="2.52"/><path d="M91.82 1a2.05 2.05 0 0 1 2.05 2v36a2.05 2.05 0 0 1-2.05 2H3a2.05 2.05 0 0 1-2-2V3a2.05 2.05 0 0 1 2-2h88.82zm0-.95H3A3 3 0 0 0 0 3v36a3 3 0 0 0 3 3h88.82a3 3 0 0 0 3-3V3a3 3 0 0 0-3-3v.05z" fill="#FFD300" fill-rule="nonzero"/><path d="M3.88 2.24h87.07c.867 0 1.57.703 1.57 1.57v22.65a5 5 0 0 1-5 5H7.31a5 5 0 0 1-5-5V3.81c0-.867.703-1.57 1.57-1.57z" fill="url(#c)"/><path d="M19.07 17.36h8.66v.5a11.41 11.41 0 0 1-2 6.57A9.29 9.29 0 0 1 18 28.17 10.55 10.55 0 0 1 7.25 17.43 10.58 10.58 0 0 1 18.08 6.69a10.39 10.39 0 0 1 6.35 2.05 12.83 12.83 0 0 1 2.39 2.46l-1.71 1.56a10.78 10.78 0 0 0-2-2.15 7.62 7.62 0 0 0-5-1.74 8.3 8.3 0 0 0-8.5 8.59A8.32 8.32 0 0 0 18.05 26a7.23 7.23 0 0 0 6.35-3.5 6.7 6.7 0 0 0 .84-3h-6.17v-2.14z" fill="#0F2E12"/><path d="M35.1 7c2.09 0 3.83.25 5.23 1.46a5.78 5.78 0 0 1 1.9 4.45c0 2.93-1.84 5.83-6.57 5.83h-2v9h-2.3V7h3.74zm-1.46 9.56h1.9c2.74 0 4.39-1.37 4.39-3.77 0-3.3-3.08-3.61-4.58-3.61h-1.71v7.38z" fill="#0F2E12" fill-rule="nonzero"/><path fill="#0F2E12" d="M46.28 7L51.76 22.56 58.26 6 64.42 22.62 70.49 7 73 7 64.33 28.88 58.23 12.26 51.69 28.88 43.72 7z"/><path d="M84.62 21.94h-8.84l-2.49 5.85h-2.55L80.3 6l9.3 21.75h-2.55l-2.43-5.81zm-.9-2.18l-3.49-8.31-3.54 8.31h7.03z" fill="#0F2E12" fill-rule="nonzero"/><path d="M18.22 34.48l1.65 4.43h-1l-.33-1h-1.67l-.35 1h-1l1.68-4.43h1.02zm.05 2.72l-.56-1.62-.58 1.62h1.14zm4.3-2.72a1.7 1.7 0 0 1 .71.13c.177.069.337.174.47.31.118.135.21.291.27.46.052.172.08.35.08.53a1.88 1.88 0 0 1-.08.52 1.43 1.43 0 0 1-.27.46 1.5 1.5 0 0 1-.47.32 1.88 1.88 0 0 1-.71.12h-1v1.58h-1v-4.43h2zm-.27 2.09c.106.01.214.01.32 0a.62.62 0 0 0 .28-.09.61.61 0 0 0 .19-.2.82.82 0 0 0 .07-.34.83.83 0 0 0-.07-.35.61.61 0 0 0-.19-.2.62.62 0 0 0-.28-.09 1.66 1.66 0 0 0-.32 0h-.76v1.33l.76-.06zm4.62-2.09c.24-.008.479.036.7.13.181.066.345.172.48.31.118.135.21.291.27.46.052.172.08.35.08.53a1.88 1.88 0 0 1-.08.52 1.24 1.24 0 0 1-.75.78 1.83 1.83 0 0 1-.7.12h-1v1.58h-1v-4.43h2zm-.27 2.09c.106.01.214.01.32 0a.62.62 0 0 0 .28-.09.58.58 0 0 0 .18-.2.68.68 0 0 0 .08-.34.7.7 0 0 0-.08-.35.58.58 0 0 0-.18-.2.62.62 0 0 0-.28-.09 1.66 1.66 0 0 0-.32 0h-.76v1.33l.76-.06zm5.01-2.09c.181.001.36.035.53.1a1.15 1.15 0 0 1 .67.65c.06.153.091.316.09.48a1.3 1.3 0 0 1-.16.67 1 1 0 0 1-.54.44.71.71 0 0 1 .3.15.88.88 0 0 1 .19.24c.051.098.088.202.11.31v.34a2.09 2.09 0 0 0 0 .24v.3a2.74 2.74 0 0 0 0 .28.64.64 0 0 0 .1.22h-1a1.43 1.43 0 0 1-.1-.5 5 5 0 0 0-.06-.56.86.86 0 0 0-.21-.51.74.74 0 0 0-.53-.16h-1v1.73h-1v-4.42h2.61zm-.35 2a.73.73 0 0 0 .5-.15.62.62 0 0 0 .17-.48.58.58 0 0 0-.17-.47.73.73 0 0 0-.5-.15h-1.07v1.25h1.07zm2.63-.68a2.09 2.09 0 0 1 .43-.74 1.92 1.92 0 0 1 .69-.5 2.21 2.21 0 0 1 .91-.18c.316-.005.63.056.92.18a1.8 1.8 0 0 1 .68.5c.193.214.34.466.43.74.102.296.153.607.15.92a2.66 2.66 0 0 1-.15.9 2.14 2.14 0 0 1-.43.73 1.89 1.89 0 0 1-.68.49A2.43 2.43 0 0 1 36 39a2.38 2.38 0 0 1-.91-.17 2 2 0 0 1-.69-.49 2.14 2.14 0 0 1-.43-.73 2.66 2.66 0 0 1-.15-.9 2.73 2.73 0 0 1 .12-.91zm.89 1.46c.047.169.118.33.21.48.096.138.222.25.37.33a1.1 1.1 0 0 0 .56.13 1.08 1.08 0 0 0 .56-.13 1 1 0 0 0 .37-.33c.1-.145.171-.308.21-.48a2.42 2.42 0 0 0 .07-.54 2.69 2.69 0 0 0-.07-.57 1.3 1.3 0 0 0-.21-.48.93.93 0 0 0-.37-.34 1.08 1.08 0 0 0-.53-.13 1.1 1.1 0 0 0-.56.13 1 1 0 0 0-.37.34 1.75 1.75 0 0 0-.21.48 2.69 2.69 0 0 0-.06.57c-.01.18 0 .362.03.54z" fill="#000" fill-rule="nonzero"/><path fill="#000" d="M40 38.91L38.57 34.48 39.57 34.48 40.57 37.6 40.57 37.6 41.57 34.48 42.57 34.48 41.1 38.91z"/><path fill="#000" d="M46.52 34.48L46.52 35.3 44.19 35.3 44.19 36.3 46.33 36.3 46.33 37 44.19 37 44.19 38.1 46.57 38.1 46.57 38.91 43.21 38.91 43.21 34.48z"/><path d="M49.47 34.48c.273 0 .544.047.8.14.241.087.46.227.64.41.187.194.33.426.42.68.11.322.16.66.15 1a3.16 3.16 0 0 1-.12.9 1.94 1.94 0 0 1-.38.71 1.71 1.71 0 0 1-.62.46 2.05 2.05 0 0 1-.89.17h-1.91v-4.47h1.91zm-.07 3.62a1.35 1.35 0 0 0 .41-.07.92.92 0 0 0 .36-.23c.11-.12.194-.258.25-.41.064-.2.095-.41.09-.62a2.27 2.27 0 0 0-.07-.61 1.14 1.14 0 0 0-.21-.46.87.87 0 0 0-.39-.29 1.58 1.58 0 0 0-.61-.11h-.69v2.8h.86zm6.73-3.62a1.7 1.7 0 0 1 .71.13c.177.069.337.174.47.31.118.135.21.291.27.46.052.172.08.35.08.53a1.88 1.88 0 0 1-.08.52 1.43 1.43 0 0 1-.27.46 1.5 1.5 0 0 1-.47.32 1.88 1.88 0 0 1-.71.12h-1v1.58h-1v-4.43h2zm-.27 2.09c.11.01.22.01.33 0a.62.62 0 0 0 .27-.09.61.61 0 0 0 .19-.2.82.82 0 0 0 .07-.34.83.83 0 0 0-.07-.35.61.61 0 0 0-.19-.2.62.62 0 0 0-.27-.09 1.84 1.84 0 0 0-.33 0h-.75v1.33l.75-.06zm2.64-.77a2.25 2.25 0 0 1 .43-.74 1.92 1.92 0 0 1 .69-.5 2.42 2.42 0 0 1 1.83 0 1.8 1.8 0 0 1 .68.5c.193.214.34.466.43.74.102.296.153.607.15.92a2.66 2.66 0 0 1-.15.9 2.14 2.14 0 0 1-.43.73 1.89 1.89 0 0 1-.68.49 2.55 2.55 0 0 1-1.83 0 2 2 0 0 1-.69-.49 2.31 2.31 0 0 1-.43-.73 2.65 2.65 0 0 1-.14-.9 2.73 2.73 0 0 1 .14-.92zm.89 1.46c.047.169.118.33.21.48.096.138.222.25.37.33a1.1 1.1 0 0 0 .56.13 1.08 1.08 0 0 0 .56-.13 1 1 0 0 0 .37-.33c.1-.145.171-.308.21-.48a2.42 2.42 0 0 0 .07-.54 2.69 2.69 0 0 0-.07-.57 1.3 1.3 0 0 0-.21-.48.93.93 0 0 0-.37-.34 1.08 1.08 0 0 0-.56-.13 1.1 1.1 0 0 0-.56.13 1 1 0 0 0-.37.34 1.75 1.75 0 0 0-.21.48 2.69 2.69 0 0 0-.06.57c0 .182.02.363.06.54zm6.66-2.78c.185 0 .368.034.54.1.152.059.292.147.41.26a1.4 1.4 0 0 1 .26.39c.06.153.091.316.09.48a1.31 1.31 0 0 1-.17.67 1 1 0 0 1-.53.44.71.71 0 0 1 .35.18c.074.07.138.152.19.24.047.1.084.203.11.31v.34c.005.08.005.16 0 .24v.3a1.37 1.37 0 0 0 0 .28.5.5 0 0 0 .1.22h-1a1.43 1.43 0 0 1-.1-.5l-.06-.56a.86.86 0 0 0-.21-.51.76.76 0 0 0-.53-.16h-1v1.73h-1v-4.45h2.55zm-.35 2a.74.74 0 0 0 .51-.15.62.62 0 0 0 .16-.48.58.58 0 0 0-.16-.47.74.74 0 0 0-.51-.15h-1.06v1.25h1.06z" fill="#000" fill-rule="nonzero"/><path fill="#000" d="M68.06 35.3L68.06 34.48 71.69 34.48 71.69 35.3 70.36 35.3 70.36 38.91 69.36 38.91 69.36 35.3z"/><path d="M74.27 34.48l1.66 4.43h-1l-.34-1h-1.67l-.34 1h-1l1.67-4.43h1.02zm.06 2.72l-.56-1.62-.58 1.62h1.14z" fill="#000" fill-rule="nonzero"/><path fill="#000" d="M77.6 34.48L77.6 38.1 79.76 38.1 79.76 38.91 76.63 38.91 76.63 34.48z"/><path d="M98.81 32.19a.84.84 0 0 0-.34.43.93.93 0 0 0 0 .29.88.88 0 0 0 .11.47.87.87 0 0 0 .28.32c.128.083.27.14.42.17a1.84 1.84 0 0 0 .93 0 1.15 1.15 0 0 0 .41-.17 1 1 0 0 0 .28-.32 1 1 0 0 0 .11-.47.78.78 0 0 0-.23-.59 1.1 1.1 0 0 0-.61-.26v-.8a2 2 0 0 1 .63.16c.184.085.35.204.49.35.132.145.234.315.3.5.073.205.11.422.11.64a1.89 1.89 0 0 1-.15.77 1.65 1.65 0 0 1-.41.58 1.93 1.93 0 0 1-.62.37 2.39 2.39 0 0 1-.77.12 2.43 2.43 0 0 1-.77-.12 2 2 0 0 1-.63-.37 1.55 1.55 0 0 1-.42-.58 1.89 1.89 0 0 1-.15-.77c0-.2.03-.4.09-.59a1.52 1.52 0 0 1 .25-.49 1.68 1.68 0 0 1 .43-.36 1.73 1.73 0 0 1 .57-.18v.8a.64.64 0 0 0-.31.1z" fill="#CCC"/><path fill="#CCC" d="M97.82 29.63L100.87 29.63 100.87 27.8 101.56 27.8 101.56 30.45 97.82 30.45z"/><path fill="#CCC" d="M97.82 26.3L101.56 26.3 101.56 27.13 97.82 27.13z"/><path d="M98.81 22.91a1.12 1.12 0 0 0-.2.18.89.89 0 0 0-.14.25.93.93 0 0 0 0 .29.9.9 0 0 0 .39.79c.13.082.271.143.42.18.156.015.314.015.47 0 .153.016.307.016.46 0a1.38 1.38 0 0 0 .41-.18.93.93 0 0 0 .28-.31 1 1 0 0 0 .11-.48.78.78 0 0 0-.23-.59 1.1 1.1 0 0 0-.61-.26V22a1.77 1.77 0 0 1 1.12.5c.13.15.232.323.3.51.074.202.111.415.11.63a1.94 1.94 0 0 1-.15.78 1.67 1.67 0 0 1-1 .94 2.39 2.39 0 0 1-.77.13 2.44 2.44 0 0 1-.77-.13 1.79 1.79 0 0 1-.71-.36 1.63 1.63 0 0 1-.42-.58 1.94 1.94 0 0 1-.15-.78 1.85 1.85 0 0 1 .09-.58c.05-.181.135-.35.25-.5a1.68 1.68 0 0 1 .43-.36 1.52 1.52 0 0 1 .57-.17v.79a.82.82 0 0 0-.26.09z" fill="#CCC"/><path fill="#CCC" d="M97.82 20.35L99.37 20.35 97.82 18.89 97.82 17.89 99.3 19.35 101.56 17.75 101.56 18.75 99.88 19.88 100.36 20.35 101.56 20.35 101.56 21.18 97.82 21.18z"/><path fill="#CCC" d="M98.51 14.45L97.82 14.45 97.82 11.38 98.51 11.38 98.51 12.5 101.51 12.5 101.51 13.32 98.51 13.32z"/><path d="M98.93 10.81a2.16 2.16 0 0 1-.63-.36 1.63 1.63 0 0 1-.42-.58 2.1 2.1 0 0 1 0-1.56 1.6 1.6 0 0 1 .42-.57 2 2 0 0 1 .63-.37 2.43 2.43 0 0 1 .77-.12 2.39 2.39 0 0 1 .77.12c.228.083.438.209.62.37a1.7 1.7 0 0 1 .41.57c.2.5.2 1.06 0 1.56a1.74 1.74 0 0 1-.41.58 2.1 2.1 0 0 1-.62.36 2.39 2.39 0 0 1-.77.12 2.43 2.43 0 0 1-.77-.12zm1.23-.75a1.38 1.38 0 0 0 .41-.18.94.94 0 0 0 .39-.79 1 1 0 0 0-.11-.47 1 1 0 0 0-.28-.32 1.15 1.15 0 0 0-.41-.17 1.84 1.84 0 0 0-.93 0 1.2 1.2 0 0 0-.42.17.87.87 0 0 0-.28.32.88.88 0 0 0-.11.47.94.94 0 0 0 .39.79c.13.082.271.143.42.18.156.015.314.015.47 0 .153.016.307.016.46 0z" fill="#CCC" fill-rule="nonzero"/><path fill="#CCC" d="M107.29 29.9L103.54 31.11 103.54 30.26 106.18 29.43 106.18 29.43 103.54 28.58 103.54 27.73 107.29 29z"/><path fill="#CCC" d="M103.54 24.32L104.24 24.32 104.24 26.32 105.04 26.32 105.04 24.49 105.68 24.49 105.68 26.3 106.6 26.3 106.6 24.3 107.29 24.3 107.29 27.15 103.54 27.15z"/><path d="M103.54 21.41c0-.154.027-.306.08-.45.053-.13.131-.25.23-.35a1 1 0 0 1 .32-.22 1.1 1.1 0 0 1 .41-.07 1.14 1.14 0 0 1 .57.13 1 1 0 0 1 .37.46.5.5 0 0 1 .13-.25.67.67 0 0 1 .2-.17c.083-.04.17-.07.26-.09h.74a1 1 0 0 0 .24 0l.19-.08V21a1.31 1.31 0 0 1-.42.08l-.48.05a.78.78 0 0 0-.43.18.62.62 0 0 0-.13.45v.82h1.46v.82h-3.75l.01-1.99zm1.7.3a.61.61 0 0 0-.13-.43.53.53 0 0 0-.41-.14.5.5 0 0 0-.39.14.61.61 0 0 0-.13.43v.9h1.06v-.9z" fill="#CCC" fill-rule="nonzero"/><path fill="#CCC" d="M103.54 18.57L107.29 18.57 107.29 19.39 103.54 19.39z"/><path fill="#CCC" d="M103.54 14.94L104.24 14.94 104.24 16.75 105.1 16.75 105.1 15.18 105.74 15.18 105.74 16.75 107.29 16.75 107.29 17.57 103.54 17.57z"/><path fill="#CCC" d="M103.54 14.47L103.54 13.55 105.02 12.67 103.54 11.8 103.54 10.88 105.85 12.27 107.29 12.27 107.29 13.1 105.83 13.1z"/><path d="M18.45 16.74h8.65v.5a11.45 11.45 0 0 1-2 6.57 9.32 9.32 0 0 1-7.72 3.73A10.55 10.55 0 0 1 6.62 16.81 10.59 10.59 0 0 1 17.45 6.07a10.35 10.35 0 0 1 6.35 2 12.6 12.6 0 0 1 2.4 2.46l-1.71 1.56a11.09 11.09 0 0 0-2-2.15 7.62 7.62 0 0 0-5-1.74A8.3 8.3 0 0 0 9 16.84a8.32 8.32 0 0 0 8.43 8.53 7.24 7.24 0 0 0 6.35-3.49 6.45 6.45 0 0 0 .84-3h-6.17v-2.14z" fill="url(#d)"/><path d="M34.48 6.41c2.09 0 3.83.25 5.23 1.46a5.78 5.78 0 0 1 1.9 4.45c0 2.93-1.84 5.82-6.57 5.82H33v9h-2.3V6.41h3.78zM33 16h1.9c2.74 0 4.39-1.37 4.39-3.77 0-3.3-3.09-3.61-4.58-3.61H33V16z" fill="url(#e)" fill-rule="nonzero"/><path fill="url(#f)" d="M45.66 6.41L51.13 22 57.64 5.35 63.8 22 69.87 6.41 72.42 6.41 63.71 28.26 57.61 11.64 51.07 28.26 43.07 6.41z"/><path d="M84 21.32h-8.84l-2.49 5.85h-2.55l9.56-21.76L89 27.17h-2.57L84 21.32zm-.9-2.18l-3.49-8.31-3.54 8.31h7.03z" fill="url(#g)" fill-rule="nonzero"/></g></svg>