<svg width="81" height="42" xmlns="http://www.w3.org/2000/svg"><g fill="none" fill-rule="evenodd"><path d="M17.815 0H.523A.525.525 0 0 0 0 .523v25.151a16.245 16.245 0 0 0 16.245 16.247h1.577c8.97-.004 16.239-7.277 16.238-16.247v-9.429A16.245 16.245 0 0 0 17.815 0zm11.029 25.945c0 6.117-4.494 10.735-11.484 10.735-8.28 0-12.15-4.91-12.15-11.65v-8.155c0-6.738 3.87-11.652 12.15-11.652 6.699 0 9.736 3.83 10.943 7.657.167.583-.041.915-.498 1.082l-4.494 1.331c-.542.167-.833 0-1.004-.54-.708-2.293-2.206-3.538-4.95-3.538-4.245 0-5.66 2.497-5.66 5.867v7.741c0 3.37 1.415 5.867 5.66 5.867 3.494 0 5.324-1.623 5.324-5.16v-1.004h-4.655c-.375 0-.624-.208-.624-.665v-4.286c0-.417.25-.666.624-.666h10.153c.415 0 .665.207.665.625v6.411z" fill="#372580" fill-rule="nonzero"/><text font-family="MyFontRegular, My Font" font-size="9" fill="#FFF"><tspan x="40" y="12">Problem</tspan> <tspan x="40" y="24">Gambling</tspan> <tspan x="40" y="36">Support</tspan></text></g></svg>