<svg width="150" height="42" xmlns="http://www.w3.org/2000/svg"><defs><radialGradient cx="2.013%" cy="62.048%" fx="2.013%" fy="62.048%" r="273.405%" gradientTransform="matrix(.28 0 0 1 .014 0)" id="a"><stop stop-color="#8F2A77" offset="11%"/><stop stop-color="#5B1768" offset="100%"/></radialGradient></defs><g transform="translate(0 -1)" fill="none" fill-rule="evenodd"><path d="M21 1h126a3 3 0 0 1 3 3v36a3 3 0 0 1-3 3H21C9.402 43 0 33.598 0 22S9.402 1 21 1z" fill="url(#a)" fill-rule="nonzero"/><path d="M37.07 8.28v.16a2.72 2.72 0 1 0 0-5.44 2.72 2.72 0 0 0 0 5.44v-.32a2.43 2.43 0 0 1-1.7-.7 2.4 2.4 0 0 1 0-3.39 2.43 2.43 0 0 1 1.7-.7 2.41 2.41 0 0 1 2.4 2.39 2.36 2.36 0 0 1-.71 1.7 2.39 2.39 0 0 1-1.69.7v.16z" fill="#FFF"/><path d="M38.55 5.52h-.62a1.45 1.45 0 0 1-.15.67l-.5-.53.17-.14a.9.9 0 0 0 .34-.67.8.8 0 0 0-.79-.75.83.83 0 0 0-.93.76.93.93 0 0 0 .3.66c-.45.28-.61.53-.61.89 0 .56.47.94 1.17.94a1.28 1.28 0 0 0 .9-.31l.22.23h.82l-.62-.64a2 2 0 0 0 .3-1.11zm-1.66-.2l-.06-.06c-.17-.18-.21-.25-.21-.36a.3.3 0 0 1 .31-.29.29.29 0 0 1 .3.27c0 .12-.09.27-.34.44zm.52 1.34a.78.78 0 0 1-.5.17.51.51 0 0 1-.55-.45c0-.16.11-.3.33-.46l.72.74z" fill="#FFF"/><path fill="#43225E" d="M16.1 8.41L17.62 4.97 25.46 4.81 28.19 11.46z"/><path d="M3.58 22c.006 9.792 7.948 17.726 17.74 17.72 9.792-.006 17.726-7.948 17.72-17.74-.006-9.792-7.948-17.726-17.74-17.72A17.72 17.72 0 0 0 3.58 22M18.25 7h6.27l7.92 22.43h-6L21.31 13l-5.19 16.5h-6L18.25 7" fill="#FFF"/><path d="M24.48 26.2a3.22 3.22 0 1 1-3.21-3.2 3.21 3.21 0 0 1 3.21 3.21m-7.84 6.49c.09.46.13 1.05.19 1.64V34c0-.39.06-.78.12-1.17l.35-2.51h.89l-.86 4.6h-1L16 33.1c-.09-.48-.12-1-.18-1.46-.06.49-.09 1-.18 1.46l-.31 1.82h-1l-.88-4.6h.89l.39 2.51c.06.39.1.78.13 1.17v.34c.06-.59.11-1.18.19-1.64l.42-2.38h.71l.46 2.38m2.97.38h.73l-.23-1.31c0-.21-.06-.42-.09-.64-.03-.22 0-.2 0-.3v.3c0 .22 0 .43-.09.64l-.32 1.31zm-1.29 1.84l1.1-4.6h1.16l1 4.6h-.88l-.22-1.17h-1l-.23 1.17h-.93zm4.62-2.66h.68c.28 0 .5-.2.5-.66s-.21-.6-.54-.61h-.64v1.27zm0 .68v2h-.85v-4.6h1.62c.74 0 1.31.26 1.31 1.1 0 .51-.13 1-.71 1.11.51.06.66.39.66.83 0 .19 0 1.32.19 1.45v.09h-.95a5 5 0 0 1-.09-1.17c0-.28 0-.66-.29-.75a2.58 2.58 0 0 0-.73-.06h-.16zm4.16 1.3c.77 0 .82-.4.82-1.73 0-1.09-.11-1.52-.63-1.52h-.56v3.25h.37zm-1.23.68v-4.6h1.79c.367.008.703.204.89.52.218.5.304 1.047.25 1.59 0 .91 0 2-.7 2.37-.2.094-.42.135-.64.12h-1.59zm5.48-3.2c0-.41 0-.82-.5-.82-.29 0-.48.12-.48.43s.22.49.5.66a7.62 7.62 0 0 1 1 .75c.274.257.414.626.38 1A1.26 1.26 0 0 1 30.88 35a1.24 1.24 0 0 1-1.4-1.4v-.34h.86v.27c0 .45.11.78.54.78a.47.47 0 0 0 .53-.54.7.7 0 0 0-.34-.61 6.71 6.71 0 0 1-1.36-1.06 1.29 1.29 0 0 1-.22-.71c0-.78.44-1.21 1.35-1.21 1.37 0 1.33 1.05 1.34 1.51h-.83m-19.9 1.39h.74L12 31.77c0-.21-.06-.42-.08-.64v-.3.3c0 .22 0 .43-.08.64l-.39 1.31zm-1.28 1.84l1.09-4.6h1.16l1.05 4.6h-.92l-.23-1.17h-1l-.22 1.17h-.93z" fill="#000" fill-rule="nonzero"/><path d="M25.48 2a.502.502 0 1 0-.09-1h-.08a.49.49 0 0 0-.4.56.5.5 0 0 0 .37.38c-.2.64-.64 1.93-.91 2-.27.07-.61-1.16-.79-1.82a.47.47 0 0 0 .26-.51.48.48 0 0 0-.48-.4h-.08a.5.5 0 0 0-.4.57.48.48 0 0 0 .32.37c-.25.74-.75 2.13-1.05 2.19-.3.06-1.15-1.14-1.58-1.79a.49.49 0 0 0 .16-.46.47.47 0 0 0-.47-.4h-.09a.48.48 0 0 0-.39.56.49.49 0 0 0 .35.38c-.1.74-.33 2.1-.66 2.16-.33.06-1.39-1-1.94-1.62a.5.5 0 0 0 .15-.45.48.48 0 0 0-.47-.4h-.09a.48.48 0 0 0-.39.56.48.48 0 0 0 .45.4c.14.68.37 1.93.11 2-.26.07-1.25-1-1.73-1.5a.49.49 0 0 0-.22-.92h-.09a.49.49 0 0 0-.39.57.48.48 0 0 0 .52.39l1.46 3.37c-.07 0 0 .37 0 .43l.13.75a.18.18 0 0 0-.07.18c0 .13.14.15.4.13.26-.02 1.59-.17 4-.6 2.41-.43 3.73-.76 4-.83.27-.07.36-.14.33-.26a.19.19 0 0 0-.13-.15l-.14-.78s-.07-.34-.13-.34L25.42 2h.06" fill="#EFD500"/><path d="M46.93 7.28h2.77c1.52 0 2.3.72 2.3 1.77a1.47 1.47 0 0 1-1.24 1.48v.07a1.6 1.6 0 0 1 1.51 1.68c0 1.1-.82 1.91-2.38 1.91h-3l.04-6.91zm2.55 2.89a.92.92 0 0 0 1-.88c0-.5-.37-.83-1-.83h-1.09v1.71h1.09zm.11 2.83c.81 0 1.17-.34 1.17-.86s-.44-1-1.14-1h-1.23V13h1.2z" fill="#FFF" fill-rule="nonzero"/><path fill="#FFF" fill-rule="nonzero" d="M53.52 7.28L58.17 7.28 58.17 8.48 55 8.48 55 10.13 58 10.13 58 11.33 55 11.33 55 13 58.21 13 58.21 14.21 53.52 14.21z"/><path d="M62 8.41c-.71 0-1.11.32-1.11.77s.53.72 1.11.82l.62.15c1.2.27 2.07.88 2.08 2 .01 1.12-1 2.07-2.69 2.07s-2.74-.77-2.78-2.26h1.42c0 .69.59 1 1.35 1 .76 0 1.22-.34 1.22-.85s-.42-.68-1.17-.86l-.75-.19c-1.17-.28-1.89-.87-1.89-1.88 0-1.26 1.11-2.09 2.62-2.09s2.57.91 2.59 2.18h-1.4c-.05-.55-.48-.86-1.22-.86z" fill="#FFF" fill-rule="nonzero"/><path fill="#FFF" fill-rule="nonzero" d="M65.57 7.28L71.24 7.28 71.24 8.48 69.13 8.48 69.13 14.19 67.68 14.19 67.68 8.48 65.57 8.48z"/><path fill="#FFF" fill-rule="nonzero" d="M80.16 14.19L78.9 14.19 75.9 9.84 75.84 9.84 75.84 14.19 74.38 14.19 74.38 7.28 75.67 7.28 78.67 11.62 78.73 11.62 78.73 7.28 80.18 7.28z"/><path d="M84.7 14.28c-1.84 0-3.23-1.3-3.23-3.55s1.39-3.54 3.23-3.54 3.24 1.28 3.24 3.54-1.4 3.55-3.24 3.55zm0-5.8c-1.06 0-1.75.79-1.75 2.25S83.64 13 84.7 13s1.76-.79 1.76-2.26c0-1.47-.7-2.26-1.76-2.26z" fill="#FFF" fill-rule="nonzero"/><path fill="#FFF" fill-rule="nonzero" d="M95 14.19L93.77 14.19 90.77 9.84 90.77 9.84 90.77 14.19 89.26 14.19 89.26 7.28 90.54 7.28 93.54 11.62 93.6 11.62 93.6 7.28 95 7.28z"/><path fill="#FFF" fill-rule="nonzero" d="M100 11.79L96.5 11.79 96.5 10.79 100 10.79z"/><path fill="#FFF" fill-rule="nonzero" d="M101.44 7.28L106.1 7.28 106.1 8.48 102.9 8.48 102.9 10.13 105.9 10.13 105.9 11.33 102.9 11.33 102.9 13 106.11 13 106.11 14.21 101.44 14.21z"/><path fill="#FFF" fill-rule="nonzero" d="M113.31 14.19L112.05 14.19 109.05 9.84 109.05 9.84 109.05 14.19 107.59 14.19 107.59 7.28 108.87 7.28 111.87 11.62 111.93 11.62 111.93 7.28 113.38 7.28z"/><path d="M117.83 7.19a2.84 2.84 0 0 1 3 2.32h-1.5a1.43 1.43 0 0 0-1.48-1c-1 0-1.73.82-1.73 2.25 0 1.43.69 2.26 1.77 2.26a1.43 1.43 0 0 0 1.56-1.4H118v-1.13h2.89v.87a2.79 2.79 0 0 1-3 2.92c-1.94 0-3.25-1.36-3.25-3.54 0-2.18 1.36-3.55 3.19-3.55z" fill="#FFF" fill-rule="nonzero"/><path fill="#FFF" fill-rule="nonzero" d="M122.24 7.28L123.7 7.28 123.7 13 126.7 13 126.7 14.21 122.28 14.21z"/><path fill="#FFF" fill-rule="nonzero" d="M129.21 14.19L127.75 14.19 127.75 7.28 129.21 7.28z"/><path d="M133.27 8.41c-.72 0-1.11.32-1.11.77s.49.72 1.09.85l.62.15c1.2.27 2.07.88 2.07 2s-1 2.07-2.68 2.07c-1.68 0-2.75-.77-2.78-2.26h1.41c.05.69.59 1 1.35 1 .76 0 1.22-.34 1.23-.85.01-.51-.42-.68-1.18-.86l-.75-.19c-1.17-.28-1.88-.87-1.88-1.88 0-1.26 1.1-2.09 2.62-2.09s2.55.85 2.57 2.08h-1.4c-.06-.48-.45-.79-1.18-.79z" fill="#FFF" fill-rule="nonzero"/><path fill="#FFF" fill-rule="nonzero" d="M137.21 7.28L138.67 7.28 138.67 10.13 141.67 10.13 141.67 7.28 143.13 7.28 143.13 14.19 141.67 14.19 141.67 11.33 138.67 11.33 138.67 14.19 137.21 14.19z"/><path d="M46.56 25.19l2.38-6.91h1.89l2.38 6.91h-1.57l-.51-1.58h-2.49l-.51 1.58h-1.57zm4.2-2.72l-.85-2.61-.91 2.61h1.76z" fill="#FFF" fill-rule="nonzero"/><path fill="#FFF" fill-rule="nonzero" d="M54.22 18.28L58.79 18.28 58.79 19.48 55.68 19.48 55.68 21.13 58.48 21.13 58.48 22.33 55.68 22.33 55.68 25.19 54.22 25.19z"/><path fill="#FFF" fill-rule="nonzero" d="M59.91 18.28L64.48 18.28 64.48 19.48 61.37 19.48 61.37 21.13 64.18 21.13 64.18 22.33 61.37 22.33 61.37 25.19 59.91 25.19z"/><path fill="#FFF" fill-rule="nonzero" d="M67.08 25.19L65.62 25.19 65.62 18.28 67.08 18.28z"/><path fill="#FFF" fill-rule="nonzero" d="M68.64 18.28L70.1 18.28 70.1 24 73.1 24 73.1 25.21 68.64 25.21z"/><path fill="#FFF" fill-rule="nonzero" d="M75.61 25.19L74.15 25.19 74.15 18.28 75.61 18.28z"/><path d="M76.64 25.19L79 18.28h1.9l2.38 6.91h-1.56l-.51-1.58h-2.49l-.52 1.58h-1.56zm4.2-2.72L80 19.86l-.85 2.61h1.69z" fill="#FFF" fill-rule="nonzero"/><path fill="#FFF" fill-rule="nonzero" d="M83.24 18.28L88.92 18.28 88.92 19.48 86.8 19.48 86.8 25.19 85.36 25.19 85.36 19.48 83.24 19.48z"/><path fill="#FFF" fill-rule="nonzero" d="M90 18.28L94.66 18.28 94.66 19.48 91.46 19.48 91.46 21.13 94.46 21.13 94.46 22.33 91.46 22.33 91.46 24 94.67 24 94.67 25.21 90 25.21z"/><path fill="#FFF" fill-rule="nonzero" d="M97.58 18.28L99.18 18.28 100.32 23.08 100.38 23.08 101.64 18.28 103 18.28 104.25 23.09 104.32 23.09 105.46 18.28 107.05 18.28 105.05 25.19 103.62 25.19 102.31 20.67 102.31 20.67 101 25.19 99.56 25.19z"/><path fill="#FFF" fill-rule="nonzero" d="M108 18.28L112.66 18.28 112.66 19.48 109.46 19.48 109.46 21.13 112.46 21.13 112.46 22.33 109.46 22.33 109.46 24 112.67 24 112.67 25.21 108 25.21z"/><path d="M114.13 18.28h2.76c1.52 0 2.29.74 2.29 1.77a1.47 1.47 0 0 1-1.24 1.48v.07a1.6 1.6 0 0 1 1.51 1.68c0 1.1-.82 1.91-2.37 1.91h-3l.05-6.91zm2.54 2.89a.92.92 0 0 0 1-.88c0-.5-.37-.83-1-.83h-1.1v1.71h1.1zm.11 2.82c.81 0 1.17-.34 1.17-.86s-.44-1-1.14-1h-1.22V24l1.19-.01zm6.42-4.58c-.72 0-1.11.32-1.11.77s.49.72 1.09.85l.62.15c1.2.27 2.07.88 2.07 2s-1 2.07-2.68 2.07c-1.68 0-2.75-.77-2.78-2.26h1.41c.05.69.59 1 1.35 1 .76 0 1.22-.34 1.23-.85.01-.51-.43-.68-1.18-.86l-.75-.19c-1.17-.28-1.88-.87-1.88-1.88 0-1.26 1.1-2.09 2.62-2.09s2.55.85 2.57 2.08h-1.4c-.06-.48-.49-.79-1.18-.79z" fill="#FFF" fill-rule="nonzero"/><path fill="#FFF" fill-rule="nonzero" d="M128.61 25.19L127.15 25.19 127.15 18.28 128.61 18.28z"/><path fill="#FFF" fill-rule="nonzero" d="M129.7 18.28L135.37 18.28 135.37 19.48 133.26 19.48 133.26 25.19 131.82 25.19 131.82 19.48 129.7 19.48z"/><path fill="#FFF" fill-rule="nonzero" d="M136.44 18.28L141.1 18.28 141.1 19.48 137.9 19.48 137.9 21.13 140.9 21.13 140.9 22.33 137.9 22.33 137.9 24 141.11 24 141.11 25.21 136.44 25.21z"/><path d="M46.82 35.79l2.52-2.2c.55-.5.89-.86.89-1.38a.9.9 0 0 0-1-.92.92.92 0 0 0-1 1h-1.55A2.29 2.29 0 0 1 49.25 30a2.28 2.28 0 0 1 2.55 2.2c0 .92-.49 1.59-1.72 2.65l-.84.76h2.69V37h-5.11v-1.21zM53 33.57c0-2.35 1-3.58 2.78-3.58 1.78 0 2.79 1.23 2.79 3.57s-1 3.6-2.79 3.6S53 35.92 53 33.57zm4 0c0-1.48-.41-2.24-1.21-2.24s-1.2.76-1.2 2.24c0 1.48.4 2.24 1.2 2.24.8 0 1.21-.76 1.15-2.24H57zM62.63 37H61v-4.93h-.07a1.7 1.7 0 0 1-1.39.51v-1.32A1.41 1.41 0 0 0 61 30.09h1.65L62.63 37zm3.96-7a2.39 2.39 0 0 1 2.64 2.36 4 4 0 0 1-.84 2.25L66.77 37h-1.65l1.62-2.39a2.36 2.36 0 0 1-.55.07A2.12 2.12 0 0 1 64 32.41 2.38 2.38 0 0 1 66.59 30zm0 3.43a1.08 1.08 0 1 0-1-1.07 1 1 0 0 0 1.01 1.06l-.01.01z" fill="#EFD500" fill-rule="nonzero"/><path fill="#EFD500" fill-rule="nonzero" d="M72 30.09L73.85 30.09 74.85 34.61 74.9 34.61 76.1 30.09 77.6 30.09 78.79 34.62 78.85 34.62 79.85 30.09 81.69 30.09 79.69 36.99 78.15 36.99 76.9 32.8 76.85 32.8 75.61 37 74 37z"/><path fill="#EFD500" fill-rule="nonzero" d="M84.32 37L82.65 37 82.65 30.1 84.32 30.1z"/><path fill="#EFD500" fill-rule="nonzero" d="M91.64 37L90.23 37 87.48 33 87.48 33 87.48 37 85.77 37 85.77 30.1 87.2 30.1 89.92 34.1 90 34.1 90 30.1 91.66 30.1z"/><path fill="#EFD500" fill-rule="nonzero" d="M99 37L97.53 37 94.78 33 94.78 33 94.78 37 93.07 37 93.07 30.1 94.51 30.1 97.22 34.1 97.28 34.1 97.28 30.1 99 30.1z"/><path fill="#EFD500" fill-rule="nonzero" d="M100.37 30.09L105.19 30.09 105.19 31.44 102 31.44 102 32.86 104.9 32.86 104.9 34.22 102 34.22 102 35.64 105.15 35.64 105.15 37 100.33 37z"/><path d="M106.56 30.09h2.85c1.64 0 2.59.84 2.59 2.23a2.06 2.06 0 0 1-1.19 1.92l1.44 2.76h-1.83l-1.27-2.49h-.92V37h-1.67v-6.91zm2.69 3.2a.89.89 0 0 0 1-.93.88.88 0 0 0-1-.93h-1v1.86h1z" fill="#EFD500" fill-rule="nonzero"/></g></svg>