<svg width="200" height="200" viewBox="0 0 200 200" fill="none" xmlns="http://www.w3.org/2000/svg">
<g clip-path="url(#clip0)">
<path d="M100 200C44.8 200 0 155.2 0 100C0 44.8 44.8 0 100 0C155.2 0 200 44.8 200 100C200 155.2 155.2 200 100 200Z" fill="white"/>
<path d="M100 0C88.4 0 76.4 2.1 65.7 6L70.2 18.2C79.7 14.8 89.7 13 100 13V0ZM35.6 23.5C26.7 31 19.1 40.1 13.3 50.2L24.6 56.7C29.7 47.9 36.2 40 44 33.4L35.6 23.5ZM1.4 83C0.5 88.6 0 94.3 0 100C0 106 0.5 112 1.6 117.8L14.4 115.5C12.6 105.6 12.6 95.1 14.3 85.2L1.4 83ZM24.9 143.9L13.7 150.5C19.6 160.6 27.3 169.6 36.3 177L44.6 167C36.7 160.5 30 152.7 24.9 143.9ZM70.8 182L66.4 194.2C77.4 198.1 89.1 200.1 100.7 200L100.6 187C90.5 187.1 80.4 185.4 70.8 182ZM156.6 166.1C148.8 172.8 140.1 178 130.5 181.5L135.1 193.7C146.1 189.6 156.2 183.6 165.1 176L156.6 166.1ZM185.9 114.1C184.3 124.2 180.9 133.8 175.9 142.7L187.2 149.1C192.8 139.1 196.8 128 198.7 116.2L185.9 114.1ZM185.9 48.8L174.7 55.5C179.9 64.3 183.6 73.8 185.4 83.8L198.2 81.4C196.1 69.7 191.9 58.9 185.9 48.8ZM132.7 5.5L128.4 17.8C138 21.1 146.9 26.1 154.8 32.6L163 22.5C154.1 15.1 143.8 9.3 132.7 5.5Z" fill="#D866A5"/>
<path d="M100 188C51.4483 188 12 148.552 12 100C12 51.4483 51.4483 12 100 12C148.552 12 188 51.4483 188 100C188 148.552 148.552 188 100 188Z" fill="url(#paint0_radial)"/>
<path d="M56.0285 72.41C53.2335 70.655 50.4385 69.745 47.5135 69.745C40.6235 69.745 35.5535 75.335 35.5535 83.005C35.5535 88.465 37.3735 91.78 42.4435 95.745L45.5635 98.15C47.7735 99.84 49.0085 101.985 49.0085 104.26C49.0085 107.12 47.3185 108.875 44.5235 108.875C42.0535 108.875 39.2585 107.835 35.6835 105.495L36.7885 115.895C41.0785 117.65 43.4185 118.235 46.1485 118.235C53.7535 118.235 59.0835 112.515 59.0835 104.26C59.0835 98.345 57.0685 95.095 50.1785 89.635L47.6435 87.685C46.1485 86.515 45.4335 85.15 45.4335 83.46C45.4335 81.055 46.9935 79.495 49.4635 79.495C51.1535 79.495 53.1685 80.34 56.0285 82.355V72.41ZM64.023 129.35L73.578 128.375V117C75.463 117.78 76.633 118.04 78.193 118.04C86.318 118.04 91.713 110.24 91.713 98.67C91.713 87.555 86.968 80.08 79.948 80.08C77.608 80.08 75.723 80.795 73.123 82.81L72.603 80.08L63.633 81.12C63.893 84.24 64.023 87.1 64.023 92.95V129.35ZM73.578 91.065C75.333 89.505 76.503 88.92 77.933 88.92C80.988 88.92 82.613 92.3 82.613 98.67C82.613 105.69 80.793 109.265 77.153 109.265C75.918 109.265 75.073 108.94 73.578 107.965V91.065ZM105.815 117V80.08L96.715 81.12V117H105.815ZM101.265 66.365C98.405 66.365 96.13 68.64 96.13 71.5C96.13 74.295 98.47 76.635 101.265 76.635C104.125 76.635 106.4 74.36 106.4 71.435C106.4 68.575 104.125 66.365 101.265 66.365ZM121.684 117V99.645C121.684 95.615 121.944 93.08 122.529 91.91C123.374 90.09 124.999 88.855 126.624 88.855C128.769 88.855 129.484 90.285 129.484 94.64V117H138.584V92.69C138.584 83.98 136.179 80.08 130.719 80.08C127.339 80.08 124.999 81.38 121.684 85.15V80.08L112.584 81.12V117H121.684ZM144.696 115.18C147.686 117.325 150.481 118.235 153.796 118.235C160.166 118.235 164.586 113.425 164.586 106.6C164.586 102.115 162.896 99.32 158.541 96.525L156.266 95.095C153.991 93.6 153.536 93.015 153.536 91.52C153.536 89.7 154.771 88.465 156.591 88.465C158.086 88.465 159.516 89.05 161.856 90.61V81.965C158.931 80.405 157.306 79.885 155.031 79.885C148.856 79.885 144.436 84.63 144.436 91.195C144.436 95.355 145.931 97.89 149.831 100.36L152.691 102.18C154.836 103.545 155.486 104.455 155.486 106.21C155.486 108.29 154.186 109.655 152.106 109.655C150.026 109.655 147.816 108.55 144.241 105.755L144.696 115.18Z" fill="white"/>
</g>
<defs>
<radialGradient id="paint0_radial" cx="0" cy="0" r="1" gradientUnits="userSpaceOnUse" gradientTransform="translate(12 12) rotate(45) scale(248.902)">
<stop stop-color="#E790C0"/>
<stop offset="1" stop-color="#D45C9E"/>
</radialGradient>
<clipPath id="clip0">
<rect width="200" height="200" fill="white"/>
</clipPath>
</defs>
</svg>
