<svg width="20" height="20" fill="none" xmlns="http://www.w3.org/2000/svg"><g opacity=".7"><path d="M19.763 8.357l-3.318-2.46V.585A.586.586 0 0 0 15.86 0H4.141a.586.586 0 0 0-.586.586v5.31L.237 8.358A.59.59 0 0 0 0 8.822v10.592c0 .324.262.586.586.586h18.828a.586.586 0 0 0 .586-.586V8.828a.593.593 0 0 0-.237-.47zm-1.33.473l-1.988 1.484V7.356l1.988 1.474zm-3.16-7.658v10.017L10 15.128l-5.273-3.939V1.172h10.547zM3.556 7.356v2.958L1.567 8.83l1.988-1.474zm13.719 11.472l.172-.171a.586.586 0 0 0-.829-.83l-1 1.001h-3.03l.171-.171a.586.586 0 0 0-.828-.83l-1 1.001H7.898l.172-.171a.586.586 0 1 0-.829-.83l-1 1.001h-3.03l.171-.171a.586.586 0 1 0-.829-.83l-1 1.001h-.382v-8.83l8.477 6.33a.586.586 0 0 0 .702 0l8.477-6.33v8.83h-1.554z"/><path d="M8.154 6.13L7.92 7.502a.586.586 0 0 0 .85.618l1.233-.648 1.232.648a.586.586 0 0 0 .85-.618L11.85 6.13l.997-.972a.586.586 0 0 0-.325-1l-1.378-.2-.616-1.249a.586.586 0 0 0-1.05 0L8.86 3.958l-1.378.2a.586.586 0 0 0-.325 1l.997.972zm1.18-1.057a.586.586 0 0 0 .44-.32l.228-.46.227.46c.085.173.25.293.441.32l.508.074-.368.358a.586.586 0 0 0-.168.52l.087.505-.455-.239a.586.586 0 0 0-.545 0l-.454.239.087-.506a.586.586 0 0 0-.169-.519l-.367-.358.507-.074zm3.01 4.341H7.656a.586.586 0 0 0 0 1.172h4.688a.586.586 0 0 0 0-1.172z"/></g></svg>