<svg width="72" height="20" fill="none" xmlns="http://www.w3.org/2000/svg"><g clip-path="url(#clip0)"><path d="M18.544 9.051c-.012-.357-.18-.541-.507-.553H16.29c-.413.025-.627.252-.636.678v3.14c.01.44.245.665.704.677h1.6a.526.526 0 0 0 .415-.187.45.45 0 0 0 .17-.367V9.05zm-5.13-.445c.01-.786.186-1.383.525-1.791.178-.171.4-.314.67-.433.282-.126.554-.187.818-.187h3.205c1.413.012 2.132.785 2.154 2.321v4.726c-.01.545-.224 1.019-.636 1.414a2.048 2.048 0 0 1-1.465.64h-3.03v3.408h-2.242V8.606zm11.418 3.931c0 .132.06.236.18.314a.588.588 0 0 0 .406.142h1.722c.389 0 .59-.15.602-.456v-.642c0-.351-.205-.528-.619-.528h-1.705c-.224 0-.38.037-.466.107-.08.083-.12.248-.12.492v.571zm2.91-3.541c.012-.345-.189-.51-.603-.498h-4.514V6.195h5.083c1.48.025 2.232.74 2.257 2.152v4.817c-.012.61-.2 1.111-.561 1.51-.379.415-.867.623-1.465.623h-3.072c-1.495-.013-2.254-.696-2.277-2.053v-1.859c.012-1.418.736-2.139 2.17-2.164h2.982v-.225zM36.26 16.4a.725.725 0 0 0 .456-.19c.12-.106.18-.229.18-.368v-.546h-2.869c-.374 0-.673-.048-.897-.143-.236-.087-.47-.248-.707-.477a2.308 2.308 0 0 1-.483-.761c-.102-.243-.154-.552-.154-.923V6.195h2.241v6.069c0 .486.199.73.6.73h1.583a.697.697 0 0 0 .489-.188.477.477 0 0 0 .198-.382V6.195h2.223v10.03c-.013.741-.203 1.336-.57 1.786-.373.45-.882.681-1.532.693h-5.232V16.4h4.474zm4.62-3.408h3.994c.365-.012.555-.159.566-.44v-.206a.456.456 0 0 0-.053-.198c-.09-.174-.199-.26-.329-.26h-1.98a2.21 2.21 0 0 1-1.51-.605c-.427-.36-.645-.805-.658-1.326V8.241c.023-1.34.751-2.021 2.185-2.046h4.632v2.303h-3.924c-.461 0-.693.141-.693.423v.223c0 .292.237.438.71.438h1.974c.526.012.974.214 1.348.607.377.395.573.866.585 1.412v1.68c-.012.472-.23.943-.65 1.413-.205.23-.415.389-.624.478-.217.083-.511.125-.887.125H40.88v-2.304zm10.683-.456c0 .132.06.236.182.314a.583.583 0 0 0 .404.142h1.725c.389 0 .59-.15.601-.456v-.642c0-.351-.208-.528-.62-.528H52.15c-.224 0-.379.037-.464.107-.08.083-.122.248-.122.492v.571zm2.912-3.541c.01-.345-.19-.51-.605-.498h-4.513V6.195h5.084c1.48.025 2.231.74 2.254 2.152v4.817c-.012.61-.2 1.111-.56 1.51-.376.415-.864.623-1.463.623h-3.075c-1.494-.013-2.253-.696-2.274-2.053v-1.859c.01-1.418.734-2.139 2.17-2.164h2.982v-.225zm4.043-4.11c.013-.622.242-1.12.691-1.495.436-.38 1.008-.575 1.716-.586h1.423v2.224h-.862c-.474.011-.715.238-.726.676v.487h1.588v2.305H60.76v6.797h-2.242V4.886zm10.204 4.067V8.9a.358.358 0 0 0-.144-.294.657.657 0 0 0-.386-.108h-1.56c-.2 0-.361.056-.486.171a.488.488 0 0 0-.234.418v.925l2.81-1.06zm-2.774 3.255v.143c0 .185.048.331.145.437.07.136.165.205.291.205h4.605v2.304h-4.896c-.447 0-.795-.042-1.041-.126a1.89 1.89 0 0 1-.721-.434c-.247-.244-.415-.492-.499-.748-.092-.266-.138-.62-.138-1.06l-.02-4.608c.026-1.393.753-2.101 2.182-2.126h3.022c1.396.025 2.103.758 2.125 2.204v1.821l-5.055 1.988z" fill="#fff"/><path d="M.963 5.847c.176-.078.352-.138.528-.176a3.405 3.405 0 0 1 6.665.001c.503.096.92.3 1.244.602a4.895 4.895 0 0 0-.034-.85 4.572 4.572 0 0 0-4.55-4.166C2.359 1.258.359 3.205.255 5.639a6.47 6.47 0 0 0-.011.658c.206-.174.442-.33.719-.45z" fill="#B0B0B0"/><path d="M7.49 6.195H2.014c-.264 0-.537.061-.818.187a2.259 2.259 0 0 0-.672.433C.186 7.223.012 7.82 0 8.605v4.28c.012.787.186 1.384.525 1.79.179.174.401.317.672.436.281.123.554.186.818.186h5.474c1.414-.013 2.133-.789 2.156-2.322V8.516c-.023-1.536-.742-2.309-2.156-2.32z" fill="#B0B0B0"/></g></svg>