<svg width="85" height="20" fill="none" xmlns="http://www.w3.org/2000/svg"><path d="M16.208 1.25c-4.962 0-8.925 3.92-8.925 8.75 0 4.865 3.998 8.75 8.925 8.75 4.927 0 8.925-3.92 8.925-8.75.071-4.83-3.998-8.75-8.925-8.75zm0 12.005c-1.82 0-3.32-1.505-3.32-3.255s1.535-3.255 3.32-3.255 3.32 1.505 3.32 3.255-1.464 3.255-3.32 3.255zm-8.925-9.45v12.74H4.07L0 3.805h7.283z" fill="#BBB"/><path d="M82.572 6.078l-1.963 4.76c-.072.07-.072.175-.072.21l-.07.105-.072-.105c0-.07-.072-.175-.072-.21l-1.963-4.76h-2.535l3.32 8.155-1.428 3.115h2.535l4.677-11.235h-2.357v-.035zm-18.741.425c-.464-.315-1-.56-1.678-.595-1.142-.105-2.213.28-2.927.98v-.875h-2.32v8.155h2.32v-4.27c0-.945.178-1.225.321-1.435.286-.455.785-.665 1.428-.665.607 0 1.178.28 1.464.735.178.315.214.77.214.98v4.655h2.32V9.233c0-1.295-.392-2.17-1.142-2.73zm-11.354-.389c-1.142-.385-2.356-.315-3.498.175-.75.315-1.428.875-1.82 1.61-.394.595-.572 1.4-.572 2.205 0 .805.178 1.61.571 2.205.393.595.893 1.155 1.57 1.505.68.315 1.465.56 2.214.56.393 0 .786-.07 1.178-.175.322-.105.679-.21 1-.385.678-.385 1.25-.875 1.57-1.505.393-.595.572-1.4.572-2.205.107-1.82-.964-3.36-2.785-3.99zm.679 4.095c-.072.735-.286 1.33-.75 1.715-.321.28-.857.455-1.464.49-.607 0-1.07-.175-1.463-.49-.465-.385-.679-.98-.75-1.715-.072-.84.285-1.505.892-1.925.322-.21.786-.385 1.25-.385.5 0 .892.175 1.285.385.714.385 1.071 1.12 1 1.925zm-9.21-3.712c-.465-.315-1-.56-1.679-.595h-.392c-.893 0-1.678.385-2.357 1.155l-.107.175h-.214a2.794 2.794 0 0 0-.607-.665c-.464-.315-1-.56-1.678-.595-1.07-.105-1.927.21-2.641.98v-.84h-2.32v8.155h2.32V9.892c0-.875.107-1.12.285-1.4.286-.455.786-.735 1.357-.665.571 0 1.07.28 1.356.735.215.315.215.735.215 1.12v4.55h2.32v-4.41c0-.84.107-1.12.286-1.4.285-.455.785-.665 1.356-.665.571 0 1 .28 1.285.735.179.28.215.595.215.84v4.83h2.32V9.157c0-.455-.071-.875-.178-1.26-.286-.56-.643-1.05-1.143-1.4zm29.702 5.22c-.322.315-1.143.945-2.214.98-.892.07-1.57-.21-2.106-.735-.214-.21-.393-.56-.5-.875h6.39v-.035c.072-.315.108-.595.108-.945 0-.28-.072-.665-.179-1.155-.286-.945-.857-1.645-1.57-2.205-.858-.595-1.643-.77-1.857-.77-1.642-.28-3.499.455-4.463 1.925-.678 1.05-.606 2.1-.606 2.45 0 .385.071 1.61 1.07 2.73 1.179 1.26 2.82 1.33 3.32 1.4 2.25.07 3.785-1.33 4.142-1.61l-1.535-1.155zm-3.927-3.43a2.29 2.29 0 0 1 1.25-.385c.499 0 .892.175 1.284.385.322.28.607.595.786.98h-4.07c.071-.385.321-.77.75-.98z" fill="#fff"/></svg>