<svg enable-background="new 0 0 200 200" viewBox="0 0 200 200" xmlns="http://www.w3.org/2000/svg"><path d="m0 0h200v200h-200z"/><g fill="#fff"><path d="m28.59 104.67h-3.8l-.52 2.16h-2.51l3.63-14.13h2.7l3.49 14.13h-2.49zm-3.3-2.1h2.82l-1.31-5.77h-.14z"/><path d="m39.09 104.38c.4 0 .7-.12.88-.36.19-.24.33-.54.43-.88h2.62c-.06.51-.19.99-.39 1.44-.21.45-.48.84-.82 1.17s-.74.6-1.2.79-.96.29-1.48.29h-1.79c-.55 0-1.08-.11-1.58-.32s-.93-.51-1.31-.88c-.37-.37-.67-.81-.88-1.31s-.32-1.03-.32-1.6v-5.89c0-.57.11-1.1.32-1.61.21-.5.51-.94.88-1.32.37-.37.81-.67 1.31-.88s1.02-.32 1.58-.32h1.79c.54 0 1.04.1 1.49.29s.85.46 1.19.8.61.74.82 1.19c.21.46.34.95.39 1.47h-2.62c-.07-.36-.2-.66-.39-.91s-.5-.37-.91-.37h-1.74c-.48 0-.87.17-1.15.52s-.43.77-.43 1.27v5.62c0 .5.14.92.43 1.28.28.35.67.53 1.15.53h1.73z"/><path d="m47.71 95.31h-3.61v-2.62h9.8v2.62h-3.65v11.52h-2.53v-11.52z"/><path d="m55.28 92.69h2.64v14.13h-2.64z"/><path d="m65.58 92.69c.55 0 1.08.11 1.58.32s.93.51 1.31.88c.37.37.67.81.88 1.32s.32 1.04.32 1.61v5.89c0 .57-.11 1.1-.32 1.6s-.51.93-.88 1.31c-.37.37-.81.67-1.31.88s-1.02.32-1.58.32h-1.62c-.57 0-1.1-.11-1.6-.32s-.93-.51-1.3-.88-.66-.81-.88-1.31-.33-1.03-.33-1.6v-5.89c0-.57.11-1.1.33-1.61.22-.5.52-.94.88-1.32.37-.37.8-.67 1.3-.88s1.03-.32 1.6-.32zm1.55 4.26c0-.5-.14-.92-.43-1.27-.28-.35-.67-.52-1.15-.52h-1.58c-.48 0-.87.17-1.15.52s-.43.77-.43 1.27v5.62c0 .5.14.92.43 1.28.28.35.67.53 1.15.53h1.58c.48 0 .87-.18 1.15-.53s.43-.78.43-1.28z"/><path d="m74.19 97.57v9.26h-2.53v-14.14h2.53l4.79 9.34v-9.34h2.47v14.13h-2.47z"/><path d="m89.11 104.38c.4 0 .7-.12.88-.36.19-.24.33-.54.43-.88h2.62c-.06.51-.19.99-.39 1.44-.21.45-.48.84-.82 1.17s-.74.6-1.2.79-.96.29-1.48.29h-1.79c-.55 0-1.08-.11-1.58-.32s-.93-.51-1.31-.88c-.37-.37-.67-.81-.88-1.31s-.32-1.03-.32-1.6v-5.89c0-.57.11-1.1.32-1.61.21-.5.51-.94.88-1.32.37-.37.81-.67 1.31-.88s1.02-.32 1.58-.32h1.79c.54 0 1.04.1 1.49.29s.85.46 1.19.8.61.74.82 1.19c.21.46.34.95.39 1.47h-2.62c-.07-.36-.2-.66-.39-.91s-.5-.37-.91-.37h-1.74c-.48 0-.87.17-1.15.52s-.43.77-.43 1.27v5.62c0 .5.14.92.43 1.28.28.35.67.53 1.15.53h1.73z"/><path d="m101.11 104.67h-3.8l-.52 2.16h-2.51l3.63-14.13h2.7l3.49 14.13h-2.49zm-3.3-2.1h2.82l-1.31-5.77h-.14z"/><path d="m108.52 101.12v5.71h-2.64v-14.14h6.06c.54 0 1.04.1 1.52.3.47.2.87.47 1.21.82s.61.75.81 1.22.3.97.3 1.49v.62c0 .53-.1 1.02-.3 1.48s-.47.87-.81 1.22-.74.63-1.21.82-.98.29-1.52.29h-.71l4.79 5.85h-3.01zm0-5.96v3.34h3.01c.59 0 1.03-.15 1.31-.44s.41-.7.41-1.22c0-.5-.14-.9-.41-1.21-.28-.31-.71-.47-1.31-.47z"/><path d="m117.63 92.69h6.45c.46 0 .89.1 1.3.29s.76.46 1.07.81c.3.35.54.74.72 1.19.17.45.26.93.26 1.44v6.66c0 .53-.09 1.01-.26 1.45s-.41.84-.72 1.18c-.3.35-.66.62-1.07.81s-.84.29-1.3.29h-6.45zm5.81 11.52c.21 0 .39-.04.56-.12s.31-.19.45-.33c.13-.14.23-.3.3-.49s.1-.39.1-.61v-5.81c0-.21-.03-.4-.1-.59s-.17-.35-.3-.5-.28-.26-.45-.34-.35-.12-.56-.12h-3.22v8.92h3.22z"/><path d="m136 95.08h-7.06v-2.39h9.8v2.39l-7.06 9.36h7.06v2.39h-9.8v-2.39z"/><path d="m140.36 107.31v-2.39h2.47v2.39z"/><path d="m150.32 104.38c.4 0 .7-.12.88-.36.19-.24.33-.54.43-.88h2.62c-.06.51-.19.99-.39 1.44-.21.45-.48.84-.82 1.17s-.74.6-1.2.79-.96.29-1.48.29h-1.79c-.55 0-1.08-.11-1.58-.32s-.93-.51-1.31-.88c-.37-.37-.67-.81-.88-1.31s-.32-1.03-.32-1.6v-5.89c0-.57.11-1.1.32-1.61.21-.5.51-.94.88-1.32.37-.37.81-.67 1.31-.88s1.02-.32 1.58-.32h1.79c.54 0 1.04.1 1.49.29.46.19.85.46 1.19.8s.61.74.82 1.19.34.95.39 1.47h-2.62c-.07-.36-.2-.66-.39-.91s-.5-.37-.91-.37h-1.74c-.48 0-.87.17-1.15.52s-.43.77-.43 1.27v5.62c0 .5.14.92.43 1.28.28.35.67.53 1.15.53h1.73z"/><path d="m161.55 92.69c.55 0 1.08.11 1.58.32s.93.51 1.31.88c.37.37.67.81.88 1.32s.32 1.04.32 1.61v5.89c0 .57-.11 1.1-.32 1.6s-.51.93-.88 1.31c-.37.37-.81.67-1.31.88s-1.02.32-1.58.32h-1.62c-.57 0-1.1-.11-1.6-.32s-.93-.51-1.3-.88-.66-.81-.88-1.31-.33-1.03-.33-1.6v-5.89c0-.57.11-1.1.33-1.61.22-.5.52-.94.88-1.32.37-.37.8-.67 1.3-.88s1.03-.32 1.6-.32zm1.56 4.26c0-.5-.14-.92-.43-1.27-.28-.35-.67-.52-1.15-.52h-1.58c-.48 0-.87.17-1.15.52s-.43.77-.43 1.27v5.62c0 .5.14.92.43 1.28.28.35.67.53 1.15.53h1.58c.48 0 .87-.18 1.15-.53s.43-.78.43-1.28z"/><path d="m172.86 102.91h.15c.37-1.7.75-3.4 1.13-5.1s.76-3.39 1.13-5.1h2.97v14.11h-2.03v-9.17h-.12c-.33 1.54-.68 3.07-1.04 4.6s-.7 3.05-1.02 4.58l-2.26.02-1.93-9.17h-.15v9.15h-2.05v-14.12h2.97z"/></g></svg>