<svg width="20" height="20" xmlns="http://www.w3.org/2000/svg"><path d="M10 0C4.551 0 0 4.537 0 10c0 5.449 4.537 10 10 10 5.449 0 10-4.537 10-10 0-5.449-4.537-10-10-10zm6.215 3.785c3.345 3.346 3.479 8.51.4 12.002l-1.038-1.038a2.34 2.34 0 0 0-.7-4.03 2.33 2.33 0 0 0 .396-1.305 2.348 2.348 0 0 0-1.698-2.253 3.522 3.522 0 0 0-2.595-4.71l-.814-.161.12.82a.586.586 0 0 1-.579.68 2.93 2.93 0 0 0-2.849 2.24L4.213 3.384C7.704.307 12.869.44 16.215 3.785zm-7.973 7.973v-1.172H7.071a1.173 1.173 0 0 1-1.173-1.172c0-.646.526-1.172 1.172-1.172h.343l2.344 2.344h-.343v1.172h1.515l2.344 2.344H5.898a1.173 1.173 0 0 1-1.171-1.172c0-.646.525-1.172 1.171-1.172h2.344zm.012-6.028a1.758 1.758 0 0 1 1.453-.77c.737 0 1.396-.46 1.65-1.15a2.35 2.35 0 0 1 1.28 2.088c0 .418-.108.818-.314 1.172h-1.737v1.172h2.344a1.173 1.173 0 0 1 0 2.344h-1.515L9.07 8.242h.373V7.07h-1.46c-.089-.476.003-.95.27-1.34zm4.332 6.028h1.516a1.173 1.173 0 0 1 .638 2.154l-2.154-2.154zm-8.8 4.457C.44 12.869.305 7.705 3.383 4.213l2.97 2.97a2.347 2.347 0 0 0-1.627 2.231c0 .482.146.93.396 1.304a2.348 2.348 0 0 0-1.568 2.212 2.346 2.346 0 0 0 2.343 2.343h8.204c.108 0 .215-.008.32-.022l1.365 1.365c-3.491 3.078-8.656 2.944-12.002-.401z"/></svg>