<svg width="30" height="30" fill="none" xmlns="http://www.w3.org/2000/svg">
  <g clip-path="url(#entropay-color-30px__clip0)">
    <path d="M28 0H2a2 2 0 00-2 2v26a2 2 0 002 2h26a2 2 0 002-2V2a2 2 0 00-2-2z" fill="#02CAB1"/>
    <path d="M26.482 14.467c-.025 2.19-.872 3.95-2.763 5.106-1.152.71-2.408 1.058-3.78.802-.519-.098-.994-.294-1.372-.68-.183-.189-.281-.201-.415.056-.378.74-.768 1.48-1.299 2.128-.402.495-.902.807-1.537.893-.36.049-.725.104-1.091.104-.305 0-.33-.025-.183-.312.677-1.34 1.36-2.679 2.043-4.024.329-.642.67-1.278.975-1.932.55-1.162 1.842-1.554 3.062-1.15.158.055.207.14.115.3-.122.214-.213.44-.347.642-.427.654.036 1.516.884 1.59 1.17.098 2.006-.465 2.604-1.42 1.006-1.607.829-3.497-.433-4.763-1.348-1.358-3.573-1.37-4.945-.037-.421.41-.738.887-1.007 1.407-.689 1.357-1.347 2.733-2.073 4.073-.939 1.743-2.415 2.782-4.36 3.15-3.244.61-6.61-1.866-6.994-5.156-.36-3.064 1.335-5.749 4.262-6.66 1.384-.428 2.78-.324 4.11.232 1.311.545 1.805 1.97 1.177 3.254a28.38 28.38 0 01-1.445 2.642c-.549.874-1.299 1.382-2.348 1.382-.201 0-.402.03-.61.03-.304 0-.335-.042-.182-.311.475-.838.95-1.682 1.426-2.52.3-.532.61-1.058.909-1.59.213-.38.14-.648-.244-.856-.652-.361-1.348-.349-2.037-.147-1.384.41-2.573 2.03-2.622 3.535-.048 1.614.848 2.984 2.324 3.553 1.762.679 3.707-.14 4.622-1.939.732-1.45 1.439-2.917 2.22-4.342 1.03-1.902 2.67-2.954 4.805-3.13 3.225-.27 5.988 1.95 6.5 5.148.055.312.042.624.049.942z" fill="#fff"/>
  </g>
  <defs>
    <clipPath id="entropay-color-30px__clip0">
      <path fill="#fff" d="M0 0h30v30H0z"/>
    </clipPath>
  </defs>
</svg>
