<svg width="16" height="16" fill="none" xmlns="http://www.w3.org/2000/svg"><path d="M4.084 1.026a8.058 8.058 0 0 0-3.057 3.057h3.057V1.026zm7.83 0v3.057h3.057a8.058 8.058 0 0 0-3.057-3.057zm-7.83 13.947v-3.057H1.027a8.058 8.058 0 0 0 3.057 3.057zm7.83 0a8.058 8.058 0 0 0 3.057-3.057h-3.057v3.057z" fill="#AAA"/><path d="M15.544 5.333a.469.469 0 0 0-.442-.312h-3.336a.782.782 0 0 1-.556-.23.793.793 0 0 1-.23-.557V.898a.469.469 0 0 0-.313-.442A7.97 7.97 0 0 0 8 0a7.97 7.97 0 0 0-2.667.456.469.469 0 0 0-.312.442v3.336a.782.782 0 0 1-.786.786H.897a.469.469 0 0 0-.442.313A7.97 7.97 0 0 0 0 8c0 .914.153 1.812.456 2.667a.469.469 0 0 0 .442.312h3.336a.782.782 0 0 1 .786.787v3.336c0 .198.126.375.313.442A7.969 7.969 0 0 0 8 16c.914 0 1.812-.153 2.667-.456a.469.469 0 0 0 .312-.442v-3.336a.782.782 0 0 1 .786-.786h3.337a.469.469 0 0 0 .442-.313A7.97 7.97 0 0 0 16 8a7.97 7.97 0 0 0-.456-2.667zM3.31 8.673a.469.469 0 1 1-.663.663L1.644 8.33a.469.469 0 0 1 0-.662l1.004-1.005a.469.469 0 1 1 .663.663L2.638 8l.673.673zm6.025 4.68L8.33 14.355a.467.467 0 0 1-.662 0l-1.005-1.004a.469.469 0 0 1 .663-.663l.673.673.673-.673a.469.469 0 0 1 .663.663zm0-10.042a.467.467 0 0 1-.663 0L8 2.638l-.673.673a.469.469 0 0 1-.663-.663L7.67 1.644a.469.469 0 0 1 .662 0l1.005 1.004a.469.469 0 0 1 0 .663zm5.02 5.02l-1.004 1.005a.468.468 0 0 1-.662 0 .468.468 0 0 1 0-.663L13.362 8l-.672-.673a.468.468 0 1 1 .662-.663l1.004 1.005a.468.468 0 0 1 0 .662z" fill="#AAA"/></svg>