<svg width="20" height="20" viewBox="0 0 20 20" xmlns="http://www.w3.org/2000/svg">
<path d="M15.8974 10L18.4928 5.50473C18.5975 5.32344 18.5975 5.10008 18.4928 4.91879C18.3881 4.7375 18.1947 4.62582 17.9854 4.62582H12.7946L10.293 0.292969C10.1884 0.11168 9.99496 0 9.78563 0C9.57629 0 9.38285 0.11168 9.2782 0.292969L6.7766 4.62582H1.58594C1.3766 4.62582 1.18316 4.7375 1.07852 4.91879C0.973867 5.10008 0.973828 5.32344 1.07852 5.50473L3.67383 10L1.07852 14.4953C0.973828 14.6766 0.973828 14.8999 1.07852 15.0812C1.1832 15.2625 1.3766 15.3742 1.58594 15.3742H6.7766L9.2782 19.707C9.38289 19.8883 9.57629 20 9.78563 20C9.99496 20 10.1884 19.8883 10.293 19.707L12.7946 15.3742H17.9853C18.1946 15.3742 18.3881 15.2625 18.4927 15.0812C18.5974 14.8999 18.5974 14.6766 18.4927 14.4953L15.8974 10ZM16.9705 5.7977L15.2208 8.82812L13.4712 5.7977H16.9705ZM14.5443 10L12.118 14.2023H7.4532L5.02699 10L7.4532 5.7977H12.118L14.5443 10ZM9.78563 1.75781L11.4415 4.62582H8.12977L9.78563 1.75781ZM2.60078 5.7977H6.1L4.35043 8.82812L2.60078 5.7977ZM2.60078 14.2023L4.35043 11.1719L6.10004 14.2023H2.60078ZM9.78563 18.2422L8.12977 15.3742H11.4415L9.78563 18.2422ZM13.4712 14.2023L15.2208 11.1719L16.9704 14.2023H13.4712Z" />
</svg>
