<svg width="43" height="20" fill="none" xmlns="http://www.w3.org/2000/svg"><path fill-rule="evenodd" clip-rule="evenodd" d="M30.677 5.8c.968 0 1.753-.773 1.753-1.726s-.785-1.726-1.753-1.726c-.967 0-1.75.773-1.75 1.726s.783 1.725 1.75 1.725zm-13.422.93c-.079.196-.648 1.78-2.025 3.422V3.133l-3.667.714V16.57h3.667v-3.932c1.063 1.57 1.587 3.932 1.587 3.932h4.393c-.434-1.78-2.335-5.061-2.335-5.061 1.706-2.13 2.455-4.401 2.574-4.777h-4.194zm9.642-.132c-3.285.104-4.952 1.556-4.952 4.442v5.53h3.584v-4.51c0-1.728.23-2.469 2.311-2.54V6.65c-.35-.074-.943-.051-.943-.051zM5.411 8.132c-.449-.03-1.489-.096-1.489-1.018 0-1.113 1.498-1.113 2.06-1.113.987 0 2.266.287 3.18.557 0 0 .509.176.942.358l.04.01V3.878l-.055-.016c-1.078-.371-2.331-.729-4.655-.729-4.007 0-5.426 2.3-5.426 4.27 0 1.135.494 3.807 5.082 4.115.39.024 1.422.082 1.422 1.036 0 .787-.845 1.25-2.267 1.25-1.558 0-3.069-.39-3.987-.762v3.14c1.374.354 2.923.532 4.739.532 3.917 0 5.672-2.176 5.672-4.332 0-2.445-1.964-4.033-5.258-4.25zm23.49 8.437h3.554V6.742h-3.554v9.827zM39.148 3.76v12.81h3.556V3.133l-3.556.627zm-5.188 0l3.552-.626V16.57h-3.552V3.76z" fill="#fff"/></svg>