<svg width="20" height="20" viewBox="0 0 20 20" xmlns="http://www.w3.org/2000/svg">
<path d="M11.7578 2.4025V0H11.1719C5.01844 0 0 5.04535 0 11.1719V11.7578H3.57699C3.86238 15.4918 6.85191 18.4814 10.5859 18.7668V20H11.1719C16.0237 20 20 16.0229 20 11.1719C20 6.51469 16.3338 2.70215 11.7578 2.4025V2.4025ZM10.5859 1.18883V10.5859C10.2104 10.5859 1.56453 10.5859 1.18883 10.5859C1.48176 5.53715 5.53715 1.48176 10.5859 1.18883ZM4.75348 11.7578H10.5859V17.5903C7.49863 17.3107 5.03305 14.8451 4.75348 11.7578ZM11.7578 18.8059C11.7578 18.8059 11.7578 3.9668 11.7578 3.5768C15.7068 3.87555 18.8281 7.16785 18.8281 11.1719C18.8281 15.1964 15.7068 18.5057 11.7578 18.8059Z" />
<path d="M4.48242 8.82812L7.65434 5.65621L8.48285 6.48472L5.31094 9.65664L4.48242 8.82812Z" />
<path d="M7.07031 8.24219H8.24219V9.41406H7.07031V8.24219Z" />
<path d="M4.72656 5.89844H5.89844V7.07031H4.72656V5.89844Z" />
<path d="M14.6875 9.41406C15.0106 9.41406 15.2734 9.67691 15.2734 10H16.4453C16.4453 9.23613 15.9554 8.58484 15.2734 8.34297V7.07031H14.1016V8.34297C13.4196 8.58484 12.9297 9.23613 12.9297 10C12.9297 10.9693 13.7182 11.7578 14.6875 11.7578C15.0106 11.7578 15.2734 12.0207 15.2734 12.3438C15.2734 12.6668 15.0106 12.9297 14.6875 12.9297C14.3644 12.9297 14.1016 12.6668 14.1016 12.3438H12.9297C12.9297 13.1076 13.4196 13.7589 14.1016 14.0008V15.2734H15.2734V14.0008C15.9554 13.7589 16.4453 13.1076 16.4453 12.3438C16.4453 11.3745 15.6568 10.5859 14.6875 10.5859C14.3644 10.5859 14.1016 10.3231 14.1016 10C14.1016 9.67691 14.3644 9.41406 14.6875 9.41406Z" />
</svg>
