<svg width="200" height="200" fill="none" xmlns="http://www.w3.org/2000/svg"><g clip-path="url(#clip0)"><path d="M100 200C44.8 200 0 155.2 0 100S44.8 0 100 0s100 44.8 100 100-44.8 100-100 100z" fill="#fff"/><path d="M100 0C88.4 0 76.4 2.1 65.7 6l4.5 12.2C79.7 14.8 89.7 13 100 13V0zM35.6 23.5C26.7 31 19.1 40.1 13.3 50.2l11.3 6.5C29.7 47.9 36.2 40 44 33.4l-8.4-9.9zM1.4 83C.5 88.6 0 94.3 0 100c0 6 .5 12 1.6 17.8l12.8-2.3c-1.8-9.9-1.8-20.4-.1-30.3L1.4 83zm23.5 60.9l-11.2 6.6c5.9 10.1 13.6 19.1 22.6 26.5l8.3-10c-7.9-6.5-14.6-14.3-19.7-23.1zM70.8 182l-4.4 12.2c11 3.9 22.7 5.9 34.3 5.8l-.1-13c-10.1.1-20.2-1.6-29.8-5zm85.8-15.9c-7.8 6.7-16.5 11.9-26.1 15.4l4.6 12.2c11-4.1 21.1-10.1 30-17.7l-8.5-9.9zm29.3-52c-1.6 10.1-5 19.7-10 28.6l11.3 6.4c5.6-10 9.6-21.1 11.5-32.9l-12.8-2.1zm0-65.3l-11.2 6.7c5.2 8.8 8.9 18.3 10.7 28.3l12.8-2.4c-2.1-11.7-6.3-22.5-12.3-32.6zM132.7 5.5l-4.3 12.3c9.6 3.3 18.5 8.3 26.4 14.8l8.2-10.1c-8.9-7.4-19.2-13.2-30.3-17z" fill="#358BC3"/><path d="M100 188c-48.552 0-88-39.448-88-88s39.448-88 88-88 88 39.448 88 88-39.448 88-88 88z" fill="url(#paint0_radial)"/><path d="M56.547 93h9.945V78.505c8.84-.325 14.234-6.37 14.234-15.86 0-10.075-5.85-15.665-16.445-15.665h-7.735V93zm9.945-36.92c3.054.195 4.55 2.405 4.55 6.63s-1.496 6.37-4.55 6.63V56.08zm19 36.92h21.84v-9.1H95.437V46.98h-9.945V93zm41.891-47.255c-10.01 0-18.07 10.725-18.07 23.92 0 13.91 7.865 24.57 18.07 24.57 10.01 0 18.005-10.725 18.005-24.245 0-13.52-7.93-24.245-18.005-24.245zm-.065 9.75c4.615 0 7.67 5.915 7.67 14.69 0 8.775-3.055 14.69-7.605 14.69-4.615 0-7.67-5.85-7.67-14.885 0-8.58 3.12-14.495 7.605-14.495zM61.91 153h9.945v-19.5h9.685V153h9.945v-46.02H81.54v17.42h-9.685v-17.42H61.91V153zm44.538-46.02L95.593 153h8.645l10.855-46.02h-8.645zM119.166 153h21.84v-9.1h-11.895v-36.92h-9.945V153z" fill="#fff"/></g><defs><radialGradient id="paint0_radial" cx="0" cy="0" r="1" gradientUnits="userSpaceOnUse" gradientTransform="rotate(45 -8.485 20.485) scale(248.902)"><stop stop-color="#6CBBF0"/><stop offset="1" stop-color="#2980B9"/></radialGradient><clipPath id="clip0"><path fill="#fff" d="M0 0H200V200H0z"/></clipPath></defs></svg>