<svg width="200" height="200" fill="none" xmlns="http://www.w3.org/2000/svg"><path d="M200 0H0v200h200V0z" fill="#24594A"/><path d="M110.266 95.646c0 4.301-3.507 7.724-7.715 7.724s-7.715-3.51-7.715-7.724c0-4.213 3.507-7.724 7.715-7.724s7.715 3.423 7.715 7.724z" fill="#66C07F"/><path d="M21.192 74.493L19 50.267c3.244-.702 6.576-1.14 9.907-1.228 2.718-.264 5.348-.352 8.066-.352 3.507.088 7.014.79 10.258 2.195 6.312 2.809 10.433 8.953 10.52 15.887.263 3.511-.263 7.022-1.578 10.27-1.49 3.072-3.682 5.793-6.488 7.724a31.584 31.584 0 0 1-6.224 3.072 120.205 120.205 0 0 1-7.715 1.58v2.194l1.227 15.536-6.839.615-5.874.351-2.455-26.157-.613-7.46zm23.847-6.758a8.079 8.079 0 0 0-4.033-6.233c-1.754-.877-3.682-1.228-5.611-1.228-.702-.088-1.49 0-2.192.35l1.578 17.117c.877.088 1.666-.088 2.455-.351 1.841-.176 3.595-.966 4.997-2.195.965-.79 1.754-1.93 2.192-3.072.438-1.492.614-2.984.614-4.389zm17.446 3.334l-2.192-24.226c3.069-.614 6.488-1.229 9.644-1.58 2.63-.175 5.348-.263 8.066-.263 3.507.088 7.014.79 10.258 2.194A18.198 18.198 0 0 1 99.132 62.73c.263 3.6-.263 7.198-1.578 10.533-1.49 3.072-3.682 5.793-6.488 7.724a31.596 31.596 0 0 1-6.225 3.073 120.273 120.273 0 0 1-7.715 1.58v2.194l1.49 15.624v.351l-6.838.614-5.962.264-2.455-26.07-.876-7.548zm23.847-7.11a8.079 8.079 0 0 0-4.033-6.232c-1.754-.877-3.682-1.229-5.611-1.229-.702-.087-1.49 0-2.192.352l1.578 17.116c.877.087 1.666-.088 2.455-.352 1.841-.175 3.595-.965 4.997-2.194.965-.79 1.754-1.931 2.192-3.072.526-1.404.79-2.897.614-4.389z" fill="#FFFEFF"/><path d="M26.803 136.197l-1.578-15.448a36.621 36.621 0 0 1 6.137-.79c1.578 0 3.507-.352 4.997-.352 2.28-.087 4.559.439 6.575 1.58 3.946 1.668 6.576 5.355 6.927 9.656.438 2.282 0 4.564-1.14 6.583-.877 2.106-2.367 3.862-4.208 5.003-1.14.878-2.455 1.492-3.858 1.931l-4.997 1.141v1.141l.789 9.655-4.647.351-3.858.351-1.578-16.238.439-4.564zm14.992-4.652c-.088-1.668-1.14-3.16-2.718-3.862a11.978 11.978 0 0 0-3.507-.79h-1.578l.789 10.796h1.578c1.14 0 2.28-.351 3.069-1.141.701-.439 1.227-1.141 1.578-1.931a3.923 3.923 0 0 0 .789-3.072zm50.5 1.492c.876 10.621-7.015 19.925-17.623 20.802h-.438c-10.258.615-19.376-6.758-20.779-16.94-.877-10.357 6.839-19.486 17.272-20.451h.789c9.994-1.229 19.112 5.793 20.427 15.799.351 0 .351.351.351.79zm-9.206.79c-.439-5.705-5.348-10.094-11.135-9.655-5.435.439-9.644 5.003-9.644 10.445v1.141a10.628 10.628 0 0 0 10.784 10.006h.789c5.26-.175 9.38-4.564 9.206-9.831v-.965c.263-.263.263-.79 0-1.053v-.088zm12.712-3.862l-1.14-15.448 4.209-.352 4.208-.351 1.14 11.587.35 2.721 4.998-8.076c3.068-4.652 4.208-6.583 4.646-7.373l4.998-.351 5.435-.351c-.35.351-1.928 2.721-5.435 7.724l-7.277 9.919 10.784 10.445c5.786 5.442 7.364 6.934 7.715 7.373l-5.348.263-5.436.351-6.926-6.934-7.365-7.724.351 3.862 1.14 11.937-4.208.351-4.209.352-1.578-16.239-1.052-3.686zm33.929-2.721l-1.578-15.448 10.433-.79 9.206-.79.789 7.373-5.786.351-4.998.351.789 7.373 5.436-.351 3.858-.351.35 3.511.351 3.862-3.858.351-5.435.351.789 6.583v.79l7.364-.79 3.507-.351.789 7.373-8.855.79-10.783.79-1.666-16.326-.702-4.652zm24.636-2.282l-1.578-15.449c.789 0 1.929-.351 3.507-.351s3.507-.351 4.647-.351c2.542-.439 5.173-.351 7.715.351 4.822.703 8.417 4.828 8.504 9.655a11.613 11.613 0 0 1-2.717 8.515c-.702.79-1.491 1.404-2.28 1.931.351.351 1.14 1.58 8.855 10.796 1.14 1.58 2.718 3.511 3.069 3.862l-4.998.351-3.507.351h-1.578c-3.068-3.862-6.575-8.865-9.995-13.517h-.789l.351 2.282 1.14 11.586-4.208.351-4.209.351-1.578-16.238-.351-4.476zm14.291-5.003a4.212 4.212 0 0 0-4.208-4.214h-.789c-.526-.087-1.052.088-1.578.351l.789 9.217h1.139c1.14 0 2.28-.351 3.069-1.141 1.227-1.054 1.841-2.634 1.578-4.213z" fill="#F04C3D"/></svg>