<svg width="200" height="200" fill="none" xmlns="http://www.w3.org/2000/svg"><path d="M200 0H0v200h200V0z" fill="#007ECB"/><path d="M51.483 91.042c12.293 0 12.293 18.705 0 18.705-12.013 0-12.013-18.984 0-18.705zM35 84.063c-21.512 21.496 11.454 54.439 32.966 32.942C89.478 94.951 56.791 62.567 35 84.063z" fill="#fff"/><path d="M99.058 91.066c12.576-.28 12.576 19.016 0 18.737-12.575.279-12.575-19.016 0-18.737zm-16.862-6.99c-22.007 21.812 11.432 54.251 33.725 32.998 21.721-22.093-11.432-54.532-33.725-32.999z" fill="#fff"/><path d="M146.058 91.066c12.576-.28 12.576 18.737 0 18.457-12.289.559-12.289-18.736 0-18.457zm-16.862-6.99c-22.007 21.812 11.432 54.251 33.725 32.998 21.721-22.093-11.432-54.532-33.725-32.999zM51.691 57.948c12.4 0 12.4 18.883 0 18.601-12.12.282-12.12-18.883 0-18.601zm23.393 10.71c1.127-31.849-46.504-32.976-46.786-1.41-.282 29.875 45.658 31.003 46.786 1.41z" fill="#fff"/><path d="M99.04 57.949c12.4-.282 12.4 19.165 0 18.601-12.402.282-12.402-18.883 0-18.601zm23.392 10.71c1.127-31.849-46.504-32.976-47.067-1.41-.282 29.875 45.658 31.003 47.067 1.41z" fill="#fff"/><path d="M152.872 60.77c8.737 8.455-4.791 21.983-13.246 13.246-9.019-8.455 4.791-22.265 13.246-13.247zm16.629 6.482c-.282-31.003-46.504-31.003-47.067 0 .563 31.002 46.785 31.002 47.067 0zm-88.499 77.51c.282-9.018-13.528-9.018-13.246 0-.282 9.019 13.528 9.019 13.246 0zm3.946 0c.845 9.583-13.247 14.938-17.756 6.483v12.683h-3.946v-29.594h3.946v3.946c4.791-8.455 18.601-3.1 17.756 6.482zm20.573-.005c.282-9.019-13.528-9.301-13.246 0-.282 9.018 13.528 9.018 13.246 0zm-17.192 0c-.282-14.093 21.42-14.093 21.42 0 0 13.81-21.702 14.092-21.42 0zm31.566 1.7l-2.818 3.1v5.355h-3.946v-28.748h3.946v18.038l8.455-9.583h4.791l-7.891 9.301 8.737 11.274h-4.51l-6.764-8.737zm27.905-3.668c.282-6.482-11.273-7.327-12.119 0H147.8zm3.946 2.819h-16.065c.282 6.764 9.864 8.455 12.401 2.536l3.1 1.691c-4.227 9.301-20.292 5.919-19.447-5.073 0-15.219 21.702-13.246 20.011.846zm3.66-11.279h3.946v4.791c1.409-3.1 3.946-5.073 7.328-5.073v3.664c-9.583-.282-7.046 10.992-7.328 17.192h-3.946v-20.574z" fill="#fff"/></svg>