<svg width="89" height="89" fill="none" xmlns="http://www.w3.org/2000/svg"><path d="M86.869 54.835c-5.873 23.574-29.752 37.92-53.33 32.043C9.969 81-4.377 57.12 1.505 33.548 7.378 9.973 31.257-4.379 54.826 1.5 78.4 7.378 92.746 31.261 86.869 54.835z" fill="#FFB546"/><path d="M63.588 37.946c.878-5.855-3.583-9.003-9.675-11.1l1.972-7.936-4.824-1.202-1.928 7.725a223.302 223.302 0 0 0-3.869-.91l1.941-7.774-4.824-1.206-1.981 7.93a162.486 162.486 0 0 1-3.08-.726v-.022l-6.654-1.663-1.287 5.155s3.587.82 3.51.875c1.956.484 2.305 1.78 2.247 2.806l-2.25 9.034c.134.036.309.09.502.162l-.512-.126-3.156 12.657c-.242.596-.847 1.488-2.215 1.148.05.071-3.51-.875-3.51-.875L21.6 57.426l6.28 1.565c1.171.292 2.319.601 3.444.888l-2 8.025 4.825 1.202 1.977-7.936c1.318.359 2.6.686 3.851.995l-1.973 7.9 4.829 1.202 1.995-8.003c8.236 1.556 14.423.928 17.033-6.519 2.098-5.994-.108-9.456-4.439-11.71 3.156-.727 5.532-2.803 6.165-7.084v-.005zm-11.03 15.468c-1.492 5.999-11.59 2.757-14.862 1.941L40.35 44.73c3.273.815 13.764 2.434 12.209 8.684zm1.493-15.558c-1.363 5.457-9.764 2.69-12.49 2.009l2.403-9.64c2.726.678 11.504 1.946 10.087 7.636v-.005z" fill="#fff"/></svg>