<svg width="200" height="200" fill="none" xmlns="http://www.w3.org/2000/svg"><path d="M200 0H0v200h200V0z" fill="#000"/><path fill-rule="evenodd" clip-rule="evenodd" d="M57.103 49.862l2.602-2.131c.71-.71 1.183-1.421 1.42-2.369.236-1.184-.237-2.604-.71-3.788-.71-2.605-1.656-5.21-1.183-8.052 1.42-5.447 8.516-6.867 13.72-7.341 1.183-1.42 2.366-2.842 4.021-3.789 7.57-4.973 20.58-.947 28.859.947 4.258 1.184 10.881 3.079 16.558 3.552 4.022.237 8.043-.473 12.301-1.184-1.42 2.368-3.075 5.447-5.677 7.105 7.333.473 13.01-.474 19.396-5.21-.236 4.973-.709 8.762-5.204 12.077-.709.474-1.182.947-1.892 1.184 7.096 1.658 13.72 5.21 17.978 12.314 6.859 10.893 5.677 26.286 12.063 37.18 2.602 4.499 6.86 8.761 10.645 12.313-4.021 0-9.935-.947-14.902-4.973 17.031 35.285-22.709 37.416-32.88 64.886-1.183-1.895-2.129-4.973-2.602-7.578-4.495 7.341-6.387 14.445-10.172 22.26-1.419-4.736-2.129-6.631-2.129-13.261-.946 4.026-5.677 11.603-11.117 16.576-1.42 3.553-2.839 6.868-5.678 10.42-4.967-13.735-9.225-18.471-13.956-24.391.71 4.025 1.183 10.419 0 14.919-2.129-2.605-3.785-4.973-5.913-7.578-3.549-4.5-8.753-7.815-13.72-10.657-7.57-4.262-17.741-9.235-21.999-17.05-3.075-5.447-2.602-11.367-.473-17.05-1.656 0-3.312.237-4.021.947-.474.474-.474 1.421-.474 2.131l.474 6.157-4.731-3.789c-6.387-5.209-9.462-13.971-7.333-21.786l-3.785-6.631c-.71-1.42-.71-2.131-.71-3.789 0-3.078 0-6.393-.71-9.472l-1.892-1.894c-1.419-1.421-1.655-3.316-.71-4.973 4.968-9 14.667-16.103 23.655-20.84-1.182-1.42-2.602-2.605-2.602-4.736 0-1.42.71-2.605 1.893-3.552 2.129-2.842 7.096-5.21 11.59-7.104zm76.405 106.564c7.569-19.655 38.32-24.628 32.88-48.783-.946-4.499-4.968-16.34-12.537-25.812 3.548 14.445 9.698 23.918.946 37.889 2.602-8.051 1.183-19.181-8.042-38.126 8.752 49.257-27.913 21.55-26.021 89.277 3.312-11.603 8.516-19.418 13.484-25.575-.947 3.078-1.42 6.631-.71 11.13zm-100.06-46.651c-3.074 6.63-1.892 16.339 5.205 22.26-.473-5.921 4.258-5.921 9.698-5.921h1.183c-13.247 29.838 25.547 28.891 36.428 48.546-.236-19.655-20.106-24.865-7.333-42.152-8.989 19.419 18.45 30.549 23.655 53.756 13.956-26.049-24.128-44.047-4.258-63.939 10.172-10.419 22.708-9.946 30.515-29.6.473 14.918-13.011 21.549-17.505 32.679-6.15 15.156 5.441 20.602.237 34.1-.947-18.234-13.957-18.471-3.785-39.073-24.128 17.997 3.548 30.548.473 55.65 13.01-14.445 10.645-28.654 10.408-35.995-.237-8.051.946-15.393 4.258-21.313 8.279-14.445 16.795-26.285 4.021-49.02 14.666 12.552 13.72 33.391 4.021 45.468 11.591-8.999 13.957-24.154 4.022-41.205 7.333 6.868 8.752 11.604 9.698 16.577 3.548-27.47-22.945-32.206-26.493-34.81 43.998 2.367 31.224 35.047 57.481 43.572-22.709-16.814-1.42-57.071-47.31-57.782 13.01 3.79 17.268 9 20.816 16.814-12.773-13.735-32.879-9.71-41.868-20.602 10.881-.71 33.353 7.814 37.847-6.394-13.246 12.55-53.223-10.657-59.136 9.472-2.602 9.473-8.99 9.71-13.483 12.077 1.892 0 11.827.71 16.558-1.42-2.602 3.078-3.549 2.13-6.624 5.92 4.258-2.368 8.516-.474 12.537-2.368-3.784 4.973-5.204 2.841-9.462 7.814 4.731-2.13 7.57-.71 10.882-3.552-10.645 16.814 17.031 26.286 5.44 51.388-4.258 9.472-14.902 12.787-20.58 23.207 4.495-15.156 26.967-22.497 13.01-45.94-3.074-5.21-4.967-13.262-4.494-13.262-1.419 14.682 8.516 19.892 3.548 32.443-4.967 12.55-26.966 11.603-27.439 32.679-6.86-26.286 24.128-19.655 20.816-48.546-3.075 6.868-5.44 8.526-11.59 11.13 2.838-3.552 12.3-13.024 9.698-25.812-2.129 10.183-10.408 18.235-18.687 19.182-3.075-4.5 6.623-5.92 7.096-11.13 0 0-.71.947-3.311 2.131-6.15 3.079-10.645-.474-18.688 7.341 0 0 1.656.474 3.075 1.421 1.183.947 2.13 2.368 2.839 4.736 5.204 1.421 9.935 1.658 14.666 1.895.236 0 2.129 0 2.129.236 0 .237-3.312.474-4.022.474-4.02 0-8.279 0-12.3-.947 0 .71.237 1.657 0 2.605a61.533 61.533 0 0 1 13.956 5.683c.237 0 1.893 1.421 1.893 1.658 0 .237-1.893-.711-2.13-.947-4.494-2.132-8.988-4.026-14.665-5.21-.473.71-.946 1.184-1.656 1.894 3.548 2.132 5.914 4.973 8.043 8.052.236.237 1.892 2.841 1.655 2.841 0 .237-2.129-2.368-2.129-2.368-2.365-3.078-5.204-5.683-8.752-7.578-.946.948-2.129 1.421-2.602 1.658-3.548.474-7.333-1.184-12.773-3.789-4.258-2.131-4.731-9.709-4.731-12.314l5.44-3.789c3.075.237 4.968-2.131 5.677-4.026-4.494 1.184-9.698-.947-16.794-.236-.71-.237-.71-.71-.473-1.184 8.279-11.367 22.945-14.683 26.02-19.892 0 0-2.366-2.605-2.13-4.973.237-2.369 8.043-6.157 14.667-10.42-5.44.947-16.322 5.92-19.16 8.288-2.84 2.132 2.602 3.79 2.365 7.341-12.774 7.105-20.343 13.972-24.6 21.076-.474.71-.474 1.421.236 1.895l2.365 2.368c1.183 3.552.946 7.578.946 11.604 0 .947 0 1.184.473 1.894l3.075 5.447c0 .237 1.893.237 1.893.237zm-4.494-17.05c.474 4.025.71 10.419 4.731 12.55-1.655-2.131-3.311-6.867-3.548-10.656l-1.183-1.895zm32.407-42.863c5.914-2.605 6.15-4.5 4.731-9.71-.946-4.025 3.785-4.972 6.86-4.972-.236 1.657-.236 3.552 0 5.92.473 8.525-7.096 8.999-13.483 15.866 8.989-5.21 17.74-8.525 19.16-11.84 2.366-5.684-.946-13.498 7.097-16.577 12.064-4.5 35.955 9.472 43.051.474-14.666 4.262-46.6-16.34-54.406 0-24.364 1.894-4.494 13.498-13.01 20.839zm10.172 7.814s-5.44 2.369-9.226 4.5c-2.602 1.42-5.677 4.736-5.44 8.051 0 0 1.656-2.605 2.839-3.315 1.182-.71 3.075-1.658 3.075-1.658.236 3.553-1.893 3.079-1.42 6.394 0 0 3.075-.71 4.968 0 1.892.71 3.312.474 5.677-.71 3.548-1.895 2.129-1.658 5.914-1.184-3.076-3.079-5.677-4.5-9.699-2.368-1.183.71-1.42-.237-1.892-.947-.946-1.658.473-2.132.71-2.842l4.494-5.92zm-12.3 14.21c-5.205 1.657-12.064 6.156-14.903 10.656 8.516-6.394 14.193-6.157 14.902-10.657zm51.567 34.573c11.354-20.839-.474-19.655-10.645-34.1 2.129 11.603 13.72 15.866 10.645 34.1zm-6.387-35.995c3.548 7.578 15.375 7.815 13.483 15.393 6.86-11.604-6.623-9.946-13.483-15.393zM69.167 156.19c-7.096-6.867-14.429-14.919-10.171-27.943-8.989 13.261.946 22.023 10.171 27.943zm16.795-106.8c2.602 0 7.096-2.843 8.28-4.974-.237 3.79-2.366 5.684-3.312 7.105 1.182-.474 2.838-1.184 4.494-2.132 1.42-.947 3.075-2.131 3.785-3.078 9.698 8.288 2.129 17.997-1.183 22.023 6.86-1.658 17.504-8.052 16.322-12.55-1.893-6.868-8.516-19.893-17.505-17.762-6.86 1.895-5.44 8.526-10.88 11.367zm-49.675 61.333c-2.838 5.683-1.892 8.762.947 14.445 2.602-8.762 14.429.237 17.267-8.999-10.408 0-12.773-7.104-18.214-5.446z" fill="#FED723"/></svg>