<svg width="200" height="200" viewBox="0 0 200 200" fill="none" xmlns="http://www.w3.org/2000/svg"><path d="M100 200C44.8 200 0 155.2 0 100S44.8 0 100 0s100 44.8 100 100-44.8 100-100 100z" fill="#BBB"/><path d="M86.679 121.999l-22.64-58.64L40.919 122h12.24l2.96-8.8h14.64l3.04 8.8h12.88zm-18.56-18.16h-9.04l4.48-13.6 4.56 13.6zm36.567-27.28c-10.24 0-18 10.08-18 23.44 0 13.2 7.76 23.28 17.92 23.28 10.24 0 18.08-10.16 18.08-23.36 0-13.28-7.76-23.36-18-23.36zm-.08 10.8c4.32 0 6.8 4.64 6.8 12.56 0 7.76-2.56 12.48-6.72 12.48-4.32 0-6.8-4.64-6.8-12.72 0-7.6 2.56-12.32 6.72-12.32zM129.41 122h12.24v-21.68h13.52v-10.64h-13.52V76.56h14.64v-11.2h-26.88V122z" fill="#fff"/></svg>