<svg fill="none" height="200" viewBox="0 0 200 200" width="200" xmlns="http://www.w3.org/2000/svg" xmlns:xlink="http://www.w3.org/1999/xlink"><radialGradient id="a" cx="0" cy="0" gradientTransform="matrix(200.00020331 200.00020331 -200.00020331 200.00020331 0 0)" gradientUnits="userSpaceOnUse" r="1"><stop offset="0" stop-color="#525252"/><stop offset="1"/></radialGradient><linearGradient id="b"><stop offset=".00120812" stop-color="#d6d6d6"/><stop offset="1" stop-color="#757575"/></linearGradient><linearGradient id="c" gradientUnits="userSpaceOnUse" x1="64.2963" x2="61.5348" xlink:href="#b" y1=".727691" y2="79.3443"/><linearGradient id="d" gradientUnits="userSpaceOnUse" x1="116.12" x2="113.79" xlink:href="#b" y1="33.3529" y2="86.555"/><linearGradient id="e"><stop offset=".00120812" stop-color="#fc0000"/><stop offset="1" stop-color="#b60000"/></linearGradient><linearGradient id="f" gradientUnits="userSpaceOnUse" x1="146.413" x2="122.948" xlink:href="#e" y1="160.141" y2="90.7673"/><linearGradient id="g" gradientUnits="userSpaceOnUse" x1="57.8664" x2="81.2623" xlink:href="#e" y1="180.132" y2="91.5118"/><path d="m200 0h-200v200h200z" fill="url(#a)"/><path d="m47.293 28.4483 30.9729 42.041-7.7279 7.169 33.426 7.3226-4.4771-33.387-4.2932 3.7381-24.6557-35.2304z" fill="url(#c)"/><path d="m106.882 51.2861 4.477 33.6942 22.264 5.428-5.336-7.8347 9.384-17.3592-13.003-18.7417-11.837 13.109z" fill="url(#d)"/><path d="m151.163 132.359-5.949 26.218-23.859-32.517-4.661 10.395-5.09-43.9355 22.018 4.9159-2.269 6.1446z" fill="url(#f)"/><path d="m72.562 179.001 28.581-52.641 7.36 9.729-4.539-43.5768-34.0393-8.0395 8.7705 12.2896-39.5595 43.2187z" fill="url(#g)"/></svg>