<svg width="20" height="20" xmlns="http://www.w3.org/2000/svg"><path d="M18.79 3.555h-4.746c-.265-1.324-1.433-2.383-2.872-2.383h-.586V0H9.414v1.172h-.586c-1.44 0-2.607 1.06-2.872 2.383H1.211v.586c0 2.842 1.813 5.172 4.245 6.059l-1.73 1.73.829.828 1.742-1.742c.425.624.93 1.2 1.508 1.709.278.244.437.629.437 1.056 0 .83-.683 1.531-1.493 1.531H5.9V20h8.203v-4.688h-.851c-.81 0-1.493-.7-1.493-1.531 0-.427.16-.812.437-1.056a9.094 9.094 0 0 0 1.508-1.71l1.742 1.743.829-.828-1.73-1.73c2.431-.887 4.245-3.217 4.245-6.06v-.585zM8.827 2.344h2.344c.753 0 1.413.514 1.657 1.21H7.171c.244-.696.904-1.21 1.657-1.21zM2.415 4.727h2.312V5.93c0 .989.163 1.96.473 2.88a5.253 5.253 0 0 1-2.785-4.084zM7.07 18.828v-2.344h5.86v2.344H7.07zm4.35-6.983c-.53.467-.834 1.172-.834 1.936 0 .552.167 1.082.475 1.531H8.94c.308-.449.475-.979.475-1.531 0-.764-.304-1.47-.835-1.936A7.885 7.885 0 0 1 5.9 5.931V4.727h8.203V5.93a7.885 7.885 0 0 1-2.681 5.914zM14.8 8.81c.31-.919.473-1.89.473-2.879V4.726h2.312A5.254 5.254 0 0 1 14.8 8.81z"/><path d="M10 5.898a1.76 1.76 0 0 0-1.758 1.758c0 .97.789 1.758 1.758 1.758a1.76 1.76 0 0 0 1.758-1.758A1.76 1.76 0 0 0 10 5.898zm0 2.344a.587.587 0 1 1 .001-1.173A.587.587 0 0 1 10 8.242z"/></svg>