<svg width="20" height="20" xmlns="http://www.w3.org/2000/svg"><path d="M17.071 2.929A9.935 9.935 0 0 0 10 0a9.935 9.935 0 0 0-7.071 2.929A9.935 9.935 0 0 0 0 10a9.935 9.935 0 0 0 2.929 7.071A9.935 9.935 0 0 0 10 20a9.935 9.935 0 0 0 7.071-2.929A9.935 9.935 0 0 0 20 10a9.935 9.935 0 0 0-2.929-7.071zM10 1.172a8.77 8.77 0 0 1 6.242 2.586 8.844 8.844 0 0 1 1.678 2.334c-.473.13-.936.455-1.179.881-.182.32-.262.68-.236 1.038-.728.448-1.273 1.067-1.589 1.812a3.703 3.703 0 0 0-.155.444c-.392-.775-.63-1.556-.587-2.605a1.838 1.838 0 0 0 1.672-1.829 1.838 1.838 0 0 0-1.836-1.836 1.835 1.835 0 1 0-.991 3.38 6.16 6.16 0 0 0 .636 3.298l.53 1.05a3.458 3.458 0 0 0-1.199-.07 1.829 1.829 0 0 0-1.265-.506 1.838 1.838 0 0 0-1.836 1.836c0 1.012.824 1.836 1.836 1.836a1.838 1.838 0 0 0 1.828-2.008c.457.03.834.186 1.054.358.404.315.705.725.881 1.188l.014.037a2.754 2.754 0 0 1-1.199 3.319A8.779 8.779 0 0 1 10 18.828a8.77 8.77 0 0 1-6.242-2.586A8.77 8.77 0 0 1 1.172 10a8.77 8.77 0 0 1 2.586-6.242A8.77 8.77 0 0 1 10 1.172zm8.371 6.011c.14.419.25.85.326 1.288l-.184.05a.665.665 0 0 1-.352-1.28l.21-.058zm-5.025-1.35a.665.665 0 1 1 1.33.002.665.665 0 0 1-1.33-.002zm-1.625 6.488a.665.665 0 1 1-.001 1.33.665.665 0 0 1 .001-1.33zm4.85 1.595l-.6-1.68c-.241-.674-.233-1.35.024-1.956.197-.466.53-.865.975-1.174a1.844 1.844 0 0 0 1.85.546 8.76 8.76 0 0 1-1.993 5.946 3.925 3.925 0 0 0-.257-1.683z"/><path d="M4.41 11.117v1.087l-1.046.004.005 1.172 1.04-.004v1.263h1.172v-1.267l2.257-.004v-1.172s-1.572.002-2.257.005v-1.088a727.55 727.55 0 0 1 1.67-.004c.768 0 1.495-.297 2.05-.836.56-.546.868-1.27.868-2.037 0-.767-.308-1.49-.869-2.037a2.922 2.922 0 0 0-2.048-.836H4.409v4.583c-.273 0-1.045.004-1.045.004l.005 1.171 1.04-.004zM5.58 6.535h1.67c.947 0 1.747.78 1.747 1.701 0 .922-.8 1.701-1.746 1.701l-1.67.005V6.535z"/></svg>