<svg width="16" height="16" viewBox="0 0 16 16" fill="none" xmlns="http://www.w3.org/2000/svg">
<path d="M4.08508 1.02661C2.80835 1.74646 1.74817 2.80664 1.02832 4.08325H4.08508V1.02661Z" fill="#C6C7CA"/>
<path d="M11.916 1.02661V4.08325H14.9728C14.2529 2.80664 13.1927 1.74646 11.916 1.02661Z" fill="#C6C7CA"/>
<path d="M4.08508 14.9733V11.9165H1.02832C1.74817 13.1932 2.80835 14.2534 4.08508 14.9733Z" fill="#C6C7CA"/>
<path d="M11.916 14.9733C13.1927 14.2534 14.2529 13.1932 14.9728 11.9165H11.916V14.9733Z" fill="#C6C7CA"/>
<path d="M15.5438 5.33313C15.4775 5.146 15.3005 5.02087 15.1019 5.02087H11.7656C11.5555 5.02087 11.3579 4.93896 11.2096 4.79077C11.0631 4.64417 10.9791 4.44141 10.9791 4.23438V0.898071C10.9791 0.699463 10.854 0.522339 10.6667 0.456177C9.81152 0.153442 8.91431 0 8 0C7.08569 0 6.18848 0.153442 5.33325 0.456177C5.146 0.522339 5.02087 0.699463 5.02087 0.898071V4.23438C5.02087 4.44141 4.93689 4.64417 4.79077 4.79041C4.64209 4.93896 4.44446 5.02087 4.23438 5.02087H0.898071C0.699463 5.02087 0.522339 5.146 0.456177 5.33313C0.153442 6.18835 0 7.08569 0 8C0 8.91431 0.153442 9.81165 0.456177 10.6669C0.522461 10.854 0.699463 10.9791 0.898071 10.9791H4.23438C4.44446 10.9791 4.64209 11.061 4.79041 11.2092C4.93689 11.3558 5.02087 11.5586 5.02087 11.7656V15.1019C5.02087 15.3005 5.146 15.4775 5.33325 15.5438C6.18848 15.8466 7.08569 16 8 16C8.91431 16 9.81152 15.8466 10.6667 15.5438C10.854 15.4777 10.9791 15.3005 10.9791 15.1019V11.7656C10.9791 11.5586 11.0631 11.3558 11.2092 11.2096C11.3579 11.061 11.5555 10.9791 11.7656 10.9791H15.1019C15.3005 10.9791 15.4777 10.854 15.5438 10.6669C15.8466 9.81165 16 8.91431 16 8C16 7.08569 15.8466 6.18835 15.5438 5.33313ZM3.31055 8.67273C3.49365 8.85583 3.49365 9.15259 3.31055 9.33557C3.21912 9.42712 3.09912 9.4729 2.97913 9.4729C2.85913 9.4729 2.73926 9.42712 2.64771 9.33557L1.64355 8.33142C1.46045 8.14832 1.46045 7.85156 1.64355 7.66858L2.64771 6.66443C2.83081 6.48132 3.12756 6.48132 3.31067 6.66443C3.49365 6.84741 3.49365 7.14417 3.31067 7.32727L2.63794 8L3.31055 8.67273ZM9.33557 13.3523L8.33142 14.3564C8.23987 14.448 8.12 14.4938 8 14.4938C7.88 14.4938 7.76001 14.448 7.66858 14.3564L6.66443 13.3523C6.48132 13.1692 6.48132 12.8724 6.66443 12.6893C6.84741 12.5063 7.14417 12.5063 7.32727 12.6893L8 13.3621L8.67273 12.6893C8.85571 12.5063 9.15259 12.5063 9.33557 12.6893C9.51868 12.8724 9.51868 13.1692 9.33557 13.3523ZM9.33557 3.31067C9.24414 3.4021 9.12415 3.448 9.00415 3.448C8.88428 3.448 8.76428 3.40222 8.67273 3.31067L8 2.63794L7.32727 3.31067C7.14429 3.49365 6.84741 3.49365 6.66443 3.31067C6.48132 3.12756 6.48132 2.83081 6.66443 2.64771L7.66858 1.64355C7.85156 1.46045 8.14844 1.46045 8.33142 1.64355L9.33569 2.64771C9.51868 2.83081 9.51868 3.12756 9.33557 3.31067ZM14.3564 8.33142L13.3523 9.33557C13.2607 9.42712 13.1407 9.4729 13.0209 9.4729C12.9009 9.4729 12.7809 9.42712 12.6895 9.33557C12.5063 9.15259 12.5063 8.85583 12.6895 8.67273L13.3621 8L12.6895 7.32727C12.5063 7.14417 12.5063 6.84741 12.6895 6.66443C12.8724 6.48132 13.1692 6.48132 13.3523 6.66443L14.3564 7.66858C14.5396 7.85156 14.5396 8.14844 14.3564 8.33142Z" fill="#C6C7CA"/>
</svg>
