<svg width="20" height="20" fill="none" xmlns="http://www.w3.org/2000/svg"><path d="M0 1.875v8.75C0 11.659.841 12.5 1.875 12.5h2.838l.163.344-.228.5c-2.26-.85-4.706.847-4.647 3.301a3.447 3.447 0 0 0 3.392 3.354 3.437 3.437 0 0 0 3.274-2.26l.267-.56.266.56A3.437 3.437 0 0 0 10.474 20a3.447 3.447 0 0 0 3.393-3.354 3.437 3.437 0 0 0-4.647-3.3l-.229-.5.164-.345h8.97A1.877 1.877 0 0 0 20 10.625v-8.75A1.877 1.877 0 0 0 18.125 0H1.875A1.877 1.877 0 0 0 0 1.875zM5.5 17.29a2.187 2.187 0 0 1-2.09 1.458 2.204 2.204 0 0 1-2.16-2.187c0-1.74 1.925-2.762 3.363-1.845.32.204.747.078.904-.267l.06-.13.665 1.402c-.788 1.66-.728 1.53-.741 1.57zm3.755-2.574c1.474-.94 3.403.151 3.361 1.898a2.205 2.205 0 0 1-2.158 2.134 2.187 2.187 0 0 1-2.091-1.458c-.015-.042.243.504-4.575-9.644a3.816 3.816 0 0 1-.02-3.225L8.351 14.45a.625.625 0 0 0 .904.267zm8.87-13.467c.345 0 .625.28.625.625v8.75c0 .344-.28.625-.625.625-10.363 0-9.858.008-9.868-.014a.625.625 0 1 0-.507-1.11l-3.314-7.26a.625.625 0 0 0-1.043-.148 5.066 5.066 0 0 0-.73 5.465L4.12 11.25H1.875a.626.626 0 0 1-.625-.625v-8.75c0-.345.28-.625.625-.625h16.25z"/><path d="M10.444 3.678a.625.625 0 0 0 .11.877l5.625 4.375a.626.626 0 0 0 .767-.986l-5.625-4.375a.625.625 0 0 0-.877.11zm6.743.385a1.25 1.25 0 1 0-2.5 0 1.25 1.25 0 0 0 2.5 0zm-4.375 4.374a1.25 1.25 0 1 0-2.5 0 1.25 1.25 0 0 0 2.5 0zm-1.445 8.125a.937.937 0 1 0-1.875 0 .937.937 0 0 0 1.875 0zm-6.992 0a.937.937 0 1 0-1.875 0 .937.937 0 0 0 1.875 0zM8.75 1.875a.625.625 0 1 0-1.25 0 .625.625 0 0 0 1.25 0zm0 2.188a.625.625 0 1 0-1.25 0 .625.625 0 0 0 1.25 0zm0 2.187a.625.625 0 1 0-1.25 0 .625.625 0 0 0 1.25 0zm0 2.188a.625.625 0 1 0-1.25 0 .625.625 0 0 0 1.25 0z"/></svg>