<svg width="16" height="16" fill="none" xmlns="http://www.w3.org/2000/svg"><path d="M15.438 2.28L8.225.033l-.042-.01-.043-.01a.802.802 0 00-.284 0c-.013.003-.03.006-.042.01l-.043.01-1.61.5-1.3.407-3.643 1.134-.656.203A.816.816 0 000 3.059v9.872c0 .362.229.676.562.781l7.21 2.254a.767.767 0 00.457 0l7.21-2.247a.816.816 0 00.561-.782V3.062a.816.816 0 00-.562-.782zM2.293 12.05c-.382 0-.696-.483-.696-1.079s.31-1.08.696-1.08c.382 0 .696.484.696 1.08 0 .596-.314 1.08-.696 1.08zm1.643-3.076c-.421 0-.764-.534-.764-1.191s.343-1.191.764-1.191c.422 0 .765.534.765 1.191s-.34 1.191-.765 1.191zm1.875-3.052c-.44 0-.797-.555-.797-1.239s.356-1.239.797-1.239c.441 0 .797.555.797 1.239s-.356 1.239-.797 1.239zm8.611 6.406l-5.635 1.757V1.915l5.635 1.756v8.657z" fill="#C6C7CA"/></svg>