<svg width="62" height="70" fill="none" xmlns="http://www.w3.org/2000/svg"><path d="M1.564 43.34A6.145 6.145 0 0 1 0 39.238c0-3.392 2.748-6.152 6.125-6.152h11.888c-1.177-3.589-1.68-8.35-1.68-10.392v-2.05c0-4.522 3.664-8.203 8.167-8.203h2.042c.936 0 1.753.64 1.98 1.553l1.112 4.47c1.559 6.259 6.506 13.165 11.627 14.42.897-2.28 3.111-3.9 5.697-3.9h12.25c1.127 0 2.042.92 2.042 2.051V67.95c0 1.132-.915 2.051-2.042 2.051h-12.25c-2.435 0-4.542-1.434-5.529-3.507l-7.015 2.349A22.32 22.32 0 0 1 27.312 70H10.208c-3.377 0-6.125-2.76-6.125-6.152 0-.8.153-1.566.43-2.267a6.16 6.16 0 0 1-2.95-10.038A6.145 6.145 0 0 1 0 47.441c0-1.573.592-3.012 1.564-4.101zm43.353 20.508c0 1.13.916 2.05 2.041 2.05h10.209V33.086H46.958c-1.125 0-2.041.92-2.041 2.05v28.712zM10.208 45.39H6.125c-1.126 0-2.042.92-2.042 2.05 0 1.131.916 2.051 2.042 2.051h4.083c1.127 0 2.042.919 2.042 2.051 0 1.132-.915 2.05-2.042 2.05H6.125c-1.126 0-2.042.92-2.042 2.051 0 1.131.916 2.051 2.042 2.051h4.083c1.127 0 2.042.92 2.042 2.051 0 1.132-.915 2.05-2.042 2.05-1.125 0-2.041.921-2.041 2.052 0 1.13.916 2.05 2.041 2.05h17.104c1.98 0 3.935-.318 5.812-.947l7.71-2.581V36.993c-3.203-.61-6.338-2.648-9.168-5.983-2.763-3.256-5.003-7.574-5.993-11.55l-.725-2.917H24.5c-2.251 0-4.083 1.84-4.083 4.102v2.049c0 2.754.857 8.035 1.954 10.392h4.17c1.128 0 2.042.919 2.042 2.05 0 1.133-.914 2.051-2.041 2.051H6.125c-1.126 0-2.042.92-2.042 2.051 0 1.13.916 2.051 2.042 2.051h4.083c1.127 0 2.042.919 2.042 2.05 0 1.133-.915 2.052-2.042 2.052z" fill="#fff"/><path d="M51.041 61.797A2.046 2.046 0 0 1 49 59.747c0-1.133.914-2.052 2.041-2.052 1.128 0 2.042.919 2.042 2.051 0 1.133-.914 2.05-2.042 2.05zM22.458 0C23.586 0 24.5.918 24.5 2.05v4.24c0 1.132-.914 2.05-2.042 2.05a2.046 2.046 0 0 1-2.041-2.05V2.05c0-1.132.914-2.05 2.041-2.05zm8.66 9.042l2.888-2.9c.797-.801 2.09-.801 2.887 0 .797.8.797 2.099 0 2.9l-2.887 2.9c-.797.8-2.09.801-2.887 0-.798-.8-.798-2.1 0-2.9zm-23.097-2.9c.797-.801 2.09-.801 2.887 0l2.888 2.9c.797.8.797 2.1 0 2.9-.798.8-2.09.801-2.888 0l-2.887-2.9c-.797-.801-.797-2.1 0-2.9z" fill="#fff"/></svg>