<svg width="68" height="68" fill="none" xmlns="http://www.w3.org/2000/svg"><path d="M20.4 26.067h3.4a2.259 2.259 0 0 0 1.951-1.134 6.143 6.143 0 0 1 5.038 2.895 25.669 25.669 0 0 1 2.737 5.908 3.74 3.74 0 0 0 7.273-1.21 18.404 18.404 0 0 0-1.727-7.593h7.27a3.4 3.4 0 0 0 1.953-6.265 3.393 3.393 0 0 0-1.133-4.533 3.39 3.39 0 0 0-1.133-4.533 3.4 3.4 0 0 0-2.963-5.069H32.803c-1.73 0-2.678.671-5.152 1.909a3.434 3.434 0 0 1-1.585.358A2.267 2.267 0 0 0 23.8 4.533h-3.4A2.267 2.267 0 0 0 18.133 6.8v17a2.267 2.267 0 0 0 2.267 2.267zm26.873-5.32a1.133 1.133 0 0 1-.93 1.92h-5.544a1.133 1.133 0 0 1 0-2.267h5.667a1.1 1.1 0 0 1 .807.347zm-1.133-4.533a1.133 1.133 0 0 1-.807 1.92h-5.667a1.133 1.133 0 0 1 0-2.267h5.667c.305 0 .597.126.808.348l-.001-.001zm-.807-3.747c0 .626-.508 1.133-1.133 1.133h-4.534a1.133 1.133 0 0 1 0-2.267H44.2c.622.008 1.125.51 1.133 1.134zM43.066 6.8c.623.007 1.126.51 1.133 1.133 0 .626-.507 1.134-1.133 1.134h-3.4a1.133 1.133 0 0 1 0-2.267h3.4zM26.13 9.067c1.73 0 2.678-.671 5.152-1.909.953-.471 1.4-.358 5.193-.358a3.314 3.314 0 0 0 .68 3.4 3.348 3.348 0 0 0 0 4.533 3.369 3.369 0 0 0 .703 5.133 3.276 3.276 0 0 0-.063 3.218 2.227 2.227 0 0 0-.823 2.69 15.925 15.925 0 0 1 1.56 6.753 1.473 1.473 0 0 1-2.854.497 28.025 28.025 0 0 0-3.002-6.454 8.434 8.434 0 0 0-6.61-3.903c0-14.65-.05-13.6.064-13.6zM20.4 6.8h3.4v17h-3.4v-17zm.535 42.767l-3.798-.577-1.71-3.618a2.012 2.012 0 0 0-3.655 0l-1.71 3.618-3.797.576a2.084 2.084 0 0 0-1.133 3.514l2.777 2.833-.656 4.004a2.04 2.04 0 0 0 2.965 2.166l3.382-1.859c3.263 1.792 3.616 2.11 4.35 2.11a2.059 2.059 0 0 0 1.997-2.417l-.659-4.006 2.777-2.834a2.083 2.083 0 0 0-1.13-3.51zm-3.322 4.82a2.1 2.1 0 0 0-.567 1.813l.602 3.662-3.08-1.691a1.982 1.982 0 0 0-1.927 0l-3.083 1.692.602-3.663a2.098 2.098 0 0 0-.567-1.807l-2.596-2.645 3.536-.537a2.032 2.032 0 0 0 1.531-1.15l1.536-3.254 1.536 3.252a2.032 2.032 0 0 0 1.53 1.15l3.537.537-2.59 2.64z" fill="#9F783E"/><path d="M63.467 0H4.533A4.533 4.533 0 0 0 0 4.533v58.934A4.533 4.533 0 0 0 4.533 68h58.934A4.533 4.533 0 0 0 68 63.467V4.533A4.533 4.533 0 0 0 63.467 0zM4.533 2.267h58.934a2.267 2.267 0 0 1 2.266 2.266v34H2.267v-34a2.267 2.267 0 0 1 2.266-2.266zm-2.266 61.2V40.8h22.666v24.933h-20.4a2.267 2.267 0 0 1-2.266-2.266zm61.2 2.266H27.2V40.8h38.533v22.667a2.267 2.267 0 0 1-2.266 2.266z" fill="#9F783E"/><path d="M62.334 47.6H30.6a1.133 1.133 0 0 0 0 2.267h31.733a1.133 1.133 0 0 0 0-2.267zm0 4.533H30.6a1.133 1.133 0 0 0 0 2.267h31.733a1.133 1.133 0 0 0 0-2.267zm-12.467 4.534H30.6a1.133 1.133 0 0 0 0 2.266h19.267a1.133 1.133 0 0 0 0-2.266z" fill="#9F783E"/></svg>