<svg width="51" height="50" fill="none" xmlns="http://www.w3.org/2000/svg"><rect x="51" y="50" width="50" height="50" rx="25" transform="rotate(-180 51 50)" fill="#AF3185" fill-opacity=".1"/><path fill-rule="evenodd" clip-rule="evenodd" d="M3.419 19.352a.807.807 0 0 1-.807-.806V2.419c0-.445.363-.807.807-.807h25.805c.446 0 .807.362.807.807v16.127a.807.807 0 0 1-.806.806H3.418zm28.226-.805V2.42A2.423 2.423 0 0 0 29.224 0H3.418a2.42 2.42 0 0 0-2.42 2.42v16.127a2.42 2.42 0 0 0 2.42 2.42h25.805a2.422 2.422 0 0 0 2.42-2.42z" fill="#AF3185"/><mask id="a" maskUnits="userSpaceOnUse" x="1" y="0" width="50" height="50"><path fill-rule="evenodd" clip-rule="evenodd" d="M1 0v50h50V0H1z" fill="#fff"/></mask><g mask="url(#a)" fill-rule="evenodd" clip-rule="evenodd" fill="#AF3185"><path d="M2.614 24.195v24.191h46.773v-24.19H2.614zM1 22.581V50h50V22.58H1zM25.196 9.679V8.064H23.58V9.68h-1.614V4.838h1.614V6.45h1.615V4.838h1.61v4.84h-1.61zm-4.843-6.452v8.062h8.066V3.227h-8.066zm2.421 9.675v1.613h5.645v-1.613h-5.645zm-4.838 3.227v1.613h10.483V16.13H17.936zm-8.333-.42a1.634 1.634 0 0 1-.075-2.31l.075-.075a1.589 1.589 0 0 1 1.075-.422 1.614 1.614 0 1 1 0 3.228 1.59 1.59 0 0 1-1.075-.421zm-3.765-1.194a1.634 1.634 0 0 1 1.613-1.613c.138 0 .276.018.408.053a3.27 3.27 0 0 0 0 3.12c-.132.037-.27.056-.408.055a1.634 1.634 0 0 1-1.613-1.615zm4.838 3.226a3.226 3.226 0 0 0 0-6.452 3.192 3.192 0 0 0-1.614.448 3.193 3.193 0 0 0-1.613-.448 3.228 3.228 0 0 0 0 6.452 3.185 3.185 0 0 0 1.613-.428 3.19 3.19 0 0 0 1.614.428z"/><path d="M26.805 41.81a3.219 3.219 0 0 0-.807-6.336 1.615 1.615 0 0 1 0-3.228c.89 0 1.614.722 1.614 1.614h1.614a3.217 3.217 0 0 0-2.42-3.11v-1.717h-1.61v1.728a3.218 3.218 0 1 0 .802 6.337 1.613 1.613 0 1 1-1.61 1.616v-.003h-1.614a3.217 3.217 0 0 0 2.421 3.1v1.727h1.61v-1.727zm19.357-21.65v-6.442c0-.893-.72-1.622-1.613-1.632h-5.636v2.694l-3.779-4.295 3.78-4.31v2.696h6.442a4.032 4.032 0 0 1 4.03 4.03v4.838H51v-4.838a5.652 5.652 0 0 0-5.644-5.644h-4.842V1.884l-7.513 8.6 7.513 8.597v-5.363h4.035v7.249h1.613v-.807zM9.872 45.163H5.836v-4.034h-1.61v5.644H9.87v-1.61zM5.836 27.419H9.87v-1.613H4.227v5.648h1.61v-4.035zm41.936 13.71h-1.61v4.034H42.13v1.61h5.644v-5.644zm0-15.323H42.13v1.613h4.034v4.035h1.61v-5.648zm-16.129 9.678v1.613h1.614v-1.613h-1.614zm-12.902 0v1.613h1.613v-1.613h-1.613z"/><path d="M32.117 44.807l-.945-1.307a8.866 8.866 0 1 1 1.44-1.307l1.203 1.078c3.859-4.313 3.49-10.938-.823-14.797-4.313-3.858-10.937-3.49-14.795.824-3.86 4.312-3.491 10.936.822 14.795a10.477 10.477 0 0 0 13.098.704v.01zm17.269-25.454v1.614H51v-1.614h-1.614z"/></g></svg>