<svg width="20" height="20" fill="none" xmlns="http://www.w3.org/2000/svg"><g opacity=".7"><path d="M18.036 9.622h.586V5.97h-6.804V1.758A1.76 1.76 0 0 0 10.06 0H1.758A1.76 1.76 0 0 0 0 1.758v16.484C0 19.212.789 20 1.758 20h8.302a1.76 1.76 0 0 0 1.758-1.758V14.03h6.804v-3.65h-.586a.379.379 0 0 1 0-.757zM7.928 1.172l-.39 1.172H4.28l-.39-1.172h4.038zm2.132 17.656H1.758a.587.587 0 0 1-.586-.586v-.687c.183.066.38.101.586.101h8.302c.205 0 .402-.035.586-.1v.686a.587.587 0 0 1-.586.586zm.586-2.93a.587.587 0 0 1-.586.586H1.758a.587.587 0 0 1-.586-.586V1.758c0-.323.263-.586.586-.586h.896l.782 2.344h4.946l.781-2.344h.897c.323 0 .586.263.586.586V5.97h-6.55v3.65h.585a.379.379 0 0 1 0 .758h-.586v3.65h6.55v1.87zm6.804-7.333A1.553 1.553 0 0 0 16.486 10c0 .648.399 1.204.964 1.435v1.423H5.267v-1.423c.565-.231.964-.787.964-1.435s-.399-1.204-.964-1.435V7.142H17.45v1.423z"/><path d="M12.614 10.927l.829.828L15.198 10 13.44 8.244l-.828.829.34.34H8.352v1.172h4.604l-.342.342z"/></g></svg>