<svg width="200" height="200" fill="none" xmlns="http://www.w3.org/2000/svg"><path d="M200 0H0v200h200V0z" fill="#333"/><path d="M158.639 92.124l-42.965-43.355-2.401 2.79-8.373 9.736.065.065-38.746 45.496h36.669L83.223 141.32H69.139c-9.151 0-16.94-4.933-20.769-13.241-3.829-8.307-2.596-17.458 3.31-24.403l55.297-65.097L94.646 28 39.349 93.097c-9.995 11.812-12.137 27.778-5.647 41.732 6.49 14.019 20.055 22.651 35.502 22.651h9.606l8.372-9.735.26-.065 43.484-51.922H94.711l15.511-29.141 36.93 36.929c7.723 7.724 7.593 17.589 4.803 24.209-2.791 6.62-9.606 13.694-20.51 13.694h-22.78l16.225 16.226h6.555c15.837 0 29.466-9.086 35.502-23.754 6.101-14.538 2.921-30.569-8.308-41.797z" fill="url(#paint0_linear)"/><path d="M100.876 152.156l-17.33 20.12h36.022l-18.692-20.12z" fill="#FF4417"/><defs><linearGradient id="paint0_linear" x1="100.007" y1="157.755" x2="100.007" y2="28" gradientUnits="userSpaceOnUse"><stop stop-color="#FF4318"/><stop offset="1" stop-color="#FF8F0A"/></linearGradient></defs></svg>