<svg width="82" height="20" fill="none" xmlns="http://www.w3.org/2000/svg"><g clip-path="url(#clip0)"><path d="M5.658 15.4c-.368 0-.736-.204-.94-.531L.138 6.979a1.129 1.129 0 0 1 .41-1.512 1.129 1.129 0 0 1 1.511.41l4.579 7.847a1.129 1.129 0 0 1-.41 1.513 1.022 1.022 0 0 1-.571.163z" fill="#fff"/><path d="M17.185 11.113c0-.573-.204-1.104-.531-1.676-.49-.9-1.063-1.472-1.84-1.84-.654-.327-1.39-.49-2.125-.409.245-.531.408-1.062.45-1.635.081-.817-.205-1.553-.696-2.452a4.106 4.106 0 0 0-1.185-1.308c-.49-.286-.981-.49-1.553-.532-.573-.04-1.145 0-1.758.123-.204.04-.409.123-.613.164l-.245.122c-.368.123-1.308.654-1.635.859l-1.595.94h-.04a1.301 1.301 0 0 0-.45 1.717 1.232 1.232 0 0 0 1.676.45h.04l2.576-1.472c.245-.123.49-.205.736-.246.245-.04.49 0 .735.041.246.082.45.205.695.368.205.164.368.368.532.613.122.246.245.49.286.777.04.286.04.531 0 .777-.041.245-.123.45-.286.654-.123.204-.327.367-.532.49l-1.553.94-.654.368-.409.245c-.572.327-.735 1.022-.408 1.595.204.367.613.572 1.021.572.205 0 .41-.041.573-.164l.858-.49 2.207-1.186c.246-.122.45-.204.695-.204.245 0 .49.04.695.123.245.081.45.204.654.367.205.164.368.368.532.614a2.6 2.6 0 0 1 .245.735c.04.246.04.532-.041.777-.04.245-.164.45-.327.695a2.612 2.612 0 0 1-.613.531L9.5 15.323h-.204l-.695.409-1.349.735c-.572.327-.817 1.063-.49 1.635.204.409.613.654 1.062.654.205 0 .41-.04.573-.163l3.27-1.758 2.657-1.43a7.438 7.438 0 0 0 1.553-1.186c.45-.45.777-.94.981-1.43.245-.573.368-1.104.327-1.676zm33.845 2.125c-.245 0-.531 0-.736-.204-.204-.205-.204-.49-.204-.736V6.167c0-.246 0-.532.204-.736.205-.204.49-.204.736-.204h2.289c1.594 0 2.493.899 2.493 2.248 0 .899-.572 1.471-1.021 1.676.49.245 1.103.735 1.103 1.798 0 1.513-1.022 2.33-2.452 2.33H51.03v-.04zm.654-6.622v1.84h1.553c.654 0 1.022-.368 1.022-.94 0-.573-.368-.94-1.022-.94h-1.553v.04zm1.635 5.232c.695 0 1.063-.45 1.063-.98 0-.532-.327-.982-1.063-.982h-1.635v1.963h1.635zm5.069-1.098c0 .776.45 1.308 1.308 1.308.367 0 .735-.082 1.022-.327.245-.164.367-.205.53-.205.287 0 .573.287.573.614 0 .286-.245.53-.572.735-.409.286-.94.409-1.594.409-1.39 0-2.739-.613-2.739-3.025 0-1.921 1.022-3.025 2.575-3.025 1.594 0 2.494 1.145 2.575 2.616 0 .246-.04.49-.204.654-.204.205-.409.205-.654.205h-2.82v.04zm2.125-1.635c-.163-.368-.49-.613-.98-.613-.491 0-.818.245-.982.613a1.557 1.557 0 0 0-.123.654h2.249a2.546 2.546 0 0 0-.164-.654zm2.984-.457h-.164c-.286 0-.368 0-.49-.082a.52.52 0 0 1-.286-.49c0-.205.081-.41.286-.49.122-.083.204-.083.49-.083h.164v-.776c0-.368 0-.49.081-.654a.723.723 0 0 1 .654-.368c.287 0 .532.122.655.368.081.163.081.286.081.654v.776h.45c.286 0 .368 0 .49.082a.52.52 0 0 1 .287.49c0 .205-.082.41-.286.491-.123.082-.205.082-.491.082h-.45v2.82c0 .287.082.49.49.532.205 0 .328.04.45.082.164.081.287.245.287.53 0 .246-.123.45-.286.532-.123.082-.328.082-.614.082h-.081c-1.227 0-1.717-.818-1.717-1.676V8.658zm3.965 0h-.164c-.286 0-.368 0-.49-.082a.52.52 0 0 1-.287-.49c0-.205.082-.41.287-.49.122-.083.204-.083.49-.083h.164v-.776c0-.368 0-.49.081-.654a.723.723 0 0 1 .654-.368c.287 0 .532.122.654.368.082.163.082.286.082.654v.776h.45c.286 0 .368 0 .49.082a.52.52 0 0 1 .286.49c0 .205-.081.41-.286.491-.122.082-.204.082-.49.082h-.45v2.82c0 .287.082.49.49.532.205 0 .328.04.45.082.164.081.286.245.286.53 0 .246-.122.45-.286.532-.122.082-.327.082-.613.082h-.082c-1.226 0-1.716-.818-1.716-1.676V8.658zm4.742 2.092c0 .776.45 1.308 1.308 1.308.368 0 .736-.082 1.022-.327.245-.164.368-.205.531-.205.286 0 .573.287.573.614 0 .286-.246.53-.573.735-.409.286-.94.409-1.594.409-1.39 0-2.739-.613-2.739-3.025 0-1.921 1.022-3.025 2.576-3.025 1.594 0 2.493 1.145 2.575 2.616 0 .246-.041.49-.205.654-.204.205-.408.205-.654.205h-2.82v.04zm2.126-1.635c-.164-.368-.491-.613-.981-.613-.491 0-.818.245-.981.613a1.556 1.556 0 0 0-.123.654h2.248c-.082-.286-.082-.45-.163-.654zm5.519-1.842c.45 0 .736.082 1.022.287.204.163.368.367.368.613a.777.777 0 0 1-.205.531.754.754 0 0 1-.49.204c-.164 0-.287-.04-.49-.163-.164-.082-.369-.164-.573-.164-.49 0-.981.327-.981 1.063v2.616c0 .368 0 .49-.082.654a.723.723 0 0 1-.654.368c-.327 0-.531-.122-.654-.368-.082-.163-.082-.286-.082-.654V8.295c0-.368 0-.49.123-.654a.72.72 0 0 1 .613-.327c.205 0 .368.082.45.164.122.122.204.245.204.45.327-.328.858-.655 1.43-.655z" fill="#BBB"/><path d="M25.768 11.11L24.46 8.536v3.598c0 .367 0 .49-.122.694a.793.793 0 0 1-.695.368.794.794 0 0 1-.695-.368c-.082-.204-.123-.327-.123-.694v-6.01c0-.326.041-.572.245-.735a.777.777 0 0 1 .532-.204c.204 0 .327.04.45.122.163.082.286.286.408.49l2.003 3.802 2.003-3.801c.082-.205.245-.368.409-.49a.824.824 0 0 1 .45-.123c.204 0 .367.081.53.204.205.204.246.409.246.736v6.05c0 .367 0 .49-.122.694a.794.794 0 0 1-.695.368.794.794 0 0 1-.695-.368c-.082-.204-.123-.327-.123-.695V8.576l-1.185 2.535c-.205.367-.368.531-.736.531s-.572-.123-.777-.531z" fill="#fff"/><path d="M29.365 13.279c-.327 0-.613-.164-.736-.41-.122-.204-.122-.326-.122-.694V8.823l-1.186 2.33c-.204.368-.368.572-.817.572-.409 0-.613-.204-.818-.572l-1.185-2.33v3.352c0 .368 0 .49-.123.695-.122.245-.408.409-.735.409s-.614-.164-.736-.41c-.123-.204-.123-.367-.123-.694v-6.05c0-.327.041-.572.245-.817a.742.742 0 0 1 .573-.245c.204 0 .368.04.49.122.205.123.327.368.409.49l1.921 3.68 1.921-3.68c.082-.122.205-.367.41-.49.122-.082.285-.122.49-.122.245 0 .408.081.572.245.204.204.245.45.245.817v6.05c0 .368 0 .49-.122.695.04.245-.246.409-.573.409zm-.736-4.987v3.883c0 .368 0 .49.082.654a.72.72 0 0 0 .613.327c.286 0 .49-.123.613-.327.082-.164.082-.286.082-.654v-6.05c0-.327-.04-.531-.204-.695a.677.677 0 0 0-.49-.204.932.932 0 0 0-.45.123c-.123.081-.246.245-.368.45L26.463 9.68l-2.044-3.883c-.122-.204-.245-.368-.368-.45a.734.734 0 0 0-.45-.122.677.677 0 0 0-.49.204c-.163.164-.204.41-.204.695v6.05c0 .368 0 .49.082.654a.72.72 0 0 0 .613.327c.286 0 .49-.123.613-.327.204-.164.204-.286.204-.654V8.292l1.43 2.78c.205.408.369.53.696.53.327 0 .49-.122.695-.53l1.39-2.78zm4.988 4.95c-.572 0-1.063-.205-1.39-.532-.49-.49-.613-1.022-.613-1.676v-2.78c0-.367 0-.49.082-.654.123-.204.327-.327.613-.327s.532.123.613.327c.082.164.082.287.082.654v2.576c0 .776.49 1.062.981 1.062.45 0 .981-.245.981-1.062V8.254c0-.367 0-.49.082-.654.122-.204.327-.327.613-.327s.531.123.613.327c.082.164.082.287.082.654v3.925c0 .367 0 .49-.123.654a.72.72 0 0 1-.613.327.654.654 0 0 1-.45-.164c-.122-.123-.163-.245-.204-.409-.245.45-.817.654-1.349.654z" fill="#fff"/><path d="M33.617 13.321a2.124 2.124 0 0 1-1.43-.531c-.41-.41-.614-.94-.614-1.717v-2.78c0-.368 0-.49.082-.695.123-.245.368-.368.695-.368.327 0 .572.123.695.368.081.164.081.327.081.695v2.575c0 .9.695.981.9.981.204 0 .9-.081.9-.98V8.292c0-.368 0-.49.08-.695.123-.245.369-.368.696-.368.327 0 .572.123.695.368.081.164.081.327.081.695v3.924c0 .368 0 .49-.122.695a.793.793 0 0 1-.695.368.677.677 0 0 1-.49-.204c-.123-.082-.164-.205-.205-.327-.286.368-.818.572-1.349.572zm-1.226-5.968c-.286 0-.49.123-.572.327-.082.123-.082.286-.082.613v2.78c0 .736.163 1.226.572 1.594.327.327.777.49 1.349.49.531 0 1.063-.204 1.43-.613l.082-.081.041.122c.041.205.082.286.205.409.122.082.245.164.408.164.246 0 .49-.123.573-.287.081-.163.081-.245.081-.613V8.334c0-.368 0-.49-.081-.613-.082-.204-.327-.327-.573-.327-.245 0-.49.123-.572.327-.082.123-.082.286-.082.613v2.575c0 .818-.531 1.104-1.022 1.104-.49 0-1.022-.286-1.022-1.104V8.334c0-.368 0-.49-.081-.613-.205-.245-.409-.368-.654-.368zm9.032.203c.327.164.695.45.695.818 0 .204-.082.327-.205.49-.081.123-.286.205-.45.205-.163 0-.286-.041-.49-.205-.245-.163-.409-.245-.695-.245-.327 0-.613.123-.817.368-.205.286-.327.654-.327 1.267 0 .613.081 1.022.327 1.308.204.245.49.368.817.368.286 0 .45-.082.695-.245.204-.164.327-.205.49-.205.164 0 .328.082.45.205a.677.677 0 0 1 .205.49c0 .368-.368.654-.695.818-.327.204-.695.286-1.145.286-1.144 0-2.616-.613-2.616-2.984 0-2.37 1.43-2.984 2.616-2.984.45-.04.777.04 1.145.245z" fill="#fff"/><path d="M40.238 13.32c-.49 0-1.186-.123-1.799-.614-.572-.531-.899-1.349-.899-2.412 0-1.103.286-1.88.9-2.411.572-.532 1.307-.613 1.798-.613.45 0 .817.081 1.185.286.327.163.736.45.736.858 0 .204-.082.368-.204.531a.754.754 0 0 1-.49.205c-.164 0-.328-.041-.532-.205-.245-.163-.409-.245-.654-.245a.95.95 0 0 0-.777.368c-.204.286-.327.654-.327 1.226 0 .614.082.981.327 1.268a.95.95 0 0 0 .777.367c.245 0 .45-.081.654-.245.204-.122.327-.245.531-.245.164 0 .368.082.49.204.164.164.205.327.205.532 0 .327-.245.613-.736.899a2.668 2.668 0 0 1-1.185.245zm.04-5.969c-.776 0-2.534.286-2.534 2.903 0 2.656 1.758 2.943 2.535 2.943.45 0 .776-.082 1.103-.287.45-.245.654-.49.654-.776 0-.164-.081-.286-.204-.45a.625.625 0 0 0-.409-.163c-.163 0-.286.04-.45.204-.245.204-.449.245-.735.245-.368 0-.654-.122-.858-.409-.246-.286-.328-.694-.328-1.307 0-.614.123-1.022.328-1.309.204-.245.49-.408.858-.408.327 0 .49.081.736.245.204.123.327.204.45.204.163 0 .285-.081.408-.163a.657.657 0 0 0 .204-.45c0-.368-.408-.654-.654-.776-.327-.164-.654-.246-1.103-.246zm7.605 5.517c-.123.205-.328.327-.614.327s-.531-.122-.613-.327c-.081-.163-.081-.286-.081-.654V9.64c0-.777-.491-1.063-.982-1.063-.49 0-.98.246-.98 1.063v2.575c0 .368 0 .49-.082.654-.123.205-.327.327-.614.327-.286 0-.53-.122-.613-.327-.081-.163-.081-.286-.081-.654v-6.05c0-.367 0-.49.081-.653.123-.205.327-.327.613-.327.287 0 .532.122.614.327.081.163.081.286.081.654V7.88c.368-.367.777-.613 1.431-.613.572 0 1.063.205 1.39.532.49.49.613 1.022.613 1.676v2.78c-.04.326-.082.449-.163.612z" fill="#fff"/><path d="M47.27 13.277c-.328 0-.573-.123-.696-.368-.082-.164-.082-.327-.082-.695V9.639c0-.9-.694-.981-.899-.981-.204 0-.9.082-.9.98v2.576c0 .368 0 .49-.08.695-.123.245-.369.368-.696.368-.327 0-.572-.123-.695-.368-.081-.164-.081-.327-.081-.695v-6.05c0-.368 0-.49.081-.695.123-.245.368-.367.695-.367.327 0 .572.122.695.367.082.164.082.327.082.695v1.594c.409-.367.817-.53 1.349-.53.572 0 1.063.203 1.43.53.41.41.614.94.614 1.717v2.78c0 .368 0 .49-.082.695-.164.204-.409.327-.736.327zm-1.677-4.742c.49 0 1.022.286 1.022 1.104v2.575c0 .368 0 .49.082.613.082.204.327.327.572.327.245 0 .49-.123.572-.327.082-.123.082-.286.082-.613v-2.78c0-.735-.163-1.226-.572-1.594-.327-.327-.777-.49-1.35-.49-.571 0-.98.163-1.389.572l-.123.123v-1.88c0-.369 0-.491-.081-.614-.082-.204-.327-.327-.572-.327-.287 0-.491.123-.573.327-.081.123-.081.286-.081.613v6.09c0 .369 0 .491.081.614.082.204.327.327.573.327.245 0 .49-.123.572-.327.081-.123.081-.286.081-.613V9.68c.041-.859.573-1.145 1.104-1.145z" fill="#fff"/></g></svg>