<svg width="30" height="30" fill="none" xmlns="http://www.w3.org/2000/svg">
  <g clip-path="url(#neteller-color-30px__clip0)">
    <path d="M28 0H2a2 2 0 00-2 2v26a2 2 0 002 2h26a2 2 0 002-2V2a2 2 0 00-2-2z" fill="#91B638"/>
    <path d="M17.16 15.398l.312-1.484c.397-1.89.798-3.775 1.195-5.665.04-.179.132-.249.33-.249 1.23.004 2.46.004 3.694.004.282 0 .348.083.29.344l-2.393 11.373c-.145.68-.29 1.359-.432 2.043-.035.166-.119.232-.295.232-1.247-.004-2.49-.004-3.738 0-.198 0-.26-.108-.321-.253-.952-2.292-1.909-4.58-2.865-6.867a8.262 8.262 0 00-.12-.257c-.096.468-.184.878-.273 1.293-.41 1.943-.82 3.883-1.22 5.827-.04.186-.133.253-.327.253-1.225-.004-2.446 0-3.671-.004-.305 0-.375-.083-.313-.37l.714-3.377c.63-2.96 1.256-5.927 1.877-8.894.075-.365.16-.73.23-1.094.035-.178.127-.253.33-.253a542.7 542.7 0 003.672 0c.194 0 .286.07.352.236.944 2.292 1.896 4.584 2.848 6.876.03.079.066.157.123.286z" fill="#fff"/>
  </g>
  <defs>
    <clipPath id="neteller-color-30px__clip0">
      <path fill="#fff" d="M0 0h30v30H0z"/>
    </clipPath>
  </defs>
</svg>
