<svg width="20" height="20" fill="none" xmlns="http://www.w3.org/2000/svg"><g clip-path="url(#clip0)"><path opacity=".7" d="M10.092 6.013a.668.668 0 01-.003-.065c0-.316.208-.574.463-.574.262 0 .467.252.467.574a.692.692 0 01-.031.208.82.82 0 00.12-.434c0-.385-.246-.699-.55-.699-.303 0-.55.314-.55.699 0 .094.015.187.044.276l.04.015zM8.722 5.404a.309.309 0 01.046-.003c.204 0 .386.199.434.473.005.03.008.06.01.09a.667.667 0 01.04-.02.966.966 0 00.01-.136c0-.355-.189-.655-.412-.655-.19 0-.35.209-.397.49.052-.128.147-.219.269-.239zM12.555 12.566c.051-.216.153-.768.056-1.436-.121-.844-1.313-3.472-1.519-3.766-.12.017-.437.2-.695.348-.299.173-.608.35-.819.411a.504.504 0 01-.137.019c-.307 0-.64-.26-.854-.463-.038.396-.25.898-.478 1.156-.145.165-.274.543-.4.908-.115.338-.235.688-.381.918-.297.46-.467 1.355-.251 1.864.104.247.483.538.818.795.409.314.762.585.8.859a.53.53 0 01-.299.588l.438.499c.068.01.23.03.486.03.299 0 .63-.026.986-.078.871-.128 1.478-.844 1.598-.996 0-.201.007-1.097.066-1.377.023-.108.11-.289.443-.289.051 0 .1.005.142.01z" fill="#BFC0C4"/><path opacity=".7" d="M8.751 7.022c.017.066.169.235.404.389l.094.062c.13.089.189.125.283.113.138-.019.647-.326.864-.457l.054-.033c.081-.049.146-.083.198-.11.103-.053.112-.062.116-.081-.011-.03-.107-.11-.292-.174-.058-.02-.141-.054-.238-.092-.208-.083-.493-.196-.609-.217a.078.078 0 00-.015-.001c-.098 0-.297.123-.494.306a7.958 7.958 0 01-.365.295zM7.013 13.815c-.085-.143-.16-.266-.2-.328-.157-.244-.43-.517-.56-.517a.04.04 0 00-.022.005c-.07.04-.128.16-.184.276-.078.16-.167.343-.33.441-.121.074-.306.114-.485.152-.127.028-.425.092-.44.152-.019.082 0 .165.022.271.027.126.06.281.032.473-.02.12-.057.234-.092.345-.05.154-.105.329-.057.382.06.053.417.11.679.153.328.053.668.107.876.194l.055.023c.373.156 1.066.447 1.417.447.032 0 .059-.003.08-.008.061-.04.317-.223.365-.449.066-.29-.201-.629-.366-.805-.183-.196-.534-.78-.79-1.207zM14.933 14.51l-.042-.022c-.294-.154-.448-.574-.427-.89a.352.352 0 00-.016-.138 1.591 1.591 0 01-.223.293c-.156.155-.538.323-.881.323a.866.866 0 01-.347-.067c-.343-.149-.39-.576-.391-.79a.08.08 0 00-.014.005c-.02.074 0 .323.013.49.008.09.015.182.02.268.019.374-.1 1.01-.205 1.478-.098.457.085.778.308.847.02.006.043.01.068.01.205 0 .545-.212.846-.528.214-.224.69-.466 1.11-.68.236-.12.48-.244.55-.307.016-.015.018-.023.018-.023-.005-.069-.282-.214-.387-.268z" fill="#BFC0C4"/><g opacity=".7" fill="#fff"><path d="M11.11 5.722c0-.385-.248-.699-.551-.699-.304 0-.55.314-.55.699 0 .094.014.187.043.276l.04.015a.701.701 0 01-.003-.065c0-.317.208-.574.464-.574.262 0 .467.252.467.574a.695.695 0 01-.032.208.82.82 0 00.121-.434zM10.234 6.64c-.208-.084-.493-.197-.609-.218a.072.072 0 00-.015 0c-.098 0-.297.122-.494.305a7.93 7.93 0 01-.365.295c.018.066.169.235.404.39.034.02.065.042.094.062.13.088.189.124.283.112.138-.018.646-.325.864-.457l.054-.033c.081-.049.146-.082.198-.11.103-.053.112-.061.116-.08-.011-.03-.107-.112-.292-.175-.058-.02-.14-.053-.236-.091h-.002zM9.262 5.808c0-.355-.189-.655-.412-.655-.19 0-.35.208-.396.49.052-.128.147-.219.268-.239a.308.308 0 01.047-.004c.203 0 .386.2.434.474l.009.09a.702.702 0 01.04-.02.962.962 0 00.01-.136zM7.805 16.277c.06-.04.316-.224.364-.45.066-.29-.201-.628-.366-.804-.183-.196-.532-.778-.788-1.205l-.002-.003c-.085-.143-.16-.266-.2-.327-.157-.245-.43-.517-.56-.517a.038.038 0 00-.022.005c-.069.039-.127.159-.184.274v.001c-.078.161-.167.343-.33.442-.121.073-.306.113-.485.152H5.23c-.128.028-.423.092-.437.152-.02.08-.002.165.021.27.027.126.06.282.032.473-.02.12-.057.235-.092.345-.05.154-.105.33-.057.383.06.052.416.11.677.152h.002c.328.053.668.108.876.195l.056.023c.373.156 1.066.446 1.416.446.032 0 .059-.002.08-.007z"/><path d="M11.905 14.222c0-.201.007-1.097.066-1.377.022-.108.11-.289.442-.289.052 0 .101.005.142.01.051-.216.153-.768.057-1.436-.122-.844-1.314-3.472-1.52-3.766-.119.017-.436.2-.693.348l-.003.001c-.299.172-.607.35-.817.41a.505.505 0 01-.137.019c-.308 0-.64-.26-.855-.463-.037.395-.249.898-.478 1.156-.144.165-.274.543-.399.908-.116.338-.235.688-.382.918-.297.46-.467 1.355-.25 1.864.104.247.483.538.817.795.409.314.762.585.801.859a.53.53 0 01-.3.588l.438.499c.068.01.231.03.486.03.3 0 .63-.026.986-.078.872-.128 1.479-.844 1.599-.996zM14.752 15.11c.236-.12.48-.245.55-.308a.065.065 0 00.018-.022c-.004-.069-.282-.214-.386-.269l-.043-.022c-.293-.155-.448-.574-.427-.89a.354.354 0 00-.015-.138 1.592 1.592 0 01-.224.292c-.156.156-.537.324-.88.324a.865.865 0 01-.348-.067c-.343-.149-.39-.576-.39-.79a.08.08 0 00-.015.004c-.02.074 0 .323.013.49v.006c.008.088.015.179.02.262.02.375-.1 1.01-.205 1.478-.098.458.085.778.308.848.02.006.043.01.068.01.205 0 .546-.213.846-.528.214-.224.69-.466 1.11-.68z"/><path fill-rule="evenodd" clip-rule="evenodd" d="M20 10c0 5.523-4.477 10-10 10-5.522 0-10-4.477-10-10S4.478 0 10 0c5.523 0 10 4.477 10 10zm-4.943 3.517c-.017.333.16.556.571.724a.574.574 0 01.372.49c.015.258-.156.505-.47.678-.101.057-.218.12-.342.187-.557.3-1.32.712-1.626 1.035-.307.321-.694.369-.897.369-.19 0-.376-.042-.51-.114-.243-.13-.396-.383-.454-.493a6.605 6.605 0 00-1.505-.154 9.387 9.387 0 00-1.514.178.919.919 0 01-.84.492 1.27 1.27 0 01-.157-.01c-.348-.043-.732-.183-1.103-.318-.38-.138-.771-.28-1.129-.322-.6-.071-1.181-.178-1.38-.482a.448.448 0 01-.048-.392c.028-.092.055-.175.08-.249.106-.319.164-.495.07-.772-.063-.19-.132-.466-.005-.686.088-.15.255-.252.498-.302.528-.101.783-.244.908-.51a.967.967 0 01.311-.393 1.25 1.25 0 01.122-.942c.118-.207.24-.553.369-.92.176-.5.358-1.02.583-1.358.188-.28.418-.582.62-.848l.005-.006c.196-.257.38-.5.418-.584.058-.131.103-.563.054-1.38-.006-.093-.015-.2-.025-.315-.074-.835-.185-2.097.656-2.675A2.644 2.644 0 0110.155 3c.875 0 1.577.453 1.927 1.242.322.725.342 1.377.36 1.952.02.603.035 1.124.38 1.603.843 1.166 1.659 2.353 1.926 3.13.25.726.064 1.562 0 1.804.105.112.327.397.309.786z"/></g></g><defs><clipPath id="clip0"><path fill="#fff" d="M0 0h20v20H0z"/></clipPath></defs></svg>