<svg width="200" height="200" fill="none" xmlns="http://www.w3.org/2000/svg"><path d="M200 0H0v200h200V0z" fill="#313427"/><g clip-path="url(#clip0)"><path d="M84.69 174.507l-4.442-2.095c-.555-.247-13.142-6.348-26.038-15.161-17.894-12.325-26.964-23.603-26.964-33.648V66.906H84.63v107.601h.062zM33.479 73.069v50.534c0 14.544 29.308 32.847 45.043 41.044V73.069H33.478z" stroke="#EB5CFF" stroke-miterlimit="10"/><path d="M62.603 76.335v8.012l-8.022-8.012H36.256v10.6l16.598 16.578-16.475 16.392s-1.542 9.368 9.256 18.673l16.968-16.639v30.32l17.708 9.121V76.273l-17.708.062zM81.606 25l-24.68 24.774-29.494-13.435v26.87h54.174v-3.082l-8.206-8.32 8.144-8.196V25h.062zm0 11.154L68.65 49.096h-4.937l17.894-18.241v5.3z" fill="#EB5CFF"/><path d="M36.75 93.836l8.7 8.751-9.071 9.059" stroke="#EB5CFF" stroke-width="4" stroke-miterlimit="10"/></g><defs><clipPath id="clip0"><path fill="#fff" transform="translate(27 25)" d="M0 0H58V150H0z"/></clipPath></defs></svg>