<svg width="88" height="88" fill="none" xmlns="http://www.w3.org/2000/svg"><path d="M44 88c24.3 0 44-19.7 44-44S68.3 0 44 0 0 19.7 0 44s19.7 44 44 44z" fill="url(#paint0_radial)"/><path d="M26.07 35.04A3.07 3.07 0 0 0 23 38.11v12.952a3.07 3.07 0 0 0 6.139 0V38.11a3.07 3.07 0 0 0-3.07-3.07zm35.86 0a3.07 3.07 0 0 0-3.069 3.07v12.952a3.07 3.07 0 0 0 6.14 0V38.11a3.07 3.07 0 0 0-3.07-3.07zM51.55 23.947l2.284-3.787L51.91 19l-2.344 3.887a13.764 13.764 0 0 0-5.491-1.136c-1.952 0-3.808.405-5.491 1.136L36.24 19l-1.924 1.16 2.285 3.787a13.804 13.804 0 0 0-6.328 11.093h27.604a13.803 13.803 0 0 0-6.328-11.093zM37.824 29.8a1.404 1.404 0 1 1 0-2.807 1.404 1.404 0 0 1 0 2.807zm12.352 0a1.404 1.404 0 1 1 0-2.807 1.404 1.404 0 0 1 0 2.807zM30.187 58.66h5.466v6.85a3.07 3.07 0 1 0 6.139 0v-6.85h4.267v6.85a3.07 3.07 0 1 0 6.14 0v-6.85h5.614V37.1H30.187V58.66z" fill="#fff"/><defs><radialGradient id="paint0_radial" cx="0" cy="0" r="1" gradientUnits="userSpaceOnUse" gradientTransform="rotate(45) scale(124.451)"><stop stop-color="#C1E759"/><stop offset="1" stop-color="#678B02"/></radialGradient></defs></svg>