<svg width="200" height="200" viewBox="0 0 200 200" fill="none" xmlns="http://www.w3.org/2000/svg">
<g clip-path="url(#clip0)">
<path d="M100 200C44.8 200 0 155.2 0 100C0 44.8 44.8 0 100 0C155.2 0 200 44.8 200 100C200 155.2 155.2 200 100 200Z" fill="white"/>
<path d="M100 0C88.4 0 76.4 2.1 65.7 6L70.2 18.2C79.7 14.8 89.7 13 100 13V0ZM35.6 23.5C26.7 31 19.1 40.1 13.3 50.2L24.6 56.7C29.7 47.9 36.2 40 44 33.4L35.6 23.5ZM1.4 83C0.5 88.6 0 94.3 0 100C0 106 0.5 112 1.6 117.8L14.4 115.5C12.6 105.6 12.6 95.1 14.3 85.2L1.4 83ZM24.9 143.9L13.7 150.5C19.6 160.6 27.3 169.6 36.3 177L44.6 167C36.7 160.5 30 152.7 24.9 143.9ZM70.8 182L66.4 194.2C77.4 198.1 89.1 200.1 100.7 200L100.6 187C90.5 187.1 80.4 185.4 70.8 182ZM156.6 166.1C148.8 172.8 140.1 178 130.5 181.5L135.1 193.7C146.1 189.6 156.2 183.6 165.1 176L156.6 166.1ZM185.9 114.1C184.3 124.2 180.9 133.8 175.9 142.7L187.2 149.1C192.8 139.1 196.8 128 198.7 116.2L185.9 114.1ZM185.9 48.8L174.7 55.5C179.9 64.3 183.6 73.8 185.4 83.8L198.2 81.4C196.1 69.7 191.9 58.9 185.9 48.8ZM132.7 5.5L128.4 17.8C138 21.1 146.9 26.1 154.8 32.6L163 22.5C154.1 15.1 143.8 9.3 132.7 5.5Z" fill="#DA9020"/>
<path d="M100 188C51.4483 188 12 148.552 12 100C12 51.4483 51.4483 12 100 12C148.552 12 188 51.4483 188 100C188 148.552 148.552 188 100 188Z" fill="url(#paint0_radial)"/>
<path d="M69.3479 73.255C65.7729 70.785 62.8479 69.745 59.5329 69.745C49.1979 69.745 41.2029 80.34 41.2029 94.055C41.2029 107.575 49.1979 118.235 59.3379 118.235C62.4579 118.235 65.3179 117.325 68.5029 115.245L69.6729 104.39C65.7079 107.965 63.9529 108.875 60.8329 108.875C55.1779 108.875 51.6029 103.09 51.6029 93.925C51.6029 85.085 54.9829 79.495 60.3779 79.495C62.9129 79.495 65.0579 80.665 68.1779 83.655L69.3479 73.255ZM99.9873 80.08L91.2773 81.12C89.1323 80.34 87.7673 80.08 86.0773 80.08C77.6923 80.08 72.2973 87.685 72.2973 99.515C72.2973 110.5 77.0423 118.04 83.9973 118.04C86.4023 118.04 88.3523 117.26 90.8873 115.245L91.4073 118.04L100.442 117C100.117 113.88 99.9873 111.02 99.9873 105.17V80.08ZM90.4323 107.055C88.6773 108.615 87.5073 109.2 86.0773 109.2C83.0223 109.2 81.3973 105.82 81.3973 99.45C81.3973 92.43 83.2823 88.855 86.8573 88.855C88.0923 88.855 88.9373 89.18 90.4323 90.155V107.055ZM106.419 115.18C109.409 117.325 112.204 118.235 115.519 118.235C121.889 118.235 126.309 113.425 126.309 106.6C126.309 102.115 124.619 99.32 120.264 96.525L117.989 95.095C115.714 93.6 115.259 93.015 115.259 91.52C115.259 89.7 116.494 88.465 118.314 88.465C119.809 88.465 121.239 89.05 123.579 90.61V81.965C120.654 80.405 119.029 79.885 116.754 79.885C110.579 79.885 106.159 84.63 106.159 91.195C106.159 95.355 107.654 97.89 111.554 100.36L114.414 102.18C116.559 103.545 117.209 104.455 117.209 106.21C117.209 108.29 115.909 109.655 113.829 109.655C111.749 109.655 109.539 108.55 105.964 105.755L106.419 115.18ZM140.795 117V99.645C140.795 95.615 141.055 93.08 141.64 91.91C142.485 90.09 144.11 88.855 145.735 88.855C147.88 88.855 148.595 90.285 148.595 94.64V117H157.695V92.69C157.695 83.98 155.29 80.08 149.83 80.08C146.45 80.08 144.175 81.38 140.795 85.15V69.94L131.695 70.98V117H140.795Z" fill="white"/>
</g>
<defs>
<radialGradient id="paint0_radial" cx="0" cy="0" r="1" gradientUnits="userSpaceOnUse" gradientTransform="translate(12 12) rotate(45) scale(248.902)">
<stop stop-color="#ECBC75"/>
<stop offset="1" stop-color="#CB7A00"/>
</radialGradient>
<clipPath id="clip0">
<rect width="200" height="200" fill="white"/>
</clipPath>
</defs>
</svg>
