<svg width="22" height="22" fill="none" xmlns="http://www.w3.org/2000/svg"><path fill-rule="evenodd" clip-rule="evenodd" d="M15.28 15.294c-.387.548-.952.98-1.697 1.289-.744.312-1.626.467-2.646.467-1.224 0-2.232-.212-3.028-.637a3.916 3.916 0 01-1.374-1.225c-.352-.51-.528-1.006-.528-1.489a.95.95 0 01.317-.717c.21-.201.48-.3.807-.3.265 0 .49.077.672.233.184.156.34.385.47.692.158.362.328.666.512.909.183.243.441.445.773.602.333.158.77.238 1.311.238.744 0 1.349-.159 1.814-.479.465-.317.699-.716.699-1.193 0-.378-.127-.686-.377-.92-.252-.236-.576-.416-.973-.54a17.526 17.526 0 00-1.595-.397c-.89-.19-1.636-.416-2.236-.672-.6-.257-1.077-.607-1.429-1.05-.353-.444-.528-.994-.528-1.651 0-.628.185-1.185.558-1.671.372-.488.91-.863 1.615-1.124.705-.262 1.533-.392 2.486-.392.761 0 1.42.087 1.975.26.555.173 1.015.404 1.381.692.367.288.636.59.804.905.17.315.254.625.254.924 0 .275-.105.524-.317.743a1.05 1.05 0 01-.79.331c-.289 0-.507-.066-.656-.199-.15-.132-.312-.348-.486-.649-.226-.43-.496-.765-.813-1.005-.316-.242-.822-.362-1.522-.362-.647 0-1.17.13-1.568.392-.397.261-.596.577-.596.944a.91.91 0 00.203.591c.134.167.321.308.559.427.235.12.475.212.718.28.242.068.642.166 1.201.296.698.15 1.33.316 1.898.497a6.045 6.045 0 011.446.66c.397.26.708.588.93.985.223.396.335.882.335 1.457 0 .689-.194 1.308-.58 1.858zm5.235-4.269c0-5.416-4.39-9.807-9.807-9.807-.507 0-1 .05-1.486.124a5.573 5.573 0 00-3.63-1.343A5.593 5.593 0 00-.001 5.592c0 1.26.423 2.42 1.127 3.355A9.882 9.882 0 00.9 11.025c0 5.418 4.39 9.809 9.807 9.809.696 0 1.375-.076 2.03-.215A5.557 5.557 0 0016.405 22 5.592 5.592 0 0022 16.407c0-1.527-.613-2.91-1.606-3.918a9.79 9.79 0 00.122-1.464z" fill="#fff"/></svg>