<svg width="200" height="200" fill="none" xmlns="http://www.w3.org/2000/svg"><path d="M200 0H0v200h200V0z" fill="#000"/><path d="M149.823 73.254c3.034-.487 4.53 3.233 2.991 5.713-1.056 1.417-2.771 1.151-4.178 1.195v4.03h-2.419V73.254h3.606zm-1.231 5.004c1.187-.044 2.242.222 2.286-1.594 0-1.727-.967-1.683-2.286-1.638v3.232zm12.621-4.12c3.43 4.473.044 13.507-5.278 9.167-3.342-3.897-.439-13.639 5.278-9.166zm-3.694 1.506c-.22.355-.396 1.019-.396 3.056.132 2.657-.088 3.277 1.407 3.675 1.583-.443 1.232-.797 1.407-3.675.132-3.1-.747-4.65-2.418-3.056zm9.236-2.39v4.56l2.638-4.56h2.419l-2.726 4.03 2.946 6.907h-2.463l-1.891-5.048-.923 1.329v3.72h-2.375V73.254h2.375zm13.237 0v1.86h-4.222v2.524h3.299v1.86h-3.299v2.745h4.222v1.86h-6.596v-10.85h6.596zm5.408-.005c3.211-.62 4.706 4.782 1.803 6.155l1.979 4.782h-2.594l-1.452-4.295h-1.187v4.295h-2.375V73.248h3.826zm-1.407 4.87c1.012.09 2.595 0 2.463-1.55.088-1.55-1.32-1.594-2.463-1.55v3.1z" fill="#C82C32"/><path d="M41.901 119.305h-8.708l-1.407-17.049h-.132l-6.948 17.049h-8.664L10.765 87.82h12.094l1.67 15.455h.133L30.95 87.82h9.059l1.363 15.455h.132l6.773-15.455h8.576L41.9 119.305z" fill="#fff"/><path d="M61.955 119.305H49.817L54.92 87.82h12.094l-5.058 31.485zm17.899-31.48l-.748 5.003h.044c2.639-4.96 11.215-7.616 16.14-3.94 3.694 2.39 3.342 6.819 2.683 10.45l-3.254 20.015H82.625l2.858-18.465c.528-2.215.704-5.403-2.375-5.403-2.374-.31-4.31 2.613-4.398 5.181l-3.078 18.731H63.538l5.145-31.528h11.17v-.045zm32.719 0l-.748 5.003h.044c2.639-4.96 11.214-7.616 16.14-3.94 3.694 2.39 3.342 6.819 2.683 10.45l-3.255 20.015h-12.094l2.859-18.465c.528-2.215.703-5.403-2.375-5.403-2.375-.31-4.31 2.613-4.398 5.181l-3.078 18.731H96.257l5.145-31.528h11.171v-.045z" fill="#fff"/><path d="M143.271 105.974c-1.451 7.794 8.18 8.547 9.719 2.082l10.467 1.682c-6.729 15.233-32.368 13.374-32.148-4.693.088-23.337 37.557-24.488 33.247.929h-21.285zm10.027-6.155c1.275-7.528-8.708-6.2-9.103 0h9.103zm25.726-11.998l-1.275 7.395h.264c1.319-4.96 7.124-9.122 11.258-7.882l-1.363 11.203c-12.842-2.17-10.291 12.798-12.49 20.813h-12.094l5.19-31.529h10.51z" fill="#fff"/><path d="M54.435 77.195l.66 6.51 11.302-3.278-.572-6.642-11.39 3.41z" fill="#C82C32"/></svg>