<svg width="200" height="200" fill="none" xmlns="http://www.w3.org/2000/svg"><path d="M200 0H0v200h200V0z" fill="#343434"/><path d="M18.393 150.912c28.29-22.353 56.282-44.507 84.323-66.66a2292.6 2292.6 0 0 0-6.935-12.424c-.849-1.547-1.747-3.094-2.595-4.69-.2-.35-.25-.899-.15-1.248 1.747-4.241 3.493-8.482 5.29-12.723l.299-.3c4.49 7.934 8.931 15.817 13.472 23.85a133.977 133.977 0 0 1 3.492-2.694c10.528-8.332 21.056-16.615 31.584-24.948.399-.3.948-.598 1.397-.598h16.216c.1 0 .2.05.499.15-15.717 12.972-31.334 25.895-47.051 38.868.449.848.898 1.597 1.297 2.395 2.744 4.89 5.538 9.78 8.333 14.669.349.649.399 1.148.099 1.796-1.796 3.892-3.492 7.834-5.239 11.776-.149.299-.299.599-.499 1.048-4.49-8.034-8.881-15.917-13.322-23.9-.349.25-.698.449-.948.698-16.515 13.622-32.98 27.243-49.496 40.865-5.439 4.49-10.927 9.031-16.416 13.521-.4.35-.998.599-1.547.599-7.085.05-14.17.05-21.255 0-.15.05-.3 0-.848-.05z" fill="#fff"/><path d="M92.637 51.272c-.649 1.546-1.148 2.944-1.747 4.29-6.835 15.568-13.671 31.136-20.557 46.703-.2.449-.549.848-.898 1.148a2878.302 2878.302 0 0 1-19.21 15.168c-.05.05-.15.05-.548.249 8.632-18.96 17.064-37.67 25.646-56.631-.599-.05-1.048-.1-1.447-.1-6.237 0-12.524-.1-18.76 0-6.687.1-12.375 2.694-16.965 7.634-.799.898-1.597 1.197-2.844.948.15-.35.25-.748.399-1.098 2.544-5.738 5.14-11.526 7.634-17.313.3-.749.648-1.098 1.547-1.098 15.517.05 31.085 0 46.602 0 .3.05.599.05 1.148.1z" fill="#FF0D29"/><path d="M143.481 115.435h15.018c-.898 4.391.25 7.983 3.743 10.927h-36.374c.399-.898.748-1.796 1.147-2.694 7.834-18.312 15.668-36.624 23.551-54.886.2-.498.449-.997.848-1.347 6.686-5.388 13.372-10.727 20.258-15.966a29185.012 29185.012 0 0 1-28.191 63.966z" fill="#fff"/><path d="M178.058 111.094c-2.444.199-4.241 1.147-4.79 3.692 1.447-.349 2.795-.898 4.192-.948 3.892-.15 6.287 3.842 4.341 7.285-.649 1.097-1.597 1.996-2.495 2.894-2.146 2.245-4.291 4.391-6.487 6.636-.349-.499-.798-1.297-1.447-1.946-1.945-2.046-3.991-3.992-5.937-5.938-1.198-1.197-1.946-2.594-1.796-4.291.299-3.393 2.993-5.289 6.286-4.49.948.249 1.847.648 2.745.998-.1-2.146-1.048-2.894-4.94-3.842 3.593-.05 6.936-.05 10.328-.05z" fill="#FF0D29"/></svg>