<svg fill="none" height="50" width="51" xmlns="http://www.w3.org/2000/svg" xmlns:xlink="http://www.w3.org/1999/xlink"><radialGradient id="a" cx="0" cy="0" gradientTransform="matrix(-50.00001547 50.00001547 -50.00001547 -50.00001547 100.000099 49.998603)" gradientUnits="userSpaceOnUse" r="1"><stop offset="0" stop-color="#9d2777"/><stop offset=".615" stop-color="#731a56"/></radialGradient><rect fill="url(#a)" height="50" rx="25" transform="matrix(-1 0 0 -1 100 100)" width="50" x="50" y="50"/><rect fill="#993679" height="50" rx="25" transform="matrix(-1 0 0 -1 100 100)" width="50" x="50" y="50"/><path d="m49.271 11.054h-48.537v23.519h48.537z" fill="#a4e276"/><path d="m49.271 11.054h-48.537v23.519h48.537z" fill="#a4e276"/><path d="m8.059 28.31v-10.993a2.845 2.845 0 0 0 2.845-2.845h36.01a2.845 2.845 0 0 0 2.845 2.845v10.993a2.845 2.845 0 0 0 -2.845 2.845h-36.01a2.845 2.845 0 0 0 -2.845-2.845z" fill="#64c37d"/><path d="m4.152 28.31v-10.993a2.845 2.845 0 0 0 2.846-2.845h36.01a2.845 2.845 0 0 0 2.845 2.845v10.993a2.845 2.845 0 0 0 -2.845 2.845h-36.01a2.845 2.845 0 0 0 -2.846-2.845z" fill="#dcf4ca"/><path d="m8.059 28.31v-10.993a2.845 2.845 0 0 0 2.845-2.845h-3.906a2.845 2.845 0 0 1 -2.846 2.845v10.993a2.845 2.845 0 0 1 2.846 2.845h3.906a2.845 2.845 0 0 0 -2.845-2.845zm20.848 2.845a8.34 8.34 0 1 0 0-16.682 8.34 8.34 0 0 0 0 16.682z" fill="#addfbb"/><path d="m25.001 31.155a8.341 8.341 0 1 0 0-16.682 8.341 8.341 0 0 0 0 16.682z" fill="#a4e276"/><path d="m31.071 17.786h-2.021v-1.428h-2.174v1.428h-2.078v10.054h2.078v1.428h2.174v-1.428h2.022v-10.054zm-26.43-6.732h-3.907v23.519h3.907z" fill="#64c37d"/><path d="m20.567 22.813c0-3.933 2.724-7.23 6.388-8.109a8.341 8.341 0 1 0 0 16.218c-3.664-.88-6.388-4.175-6.388-8.109z" fill="#64c37d"/><path d="m28.137 17.786h-2.022v-1.428h-2.174v1.428h-2.078v10.054h2.078v1.428h2.174v-1.428h2.023v-10.054z" fill="#dcf4ca"/><path d="m24.793 17.786h1.322v-1.428h-2.174v1.428h-2.078v10.054h2.078v1.428h2.174v-1.428h-1.322z" fill="#addfbb"/><path d="m37.038 43.336c-8.84 5.628-20.438 4.394-27.921-3.09l-1.726 1.727a24.921 24.921 0 0 0 17.601 7.295c4.823 0 9.563-1.4 13.597-4.028l1.085 1.331 2.076-5.46-5.767.931zm-24.072-36.673c8.84-5.628 20.438-4.394 27.92 3.09l1.727-1.727a24.92 24.92 0 0 0 -15.523-7.208 24.954 24.954 0 0 0 -15.675 3.942l-1.085-1.332-2.076 5.462 5.767-.932-1.055-1.294z" fill="#f5b955"/><path d="m25.984 46.82a22.357 22.357 0 0 0 13.008-3.484l-1.055-1.294 3.686-.596.128-.336-5.768.932 1.055 1.294a22.347 22.347 0 0 1 -11.054 3.483zm13.25-.787.439.538.39-1.03c-.273.17-.55.334-.829.492zm-14.366 3.148a24.922 24.922 0 0 1 -15.524-7.208l.78-.78a22.866 22.866 0 0 1 -1.007-.946l-1.726 1.726a24.921 24.921 0 0 0 17.601 7.294c.326 0 .652-.007.977-.02a25.08 25.08 0 0 1 -1.1-.066zm-12.976-44.724c-.16.1-.32.2-.477.303l-1.085-1.332-2.076 5.461 2.08-.336zm1.478.302a24.93 24.93 0 0 1 12.62-4.008 24.97 24.97 0 0 0 -13.267 3.215zm12.603-1.58a22.44 22.44 0 0 1 14.913 6.573l.947-.946a22.435 22.435 0 0 0 -15.86-5.627z" fill="#46c373"/><path d="m49.271 34.573h-48.537v4.372h48.537z" fill="#64c37d"/><path d="m4.64 34.573h-3.905v4.372h3.907v-4.372z" fill="#3fa45a"/><g fill="#6b2254"><path d="m46.777 13.544h-1.465v1.465h1.465zm0 17.074h-1.465v1.465h1.465zm-42.09-17.074h-1.463v1.465h1.465v-1.465zm0 17.074h-1.463v1.465h1.465v-1.465zm4.481-8.537h-1.465v1.465h1.465zm4.883 0h-1.465v1.465h1.465zm-2.442 0h-1.464v1.465h1.464z"/><path d="m41.352 10.322 2.296-2.296-.518-.518a25.654 25.654 0 0 0 -15.981-7.42 25.777 25.777 0 0 0 -15.579 3.705l-1.476-1.811-2.978 7.833 8.272-1.337-1.326-1.628c8.533-5 19.239-3.646 26.305 3.42l.051.052h-40.418v24.983h50.001v-24.983zm-13.838-7.76a23.23 23.23 0 0 0 -14.942 3.482l-.695.443.774.95-3.263.527 1.175-3.09.7.858.55-.36a24.294 24.294 0 0 1 15.214-3.824 24.19 24.19 0 0 1 14.541 6.485l-.69.691a23.304 23.304 0 0 0 -13.364-6.161zm21.021 31.278h-47.07v-22.053h47.071v22.053zm1.465 2.187h-41.894v1.465h40.43v.72h-47.071v-1.686h-1.465v3.152h8.65l-2.296 2.295.517.518a25.655 25.655 0 0 0 18.12 7.51c4.773 0 9.405-1.31 13.44-3.794l1.476 1.81 2.977-7.833-8.272 1.338 1.327 1.627c-8.533 5-19.24 3.646-26.305-3.42l-.052-.051h40.42zm-27.513 11.41c5.212.57 10.519-.667 14.941-3.483l.695-.442-.774-.95 3.263-.527-1.174 3.09-.7-.858-.551.36a24.109 24.109 0 0 1 -13.197 3.908 24.19 24.19 0 0 1 -16.558-6.57l.691-.69a23.303 23.303 0 0 0 13.364 6.161z"/><path d="m7.129 36.026h-1.465v1.465h1.466v-1.465zm-2.441 0h-1.465v1.465h1.465zm-1.27-19.441v12.457h.732c1.165 0 2.113.948 2.113 2.113v.732h37.475v-.732c0-1.165.948-2.113 2.113-2.113h.733v-12.457h-.733a2.115 2.115 0 0 1 -2.113-2.113v-.732h-37.475v.732a2.115 2.115 0 0 1 -2.113 2.113zm38.93-1.38a3.588 3.588 0 0 0 2.77 2.77v9.678a3.588 3.588 0 0 0 -2.77 2.77h-12.41a9.074 9.074 0 0 0 4.136-7.61 9.074 9.074 0 0 0 -4.136-7.608zm-17.348 15.217c-4.195 0-7.608-3.413-7.608-7.609 0-4.195 3.413-7.608 7.608-7.608 4.196 0 7.61 3.413 7.61 7.608 0 4.196-3.414 7.61-7.61 7.61zm-20.117-12.448a3.588 3.588 0 0 0 2.77-2.77h12.41a9.074 9.074 0 0 0 -4.136 7.61 9.074 9.074 0 0 0 4.136 7.608h-12.41a3.588 3.588 0 0 0 -2.77-2.77z"/><path d="m26.85 15.626h-3.64v1.427h-2.077v11.52h2.078v1.428h3.639v-1.428h2.022v-11.52h-2.022v-1.428zm.557 2.892v1.667h-3.049v1.465h3.049v5.459h-2.022v1.427h-.71v-1.426h-2.077v-1.667h3.049v-1.465h-3.05v-5.459h2.078v-1.429h.71v1.428zm11.04 3.563h-2.865v1.465h2.865zm4.816 0h-2.865v1.465h2.865z"/></g><path d="m41.832 16.04h-1.465v1.465h1.465zm-4.883 0h-3.605v1.465h3.605v-1.464zm2.442 0h-1.465v1.465h1.465z" fill="#fff"/><path d="m13.024 27.808h-4.494v1.465h4.492v-1.465z" fill="#6b2254"/></svg>