<svg width="72" height="72" fill="none" xmlns="http://www.w3.org/2000/svg"><path d="M72 36c0 11.285-5.193 21.36-13.321 27.96-1.243 1.008-5.007-.517-6.379.322-1.637 1.002-.907 4.329-2.703 5.062A35.89 35.89 0 0 1 36 72a35.89 35.89 0 0 1-13.597-2.656 36.033 36.033 0 0 1-10.036-6.188C4.79 56.556 0 46.838 0 36 0 16.118 16.118 0 36 0s36 16.118 36 36z" fill="#56679C"/><path d="M57.916 63.85V51.21H19.625l-5.48 7.168 5.662 8.403 38.109-2.93z" fill="#FAF7EB"/><path d="M60.662 51.208V5.403a2.747 2.747 0 0 0-2.746-2.747H22.12c-5.956 0-10.784 4.829-10.784 10.784v45.12l10.784-7.352h38.542z" fill="#9D6B6B"/><path d="M22.219 51.208V2.656h-.099c-5.956 0-10.784 4.829-10.784 10.784v45.12l10.784-7.352h.099z" fill="#8B5E5E"/><path d="M16.83 58.688c.068 2.888 2.5 5.163 5.39 5.163h35.696c.264 0 .52.038.762.108a35.975 35.975 0 0 1-9.082 5.385H22.12c-4.303 0-8.026-2.533-9.754-6.187a10.702 10.702 0 0 1-1.03-4.703c.058-5.937 4.984-10.678 10.921-10.678h35.659a2.74 2.74 0 0 1 1.943.805 2.747 2.747 0 0 1-1.943 4.688H22.12a5.296 5.296 0 0 0-5.29 5.419z" fill="#8B5E5E"/><path d="M25.564 59.245H57.92v3.105H25.564a1.553 1.553 0 1 1 0-3.105zm-2.758-4.612H57.92v3.105H22.807a1.553 1.553 0 1 1 0-3.105z" fill="#EBE6DB"/><path d="M27.474 43.848H49.39a6.275 6.275 0 0 1 6.275-6.275V13.035A6.275 6.275 0 0 1 49.39 6.76H27.474a6.275 6.275 0 0 1-6.275 6.275v24.538a6.275 6.275 0 0 1 6.275 6.275z" fill="#8B5E5E"/><path d="M24.251 30.23a.993.993 0 0 1-.938-1.317l3.962-11.462a.993.993 0 0 1 1.877 0l3.961 11.461a.993.993 0 1 1-1.876.65l-3.024-8.748-3.024 8.747a.993.993 0 0 1-.938.67zm28.108 0a.993.993 0 0 1-.939-.669l-3.023-8.747-3.024 8.747a.993.993 0 0 1-1.877-.648l3.962-11.462a.993.993 0 0 1 1.877 0l3.962 11.462a.993.993 0 0 1-.938 1.317zM38.406 12.384c-.703 0-1.273.57-1.273 1.273v22.054h2.547V13.657c0-.703-.57-1.273-1.274-1.273z" fill="#EEBE61"/><path d="M54.047 27.964h-11.32a5.377 5.377 0 0 0 5.377 5.377h.566a5.377 5.377 0 0 0 5.377-5.377zm-5.415-8.349H28.185a2.052 2.052 0 0 1 0-4.103h20.447a2.052 2.052 0 1 1 0 4.103z" fill="#F5DD62"/><path d="M32.336 19.615h-4.15a2.053 2.053 0 0 1 0-4.103h4.15a2.048 2.048 0 0 0-2.053 2.05c0 1.134.92 2.053 2.053 2.053z" fill="#EEBE61"/><path d="M34.156 27.964h-11.32a5.377 5.377 0 0 0 5.377 5.377h.566a5.377 5.377 0 0 0 5.377-5.377z" fill="#F5DD62"/><path d="M30.383 33.099a5.401 5.401 0 0 1-1.604.242h-.566a5.361 5.361 0 0 1-3.803-1.574 5.36 5.36 0 0 1-1.574-3.803h3.774a5.38 5.38 0 0 0 3.773 5.135zm19.887 0a5.401 5.401 0 0 1-1.604.242H48.1a5.361 5.361 0 0 1-3.803-1.574 5.36 5.36 0 0 1-1.574-3.803h3.774a5.38 5.38 0 0 0 3.773 5.135z" fill="#EEBE61"/><path d="M34.215 19.285a4.191 4.191 0 0 0 8.382 0" fill="#F5DD62"/><path d="M38.405 20.983a1.698 1.698 0 1 0 0-3.396 1.698 1.698 0 0 0 0 3.396zm4.378 14.041h-8.75a1.6 1.6 0 0 0 0 3.2h8.75a1.6 1.6 0 0 0 0-3.2z" fill="#EEBE61"/><path d="M30.34 14.227l-2.128-1.916a1.285 1.285 0 0 0-1.72 0l-2.128 1.916c-.828.744-2.145.157-2.145-.956V2.557c0-.722.585-1.307 1.307-1.307h7.652c.722 0 1.307.585 1.307 1.307v10.715c0 1.112-1.318 1.7-2.145.955z" fill="#D56278"/><path d="M24.252 14.318c-.828.602-2.033.018-2.033-1.046V2.557c0-.721.585-1.306 1.308-1.306h1.496c-.723 0-1.308.585-1.308 1.306v10.715c0 .455.22.822.537 1.046z" fill="#C94E6A"/></svg>