<svg id="Layer_1" xmlns="http://www.w3.org/2000/svg" viewBox="0 0 200 200"><style>.st5{fill:url(#SVGID_1_)}.st6{fill:url(#SVGID_2_)}</style><path d="M0 0H200V200H0z"/><linearGradient id="SVGID_1_" gradientUnits="userSpaceOnUse" x1="99.891" y1="171.783" x2="99.891" y2="29.27"><stop offset="0" stop-color="#45E97F"/><stop offset="1" stop-color="#3AF7CE"/></linearGradient><path class="st5" d="M100.2 30.83c.27.33.51.69.81.99 12.27 12.28 24.55 24.56 36.83 36.83.31.31.67.56.89.75L99.9 108.23C87.14 95.46 74.22 82.54 61.04 69.36c.26-.16.69-.33 1-.64 12.31-12.29 24.62-24.6 36.91-36.91.3-.3.54-.66.81-.99.15.01.3.01.44.01z"/><linearGradient id="SVGID_2_" gradientUnits="userSpaceOnUse" x1="100" y1="171.783" x2="100" y2="29.27"><stop offset="0" stop-color="#45E97F"/><stop offset="1" stop-color="#3AF7CE"/></linearGradient><path class="st6" d="M55.02 75.41c15.17 15.17 30.05 30.06 45.04 45.04 14.93-14.93 29.83-29.83 44.95-44.96.28.4.47.78.75 1.06 5.34 5.36 10.7 10.71 16.05 16.06 14.09 14.09 14.06 37.17-.06 51.2-14.53 14.44-38.03 14.02-52.05-.93-1.11-1.18-2.33-1.45-3.39-.7-.99.69-1.23 1.64-.95 2.8 2.34 9.92 8.12 17.07 17.3 21.47.33.16.74.26.95.51.25.31.51.81.42 1.14-.1.38-.53.73-.9.95-.25.15-.64.08-.97.08H77.84c-.29 0-.65.08-.86-.05-.4-.25-.94-.58-1.01-.96-.08-.38.29-.9.56-1.28.15-.21.51-.26.77-.39 9.2-4.39 14.97-11.54 17.3-21.46.32-1.36-.07-2.33-1.1-2.93-.98-.56-2.1-.36-3.05.65-4.96 5.28-10.92 8.82-17.95 10.61-20.03 5.09-40.82-8.3-44.26-28.61-2.13-12.56 1.4-23.41 10.31-32.48 5.17-5.27 10.44-10.45 15.65-15.68.29-.27.48-.65.82-1.14z"/></svg>