<svg width="60" height="60" fill="none" xmlns="http://www.w3.org/2000/svg"><g clip-path="url(#clip0)"><path d="M21.265 1.005L7.362 4.73A3.72 3.72 0 0 0 4.73 7.36L1.006 21.265a3.721 3.721 0 0 0 .963 3.594l10.177 10.177a3.72 3.72 0 0 0 3.594.963l6.016-1.612a2.35 2.35 0 0 1 2.27.609l3.7 3.7c.166.165.241.4.203.63l-.592 3.61a1.919 1.919 0 0 0 2.204 2.204l3.59-.59a.75.75 0 0 1 .416.043c.323.138.49.467.437.788l-.592 3.61a1.919 1.919 0 0 0 2.204 2.204l3.61-.593a.725.725 0 0 1 .833.834l-.592 3.61a1.919 1.919 0 0 0 2.203 2.204l3.61-.593a.726.726 0 0 1 .63.203l.847.847c.7.7 1.64 1.11 2.629 1.146l7.224.267a2.441 2.441 0 0 0 2.53-2.53l-.267-7.224a3.923 3.923 0 0 0-1.146-2.629l-22.711-22.71a2.35 2.35 0 0 1-.609-2.271L36 15.739a3.72 3.72 0 0 0-.963-3.594L24.86 1.969a3.72 3.72 0 0 0-3.594-.963zm-7.128 13.13a3.317 3.317 0 1 1-4.69-4.69 3.317 3.317 0 0 1 4.69 4.69z" fill="#1983CB"/><path opacity=".1" d="M58.976 57.5C46.762 52.087 32.29 36.459 26.392 29.527a5.562 5.562 0 0 0-4.843-1.914C9.507 28.92 6.852 20.14 8.493 12.145a3.312 3.312 0 0 1 .582-2.255c.77-2.473 1.93-4.76 3.31-6.507L7.36 4.73a3.72 3.72 0 0 0-2.63 2.63L1.003 21.265a3.72 3.72 0 0 0 .963 3.593l10.178 10.178a3.72 3.72 0 0 0 3.593.963l6.016-1.612a2.35 2.35 0 0 1 2.27.609l3.7 3.7c.166.165.241.4.203.63l-.592 3.61a1.919 1.919 0 0 0 2.204 2.204l3.59-.589a.747.747 0 0 1 .393.032c.338.133.514.47.46.798l-.592 3.61a1.919 1.919 0 0 0 2.204 2.204l3.584-.588a.76.76 0 0 1 .471.064c.29.15.438.46.388.765l-.592 3.61a1.919 1.919 0 0 0 2.203 2.204l3.61-.593a.725.725 0 0 1 .63.203l.847.847c.7.7 1.64 1.11 2.629 1.146l7.224.267a2.44 2.44 0 0 0 2.388-1.618z" fill="#373A4A"/><path opacity=".1" d="M21.979 27.073a.879.879 0 0 1-.622-1.5l4.216-4.216a.879.879 0 1 1 1.243 1.242L22.6 26.816a.875.875 0 0 1-.621.257z" fill="#373A4A"/><path d="M41 20.829c-.39.807-1.54.807-1.93 0a10.218 10.218 0 0 0-4.757-4.757 1.072 1.072 0 0 1 0-1.93 10.218 10.218 0 0 0 4.756-4.757 1.072 1.072 0 0 1 1.93 0 10.218 10.218 0 0 0 4.757 4.757c.807.39.807 1.54 0 1.93A10.221 10.221 0 0 0 41 20.83zM15.612 53.424c-.39.807-1.54.807-1.93 0a10.218 10.218 0 0 0-4.757-4.757 1.072 1.072 0 0 1 0-1.93 10.218 10.218 0 0 0 4.756-4.757 1.072 1.072 0 0 1 1.93 0 10.218 10.218 0 0 0 4.757 4.757c.808.39.808 1.54 0 1.93a10.22 10.22 0 0 0-4.756 4.757zm39.852-19.01a.73.73 0 0 1-1.316 0 6.967 6.967 0 0 0-3.242-3.242.73.73 0 0 1 0-1.316 6.967 6.967 0 0 0 3.242-3.243.73.73 0 0 1 1.316 0 6.966 6.966 0 0 0 3.243 3.243.73.73 0 0 1 0 1.316 6.966 6.966 0 0 0-3.243 3.242z" fill="#FF4151"/><path d="M27.939 31.73a.879.879 0 0 0 0 1.243l15.404 15.404a.877.877 0 0 0 1.243 0 .879.879 0 0 0 0-1.243L29.182 31.73a.879.879 0 0 0-1.243 0zM54.19 50.834a.879.879 0 0 0 .622-1.5L33.195 27.716a.879.879 0 0 0-1.243 1.243L53.57 50.577a.876.876 0 0 0 .621.257zM2.59 24.235a2.85 2.85 0 0 1-.735-2.745L5.579 7.587a2.85 2.85 0 0 1 2.01-2.009L21.49 1.853a2.85 2.85 0 0 1 2.745.735l10.178 10.178c.07.07.134.144.196.22-.22.13-.447.252-.678.364a1.936 1.936 0 0 0-1.103 1.756c0 .755.423 1.428 1.102 1.757.256.123.505.26.747.405l-1.14 4.258a3.238 3.238 0 0 0 .835 3.12l18.861 18.861a.877.877 0 0 0 1.244 0 .879.879 0 0 0 0-1.243L35.616 23.403a1.476 1.476 0 0 1-.38-1.422l.958-3.577a9.356 9.356 0 0 1 2.085 2.806 1.937 1.937 0 0 0 1.756 1.102c.755 0 1.429-.422 1.757-1.102a9.377 9.377 0 0 1 4.347-4.347 1.936 1.936 0 0 0 1.102-1.757c0-.755-.422-1.428-1.102-1.756a9.377 9.377 0 0 1-4.347-4.348A1.936 1.936 0 0 0 40.035 7.9c-.755 0-1.428.423-1.756 1.102a9.361 9.361 0 0 1-2.246 2.95 4.56 4.56 0 0 0-.376-.43L25.479 1.346a4.613 4.613 0 0 0-4.443-1.19L7.133 3.88a4.612 4.612 0 0 0-3.252 3.252L.156 21.035a4.612 4.612 0 0 0 1.19 4.443l.893.893a.876.876 0 0 0 1.243 0 .879.879 0 0 0 0-1.243l-.893-.893zm32.107-9.302a11.041 11.041 0 0 0 1.662-.994 11.144 11.144 0 0 0 3.504-4.172.18.18 0 0 1 .173-.11.18.18 0 0 1 .174.11 11.14 11.14 0 0 0 5.166 5.166.18.18 0 0 1 .109.173.18.18 0 0 1-.11.174 11.142 11.142 0 0 0-5.165 5.166.18.18 0 0 1-.173.109.18.18 0 0 1-.174-.11 11.145 11.145 0 0 0-5.166-5.165.18.18 0 0 1-.109-.174.18.18 0 0 1 .11-.173zm15.829 17.03a6.11 6.11 0 0 1 2.833 2.833c.271.56.827.91 1.45.91s1.178-.35 1.449-.91a6.111 6.111 0 0 1 2.834-2.834c.56-.27.909-.826.909-1.449 0-.623-.349-1.178-.91-1.45a6.111 6.111 0 0 1-2.833-2.832 1.598 1.598 0 0 0-1.45-.91c-.622 0-1.178.349-1.449.91a6.111 6.111 0 0 1-2.833 2.833c-.56.271-.91.826-.91 1.45 0 .622.35 1.178.91 1.448zm4.283-4.704a7.883 7.883 0 0 0 3.254 3.254 7.882 7.882 0 0 0-3.254 3.255 7.885 7.885 0 0 0-3.255-3.255 7.88 7.88 0 0 0 3.255-3.255zM20.752 45.944a9.376 9.376 0 0 1-4.348-4.347 1.936 1.936 0 0 0-1.756-1.102c-.756 0-1.429.422-1.757 1.102a9.376 9.376 0 0 1-4.347 4.347 1.936 1.936 0 0 0-1.103 1.757c0 .755.423 1.428 1.103 1.756a9.377 9.377 0 0 1 4.347 4.348 1.936 1.936 0 0 0 1.757 1.102c.755 0 1.428-.422 1.756-1.102a9.376 9.376 0 0 1 4.348-4.348 1.936 1.936 0 0 0 1.102-1.756c0-.755-.422-1.428-1.102-1.757zm-.765 1.93a11.14 11.14 0 0 0-5.166 5.166.18.18 0 0 1-.173.11.18.18 0 0 1-.174-.11 11.14 11.14 0 0 0-5.166-5.165.18.18 0 0 1-.109-.174.18.18 0 0 1 .11-.174 11.142 11.142 0 0 0 5.165-5.165.18.18 0 0 1 .174-.11.18.18 0 0 1 .173.11 11.14 11.14 0 0 0 5.166 5.165.18.18 0 0 1 .109.174.18.18 0 0 1-.109.174zm-3.288-27.728a3.234 3.234 0 0 0 3.449-3.449.88.88 0 0 0-1.755.121 1.477 1.477 0 0 1-1.574 1.575.879.879 0 1 0-.12 1.754zM59.73 49.331a4.787 4.787 0 0 0-1.403-3.217l-.94-.94a.879.879 0 0 0-1.243 1.243l.94.94c.545.545.861 1.27.89 2.04l.267 7.224c.016.439-.146.852-.456 1.162-.311.311-.722.474-1.163.457l-7.225-.267a3.035 3.035 0 0 1-2.039-.89l-.846-.846a1.607 1.607 0 0 0-1.395-.449l-3.61.593a1.029 1.029 0 0 1-.903-.291 1.028 1.028 0 0 1-.29-.904l.591-3.61a1.608 1.608 0 0 0-.448-1.394 1.607 1.607 0 0 0-1.394-.449l-3.61.593a1.029 1.029 0 0 1-.904-.291 1.028 1.028 0 0 1-.29-.904l.592-3.61a1.607 1.607 0 0 0-.96-1.738 1.624 1.624 0 0 0-.903-.101l-3.59.589a1.029 1.029 0 0 1-.904-.29c-.24-.24-.346-.57-.29-.904l.592-3.61a1.609 1.609 0 0 0-.449-1.395l-3.7-3.7a3.24 3.24 0 0 0-3.12-.836l-6.015 1.612a2.849 2.849 0 0 1-2.745-.735L6.406 28.05a.879.879 0 0 0-1.243 1.243l6.361 6.362a4.613 4.613 0 0 0 4.443 1.19l6.015-1.612c.506-.135 1.051.01 1.422.381l3.645 3.645-.58 3.532c-.148.9.137 1.786.782 2.431s1.531.93 2.431.782l3.4-.557-.558 3.399c-.148.9.137 1.786.782 2.43.645.646 1.531.931 2.431.783l3.4-.557-.558 3.399c-.148.9.137 1.786.782 2.43.645.646 1.531.93 2.431.783l3.532-.58.791.791a4.786 4.786 0 0 0 3.218 1.403l7.224.268.122.002c.877 0 1.727-.35 2.349-.972a3.33 3.33 0 0 0 .97-2.47l-.268-7.226zm-38.4-37.528a.879.879 0 0 0 0 1.243l.791.791a.877.877 0 0 0 1.243 0 .879.879 0 0 0 0-1.243l-.79-.79a.879.879 0 0 0-1.243 0zm-6.573-2.98a4.169 4.169 0 0 0-2.966-1.229c-1.121 0-2.175.436-2.967 1.229a4.168 4.168 0 0 0-1.23 2.966c0 1.121.437 2.175 1.23 2.967a4.183 4.183 0 0 0 2.966 1.227 4.183 4.183 0 0 0 2.967-1.227 4.2 4.2 0 0 0 0-5.933zm-1.243 4.69c-.46.46-1.072.714-1.723.714a2.422 2.422 0 0 1-1.724-.713 2.44 2.44 0 0 1 0-3.448 2.43 2.43 0 0 1 1.723-.713 2.43 2.43 0 0 1 1.724.713c.46.46.714 1.072.714 1.723 0 .652-.253 1.264-.714 1.725zm-1.71 7.817a.879.879 0 0 0 0 1.243l.79.79a.877.877 0 0 0 1.244 0 .879.879 0 0 0 0-1.243l-.79-.79a.88.88 0 0 0-1.244 0z" fill="#373A4A"/></g><defs><clipPath id="clip0"><path fill="#fff" d="M0 0H60V60H0z"/></clipPath></defs></svg>