<svg fill="none" height="200" viewBox="0 0 200 200" width="200" xmlns="http://www.w3.org/2000/svg" xmlns:xlink="http://www.w3.org/1999/xlink"><radialGradient id="a" cx="0" cy="0" gradientTransform="matrix(200.00020331 200.00020331 -200.00020331 200.00020331 0 0)" gradientUnits="userSpaceOnUse" r="1"><stop offset="0" stop-color="#9656d1"/><stop offset="1" stop-color="#39135d"/></radialGradient><linearGradient id="b"><stop offset="0" stop-color="#ff5aff"/><stop offset=".271" stop-color="#ff7bfe"/><stop offset=".559" stop-color="#ff97fd"/><stop offset=".812" stop-color="#ffa8fc"/><stop offset="1" stop-color="#ffaefc"/></linearGradient><linearGradient id="c" gradientUnits="userSpaceOnUse" x1="43.4293" x2="43.4293" xlink:href="#b" y1="159.648" y2="141.637"/><linearGradient id="d" gradientUnits="userSpaceOnUse" x1="62.1596" x2="62.1596" xlink:href="#b" y1="163.586" y2="137.986"/><linearGradient id="e" gradientUnits="userSpaceOnUse" x1="81.9758" x2="81.9758" xlink:href="#b" y1="159.648" y2="141.637"/><linearGradient id="f" gradientUnits="userSpaceOnUse" x1="101.478" x2="101.478" xlink:href="#b" y1="159.985" y2="141.354"/><linearGradient id="g" gradientUnits="userSpaceOnUse" x1="123.393" x2="123.393" xlink:href="#b" y1="159.648" y2="141.653"/><linearGradient id="h" gradientUnits="userSpaceOnUse" x1="139.219" x2="139.219" xlink:href="#b" y1="159.628" y2="141.634"/><linearGradient id="i" gradientUnits="userSpaceOnUse" x1="156.119" x2="156.119" xlink:href="#b" y1="159.629" y2="141.614"/><linearGradient id="j" gradientUnits="userSpaceOnUse" x1="103.491" x2="103.491" y1="133.961" y2="33.0255"><stop offset="0" stop-color="#0000b6"/><stop offset=".1381" stop-color="#3507b4"/><stop offset=".3129" stop-color="#720eb1"/><stop offset=".4812" stop-color="#a415af"/><stop offset=".6384" stop-color="#cc1aad"/><stop offset=".7819" stop-color="#e81dac"/><stop offset=".9071" stop-color="#f91fab"/><stop offset="1" stop-color="#ff20ab"/></linearGradient><path d="m200 0h-200v200h200z" fill="url(#a)"/><path d="m37.2 148.886c0-2.7-.1-4.7-.2-7.2 3.4.6 8.1-1 11 1.1 5 4.8-1.2 10.3-6.7 9.1 0 2.6 0 5.2.2 7.8-1.1-.1-3.3-.1-4.4 0 .2-3.4.2-7.3.1-10.8zm8.2-2.2c.2-2.5-1.8-4-4.1-3.5-.1 2.2 0 5.2 0 7.4 2.3.1 4.3-1.4 4.1-3.9z" fill="url(#c)"/><path d="m58.3001 149.286c-8.3-2.3-3.5-12.3 3.8-11.2 7.7-1.1 12.2 8.7 3.9 11.2v.2c9.5 2.2 4.7 15.4-4 13.9-9 1.5-12.9-11.7-3.7-14zm7.2 6.9c.6-7.5-7.5-7.6-6.8.1-.5 7.6 7.4 7.5 6.8-.1zm-.3-12c.4-6.3-6.8-5.8-6.1.4-.3 5.9 6.8 5.2 6.1-.4z" fill="url(#d)"/><path d="m75.7996 148.886c0-2.4-.1-4.8-.2-7.2 3.4.6 8.1-1 11 1.1 5 4.8-1.2 10.3-6.7 9.1 0 2.6 0 5.2.2 7.8-1.2-.1-3.3-.1-4.5 0 .2-3.4.2-7.3.2-10.8zm8.2-2.2c.2-2.5-1.8-4-4.1-3.5-.1 2.2 0 5.2 0 7.4 2.3.1 4.3-1.4 4.1-3.9z" fill="url(#e)"/><path d="m90.9998 150.686c-.2-12.2 21.5002-12.7 20.9002 0 .3 12.1-21.6002 12.7-20.9002 0zm16.5002-.6c-1-13.3-15.5002-6.3-11.5002 4.4 2.7 7.8 12.7002 2.8 11.5002-4.4z" fill="url(#f)"/><path d="m120.3 156.386c0 1.4.1 2.4.2 3.2-1.2-.1-3.3-.1-4.5 0 .4-5.8.4-12.2 0-18 1.4.2 3.1.2 4.5 0-.4 2.4-.2 5.9-.3 8.4 2.3-2.5 5-5.8 7-8.4 1.1.2 2.1.2 3.2 0-2.1 2.1-5.1 5.3-7.1 7.6 2.4 3.4 4.9 7.2 7.5 10.4-1.6-.1-3.5-.1-5 0-1.9-2.7-3.6-5.5-5.5-8.2h-.1c.1 2 .1 3.7.1 5z" fill="url(#g)"/><path d="m134.1 145.084c0-1.1-.1-2.3-.2-3.4 3.3.1 7.5.2 10.6 0-.2.6-.1 1.6 0 2.3-2-.1-4.3-.3-6.2-.3-.1 1.7-.1 4-.1 5.7 2.3 0 4-.1 6.2-.2-.2.8-.2 1.4 0 2.2-2.1-.1-4.2-.2-6.2-.2 0 1.9 0 4.7.1 6.6 2.1 0 4.2-.1 6.3-.3-.1.7-.2 1.6 0 2.3-1.6 0-8.9-.1-10.6 0 .3-4.7.2-10.2.1-14.7z" fill="url(#h)"/><path d="m153.2 151.384c0 2.9.1 5.5.2 8.2-1.2-.1-3.3-.1-4.5 0 .4-5.8.4-12.2 0-18 3.3.5 7.1-.6 10.3.5 4.3 1.8 2.8 8.1-1.7 8.6 1.8 3 3.8 6 5.9 8.8-1.5-.1-3.5-.1-4.9 0l-4.9-8.3zm4.3-4.8c.3-2.8-1.8-3.6-4.2-3.4-.1 2.4-.1 4.8-.1 7.1 2.5.3 4.4-1 4.3-3.7z" fill="url(#i)"/><path d="m136.306 61.2721 7.935-27.0104h-10.745c1.972 11.3365-15.871 11.4844-13.8 0h-11.879c1.971 11.3365-15.8712 11.4844-13.8011 0h-11.8786c1.9715 11.3365-15.8711 11.4844-13.8009 0h-10.5479l8.7242 27.8483v30.017l-8.0341 4.8303c-5.4711 3.2527-5.7669 11.0897-.5422 14.7867l30.1156 21.194 64.716-36.3257z" fill="#fff"/><path d="m153.853 96.0662-16.265-34.8967 7.787-26.5667c.099-.3451.049-.7887-.197-1.0844.345-.9365-11.386-.2957-11.731-.4929-2.809-.1478 1.676 7.9355-7.048 8.7242-8.576-1.1337-3.845-8.6749-6.753-8.7242h-11.878c-2.859-.0986 1.675 7.9355-7.049 8.7242-8.4774-1.0351-3.7949-8.6256-6.703-8.6749h-11.8786c-2.8588-.0493 1.7251 7.8862-7.0484 8.7242-8.527-1.0844-3.8445-8.6749-6.7525-8.7242-.2958.1972-11.7801-.4929-11.5337.4929-.2464.345-.2957.7393-.1971 1.0844l8.6748 27.6018v29.1298l-7.4426 4.436c-6.1611 3.4502-6.5062 12.9133-.6408 16.8073l30.1156 21.195c1.3308 1.527 64.7653-36.3265 66.0473-36.2772.542-.1971.789-.8872.493-1.4786zm-94.3886-60.5269h7.492c-.2465 11.435 16.7582 11.435 16.6104 0h9.0691c-.2464 11.435 16.7581 11.4843 16.6101 0h9.07c-.247 11.435 16.758 11.435 16.61 0h7.689l-3.155 10.7943h-76.6439zm3.9432 12.5687h75.5104l-2.612 8.8227h-2.809c-.296-.9858-1.233-3.1052-3.599-3.1052-.394-4.2882-6.259-4.2882-6.604 0-2.366 0-3.303 2.1194-3.598 3.1052h-3.599c-.295-.9858-1.232-3.1052-3.598-3.1052-.394-4.2882-6.259-4.2882-6.604 0-2.366 0-3.303 2.1194-3.598 3.1052h-3.5492c-.2958-.9858-1.2323-3.1052-3.5981-3.1052-.3943-4.2882-6.2597-4.2882-6.6048 0-2.3658 0-3.3023 2.1194-3.5981 3.1052h-3.5488c-.2957-.9858-1.2322-3.1052-3.5981-3.1052-.3943-4.2882-6.2597-4.2882-6.6047 0-2.3659 0-3.3023 2.1194-3.5981 3.1052h-1.2815zm72.3564 10.6464-.493 1.5772c-8.182 0-58.8019 0-68.0682 0l-.4929-1.5772zm-68.6105 34.4037c1.183.345.3943-13.5545.5915-14.0474l2.3166 18.582c-1.4294-1.528-3.3517-2.6123-5.5204-2.9574zm-9.4635 16.7579c-5.0275-4.633-.9858-13.0119 5.3232-13.5048 14.5403 1.3801 6.1119 22.4758-5.3232 13.5048zm41.5999 15.28c-.5421-.345-4.3867-17.941-5.9639-16.463-.4929.148-.7394.641-.5915 1.134l4.9289 16.265-8.7241 4.88v-21.391c0-.493-.3944-.937-.9365-.937-1.9716-1.183-.4929 21.786-.9365 22.082l-8.8228-6.211c-.2957-.591 5.4711-17.448 3.401-17.005-1.6266-1.38-4.4853 15.527-4.9782 15.872l-7.5412-5.324 7.7876-11.04c.2958-.395.1972-.986-.2464-1.282-1.0844-1.725-8.4284 11.09-9.0692 11.287l-4.5346-3.204c5.619-.049 9.9564-4.928 9.5128-10.498l-4.8796-38.9384v-2.2673h45.9863l4.19 31.1014c-6.703 3.7459-19.0257 6.1611-17.793 16.3143l-1.4791-1.774c-.7393-.887-2.1687.296-1.3801 1.183 2.9572 3.499 6.9992 8.28 10.0052 11.731zm18.8281-29.9678.838 6.1118c-1.626-1.7743-3.844-3.0558-6.358-3.4502zm-9.315 24.6448-.592-.69c.444.098.887.197 1.38.246zm8.231-4.633c-10.104 8.231-21.3914-6.556-11.238-14.097 9.365-6.0626 19.124 6.605 11.238 14.097zm3.746-2.12c2.908-3.795-5.274-45.8879-5.225-50.9154h2.021l8.33 48.0564zm6.851-3.844-8.182-47.0714h2.563l9.858 44.7544zm5.866-3.303-9.661-43.8177h2.021l12.47 41.0577zm6.506-3.598-12.175-40.1704h2.908l14.886 36.9668zm7.245-4.0908-14.54-36.0796h2.711l15.772 33.8616zm-78.1722 9.9568c-2.6616 2.76-7.3934 2.76-10.055 0-4.8796-4.436 1.6266-13.1606 6.8019-8.232 3.401 3.056-1.1829 9.069-4.7317 5.669-2.4152-2.219.8872-6.4081 3.4009-3.993.6901.69-.3943 1.725-1.0351 1.035-1.1829-1.035-2.3658 1.035-1.3308 1.922 2.218 2.021 4.6332-1.823 2.6616-3.548-1.2815-1.2819-3.4009-1.2819-4.7317 0-4.5839 4.978 3.9431 10.745 7.9848 6.161.6408-.74 1.7251.345 1.0351.986zm48.1062 2.02c-1.43 6.999-13.21 5.718-11.435-1.823.986-4.831 9.069-3.894 7.837 1.281-.493 2.366-4.042 3.155-5.274.986-.493-.739-.69-2.662.641-2.464.394.098.64.492.542.887.345 3.696 5.274-.69 1.133-2.366-4.386-.937-4.682 5.865-.788 6.605 7.344 1.577 8.083-9.809 1.429-11.09-.394-.099-.641-.493-.542-.888.099-.394.493-.64.887-.542 4.14 1.035 6.654 5.274 5.57 9.414zm-32.4816-40.4659h-12.963s1.1829-3.9431 6.9497-3.9431c0 0 6.0133.7886 6.0133 3.9431zm24.4966 0h-12.963s1.183-3.9431 6.95-3.9431c0 0 6.013.7886 6.013 3.9431zm-30.6577 9.0199c1.5772 0 3.4502-.4436 5.2739-1.5772.1479.7393-2.6123 9.562-1.2322 9.7099.7393.69 6.0625 1.1336 8.2805.1479 1.1337-.2958.6408-2.1195-.4929-1.7745-3.0559.8873-5.2739.4929-6.309.1972l2.2673-11.3365c.2465-.7886.6901-2.4644-.5914-2.5137h-14.5896c-1.7744.5422-.7393 1.9716.7887 4.1403.8872 1.3801 3.6473 3.0559 6.6047 3.0066zm5.9639-5.2739c-.2957 1.2322-1.3308 2.1194-2.7601 2.7602.2957-.8872.1478-1.9716-.2958-2.7602zm-9.6606 2.5137c-1.2815-.7393-2.0208-1.7251-2.4644-2.5137h2.8094c-.3943.7393-.5422 1.6758-.345 2.5137zm1.7744-.7886c-.0493-2.2673 3.4995-2.2673 3.4502 0 .0493 2.2673-3.4995 2.2673-3.4502 0zm19.5677.5915c.9858 1.3801 4.1893 3.1545 7.0973 2.9573 2.416 0 8.577-2.3166 7.394-6.8512-.197-.1971-.395-.2957-.641-.2957h-14.5896c-1.8237.5422-.7886 2.0208.7393 4.1896zm12.7663-2.3166c-.345 1.1829-1.331 2.1194-2.81 2.7602.296-.8872.148-1.9716-.296-2.7602zm-6.211 0c2.169-.0493 2.267 3.3516.148 3.4502-2.366.1972-2.514-3.4502-.148-3.4502zm-3.1543 0c-.3943.7393-.5422 1.6758-.3943 2.5137-1.2815-.7393-2.0209-1.7251-2.4645-2.5137zm-2.0702 19.4691c-3.0559-1.1829-6.6047-1.9222-9.6113-.2957-.345.1972-.7394.2464-1.0351.1479-2.9573-1.0844-6.2597-.9858-8.9213.7886 1.5773-3.3024 5.9147-4.2882 9.2171-3.2531 3.4502-1.7744 7.9848-.4929 10.3506 2.6123zm-16.8075 3.3517c-3.9431-.2465 3.3024-4.1403 5.964-1.6266.7393.5915-.2465 1.7745-.9858 1.1337-1.2815-1.1337-4.0417-.0493-4.9782.4929zm14.3431-.8379c-.8872 1.1829-3.3517-1.7251-6.0626.345-.7393.5915-1.6758-.5915-.8872-1.1829.0986-.0986 2.9574-2.218 6.6541-.1972.345.2464.4928.6901.2957 1.0351zm-3.2531 2.218c.345 1.9223-3.3516 2.0701-4.3867 2.1687-2.1687 0-3.8445-.7886-3.9431-.8379-.8872-.3943-.2465-1.7744.6407-1.3308.0493 0 3.6474 1.6758 6.7033-.2465.2958-.1971.7887-.0985.9858.2465z" fill="url(#j)"/></svg>