<svg width="200" height="200" viewBox="0 0 200 200" fill="none" xmlns="http://www.w3.org/2000/svg">
<path d="M100 200C44.8 200 0 155.2 0 100C0 44.8 44.8 0 100 0C155.2 0 200 44.8 200 100C200 155.2 155.2 200 100 200Z" fill="#BBBBBB"/>
<path d="M98.6339 82C100.434 79.6 103.734 74.875 106.884 69.925C113.334 59.725 115.134 54.85 115.134 47.575C115.134 36.175 108.609 27.475 99.9839 27.475C91.3589 27.475 84.7589 35.725 84.7589 46.675C84.7589 56.5 90.8339 64.45 98.3339 64.45C98.6339 64.45 99.0089 64.45 99.5339 64.375C96.3089 70.3 91.7339 77.05 87.5339 82H98.6339ZM99.9839 37.75C102.609 37.75 104.109 40.9 104.109 46.6C104.109 52 102.609 55.075 99.9839 55.075C97.2839 55.075 95.7839 52 95.7839 46.45C95.7839 40.9 97.2839 37.75 99.9839 37.75ZM35.5226 152H46.5476L49.5476 131.975L58.7726 154.025L67.9976 131.975L71.7476 152H82.7726L71.2226 97.025L59.1476 128.975L47.0726 97.025L35.5226 152ZM125.487 152L104.262 97.025L82.5874 152H94.0624L96.8374 143.75H110.562L113.412 152H125.487ZM108.087 134.975H99.6124L103.812 122.225L108.087 134.975ZM135.819 152L144.594 134.675L153.369 152H165.369L150.444 123.65L163.869 98.9H152.319L145.119 113.375L137.844 98.9H125.844L139.119 124.25L124.344 152H135.819Z" fill="#FFFFFF"/>
</svg>
