<svg width="50" height="50" fill="none" xmlns="http://www.w3.org/2000/svg"><rect x="50" y="50" width="50" height="50" rx="25" transform="rotate(-180 50 50)" fill="silver" fill-opacity=".1"/><mask id="a" maskUnits="userSpaceOnUse" x="4" y="0" width="42" height="50"><path fill-rule="evenodd" clip-rule="evenodd" d="M4 0h41.243v50H4V0z" fill="#fff"/></mask><g mask="url(#a)"><path fill-rule="evenodd" clip-rule="evenodd" d="M37.032 23.707c.51-.844.954-1.724 1.329-2.636.384.135.79.204 1.198.206 3.684 0 5.684-5.965 5.684-5.965a12.841 12.841 0 0 0-1.12-.047c-2.046 0-3.48.51-4.482 1.215.18-1.13.276-2.293.288-3.481 4.077-.65 3.043-7.33 3.043-7.33-1.71.715-2.795 1.583-3.468 2.47a23.576 23.576 0 0 0-.577-2.47c.994-3.548-4.78-5.67-4.78-5.67-.51 4.589 1.84 6.101 3.247 6.591.126.435.562 2.03.741 4.248-1.617-1.814-4.068-2.945-4.068-2.945-1.197 6.19 2.37 8.016 3.846 8.498a18.588 18.588 0 0 1-1.292 4.381c-.563-2.558-2.414-4.942-2.414-4.942-3.979 5.026-1.771 8.387-.607 9.626a19.586 19.586 0 0 1-3.116 2.78c.612-2.747-.496-6.135-.496-6.135-5.193 3.242-4.572 6.951-3.912 8.639-.47.212-.956.412-1.455.605a30.59 30.59 0 0 1-1.735-.732c.49-1.774.683-5.432-4.666-8.153 0 0-.64 2.74-.183 5.232a19.135 19.135 0 0 1-2.394-2.236c1.165-1.239 3.37-4.6-.607-9.626 0 0-1.85 2.384-2.413 4.94a18.618 18.618 0 0 1-1.294-4.379c1.479-.482 5.045-2.309 3.848-8.498 0 0-2.452 1.13-4.068 2.946.179-2.209.614-3.812.742-4.249 1.407-.49 3.755-2.002 3.244-6.59 0 0-5.778 2.122-4.778 5.674-.093.307-.348 1.21-.576 2.466-.675-.888-1.758-1.757-3.47-2.47 0 0-1.034 6.679 3.044 7.329.01 1.165.107 2.329.289 3.48-1.004-.704-2.437-1.214-4.483-1.214-.355 0-.728.014-1.121.048 0 0 2 5.965 5.684 5.965.38 0 .782-.065 1.2-.208.373.913.818 1.793 1.327 2.637a7.711 7.711 0 0 0-1.923-.23c-1.271 0-2.766.27-4.518.942 0 0 3.639 5.227 7.553 5.227.988 0 1.992-.333 2.96-1.168 1.677 1.436 3.645 2.671 5.897 3.703-1.718.52-3.569.946-5.553 1.28l.285 1.694c2.82-.473 5.391-1.133 7.709-1.976 2.319.843 4.89 1.503 7.712 1.976l.284-1.695a44.75 44.75 0 0 1-5.554-1.279c2.253-1.032 4.22-2.267 5.896-3.703.968.835 1.973 1.168 2.961 1.168 3.915 0 7.553-5.227 7.553-5.227-1.75-.673-3.246-.941-4.518-.941a7.8 7.8 0 0 0-1.923.229zm3.4-13.768c.18-.445.47-.86.866-1.243-.118.95-.377 1.689-.748 2.123a1.388 1.388 0 0 1-.343.295 3.118 3.118 0 0 1 .225-1.175zm-.688 8.824c.6-.839 1.52-1.385 2.741-1.63l-.177.283c-.453.692-.92 1.23-1.392 1.599-.47.367-.911.545-1.356.545-.08 0-.163-.006-.248-.02a4 4 0 0 1 .432-.777zm-3.15-14.735a3.248 3.248 0 0 1-.547-1.022c.638.499 1.062 1.005 1.213 1.467.019.057.034.118.048.185a2.884 2.884 0 0 1-.715-.63h.001zm1.138 10.425a3.92 3.92 0 0 1-1.395-1.238c-.443-.646-.7-1.448-.774-2.398 1.212.918 1.985 1.874 2.186 2.702a1.77 1.77 0 0 1-.017.933v.001zm-26.237-.931c.2-.827.973-1.787 2.187-2.705-.073.95-.33 1.752-.774 2.398a3.93 3.93 0 0 1-1.396 1.238 1.78 1.78 0 0 1-.017-.93v-.001zm.486-9.044c.151-.463.573-.97 1.213-1.47-.12.37-.304.717-.546 1.022a2.886 2.886 0 0 1-.714.63c.013-.066.029-.126.047-.182zm-3.286 6.344c-.374-.433-.633-1.173-.75-2.126.394.385.684.799.864 1.243.169.416.226.821.227 1.175a1.347 1.347 0 0 1-.341-.292zm.99 8.738c-.444 0-.887-.179-1.356-.547-.471-.369-.938-.905-1.39-1.598-.061-.095-.12-.189-.178-.283 1.222.245 2.14.791 2.74 1.631.188.263.327.53.431.777a1.622 1.622 0 0 1-.248.019zm3.636 8.368c-1.144 0-2.536-.73-4.026-2.11a14.46 14.46 0 0 1-.498-.485 8.571 8.571 0 0 1 1.49-.138c1.584 0 2.892.523 3.89 1.553.238.247.434.497.59.726-.463.304-.942.454-1.447.454h.001zm2.24-6.068a4.16 4.16 0 0 1-.763 1.917 1.949 1.949 0 0 1-.544-.949c-.22-.897.053-2.207.773-3.692l.028-.058c.443.983.613 1.913.505 2.782zm5.76 7.911a2.002 2.002 0 0 1-.89-.637c-.699-.878-.865-2.376-.834-3.728.81.706 1.351 1.476 1.614 2.308a4.18 4.18 0 0 1 .11 2.057zm7.045-.806a2.013 2.013 0 0 1-.834.712 4.242 4.242 0 0 1-.083-2.024c.184-.87.66-1.705 1.424-2.497.154 1.35.118 2.87-.507 3.809zm5.314-7.105c-.108-.87.061-1.798.504-2.782l.001.002c.74 1.507 1.023 2.835.8 3.744a1.92 1.92 0 0 1-.544.953 4.159 4.159 0 0 1-.76-1.917zm6.309 3.919c-.707.66-1.404 1.18-2.067 1.547-.729.4-1.403.602-2.003.602-.503 0-.983-.149-1.446-.453.156-.229.35-.478.59-.726.998-1.03 2.307-1.551 3.89-1.551.473 0 .97.044 1.49.136a11.39 11.39 0 0 1-.454.445z" fill="silver"/></g><path fill-rule="evenodd" clip-rule="evenodd" d="M31.425 12.988l-6.838-3.814-6.583 3.81v3.175l6.608-3.823 6.813 3.798v-3.146z" fill="silver"/><path d="M12.154 47.12c1.79 0 2.78-.89 2.78-2.23 0-2.48-3.77-1.86-3.77-2.71 0-.28.22-.48.72-.48.66 0 1.39.23 1.95.69l.94-1.23c-.71-.61-1.64-.93-2.71-.93-1.71 0-2.66 1-2.66 2.12 0 2.57 3.78 1.84 3.78 2.75 0 .32-.36.55-.95.55-.91 0-1.65-.4-2.13-.88l-.91 1.29c.67.64 1.61 1.06 2.96 1.06zM17.46 47v-6.67h-1.72V47h1.72zm5.6 0v-1.5h-2.68v-5.17h-1.72V47h4.4zm3.954 0l2.52-6.67h-1.95l-1.65 4.81-1.64-4.81h-1.95l2.51 6.67h2.16zm7.903 0v-1.5h-3.17v-1.13h3.1v-1.5h-3.1v-1.04h3.17v-1.5h-4.89V47h4.89zm6.689 0l-1.36-2.45c.62-.22 1.33-.84 1.33-2 0-1.24-.84-2.22-2.32-2.22h-3.34V47h1.72v-2.24h.88l1.12 2.24h1.97zm-2.61-3.74h-1.36v-1.43h1.36c.45 0 .83.26.83.71 0 .47-.38.72-.83.72z" fill="#555"/></svg>