<svg width="20" height="20" fill="none" xmlns="http://www.w3.org/2000/svg"><g opacity=".7" fill="#999"><path d="M18.242 4.164h-4.041l-.093-1.347h-1.806v-.513A2.306 2.306 0 0 0 10 0a2.306 2.306 0 0 0-2.302 2.304v.513H5.89L5.8 4.164H1.758c-.97 0-1.758.79-1.758 1.76v9.58c0 .97.789 1.759 1.758 1.759h5.715v.977a.587.587 0 0 1-.586.587H5.313V20h9.375v-1.173h-1.575a.587.587 0 0 1-.586-.587v-.977h5.715c.97 0 1.758-.79 1.758-1.76v-9.58c0-.97-.789-1.759-1.758-1.759zM8.87 2.304c0-.623.507-1.131 1.13-1.131.623 0 1.13.508 1.13 1.131v.513H8.87v-.513zM6.986 3.99h6.028l.482 7.017H6.504l.482-7.017zM1.758 5.337h3.96L5.25 12.18h9.502l-.47-6.843h3.961c.323 0 .586.263.586.587v7.82H1.172v-7.82c0-.324.263-.587.586-.587zm9.698 13.49H8.544c.065-.184.101-.38.101-.587v-.977h2.71v.977c0 .206.036.403.1.587zm6.786-2.737H1.758a.587.587 0 0 1-.586-.587v-.586h17.656v.586a.587.587 0 0 1-.586.587z"/><path d="M10 5.723a1.776 1.776 0 0 0 0 3.55 1.776 1.776 0 0 0 0-3.55zm0 2.378a.603.603 0 1 1 .002-1.205A.603.603 0 0 1 10 8.1z"/></g></svg>