<svg width="200" height="200" fill="none" xmlns="http://www.w3.org/2000/svg"><path d="M200 0H0v200h200V0z" fill="#161616"/><path fill-rule="evenodd" clip-rule="evenodd" d="M115.476 76.414c-6.429 0-12.072 4.38-13.763 10.585L84.272 151c-1.691 6.204 1.565 10.585 7.994 10.585h54.018l13.596-49.886h-37.703l7.641 10.974-4.802 17.619h-10.755l11.572-42.464h33.006l.004-.007h4.322l2.947-10.817.003-.005L169 76.414h-53.524z" fill="#FEFEFE"/><path fill-rule="evenodd" clip-rule="evenodd" d="M39.342 63.634h17.07L42.23 115.99c.125-.078.26-.145.37-.238.954-.811 1.937-1.641 2.95-2.488.529-.438.836-1.026.864-1.63l.246-.116c1.321-.616 2.386-1.132 3.087-1.698l.7-.566c.573-.462 1.023-.827 2.031-1.623.745-.59 1.474-1.166 2.215-1.745l.08-.063c.55-.426.884-1.017.929-1.635.044-.615-.209-1.205-.696-1.63a.302.302 0 0 0-.031-.026c1.384-.837 3.978-2.179 6.058-2.85 1.355-.436 2.792-1.104 4.022-1.7.16-.078.311-.168.452-.27a439.308 439.308 0 0 1 8.496-6.056c.5-.345.818-.822.96-1.33l.167-.175c.51-.307 1-.6 1.463-.877.505-.3 1.208-.71 2.058-1.212v-.001c.74-.434 1.824-1.005 1.824-1.005s.633-.473.932-.47c.3.005.917-.571 1.03-.77a.503.503 0 0 1 .115-.133l.42-.267a96.027 96.027 0 0 0 5.492-3.757l.003-.002c.399-.291 1.803-1.173 1.803-1.173l1.6-1.516.002-.001a44.334 44.334 0 0 0 2.913-2.699l.934-.858-3.582 2.713c-1.304.902-3.02 2.069-4.978 3.365-.568.275-1.62.787-1.832.912-.293.172-1.489.65-1.654.764-.167.113-.647.632-.647.632l-3.268 1.51-.756.28 4.484-16.553-5.446-5.392h6.907l.002-.006h18.242l3.111-11.484.254-.935 2.787-10.288H47.28v-.001h-9.718l6.255 6.191-4.475 16.517zM75.99 96.837l-.047.032.081-.303-4.327 2.253-.804-.037a3.106 3.106 0 0 0-1.784.469 805.406 805.406 0 0 0-5.726 3.638 2.74 2.74 0 0 0-.596.512c-.57.662-1.43 1.419-1.682 1.636a2.542 2.542 0 0 0-.532.638l-.313.539-1.846 1.024-1.921.397c-.46.096-.89.292-1.249.571l-4.78 3.738-1.142.49-1.616 1.044-.713.301a2.986 2.986 0 0 0-.522.284 521.066 521.066 0 0 0-4.502 3.117l-.176.113s-3.763 2.102-3.956 2.197c-.192.096-1.953 1.16-1.953 1.16l-1.835 1.199-1.38.807a215.7 215.7 0 0 0-2.316 1.25l-1.565.724-2.185 1.267-1.225.959c-1.193.797-2.017 1.449-2.95 2.195l-2.098 1.369-2.19 1.694-1.009.879-1.597.806-5.046 3.166s2.136-1.167 3.369-1.853c1.231-.685 4.166-1.863 4.166-1.863l.795-.718.002-.001c.864-.485 1.865-1.058 2.973-1.693.636-.365-.743.918-.743.918s2.17-1.484 2.89-1.951c.72-.468 2.575-1.271 2.575-1.271l1.845-1.512c.422-.169.339-.091.598-.244.261-.153.45-.222.45-.222l.442-.404 2.801-1.643c-.306.37-.602.744-.602.744l2.45-1.829 5.193-3.047h.002c.179-.107.998-.586 1.594-.921l-3.191 11.782h28.536l9.308-34.362.05-.038z" fill="#F79820"/></svg>