<svg width="200" height="200" viewBox="0 0 200 200" fill="none" xmlns="http://www.w3.org/2000/svg">
<g clip-path="url(#clip0)">
<path d="M100 200C44.8 200 0 155.2 0 100C0 44.8 44.8 0 100 0C155.2 0 200 44.8 200 100C200 155.2 155.2 200 100 200Z" fill="white"/>
<path d="M100 0C88.4 0 76.4 2.1 65.7 6L70.2 18.2C79.7 14.8 89.7 13 100 13V0ZM35.6 23.5C26.7 31 19.1 40.1 13.3 50.2L24.6 56.7C29.7 47.9 36.2 40 44 33.4L35.6 23.5ZM1.4 83C0.5 88.6 0 94.3 0 100C0 106 0.5 112 1.6 117.8L14.4 115.5C12.6 105.6 12.6 95.1 14.3 85.2L1.4 83ZM24.9 143.9L13.7 150.5C19.6 160.6 27.3 169.6 36.3 177L44.6 167C36.7 160.5 30 152.7 24.9 143.9ZM70.8 182L66.4 194.2C77.4 198.1 89.1 200.1 100.7 200L100.6 187C90.5 187.1 80.4 185.4 70.8 182ZM156.6 166.1C148.8 172.8 140.1 178 130.5 181.5L135.1 193.7C146.1 189.6 156.2 183.6 165.1 176L156.6 166.1ZM185.9 114.1C184.3 124.2 180.9 133.8 175.9 142.7L187.2 149.1C192.8 139.1 196.8 128 198.7 116.2L185.9 114.1ZM185.9 48.8L174.7 55.5C179.9 64.3 183.6 73.8 185.4 83.8L198.2 81.4C196.1 69.7 191.9 58.9 185.9 48.8ZM132.7 5.5L128.4 17.8C138 21.1 146.9 26.1 154.8 32.6L163 22.5C154.1 15.1 143.8 9.3 132.7 5.5Z" fill="#3EA83B"/>
<path d="M100 188C51.4483 188 12 148.552 12 100C12 51.4483 51.4483 12 100 12C148.552 12 188 51.4483 188 100C188 148.552 148.552 188 100 188Z" fill="url(#paint0_radial)"/>
<path d="M52.2618 117H62.2068V99.385H73.1918V90.74H62.2068V80.08H74.1018V70.98H52.2618V117ZM104.653 80.08L95.9428 81.12C93.7978 80.34 92.4328 80.08 90.7428 80.08C82.3578 80.08 76.9628 87.685 76.9628 99.515C76.9628 110.5 81.7078 118.04 88.6628 118.04C91.0678 118.04 93.0178 117.26 95.5528 115.245L96.0728 118.04L105.108 117C104.783 113.88 104.653 111.02 104.653 105.17V80.08ZM95.0978 107.055C93.3428 108.615 92.1728 109.2 90.7428 109.2C87.6878 109.2 86.0628 105.82 86.0628 99.45C86.0628 92.43 87.9478 88.855 91.5228 88.855C92.7578 88.855 93.6028 89.18 95.0978 90.155V107.055ZM111.085 115.18C114.075 117.325 116.87 118.235 120.185 118.235C126.555 118.235 130.975 113.425 130.975 106.6C130.975 102.115 129.285 99.32 124.93 96.525L122.655 95.095C120.38 93.6 119.925 93.015 119.925 91.52C119.925 89.7 121.16 88.465 122.98 88.465C124.475 88.465 125.905 89.05 128.245 90.61V81.965C125.32 80.405 123.695 79.885 121.42 79.885C115.245 79.885 110.825 84.63 110.825 91.195C110.825 95.355 112.32 97.89 116.22 100.36L119.08 102.18C121.225 103.545 121.875 104.455 121.875 106.21C121.875 108.29 120.575 109.655 118.495 109.655C116.415 109.655 114.205 108.55 110.63 105.755L111.085 115.18ZM151.252 108.095C150.017 108.225 149.497 108.29 148.652 108.29C146.247 108.29 145.272 107.185 145.272 104.52V89.7H150.927V81.12H145.272V69.94L136.172 70.98V81.12H133.117V89.7H136.172V104C136.172 108.095 136.627 110.435 137.797 112.385C139.552 115.375 143.127 117.26 147.027 117.26C148.132 117.26 148.782 117.195 150.472 117L151.252 108.095Z" fill="white"/>
</g>
<defs>
<radialGradient id="paint0_radial" cx="0" cy="0" r="1" gradientUnits="userSpaceOnUse" gradientTransform="translate(12 12) rotate(45) scale(248.902)">
<stop stop-color="#59CF56"/>
<stop offset="1" stop-color="#369E34"/>
</radialGradient>
<clipPath id="clip0">
<rect width="200" height="200" fill="white"/>
</clipPath>
</defs>
</svg>
