<svg width="200" height="200" fill="none" xmlns="http://www.w3.org/2000/svg"><g clip-path="url(#clip0)"><path d="M200 0H0v200h200V0z" fill="#1B1B1B"/><path d="M130.514 66.874c8.086-7.867 17.158-14.33 26.936-19.95 13.468-7.713 27.635-13.222 42.55-16.266v-4.213c-.753.125-1.507.255-2.263.39-30.556 5.385-57.116 19.106-79.445 40.601 3.572.281 7.004.328 10.436.234.611 0 1.316-.374 1.786-.796zm-103.467-8.52c7.192 0 14.15-.374 21.06.14 5.265.375 9.26 5.105 9.73 10.303.283 3.466.33 6.931-1.41 10.162-2.303 4.215-6.205 5.667-10.67 5.948-2.539.14-5.125.046-8.04.046 0 3.887-.093 7.493.048 11.1.094 1.92-.564 2.434-2.398 2.294-2.162-.14-4.371-.094-6.58 0-1.13.047-1.74-.234-1.74-1.546 0-12.831-.047-25.615 0-38.447-.047-.047.047-.093 0 0zM37.67 75.962c3.29.047 6.581.609 8.556-2.2.799-1.172.846-3.7.094-4.918-1.928-3.231-5.453-1.92-8.462-2.2-.094.514-.188.795-.188 1.076v8.242z" fill="#fff"/><path d="M95.117 55.684h9.637v26.74c2.538-2.951 4.842-5.199 6.628-7.821 2.209-3.325 4.842-4.824 8.885-4.262 2.209.328 4.466.047 7.239.047-4.419 4.683-8.462 8.991-12.645 13.393 4.512 4.777 8.931 9.413 13.773 14.47-4.56 0-8.555.047-12.551-.046-.611 0-1.316-.796-1.787-1.358-3.055-3.419-6.017-6.884-9.401-10.818v12.035h-9.731c-.047-14.095-.047-28.144-.047-42.38zm-20.355 43.69c-6.958.608-15.654-5.199-15.842-14.892-.142-8.383 6.91-14.939 15.936-14.939 9.26 0 15.7 6.228 15.842 14.939.188 8.757-8.32 15.641-15.936 14.891zm-5.688-14.892c0 4.261 1.974 6.509 5.735 6.509 3.76 0 6.017-2.435 6.017-6.603 0-4.027-2.445-6.603-6.111-6.556-3.62.047-5.641 2.388-5.641 6.65z" fill="#fff"/><path d="M158.86 86.31h-21.342c-.376 2.623.705 4.964 2.68 5.995 2.444 1.31 6.534 1.123 8.273-.937 1.364-1.592 2.445-1.405 3.949-.656 1.504.75 3.103 1.312 5.077 2.155-.94 1.217-1.551 2.341-2.491 3.184-6.206 5.573-19.321 4.308-24.351-2.248-3.62-4.776-3.949-10.068-1.692-15.36 2.303-5.432 6.769-8.382 12.692-8.804 9.308-.702 14.808 3.184 16.876 11.989.329 1.358.235 2.856.329 4.682zm-21.06-5.76h11.048c-.941-3.7-2.962-5.245-6.3-4.964-2.773.235-4.56 2.108-4.748 4.964zm33.941 17.652h-9.543v-27.63h9.214v5.292c4.654-5.76 6.44-6.603 12.458-5.667-.283 2.81-.518 5.62-.8 8.57-.94-.14-1.598-.28-2.256-.328-5.547-.468-8.885 2.576-8.932 8.149 0 3.653 0 7.305-.047 10.958.047.094 0 .234-.094.656z" fill="#fff"/><path d="M128.682 156.792c-1.646-.468-3.291-.843-4.889-1.358-4.043-1.264-5.924-3.419-6.817-7.961.799-.094 1.599-.281 2.398-.328 2.115-.047 4.231-.094 6.346.047.752.047 1.739.328 2.209.89 2.116 2.482 4.701 2.06 7.287 1.311 2.162-.656 2.35-2.576 2.444-4.496.047-1.311.235-2.669.376-3.98-.329-.188-.611-.375-.94-.562-.376.655-.611 1.452-1.175 1.92-5.218 4.355-14.808 3.231-18.146-3.372-3.102-6.135-3.149-12.222.283-18.123 3.807-6.556 13.632-7.54 18.991-2.107.235.234.282.702.423 1.077.188-.141.376-.281.611-.422.047-.889.094-1.779.141-2.997h9.402c.047.89.141 1.92.141 2.997 0 8.289 0 16.625-.047 24.914 0 4.449-1.222 8.382-5.547 10.443-2.256 1.077-4.889 1.451-7.333 2.154-2.069-.047-4.137-.047-6.158-.047zm9.919-26.459c.047-4.495-2.116-7.024-6.112-7.071-4.042-.047-7.004 2.669-7.004 6.463 0 4.261 2.444 6.883 6.252 7.164 4.043.235 7.381-2.809 6.864-6.556zm-74.323-26.789c-4.842 6.275-9.26 12.129-13.82 17.889-1.082 1.358-1.223 2.248 0 3.747 4.795 5.806 9.449 11.754 14.102 17.607.282.328.47.703.988 1.452-4.748 0-9.073.094-13.445-.093-.752-.047-1.598-1.078-2.163-1.827-3.807-5.104-7.521-10.256-11.752-15.969v17.749H27v-40.508h11.141v17.187c.141.046.282.093.47.14 3.009-4.261 6.3-8.382 8.98-12.831 2.161-3.606 4.606-5.339 8.93-4.636 2.351.374 4.89.093 7.757.093zm48.373 40.601h-10.248v-3.231-12.317c0-3.559-1.363-5.525-3.995-5.806-2.774-.281-5.077 1.404-5.83 4.495-.329 1.405-.423 2.904-.47 4.355-.047 4.075 0 8.196 0 12.598-3.196 0-6.11.046-9.072-.047-.424 0-1.129-.843-1.129-1.312-.094-8.195-.047-16.437-.047-24.632v-2.014h9.355v4.964c.987-1.077 1.599-1.685 2.21-2.341 3.807-4.074 10.624-4.917 15.372-1.92 3.008 1.873 3.76 4.964 3.854 8.008.188 6.275 0 12.597 0 19.2zM67.757 144v-27.816h10.107V144H67.757zm5.172-40.458c3.103.094 5.124 2.061 5.03 4.917-.047 2.763-2.632 5.105-5.406 4.964-2.68-.14-4.936-2.529-4.795-5.057.141-2.904 2.257-4.917 5.171-4.824z" fill="#D12E26"/></g><defs><clipPath id="clip0"><path fill="#fff" d="M0 0H200V200H0z"/></clipPath></defs></svg>