<svg width="18" height="18" fill="none" xmlns="http://www.w3.org/2000/svg"><path d="M9 .009c-3.686 0-7.187-.328-8.524 3.1C-.076 4.527.004 6.366.004 9c0 2.31-.074 4.483.472 5.888 1.334 3.43 4.863 3.102 8.522 3.102 3.53 0 7.17.367 8.523-3.102.554-1.43.472-3.243.472-5.888 0-3.512.194-5.78-1.51-7.482C14.757-.207 12.423.01 8.996.01H9zm-.806 1.62c7.69-.012 8.668-.867 8.128 11-.192 4.196-3.39 3.736-7.32 3.736-7.168 0-7.375-.205-7.375-7.37 0-7.249.569-7.362 6.567-7.368v.002zm5.608 1.492a1.079 1.079 0 100 2.158 1.079 1.079 0 000-2.158zM9 4.382a4.617 4.617 0 100 9.233 4.617 4.617 0 100-9.233zm0 1.62c3.965 0 3.97 5.993 0 5.993-3.963 0-3.97-5.993 0-5.993z" fill="#fff"/></svg>