<svg width="200" height="200" viewBox="0 0 200 200" fill="none" xmlns="http://www.w3.org/2000/svg">
<g clip-path="url(#clip0)">
<path d="M100 200C44.8 200 0 155.2 0 100C0 44.8 44.8 0 100 0C155.2 0 200 44.8 200 100C200 155.2 155.2 200 100 200Z" fill="white"/>
<path d="M100 0C88.4 0 76.4 2.1 65.7 6L70.2 18.2C79.7 14.8 89.7 13 100 13V0ZM35.6 23.5C26.7 31 19.1 40.1 13.3 50.2L24.6 56.7C29.7 47.9 36.2 40 44 33.4L35.6 23.5ZM1.4 83C0.5 88.6 0 94.3 0 100C0 106 0.5 112 1.6 117.8L14.4 115.5C12.6 105.6 12.6 95.1 14.3 85.2L1.4 83ZM24.9 143.9L13.7 150.5C19.6 160.6 27.3 169.6 36.3 177L44.6 167C36.7 160.5 30 152.7 24.9 143.9ZM70.8 182L66.4 194.2C77.4 198.1 89.1 200.1 100.7 200L100.6 187C90.5 187.1 80.4 185.4 70.8 182ZM156.6 166.1C148.8 172.8 140.1 178 130.5 181.5L135.1 193.7C146.1 189.6 156.2 183.6 165.1 176L156.6 166.1ZM185.9 114.1C184.3 124.2 180.9 133.8 175.9 142.7L187.2 149.1C192.8 139.1 196.8 128 198.7 116.2L185.9 114.1ZM185.9 48.8L174.7 55.5C179.9 64.3 183.6 73.8 185.4 83.8L198.2 81.4C196.1 69.7 191.9 58.9 185.9 48.8ZM132.7 5.5L128.4 17.8C138 21.1 146.9 26.1 154.8 32.6L163 22.5C154.1 15.1 143.8 9.3 132.7 5.5Z" fill="#3D56AF"/>
<path d="M100 188C51.4483 188 12 148.552 12 100C12 51.4483 51.4483 12 100 12C148.552 12 188 51.4483 188 100C188 148.552 148.552 188 100 188Z" fill="url(#paint0_radial)"/>
<path d="M31.4877 117H41.0427L43.6427 99.645L51.6377 118.755L59.6327 99.645L62.8827 117H72.4377L62.4277 69.355L51.9627 97.045L41.4977 69.355L31.4877 117ZM85.4072 117V80.08L76.3072 81.12V117H85.4072ZM80.8572 66.365C77.9972 66.365 75.7222 68.64 75.7222 71.5C75.7222 74.295 78.0622 76.635 80.8572 76.635C83.7172 76.635 85.9922 74.36 85.9922 71.435C85.9922 68.575 83.7172 66.365 80.8572 66.365ZM113.886 104.13C110.571 107.9 108.426 109.265 105.826 109.265C101.796 109.265 99.4564 105.625 99.4564 99.255C99.4564 92.625 101.991 88.855 106.411 88.855C108.881 88.855 110.441 89.7 112.846 92.365L113.886 83.2C111.091 80.925 108.816 80.08 105.696 80.08C96.9864 80.08 90.3564 88.53 90.3564 99.71C90.3564 110.24 96.4664 118.04 104.656 118.04C107.906 118.04 110.311 117.065 113.041 114.66L113.886 104.13ZM127.868 117V100.62C127.868 93.99 130.533 90.155 135.083 90.155C135.278 90.155 135.668 90.155 136.188 90.22L136.903 80.08H136.318C133.003 80.08 130.013 82.355 128.063 86.45V80.08L118.963 81.12V117H127.868ZM152.779 80.08C144.459 80.08 138.154 88.27 138.154 99.125C138.154 109.85 144.459 118.04 152.714 118.04C161.034 118.04 167.404 109.785 167.404 99.06C167.404 88.27 161.099 80.08 152.779 80.08ZM152.714 88.855C156.224 88.855 158.239 92.625 158.239 99.06C158.239 105.365 156.159 109.2 152.779 109.2C149.269 109.2 147.254 105.43 147.254 98.865C147.254 92.69 149.334 88.855 152.714 88.855Z" fill="white"/>
</g>
<defs>
<radialGradient id="paint0_radial" cx="0" cy="0" r="1" gradientUnits="userSpaceOnUse" gradientTransform="translate(12 12) rotate(45) scale(248.902)">
<stop stop-color="#7E97F0"/>
<stop offset="1" stop-color="#2D469F"/>
</radialGradient>
<clipPath id="clip0">
<rect width="200" height="200" fill="white"/>
</clipPath>
</defs>
</svg>
