<svg width="200" height="200" fill="none" xmlns="http://www.w3.org/2000/svg"><path d="M200 0H0v200h200V0z" fill="#7A1249"/><path d="M180 99.9C178.2 205 21.8 205 20 99.9c1.8-105.2 158.2-105.2 160 0z" fill="#A42066"/><path opacity=".2" d="M125.7 48.5c-6.1 1.8-8 10.5-8.2 16.1-1.3 3-3.3 13-3.7 19.9-3 4.4-4.8 16.1-5.2 19.3-.6.4-1 1-1.6 1.6-2.7-17.5-7.3-41.6-11.5-55.3-2-4.8-9.5-2.8-13 .7-2.2 3-3.9 8.3.6 18.7-.4 3.2 1 7.4 4.6 17.9-.2 5.8 1.3 14.3 2.6 19.1-11.5-6.4-16 2.4-15.1 11.1-14.5-1.8-10.6 21.7-7.2 27.7 2.2 13.5 7.8 19.7 12.8 22.3v12.1h40.6v-16.1c9.4-11.9 9.1-46 5-57.4 1.2-4.3 9.4-48.1 9.2-51.3.9-6-6.6-7.4-9.9-6.4z" fill="#010101"/><path d="M80.1 147.402c9.9.2 2.9-11.7-2.4-4.1l-1.1-.6c.2-.5.8-1.6 2.5-3.2-5.3-2-7.2-11.1-1.5-14.5-2.9-8.2-9.1-4-10 2.8.3 5.5 6 17.7 12.5 19.6z" fill="#fff"/><path d="M132.5 54.9c-.5-5.6-8.7-3.9-10.3.7-.5.7-.7 1.8-1.1 2.7-.5 1.4-.5 2.9-.6 4.4 1.8-.5 3.9-.7 5.7-.4v1c-1.4.4-2.8.7-4.1 1.2-.3.2-.6.3-.9.5 0 0-.1 0-.1.1-3.7 3.3-3.4 12.9-4.4 18.2 1.8-1 4.3-1.4 6.3-1.4V83c-.5 0-1.3.1-1.8.3-.4.1-.8.1-1 .3-.6.2-1.2.7-1.8.9-.3.3-.9.5-1.1.8 0 0-.1 0-.1.1-.2.1-.6.4-.7.6-3.3 3.3-4.4 13-5.2 18.8-3.5 2.8-7.3 7.4-8.3 8.5-.2.6-1.2-.4-1.5-.4-.1-.2 1.9-3.6 2.7-4.6-2.5-12.4-5-33.1-8.6-44.8-.2 0-2.3-9.3-3.3-13-1.1-.4-4.8-.1-6.1.9-.1 0-.1.1-.2.1-5 3.4-3 10.6-1.1 15.4 1.8-1.4 3.6-2.3 6.3-2.5v1.1c-.6 0-1.3.3-1.8.5-.1 0-.1 0-.2.1-.1 0-.1.1-.2.1-.1.1-.3.1-.4.2-.2.1-.3.2-.4.2-.7.7-1.4 1.4-1.9 2.2-.3.3-.5.8-.7 1.1-.2 2.4 1.2 6.8 4.2 15.4 1.9-1 4-1.7 6.1-2.1l.4 1.3c-1.5.3-2.8 1.3-4.2 2-.6.4-1.4 1.1-1.9 1.6.2 5.7 1.2 11.6 2.4 17.1.5 2.4 1.2 5.4 1.9 7.7-3.8-2.4-8.1-6.3-12.9-5.6-6.3 2.1-3.8 11.2-1.7 16 .7-.2 1.5-.3 2.2-.5 3.5-.7 7.1-.6 10.6.2-1.6-3.8-3.1-7.5-5-11h2.6c2.1 2.9 4.8 7.6 6 11.3 12.1.8 21.7 4 26.9 8.8l-.8 1.1c-3.9-3.7-19-6.6-27.3-7-6.4-1.9-21.9-2.1-17.1 8.1l5.8.4c-.6-3 .8-5.8 2.8-8.1h1.6c-2.5 2.6-2.1 7.1-.5 9.7l-6.8.4c3.4 1.1 9.5 3.3 13.7 2 5.2 2.6 10.2 6 14.8 9.5l-.8 1.6c-3.6-1.7-6.8-3.5-10.2-5.6-6.5 9.6 1.9 18.7 7.7 20.1l-.6 6.1h-1.8l-.4-4.2c-6.9-2.1-14.3-13.9-7.4-23.5l-1.6-.8c-1.4.6-4.4.2-6.1-.2.2 12.9-16.1 5.6-18.8-2.3.9 2.2 1.9 6.1 2.4 8.2 1.6 6.8 5.3 13.7 11.3 17 2.4 1.5 5.3 2.2 8 2.5h.9l.2 1.6c-2.6-.1-5.6-.5-8.2-.7l-1 11.4h36.3l-.8-13.3c-1.4 1.4-3.1 2.3-5.5 2.5v-1.4c.3-.1 1.4-.8 1.7-.8 1.4-.8 2.4-1.8 3.4-3v-.1l.9-1.2s0-.1.1-.1c2.9-4.3 4.1-9.4 5.2-14.4.5-2.1.6-4.4 1-6.4.6-5.4.7-11.3.6-16.8 0-6.2-.3-12.7-2.4-18.4 2.5-14.4 7.5-36 9.1-51.3-.1.5-.1.3-.1.2z" fill="#fff"/></svg>