<svg width="200" height="200" viewBox="0 0 200 200" fill="none" xmlns="http://www.w3.org/2000/svg">
<g clip-path="url(#clip0)">
<path d="M100 200C44.8 200 0 155.2 0 100C0 44.8 44.8 0 100 0C155.2 0 200 44.8 200 100C200 155.2 155.2 200 100 200Z" fill="white"/>
<path d="M100 0C88.4 0 76.4 2.1 65.7 6L70.2 18.2C79.7 14.8 89.7 13 100 13V0ZM35.6 23.5C26.7 31 19.1 40.1 13.3 50.2L24.6 56.7C29.7 47.9 36.2 40 44 33.4L35.6 23.5ZM1.4 83C0.5 88.6 0 94.3 0 100C0 106 0.5 112 1.6 117.8L14.4 115.5C12.6 105.6 12.6 95.1 14.3 85.2L1.4 83ZM24.9 143.9L13.7 150.5C19.6 160.6 27.3 169.6 36.3 177L44.6 167C36.7 160.5 30 152.7 24.9 143.9ZM70.8 182L66.4 194.2C77.4 198.1 89.1 200.1 100.7 200L100.6 187C90.5 187.1 80.4 185.4 70.8 182ZM156.6 166.1C148.8 172.8 140.1 178 130.5 181.5L135.1 193.7C146.1 189.6 156.2 183.6 165.1 176L156.6 166.1ZM185.9 114.1C184.3 124.2 180.9 133.8 175.9 142.7L187.2 149.1C192.8 139.1 196.8 128 198.7 116.2L185.9 114.1ZM185.9 48.8L174.7 55.5C179.9 64.3 183.6 73.8 185.4 83.8L198.2 81.4C196.1 69.7 191.9 58.9 185.9 48.8ZM132.7 5.5L128.4 17.8C138 21.1 146.9 26.1 154.8 32.6L163 22.5C154.1 15.1 143.8 9.3 132.7 5.5Z" fill="#A26247"/>
<path d="M100 188C51.4483 188 12 148.552 12 100C12 51.4483 51.4483 12 100 12C148.552 12 188 51.4483 188 100C188 148.552 148.552 188 100 188Z" fill="url(#paint0_radial)"/>
<path d="M98.816 84C100.376 81.92 103.236 77.825 105.966 73.535C111.556 64.695 113.116 60.47 113.116 54.165C113.116 44.285 107.461 36.745 99.986 36.745C92.511 36.745 86.791 43.895 86.791 53.385C86.791 61.9 92.056 68.79 98.556 68.79C98.816 68.79 99.141 68.79 99.596 68.725C96.801 73.86 92.836 79.71 89.196 84H98.816ZM99.986 45.65C102.261 45.65 103.561 48.38 103.561 53.32C103.561 58 102.261 60.665 99.986 60.665C97.646 60.665 96.346 58 96.346 53.19C96.346 48.38 97.646 45.65 99.986 45.65ZM44.1196 144H53.6746L56.2746 126.645L64.2696 145.755L72.2646 126.645L75.5146 144H85.0696L75.0596 96.355L64.5946 124.045L54.1296 96.355L44.1196 144ZM122.089 144L103.694 96.355L84.9091 144H94.8541L97.2591 136.85H109.154L111.624 144H122.089ZM107.009 129.245H99.6641L103.304 118.195L107.009 129.245ZM131.043 144L138.648 128.985L146.253 144H156.653L143.718 119.43L155.353 97.98H145.343L139.103 110.525L132.798 97.98H122.398L133.903 119.95L121.098 144H131.043Z" fill="white"/>
</g>
<defs>
<radialGradient id="paint0_radial" cx="0" cy="0" r="1" gradientUnits="userSpaceOnUse" gradientTransform="translate(12 12) rotate(45) scale(248.902)">
<stop stop-color="#C68367"/>
<stop offset="1" stop-color="#96573D"/>
</radialGradient>
<clipPath id="clip0">
<rect width="200" height="200" fill="white"/>
</clipPath>
</defs>
</svg>
