<svg width="16" height="14" fill="none" xmlns="http://www.w3.org/2000/svg"><path d="M6.372 11.69h3.255a.16.16 0 00.162-.157v-.623H6.21v.623a.16.16 0 00.161.157zM5.66 9.94a.513.513 0 01.052-.003h4.574c.018 0 .035 0 .053.002h5.084V.53A.535.535 0 0014.882 0H1.117c-.3 0-.542.237-.542.529v9.41H5.66zm1.658-8.814H8.68c.275 0 .498.218.498.486a.492.492 0 01-.498.486H7.318a.492.492 0 01-.497-.486c0-.268.222-.486.497-.486zM3.003 7.935l2.404-2.57a.507.507 0 01.651-.072l2.728 1.848 2.229-1.911h-.388a.492.492 0 01-.497-.486c0-.269.222-.486.497-.486h1.709c.27-.005.536.245.495.536l-.16 1.505a.494.494 0 01-.547.433.49.49 0 01-.444-.533l.03-.27-2.56 2.193a.507.507 0 01-.612.034l-2.69-1.821-2.11 2.255c-.482.466-1.144-.192-.735-.655z" fill="#C6C7CA"/><path d="M10.785 10.91v.623c0 .624-.518 1.13-1.157 1.13H6.372c-.639 0-1.157-.506-1.157-1.13v-.623H.272a.269.269 0 00-.272.266v1.452C0 13.386.63 14 1.405 14h13.19C15.37 14 16 13.386 16 12.628v-1.452a.269.269 0 00-.272-.266h-4.943z" fill="#C6C7CA"/></svg>