<svg width="200" height="200" fill="none" xmlns="http://www.w3.org/2000/svg"><path d="M200 0H0v200h200V0z" fill="#222"/><path d="M66.113 121.909c-.97-12.087-1.941-24.051-2.912-36.086 4.8-.6 9.511-1.182 14.4-1.8-.39 7.43-.76 14.77-1.148 22.128.053.018.106.053.159.071 3.476-6.917 6.811-13.923 10.217-20.875.3-.618.617-.847 1.323-.847 4.094.035 8.1.017 12.211.017v21.405c.088.017.177.053.265.07 2.911-6.952 5.77-13.922 8.681-20.874.106-.265.53-.565.795-.583 4.587-.035 9.175-.017 13.904-.017-6.846 12.334-14.081 24.439-21.051 36.703-.282.494-.6.67-1.182.67-4.13-.035-8.188-.017-12.3-.017V100.61c-.07-.017-.14-.035-.229-.053-3.829 6.882-6.511 14.841-10.799 21.281-4.076.071-8.152.071-12.334.071zm-50.115-1.957c4.059-11.875 6.07-24.263 9.264-36.367 1.147-4.535 1.747-8.876 2.153-13.623 4.835-.582 9.828-1.2 14.981-1.818-.035 5.982-1.323 11.611-2.947 17.329 4.535-2.277 9.6-2.418 14.24-.706 13.376 6.229 3.23 30.086-7.34 35.185-9.194 5.047-20.787 2.947-30.351 0zm16.887-7.799c3.07 1.87 7.305.671 8.558-2.7 1.782-3.988 3-8.24 3.07-12.634.071-1.977-.988-2.912-2.982-3.07-1.8-.089-3.9.547-4.764 2.205-1.288 5.365-2.576 10.729-3.882 16.199zm114.132-26.665c4.235-.529 8.452-1.04 12.776-1.57.229 1.165.441 2.276.635 3.247 7.411-3.847 22.516-6.247 23.433 5.452-.723 9.723-4.464 19.022-6.44 28.551-.088.371-.088.741-.653.741-4.606-.017-9.229-.017-13.976-.017 1.889-7.87 3.83-15.617 5.682-23.47 1.059-2.981-1.429-4.975-4.235-3.634-1.5.547-2.823 1.482-3.599 2.84-2.506 7.888-3.953 16.217-6.212 24.228h-14.434c2.188-9.123 4.429-18.14 6.494-27.262.741-3 .829-6.018.529-9.106zm-5.133-1.34c-3.018 12.388-6.053 24.669-9.088 37.056-.106.442-.229.706-.776.706-4.606-.088-9.246.106-13.852-.088 2.823-11.752 5.805-23.469 8.646-35.22.089-.76.459-1.007 1.183-1.06 4.57-.423 9.122-.9 13.887-1.394z" fill="#fff"/><path d="M136.643 81.219c4.288 0 7.764-3.184 7.764-7.112 0-3.927-3.476-7.11-7.764-7.11s-7.764 3.183-7.764 7.11c0 3.928 3.476 7.112 7.764 7.112z" fill="#FFCA00"/></svg>