<svg width="200" height="200" viewBox="0 0 200 200" fill="none" xmlns="http://www.w3.org/2000/svg">
<g clip-path="url(#clip0)">
<path d="M100 200C44.8 200 0 155.2 0 100C0 44.8 44.8 0 100 0C155.2 0 200 44.8 200 100C200 155.2 155.2 200 100 200Z" fill="white"/>
<path d="M100 0C88.4 0 76.4 2.1 65.7 6L70.2 18.2C79.7 14.8 89.7 13 100 13V0ZM35.6 23.5C26.7 31 19.1 40.1 13.3 50.2L24.6 56.7C29.7 47.9 36.2 40 44 33.4L35.6 23.5ZM1.4 83C0.5 88.6 0 94.3 0 100C0 106 0.5 112 1.6 117.8L14.4 115.5C12.6 105.6 12.6 95.1 14.3 85.2L1.4 83ZM24.9 143.9L13.7 150.5C19.6 160.6 27.3 169.6 36.3 177L44.6 167C36.7 160.5 30 152.7 24.9 143.9ZM70.8 182L66.4 194.2C77.4 198.1 89.1 200.1 100.7 200L100.6 187C90.5 187.1 80.4 185.4 70.8 182ZM156.6 166.1C148.8 172.8 140.1 178 130.5 181.5L135.1 193.7C146.1 189.6 156.2 183.6 165.1 176L156.6 166.1ZM185.9 114.1C184.3 124.2 180.9 133.8 175.9 142.7L187.2 149.1C192.8 139.1 196.8 128 198.7 116.2L185.9 114.1ZM185.9 48.8L174.7 55.5C179.9 64.3 183.6 73.8 185.4 83.8L198.2 81.4C196.1 69.7 191.9 58.9 185.9 48.8ZM132.7 5.5L128.4 17.8C138 21.1 146.9 26.1 154.8 32.6L163 22.5C154.1 15.1 143.8 9.3 132.7 5.5Z" fill="#D85E08"/>
<path d="M100 188C51.4483 188 12 148.552 12 100C12 51.4483 51.4483 12 100 12C148.552 12 188 51.4483 188 100C188 148.552 148.552 188 100 188Z" fill="url(#paint0_radial)"/>
<path d="M44.6446 117H54.5896V97.5H64.2746V117H74.2196V70.98H64.2746V88.4H54.5896V70.98H44.6446V117ZM90.6123 117V80.08L81.5123 81.12V117H90.6123ZM86.0623 66.365C83.2023 66.365 80.9273 68.64 80.9273 71.5C80.9273 74.295 83.2673 76.635 86.0623 76.635C88.9223 76.635 91.1973 74.36 91.1973 71.435C91.1973 68.575 88.9223 66.365 86.0623 66.365ZM114.151 118.43C114.151 124.28 112.916 125.905 108.561 125.905C104.986 125.905 102.061 124.8 97.9015 121.81L97.9665 131.17C102.256 133.445 105.701 134.355 109.666 134.355C113.956 134.355 117.791 132.535 120.261 129.35C122.471 126.425 123.251 122.915 123.251 115.83V80.08L114.541 81.12C112.396 80.34 111.031 80.08 109.341 80.08C100.956 80.08 95.5615 87.685 95.5615 99.515C95.5615 110.5 100.306 118.04 107.261 118.04C109.666 118.04 111.616 117.26 114.151 115.245V118.43ZM113.696 107.055C111.941 108.615 110.771 109.2 109.341 109.2C106.286 109.2 104.661 105.82 104.661 99.45C104.661 92.43 106.546 88.855 110.121 88.855C111.356 88.855 112.201 89.18 113.696 90.155V107.055ZM139.303 117V99.645C139.303 95.615 139.563 93.08 140.148 91.91C140.993 90.09 142.618 88.855 144.243 88.855C146.388 88.855 147.103 90.285 147.103 94.64V117H156.203V92.69C156.203 83.98 153.798 80.08 148.338 80.08C144.958 80.08 142.683 81.38 139.303 85.15V69.94L130.203 70.98V117H139.303Z" fill="white"/>
</g>
<defs>
<radialGradient id="paint0_radial" cx="0" cy="0" r="1" gradientUnits="userSpaceOnUse" gradientTransform="translate(12 12) rotate(45) scale(248.902)">
<stop stop-color="#E67E22"/>
<stop offset="1" stop-color="#D35400"/>
</radialGradient>
<clipPath id="clip0">
<rect width="200" height="200" fill="white"/>
</clipPath>
</defs>
</svg>
