<svg width="40" height="40" fill="none" xmlns="http://www.w3.org/2000/svg"><rect width="40" height="40" rx="4" fill="url(#linux_radial)"/><path d="M20.191 12.162a1.257 1.257 0 0 1-.006-.127c0-.622.434-1.128.966-1.128.546 0 .973.496.973 1.128 0 .143-.023.281-.066.409.16-.239.252-.539.252-.854 0-.756-.514-1.371-1.146-1.371-.633 0-1.147.615-1.147 1.371 0 .186.03.368.092.543l.082.03zm-2.854-1.19a.687.687 0 0 1 .098-.008c.424 0 .804.391.904.93.01.06.016.118.019.176.027-.013.055-.025.084-.037a1.78 1.78 0 0 0 .02-.269c0-.697-.393-1.287-.858-1.287-.396 0-.73.41-.826.965.109-.253.307-.431.559-.47zm7.986 14.067c.107-.425.319-1.51.118-2.821-.254-1.658-2.737-6.821-3.164-7.398-.25.033-.912.393-1.45.684-.622.338-1.267.688-1.705.807a1.11 1.11 0 0 1-.285.036c-.64 0-1.334-.508-1.78-.909-.078.777-.52 1.764-.996 2.27-.302.325-.571 1.067-.832 1.784-.24.665-.49 1.352-.796 1.805-.618.904-.972 2.661-.522 3.66.217.485 1.007 1.057 1.704 1.561.852.618 1.588 1.15 1.669 1.688.095.636-.265.988-.625 1.155l.913.98c.14.02.48.06 1.012.06.623 0 1.314-.052 2.053-.153 1.816-.253 3.08-1.659 3.331-1.957.001-.396.014-2.155.137-2.705.048-.212.23-.567.923-.567.107 0 .21.009.295.02z" fill="#fff"/><path d="M17.4 14.149c.035.13.35.462.84.765.07.042.135.083.197.122.271.174.392.245.588.22.288-.035 1.348-.639 1.8-.897l.113-.064c.169-.097.304-.162.412-.215.214-.105.234-.122.243-.16-.024-.06-.224-.218-.608-.342-.122-.041-.296-.106-.496-.181-.434-.163-1.028-.386-1.27-.426a.165.165 0 0 0-.03-.002c-.205 0-.62.241-1.03.601-.204.172-.6.463-.76.579zm-3.622 13.338c-.178-.28-.332-.523-.415-.643-.329-.48-.898-1.016-1.17-1.016a.085.085 0 0 0-.044.01c-.144.077-.266.313-.384.541-.163.316-.347.674-.688.868-.252.143-.638.222-1.01.298-.265.054-.886.18-.915.299-.04.16-.003.324.045.532.055.246.125.552.066.928-.042.235-.118.46-.192.678-.103.303-.219.646-.119.752.124.102.87.215 1.414.298.685.104 1.393.212 1.826.383l.115.045c.776.306 2.221.877 2.951.877a.837.837 0 0 0 .169-.015c.126-.08.66-.44.76-.882.136-.57-.42-1.235-.764-1.581-.381-.385-1.111-1.533-1.645-2.372zm16.502 1.374l-.089-.044c-.61-.304-.932-1.128-.89-1.748a.654.654 0 0 0-.031-.271 3.16 3.16 0 0 1-.466.574c-.325.306-1.12.636-1.835.636-.267 0-.51-.044-.724-.132-.714-.292-.812-1.132-.814-1.553a.198.198 0 0 0-.028.01c-.044.145-.002.634.027.963.015.177.03.359.04.526.04.736-.21 1.985-.426 2.903-.205.898.177 1.529.642 1.665a.493.493 0 0 0 .14.018c.428 0 1.137-.416 1.764-1.036.445-.44 1.436-.915 2.31-1.334.494-.237 1.003-.481 1.148-.606.032-.028.037-.044.037-.044-.009-.135-.587-.42-.805-.527z" fill="#F1BB5C"/><path d="M31.724 28.33c-.858-.33-1.225-.768-1.19-1.422.037-.764-.424-1.323-.643-1.544.132-.474.519-2.116 0-3.542-.557-1.527-2.257-3.858-4.012-6.15-.719-.941-.753-1.964-.792-3.149-.038-1.13-.08-2.41-.75-3.834-.73-1.55-2.193-2.439-4.015-2.439-1.084 0-2.197.318-3.053.873-1.754 1.137-1.522 3.616-1.369 5.256.021.225.041.437.053.618.102 1.606.009 2.453-.113 2.71-.078.168-.465.647-.875 1.154-.423.524-.903 1.118-1.297 1.671-.47.666-.849 1.684-1.215 2.669-.269.72-.522 1.4-.769 1.807a2.328 2.328 0 0 0-.254 1.85c-.177.115-.432.342-.648.77-.261.524-.79.805-1.891 1.003-.506.098-.855.298-1.037.594-.265.432-.12.975.011 1.346.195.545.074.89-.147 1.517-.051.145-.109.309-.167.49-.092.284-.059.543.098.77.416.596 1.629.807 2.878.945.745.084 1.561.364 2.35.635.773.265 1.573.54 2.3.623.11.013.22.02.325.02 1.097 0 1.593-.684 1.75-.965a20.643 20.643 0 0 1 3.155-.35c1.4-.038 2.753.221 3.136.302.12.217.439.712.945.967.279.143.666.225 1.063.225.424 0 1.23-.094 1.868-.725.637-.633 2.227-1.443 3.388-2.033.26-.132.502-.255.715-.367.652-.34 1.008-.825.976-1.331-.026-.421-.323-.79-.774-.964zm-10.56-18.106c.631 0 1.146.616 1.146 1.372 0 .315-.092.615-.252.853a1.29 1.29 0 0 0 .065-.408c0-.633-.427-1.128-.972-1.128-.533 0-.966.506-.966 1.128 0 .042.002.085.006.127l-.083-.03a1.631 1.631 0 0 1-.092-.542c0-.756.515-1.372 1.147-1.372zm-1.946 2.749c.241.04.835.262 1.27.425.2.075.373.14.495.181.384.124.584.283.608.342-.009.039-.028.055-.242.16-.109.053-.244.119-.412.216l-.113.064c-.453.258-1.513.862-1.8.897-.196.025-.317-.047-.589-.22a8.438 8.438 0 0 0-.196-.123c-.49-.302-.806-.635-.841-.765.16-.116.556-.406.759-.579.411-.36.825-.6 1.03-.6.011 0 .021 0 .031.002zm-1.615-2.495c.465 0 .858.59.858 1.287 0 .088-.006.176-.02.269a1.54 1.54 0 0 0-.084.037 1.502 1.502 0 0 0-.02-.176c-.1-.539-.48-.93-.904-.93a.688.688 0 0 0-.097.007c-.252.04-.45.218-.559.47.095-.554.43-.964.826-.964zm-1.418 20.97c-.1.442-.634.802-.76.881a.83.83 0 0 1-.168.015c-.73 0-2.175-.57-2.952-.877l-.114-.045c-.434-.171-1.142-.279-1.826-.383-.545-.083-1.29-.196-1.414-.298-.1-.106.016-.45.118-.752.074-.218.15-.443.192-.678.06-.376-.01-.682-.066-.928-.047-.208-.085-.373-.045-.532.03-.118.65-.245.915-.299.373-.076.758-.154 1.01-.298.341-.194.526-.552.689-.867.117-.229.24-.465.384-.542a.085.085 0 0 1 .044-.01c.272 0 .841.536 1.169 1.016.083.12.237.363.416.643.533.839 1.263 1.987 1.645 2.372.343.346.9 1.01.763 1.581zm7.92-5.86c-.123.55-.137 2.31-.138 2.705-.25.299-1.515 1.704-3.33 1.957-.74.101-1.431.152-2.054.152-.532 0-.871-.038-1.012-.058l-.913-.981c.36-.167.72-.52.625-1.155-.081-.537-.817-1.07-1.67-1.687-.696-.505-1.486-1.077-1.703-1.561-.45-1-.096-2.756.522-3.661.306-.453.555-1.14.796-1.804.261-.718.53-1.46.832-1.784.477-.507.918-1.493.996-2.27.447.4 1.14.908 1.78.908.098 0 .194-.012.286-.036.438-.119 1.082-.468 1.705-.806.537-.292 1.2-.652 1.449-.684.427.576 2.91 5.739 3.164 7.397a7.38 7.38 0 0 1-.118 2.821 2.33 2.33 0 0 0-.295-.02c-.692 0-.875.355-.923.567zm6.94 3.845c-.145.124-.654.369-1.147.605-.875.42-1.866.895-2.31 1.335-.628.62-1.337 1.036-1.765 1.036a.49.49 0 0 1-.14-.019c-.465-.136-.847-.766-.642-1.665.217-.918.467-2.167.426-2.903-.01-.167-.025-.35-.04-.525-.029-.33-.07-.818-.027-.963a.183.183 0 0 1 .029-.01c.002.42.099 1.26.813 1.553.213.087.457.131.724.131.716 0 1.51-.33 1.835-.635.192-.18.353-.4.466-.575.024.068.04.157.032.271-.043.621.278 1.445.89 1.748l.088.044c.218.107.796.392.806.528 0 0-.005.016-.038.044z" fill="#434343"/><defs><radialGradient id="linux_radial" cx="0" cy="0" r="1" gradientUnits="userSpaceOnUse" gradientTransform="rotate(45) scale(56.5685)"><stop stop-color="#F9D246"/><stop offset="1" stop-color="#ED7A10"/></radialGradient></defs></svg>