<svg fill="none" height="200" viewBox="0 0 200 200" width="200" xmlns="http://www.w3.org/2000/svg" xmlns:xlink="http://www.w3.org/1999/xlink"><linearGradient id="a"><stop offset=".00475888" stop-color="#009642"/><stop offset="1" stop-color="#00fa57"/></linearGradient><linearGradient id="b" gradientUnits="userSpaceOnUse" x1="33.7657" x2="134.623" xlink:href="#a" y1="134.007" y2="33.1491"/><linearGradient id="c" gradientUnits="userSpaceOnUse" x1="137.105" x2="157.374" xlink:href="#a" y1="156.75" y2="136.482"/><path d="m200 0h-200v200h200z" fill="#202221"/><path d="m163.606 80.215c0-24.0632-19.574-43.7267-43.727-43.7267h-58.5415-24.2428v24.2427 58.542c0 24.153 19.6636 43.726 43.7267 43.726 22.6266 0 41.2126-17.239 43.5476-39.237 21.998-2.245 39.237-20.92 39.237-43.547zm-43.727 19.5738h-19.484v19.4842c0 10.774-8.7092 19.484-19.4838 19.484-10.7745 0-19.4839-8.71-19.4839-19.484v-58.542h58.5417c10.775 0 19.484 8.7094 19.484 19.484 0 10.7745-8.799 19.5738-19.574 19.5738z" fill="url(#b)"/><path d="m147.265 161.017c7.934 0 14.366-6.432 14.366-14.366s-6.432-14.366-14.366-14.366c-7.935 0-14.367 6.432-14.367 14.366s6.432 14.366 14.367 14.366z" fill="url(#c)"/></svg>