<svg width="200" height="200" fill="none" xmlns="http://www.w3.org/2000/svg"><path d="M200 0H0v200h200V0z" fill="url(#paint0_radial)"/><path d="M58.785 63.925c18.3-2.6 23.2 26.7 6.2 30.6v.2c15.8 1 5.6 22 12.7 29.4v.5h-13.6c-3.8-5.9.5-18-3.7-23.6-1.9-2.9-9-1.9-12.2-2v25.7h-12.5v-60.8h23.1zm-5.4 26.5c11.9 1.6 13-18.5.7-17.5h-5.9v17.5h5.2z" fill="#fff"/><path d="M110.485 63.926l16.4 60.7h-13l-2.9-12.9h-16.4l-2.9 12.9h-13l16.4-60.7h15.4zm-1.6 37.8l-6-27.3h-.2l-6 27.3h12.2z" fill="#00ABC3"/><path d="M150.884 63.927c16.9-1.4 22.3 22.2 11.6 32-5.3 4.9-14 4.5-20.9 4.4v24.2h-12.6v-60.6h21.9zm-3.8 27.4c11.2.8 11.4-19.7-.3-18.4h-5.2v18.4h5.5z" fill="#fff"/><g clip-path="url(#clip0)"><path d="M61.166 146.685c0 1.346-.299 2.325-.955 2.937-.836.856-3.283 1.101-4.537.611-1.552-.611-1.73-2.447-1.73-3.977h2.387c0 .673.06 1.53.239 1.897.239.673 1.611.673 1.85 0 .418-.795.06-9.668.18-10.708h2.566v9.24zm4.417-.308c0 .796.06 1.652.776 2.02.597.305 1.612.183 1.97-.49.239-.489.298-1.04.298-1.591v-8.933h2.567v8.994c.12 2.631-1.612 4.222-4.059 4.039-2.507.122-4.178-1.285-4.059-4.039v-8.933h2.567v8.933h-.06zm13.012-5.872c-.238-1.53-2.089-2.02-2.745-.368-.478.979-.478 4.039-.358 5.507.119 1.224.238 2.876 1.67 2.937.956-.061 1.612-1.04 1.612-2.019v-1.285h-1.67v-1.897h4.177v6.914h-1.91v-1.162h-.06c-.835 1.591-3.223 1.652-4.595.979-2.03-1.285-1.731-3.977-1.85-6.302 0-1.775.119-3.488.895-4.834 1.134-2.081 5.073-2.081 6.386-.612.597.673.955 1.713.955 2.998h-2.447c0-.306 0-.551-.06-.856zm10.505-3.06l3.343 12.788h-2.686l-.597-2.692h-3.403l-.596 2.692h-2.686l3.342-12.788H89.1zm-.358 8.015l-1.254-5.751h-.06l-1.253 5.751h2.567zm1.015-11.319l-1.731 2.569h-1.672l.956-2.569h2.447zm8.416 7.037c.18-1.468.657-2.753 1.91-3.488 1.731-.917 5.014-.673 5.91 1.346 1.014 2.142.776 5.14.597 7.465-.18 2.448-1.672 4.039-4.179 3.916-.955 0-1.731-.183-2.328-.489-2.626-1.469-1.97-6.058-1.91-8.75zm2.507 4.895c.12.918.179 1.774.776 2.264.418.367 1.433.367 1.851 0 1.074-1.101.716-2.815.835-4.467-.119-1.652.358-4.711-1.79-4.772-1.373 0-1.612 1.285-1.731 2.57 0 1.162 0 3.242.059 4.405zm13.849.122l.059-8.75h2.328v12.788h-2.924l-3.164-8.933h-.06v8.933h-2.328v-12.788h2.985l3.104 8.75zm4.476-8.75h2.567v10.647h4.536v2.141h-7.103v-12.788zm8.596 0h2.566v12.788h-2.566v-12.788zm10.743 8.75l.06-8.75h2.328v12.788h-2.925l-3.164-8.933h-.059v8.933h-2.328v-12.788h2.984l3.104 8.75zm11.521-6.608h-4.537v2.998h4.298v2.142h-4.298v3.426h4.716v2.142h-7.282v-12.85h7.103v2.142z" fill="#fff"/></g><defs><radialGradient id="paint0_radial" cx="0" cy="0" r="1" gradientUnits="userSpaceOnUse" gradientTransform="rotate(45) scale(282.843)"><stop offset=".25" stop-color="#353AB5"/><stop offset="1" stop-color="#000352"/></radialGradient><clipPath id="clip0"><path fill="#fff" transform="translate(53.943 134.141)" d="M0 0H96.1V16.337H0z"/></clipPath></defs></svg>