<svg width="200" height="200" fill="none" xmlns="http://www.w3.org/2000/svg"><path d="M200 0H0v200h200V0z" fill="#010101"/><path d="M40 98.644L99.95 112V65.487c1.303 1.611 17.516 23.212 36.338 39.843L160 98.644c-51.269-34.746-59.005-75.149-59.943-81.711L99.949 16C91.957 64.719 43.401 96.25 40 98.644z" fill="url(#paint0_linear)"/><path d="M129.371 100c-18.824 16.885-28.131 32.3-29.43 33.937v-33.926H40c3.391 2.418 51.956 34.468 59.956 83.989l.108-.939c.936-6.679 8.669-47.743 59.936-83.051h-30.629V100z" fill="url(#paint1_linear)"/><defs><linearGradient id="paint0_linear" x1="52.382" y1="47.394" x2="154.769" y2="109.317" gradientUnits="userSpaceOnUse"><stop offset=".273" stop-color="#EE845A"/><stop offset=".436" stop-color="#E8490D"/><stop offset=".703" stop-color="#E8490D"/><stop offset=".946" stop-color="#EE845A"/></linearGradient><linearGradient id="paint1_linear" x1="9.84" y1="141.998" x2="209.093" y2="141.998" gradientUnits="userSpaceOnUse"><stop offset=".115" stop-color="#A34333"/><stop offset=".418" stop-color="#E8490D"/><stop offset=".63" stop-color="#E8490D"/><stop offset="1" stop-color="#A34333"/></linearGradient></defs></svg>