<svg width="200" height="200" viewBox="0 0 200 200" fill="none" xmlns="http://www.w3.org/2000/svg">
<path d="M100 200C44.8 200 0 155.2 0 100C0 44.8 44.8 0 100 0C155.2 0 200 44.8 200 100C200 155.2 155.2 200 100 200Z" fill="#BBBBBB"/>
<path d="M33.6573 130H46.8873L50.4873 105.97L61.5573 132.43L72.6273 105.97L77.1273 130H90.3573L76.4973 64.03L62.0073 102.37L47.5173 64.03L33.6573 130ZM103.095 130H116.865V78.88H129.465V66.28H90.5852V78.88H103.095V130ZM141.064 130H154.834V78.88H167.434V66.28H128.554V78.88H141.064V130Z" fill="white"/>
</svg>
