<svg width="85" height="20" fill="none" xmlns="http://www.w3.org/2000/svg"><path d="M60.66 11.8H0v.877h60.66V11.8z" fill="#CCC"/><path d="M24.024 14.71h-.89s-1.051 1.33-1.11 1.387v-1.386h-.758v3.4h.759v-1.488c.043.058 1.153 1.489 1.153 1.489h.963s-1.46-1.795-1.474-1.825c.014-.014 1.401-1.576 1.401-1.576h-.044zm4.146.932c0 .51.336.744.832.934l.059.014c.277.103.569.205.554.511 0 .234-.16.467-.452.467-.321 0-.555-.248-.642-.481l-.015-.03-.496.438.014.015c.278.438.672.671 1.139.671.744 0 1.211-.452 1.211-1.167 0-.672-.51-.876-.92-1.037-.291-.116-.525-.204-.525-.423s.22-.365.424-.365c.218 0 .38.088.525.263l.015.03.35-.482-.015-.015c-.233-.234-.7-.38-1.021-.38-.57.015-1.037.453-1.037 1.037zm3.75-.935h-.73v3.4h.76v-3.4h-.03zm3.722-.004h-.89s-1.05 1.328-1.11 1.387v-1.387h-.758v3.4h.759v-1.488c.044.059 1.153 1.489 1.153 1.489h.963s-1.46-1.795-1.474-1.825c.015-.014 1.401-1.576 1.401-1.576h-.044zm7.853-.086h-.525v3.489h.744v-2.263c.044.059 1.912 2.32 1.912 2.32h.54v-3.458h-.759v2.233c-.044-.058-1.897-2.32-1.912-2.32zm10.67 0h-.526v3.489h.759v-2.263c.043.059 1.912 2.32 1.912 2.32h.54v-3.458h-.76v2.233c-.058-.058-1.926-2.32-1.926-2.32zm6.29.086h-.89s-1.052 1.328-1.11 1.387v-1.387h-.76v3.4h.76v-1.488c.044.059 1.153 1.489 1.153 1.489h.963s-1.46-1.795-1.474-1.825c.015-.014 1.401-1.576 1.401-1.576h-.044zm-34.446.965c.03.073.424 1.124.438 1.153h-.817c.015-.044.35-1.08.38-1.153zm.307-1.05h-.57l-1.444 3.488h.788s.292-.686.306-.716h1.241c.015.03.277.716.277.716h.803l-1.401-3.489z" fill="#fff"/><path d="M36.78 17.244c-.247-.233-.422-.569-.422-.875 0-.526.423-1.08 1.05-1.08.263 0 .497.087.686.262.234.205.365.511.365.803 0 .51-.467 1.139-1.05 1.139-.292.014-.497-.132-.628-.249zm-1.196-.846c0 .51.204.992.584 1.328.336.307.773.467 1.255.467 1.036 0 1.825-.773 1.825-1.795a1.75 1.75 0 0 0-.584-1.314 1.795 1.795 0 0 0-1.241-.467c-1.036 0-1.839.788-1.839 1.78zm5.138-1.126c.263 0 .423.044.51.132a.402.402 0 0 1 .118.219c0 .043.014.073.014.116 0 .35-.19.497-.656.497h-.073v-.978h.087v.014zm-.817-.569h-.015v3.4h.76v-1.327c.043.073.86 1.328.86 1.328h.905s-1.007-1.387-1.036-1.43c.51-.088.73-.555.73-.935 0-.073-.015-.16-.015-.233a.88.88 0 0 0-.277-.511c-.22-.19-.54-.292-.949-.292h-.963zm8.012.57c.19 0 .307.029.38.101a.387.387 0 0 1 .102.205c0 .03.015.073.015.102 0 .321-.132.423-.497.423h-.058v-.832h.058zm.03 1.371c.248 0 .481.015.613.132.058.044.087.116.102.204 0 .03.014.058.014.102 0 .424-.335.467-.7.467h-.132v-.905h.103zm-.832-1.94H47.1v3.4h1.139c.744 0 1.182-.365 1.182-.963 0-.059 0-.117-.015-.19-.058-.307-.248-.599-.598-.672.219-.145.306-.423.306-.642 0-.087 0-.16-.014-.233a.797.797 0 0 0-.234-.453c-.19-.175-.467-.248-.861-.248h-.89zm4.334.964c.03.073.423 1.124.438 1.153h-.818c.015-.044.35-1.08.38-1.153zm.306-1.05h-.569l-1.445 3.488h.788s.292-.686.307-.716h1.24c.015.03.278.716.278.716h.803l-1.402-3.489zm-39.976.218H10.64v.38h1.168v-.38h-.03zm.788 1.578H12.1l.014 1.052v.248c0 .117.03.204.117.277.132.117.35.132.35.132h.526v-.41h-.35c-.03 0-.059 0-.088-.028a.166.166 0 0 1-.044-.117v-.102l-.014-1.037h-.044v-.015zm-1.401-.738h-.453L10.7 17.47v.248c0 .117.029.204.117.277.13.117.35.132.364.132h.672v-.409h-.482c-.03 0-.058 0-.102-.029a.166.166 0 0 1-.044-.117v-.117l.015-1.78h-.073z" fill="#fff"/><path d="M13.37 15.06c0 .072.015.832.015.832 0 .277-.043.277-.263.277h-.51l-.015-1.095h.774v-.015zm.453-.38h-1.738l.015 1.855h1.402c.278 0 .394-.205.394-.41l-.014-1.445h-.059z" fill="#fff"/><path d="M13.633 15.422h-1.314l.014.38h1.358v-.38h-.059zm-.307 1.25h-.453l.35.861.117.306c.073.19.16.292.394.292h.35v-.364h-.102c-.131 0-.204-.03-.306-.278l-.336-.817h-.014zm-2.92-1.236l-.014.336h1.415v-.35h-1.4v.014zm1.403.732H10.04l.015.38h1.767l-.014-.38z" fill="#fff"/><path d="M13.793 16.66s-.088.32-.088.335c-.073.16-.233.117-.233.117l-.03-.015v.365h.322c.263 0 .277-.19.277-.19l.16-.598v-.03l-.408.015zm-2.627-2.012h-.482l-.394.774c-.044.073-.205.073-.205.073h-.014v.365h.306c.19 0 .248-.16.248-.16l.555-1.008.015-.029h-.03v-.015zm7.284.043h-1.709l.015.482h1.81l-.014-.482h-.102zm-2.25-.043h-.437l-.35.774c-.03.058-.161.058-.161.058h-.044l.015.394h.291c.19 0 .234-.16.234-.175l.482-.992.029-.059H16.2zm-.232 1.037l-.234.482c-.058.131-.117.175-.204.175h-.219l.015.409h.291c.35 0 .482-.292.482-.307l.35-.73.03-.058h-.511v.03z" fill="#fff"/><path d="M15.953 16.383h-.482l.03 1.738h.584l-.03-1.738h-.102zm2.409-.469h-.482l.044 1.489v.058c0 .16 0 .175-.044.175h-1.095l.015.497h1.255c.102 0 .453-.03.438-.41l-.015-.247-.044-1.562h-.073z" fill="#fff"/><path d="M18.538 15.688h-1.84l.015.481h1.928v-.482h-.103zm-9.59-.97H5.4l.015.395 3.605.014v-.408h-.073zm.014 1.087H5.43v.394h3.59v-.394h-.058zm-.176-.496H5.604v.306H8.83v-.306h-.044z" fill="#fff"/><path d="M7.459 14.488h-.511v1.68h.57l-.015-1.68h-.044zm0 1.871h-.497l.015 1.081v.175c0 .117-.015.117-.088.117h-.22v.394h.483c.146 0 .394-.058.394-.408v-.263l-.014-1.096h-.073zm-1.766 1.5c.102 0 .233-.074.321-.205 0 0 .088-.132.102-.146h.467l-.029.029-.175.219-.03.044c-.233.292-.247.292-.627.292h-.277v-.234c.014.015.248 0 .248 0zm.393-1.765h.482l-.03.029-.174.219c-.278.321-.307.336-.584.321h-.365v-.234h.19c.19 0 .233-.043.306-.145l.015-.015.073-.088.087-.087zm2.162.087l.103.088.014.015c.117.087.175.145.365.145h.292c.014.03 0 .205 0 .234h-.38c-.262.015-.306.015-.7-.321l-.248-.22s-.015-.014-.044-.028h.482a.81.81 0 0 1 .116.087zm-2.79.708l-.028-.03h.481l.03.03c.102.116.233.13.408.13h.248v.264h-.394c-.408 0-.467-.059-.671-.307l-.073-.087zm2.891.634c.015.015.102.146.102.146.103.132.234.205.336.205h.248v.233h-.292c-.38 0-.394-.014-.642-.292l-.044-.043-.175-.22-.029-.029h.496zm.19-.628l.03-.043h.466l-.029.029-.073.087c-.204.248-.263.307-.671.307h-.38v-.263h.263c.19.015.307-.015.394-.117zm-4.218-.77H.205v.394h4.174v-.394h-.058zm-.337-1.434H.51v.394h3.547v-.394h-.073z" fill="#fff"/><path d="M3.225 14.797h-.437l-.015 3.342.54.015v-3.357h-.088zm-1.328.117v2.233s-.014.453-.277.686c-.263.234-.336.307-.336.307l-.394-.365.307-.277s.16-.132.16-.599v-1.985h.54zm76.556-.119c-.427-.213-.867-.44-1.547-.44-.6 0-1.08.227-1.546.44-.48.227-.987.454-1.653.454-.587 0-1.04-.2-1.507-.427-.493-.227-.987-.453-1.666-.453-.6 0-1.08.213-1.547.426-.493.227-1 .454-1.666.454h-.107c.067.08.133.173.213.253.667-.027 1.173-.253 1.667-.467.466-.213.893-.4 1.44-.4.626 0 1.08.214 1.56.44.48.227.973.454 1.613.454.72 0 1.253-.24 1.76-.48.453-.214.893-.414 1.44-.414.612 0 1.012.2 1.439.414.467.226.933.48 1.72.48.08-.08.147-.174.213-.254-.066 0-.133.014-.2.014-.733-.04-1.186-.267-1.626-.494z" fill="#fff"/><path d="M76.906 14.84c-.6 0-1.08.226-1.547.44-.48.226-.986.453-1.653.453-.587 0-1.04-.2-1.507-.427-.493-.226-.986-.453-1.666-.453-.6 0-1.08.213-1.546.427-.414.186-.84.373-1.374.426.067.08.147.147.214.227.48-.08.866-.253 1.253-.427.466-.213.893-.4 1.44-.4.626 0 1.08.214 1.56.44.48.214.973.454 1.613.454.72 0 1.253-.24 1.76-.48.453-.213.893-.413 1.44-.413.613 0 1.013.2 1.44.413.372.186.746.386 1.292.453.08-.08.147-.16.227-.227-.613-.04-1.013-.24-1.4-.44-.427-.24-.866-.466-1.546-.466z" fill="#fff"/><path d="M76.906 15.316c-.6 0-1.08.227-1.546.44-.48.227-.987.454-1.653.454-.587 0-1.04-.2-1.507-.427-.493-.227-.986-.453-1.666-.453-.6 0-1.08.213-1.547.426-.306.134-.613.28-.96.36.08.067.147.134.227.2.307-.093.573-.213.84-.333.467-.2.893-.4 1.44-.4.626 0 1.08.213 1.56.44.48.213.973.453 1.613.453.72 0 1.253-.24 1.76-.48.453-.213.893-.413 1.44-.413.613 0 1.013.2 1.44.413.266.134.532.267.866.36.08-.066.16-.133.227-.2-.387-.08-.694-.24-.987-.386-.427-.24-.867-.454-1.547-.454z" fill="#fff"/><path d="M76.906 15.787c-.6 0-1.08.226-1.546.426-.48.227-.987.454-1.653.454-.587 0-1.04-.214-1.507-.427-.493-.227-.986-.467-1.666-.467-.6 0-1.08.214-1.547.427l-.56.24.227.187c.147-.054.293-.12.44-.187.467-.213.893-.4 1.44-.4.626 0 1.08.213 1.56.44s.973.453 1.613.453c.72 0 1.253-.24 1.76-.48.453-.213.893-.413 1.44-.413.613 0 1.013.2 1.44.413.146.08.293.147.453.214.08-.054.16-.12.226-.187-.2-.08-.386-.173-.573-.267-.427-.2-.867-.426-1.547-.426z" fill="#fff"/><path d="M76.906 16.266c-.6 0-1.08.213-1.546.44-.48.226-.987.453-1.653.453-.587 0-1.04-.213-1.507-.427-.493-.226-.986-.453-1.666-.453-.6 0-1.08.213-1.547.427-.053.026-.106.053-.16.066.08.054.16.12.24.174.014 0 .014-.014.027-.014.466-.213.893-.4 1.44-.4.626 0 1.08.214 1.56.44.48.227.973.453 1.613.453.72 0 1.253-.24 1.76-.48.453-.213.893-.413 1.44-.413.613 0 1.013.2 1.44.414.013.013.04.013.053.026l.24-.16a.717.717 0 0 1-.174-.093c-.44-.227-.88-.453-1.56-.453z" fill="#fff"/><path d="M75.36 17.174c-.48.227-.987.454-1.653.454-.587 0-1.04-.2-1.507-.427-.493-.227-.986-.453-1.666-.453-.48 0-.894.146-1.28.306.093.054.173.107.266.16.32-.133.64-.226 1.014-.226.626 0 1.08.213 1.56.44.48.226.973.453 1.613.453.72 0 1.253-.24 1.76-.48.453-.213.893-.413 1.44-.413.44 0 .76.093 1.066.24.093-.054.173-.107.253-.16-.36-.174-.76-.334-1.32-.334-.6.014-1.08.227-1.546.44z" fill="#fff"/><path d="M73.746 18.358c-4.626 0-8.385-3.76-8.385-8.386 0-4.626 3.76-8.386 8.385-8.386 4.627 0 8.386 3.76 8.386 8.386a8.375 8.375 0 0 1-8.386 8.386zm0-18.358a9.98 9.98 0 0 0-9.985 9.986 9.98 9.98 0 0 0 9.985 9.985c5.506 0 9.986-4.466 9.986-9.985A9.98 9.98 0 0 0 73.746 0z" fill="#fff"/><path d="M78.413 7.511c-.067.307-.373.64-.547.774-.386.32-2.973 1.893-3.266 2.253-.293.36-.347.893-.347 1.306v3.04h.4v-.787c0-.266.147-.693.467-1.013.533-.56 1.773-1.253 2.573-1.84.68-.493.72-1.16.72-1.746v-2.08.093z" fill="#B0B0B0"/><path d="M74.266 10.345c.28-.36 2.947-1.987 3.333-2.293.387-.307.827-.787.827-1.387v-3.4c0 .48-.267.84-.614 1.294-.386.52-2.186 1.48-3.066 2.106-.88.627-1.186 1.24-1.186 2.013v6.213h.4v-3.24c-.014-.413.013-.946.306-1.306zM72.24 6.843c-.813-.626-2.466-1.96-2.666-2.226-.187-.267-.627-.747-.627-1.32v3.16c0 .453.214 1.266 1 1.84.787.573 1.893 1.413 2.227 1.746.333.333.64.933.64 1.8v3.053h.4V8.83c.013-1-.16-1.374-.974-1.987z" fill="#B0B0B0"/><path d="M2.918 7.565v.832c0 .116-.014.219-.087.277-.044.044-.146.058-.277.058h-.511V6.69c.116.015.394.044.569.16.306.205.306.468.306.716zM2.89 5.638c.964.35 1.328.102 1.343.088l.03-.015-.205-.846-.073.043s-.263.146-.978-.102c-.671-.233-1.27-.233-1.766.015C.466 5.215.218 6.047.218 6.09v.583h.847v2.073H.583v.92h2.262c.263 0 .526 0 .745-.19.248-.22.277-.526.277-.861V7.36c0-.467-.087-.817-.554-1.153C2.758 5.813 1.75 5.8 1.4 5.813c.16-.16.642-.481 1.488-.175zm10.889.572c0-1.124-.803-1.62-1.606-1.62a1.976 1.976 0 0 0-1.707.978l-.03.044.774.51.03-.058s.277-.54.86-.555c.19 0 .365.059.497.19a.79.79 0 0 1 .233.584v3.4h.949V6.21zm9.166 0c0-1.124-.803-1.62-1.605-1.62a1.976 1.976 0 0 0-1.708.978l-.015.044.76.51.028-.058s.278-.54.861-.555c.19 0 .365.059.497.19a.79.79 0 0 1 .233.584v3.4h.949V6.21zm1.606-.25h1.547c.277 0 .525 0 .744.19.248.218.278.525.278.86v1.62c0 .628-.497 1.095-1.153 1.095-.643 0-1.153-.481-1.153-1.094 0-.628.496-1.11 1.153-1.11h.19v-.38c0-.189-.044-.247-.074-.276-.043-.044-.146-.059-.277-.059h-2.32v-.715c.014-.03.233-.832.977-1.226.467-.263 1.037-.292 1.693-.102.657.19 1.022 0 1.022 0l.058-.03.03.059.277.715.015.044-.044.03c-.438.262-1.051.174-1.474.058-1.008-.322-1.372.13-1.49.32zm1.416 2.977c.467 0 .467-.686 0-.686s-.467.686 0 .686zM44.064 5.96h1.547c.278 0 .526 0 .745.19.248.218.277.525.277.86v1.62c0 .628-.496 1.095-1.139 1.095-.642 0-1.153-.481-1.153-1.094 0-.628.497-1.11 1.154-1.11h.19v-.38c0-.189-.045-.247-.074-.276-.058-.044-.146-.059-.277-.059h-2.32v-.715c.014-.03.233-.832.977-1.226.467-.263 1.036-.292 1.693-.102s1.022 0 1.022 0l.058-.03.321.818-.043.03c-.438.262-1.051.174-1.475.058-1.021-.322-1.4.13-1.503.32zm1.416 2.977c.467 0 .467-.686 0-.686s-.467.686 0 .686zM30.256 4.59c-1.328-.015-2.13.817-2.13.832l-.015.015v.817l.044.015c.306.087.627.19.759.233-.103.102-.307.365-.307.861V9.67h.963V7.51c0-.131 0-.35.146-.54.146-.19.453-.292.453-.292l.044-.014v-.628l-.03-.015c-.014 0-.364-.13-.554-.19-.16-.043-.277-.072-.336-.101.146-.088.482-.234.978-.234.015 0 1.24.03 1.24 1.036v3.124h.964V6.327c-.015-1.036-.876-1.722-2.219-1.737zm6.948.595a2.319 2.319 0 0 1-.19.146c.03.044.058.102.102.16.146.249.22.57.22.905v3.255h-.964V8.177c0-.233-.555-1.182-1.43-1.182-.292 0-.526.219-.526.481v.059c.044 0 .117-.015.205-.015.656 0 1.152.453 1.152 1.08 0 .628-.496 1.095-1.153 1.095-.656 0-1.153-.467-1.153-1.095V7.476c0-.686.497-1.386 1.46-1.386.773 0 1.27.452 1.474.686v-.263c0-.846-.876-1.036-1.182-1.036-1.022 0-1.358.7-1.372.73l-.03.043-.86-.38.014-.043c0-.014.599-1.27 2.233-1.27.526 0 .876.146.964.175a.926.926 0 0 0 .16-.116c.35-.307.365-.628.365-.628V3.93h1.11v.058c.014.058-.044.7-.6 1.197zM34.62 8.936c.468 0 .468-.686 0-.686-.467 0-.467.686 0 .686zm1.972-6.143a6.42 6.42 0 0 0-1.358-.146c-.467 0-.788.029-.949.058.132-.175.468-.482 1.095-.482.715.03 1.066.395 1.212.57zm1.007.175c0-.03-.409-1.591-2.219-1.62-1.708-.015-2.19 1.59-2.204 1.605v.73l.073-.015c.015 0 .745-.116 1.912-.116 1.24 0 2.35.219 2.365.219l.073.014v-.817zm2.686 1.622c-1.328-.015-2.131.817-2.131.832l-.015.015v.817l.044.015c.292.087.628.19.759.233-.117.102-.307.365-.307.861V9.67h.964V7.51c0-.131 0-.35.146-.54.146-.19.452-.292.452-.292l.044-.014v-.628l-.03-.015c-.014 0-.364-.13-.554-.19-.16-.043-.277-.072-.336-.101.146-.088.468-.234.978-.234.015 0 1.241.03 1.241 1.036v3.124h.963V6.327c-.014-1.036-.89-1.722-2.218-1.737zM55.36 5.702v3.97h-.963V5.658l-1.722 2.423v1.591h-.949V6.797h-.19c-.656 0-1.153-.482-1.153-1.124 0-.613.511-1.095 1.153-1.095.643 0 1.139.467 1.139 1.095v.832l.117-.205 1.226-1.663h.277c.292 0 .57 0 .803.204.248.219.262.51.262.861zm-3.809-.307c-.453 0-.453.672 0 .672.452 0 .452-.672 0-.672zm8.962-.747v3.97c0 .336-.014.642-.277.861-.22.19-.467.19-.745.19h-2.014c-.277 0-.525 0-.744-.19-.248-.219-.277-.525-.277-.86v-.263c0-.57.335-.847.496-.95-.205-.116-.642-.48-.657-1.4 0-.978.671-1.416 1.284-1.416.657 0 1.153.482 1.153 1.095 0 .627-.496 1.094-1.153 1.094h-.087c.044.073.146.19.423.248.35.073.744.03.744.03h.059v.831h-.54c-.423 0-.788.03-.788.468 0 .32.087.394.51.394h1.285c.087 0 .204 0 .263-.059.073-.058.087-.175.087-.277V4.648h.978zm-2.934.745c-.452 0-.452.671 0 .671.467 0 .467-.671 0-.671zm-51.71 0c-.453 0-.453.671 0 .671.452 0 .452-.671 0-.671zm4.933 3.138c0 .32-.103.598-.322.817-.233.234-.583.38-.92.38-.54 0-1.094-.307-1.094-.993v-.452a4.825 4.825 0 0 0-.525.423c-.394.35-.657.671-.803.832-.117.131-.131.146-.16.146h-.876V6.808h-.19c-.657 0-1.139-.481-1.139-1.123 0-.613.497-1.095 1.139-1.095s1.124.467 1.124 1.095v2.233l-.015.423c.117-.117.336-.336.7-.642.366-.292.643-.438.745-.467V4.648H9.4v2.467c.248.03 1.372.263 1.402 1.416zm-1.183-.365c-.496 0-.496.744 0 .744.497 0 .497-.744 0-.744zm9.545-1.425v2.934h-.963v-2.92c0-.744-.584-1.313-1.358-1.313-.963 0-1.4.686-1.4 1.358 0 .379.087.656.16.817l.16-.657c.146-.598.555-.963 1.095-.963.438 0 1.05.32 1.05 1.021 0 .745-.641 1.008-1.05 1.008-.175 0-.336-.059-.409-.088-.029.102-.117.35-.175.671-.117.54-.131.847-.131 1.008v.058h-.964v-.263c0-.423-.146-.817-.292-1.211-.19-.497-.379-1.007-.335-1.664.102-1.285 1.255-1.97 2.306-1.97.671 0 1.24.204 1.678.612.394.41.628.964.628 1.562zm-2.306-.087c-.467 0-.467.686 0 .686s.467-.686 0-.686zm33.57 1.979c0 .613-.511 1.095-1.153 1.095-.657 0-1.139-.467-1.139-1.095v-4.89l.059-1.138-.745 1.255h-.569l-.554-1.737a.374.374 0 0 1-.059-.131c-.03-.073-.044-.088-.073-.088-.044-.014-.058-.029-.058-.058V.839h.452c.073 0 .146.044.234.117a.64.64 0 0 1 .117.175l.423 1.197.89-1.504h.861v6.714c.044 0 .102-.014.19-.014.628 0 1.124.467 1.124 1.109zm-1.153.306c.467 0 .467-.686 0-.686s-.467.686 0 .686z" fill="#fff"/></svg>