<svg width="80" height="72" fill="none" xmlns="http://www.w3.org/2000/svg"><circle cx="36" cy="36" r="36" fill="#56679C"/><path d="M37.427 72V52.364l10.234 11.804 3.91-10.913-9.944-9.83a5.328 5.328 0 0 0-3.745-1.534H13.09c-2.676 0-5.243 1.051-7.135 2.922A9.918 9.918 0 0 0 3 51.866c0 2.029.626 4.01 1.794 5.678l.854 1.22 6.596 8.024L37.427 72z" fill="#ED6445"/><path d="M7.473 59.084a1.333 1.333 0 0 0-1.842-.33 1.3 1.3 0 0 0-.335 1.82l2.335 3.335c.416.594 1.241.742 1.842.331a1.3 1.3 0 0 0 .335-1.82l-2.335-3.336zm6.61-9.022a1.333 1.333 0 0 0-1.842-.322 1.3 1.3 0 0 0-.326 1.822l3.942 5.57c.419.593 1.244.737 1.843.323.6-.414.745-1.23.326-1.822l-3.942-5.57z" fill="#EC3B2B"/><path d="M29.484 62.836l-2.648-9.164h-2.649l-2.648 9.164h7.945z" fill="#F7C04A"/><path d="M29.484 49.746l-2.648 3.927h-2.649l-2.648-3.927 3.973-2.619 3.972 2.619z" fill="#F5A431"/><path d="M30.805 68.072H45.37V72H30.805v-3.927z" fill="#445496"/><path d="M77.15 23.564H49.344c-1.463 0-2.649 1.172-2.649 2.618v11.781c0 1.446 1.186 2.619 2.649 2.619H77.15c1.463 0 2.649-1.173 2.649-2.619V26.182c0-1.446-1.186-2.618-2.649-2.618z" fill="#4E96ED"/><path d="M67.889 0H41.406c-1.462 0-2.648 1.172-2.648 2.618V15.71c0 1.446 1.185 2.618 2.648 2.618H67.89c1.462 0 2.648-1.172 2.648-2.618V2.62C70.537 1.171 69.351 0 67.889 0z" fill="#F7C04A"/><path d="M46.699 10.473c1.463 0 2.648-1.173 2.648-2.618 0-1.446-1.185-2.619-2.648-2.619s-2.648 1.173-2.648 2.619c0 1.445 1.185 2.618 2.648 2.618z" fill="#F5DAA0"/><path d="M53.316 5.236h2.649v2.619h-2.649V5.236zm5.301 0h7.945v2.619h-7.945V5.236zm-5.3 5.237h7.944v2.618h-7.945v-2.618z" fill="#F5A431"/><path d="M71.851 34.036c1.463 0 2.649-1.172 2.649-2.618S73.314 28.8 71.85 28.8c-1.462 0-2.648 1.172-2.648 2.618s1.186 2.618 2.648 2.618z" fill="#96CFFA"/><path d="M59.938 28.8h5.296v2.618h-5.296V28.8zm-9.266 0h6.62v2.618h-6.62V28.8zm2.644 5.236h11.918v2.618H53.316v-2.618z" fill="#407DE6"/><path d="M12.273 9.164l19.862-6.546V15.71L12.273 9.164z" fill="#F7C04A"/><path d="M32.128 10.473h-6.62c-.351 0-.688-.138-.937-.384a1.301 1.301 0 0 1 0-1.851c.249-.246.585-.384.937-.384h6.62v2.619z" fill="#F5A431"/><path d="M32.128 53.673c-.3 0-.592-.101-.827-.287l-5.794-4.582-5.793 4.582a1.333 1.333 0 0 1-1.948-.325 1.298 1.298 0 0 1-.203-.697V41.89h2.648v7.75l4.47-3.536a1.334 1.334 0 0 1 1.653 0l4.47 3.535v-7.749h2.648v10.473c0 .347-.14.68-.388.925a1.332 1.332 0 0 1-.936.384z" fill="#EC3B2B"/><path d="M30.804 34.036v7.855l-5.296 5.236-5.297-5.236v-7.855h10.593z" fill="#FFCEB6"/><path d="M30.808 34.036v7.855l-2.648 2.618a6.66 6.66 0 0 1-4.682-1.917 6.508 6.508 0 0 1-1.939-4.629v-3.927h9.269z" fill="#FFBFA1"/><path d="M20.21 24.873v10.472c0 1.736.698 3.401 1.94 4.629a6.66 6.66 0 0 0 4.682 1.917 6.66 6.66 0 0 0 4.681-1.917 6.508 6.508 0 0 0 1.94-4.629V24.873H20.21z" fill="#FFCEB6"/><path d="M22.859 26.182l1.778 1.758a7.497 7.497 0 0 0 2.43 1.605 7.564 7.564 0 0 0 5.733 0 7.497 7.497 0 0 0 2.43-1.605 7.4 7.4 0 0 0 1.624-2.402c.377-.899.57-1.862.57-2.834v-1.759h-14.78c-1.347 0-2.64.53-3.593 1.472a4.984 4.984 0 0 0-.635 6.34l1.795 2.661 2.648-5.236z" fill="#B36F42"/><path d="M46.697 64.145l-2.694-2.663a4.37 4.37 0 0 0-1.416-.936 4.408 4.408 0 0 0-3.291-.02l-5.84 2.31H21.538l-3.805-5.374-8.24 6.79 2.66 3.8a9.235 9.235 0 0 0 3.32 2.901A9.355 9.355 0 0 0 19.774 72H34.78l5.296-3.928h6.621v-3.927z" fill="#FFCEB6"/><path d="M79.798 45.818L67.881 72H41.398l11.918-26.182h26.482z" fill="#56679C"/><path d="M64.721 55.673a.382.382 0 0 0-.283.64c-.62.52-1.369.863-2.168.996-.902-.913-1.197-1.685-1.287-2.167a.384.384 0 1 0-.265 0c-.084.448-.347 1.151-1.113 1.984-.058.063-.114.12-.176.186a4.542 4.542 0 0 1-2.168-.997.378.378 0 0 0-.134-.612.384.384 0 1 0-.146.737.377.377 0 0 0 .11-.02c.377.82.621 1.692.723 2.587.71-.481 1.745-.834 3.03-.834 1.285 0 2.321.361 3.03.834a8.483 8.483 0 0 1 .723-2.587.383.383 0 1 0 .12-.745l.004-.002z" fill="#2C3E91"/><path d="M60.855 58.172c1.285 0 2.32.354 3.03.834-.313-.517-.871-.949-1.608-1.695-.902-.914-1.197-1.686-1.288-2.167a.383.383 0 1 0-.265 0c-.091.481-.386 1.255-1.288 2.167-.734.744-1.297 1.184-1.612 1.695.71-.479 1.745-.834 3.03-.834z" fill="#2C3E91"/><path d="M57.763 59.472c-.149.294-.224.62-.22.949a1.652 1.652 0 0 0 3.304.09 3.299 3.299 0 0 1-1.976 2.862h3.961a3.296 3.296 0 0 1-1.976-2.857 1.652 1.652 0 1 0 3.303-.095c.005-.33-.07-.657-.219-.953-.75-.537-1.806-.923-3.09-.923-1.282 0-2.337.391-3.087.927z" fill="#2C3E91"/></svg>