<svg width="49" height="20" fill="none" xmlns="http://www.w3.org/2000/svg"><g clip-path="url(#clip0)"><path fill-rule="evenodd" clip-rule="evenodd" d="M3.316 1.273l-.83 2.272H13.98l.83-2.272H3.316zM2.07 4.681l-.83 2.271h11.495l.83-2.271H2.07zM.83 8.088L0 10.36h11.494l.829-2.272H.829z" fill="#B0B0B0"/><mask id="a" maskUnits="userSpaceOnUse" x="17" y="4" width="32" height="15"><path d="M17.246 18.648h31.463V4.73H17.246v13.918z" fill="#fff"/></mask><g mask="url(#a)"><path fill-rule="evenodd" clip-rule="evenodd" d="M24.436 11.224v.048c.525.192 1.027.53 1.29.746.812.674 1.17 1.565 1.17 2.72 0 1.904-1.003 3.276-2.651 3.71-.502.144-1.027.192-2.007.192h-4.993V4.723h4.42c.908 0 1.529.048 2.078.192 1.6.433 2.652 1.541 2.652 3.299 0 .939-.335 1.734-.884 2.263-.239.24-.573.53-1.075.747zm-4.42 1.468v3.66h1.912c.572 0 1.098-.047 1.48-.409.383-.361.55-.819.55-1.42 0-.458-.12-.891-.358-1.204-.406-.506-.908-.627-1.768-.627h-1.816zm-.024-2.408h1.553c.478 0 .717 0 .955-.072.646-.193 1.052-.77 1.052-1.565 0-.939-.43-1.348-1.052-1.54-.262-.073-.525-.097-1.05-.097h-1.458v3.274zm11.061 8.356V7.058h-3.989V4.723h11.085l-.788 2.335h-3.536V18.64h-2.772zm7.956 0V4.723h8.983l-.788 2.335h-5.447v3.082h2.222c1.791 0 2.723.434 3.368.987.502.434 1.362 1.397 1.362 3.3 0 1.878-.884 2.913-1.625 3.442-.86.602-1.767.771-3.607.771h-4.468zm2.748-2.335h2.078c.788 0 1.266-.193 1.6-.627.168-.216.407-.602.407-1.324 0-.722-.239-1.228-.717-1.59-.286-.216-.669-.336-1.314-.336h-2.054v3.877z" fill="#fff"/></g></g></svg>