<svg width="24" height="19" fill="#282B37" xmlns="http://www.w3.org/2000/svg"><path d="M3.951 8.44h1.47V5.56h1.43v2.88h1.468V1.643H6.851v2.573H5.42V1.643H3.95V8.44zM10.676 8.44V2.987l-1.344.154V8.44h1.344zM10.004.96a.754.754 0 00-.758.759c0 .413.346.758.758.758a.756.756 0 00.759-.768.746.746 0 00-.759-.749zM14.089 8.651c0 .864-.183 1.104-.826 1.104-.528 0-.96-.163-1.574-.605l.01 1.383c.633.336 1.142.47 1.728.47.633 0 1.2-.269 1.564-.74.327-.431.442-.95.442-1.996v-5.28l-1.287.154c-.316-.116-.518-.154-.768-.154-1.238 0-2.035 1.123-2.035 2.87 0 1.623.701 2.736 1.728 2.736.356 0 .643-.115 1.018-.412v.47zm-.067-1.68c-.26.23-.432.317-.643.317-.452 0-.692-.5-.692-1.44 0-1.037.279-1.565.807-1.565.182 0 .307.048.528.192v2.496zM17.74 8.44V5.877c0-.596.038-.97.125-1.143.124-.269.364-.451.604-.451.317 0 .423.211.423.854V8.44h1.344V4.85c0-1.287-.355-1.863-1.162-1.863-.5 0-.835.192-1.334.749V1.489l-1.344.154V8.44h1.344zM3.344 12.094c-.412-.259-.825-.393-1.257-.393-1.018 0-1.767.825-1.767 1.958 0 .806.27 1.296 1.018 1.882l.46.355c.327.25.51.566.51.902 0 .423-.25.682-.663.682-.365 0-.777-.154-1.305-.5l.163 1.537c.633.259.979.345 1.382.345 1.123 0 1.91-.845 1.91-2.064 0-.873-.297-1.353-1.315-2.16l-.374-.288c-.22-.173-.326-.374-.326-.624 0-.355.23-.585.595-.585.25 0 .547.124.97.422v-1.469zM6.736 17.365c-.182.019-.259.028-.384.028-.355 0-.499-.163-.499-.556v-2.19h.835v-1.266h-.835v-1.652l-1.344.154v1.498h-.451v1.267h.451v2.112c0 .605.067.95.24 1.238.26.442.787.72 1.363.72.163 0 .26-.01.509-.038l.115-1.315zM11.106 13.227l-1.287.154c-.317-.116-.518-.154-.768-.154-1.238 0-2.035 1.123-2.035 2.87 0 1.623.7 2.736 1.728 2.736.355 0 .643-.115 1.018-.412l.076.412 1.335-.153c-.048-.461-.067-.883-.067-1.747v-3.706zm-1.412 3.984c-.259.23-.432.317-.643.317-.451 0-.691-.5-.691-1.44 0-1.037.278-1.565.806-1.565.183 0 .308.048.528.192v2.496zM13.412 15.358V11.73l-1.344.154v6.797h1.344v-2.688l1.306 2.688h1.497l-1.555-3.072 1.2-2.227h-1.497l-.95 1.977zM20.01 16.865c-.69.51-1.036.663-1.545.663-.614 0-.893-.26-.998-.893l2.669-.586c.01-.144.01-.22.01-.288 0-1.497-.769-2.534-1.873-2.534-1.219 0-2.17 1.238-2.17 2.822 0 1.642.903 2.784 2.209 2.784.508 0 .93-.134 1.545-.49l.154-1.478zm-2.562-1.296c.067-.672.355-1.046.796-1.046.375 0 .557.23.615.74l-1.411.306zM20.76 18.411c.442.317.855.451 1.344.451.941 0 1.594-.71 1.594-1.718 0-.663-.25-1.075-.893-1.488l-.336-.211c-.336-.221-.403-.308-.403-.528 0-.27.182-.452.451-.452.221 0 .432.087.778.317v-1.277c-.432-.23-.672-.307-1.008-.307-.912 0-1.565.701-1.565 1.67 0 .615.22.99.797 1.354l.422.269c.317.202.413.336.413.595 0 .307-.192.509-.5.509-.306 0-.633-.163-1.16-.576l.066 1.392z"/></svg>