<svg width="200" height="200" fill="none" xmlns="http://www.w3.org/2000/svg"><path d="M200 0H0v200h200V0z" fill="#111"/><path d="M128.511 89.844c1.593-1.052 3.014-.171 4.436.465 10.489 4.677 21.002 9.353 31.491 14.054 2.084.93 3.407 2.546 3.456 4.823.073 5.509.368 11.018-.515 16.478-1.544 9.842-6.886 17.163-15.366 22.157a1868.5 1868.5 0 0 1-36.025 20.616c-11.028 6.145-22.106 5.753-33.011-.49-11.445-6.537-22.89-13.05-34.31-19.636-8.21-4.725-13.798-11.483-15.832-20.909-.563-2.595-.809-5.239-.809-7.908 0-8.202 0-16.404-.024-24.606 0-1.004.27-1.322 1.299-1.322 5.024.049 10.048.049 15.072 0 1.053 0 1.274.367 1.274 1.346-.049 6.366.025 12.732-.024 19.098-.074 9.817 4.166 17.138 12.694 22.01a21305.84 21305.84 0 0 0 25.096 14.323c8.43 4.823 16.836 4.774 25.242-.073 8.308-4.75 16.64-9.5 24.948-14.274 4.853-2.767 8.7-6.488 10.857-11.703.784-1.886 1.421-3.82 1.691-5.852.073-.539.098-1.028-.564-1.298-2.426-1.052-4.852-2.154-7.278-3.231-.246-.123-.466-.123-.687.024-.171-.563-.735-.612-1.152-.808-3.651-1.689-7.327-3.354-11.003-5.019-1.691-.759-2.573-1.959-2.5-3.893.098-2.693.049-5.362.074-8.055 0-2.179-.295-4.407 1.495-6.145 0-.05-.025-.123-.025-.172z" fill="url(#paint0_radial)"/><path d="M128.51 89.846c0 .049.025.098.025.122-1.789 1.739-1.471 3.991-1.495 6.146 0 2.693.049 5.386-.074 8.055-.073 1.959.833 3.134 2.5 3.893 3.676 1.665 7.327 3.33 11.004 5.019.416.196.955.269 1.151.808-4.73 12.609-19.532 16.845-29.751 8.447-3.995-3.281-6.25-7.566-6.691-12.756-.024-.368-.073-.735-.073-1.102 0-.93-.368-1.689-1.373-1.665-1.053.025-1.446.808-1.421 1.787.049 2.571.515 5.117.931 7.639 1.005 5.999 2.108 11.973 3.75 17.824.245.857.539 1.665.858 2.62-2.672-.49-5.245-.906-7.843-.906-2.622 0-5.195.392-7.94.955.858-2.399 1.47-4.725 2.01-7.076a212.667 212.667 0 0 0 3.259-17.554c.172-1.298 0-2.596.073-3.893.05-.882-.392-1.347-1.176-1.396-.784-.024-1.299.441-1.372 1.273-.098 1.175-.147 2.351-.392 3.526-1.569 7.761-7.745 13.637-15.636 14.861-7.695 1.176-15.586-2.668-19.213-9.622-3.554-6.88-3.162-13.71 1.421-19.93 4.583-6.243 11.004-8.618 18.65-7.295 3.823.66 7.132 2.497 9.852 5.313.245.269.49.538.784.783.71.588 1.372.44 1.887-.27.515-.71.123-1.248-.515-1.59-1.151-.637-2.279-1.298-3.308-2.106-6.47-5.068-8.896-13.785-5.955-21.35 3.014-7.786 10.758-12.707 18.87-12.046 8.455.686 15.17 6.586 17.008 14.862 1.74 7.908-2.034 16.159-9.215 20.15-.318.171-.661.342-.955.538-.589.392-.858.906-.417 1.543.466.66 1.103.857 1.789.343.294-.22.539-.515.784-.76 5.147-5.068 11.2-6.806 18.209-5.19z" fill="#EBEBEB"/><path d="M159.095 86.49c-2.524 0-5.073-.024-7.597.024-.907.025-1.176-.293-1.201-1.2-.049-9.695-4.485-16.77-12.866-21.52-8.161-4.628-16.322-9.255-24.434-13.98-8.675-5.044-17.302-5.093-26.002-.05-8.185 4.75-16.42 9.427-24.654 14.103-7.058 3.99-11.518 9.818-12.523 18.02-.098.759-.441.955-1.127.955-5.196 0-10.367-.025-15.562 0-.883 0-1.079-.367-1.079-1.175-.27-13.393 5.245-23.529 16.96-30.213C60.355 44.966 71.677 38.478 83 32.014c6.52-3.746 13.48-5.582 21.028-4.579 4.607.613 8.847 2.253 12.842 4.53 11.444 6.537 22.889 13.05 34.31 19.636 7.548 4.358 12.964 10.454 15.366 18.975 1.396 4.945 1.347 9.989 1.298 15.057 0 .784-.49.808-1.053.808-2.549.049-5.122.049-7.696.049z" fill="#FC0021"/><path d="M167.87 109.186c-.024-2.252-1.372-3.893-3.455-4.823-10.489-4.7-20.978-9.377-31.492-14.054-1.421-.636-2.818-1.517-4.435-.465 0 .05.024.098.024.123-1.789 1.738-1.47 3.99-1.495 6.145 0 2.693.049 5.386-.073 8.055-.074 1.959.833 3.134 2.499 3.893 1.25.563 2.5 1.126 3.75 1.714l15.268 6.855c.367.147.735.319 1.078.465a.399.399 0 0 1 .172.098l17.669 7.958c.834-5.289.564-10.626.49-15.964z" fill="url(#paint1_linear)"/><defs><radialGradient id="paint0_radial" cx="0" cy="0" r="1" gradientUnits="userSpaceOnUse" gradientTransform="matrix(29.0851 0 0 29.0572 152.057 110.426)"><stop stop-color="#484848"/><stop offset="1" stop-color="#727272"/></radialGradient><linearGradient id="paint1_linear" x1="125.679" y1="97.839" x2="164.244" y2="113.404" gradientUnits="userSpaceOnUse"><stop stop-color="#B0B0B0"/><stop offset=".382" stop-color="#717171"/></linearGradient></defs></svg>