<svg width="30" height="30" fill="none" xmlns="http://www.w3.org/2000/svg">
  <g clip-path="url(#paytm-color-30px__clip0)">
    <path d="M28 0H2a2 2 0 00-2 2v26a2 2 0 002 2h26a2 2 0 002-2V2a2 2 0 00-2-2z" fill="#06306F"/>
    <path d="M22.42 12.557l.217-.173c.755-.64 1.72-.57 2.366.19.066.076.098.081.163.016.044-.049.092-.087.136-.136.505-.494 1.172-.64 1.796-.363.657.293 1.01.808 1.015 1.53.01 1.558.006 3.11.006 4.667 0 .554-.342.901-.89.901-.218 0-.435-.016-.652.006-.222.021-.287-.049-.287-.282.01-1.52.005-3.04.005-4.56v-.19c-.005-.352-.147-.498-.483-.515-.304-.016-.516.169-.548.478-.006.07 0 .147 0 .217v3.935c0 .575-.331.911-.906.906-.294-.006-.69.13-.858-.06-.146-.162-.049-.548-.049-.835v-4.044c0-.477-.31-.721-.71-.559-.25.104-.332.304-.332.565.006 1.259 0 2.513 0 3.772v.298c-.016.526-.352.857-.873.863-.218.005-.435-.016-.652.005-.233.022-.304-.043-.298-.293.01-2.133.005-4.265.005-6.404 0-.092.006-.179 0-.271-.01-.12.038-.157.157-.157.5.005.994.005 1.493 0 .125 0 .184.032.174.168-.011.098 0 .184.005.325z" fill="#02B9EF"/>
    <path d="M10.915 15.498v2.225c-.006.966-.51 1.465-1.476 1.47-.424 0-.852.006-1.276 0-.857-.01-1.487-.58-1.53-1.438a17.438 17.438 0 01-.006-1.845c.044-.88.717-1.498 1.607-1.509.233-.005.472 0 .705 0 .228-.005.315-.135.31-.352 0-.217-.098-.315-.315-.304-.244.005-.489.005-.733 0-.597-.011-.928-.337-.922-.923 0-.239-.109-.559.048-.7.136-.12.445-.043.679-.043.608-.006 1.21 0 1.818 0 .646 0 1.085.44 1.09 1.09.006.771 0 1.553 0 2.329zm-1.66 1.232l-.001-.272c0-.553 0-.553-.554-.532-.276.011-.428.152-.434.44-.005.228-.005.45 0 .678.006.391.18.494.744.51.418.011.206-.282.244-.445.022-.119-.005-.255 0-.38zm6.49-1.82c0 .83.011 1.667-.005 2.497-.011.64-.163 1.221-.782 1.563-.25.136-.52.212-.803.217-.624.01-1.248 0-1.872.01-.152 0-.185-.053-.18-.19.011-.227-.005-.45.006-.678a.791.791 0 01.776-.781c.282-.01.56-.005.841 0 .228 0 .353-.092.353-.336 0-.25-.12-.337-.347-.342-.38-.011-.76.043-1.134-.066-.646-.19-1.119-.727-1.135-1.394-.032-1.059-.01-2.117-.016-3.175 0-.12.038-.157.157-.152.445.005.885.01 1.33 0 .195-.005.168.103.168.223v2.387c0 .348.163.532.467.543.358.011.515-.136.515-.5 0-.802.006-1.611-.005-2.414 0-.19.049-.244.239-.239.396.016.798.022 1.194 0 .217-.01.25.07.244.26-.016.852-.01 1.71-.01 2.568zM1.917 16.14v-2.66c0-.868.532-1.41 1.406-1.4.57.005 1.14-.065 1.704.043.722.142 1.177.7 1.183 1.444.005.787 0 1.574 0 2.36 0 .989-.58 1.591-1.569 1.618a16.3 16.3 0 01-.895 0c-.136-.005-.195.038-.19.185.01.217.005.434 0 .65-.01.468-.342.804-.803.81-.272.005-.613.113-.787-.044-.163-.146-.044-.494-.049-.754-.005-.75 0-1.503 0-2.252zm1.639-1.33v.515c0 .614 0 .614.613.56.266-.022.391-.152.396-.418.006-.304-.01-.614.006-.918.032-.879-.13-.792-.847-.797-.13 0-.173.038-.173.168.01.293.005.591.005.89z" fill="#fff"/>
    <path d="M17.281 16.149c0-.722-.005-1.449.006-2.17 0-.169-.038-.24-.223-.234-.244.01-.57.081-.706-.038-.168-.158-.038-.494-.06-.755v-.054c0-.255-.08-.553.028-.743.108-.19.44-.07.673-.13.461-.12.809-.386 1.09-.755.196-.25.44-.429.755-.488.168-.033.271-.011.26.206-.016.304 0 .613-.005.923-.005.13.044.173.174.168.217-.006.434.005.651-.006.13-.005.174.044.168.174-.005.445-.005.885 0 1.33 0 .124-.032.19-.168.173-.027-.005-.054 0-.081 0-.24.022-.57-.108-.695.055-.12.152-.043.466-.043.71 0 1.477-.006 2.947.005 4.424 0 .206-.054.27-.26.255-.196-.017-.397 0-.597-.006-.587-.021-.972-.418-.972-1.004V16.15z" fill="#02B9EF"/>
  </g>
  <defs>
    <clipPath id="paytm-color-30px__clip0">
      <path fill="#fff" d="M0 0h30v30H0z"/>
    </clipPath>
  </defs>
</svg>
