<svg width="200" height="200" fill="none" xmlns="http://www.w3.org/2000/svg"><path d="M200 0H0v200h200V0z" fill="#000"/><path d="M121.115 68.588c2.236 1.24 6.268-2.56 4.711-4.921-2.355-2.12-7.146 2.6-4.711 4.92z" fill="#F8D329"/><path d="M91.29 93.116c-1.677 1.76-4.671 5.92-7.107 4-.519-1.36.64-2.84 1.238-4.04 7.865-9.882 15.77-19.764 23.635-29.645l-5.629.04c-3.913 3.48-24.035 36.326-29.384 33.885-3.314-1.96 14.692-20.603 15.57-22.883l-5.27-.04c-2.276 4.12-13.814 16.322-13.175 21.283 1.238 5.881 7.825 2.48 10.62-1.56-.639 1.76-.08 4.52 2.196 4.72 3.154.8 6.348-2.76 8.384-5.04-1.158 8.401 7.665 4.52 10.34.04-1.796 8.481 7.626 4.32 10.341.08-.919 8.281 7.106 4.32 10.22.32-1.198 3.76 2.036 6.041 5.43 3.76 2.635-1.52 14.852-17.642 17.127-20.123 1.118-1.16 2.755-3.4 4.512-2.24 2.994 2.08-13.854 19.363-15.89 23.004h5.31c4.352-5.241 13.534-19.804 19.403-23.164 8.544-2.32-13.494 20.923-14.413 23.164 1.717 0 3.394.04 5.111.04 3.393-3.281 16.888-25.485 20.64-22.484.759 3.72-7.745 10.282-9.142 14.682-3.713 6.161 1.717 10.402 7.306 6.441 8.424-6.48 17.207-25.524 8.783-34.485-5.07-5.361-18.325-2.24-16.688 6.28 2.395 5.042 9.262 1.521 9.821-3.08l-.279-.12c-2.156 6.041-11.898 5.841-7.306-1.64 6.587-6.561 16.768-1.64 16.129 7.721-.08 8.842-4.152 19.643-11.578 24.804-1.757 1.12-5.47.92-4.431-1.84 2.555-4.72 7.825-9.922 9.741-15.282 2.036-8.802-6.787-4.681-9.901-.48 2.036-9.402-7.426-3.801-10.341.36 1.438-3.521-.798-7.242-4.671-5.001-6.787 5.76-11.578 13.882-17.646 20.523-.878 1.6-4.711 3.44-4.112.2.159-.68.559-1.4.878-2.04 3.433-4.441 8.903-11.402 14.732-18.923-1.956.04-3.793.04-4.911.08-.599.76-1.157 1.52-1.756 2.24.559-3.52-4.272-2.68-6.428-1.68-7.785 2.68-12.656 10.802-16.449 17.803-1.677 2.12-4.192 5.36-7.066 4.36-2.795-2.12 14.732-20.403 15.65-22.723h-4.991c-3.872 3.76-16.249 25.724-21.08 22.603-.918-1.24.08-2.68 1.078-4.12 7.945-9.842 15.85-19.684 23.795-29.525h-5.829l-21.28 28.364c-.478.44-.878.92-1.237 1.36zm24.074 2.52c.679-4.28 13.415-22.163 18.006-19.763 1.517 3.28-7.306 12.322-9.222 15.562-1.039 1.68-9.303 9.562-8.784 4.201z" fill="#F8D329"/><path d="M45.498 104.556c-8.703 1.04-17.566-5.12-18.964-13.882 2.116.52 4.472-.04 6.468-1 1.797 1.24 4.232 1.44 6.268.52 6.588-2.16 14.253-18.643 7.905-23.524 4.791-2.12 10.18-3.72 15.171-1.36-7.106 4.72-10.38 14.442-14.093 21.683-1.637 3.2-2.914 7.522-5.909 9.842-7.705-1.36-4.67 5.001.959 1.32 12.017.56 16.608-20.243 24.473-26.844C63.145 79.672 61.19 89.634 55 97.115c-1.357-.24-3.034-.52-4.232.36-1.078.76.36 1.88 1.318 1.84 1.238.4 2.795-1.16 3.913-.68 7.146.64 10.02-5.88 14.652-11.202 9.86-12.122 22.916-37.326 41.042-24.284.08-.04.199-.12.04-.32-1.158-1.44-3.154-2.84-4.711-3.56-7.107-3.56-15.331.08-21.16 5.36-8.025 5.562-22.318 35.246-29.744 33.046 10.58-7.761 12.616-21.963 18.445-32.925.44-.84.879-1.16 1.318-1.8-.28-.68-1.797.36-2.476.72-12.057 6.44-17.127 32.685-29.384 33.565 9.422-8.001 12.217-22.084 19.883-31.485 8.184.08 7.306-6.841-.04-1.52-5.67-4.121-14.014-3.16-19.803.4-11.338-.96-20.241 12.962-19.443 23.484-8.663-7.562.12-19.244 7.626-24.164 13.694-9.482 33.536-11.482 47.67-1.76l.319-.32c-15.69-12.323-41.761-9.762-55.216 4.8-5.39 6.281-9.222 18.403-.32 23.324.96 7.401 7.427 14.562 15.092 15.602 4.192.56 8.265.16 12.736.32l128.197-.2c0-.4 0-.8.04-1.2-75.138.04-60.166 0-135.264.04zM43.103 68.63c.878-.56 1.797-1 2.715-1.4 6.707 4.36-3.234 25.684-11.379 21.724 3.354-2.76 6.029-6.881 7.227-10.922.08-.6.718-1.68.04-1.8-1.478 4.32-4.392 9.241-8.424 11.761-4.232-7.6 3.872-15.482 9.821-19.363zM26.215 87.793c-.4-9.201 6.348-21.083 16.09-21.843-7.107 4.8-15.451 13.762-10.301 22.644-1.677.96-3.833 1.48-5.63.56-.08-.44-.119-.92-.159-1.36z" fill="#F8D329"/><path d="M92.289 68.868c3.034.4 6.867-6.4 1.796-5.64-2.195.44-5.15 4.76-1.796 5.64z" fill="#F8D329"/><path d="M124.625 151.204h18.605v-11.882h-7.506v-26.364h-11.099v38.246zm-40.523-38.286l-11.099.04.04 13.442-4.99.04v-13.482H56.914v38.206h11.219v-15.202l4.95.04v15.162h11.06v-38.246h-.04zm20.322 38.246h18.445v-11.802h-7.306v-26.404h-11.139v38.206zm-4.831-38.206h-10.9v38.206h10.9v-38.206z" fill="#fff"/></svg>