<svg width="30" height="30" fill="none" xmlns="http://www.w3.org/2000/svg">
  <g clip-path="url(#webmoney-color-30px__clip0)">
    <path d="M28 0H2a2 2 0 00-2 2v26a2 2 0 002 2h26a2 2 0 002-2V2a2 2 0 00-2-2z" fill="#006CB4"/>
    <path d="M14.956 5.993c1.432 0 2.794.327 4.016.912.192.086.384.19.576.293l-.838.74-1.257-1.291L15.29 8.54l-1.275-1.36-3.981 3.529 2.55 2.77-.996.86 2.514 2.77-.995.86 3.598 3.941 2.128-1.927 1.852 2.066c-.367.275-.768.55-1.204.791a9.22 9.22 0 01-4.506 1.17c-5.046 0-9.149-4.043-9.149-9.017-.017-4.938 4.086-9 9.131-9zm-1.676 8.45l2.183-1.929 1.955 2.152-2.183 1.927-1.955-2.15zm1.553 3.717L17 16.215l1.972 2.151-2.183 1.928-1.956-2.134zm-3.106-7.383l2.181-1.927L15.866 11l-2.183 1.929-1.955-2.152zm3.998-1.032l1.623-1.446 1.467 1.6-1.625 1.463-1.466-1.617zm2.898 6.625l1.623-1.446 1.467 1.617-1.624 1.447-1.466-1.618zm1.431 3.252l1.624-1.445 1.466 1.6-1.623 1.462-1.467-1.617zm.664-7.435l1.083-.963.977 1.067-1.082.964-.979-1.068zM19.32 9.004l1.083-.98.978 1.084-1.083.964-.978-1.068zm2.777 6.368l1.082-.964.994 1.067-1.1.964-.976-1.067zm-4.871-2.393l1.623-1.445 1.467 1.6-1.623 1.446-1.467-1.6z" fill="#fff"/>
  </g>
  <defs>
    <clipPath id="webmoney-color-30px__clip0">
      <path fill="#fff" d="M0 0h30v30H0z"/>
    </clipPath>
  </defs>
</svg>
