<svg width="30" height="30" fill="none" xmlns="http://www.w3.org/2000/svg">
  <g clip-path="url(#sberbank-color-30px__clip0)">
    <path d="M28 0H2a2 2 0 00-2 2v26a2 2 0 002 2h26a2 2 0 002-2V2a2 2 0 00-2-2z" fill="#2F9A41"/>
    <path d="M22.535 9.623a14.92 14.92 0 01-.561-.818l-10.486 6.119-5.06-2.948a3.625 3.625 0 00-.212.99l5.32 3.13 10.999-6.473z" fill="#fff"/>
    <path d="M11.489 17.23l-5.437-3.17a2.45 2.45 0 00-.049.593c0 2.424.948 4.75 2.636 6.464A8.926 8.926 0 0015 23.794a8.926 8.926 0 006.362-2.677 9.216 9.216 0 002.635-6.464 9.09 9.09 0 00-.974-4.16L11.489 17.23z" fill="#fff"/>
    <path d="M21.242 8.042a10.008 10.008 0 00-.806-.694l-8.947 5.277-4.315-2.503c-.146.272-.293.57-.464.892l4.73 2.774 9.802-5.746z" fill="#fff"/>
    <path d="M19.559 6.751a8.478 8.478 0 00-1.055-.544l-7.016 4.105L8.344 8.51c-.21.214-.422.495-.633.767l3.754 2.181 8.094-4.707z" fill="#fff"/>
  </g>
  <defs>
    <clipPath id="sberbank-color-30px__clip0">
      <path fill="#fff" d="M0 0h30v30H0z"/>
    </clipPath>
  </defs>
</svg>
