<svg width="295" height="50" fill="none" xmlns="http://www.w3.org/2000/svg"><path d="M289.608 3.8C285.849 1.276 280.16 0 272.702 0h-19.531l-7.261 38.663h-25.586l1.644-8.771h15.413l1.826-9.852-15.404.021 1.649-8.732h15.876L243.44.003H211.2l-6.893 36.674h-11.832L199.415 0h-16.853l-6.893 36.674h-11.526L171.089 0h-16.844l-7.27 38.663h-25.77l1.629-8.772h15.474l1.829-9.796-15.46-.015 1.64-8.75h16.054L144.47 0H44.003l-5.718 30.637L26.897 0H9.41L0 50h16.699l5.696-31.482L33.445 50h59.848l7.277-38.674h9.36L102.654 50h157.471l4.565-24.413L272.076 50h16.707l-7.653-19.948 1.751-.37c3.857-.81 6.864-2.552 8.959-5.163 2.092-2.634 3.158-6.017 3.158-10.08 0-4.73-1.764-8.211-5.394-10.641l.004.003zM78.762 38.664H53.2l1.651-8.771h16.034l1.817-9.88H56.823l1.53-8.68h25.524l-5.12 27.331h.005zm197.08-16.841c-1.68 1.152-4.116 1.713-7.448 1.713h-3.302l2.533-13.418h2.43c2.766 0 4.783.435 6.174 1.322 1.087.695 2.379 2.072 2.379 4.674-.004 3.148-1.508 4.839-2.771 5.708h.005z" fill="#769E43"/></svg>