<svg width="305" height="72" fill="none" xmlns="http://www.w3.org/2000/svg"><path d="M52.562 0C23.506 0 0 13.741 0 30.8c0 7.226 4.252 13.86 11.457 19.19-3.544-4.383-5.551-9.24-5.551-14.452 0-17.65 23.032-31.984 51.38-31.984 18.308 0 34.372 5.923 43.467 14.926C92.603 7.58 74.059 0 52.563 0z" fill="#97C24B"/><path d="M47.94 39.505c2.136 0 3.857-.45 5.16-1.348 1.512-.993 2.268-2.436 2.268-4.328 0-3.5-1.147-6.74-3.44-9.72-2.295-2.98-5.24-5.226-8.837-6.74-2.502-1.039-5.292-1.56-8.367-1.56-6.204 0-11.3 2.01-15.288 6.03-3.988 4.02-5.983 8.87-5.983 14.544 0 5.724 2.085 10.536 6.256 14.438 4.17 3.902 9.384 5.853 15.64 5.853 3.336 0 6.542-.473 9.618-1.419 3.649-1.088 6.308-2.671 7.977-4.753.938-1.135 1.407-2.27 1.407-3.405 0-2.98-1.669-4.47-5.005-4.47-.73 0-2.607.627-5.63 1.88-3.024 1.254-5.604 1.88-7.742 1.88-2.555 0-4.718-.59-6.49-1.773-1.774-1.182-2.79-2.885-3.05-5.109H47.94zM29.172 27.054c1.511-1.253 3.387-1.88 5.63-1.88 2.19 0 4.053.638 5.591 1.915 1.537 1.277 2.386 2.91 2.541 4.896H26.278c.418-2.033 1.381-3.677 2.894-4.931zm33.235 23.662c3.857 3.926 8.966 5.888 15.327 5.888 3.805 0 6.985-.568 9.54-1.703 3.545-1.607 5.318-3.57 5.318-5.889 0-1.37-.457-2.541-1.369-3.511-.913-.969-2.099-1.454-3.558-1.454-.99 0-2.242.284-3.753.85-1.512.569-3.155.852-4.926.852-3.024 0-5.37-.945-7.038-2.838-1.46-1.703-2.19-3.973-2.19-6.81 0-2.696.704-4.943 2.112-6.74 1.563-1.986 3.78-2.98 6.647-2.98 1.771 0 3.452.296 5.044.886 1.59.592 2.88.887 3.87.887 1.512 0 2.763-.473 3.754-1.419.99-.945 1.486-2.104 1.486-3.476 0-2.648-1.72-4.635-5.161-5.96-2.555-.945-5.553-1.418-8.993-1.418-6.57 0-11.835 1.904-15.797 5.711-3.963 3.808-5.943 8.716-5.943 14.722 0 5.816 1.877 10.618 5.63 14.402zm36.438.07c4.066 4.02 9.253 6.03 15.561 6.03 6.36 0 11.547-1.986 15.562-5.96 3.857-3.877 5.787-8.725 5.787-14.543 0-5.865-1.955-10.76-5.865-14.687-3.91-3.925-9.071-5.888-15.483-5.888-6.308 0-11.456 1.975-15.444 5.924-3.988 3.95-5.982 8.833-5.982 14.65-.001 5.771 1.954 10.596 5.864 14.474zm9.148-21.143c1.512-2.033 3.649-3.05 6.412-3.05 2.71 0 4.822 1.04 6.335 3.121 1.355 1.798 2.032 3.973 2.032 6.527 0 2.65-.652 4.85-1.955 6.598-1.512 2.082-3.649 3.122-6.412 3.122-2.711 0-4.822-1.04-6.334-3.122-1.356-1.797-2.033-3.996-2.033-6.598 0-2.6.651-4.8 1.955-6.598z" fill="#fff"/><path d="M153.508 14.745h5.63c5.943 0 8.915 2.247 8.915 6.74 0 4.587-2.972 6.881-8.915 6.881h-5.63V14.745zm0 33.167V39.08h8.759c6.15 0 10.999-1.536 14.545-4.611 3.545-3.075 5.318-7.402 5.318-12.984 0-5.628-1.955-10.003-5.865-13.125-3.702-2.98-8.708-4.47-15.015-4.47h-11.73c-3.389 0-5.735.614-7.038 1.842-1.304 1.228-1.955 3.378-1.955 6.448v35.71c0 5.573 2.163 8.36 6.491 8.36 4.326-.001 6.49-2.78 6.49-8.338zm44.42-18.056c1.504-1.94 3.553-2.909 6.149-2.909 2.645 0 4.694.97 6.147 2.909 1.245 1.703 1.868 3.808 1.868 6.314 0 2.508-.623 4.636-1.868 6.386-1.453 1.986-3.502 2.98-6.147 2.98-2.647 0-4.723-.993-6.227-2.98-1.298-1.75-1.946-3.878-1.946-6.386 0-2.458.675-4.564 2.024-6.314zm20.732 26.393c4.171 0 6.256-2.795 6.256-8.387v-23.1c0-5.543-2.085-8.315-6.256-8.315-2.555 0-4.563 1.206-6.022 3.619-2.555-2.743-5.942-4.115-10.166-4.115-5.787 0-10.556 2.128-14.311 6.386-3.546 3.973-5.317 8.632-5.317 13.977 0 5.297 1.693 9.909 5.083 13.834 3.701 4.258 8.393 6.386 14.076 6.386 4.483 0 8.028-1.442 10.635-4.328 1.251 2.695 3.258 4.043 6.022 4.043zm35.582-35.26L246.5 39.292l-7.195-17.312c-.782-1.939-1.485-3.24-2.111-3.902-1.044-1.088-2.477-1.632-4.302-1.632-1.773 0-3.245.544-4.418 1.632-1.173 1.088-1.759 2.434-1.759 4.042a7.37 7.37 0 0 0 .704 3.193l12.741 27.022-5.208 10.279c-.696 1.457-1.043 2.75-1.043 3.881 0 1.694.573 3.035 1.72 4.023 1.146.987 2.659 1.481 4.536 1.481 2.241 0 4.092-1.538 5.552-4.611l19.315-41.505c.677-1.465 1.017-2.79 1.017-3.973 0-3.642-2.086-5.463-6.256-5.463-2.397 0-4.248 1.514-5.551 4.54zm42.878 24.05h-12.487l16.784-19.571c1.711-1.99 2.567-3.67 2.567-5.043 0-1.515-.653-2.474-1.955-2.876-1.304-.403-3.311-.604-6.022-.604h-20.253c-5.371 0-8.055 1.727-8.055 5.179 0 3.501 2.659 5.25 7.977 5.25h10.869l-17.359 20.362c-1.251 1.466-1.877 2.933-1.877 4.399 0 2.366 2.215 3.547 6.646 3.547h23.069c5.318 0 7.977-1.75 7.977-5.25 0-3.594-2.627-5.392-7.881-5.392z" fill="#97C24B"/></svg>