<svg width="70" height="68" fill="none" xmlns="http://www.w3.org/2000/svg"><path d="M53.482 40.27H28.213l13.961-7.693a2.993 2.993 0 0 0 1.175-4.083l-2.081-3.69c-.818-1.444-2.672-1.963-4.13-1.156l-5.808 3.2c.683-1.355 1.108-2.684 1.265-3.975.262-2.149-.23-4.088-1.426-5.608-1.942-2.471-5.333-3.293-8.247-1.998a1.01 1.01 0 0 0-.514 1.34c.232.511.839.739 1.355.51 2.048-.91 4.428-.338 5.787 1.392 1.952 2.484 1.203 6.37-1.995 10.419l-1.239.682-.896-1.587a3.837 3.837 0 0 0-.88-1.06c.218-1.29.825-2.959 1.496-4.049a1.007 1.007 0 0 0-.342-1.393 1.032 1.032 0 0 0-1.41.339c-.722 1.173-1.348 2.798-1.663 4.236a3.893 3.893 0 0 0-2.498.437l-.354.196c-.141-2.926.318-5.374 1.351-7.14a1.008 1.008 0 0 0-.373-1.386 1.032 1.032 0 0 0-1.402.37c-1.371 2.343-1.894 5.453-1.558 9.248l-1.238.683c-5.232-3.846-10.352-4.632-13.787-2.084C.276 28.264-.66 31.528.484 34.357 1.653 37.243 4.575 39 8.601 39.37l-5.945 3.276a2.987 2.987 0 0 0-1.172 4.08l2.08 3.692a3.045 3.045 0 0 0 2.657 1.536c.5 0 1.006-.121 1.473-.377v-.001l6.701-3.692v16.514c0 1.986 1.634 3.6 3.642 3.6h34.291c2.009 0 3.643-1.614 3.643-3.6V42.731c0-1.357-1.117-2.46-2.49-2.46zM19.31 42.855l-3.039-5.388 9.253-5.099 3.039 5.389-4.627 2.55a1.024 1.024 0 0 0-.435.239l-4.191 2.31zM38.138 25.42a.99.99 0 0 1 1.34.375l2.079 3.686a.973.973 0 0 1-.382 1.326L30.354 36.77l-3.038-5.388 10.822-5.962zm-17.016 2.886a1.834 1.834 0 0 1 1.4-.158c.476.134.869.44 1.107.863l.896 1.587-9.253 5.098-.897-1.592a1.777 1.777 0 0 1-.226-1.016 1.83 1.83 0 0 1 .066-.364c.135-.47.445-.857.873-1.092l6.034-3.326zM2.388 33.603c-.801-1.979-.141-4.266 1.605-5.56 2.515-1.866 6.4-1.273 10.574 1.553l-.476.263a3.827 3.827 0 0 0-1.672 1.824c-1.354-.421-2.57-.653-4.312-.841a1.023 1.023 0 0 0-1.131.897 1.017 1.017 0 0 0 .907 1.118c1.917.208 3.044.466 4.242.863.062.476.216.94.459 1.371l.897 1.591-1.12.617c-5.088.55-8.81-.823-9.973-3.696zm4.309 16.203a1.008 1.008 0 0 1-1.342-.374l-2.08-3.691a.968.968 0 0 1 .38-1.322l9.484-5.226c.03-.015.059-.03.087-.048l1.254-.691 3.038 5.389-2.58 1.421-.016.01-8.225 4.532zm9.749 14.593V46.755l8.087-4.457h4.729v8.98c0 .56.459 1.013 1.025 1.013a1.02 1.02 0 0 0 1.025-1.014v-8.979h7.741v23.674h-7.74v-9.89c0-.56-.46-1.015-1.026-1.015a1.02 1.02 0 0 0-1.025 1.014v9.891H18.037a1.584 1.584 0 0 1-1.591-1.573zm37.474 0c0 .868-.714 1.573-1.592 1.573H41.105V42.298h12.378c.237 0 .438.198.438.433v21.668z" fill="#FFC255"/><path d="M49.722 17.555c.014.125 1.315 12.522-3.075 17.227a1.006 1.006 0 0 0 .058 1.433c.197.18.447.269.695.269.276 0 .552-.11.754-.327 5.015-5.375 3.667-18.274 3.607-18.82a1.023 1.023 0 0 0-1.13-.9c-.563.061-.97.561-.91 1.118zm9.377-1.507c-1.735 2.627-2.286 4.97-2.308 5.07a1.013 1.013 0 0 0 1 1.237c.467 0 .89-.318.999-.787.005-.021.512-2.142 2.066-4.471 2.044-3.065 4.854-5.037 8.352-5.863.551-.13.891-.677.76-1.221a1.026 1.026 0 0 0-1.236-.751c-3.992.942-7.323 3.289-9.633 6.786zm-21.032-5.57a.984.984 0 0 1 0 .203l-.242 2.95c-.035.313-.102 1.013.476 1.446.588.44 1.278.164 1.584.042l2.74-1.13a.586.586 0 0 1 .237-.002l2.763 1.136c.173.07.485.194.832.194.24 0 .498-.06.738-.24.577-.431.51-1.132.475-1.445l-.237-2.946a1.131 1.131 0 0 1-.003-.206l1.991-2.372c.23-.258.684-.781.47-1.459-.217-.688-.923-.861-1.225-.935l-3.027-.742-1.592-2.628c-.146-.244-.535-.893-1.295-.895h-.003c-.758 0-1.15.647-1.298.89v.001l-1.58 2.608-.015.024-3.028.742c-.301.075-1.007.249-1.223.937-.213.677.256 1.218.47 1.457l1.992 2.37zm2.38-3.562c.684-.167.931-.502 1.143-.86l1.157-1.911 1.168 1.927c.211.35.456.679 1.13.844l2.249.55-1.448 1.726c-.476.556-.495 1.172-.458 1.651l.166 2.055-1.899-.781a2.52 2.52 0 0 0-1.811-.002l-1.902.783.169-2.058c.033-.434.023-1.076-.453-1.641l-1.456-1.732 2.246-.551zm29.024 24.502c.216-.24.686-.78.474-1.458-.216-.69-.925-.864-1.228-.938l-3.022-.742-1.595-2.633c-.148-.244-.54-.89-1.298-.89h-.004c-.756.002-1.145.646-1.293.892l-1.582 2.606-.016.025-3.022.742c-.303.074-1.012.248-1.228.938-.212.678.258 1.217.474 1.457l1.99 2.37c.003.027.006.087-.003.202l-.241 2.95c-.033.311-.098 1.017.481 1.448.587.435 1.274.16 1.578.04l2.741-1.13a.604.604 0 0 1 .241-.003l2.759 1.137c.173.069.484.193.831.193.24 0 .497-.06.737-.238.58-.43.513-1.136.481-1.448l-.241-2.945a1.122 1.122 0 0 1-.003-.206l1.99-2.37zm-3.573 1.081c-.476.556-.495 1.173-.458 1.653l.168 2.054-1.902-.784a2.534 2.534 0 0 0-1.81 0l-1.902.784.169-2.059c.036-.475.017-1.092-.452-1.64l-1.454-1.733 2.25-.551c.678-.168.923-.502 1.135-.858l1.16-1.913 1.118 1.843.041.07c.211.356.457.69 1.137.858l2.248.551-1.448 1.725zm-6.836-22.361c2.829 0 5.13-2.273 5.13-5.067 0-2.796-2.301-5.071-5.13-5.071-2.828 0-5.13 2.275-5.13 5.07 0 2.795 2.302 5.068 5.13 5.068zm0-8.11c1.698 0 3.08 1.365 3.08 3.043 0 1.676-1.382 3.039-3.08 3.039-1.698 0-3.079-1.363-3.079-3.04s1.381-3.042 3.08-3.042z" fill="#FFC255"/></svg>