<svg id="Layer_1" xmlns="http://www.w3.org/2000/svg" viewBox="0 0 200 200"><style>.st4{fill:#fff}.st9{fill:#f01f29}</style><path class="st9" d="M111.11 0H200v200H0V0h63.33c-.24.5-.57.98-.71 1.5-8.34 31.62-17.1 63.13-24.71 94.92-2.31 9.67-3.26 20.41-1.62 30.11 3.65 21.5 22.9 35.59 46.39 35.83 17.77.18 35.54.18 53.3-.17 8.29-.16 16.65-.82 24.79-2.3 3.01-.55 6.88-3.6 7.91-6.41 2.97-8.09 4.69-16.63 6.81-24.68-1.27-5.4-5.17-5.55-9.21-5.55-22.03-.03-44.05.05-66.08-.18-11.23-.12-16.66-6.34-15.38-17.49.67-5.85 1.83-11.68 3.3-17.38C95.7 58.79 103.44 29.4 111.11 0z"/><path class="st4" d="M111.11 0c-7.67 29.4-15.41 58.79-22.97 88.21-1.47 5.7-2.63 11.54-3.3 17.38-1.28 11.15 4.15 17.37 15.38 17.49 22.02.23 44.05.15 66.08.18 4.04 0 7.94.15 9.21 5.55-2.12 8.04-3.84 16.59-6.81 24.68-1.03 2.81-4.9 5.86-7.91 6.41-8.14 1.48-16.5 2.14-24.79 2.3-17.76.34-35.54.35-53.3.17-23.49-.24-42.74-14.33-46.39-35.83-1.65-9.7-.7-20.45 1.62-30.11 7.61-31.79 16.37-63.3 24.71-94.92.14-.53.47-1 .71-1.5C79.26 0 95.19 0 111.11 0z"/></svg>