<svg width="50" height="50" fill="none" xmlns="http://www.w3.org/2000/svg"><rect x="50" y="50" width="50" height="50" rx="25" transform="rotate(-180 50 50)" fill="url(#paint0_radial)"/><rect x="50" y="50" width="50" height="50" rx="25" transform="rotate(-180 50 50)" fill="#6C963C"/><path d="M26.643 31.91l-3.272.638L17.95 4.742A3.332 3.332 0 0 1 20.583.833l6.06 31.078z" fill="#CDCDCD"/><path d="M.832 5h28.333v24.925H.832V5z" fill="#A4E276"/><path d="M4.168 8.261h24.167v18.33H4.168V8.262z" fill="#ADDFBB"/><path d="M.832 5h9.167a9.166 9.166 0 0 1-9.167 9.165V5zm0 15.76a9.166 9.166 0 0 1 9.167 9.165H.832v-9.166z" fill="#A4E276"/><path d="M30.835 17.623a5.833 5.833 0 1 1-11.667-.001 5.833 5.833 0 0 1 11.667.001z" fill="#64C37D"/><path d="M28.332 5h20.833v24.997H28.332V5z" fill="#F7BA61"/><path d="M38.332 15.956a2.5 2.5 0 1 1 0-5 2.5 2.5 0 0 1 0 5zm0-3.333a.833.833 0 1 0 0 1.667.833.833 0 0 0 0-1.667zm5.836 11.665a2.5 2.5 0 1 1 0-5 2.5 2.5 0 0 1 0 5zm0-3.333a.833.833 0 1 0 0 1.667.833.833 0 0 0 0-1.667zM37.5 24.288a.834.834 0 0 1-.7-1.283l7.5-11.665a.834.834 0 1 1 1.402.9l-7.5 11.666a.834.834 0 0 1-.702.382zm-5 1.542h1.666v1.667H32.5V25.83zm0-3.332h1.666v1.666H32.5v-1.666zm0-3.333h1.666v1.666H32.5v-1.666zm0-3.333h1.666v1.666H32.5v-1.666zm0-3.333h1.666v1.666H32.5V12.5zm0-3.333h1.666v1.666H32.5V9.166zM32.5 5h1.666v2.5H32.5V5z" fill="#EA9D2D"/><path d="M30.2.833a3.333 3.333 0 0 1 2.634 3.91l-5.422 27.806-3.271-.638L30.2.833z" fill="#EBEBEB"/><path d="M24.168 32.554l3.565 12.847a5.016 5.016 0 1 0 1.952-5.43l-2.305-8.308-3.212.891zm6.777 11.955a1.666 1.666 0 1 1 3.21-.892 1.666 1.666 0 0 1-3.21.892z" fill="#4799CF"/><path d="M22.622 31.738l-2.305 8.309a5 5 0 1 0 1.951 5.428l3.566-12.846-3.212-.891zm-5.617 14.006a1.666 1.666 0 1 1 .891-3.211 1.666 1.666 0 0 1-.891 3.211z" fill="#6CBAE5"/><path d="M27.374 31.788a2.5 2.5 0 1 1-5 0 2.5 2.5 0 0 1 5 0z" fill="#E4E4E2"/><path d="M49.167 4.091H33.724A4.166 4.166 0 0 0 30.359.016a.833.833 0 0 0-.977.657l-.666 3.417H22.07L21.403.673a.833.833 0 0 0-.977-.657A4.166 4.166 0 0 0 17.05 4.09H.833A.833.833 0 0 0 0 4.925V29.92c0 .46.373.834.833.834H21.72c-.186.509-.23 1.06-.123 1.592L19.798 38.8A5.834 5.834 0 1 0 23.07 45.7l1.904-6.86 1.906 6.858a5.852 5.852 0 1 0 3.273-6.9l-1.82-6.565.288-1.48h20.546c.46 0 .833-.373.833-.833V4.925a.833.833 0 0 0-.833-.834zm-18.334-2.14c.91.545 1.382 1.6 1.183 2.641L28.833 20.92c-.008.03-.015.06-.02.09l-1.63 8.384a3.384 3.384 0 0 0-.568-.435.865.865 0 0 0-.113-.062 3.267 3.267 0 0 0-.856-.343l5.187-26.603zm-5.96 31.503a1.666 1.666 0 1 1 1.667-1.667v.016a1.667 1.667 0 0 1-1.666 1.65zM9.912 25.755a10.107 10.107 0 0 0-2.005-2.905A9.95 9.95 0 0 0 5 20.844v-6.842a9.8 9.8 0 0 0 4.912-4.911h17.833l-.446 2.287a6.655 6.655 0 0 0-6.555 11.364c.024.025.05.048.077.07a6.576 6.576 0 0 0 3.963 1.467l-.288 1.476H9.91zm15.193-3.137H25a4.937 4.937 0 0 1-3.062-1.048l-.006-.006-.005-.004a.703.703 0 0 0-.068-.06A4.92 4.92 0 0 1 20 17.622a5.005 5.005 0 0 1 5-5c.679 0 1.35.14 1.972.412l-1.868 9.583zm-5.152-20.67l.417 2.143h-1.652a2.489 2.489 0 0 1 1.235-2.143zM1.667 29.088V5.758H28.39l-.325 1.666H9.364a.798.798 0 0 0-.207.042.802.802 0 0 0-.111.025.802.802 0 0 0-.115.077.885.885 0 0 0-.148.102.92.92 0 0 0-.055.083.821.821 0 0 0-.123.19l-.006.009a8.334 8.334 0 0 1-4.737 4.736l-.009.006a.813.813 0 0 0-.18.116.894.894 0 0 0-.092.062.879.879 0 0 0-.09.13.88.88 0 0 0-.088.132.82.82 0 0 0-.025.108.81.81 0 0 0-.045.212v7.938a.791.791 0 0 0 .043.21.804.804 0 0 0 .024.108.812.812 0 0 0 .09.133.875.875 0 0 0 .088.13c.03.022.061.043.093.062a.813.813 0 0 0 .18.116l.009.006a8.315 8.315 0 0 1 2.865 1.871 8.427 8.427 0 0 1 1.872 2.865l.005.01c.008.018.021.032.03.05a.805.805 0 0 0 .132.196c.02.021.042.041.065.06a.836.836 0 0 0 .257.154.821.821 0 0 0 .29.06h14.79l-.23 1.183c-.36.102-.7.266-1.004.483H1.667v-.001zm19.796 16.165a4.167 4.167 0 1 1-2.899-5.135c.456.129.886.333 1.273.605a.835.835 0 0 0 1.282-.457l1.65-5.916c.332.274.715.48 1.126.606l.214.771-2.646 9.526zm7.89-4.425a.827.827 0 0 0 .76-.102 4.195 4.195 0 0 1 1.268-.604 4.167 4.167 0 1 1-2.894 5.132l-2.72-9.78c0-.01-.004-.02-.007-.031l-.118-.421a3.315 3.315 0 0 0 1.506-.813l1.685 6.06c.072.259.266.468.52.56zm18.98-11.74H28.941l1.482-7.627a6.502 6.502 0 0 0 1.244-3.838 6.705 6.705 0 0 0-.193-1.54L32.5 10.82v.013h1.667V9.166h-1.345l.325-1.667h1.02V5.758h14.166v23.33z" fill="#303344"/><path d="M30.092 44.807a2.499 2.499 0 1 0 4.818-1.336 2.504 2.504 0 0 0-3.075-1.741 2.5 2.5 0 0 0-1.74 3.077h-.003zm1.683-1.084a.83.83 0 0 1 1.526.19.833.833 0 1 1-1.528-.187l.002-.003zM18.121 41.73a2.499 2.499 0 1 0-1.337 4.816 2.499 2.499 0 0 0 1.337-4.816zm.133 2.631a.833.833 0 1 1-.58-1.023.835.835 0 0 1 .584 1.026l-.004-.003zm20.078-28.405a2.5 2.5 0 1 0 0-5 2.5 2.5 0 0 0 0 5zm0-3.333a.833.833 0 1 1 0 1.667.833.833 0 0 1 0-1.667zm3.336 9.165a2.5 2.5 0 1 0 5 0 2.5 2.5 0 0 0-5 0zm3.333 0a.833.833 0 1 1-1.667 0 .833.833 0 0 1 1.667 0zm-7.95 2.368a.833.833 0 0 0 1.15-.25l7.5-11.665a.832.832 0 1 0-1.401-.9l-7.5 11.665a.833.833 0 0 0 .25 1.15zM32.5 25.831h1.666v1.666H32.5v-1.666zm0-3.333h1.666v1.666H32.5v-1.666zm0-3.333h1.666v1.666H32.5v-1.666zm0-3.333h1.666v1.666H32.5v-1.667zm0-3.333h1.666v1.666H32.5V12.5z" fill="#303344"/><defs><radialGradient id="paint0_radial" cx="0" cy="0" r="1" gradientUnits="userSpaceOnUse" gradientTransform="rotate(135 39.645 45.71) scale(70.7107)"><stop stop-color="#9D2777"/><stop offset=".615" stop-color="#731A56"/></radialGradient></defs></svg>