<svg fill="none" height="20" width="20" xmlns="http://www.w3.org/2000/svg"><g fill="#008be2" opacity=".7"><path d="m18.438 14.55v-12.207h-3.458v-.586a1.76 1.76 0 0 0 -1.757-1.757h-6.446a1.76 1.76 0 0 0 -1.757 1.758v.586h-3.457v12.205l-1.563 2.344v3.107h20v-3.107l-1.563-2.344zm-12.248-12.793c0-.323.263-.586.586-.586h6.446c.323 0 .586.263.586.586v9.453a.588.588 0 0 1 -.586.586h-6.445a.587.587 0 0 1 -.586-.586v-9.452zm-3.456 1.759h2.286v7.695c0 .97.788 1.758 1.757 1.758h6.446a1.76 1.76 0 0 0 1.757-1.758v-7.695h2.286v10.624h-14.532zm-.272 11.796h15.076l.781 1.172h-16.638zm5.194 3.516h-6.484v-1.172h6.484zm3.516 0h-2.344v-1.172h2.344zm7.656 0h-6.484v-1.172h6.484z"/><path d="m12.057 6.06a9.419 9.419 0 0 1 -1.544-2.06l-.513-.922-.512.924a9.422 9.422 0 0 1 -1.545 2.06l-.408.412.41.412a9.42 9.42 0 0 1 1.543 2.06l.512.923.513-.924a9.419 9.419 0 0 1 1.544-2.06l.41-.411-.41-.413zm-2.057 1.485a10.587 10.587 0 0 0 -.837-1.072c.302-.34.582-.698.837-1.073.256.375.536.733.838 1.073-.302.339-.582.697-.838 1.072z" opacity=".7"/></g></svg>