<svg width="20" height="20" fill="none" xmlns="http://www.w3.org/2000/svg"><g opacity=".7"><path d="M19.834 3.98a1.165 1.165 0 0 0-.718-.543l-7.345-1.89a1.149 1.149 0 0 0-.888.13 1.18 1.18 0 0 0-.537.73l-.392 1.57-2.455-2.609a1.156 1.156 0 0 0-1.657-.039L.362 6.642A1.19 1.19 0 0 0 0 7.475c-.007.318.108.619.324.849l4.715 5.01v4.477c0 .655.526 1.189 1.172 1.189h7.578c.646 0 1.172-.534 1.172-1.19v-.473l.64.165a1.16 1.16 0 0 0 .888-.13 1.18 1.18 0 0 0 .536-.73l2.939-11.76c.077-.308.03-.628-.13-.901zM5.04 5.679v5.934l-3.867-4.11 5.48-5.312 2.163 2.3H6.211c-.646 0-1.172.533-1.172 1.188zm8.75 12.133H6.21V5.678h7.578v12.133zm2.1-1.461l-.928-.24V5.678c0-.655-.526-1.189-1.172-1.189h-2.754l.447-1.79 7.346 1.89-2.938 11.76z"/><path d="M12.147 12.81c.439-.42.65-1.055.564-1.699-.08-.613-.424-1.138-.92-1.407a1.533 1.533 0 0 0-1.793.214 1.533 1.533 0 0 0-1.794-.213c-.495.268-.839.793-.92 1.406-.085.644.126 1.28.564 1.7l.012.01 1.747 1.587a.58.58 0 0 0 .782 0l1.747-1.586.011-.011zm-.8-.868l-1.35 1.225-1.349-1.225c-.16-.157-.237-.414-.202-.673.03-.234.146-.427.31-.515a.429.429 0 0 1 .203-.056c.212 0 .442.203.453.58a.59.59 0 0 0 .586.577.59.59 0 0 0 .586-.577c.01-.377.24-.58.453-.58.066 0 .135.02.203.056.163.088.279.28.31.515.034.26-.043.516-.203.673zM7.813 7.899a.59.59 0 0 0 .585-.595.59.59 0 0 0-.585-.595.59.59 0 0 0-.586.595.59.59 0 0 0 .585.595zm4.375 8.88a.59.59 0 0 0 .585-.594.59.59 0 0 0-.585-.595.59.59 0 0 0-.586.595.59.59 0 0 0 .585.595z"/></g></svg>