<svg width="50" height="50" fill="none" xmlns="http://www.w3.org/2000/svg"><rect x="50" y="50" width="50" height="50" rx="25" transform="rotate(-180 50 50)" fill="url(#paint0_radial)"/><rect x="50" y="50" width="50" height="50" rx="25" transform="rotate(-180 50 50)" fill="#993679"/><path d="M15.242 24.193v-5.645c0-5.344 4.343-9.677 9.7-9.677 5.357 0 9.7 4.333 9.7 9.677v5.645h-19.4z" fill="#D3A06C"/><path d="M24.945 8.87c-.273 0-.54.02-.808.041 4.977.411 8.891 4.565 8.891 9.637v5.645h1.617v-5.645c0-5.344-4.343-9.677-9.7-9.677z" fill="#B27946"/><path d="M21.711 42.742h17.783l-1.517-4.54a4.847 4.847 0 0 0-3.734-3.231l-6.065-1.1H21.71l-6.066 1.1a4.847 4.847 0 0 0-3.734 3.23l-.708 3.211v1.33H21.71z" fill="#92E0C0"/><path d="M21.713 31.452v2.42l3.233 3.225 3.233-3.226v-2.419h-6.466zm9.697-9.678h.808a2.422 2.422 0 0 1 2.425 2.42 2.422 2.422 0 0 1-2.425 2.42h-.808v-4.84zm-12.934 0h-.809a2.422 2.422 0 0 0-2.425 2.42 2.422 2.422 0 0 0 2.425 2.42h.808v-4.84z" fill="#F9E0A6"/><path d="M17.67 20.968v4.839c0 4.009 3.257 7.258 7.275 7.258 4.018 0 7.275-3.25 7.275-7.258v-4.839a9.77 9.77 0 0 1-6.9-2.851l-.375-.375-.375.375a9.77 9.77 0 0 1-6.9 2.851z" fill="#F9E0A6"/><path d="M30.603 25.807c0 3.735-2.83 6.808-6.466 7.21.266.03.535.048.808.048 4.018 0 7.275-3.25 7.275-7.258v-4.84a9.812 9.812 0 0 1-1.617-.143v4.983z" fill="#EABD8C"/><path d="M36.261.806h11.317c.893 0 1.616.722 1.616 1.613v6.452c0 .891-.723 1.613-1.616 1.613h-2.425l-6.467 4.032.693-4.032H36.26a1.614 1.614 0 0 1-1.617-1.613V2.419c0-.89.724-1.613 1.617-1.613z" fill="#ECECEC"/><path d="M35.99 42.742h3.502l-1.517-4.54a4.847 4.847 0 0 0-3.734-3.231l-6.065-1.1 5.816 3.223a3.225 3.225 0 0 1 1.643 2.464l.355 3.184z" fill="#48C397"/><path d="M18.476 39.907l-2.898 2.616a1.62 1.62 0 0 1-2.286 0l-5.798-5.784a1.61 1.61 0 0 1 0-2.281l2.622-2.615-4.85-4.84-3.037 3.03a4.83 4.83 0 0 0 0 6.843l10.924 10.9a4.858 4.858 0 0 0 6.859 0l3.314-3.03-4.85-4.839z" fill="#FB5968"/><path d="M38.741 37.947a5.654 5.654 0 0 0-4.356-3.769l-5.402-.98v-.418a8.128 8.128 0 0 0 2.41-2.135h1.632a2.425 2.425 0 0 0 2.425-2.419v-9.677c0-5.781-4.715-10.484-10.509-10.484-5.794 0-10.508 4.703-10.508 10.484v5.645a3.233 3.233 0 0 0 2.578 3.159A8.08 8.08 0 0 0 20.9 32.78v.418l-5.403.98a5.653 5.653 0 0 0-4.355 3.769l-.323.968-2.754-2.746a.807.807 0 0 1 0-1.141l3.193-3.185-5.993-5.98-3.608 3.6A5.602 5.602 0 0 0 0 33.457a5.6 5.6 0 0 0 1.657 3.991l10.925 10.9a5.629 5.629 0 0 0 4 1.653 5.603 5.603 0 0 0 3.976-1.63l3.937-3.599-1.228-1.222h17.345l-1.871-5.602zm-13.8-1.99l-2.424-2.42V33.5a8.09 8.09 0 0 0 4.85 0v.038l-2.426 2.42zm8.084-6.925h-.68a7.99 7.99 0 0 0 .527-1.68c.346-.071.664-.208.96-.38v1.254a.808.808 0 0 1-.807.806zm0-6.227c.48.28.808.794.808 1.389 0 .594-.327 1.109-.808 1.388v-2.777zM16.05 24.194c0-.595.327-1.11.808-1.389v2.777a1.607 1.607 0 0 1-.808-1.388zm.808-4.032v.92a3.21 3.21 0 0 0-.808.334V18.55c0-4.892 3.989-8.871 8.891-8.871 4.903 0 8.892 3.98 8.892 8.87v2.868a3.18 3.18 0 0 0-.808-.334v-.92h-.809c-2.39 0-4.637-.93-6.328-2.616l-.947-.944-.946.944a8.904 8.904 0 0 1-6.328 2.616h-.809zm1.617 5.645v-4.063a10.49 10.49 0 0 0 6.466-2.866 10.486 10.486 0 0 0 6.467 2.866v4.063a6.392 6.392 0 0 1-.875 3.225h-5.592v1.613h4.264a6.44 6.44 0 0 1-4.264 1.613c-3.565 0-6.466-2.894-6.466-6.451zm-9.503 6.036l-.878.876-3.707-3.699.878-.875 3.707 3.698zm7.609 16.544c-1.08 0-2.094-.42-2.858-1.181L2.798 36.307a4.001 4.001 0 0 1-1.183-2.85c0-1.078.42-2.09 1.183-2.852l.445-.444L6.95 33.86l-.03.029a2.42 2.42 0 0 0 0 3.422l5.797 5.783a2.415 2.415 0 0 0 1.715.709c.649 0 1.257-.252 1.686-.681l.06-.054 3.724 3.715-.464.424a4.026 4.026 0 0 1-2.857 1.18zm4.515-2.696l-3.716-3.707 1.067-.963 3.71 3.701-1.061.97zm.555-3.755l-3.149-3.142-3.498 3.158a.827.827 0 0 1-1.143 0l-1.765-1.761.578-1.734a4.04 4.04 0 0 1 3.112-2.693l5.65-1.024 3.505 3.497 3.505-3.497 5.65 1.025a4.039 4.039 0 0 1 3.11 2.692l1.164 3.479H21.65zM47.575 0H36.26a2.425 2.425 0 0 0-2.425 2.42v6.45a2.425 2.425 0 0 0 2.425 2.42h2.159l-.836 4.863 7.8-4.864h2.193A2.425 2.425 0 0 0 50 8.871V2.419A2.425 2.425 0 0 0 47.575 0zm.809 8.871a.809.809 0 0 1-.809.806h-2.657l-5.133 3.201.55-3.2H36.26a.809.809 0 0 1-.808-.807V2.419c0-.444.363-.806.808-.806h11.316c.446 0 .809.362.809.806v6.452z" fill="#6B2254"/><path d="M46.766 3.226h-9.7v1.613h9.7V3.226zM43.533 6.45h-6.467v1.613h6.467V6.451zm3.236 0h-1.617v1.613h1.617V6.451zM7.576 20.046l-.832-1.383-2.19 1.311c2.29-9.3 10.673-15.942 20.388-15.942 2.124 0 4.219.315 6.227.936l.479-1.54a22.666 22.666 0 0 0-6.706-1.009c-10.561 0-19.659 7.29-22.024 17.456l-1.532-2.547-1.386.83 2.841 4.723 4.735-2.835zm34.459-.3l1.386.83 1.415-2.352A20.84 20.84 0 0 1 45.96 25c0 4.796-1.665 9.485-4.688 13.202l1.256 1.016A22.598 22.598 0 0 0 47.577 25c0-2.467-.398-4.876-1.175-7.182l2.376 1.422.832-1.383-4.735-2.835-2.84 4.724z" fill="#6B2254"/><defs><radialGradient id="paint0_radial" cx="0" cy="0" r="1" gradientUnits="userSpaceOnUse" gradientTransform="rotate(135 39.645 45.71) scale(70.7107)"><stop stop-color="#9D2777"/><stop offset=".615" stop-color="#731A56"/></radialGradient></defs></svg>