<svg width="40" height="40" fill="none" xmlns="http://www.w3.org/2000/svg"><path d="M0 10.503h40V36a4 4 0 0 1-4 4H4a4 4 0 0 1-4-4V10.503z" fill="url(#web_radial)"/><path d="M0 4.402a4 4 0 0 1 4-4h32a4 4 0 0 1 4 4v6.1H0v-6.1z" fill="url(#paint1_radial)"/><path d="M4.79 26.634l-1.696-5.183a1.594 1.594 0 0 1-.092-.5c0-.475.358-.939.946-.939.496 0 .819.33.957.805l1.062 3.72 1.084-3.708C7.19 20.341 7.56 20 8.066 20h.116c.507 0 .865.341 1.015.83l1.096 3.719 1.084-3.756c.127-.44.427-.793.946-.793.542 0 .923.439.923.963 0 .135-.035.33-.07.427l-1.753 5.244c-.207.647-.611.927-1.084.927h-.07c-.484 0-.876-.292-1.06-.89l-1.097-3.695-1.119 3.695c-.184.598-.588.89-1.06.89h-.07c-.462 0-.865-.292-1.073-.927zm11.854 0l-1.696-5.183a1.593 1.593 0 0 1-.093-.5c0-.475.358-.939.946-.939.496 0 .82.33.958.805l1.061 3.72 1.085-3.708c.138-.488.507-.829 1.015-.829h.115c.508 0 .865.341 1.015.83l1.096 3.719 1.085-3.756c.127-.44.427-.793.946-.793.542 0 .923.439.923.963 0 .135-.035.33-.07.427l-1.753 5.244c-.208.647-.611.927-1.085.927h-.069c-.484 0-.877-.292-1.061-.89l-1.096-3.695-1.119 3.695c-.185.598-.588.89-1.061.89h-.07c-.461 0-.865-.292-1.072-.927zm11.851 0L26.8 21.451a1.595 1.595 0 0 1-.092-.5c0-.475.358-.939.946-.939.496 0 .82.33.957.805l1.062 3.72 1.084-3.708c.139-.488.508-.829 1.015-.829h.116c.507 0 .865.341 1.015.83l1.096 3.719 1.084-3.756c.127-.44.427-.793.946-.793.543 0 .923.439.923.963 0 .135-.034.33-.069.427l-1.753 5.244c-.208.647-.612.927-1.085.927h-.07c-.484 0-.876-.292-1.06-.89l-1.096-3.695-1.12 3.695c-.184.598-.588.89-1.06.89h-.07c-.461 0-.865-.292-1.073-.927z" fill="#fff"/><circle cx="35.589" cy="5.329" r="1.513" fill="#fff"/><circle cx="30.899" cy="5.329" r="1.513" fill="#fff"/><circle cx="26.211" cy="5.329" r="1.513" fill="#fff"/><defs><radialGradient id="web_radial" cx="0" cy="0" r="1" gradientUnits="userSpaceOnUse" gradientTransform="rotate(36.406 -15.97 5.251) scale(49.7 47.4805)"><stop stop-color="#008BE2"/><stop offset="1" stop-color="#005691"/></radialGradient><radialGradient id="paint1_radial" cx="0" cy="0" r="1" gradientUnits="userSpaceOnUse" gradientTransform="matrix(40 10.10031 -4.79509 18.98986 0 .402)"><stop stop-color="#008BE2"/><stop offset="1" stop-color="#005691"/></radialGradient></defs></svg>