<svg width="20" height="20" xmlns="http://www.w3.org/2000/svg"><path fill-rule="evenodd" clip-rule="evenodd" d="M18.25 15.88c-.171.297-.915.418-2.109.238a8.114 8.114 0 0 0 1.265-2.187c.885 1.108.961 1.746.844 1.95zm-8.427 1.908a6.78 6.78 0 0 1-6.771-6.772c0-.047.006-.092.007-.139 1.335 1.179 3.012 2.366 4.862 3.434 1.788 1.033 3.676 1.91 5.404 2.49a6.722 6.722 0 0 1-3.502.987zM1.397 6.15c.119-.204.71-.457 2.114-.244A8.127 8.127 0 0 0 2.24 8.1c-.885-1.113-.959-1.75-.844-1.949zm15.198 4.865a6.749 6.749 0 0 1-1.97 4.77c-1.6-.446-3.656-1.279-6.027-2.647-2.104-1.215-3.959-2.58-5.304-3.892.781-2.877 3.408-5.002 6.53-5.002a6.779 6.779 0 0 1 6.77 6.771zm1.354 0c0-4.48-3.645-8.125-8.126-8.125a8.088 8.088 0 0 0-5.17 1.86C2.339 4.215.81 4.461.225 5.474-.183 6.18-.233 7.48 1.811 9.67a8.138 8.138 0 0 0-.114 1.346c0 4.48 3.646 8.126 8.126 8.126 1.964 0 3.767-.7 5.174-1.864.763.175 1.471.272 2.092.272 1.102 0 1.934-.3 2.333-.992.584-1.012.034-2.46-1.587-4.195a8.13 8.13 0 0 0 .114-1.347zm-13.55-7.79a.678.678 0 1 0 0-1.356.678.678 0 0 0 0 1.355z"/><path fill-rule="evenodd" clip-rule="evenodd" d="M17.63 2.214a1.017 1.017 0 0 1 0 2.031 1.017 1.017 0 0 1 0-2.031zm0 3.385A2.373 2.373 0 0 0 20 3.23 2.372 2.372 0 0 0 17.63.86a2.372 2.372 0 0 0-2.37 2.37 2.373 2.373 0 0 0 2.37 2.37zm-4.398 7.108a1.325 1.325 0 1 0-.002-2.65 1.325 1.325 0 0 0 .002 2.65z"/></svg>