<svg width="20" height="20" fill="none" xmlns="http://www.w3.org/2000/svg"><path d="M18.57 7.802a3.58 3.58 0 0 1-.904-.977A3.71 3.71 0 0 1 17.6 5.43c.053-.871.114-1.859-.528-2.5-.643-.641-1.629-.583-2.5-.528a3.713 3.713 0 0 1-1.396-.068 3.581 3.581 0 0 1-.977-.903C11.611.761 10.946 0 10 0S8.389.76 7.802 1.43c-.266.36-.598.666-.977.904-.457.11-.93.133-1.396.067-.869-.054-1.857-.114-2.5.528-.642.643-.581 1.63-.528 2.5a3.7 3.7 0 0 1-.067 1.396c-.238.38-.544.71-.903.977C.76 8.389 0 9.054 0 10s.76 1.611 1.43 2.198c.36.266.666.598.904.977.11.457.133.93.067 1.396-.053.87-.114 1.858.528 2.5.643.641 1.625.582 2.5.528a3.697 3.697 0 0 1 1.396.067c.38.238.71.544.977.903C8.389 19.24 9.054 20 10 20s1.611-.76 2.198-1.43a3.58 3.58 0 0 1 .977-.904c.457-.11.93-.133 1.395-.067.87.054 1.858.115 2.5-.528.642-.644.582-1.63.528-2.5a3.701 3.701 0 0 1 .068-1.396c.237-.38.543-.71.903-.977C19.239 11.611 20 10.946 20 10s-.76-1.611-1.43-2.198zm-.824 3.456c-.514.38-.936.872-1.235 1.437a4.456 4.456 0 0 0-.16 1.951c.038.607.08 1.296-.164 1.54-.245.243-.933.2-1.54.165a4.463 4.463 0 0 0-1.95.159 4.279 4.279 0 0 0-1.438 1.235c-.434.495-.88 1.005-1.259 1.005-.379 0-.825-.51-1.258-1.004a4.279 4.279 0 0 0-1.437-1.235 3.067 3.067 0 0 0-1.18-.192c-.256 0-.516.017-.774.032-.609.038-1.296.08-1.54-.164-.242-.245-.202-.933-.164-1.54a4.452 4.452 0 0 0-.16-1.95 4.28 4.28 0 0 0-1.235-1.438C1.76 10.825 1.25 10.379 1.25 10c0-.379.51-.825 1.004-1.258.514-.38.936-.872 1.235-1.437.197-.63.252-1.297.16-1.951-.038-.608-.08-1.297.163-1.542.244-.244.933-.2 1.54-.164.654.093 1.321.038 1.951-.16a4.278 4.278 0 0 0 1.438-1.235C9.175 1.76 9.62 1.25 10 1.25c.379 0 .825.51 1.258 1.004.38.514.872.936 1.437 1.235.63.197 1.297.252 1.951.16.608-.038 1.296-.08 1.54.164.243.245.202.933.165 1.54a4.452 4.452 0 0 0 .159 1.95 4.277 4.277 0 0 0 1.235 1.438c.495.434 1.005.88 1.005 1.259 0 .379-.51.825-1.004 1.258z" fill="#999"/><path d="M5.77 11.281l-.566.265-.267-.567.567-.264a.625.625 0 1 0-.528-1.133l-1.134.529a.625.625 0 0 0-.301.83l.793 1.701.792 1.698a.636.636 0 0 0 .753.33.626.626 0 0 0 .38-.858l-.529-1.134.567-.264a.625.625 0 0 0-.529-1.133h.003zm4.78.147l-1.121-.68a1.558 1.558 0 0 0-1.9-2.352l-.851.396a.625.625 0 0 0-.303.831l1.585 3.399a.637.637 0 0 0 .769.326.63.63 0 0 0 .364-.855l-.316-.682 1.124.687a.62.62 0 0 0 .324.092.63.63 0 0 0 .326-1.162zM8.296 9.516a.312.312 0 0 1 .025.576l-.284.133-.263-.567.284-.132a.307.307 0 0 1 .238-.01zm4.5.561l-.568.264-.264-.567.567-.263A.626.626 0 0 0 12 8.376l-.566.264-.264-.567.566-.264a.625.625 0 0 0-.528-1.132l-1.133.527a.625.625 0 0 0-.302.831l1.586 3.403a.625.625 0 0 0 .83.302l1.133-.528a.626.626 0 0 0-.528-1.135zm2.83-1.323l-.566.265-.265-.567.567-.264a.626.626 0 0 0-.529-1.133l-.566.264-.264-.567.567-.263a.625.625 0 1 0-.529-1.133l-1.133.528a.625.625 0 0 0-.302.83l.794 1.703.791 1.697a.625.625 0 0 0 .83.301l1.134-.528a.625.625 0 0 0-.529-1.133z" fill="#999"/></svg>