<svg fill="none" height="36" width="34" xmlns="http://www.w3.org/2000/svg"><g fill="#e3b44f"><path d="m32.227 4.987c-.847 0-1.506.658-1.506 1.505 0 .376.142.753.377.988-2.54 2.023-5.316 3.387-8.468 3.904-3.528-3.575-4.657-6.586-5.034-8.467.565-.188.988-.753.988-1.412.047-.845-.658-1.505-1.458-1.505s-1.506.659-1.506 1.505c0 .659.424 1.176.988 1.412-.329 1.74-1.364 4.516-4.328 7.762l-.705.705c-3.152-.517-5.928-1.881-8.468-3.904.235-.282.376-.612.376-.988 0-.847-.658-1.505-1.505-1.505-.8 0-1.458.658-1.458 1.458 0 .847.658 1.505 1.505 1.505.141 0 .282-.047.423-.094 1.412 3.011 2.352 6.398 2.823 10.115 2.775-1.882 6.821-3.246 11.855-3.246s9.08 1.364 11.855 3.246c.47-3.717 1.411-7.057 2.822-10.115.142.047.283.094.47.094.848 0 1.506-.658 1.506-1.505a1.55 1.55 0 0 0 -1.552-1.458z"/><path d="m5.037 20.805c-.988 2.117-.846 3.716-.846 3.716a6.425 6.425 0 0 0 6.445 6.445c3.434 0 6.256-2.728 6.444-6.115a12.818 12.818 0 0 1 -7.715 11.149h15.431a12.818 12.818 0 0 1 -7.716-11.15c.189 3.388 3.011 6.116 6.445 6.116a6.425 6.425 0 0 0 6.445-6.445s.141-1.646-.846-3.716c-2.917-2.117-7.057-3.622-12.044-3.622-4.986.047-9.079 1.552-12.043 3.622z"/></g></svg>