<svg width="200" height="200" fill="none" xmlns="http://www.w3.org/2000/svg"><path d="M200 0H0v200h200V0z" fill="#100F0D"/><path fill-rule="evenodd" clip-rule="evenodd" d="M99.544 33.438c37.307 0 67.588 29.894 67.588 66.723 0 36.83-30.281 66.724-67.588 66.724-37.307 0-67.589-29.894-67.589-66.724 0-36.91 30.282-66.724 67.589-66.724z" fill="url(#paint0_radial)"/><path d="M164.065 120.407l-.565-.08c2.423-11.479 1.615-23.756-2.422-35.554-9.125-26.944-33.593-47.193-60.887-50.461l.081-.558c27.536 3.268 52.246 23.676 61.452 50.78 3.957 11.958 4.845 24.314 2.341 35.873z" fill="#EEBE1E"/><path d="M105.763 166.563c-1.857 0-3.714-.079-5.572-.319l.081-.637c6.137.717 12.274.239 18.088-1.435 28.909-8.371 44.09-44.004 33.835-79.479-7.833-26.864-28.747-47.113-52.004-50.301l.081-.638c23.579 3.268 44.655 23.676 52.488 50.86 10.336 35.713-5.006 71.745-34.238 80.195-4.118 1.196-8.398 1.754-12.759 1.754z" fill="#EEBE1E"/><path d="M104.065 166.641c-1.292 0-2.665-.08-3.957-.319l.162-.718c4.28.718 8.479.239 12.516-1.435 20.188-8.37 30.686-44.004 23.58-79.398-5.491-26.945-20.027-47.113-36.258-50.382l.162-.717c16.473 3.268 31.331 23.676 36.822 50.86 7.268 35.713-3.553 71.745-23.983 80.275-2.987 1.276-5.975 1.834-9.044 1.834z" fill="#EEBE1E"/><path d="M101.724 166.879a4.159 4.159 0 0 1-1.777-.398l.485-1.037c1.534.638 2.988.239 4.522-1.355 8.075-8.291 12.355-43.924 9.448-79.399-2.261-26.785-7.995-46.953-14.455-50.142l.485-1.036c6.864 3.348 12.839 23.437 15.1 51.099 2.907 35.713-1.453 71.745-9.771 80.275-1.453 1.515-2.826 1.993-4.037 1.993zm-67.833-50.932c-1.453-10.364-.323-20.886 3.23-31.41 9.206-27.103 33.916-47.51 61.452-50.78l.08.559C71.28 37.584 46.732 57.833 37.607 84.777c-3.553 10.363-4.603 20.886-3.15 31.09l-.565.08z" fill="#EEBE1E"/><path d="M93.002 166.565c-4.36 0-8.64-.638-12.758-1.834-29.232-8.45-44.575-44.482-34.239-80.195 7.833-27.184 28.99-47.592 52.488-50.86l.081.637C75.318 37.582 54.404 57.83 46.57 84.775c-10.255 35.394 4.926 71.108 33.835 79.478 5.814 1.674 11.951 2.152 18.088 1.435l.081.638a65.295 65.295 0 0 1-5.572.239z" fill="#EEBE1E"/><path d="M94.698 166.645c-3.068 0-6.056-.638-8.963-1.834-20.51-8.45-31.25-44.482-24.064-80.196 5.491-27.183 20.268-47.67 36.822-50.94l.162.718C82.424 37.662 67.889 57.83 62.398 84.775c-7.187 35.394 3.391 71.028 23.58 79.398 4.037 1.674 8.236 2.153 12.516 1.435l.161.718a22.702 22.702 0 0 1-3.957.319z" fill="#EEBE1E"/><path d="M96.958 166.889c-1.13 0-2.584-.478-4.037-1.993-8.318-8.529-12.678-44.562-9.771-80.275C85.49 56.959 91.386 36.95 98.33 33.6l.485 1.037c-6.46 3.109-12.193 23.277-14.454 50.142-2.907 35.475 1.373 71.028 9.448 79.399 1.534 1.514 2.988 1.993 4.522 1.355l.484 1.036c-.565.16-1.13.319-1.857.319z" fill="#EEBE1E"/><path d="M99.544 161.134c-12.84 0-25.194-1.515-35.772-4.385l.161-.558c10.578 2.87 22.933 4.385 35.611 4.385 12.759 0 25.114-1.515 35.611-4.385l.162.558c-10.578 2.87-23.014 4.385-35.773 4.385zm0-10.124c-18.168 0-35.853-2.072-49.984-5.819l.161-.558c14.05 3.747 31.735 5.819 49.824 5.819 18.088 0 35.772-2.072 49.823-5.819l.161.558c-14.131 3.667-31.896 5.819-49.984 5.819zm.002-16.741c-24.306 0-47.24-3.427-62.905-9.406l.242-.558c15.585 5.979 38.437 9.327 62.663 9.327 24.225 0 47.078-3.428 62.663-9.327l.242.558c-15.666 5.979-38.599 9.406-62.905 9.406zm-.002-20.811c-26.325 0-50.954-3.508-67.589-9.646l.162-.558C48.75 109.392 73.3 112.9 99.463 112.9c26.244 0 50.792-3.508 67.346-9.646l.162.558c-16.473 6.138-41.183 9.646-67.427 9.646zm-.001-22.713c-25.437 0-49.016-3.667-64.682-10.124l.243-.558c15.584 6.457 39.083 10.124 64.439 10.124 25.356 0 48.854-3.667 64.52-10.045l.242.558c-15.746 6.378-39.326 10.045-64.762 10.045zm0-22.24c-20.43 0-40.134-3.108-53.942-8.529l.242-.558c13.727 5.42 33.35 8.53 53.7 8.53 20.349 0 39.971-3.11 53.699-8.53l.242.558c-13.889 5.42-33.512 8.53-53.942 8.53zm.002-14.992c-14.859 0-29.151-2.471-40.053-6.935l.242-.559c10.902 4.465 25.033 6.936 39.81 6.936 14.778 0 28.99-2.471 39.811-6.935l.242.558c-10.982 4.464-25.194 6.935-40.052 6.935z" fill="#EEBE1E"/><path fill-rule="evenodd" clip-rule="evenodd" d="M123.285 60.615c.808-1.594.404-2.79 1.777-2.232.403-.319-.243-.239-.243-.398.243-.08.808.16 1.131-.399.565.08 1.292-.398 1.292-.797.888.478 1.857.399 2.261 1.276.646-.16.242.398.565.558-.161.478.727.478.404.956-.081.638-.727.319-1.131.877-.08.08-.323.797-.565.319-.969-.24 2.746-.558-.081-1.355-.726 0-.161.558-.807.637-.888-.318-.565.558.081.479-.162.637-.969-.08-1.292.239.403.319.565.478.969.797.08.558.484.797 1.292.957.161.398-.646 1.116 0 1.594 1.13-2.63 2.988 2.95.323.638-.485 1.116-.889 1.594.807 1.196-.888.08-.323.956.081 1.195-.323.638.323 2.87-.565 2.87-.566-.319-2.261.718-2.907-.717-.646 0-1.131 0-1.212-.798-.565-1.036.485-1.514.323-2.63.243-.399 1.292-.399.485-.718-.727-.558-1.292-1.753-2.019-2.47-.323-.958.323-1.994-.969-2.074z" fill="url(#paint1_radial)"/><path fill-rule="evenodd" clip-rule="evenodd" d="M60.299 51.61c.484.16.969-.638 1.453-.877-.242-.558.566-.398.404-.797-.161-.24-.323-.638-.807-.24-.243-.398.08-.956-.162-.717-.727.24-.969.16-1.615.718-.404 0-.565-.16-.242.319-.889-.558-1.05.239-1.535.877-.242.319-.242-.638-.484-.638-.888-.399-.08.398-.404.319-.242.08-.565-.399-.565-.08.162.08-.323.16 0 .16-.646 1.753.323-.479.888.717-.323.08-.969.319-.807.638.404-.24.969-.24 1.13 0 .404.08-.242.319-.403.478.242.319.645-.08.807-.16 1.292.08 1.776.24 2.342-.717z" fill="url(#paint2_radial)"/><path fill-rule="evenodd" clip-rule="evenodd" d="M69.828 49.774c0 .24-.08.478-.08.957.403-.24.564.16.08.239.161.08-.162.478.08.478.081-.398.243-.239.485-.239-.242 1.515-.323 1.276 1.211 1.196-.888.638.404.319.243.956-.162.479-.566.798-.97.24-.565.239.404.478-.484.877 1.615-.08-.888.956-.08 1.195-.324.08.242.16.242-.08.242.08.323.479.646 0 .403.559.242-.08.726-.08-.242 1.037-1.372 0-1.857 1.197-1.13 1.355 2.019-.638 2.907-.24.565-.318.97.16 1.534-.318-1.534-.479 2.02-1.595-.403-1.754.242.638-1.05-1.595-.162-.718-.807-.797-1.373-2.072-2.342-2.47.646-1.436 1.373-1.994-.807-1.834 1.938-2.232-1.534-.718-.97.398z" fill="url(#paint3_radial)"/><path fill-rule="evenodd" clip-rule="evenodd" d="M66.84 55.434c-.565.558.727 0 .081.32.646.398 1.615-.639 2.18-.718.404-.638-.564-1.913.728-1.993-.404-1.674-.97-.24-.889-1.036-.242-.32-.08.08-.403.08-.162-.4-.404.159-.566.159.323.398-.08.239-.161.717-.404-.08-1.212-.24-.566.399-.645.239-.726.717.243.637.242-.398-.162.24-.242.479-.081.239-.404.239-.081.319-.162.318-.889.558-.323.637z" fill="url(#paint4_radial)"/><path fill-rule="evenodd" clip-rule="evenodd" d="M67.486 54.638c0-.08.161 0 .161-.08-.08.32-.484.32-.161.08z" fill="url(#paint5_radial)"/><path fill-rule="evenodd" clip-rule="evenodd" d="M72.655 56.548c.162 0-.08-.08-.08-.08-.081.16 0 .16.08.08z" fill="url(#paint6_radial)"/><path fill-rule="evenodd" clip-rule="evenodd" d="M83.152 69.387c.646-.16.404-1.515.323-2.153-.808.479-1.454 1.674-.323 2.153z" fill="url(#paint7_radial)"/><path fill-rule="evenodd" clip-rule="evenodd" d="M82.344 70.586c.484.319.08 2.551.969 1.754 1.292-1.116-.081-3.906-.97-1.754z" fill="url(#paint8_radial)"/><path fill-rule="evenodd" clip-rule="evenodd" d="M129.503 66.68c0-.238-.162.16-.242.24.161 0 .403-.16.242-.24z" fill="url(#paint9_radial)"/><path fill-rule="evenodd" clip-rule="evenodd" d="M86.463 73.137c-1.212 0 1.453 1.594 2.018 1.514.646-1.913-.323-1.275-2.018-1.514z" fill="url(#paint10_radial)"/><path fill-rule="evenodd" clip-rule="evenodd" d="M155.1 105.341c1.777-1.036-.403-2.869-.807-3.986-.565.399-1.211 4.784.807 3.986z" fill="url(#paint11_radial)"/><path fill-rule="evenodd" clip-rule="evenodd" d="M126.84 128.615c-.323-1.275-1.373-4.145-1.696-1.195 0 .478-.888.239-.727 1.275-.323-.08-.161.239-.323.319-.646-.638-.242.638-.565.638-.969-.08-2.342.717-2.907 1.674.969 4.703-.323 2.391-.808 5.979.243 3.029 3.392 5.42 4.2 1.036.888-2.392 1.211-4.783 2.18-7.095-.646-3.268.807-.08.646-2.631z" fill="url(#paint12_radial)"/><path fill-rule="evenodd" clip-rule="evenodd" d="M39.627 130.45c-.323-3.428.646-4.464 2.907-7.175.727-1.275 1.05-5.101-.646-5.341-.97-.637-1.938-2.79-3.795-2.71-.243-.558-.485.159-.647-.319-.322-1.116-1.372 1.036-1.21-.08-6.46-8.848.645 12.755 3.39 15.625z" fill="url(#paint13_radial)"/><path fill-rule="evenodd" clip-rule="evenodd" d="M58.844 84.217c-2.907 1.195-3.23 4.065-5.249 6.058a1.219 1.219 0 0 0 .485 1.595c-.323 1.195.403 2.391.08 3.746-.403.638-.242 1.515-.969 2.233-.323.398.97 1.594.485 2.152.888.797 1.292 1.036 2.26 1.913.162.08-.08.319.162.399.727.319.242 1.116 1.13 1.275-.08 1.834 3.311 3.508 5.653 4.783 2.02.478 3.957-1.196 6.057-.239.565-.717 4.683-.399 3.553-1.435.403-.08.484.478.888.399.161-.638.484 0 .08 0 1.212-.16 2.423-1.196 3.796-.399 1.938.558.485 3.189 3.472 1.515.485-.16.323.319.566.239 0-.399.161-.239.242 0 .727-.319.323.717 1.373.239-.646.319.484.877.161 1.196-.323.956-.323 2.471-.646 2.79.485.239-.646 1.275-.484 1.594.08.239 1.453.638.403.638.97.877 1.696 1.594 2.746 2.312.727 1.275 1.13 2.232 1.857 3.826.485.718-.565 1.754.242 2.551.97 1.435-.484 2.79-1.21 3.827-1.535 3.268-.485 4.942 1.533 7.573.162.478.404.877.727 1.355-.404.399-.08.797-.08 1.515.484 1.036.242 2.152.645 3.268 1.212 1.754 2.665 3.109 3.311 5.501-.323 0-.08.478-.242.478-.08.08-.485-.08-.404.319.404.398.242 1.196.566 1.594 1.05.319 3.391.08 4.602-.239 1.534-.239 3.23-.08 4.765-.478 3.391-2.073 6.621-4.624 6.783-8.052-1.454-1.196 3.553-.877 2.907-2.312-.162-1.036-.162-2.551-.889-3.348-.726-1.435 1.696-1.514 1.615-2.71-.242 0 .889-.08.969-.16 3.796-.478 4.765-3.348 4.038-6.297.242-1.355-1.05-2.073-1.211-3.428.888-1.834-1.05-1.754-.404-2.79.485-1.435.727-2.79 2.423-3.588.888-.558 1.211-2.072 2.261-2.63 3.068-2.312 6.056-3.986 7.267-7.573 5.41-8.61-4.522-.24-6.944-3.827-.889-.478.08-.398.08-1.116-1.13-1.116-2.745-2.391-3.956-3.348-.969.24-.566-1.913-.969-2.232-.323-.718-1.373-1.036-1.939-1.754.081-1.196.243-1.993-.403-2.79-.162-.478-2.342-1.834-1.212-2.232-.484-.638-4.441-5.9-2.987-5.261.323.637 1.211 1.993 1.776.717-.161.319.565.319 1.05.638.807 1.674 2.422 3.189 3.553 4.623.081 1.674-.161 3.508 1.777 3.986.888.638.888 1.914 1.857 2.472 1.453 1.355-.242 5.261 2.665 4.783 1.938-.638 3.876-.957 5.733-1.914 1.615-.239 2.584-1.195 3.311-1.993 1.938-.717 5.329-1.594 5.733-3.348 1.534-1.674 3.23-3.746-.565-4.464-1.292-.319-1.292-3.03-1.777-1.913-1.211 1.435-5.329 2.79-4.926.16 0-1.675-.807.876-1.211.159.404-1.356-4.199-4.544-2.019-4.783.243-.08-.807-.718-.161-.638.565.797 2.019-.16 2.503.797 3.392 6.377 5.168 1.834 7.349 3.508.969 2.152 5.006 1.355 6.783 1.435 2.422-.08 2.584-.877 4.199.637.484.479.969 1.196 1.695.797-.807 1.037 1.777 1.675 2.261.718.727 0-.807 1.116-1.049.957-2.504.558 3.149 3.348 2.584.398.807-1.116.242.877.969 1.116-.081.479-.727.877-.485 1.355.565 1.037.404 2.073.889 3.428.565 1.116 1.211 2.153 1.372 3.588 1.131 1.434 1.777 3.188 2.746 4.464.888.797 1.696-1.037 2.422-1.595 0-.159.485 0 .485-.159-.081-.239.081-.478-.162-.478-.08-.798.243-1.356.646-1.914-.323-1.275-.403-2.71.162-3.587 1.05 0 1.938-.717 2.18-1.355 1.131-.319 2.342-1.036 3.23-1.993-2.665-35.076-35.934-61.064-52.488-55.085-.081.797 2.019 1.116.565 1.993-1.13-.08-1.776-.797-2.745-.797-.323-.957 0-1.913-.727-2.551a4.84 4.84 0 0 1-1.857-.399c.161.08.646 0 .484-.239-.646.08-.807-.717-1.534-1.355.727-.16.969.877 1.776.558.404.319.727.638.889.16 1.776 1.036 5.006 1.674 6.783 0-5.895-2.71-27.213-3.747-27.133-1.037.566-.16.243.24.485.478-.323.16-.808-.159-.97.24.485.319-1.372.956-1.695 1.036-.404.399.08.16.08.478-.241 0-.403.16-.08.16-.08.398-.565.638-1.05.638-.565.558-.646.159-.646.876-.969-.16-.888.399-1.534.479-.242.398-.888.877-1.292 1.116.162.797 2.261-1.116 1.211.16-1.05.956-1.534-.24-2.584.159.485.637-.969.398-.08.877-.727-.4-.727.159-1.615-.08-.647.08.888.398-.081.638 0 .318-.889-.24-.97.398.485.08.485 0 .97.24 0 .079 0 .238-.162.238.081-.558-.888-.239-.727-.08-1.21-.159-1.615.16-.08.479-2.423-.24-1.373 1.276-.081.558 2.261.399-.323.319-1.454.399.404.398.889.159.243.637-1.05.24 1.211.16.323.32 0 .637 1.211-.08 1.776-.24-.807.478-.969 1.276-1.857 1.355-.484.24.323.479.323.479.242-.24.242-.16.565-.16.162-.319.162-.16.081.08-1.776 3.109 3.31 1.275 5.007.398.969-.478 0 .798 1.13 1.117-.969.717 1.292 1.514 1.292 2.152-.969.558-.161 2.072 1.13 1.355.324-1.116 1.696-1.196 2.746-1.116.808-1.036-.565-.08 0-.797.242-.718.242-1.834.565-2.232-1.13-.32-.242 0 .243-.399.727.08.807-.08 1.453-.16.081-.079.081-.238.162-.318.08 0 .403 0 .161-.16-1.13-.08.727-.239.162-.797-.485-1.275-1.938-.478-1.938-1.993.08-.319-.162-.478.242-.558 0-.08-.162-.558.08-.558.243-.478-.645-.877.162-.717.97-.877 1.454-1.595 3.23-1.834 1.13-.797.242-1.514 1.05-2.311.162-.4.969-.16.969-.957.485.478 1.776-.24 2.503.478.727-.16.727 1.515-.161 1.355-.485 1.435-2.019 1.595-2.746 2.631-1.292.399.566 1.116-.08 1.834-.081.239-.323 1.116.323.876.161 1.276 0-.159.969.479 1.05.797-.323.08-.404.797.08.558.646.08.646-.16.242-.08.242.479.484.4 1.535.079 3.23-1.197 5.007-1.276-.485.956 1.615.797 2.422 1.275.081.319-1.13 0-1.534.319-1.776.478-3.391.398-5.33.797-1.695-.08 1.293 4.544-1.695 2.87-1.212-1.754-2.584 1.594-1.938 2.63-.243.16-.808.638-.485-.159-1.13.399-.565.718-1.211 1.515-.404-.08-.162-.08-.08-.24-.485.32-1.697.16-.889-.079-1.615-.558-4.522 1.594-6.54.24-1.131.079-1.212 1.354-1.939.318-.888.319-.727-.638-1.292-.797 1.13-.399-.727-.24.242-1.116.404-.399.243-1.196.97-.797 0-.479-.566-1.276-1.05-1.356.726.16 1.13-1.116.646-.956-.727.08-1.13.956-1.858.797-2.18 1.435 1.373-.638.727.797-.484-.239-1.857.08-1.615.877.242-.08.646.399.162.399-.162.797.726.478.565 1.116-.404 0 .08.478.161.558 0 .398-.242.797.243 1.036-.566 0-.485.16-.727.638-.242-.558-1.696-.08-.888.478-1.373-1.275-3.392-.08-3.796 1.276-.08 1.036-4.037-.24-3.149 1.992-.646-.239-1.373.718-1.696.718-.565.717-2.1-.877-1.857-.08.323.957.565 1.355-.565 1.116-.485.32-3.553-.319-2.261.558-1.454.16 1.13.957 1.292.877.323-.08.726-.08.161.16.08.239.485.08.404.478.161.398 2.422 1.435 1.857 2.312 1.13 4.145-6.218.637-8.72 1.993-1.212.398.645 1.913.16 2.95.081.876-1.05 1.514-.726 2.39.404-.398.484.08.08.16.889.478-.484 1.834.727 1.674 1.615.08 2.1.16 3.392 1.116 1.13-.717 2.1-.478 3.31-.558.404-.797 1.535-.877 1.858-1.435.161-.478.969-.717 1.211-1.275-1.292-.558.808-1.674 1.373-2.232 2.422-.558 1.373-1.515 2.422-2.312.97-1.355 2.907 1.036 3.634-.478.404-.24 1.454-.16 1.535-.877 2.503-.399 2.987 3.428 6.46 4.384 3.068.797.565 4.066 1.938 3.03.323-.32 1.05-.957.969-1.356-.243-.319-1.05-1.833.161-1.435.565-.08 1.212.877 1.212.16-1.777-1.913-4.2-1.674-5.25-3.906-.322-.479-1.937-.32-1.291-1.356.565-1.116-.646-.637 1.05-1.195.403 0 .807 0 .242.319.242.398.242 1.355.646.717.969-1.515 1.05 1.196 1.534 1.275 1.534.4 3.069 1.515 4.764 2.073-.242 2.551-.08 1.196 1.292 3.269.97.398.404.08.566.956.968-.319 2.745 1.037.968.16-2.018.398.566 1.913 1.616.876.242-.159-.889-.557 0-.478 1.534.558.08-.478-.243-.877-.161-.319.808.638 1.212.479 1.211 1.036-.324-1.276-1.777-.638.808-.24-.404-.877.727-.478-.404-.638-1.05-.877-.646-1.595.403-.319.727 1.355.969.32.807.159.565-.16.161-.798 1.131.16 3.392-.399 2.746.797.646-.558 4.441-1.036 2.18-1.435-1.292-1.196.323-1.913.727-3.268.727-.877.727-1.674 2.261-2.63.565.238.888-.32 1.453.158-1.857.24 1.05.559 1.615.479.808.558-2.341.797-.969 1.036 1.212-.08.323 1.674 2.019.638.727-.319 1.857-.08 2.019-.797-.969.558-3.876-1.196-2.261-1.037 1.857-.08 3.634-1.275 5.572-1.275-4.199 1.913.081.558-2.261 2.073-1.938.398.969.717 1.534 1.674.888.717 4.441 1.753 2.18 3.109-3.714 1.355-7.106-2.392-10.578.08-.646.318-1.938-.4-2.503.239 1.453.398.242 0 .08.318-1.13.558-2.826-.16-3.23 1.355.808-.08 1.131.877.727 1.356-.484.08-.404-.32-.404.319 1.212-.08.404 1.434 1.938 1.355 2.504 1.435.969 1.116 3.23.239 1.615 1.036 3.634.478 5.088-.319.242 2.95-.646 7.972-5.088 6.059 0 .318.323.398-.08.478-.404-.957-1.858.638-2.746-.16-3.23.16-5.41-1.594-8.479-1.833-2.18.717-.242 3.587-4.118 2.232-1.615-.24-3.069-1.754-4.684-2.152-1.534.239-2.018-.718-3.149-1.116-.404-.718 1.615-1.674.323-2.073.808-1.594.646-1.435-.969-1.834-4.199.559-8.963-.239-13 1.993-.647.24-1.454-.239-2.423.08-1.05.399-1.777-1.594-2.18 0-.404 2.153-3.392 1.674-3.957 3.747-.566 2.471.969 2.391-2.665 4.544z" fill="url(#paint14_radial)"/><path fill-rule="evenodd" clip-rule="evenodd" d="M82.992 134.914l3.876 5.501c-20.673 8.849-44.01 12.197-58.06-4.385l18.169 21.444c13.162 9.407 34.965 10.284 53.053.08l3.472 4.624c9.044-9.407 15.989-20.408 21.561-32.605.646-1.435-.969-1.674-2.423-1.036-11.628 4.942-24.386 6.617-39.648 6.377z" fill="url(#paint15_linear)"/><path fill-rule="evenodd" clip-rule="evenodd" d="M82.991 134.907l.566-3.587c11.547 1.435 26.89-.957 39.648-5.261l1.535 2.311c-.485-.239-1.373-.159-2.181.16-11.547 4.942-24.306 6.616-39.568 6.377z" fill="url(#paint16_linear)"/><path fill-rule="evenodd" clip-rule="evenodd" d="M84.687 137.382l2.18 3.029c-.322.159-.645.239-.969.398-20.43 8.53-43.282 11.559-57.09-4.783-5.41-6.935-3.392-22.002 2.664-32.604.081 1.993.243 3.906.485 5.819-13.324 32.764 20.672 43.367 52.73 28.141zm-54.426.398a33.882 33.882 0 0 1-1.453-1.754l1.453 1.754z" fill="url(#paint17_linear)"/><path fill-rule="evenodd" clip-rule="evenodd" d="M31.958 109.238c-7.752 19.053.565 30.692 15.18 33.96-7.993-9.486-13.404-21.125-15.18-33.96z" fill="url(#paint18_linear)"/><path fill-rule="evenodd" clip-rule="evenodd" d="M116.987 65.876l-3.715-5.58c20.915-8.21 44.333-11 57.899 5.9l-17.523-21.923c-12.92-9.805-34.642-11.32-53.053-1.594l-3.311-4.704c-9.287 9.168-16.554 20.01-22.449 31.967-.727 1.355.969 1.674 2.422 1.116 11.71-4.544 24.468-5.82 39.73-5.182z" fill="url(#paint19_linear)"/><path fill-rule="evenodd" clip-rule="evenodd" d="M116.985 65.872l-.646 3.508c-11.467-1.754-26.89.24-39.81 4.145l-1.454-2.391c.485.239 1.373.239 2.18-.08 11.71-4.544 24.468-5.82 39.73-5.182z" fill="url(#paint20_linear)"/><path fill-rule="evenodd" clip-rule="evenodd" d="M115.372 63.323l-2.1-3.11c.323-.159.646-.238.969-.398 20.673-7.971 43.606-10.363 56.93 6.298 5.168 7.015 2.826 22.082-3.553 32.525 0-1.993-.162-3.906-.323-5.82 14.212-32.285-19.461-43.844-51.923-29.495zm54.345 1.036c.485.558.969 1.196 1.454 1.834l-1.454-1.834z" fill="url(#paint21_linear)"/><path fill-rule="evenodd" clip-rule="evenodd" d="M167.214 92.901c8.318-18.893.323-30.691-14.212-34.358 7.833 9.646 12.92 21.524 14.212 34.358z" fill="url(#paint22_linear)"/><defs><radialGradient id="paint0_radial" cx="0" cy="0" r="1" gradientUnits="userSpaceOnUse" gradientTransform="matrix(98.6658 0 0 97.403 102.235 130.818)"><stop stop-color="#FFF200"/><stop offset=".25" stop-color="#FFCB05"/><stop offset=".56" stop-color="#D49B2E"/><stop offset="1" stop-color="#D49B2E"/></radialGradient><radialGradient id="paint1_radial" cx="0" cy="0" r="1" gradientUnits="userSpaceOnUse" gradientTransform="matrix(8.86772 0 0 8.49533 126.664 65.25)"><stop stop-color="#FFF9AE"/><stop offset="1" stop-color="#FFCB05"/></radialGradient><radialGradient id="paint2_radial" cx="0" cy="0" r="1" gradientUnits="userSpaceOnUse" gradientTransform="matrix(3.29683 -.89712 .86482 3.17813 58.907 51.183)"><stop stop-color="#FFF9AE"/><stop offset="1" stop-color="#FFCB05"/></radialGradient><radialGradient id="paint3_radial" cx="0" cy="0" r="1" gradientUnits="userSpaceOnUse" gradientTransform="matrix(6.01148 0 0 5.75908 72.083 53.934)"><stop stop-color="#FFF9AE"/><stop offset="1" stop-color="#FFCB05"/></radialGradient><radialGradient id="paint4_radial" cx="0" cy="0" r="1" gradientUnits="userSpaceOnUse" gradientTransform="matrix(2.66671 0 0 2.55475 68.087 54.45)"><stop stop-color="#FFF9AE"/><stop offset="1" stop-color="#FFCB05"/></radialGradient><radialGradient id="paint5_radial" cx="0" cy="0" r="1" gradientUnits="userSpaceOnUse" gradientTransform="matrix(.13605 0 0 .13033 67.48 54.746)"><stop stop-color="#FFF9AE"/><stop offset="1" stop-color="#FFCB05"/></radialGradient><radialGradient id="paint6_radial" cx="0" cy="0" r="1" gradientUnits="userSpaceOnUse" gradientTransform="matrix(.0915 0 0 .08766 72.633 56.587)"><stop stop-color="#FFF9AE"/><stop offset="1" stop-color="#FFCB05"/></radialGradient><radialGradient id="paint7_radial" cx="0" cy="0" r="1" gradientUnits="userSpaceOnUse" gradientTransform="matrix(1.37854 0 0 1.32065 82.99 68.632)"><stop stop-color="#FFF9AE"/><stop offset="1" stop-color="#FFCB05"/></radialGradient><radialGradient id="paint8_radial" cx="0" cy="0" r="1" gradientUnits="userSpaceOnUse" gradientTransform="matrix(1.83374 0 0 1.75674 83.046 71.531)"><stop stop-color="#FFF9AE"/><stop offset="1" stop-color="#FFCB05"/></radialGradient><radialGradient id="paint9_radial" cx="0" cy="0" r="1" gradientUnits="userSpaceOnUse" gradientTransform="matrix(.22382 0 0 .21443 129.386 66.815)"><stop stop-color="#FFF9AE"/><stop offset="1" stop-color="#FFCB05"/></radialGradient><radialGradient id="paint10_radial" cx="0" cy="0" r="1" gradientUnits="userSpaceOnUse" gradientTransform="matrix(1.38407 0 0 1.32596 87.288 74.131)"><stop stop-color="#FFF9AE"/><stop offset="1" stop-color="#FFCB05"/></radialGradient><radialGradient id="paint11_radial" cx="0" cy="0" r="1" gradientUnits="userSpaceOnUse" gradientTransform="matrix(2.70518 0 0 2.59161 154.692 103.973)"><stop stop-color="#FFF9AE"/><stop offset="1" stop-color="#FFCB05"/></radialGradient><radialGradient id="paint12_radial" cx="0" cy="0" r="1" gradientUnits="userSpaceOnUse" gradientTransform="matrix(9.74818 0 0 9.33881 122.906 135.426)"><stop stop-color="#FFF9AE"/><stop offset="1" stop-color="#FFCB05"/></radialGradient><radialGradient id="paint13_radial" cx="0" cy="0" r="1" gradientUnits="userSpaceOnUse" gradientTransform="matrix(8.74222 .29341 -.37006 11.0261 37.82 124.06)"><stop stop-color="#FFF9AE"/><stop offset="1" stop-color="#FFCB05"/></radialGradient><radialGradient id="paint14_radial" cx="0" cy="0" r="1" gradientUnits="userSpaceOnUse" gradientTransform="matrix(99.4255 0 0 74.0048 104.125 107.305)"><stop stop-color="#FFF9AE"/><stop offset="1" stop-color="#FFCB05"/></radialGradient><linearGradient id="paint15_linear" x1="29.012" y1="149.016" x2="124.998" y2="145.62" gradientUnits="userSpaceOnUse"><stop stop-color="#414042"/><stop offset="1" stop-color="#D1D3D4"/></linearGradient><linearGradient id="paint16_linear" x1="124.811" y1="130.374" x2="83.269" y2="130.905" gradientUnits="userSpaceOnUse"><stop stop-color="#414042"/><stop offset="1" stop-color="#D1D3D4"/></linearGradient><linearGradient id="paint17_linear" x1="86.972" y1="124.991" x2="26.063" y2="125.219" gradientUnits="userSpaceOnUse"><stop stop-color="#414042"/><stop offset="1" stop-color="#D1D3D4"/></linearGradient><linearGradient id="paint18_linear" x1="42.492" y1="136.227" x2="30.265" y2="118.539" gradientUnits="userSpaceOnUse"><stop/><stop offset="1" stop-color="#BCBEC0"/></linearGradient><linearGradient id="paint19_linear" x1="171.336" y1="53.237" x2="75.293" y2="53.952" gradientUnits="userSpaceOnUse"><stop stop-color="#414042"/><stop offset="1" stop-color="#D1D3D4"/></linearGradient><linearGradient id="paint20_linear" x1="117.057" y1="69.517" x2="75.356" y2="70.124" gradientUnits="userSpaceOnUse"><stop stop-color="#414042"/><stop offset="1" stop-color="#D1D3D4"/></linearGradient><linearGradient id="paint21_linear" x1="174.104" y1="75.546" x2="113.668" y2="75.767" gradientUnits="userSpaceOnUse"><stop stop-color="#414042"/><stop offset="1" stop-color="#D1D3D4"/></linearGradient><linearGradient id="paint22_linear" x1="157.507" y1="65.648" x2="169.24" y2="83.659" gradientUnits="userSpaceOnUse"><stop/><stop offset="1" stop-color="#BCBEC0"/></linearGradient></defs></svg>