<svg width="17" height="16" fill="none" xmlns="http://www.w3.org/2000/svg"><path d="M3.117 4.572c0 .083.123.175.287.175h9.188c.165 0 .287-.092.287-.175v-2.53l-1.985 1.422a.972.972 0 0 1-1.177-.056L7.998 1.869l-1.72 1.54a.972.972 0 0 1-1.176.056L3.117 2.042v2.53zM5.402 7.51L7.31 5.638H3.15L5.401 7.51zM8 5.753L6.11 7.61h3.76L8 5.753zm3.344 1.856H16a.294.294 0 0 0-.086-.093l-2.409-1.703-2.162 1.796zm1.487-1.971h-4.14l1.887 1.87 2.253-1.87zM8.461 16l7.296-7.828h-4.981L8.461 16zM5.8 8.172l2.189 7.401 2.189-7.4H5.8zm-5.553 0l7.259 7.788-2.304-7.788H.247zm2.234-2.35L.086 7.517A.294.294 0 0 0 0 7.61h4.632l-2.15-1.787zM3.695.847a.854.854 0 0 1-.862.845.853.853 0 0 1-.861-.845c0-.467.385-.846.861-.846s.862.379.862.846zm5.165 0A.854.854 0 0 1 8 1.69a.853.853 0 0 1-.862-.845A.853.853 0 0 1 8 0c.475 0 .861.379.861.846zm5.167 0a.853.853 0 0 1-.86.845.854.854 0 0 1-.862-.845c0-.467.385-.846.861-.846s.861.379.861.846z" fill="#AAA"/></svg>