<svg width="20" height="20" fill="none" xmlns="http://www.w3.org/2000/svg"><path d="M10.524 7.95v1.006c0 .319.073.587.217.796.199.288.525.453.895.453.362 0 .723-.155 1.07-.459l3.799-3.321c.833-.73.833-1.916 0-2.645L12.707.459C12.359.154 11.998 0 11.636 0c-.553 0-1.112.386-1.112 1.25v.912C5.132 2.441.668 6.06.005 10.797c-.037.265.135.518.418.616.08.028.164.041.247.041a.705.705 0 0 0 .54-.24C2.99 9.089 5.848 7.82 8.854 7.82c.557 0 1.117.044 1.671.131zm-8.582.885c1.459-3.257 5.088-5.518 9.252-5.518.37 0 .67-.262.67-.586V1.38l3.693 3.23a.64.64 0 0 1 0 .987l-3.693 3.23V7.472c0-.271-.213-.507-.516-.57-.82-.17-1.66-.256-2.495-.256a12.1 12.1 0 0 0-4.97 1.058c-.69.313-1.341.694-1.94 1.13z" fill="#999"/><path d="M19.577 8.584a.73.73 0 0 0-.787.199c-1.78 2.126-4.637 3.395-7.643 3.395-.557 0-1.117-.044-1.67-.13v-1.006c0-.863-.559-1.25-1.112-1.25-.363 0-.723.155-1.071.46l-3.798 3.32c-.834.73-.834 1.916 0 2.646l3.798 3.32c.348.305.708.46 1.07.46.554 0 1.112-.387 1.112-1.25v-.913c5.392-.279 9.856-3.897 10.52-8.635.037-.264-.135-.518-.419-.616zM8.807 16.68c-.37 0-.67.263-.67.586v1.352l-3.693-3.229a.64.64 0 0 1 0-.988l3.692-3.229v1.352c0 .272.214.508.516.57.821.17 1.66.256 2.495.256a12.1 12.1 0 0 0 4.97-1.057 11.07 11.07 0 0 0 1.941-1.13C16.6 14.418 12.97 16.68 8.806 16.68z" fill="#999"/></svg>