<svg width="30" height="30" fill="none" xmlns="http://www.w3.org/2000/svg">
  <g clip-path="url(#krungsri-color-30px__clip0)">
    <path d="M28 0H2a2 2 0 00-2 2v26a2 2 0 002 2h26a2 2 0 002-2V2a2 2 0 00-2-2z" fill="#6F5F5E"/>
    <path d="M12.197 16.528c-.579-.596-1.277-1.567-1.712-2.973 0 0-.017-.051-.042-.051-.026 0-.051.06-.051.06-.954 3.092-3.254 4.31-4.038 4.574-.042.017-.042.05-.042.068a9.157 9.157 0 001.763 2.93c.017.009.042.026.085 0 2.462-1.405 3.867-4.148 4.054-4.531.018-.035 0-.06-.017-.077zm5.587 0c.009 0 .009 0 0 0 .58-.596 1.278-1.567 1.721-2.973 0 0 .017-.051.043-.051.025 0 .05.06.05.06.955 3.092 3.255 4.31 4.038 4.574.043.017.043.05.043.068a9.158 9.158 0 01-1.763 2.93c-.017.009-.043.026-.085 0-2.47-1.405-3.868-4.148-4.055-4.531-.017-.035.008-.06.008-.077zm1.671 6.525c-3.484-3.39-4.404-9.447-4.404-9.447s-.017-.102-.06-.102c-.042 0-.06.102-.06.102s-.91 6.056-4.403 9.447c0 0-.034.034 0 .06a9.219 9.219 0 004.395 1.14h.12a9.219 9.219 0 004.395-1.14c.05-.026.017-.06.017-.06zM19.83 7.1c-.051-.026-.051.042-.051.042.008 1.09.153 7.121 4.361 8.961.043.017.051-.009.051-.017.043-.358.068-.715.068-1.082A9.28 9.28 0 0019.83 7.1zm-9.66 0c.051-.026.051.042.051.042-.008 1.09-.153 7.121-4.361 8.961-.034.017-.051-.009-.051-.017a9.107 9.107 0 01-.068-1.082A9.242 9.242 0 0110.17 7.1zm9.097-.315a9.154 9.154 0 00-4.003-1.039c-.043 0-.034.051-.034.051 0 1.84.298 6.142 1.729 9.046.008.034.034.017.051.017l.008-.008c.145-.154 2.369-2.598 2.283-7.999 0-.042-.025-.068-.034-.068zm-8.544 0a9.184 9.184 0 014.004-1.039c.043 0 .034.051.034.051 0 1.84-.298 6.142-1.738 9.046-.008.034-.042.017-.042.017-.009 0-.009-.008-.009-.008-.145-.154-2.368-2.598-2.283-7.999 0-.042.017-.068.034-.068z" fill="#FFD400"/>
  </g>
  <defs>
    <clipPath id="krungsri-color-30px__clip0">
      <path fill="#fff" d="M0 0h30v30H0z"/>
    </clipPath>
  </defs>
</svg>
