<svg width="30" height="30" fill="none" xmlns="http://www.w3.org/2000/svg">
  <g clip-path="url(#astropay-color-30px__clip0)">
    <path d="M28 0H2a2 2 0 00-2 2v26a2 2 0 002 2h26a2 2 0 002-2V2a2 2 0 00-2-2z" fill="red"/>
    <g clip-path="url(#astropay-color-30px__clip1)" fill="#FFFEFE">
      <path d="M19.615 22.802c-.374 0-.754-.016-1.123.006-.232.016-.298-.1-.353-.276-.396-1.184-.798-2.362-1.19-3.546-.054-.171-.132-.226-.308-.22-1.123.005-2.252.005-3.376 0-.176 0-.253.049-.303.22-.39 1.206-.793 2.406-1.184 3.607-.05.154-.11.22-.28.215a82.619 82.619 0 00-2.336 0c-.22.005-.209-.077-.154-.237 1.217-3.558 2.429-7.12 3.646-10.679.308-.903.622-1.806.925-2.715.055-.165.127-.22.309-.22a76.74 76.74 0 002.252 0c.16 0 .237.044.292.204 1.437 4.235 2.886 8.464 4.329 12.694.082.248.16.501.259.749.066.17.01.204-.15.198-.429-.005-.842 0-1.255 0zm-3.42-6.339l-1.25-3.634c-.424 1.25-.82 2.434-1.228 3.634h2.478zm6.157-9.943c-.666.204-1.305.424-1.96.578-.21.05-.457-.077-.688-.126a13.91 13.91 0 00-4.191-.287c-1.63.138-3.178.53-4.637 1.278a8.73 8.73 0 00-2.402 1.862c-.137-.386-.264-.738-.385-1.09-.138-.397-.248-.805-.402-1.19-.077-.193-.022-.27.137-.37 1.157-.715 2.407-1.211 3.723-1.536 1.862-.463 3.75-.578 5.662-.43a15.84 15.84 0 015.143 1.311z"/>
    </g>
  </g>
  <defs>
    <clipPath id="astropay-color-30px__clip0">
      <path fill="#fff" d="M0 0h30v30H0z"/>
    </clipPath>
    <clipPath id="astropay-color-30px__clip1">
      <path fill="#fff" transform="translate(7.648 5.148)" d="M0 0h14.704v17.667H0z"/>
    </clipPath>
  </defs>
</svg>
