<svg width="16" height="16" fill="none" xmlns="http://www.w3.org/2000/svg"><path d="M15.253 2.28c-.407 0-.724.3-.724.688 0 .172.068.344.181.451-1.222.925-2.557 1.549-4.074 1.785-1.697-1.634-2.24-3.01-2.421-3.87A.683.683 0 008.69.687C8.713.301 8.373 0 7.99 0c-.385 0-.724.301-.724.688 0 .301.203.538.475.645-.159.796-.657 2.065-2.082 3.549l-.34.322c-1.516-.236-2.851-.86-4.073-1.785a.675.675 0 00.18-.451c0-.387-.316-.688-.723-.688-.385 0-.702.3-.702.666 0 .387.317.688.724.688a.69.69 0 00.204-.043c.679 1.377 1.131 2.925 1.358 4.624 1.335-.86 3.281-1.484 5.703-1.484 2.421 0 4.367.624 5.703 1.484.226-1.699.679-3.226 1.357-4.624a.7.7 0 00.227.043c.407 0 .724-.3.724-.688-.023-.365-.34-.666-.747-.666z" fill="#FEB83C"/><path d="M2.173 9.054c-.475.968-.407 1.699-.407 1.699 0 1.634 1.38 2.946 3.1 2.946 1.652 0 3.01-1.247 3.1-2.796C7.853 13.183 6.36 15.14 4.255 16h7.423c-2.105-.86-3.598-2.817-3.712-5.097.09 1.549 1.449 2.796 3.1 2.796 1.72 0 3.101-1.312 3.101-2.946 0 0 .068-.753-.407-1.7-1.403-.967-3.395-1.655-5.794-1.655-2.398.021-4.367.71-5.793 1.656z" fill="#FEB83C"/></svg>