<svg fill="none" height="200" width="200" xmlns="http://www.w3.org/2000/svg"><path d="m200 0h-200v200h200z" fill="#313427"/><g fill="#009a4d"><path d="m78.218 84.226-9.163-9.163h-20.934v12.123l18.96 18.961-18.819 18.749s-1.762 10.714 10.573 21.357l19.383-19.031v34.679l19.525 10.432v-97.34h-19.525z"/><path d="m48.12 92.758v4.017l8.529 8.952-8.881 9.375v4.017l12.898-13.392-12.546-12.97zm113.692-32.71v-30.73l-33.692 15.365-28.195-28.335-28.194 28.335-33.691-15.366v30.732h123.773zm-82.398-16.07 19.666-20.018.845-.846.846.846 19.666 20.018h-5.639l-14.802-14.802-14.802 14.802zm11.207 3.03 9.304-9.374 9.304 9.375-9.304 9.515-9.304-9.515zm-26.573 104.325 7.824-7.613v13.745l2.82 2.115v-22.485l-12.829 12.194zm38.136-76.34v97.341l19.524-10.432v-34.679l19.384 19.031c12.335-10.714 10.572-21.357 10.572-21.357l-18.819-18.82 18.96-18.96v-12.125h-20.863l-9.163 9.163v-9.163h-19.595z"/><path d="m151.734 92.758-12.546 12.969 12.898 13.392v-4.017l-8.881-9.375 8.529-8.952zm-26.574 66.821 2.82-2.115v-13.745l7.823 7.613 2.186-2.044-12.829-12.194z"/><path d="m99.928 64.273h-62.028v64.847c0 11.489 10.362 24.388 30.803 38.485 14.66 10.15 29.11 17.058 29.745 17.34l1.55.705 1.551-.705c.634-.282 15.013-7.26 29.745-17.34 20.441-14.097 30.802-26.996 30.802-38.485v-64.847zm54.978 64.847c0 15.225-27.912 33.974-46.45 44.265-1.762.987-3.383 1.833-4.934 2.679l-3.524 1.903-3.524-1.903a88.838 88.838 0 0 1 -4.934-2.679c-18.679-10.291-46.591-29.04-46.591-44.265v-57.798h109.957z"/></g></svg>