<svg width="20" height="20" fill="none" xmlns="http://www.w3.org/2000/svg"><rect x="18.332" y="16.445" width="16.667" height="8.333" rx="2" transform="rotate(-180 18.332 16.445)" fill="#FEB83C"/><rect x="18.332" y="16.445" width="16.667" height="8.333" rx="2" transform="rotate(-180 18.332 16.445)" fill="url(#paint0_linear)"/><path d="M7.636 14.778l1.722-4.445H8.025l-1.127 3.205-1.12-3.205H4.445l1.715 4.445h1.476zm3.234 0v-4.445H9.694v4.445h1.175zm1.995 0v-1.493h1.106c1.025 0 1.585-.673 1.585-1.472 0-.807-.56-1.48-1.585-1.48H11.69v4.445h1.175zm.95-2.492h-.95v-.953h.95c.314 0 .546.173.546.48 0 .3-.232.473-.547.473z" fill="#2C2F3C"/><path d="M10 4.766l-.478.653.477.653.478-.653-.478-.653zm0 0l-.478.653.477.653.478-.653-.478-.653zm4.027-1.015L12.163 4.89l-1.938-2.782c-.1-.144-.352-.144-.452 0L7.836 4.89 5.97 3.75c-.196-.12-.468.03-.408.225l.712 2.297h1.641c.144 0 .26.096.26.214s-.116.214-.26.214H6.407l.215.694c.03.094.133.16.252.16h6.25c.119 0 .223-.066.252-.16l.215-.694h-1.509c-.144 0-.26-.096-.26-.214s.117-.214.26-.214h1.641l.712-2.297c.06-.195-.212-.344-.408-.225zM11.004 5.53l-.782 1.068c-.1.138-.345.139-.446 0L8.995 5.53a.182.182 0 0 1 0-.22l.78-1.069c.102-.137.346-.138.447 0l.782 1.069c.049.067.049.152 0 .22zm-1.482-.11l.477.653.478-.653-.478-.653-.477.653z" fill="#FFCE77"/><path d="M8.167 3.555l-.49.704-.728-.444.192-.789c.044-.18.33-.233.464-.086l.562.615zm4.883.26l-.728.444-.49-.704.562-.615c.135-.148.42-.095.464.086l.192.789z" fill="#FFBB43"/><path d="M10.001 18.667l-3.333-2.223h6.667L10 18.668z" fill="#FFC661"/><path d="M19.999 12.278l-1.667 1.389v-2.778l1.667 1.389z" fill="#FFCC71"/><path d="M.001 12.278l1.667 1.389v-2.778L.001 12.278z" fill="#FFBB43"/><defs><linearGradient id="paint0_linear" x1="34.999" y1="24.778" x2="18.332" y2="16.445" gradientUnits="userSpaceOnUse"><stop stop-color="#FEB83C"/><stop offset="1" stop-color="#FFCE77"/></linearGradient></defs></svg>