<svg width="20" height="20" viewBox="0 0 20 20" xmlns="http://www.w3.org/2000/svg">
<path d="M17.0711 2.92891C15.1823 1.0402 12.6711 0 10 0C7.32891 0 4.8177 1.0402 2.92891 2.92891C1.0402 4.8177 0 7.32891 0 10C0 12.6711 1.0402 15.1823 2.92891 17.0711C4.8177 18.9598 7.32891 20 10 20C12.6711 20 15.1823 18.9598 17.0711 17.0711C18.9598 15.1823 20 12.6711 20 10C20 7.32891 18.9598 4.8177 17.0711 2.92891V2.92891ZM16.2424 16.2424C14.575 17.9098 12.3581 18.8281 10 18.8281C7.64191 18.8281 5.425 17.9098 3.75758 16.2424C2.09016 14.575 1.17188 12.3581 1.17188 10C1.17188 7.64191 2.09016 5.425 3.75758 3.75758C5.425 2.09016 7.64191 1.17188 10 1.17188C12.3581 1.17188 14.575 2.09016 16.2424 3.75758C17.9098 5.425 18.8281 7.64191 18.8281 10C18.8281 12.3581 17.9098 14.575 16.2424 16.2424Z" />
<path d="M10 2.34375C5.77832 2.34375 2.34375 5.77832 2.34375 10C2.34375 14.2217 5.77832 17.6562 10 17.6562C14.2217 17.6562 17.6562 14.2217 17.6562 10C17.6562 5.77832 14.2217 2.34375 10 2.34375ZM10 16.4844C6.42449 16.4844 3.51562 13.5755 3.51562 10C3.51562 6.42449 6.42449 3.51562 10 3.51562C13.5755 3.51562 16.4844 6.42449 16.4844 10C16.4844 13.5755 13.5755 16.4844 10 16.4844Z" />
<path d="M12.9913 9.83027C13.377 9.41234 13.6133 8.85441 13.6133 8.24219C13.6133 6.94984 12.5619 5.89844 11.2695 5.89844V5.3125C11.2695 4.98891 11.0072 4.72656 10.6836 4.72656C10.36 4.72656 10.0977 4.98891 10.0977 5.3125V5.89844H8.92578V5.3125C8.92578 4.98891 8.66344 4.72656 8.33984 4.72656C8.01625 4.72656 7.75391 4.98891 7.75391 5.3125V5.89844H7.36328C7.03969 5.89844 6.77734 6.16078 6.77734 6.48438C6.77734 6.80797 7.03969 7.07031 7.36328 7.07031H7.75391V12.9297H7.36328C7.03969 12.9297 6.77734 13.192 6.77734 13.5156C6.77734 13.8392 7.03969 14.1016 7.36328 14.1016H7.75391V14.6875C7.75391 15.0111 8.01625 15.2734 8.33984 15.2734C8.66344 15.2734 8.92578 15.0111 8.92578 14.6875V14.1016H10.0977V14.6875C10.0977 15.0111 10.36 15.2734 10.6836 15.2734C11.0072 15.2734 11.2695 15.0111 11.2695 14.6875V14.1016H11.6602C12.9525 14.1016 14.0039 13.0502 14.0039 11.7578C14.0039 10.9596 13.6025 10.2537 12.9913 9.83027ZM8.92578 7.07031H11.2695C11.9157 7.07031 12.4414 7.59602 12.4414 8.24219C12.4414 8.88836 11.9157 9.41406 11.2695 9.41406H8.92578V7.07031ZM11.6602 12.9297H8.92578V10.5859H11.6602C12.3063 10.5859 12.832 11.1116 12.832 11.7578C12.832 12.404 12.3063 12.9297 11.6602 12.9297Z" />
</svg>
