<svg width="20" height="20" xmlns="http://www.w3.org/2000/svg"><path d="M11.758 2.402V0h-.586C5.018 0 0 5.045 0 11.172v.586h3.577a7.63 7.63 0 0 0 7.009 7.009V20h.586C16.024 20 20 16.023 20 11.172c0-4.657-3.666-8.47-8.242-8.77zM10.586 1.19v9.397H1.189c.293-5.049 4.348-9.104 9.397-9.397zM4.753 11.758h5.833v5.832a6.456 6.456 0 0 1-5.833-5.832zm7.005 7.048V3.576c3.949.3 7.07 3.592 7.07 7.596 0 4.024-3.121 7.334-7.07 7.634z"/><path d="M4.482 8.828l3.172-3.172.829.829L5.31 9.657l-.829-.829zm2.588-.586h1.172v1.172H7.07V8.242zM4.727 5.898h1.171V7.07H4.727V5.898zm9.96 3.516c.324 0 .586.263.586.586h1.172a1.76 1.76 0 0 0-1.172-1.657V7.07h-1.171v1.273A1.76 1.76 0 0 0 12.93 10c0 .97.788 1.758 1.758 1.758a.587.587 0 1 1-.586.586H12.93c0 .764.49 1.415 1.172 1.657v1.272h1.171v-1.272a1.76 1.76 0 0 0 1.172-1.657 1.76 1.76 0 0 0-1.758-1.758.587.587 0 0 1 0-1.172z"/></svg>