<svg width="200" height="200" fill="none" xmlns="http://www.w3.org/2000/svg"><path d="M200 0H0v200h200V0z" fill="url(#paint0_radial)"/><g clip-path="url(#clip0)"><path d="M88.464 157.245c-.787-1.165-1.154-2.437-.787-3.814 1.73-6.463 1.783-13.084 1.521-19.706-.052-.689-.315-1.377-.524-2.013-.21-.636.104-.954.681-.848 4.144 1.06 8.182-.424 12.22-.741 1.73-.106 3.461-.795 5.192-.954.682-.053 1.573.318 2.202.742 1.836 1.218 1.626 1.324 1.207 3.443-.42 2.119-.42 4.344-.368 6.463.105 4.767.315 9.482.472 14.25.053 1.748-.524 3.39-1.573 4.767-.786 1.06-1.154.954-1.835-.159-.839-1.324-1.731-2.648-2.727-4.185.472.053.891 0 1.206.106 1.888.477 2.36.265 2.412-1.695.158-3.443.21-6.939.158-10.383-.053-3.072-.21-6.144-.472-9.217-.105-1.695-.84-2.225-2.57-2.066-3.724.371-7.447.795-11.118 1.271-2.518.318-2.518.371-2.675 2.914-.21 4.026-.315 8.105-.577 12.131-.157 2.649-.524 5.244-.891 7.893-.105.636-.472 1.218-.735 1.854-.105 0-.262-.053-.42-.053zm-20.085-2.436c1.258-.901 2.412-1.695 3.566-2.543l.21.212c-.105.212-.21.477-.367.689-1.521 2.066-2.99 4.132-4.51 6.145-.21.265-.577.688-.84.635-.262 0-.576-.476-.734-.794-.577-1.166-.524-2.172.053-3.496.734-1.643.996-3.603 1.101-5.404.21-3.496.42-6.992-.63-10.383-.21-.741.21-1.059.787-.794 1.154.53 1.94.053 2.675-.689 1.101-1.006 2.15-2.066 3.252-3.072.21-.212.681-.424.943-.318.525.159 1.05.477 1.469.848.63.529.524.953-.21 1.271-1.783.741-3.566 1.483-5.297 2.278-1.783.794-1.993 2.595-.577 3.973.472.424.892.847 1.312 1.324.524.636 1.048.636 1.468-.053.839-1.218 1.678-2.49 2.412-3.761.315-.583.682-.848 1.154-.477.525.424 1.049.954 1.259 1.536.105.212-.63.795-1.102 1.113-1.048.795-2.202 1.589-3.251 2.384-.525.371-.42.741-.053 1.112 2.728 2.808 5.822 4.927 9.598 6.039.629.212 1.153.636 1.73.954-.577.212-1.101.529-1.73.635-.944.159-1.888.212-2.885.318-1.73.212-2.937-.636-3.933-1.96-1.783-2.49-3.619-4.926-5.402-7.416-.314-.477-.734-.848-1.101-1.271-.105.052-.262.052-.367.105v10.86zm79.347-7.31c-1.94.265-3.881.636-5.821.794-.629.053-1.364-.529-1.888-1.006-1.626-1.43-3.147-2.967-4.668-4.503-.576-.583-.891-.583-1.468.053-2.255 2.278-4.72 4.238-7.762 5.297-.314.106-.681.159-1.049.212a46.548 46.548 0 0 0-.157-.317c.472-.318.892-.636 1.364-.901 2.464-1.483 4.72-3.231 6.608-5.403.472-.583.629-1.06-.053-1.537-.262-.158-.419-.423-.682-.635-1.73-1.589-1.783-1.589-3.618-.159-.367.318-.839.53-1.259.794-.105-.105-.157-.211-.262-.317.262-.318.472-.689.734-1.007 1.94-2.278 3.619-4.767 4.615-7.628.315-.901.42-1.907.472-2.861.053-.847.42-.953 1.049-.582.367.212.734.423 1.049.688.839.53.996 1.06.262 1.96-.891 1.06-1.573 2.331-2.255 3.656 1.573.052 2.884-.265 4.143-1.06.944-.636 3.147.212 3.356 1.377.053.265-.209.583-.419.848-1.364 1.748-2.78 3.496-4.091 5.297-.157.212.105.954.367 1.219 2.937 2.542 6.346 4.026 10.122 4.82.472.106.892.265 1.364.424-.053.053-.053.265-.053.477zm-13.478-7.84c.839-1.325 1.678-2.596 2.413-3.92.367-.636.209-1.166-.682-1.113-1.154.106-2.36.265-3.514.371a.44.44 0 0 0-.367.212c-.472.689-.944 1.377-1.416 1.96 1.206.901 2.307 1.642 3.566 2.49z" fill="#000"/><path d="M56.894 158.676c.157-.265.314-.583.576-.794 2.937-3.285 4.353-7.311 4.878-11.602.314-2.436.42-4.873.472-7.31.052-1.165-.21-2.384-.42-3.549-.105-.795-.052-1.219.944-1.06a1.78 1.78 0 0 0 1.154-.265c1.363-1.112 2.727-2.277 3.986-3.496.524-.53.891-1.271 1.101-2.013.315-.9.787-1.112 1.573-.741.682.317 1.364.688 1.993 1.165.892.636.734 1.059-.21 1.589-2.517 1.325-5.034 2.649-7.5 4.079-.366.212-.68.848-.68 1.272-.106 5.35-.525 10.647-1.889 15.786-.734 2.754-2.255 4.979-4.563 6.674-.314.212-.734.371-1.048.583a3.143 3.143 0 0 1-.367-.318zm65.292-19.228c-1.259.371-2.57.689-3.776 1.166-.577.212-1.206.53-1.416-.265-.157-.583-.157-1.589.157-1.854 3.147-2.384 3.881-5.774 4.248-9.429.053-.371.105-.742.21-1.113.367.106.787.159 1.154.371 1.573.953 1.626 1.43.682 2.966-1.364 2.225-2.675 4.503-3.986 6.781 1.73 1.007 3.933.424 4.667-1.271.367-.795.577-1.695.839-2.543.21-.636.525-.795 1.102-.371 1.101.742 1.258 1.272.524 2.384-1.626 2.49-3.304 4.927-4.982 7.416-.105.159-.21.371-.472.795 1.783-.265 3.356-.53 4.93-.795.052.159.105.318.157.53-.419.265-.839.53-1.311.742-1.888.847-3.776 1.695-5.716 2.436-.263.106-.944 0-.944-.106-.158-.688-.315-1.377-.21-2.066.052-.317.629-.529.944-.741 1.73-1.113 2.57-2.861 3.461-4.609-.052-.106-.157-.265-.262-.424zm18.722 11.071c-.157.212-.367.477-.524.688-.525.636-1.102 1.219-1.469 1.907-.21.424-.262 1.166-.052 1.59.419.953.157 1.165-.734 1.271-2.151.159-4.301.265-6.451.477-.367.053-.787.265-.944.53-.42.794-.787.529-1.049-.053-.21-.424-.262-.954-.367-1.484-.42-1.96-.787-3.92-1.259-5.88-.157-.635.053-.9.63-.741 2.569.847 4.929-.053 7.342-.689 1.416-.371 3.881.53 4.667 1.801 0 .265.053.371.21.583zm-10.594 1.854c.315 3.178.315 3.178 3.514 2.701 3.199-.423 3.357-.635 3.409-3.867.052-1.377-.157-1.642-1.468-1.536-1.416.106-2.832.53-4.248.477-1.259 0-1.469.424-1.311 1.483.104.265.104.53.104.742zm-32.777-1.377c.157-.265.315-.53.472-.848 1.154-2.119 2.308-4.185 3.357-6.357.209-.424.052-1.112-.158-1.536-.472-.901-1.154-1.642-1.678-2.49a2.566 2.566 0 0 1-.42-1.165c1.416.318 1.836 1.801 3.147 2.542.682-1.589.892-3.231.892-4.926 0-.53.104-1.007.104-1.536.525.212 1.259.318 1.626.688.315.371.577 1.113.42 1.59-.42 1.695-1.102 3.284-1.574 4.979-.104.424.053 1.06.263 1.43.524.954 1.311 1.748 1.73 2.755.315.795.315 1.695.367 2.596 0 .212-.314.476-.472.741-.209-.159-.576-.265-.681-.529-.577-1.007-1.049-2.066-1.574-3.126-.105-.212-.262-.424-.524-.847-1.678 2.171-2.517 4.926-5.035 6.197-.052 0-.157-.053-.262-.158z" fill="#000"/><path d="M95.65 144.851c-1.312 2.542-2.256 4.873-4.144 6.515a46.25 46.25 0 0 0-.315-.158c.158-.424.315-.795.472-1.219.944-2.013 1.94-3.973 2.78-5.986.21-.477.157-1.218-.052-1.695-.473-1.165-1.102-2.225-1.679-3.337a8.194 8.194 0 0 1-.42-1.007c.106-.106.263-.212.368-.265.891 1.113 1.73 2.225 2.622 3.338.157 0 .315-.053.472-.053l.63-4.132c.052-.477.21-.901.314-1.325.42.212.996.318 1.259.636.262.318.472.954.367 1.377-.472 1.484-1.05 2.914-1.626 4.344-.262.689-.21 1.219.21 1.854.734 1.113 1.52 2.278 1.31 3.761-.052.371-.366.689-.524 1.06-.262-.265-.576-.477-.734-.795-.472-.953-.786-1.801-1.31-2.913zm-35.61-2.597c-.105.371-.158.689-.263 1.06-1.258 3.602-2.517 7.257-3.776 10.859-.105.371-.42.689-.681 1.007-.263-.318-.682-.636-.84-1.007a28.082 28.082 0 0 1-.786-3.178c-.053-.318.105-.901.314-.954 1.626-.688 2.255-2.277 3.095-3.602.734-1.112 1.363-2.331 2.045-3.496.157-.265.367-.53.577-.795.157 0 .262.053.314.106zm55.643 10.171c3.408-1.006 6.712-1.96 10.016-2.913.053.106.105.212.158.371-.367.317-.682.635-1.049.847-2.045 1.219-4.143 2.384-6.241 3.549-1.154.583-2.255-.106-2.884-1.854zm-55.224-19.599c-.105.159-.315.636-.63.795-.261.106-.838-.106-1.1-.371-.84-.9-1.574-1.907-2.256-2.913-.105-.159.158-.848.315-.901 1.678-.318 3.724 1.43 3.671 3.39zm-3.041 7.999c-.053.159-.158.636-.42.742-.262.106-.839.053-1.049-.159-.891-.848-1.783-1.695-2.465-2.702-.577-.795.158-1.006.787-1.059 1.678-.106 3.094 1.218 3.147 3.178z" fill="#000"/><path d="M80.126 54.159l2.937 62.615h10.331l14.947-39.36 3.671 39.36h10.436L142.849 54h-10.594l-12.796 42.59-3.776-42.431h-8.076l-15.734 41.69L90.405 54l-10.279.159zm-21.66.001H38.17L27 116.775h10.594l4.772-23.044c3.252 0 13.163.318 17.674-.688 4.562-1.007 15.418-8.74 15.208-24.368-.21-14.674-16.782-14.515-16.782-14.515zm6.084 18.912c-1.626 11.495-9.755 11.866-9.755 11.866H43.153l4.09-21.772h8.758c0 .053 9.965-.265 8.549 9.906zm85.43-18.912l-11.118 62.615h33.722l1.416-9.059h-22.918l9.545-53.556H149.98z" fill="#FF0008"/></g><defs><radialGradient id="paint0_radial" cx="0" cy="0" r="1" gradientUnits="userSpaceOnUse" gradientTransform="rotate(45) scale(282.843)"><stop offset=".25" stop-color="#E3E3E3"/><stop offset="1" stop-color="#9A9A9A"/></radialGradient><clipPath id="clip0"><path fill="#fff" transform="translate(27 54)" d="M0 0H147V106H0z"/></clipPath></defs></svg>