<svg width="200" height="200" fill="none" xmlns="http://www.w3.org/2000/svg"><path d="M200 0H0v200h200V0z" fill="#464646"/><path d="M99.998 179.135c43.776 0 79.262-35.43 79.262-79.136 0-43.705-35.486-79.136-79.262-79.136-43.775 0-79.262 35.43-79.262 79.136 0 43.706 35.487 79.136 79.262 79.136z" fill="#B61119"/><path d="M99.975 153.42c29.485 0 53.386-23.902 53.386-53.386S129.46 46.648 99.976 46.648c-29.485 0-53.386 23.902-53.386 53.386S70.49 153.42 99.975 153.42z" fill="#fff"/><path d="M91.647 69.237v-8.33h6.058v8.33H103.258v-8.456h6.058v8.961c4.796.757 8.456 2.272 10.727 4.67 2.272 2.271 3.534 5.426 3.534 9.465 0 2.777-.631 5.048-2.019 6.942-1.262 1.893-3.282 3.407-5.932 4.543 3.408 1.262 5.932 3.029 7.573 5.175 1.64 2.145 2.397 4.922 2.397 8.077 0 4.543-1.388 8.077-4.038 10.727-2.651 2.651-6.815 4.291-12.242 5.049v10.727h-6.058v-10.349h-5.553v10.349h-6.058v-10.349H78.143v-9.465H84.2v-36.6h-6.058v-9.466h13.504zm6.058 21.96h4.417c2.776 0 4.796-.505 6.058-1.64 1.262-1.136 1.767-2.777 1.767-5.049 0-1.514-.253-2.65-.884-3.407-.631-.758-1.514-1.263-2.776-1.767-1.262-.505-2.903-.758-5.301-.758h-3.281v12.621zm0 24.106h5.679c2.65 0 4.796-.631 6.184-1.767 1.388-1.262 2.146-3.029 2.146-5.427 0-2.777-.758-4.67-2.398-5.806-1.641-1.135-4.291-1.766-8.078-1.766h-3.533v14.766z" fill="#F7941D"/><path d="M99.976 40.592c4.922 0 9.592.63 14.135 1.64l4.165-18.552c-6.942-1.893-14.135-2.903-21.455-2.903a75.18 75.18 0 0 0-15.145 1.515l4.417 19.94c4.417-1.01 9.087-1.64 13.883-1.64zm0 118.76c-4.922 0-9.592-.631-14.135-1.641l-4.165 18.552a79.818 79.818 0 0 0 21.329 2.903 75.23 75.23 0 0 0 15.145-1.514l-4.418-19.941c-4.417 1.136-9.087 1.641-13.756 1.641zm52.5-87.084c2.272 4.29 3.913 8.708 5.049 13.252l18.3-5.049c-1.515-6.941-3.913-13.756-7.446-20.319-2.398-4.544-5.175-8.834-8.33-12.62l-15.524 13.251a57.953 57.953 0 0 1 7.951 11.485zM47.471 127.674c-2.271-4.291-3.912-8.709-5.048-13.252l-18.3 5.048c1.514 6.942 3.912 13.757 7.446 20.32 2.398 4.543 5.175 8.834 8.33 12.62l15.65-13.252c-3.282-3.407-5.932-7.193-8.078-11.484zm102.989 3.537c-2.525 4.164-5.554 7.824-8.835 11.106l13.63 13.252a80.62 80.62 0 0 0 13.757-16.66c2.65-4.417 4.922-8.961 6.689-13.63l-19.31-6.689c-1.514 4.291-3.407 8.582-5.931 12.621zM49.367 68.733c2.524-4.165 5.553-7.825 8.835-11.106L44.697 44.375a80.661 80.661 0 0 0-13.756 16.66c-2.777 4.417-4.922 8.96-6.689 13.63l19.31 6.689c1.388-4.291 3.407-8.582 5.805-12.621z" fill="#D9D4D4"/></svg>