<svg width="20" height="20" fill="none" xmlns="http://www.w3.org/2000/svg"><path d="M18.75 7.059v-3.53H15V0H6.875v2.353H5v1.176H2.5C1.121 3.53 0 4.585 0 5.882v10.844C0 18.53 1.56 20 3.48 20H20V7.059h-1.25zM17.5 4.706v2.353H15V4.706h2.5zm-9.375-3.53h5.625V7.06H12.5V2.353H8.125V1.176zM6.25 3.53h5v3.53h-5v-3.53zM2.5 4.706H5v2.353H2.5c-.69 0-1.25-.528-1.25-1.177 0-.648.56-1.176 1.25-1.176zm-1.25 12.02V7.918c.368.2.795.316 1.25.316h.625v10.562c-1.061-.16-1.875-1.028-1.875-2.072zm17.5-2.007h-3.415l-.834-1.176.834-1.176h3.415v2.352zm-4.085-3.529L13 13.543l1.666 2.353h4.085v2.927H6.875v-5.28h-1.25v5.28h-1.25V8.236H18.75v2.955h-4.085z" opacity=".7"/></svg>