<svg width="20" height="20" fill="none" xmlns="http://www.w3.org/2000/svg"><path d="M10 0C4.494 0 0 4.494 0 10s4.494 10 10 10 10-4.494 10-10S15.506 0 10 0zm8.808 9.414h-2.35a6.416 6.416 0 0 0-1.487-3.556l1.669-1.67a8.792 8.792 0 0 1 2.168 5.226zm-8.222-8.222A8.791 8.791 0 0 1 15.81 3.36l-1.667 1.67a6.417 6.417 0 0 0-3.557-1.486V1.192zm-1.172 0v2.35A6.417 6.417 0 0 0 5.858 5.03l-1.67-1.67a8.792 8.792 0 0 1 5.226-2.168zM3.36 4.189l1.67 1.668a6.416 6.416 0 0 0-1.486 3.557H1.192A8.792 8.792 0 0 1 3.36 4.19zm-2.168 6.397h2.35a6.415 6.415 0 0 0 1.472 3.539l-1.657 1.683a8.792 8.792 0 0 1-2.165-5.222zm8.222 8.222a8.791 8.791 0 0 1-5.229-2.171l1.655-1.68a6.418 6.418 0 0 0 3.574 1.5v2.351zM4.688 10A5.318 5.318 0 0 1 10 4.687 5.319 5.319 0 0 1 15.313 10 5.319 5.319 0 0 1 10 15.313 5.319 5.319 0 0 1 4.687 10zm5.898 8.808v-2.35a6.418 6.418 0 0 0 3.574-1.502l1.655 1.68a8.791 8.791 0 0 1-5.23 2.172zm6.057-3l-1.657-1.683a6.427 6.427 0 0 0 1.471-3.543h2.351a8.802 8.802 0 0 1-2.165 5.225z"/><path d="M11.36 6.85c-.29-.235-.59-.478-.907-.742l-.375-.313-.375.313c-.318.264-.617.507-.906.742-1.638 1.329-2.82 2.289-2.82 3.732 0 1.332.991 2.381 2.27 2.42v1.1h3.516v-1.1l.073.001c1.314 0 2.344-1.063 2.344-2.42 0-1.444-1.183-2.404-2.82-3.733zm.476 4.981a1.03 1.03 0 0 1-.422-.085l-.823-.365v1.549H9.419v-1.4l-.768.25a1.046 1.046 0 0 1-.33.051c-.762 0-1.173-.643-1.173-1.249 0-.885.95-1.656 2.387-2.822l.543-.442.543.442c1.437 1.166 2.387 1.937 2.387 2.822 0 .606-.41 1.25-1.172 1.25z"/></svg>