<svg width="20" height="20" fill="none" xmlns="http://www.w3.org/2000/svg"><path d="M17.867 15.655l-1.554-1.553 1.078-1.078-7.81-8.918a4.107 4.107 0 0 0-1.175-2.883 4.11 4.11 0 0 0-5.784-.066 4.073 4.073 0 0 0-1.243 2.912 4.104 4.104 0 0 0 4.102 4.13h.007l8.918 7.81 1.078-1.079 1.554 1.554c.478.478.467 1.087.298 1.496-.17.41-.592.848-1.269.848-.224 0-.447-.055-.645-.16l-3.136-1.669a9.815 9.815 0 0 0-9.234 0l-1.363.726.551 1.034 1.363-.725a8.645 8.645 0 0 1 8.133 0l3.136 1.668c.367.195.78.298 1.195.298 1.049 0 1.95-.602 2.351-1.571.402-.97.19-2.032-.551-2.773zm-7.36-8.713L8.325 9.125 6.557 7.578 8.96 5.175l1.547 1.767zM8.409 4.07L5.452 7.026a2.934 2.934 0 0 1-1.587-.485l4.058-4.058c.31.469.48 1.02.485 1.587zm-5.857.007a2.91 2.91 0 0 1 .887-2.08 2.937 2.937 0 0 1 3.657-.343l-4.06 4.06a2.907 2.907 0 0 1-.484-1.637zm11.802 10.327L9.208 9.9l2.073-2.074 4.506 5.146-1.434 1.433z" opacity=".7"/></svg>