<svg width="75" height="72" fill="none" xmlns="http://www.w3.org/2000/svg"><path d="M70.294 50.649C64.7 63.23 52.122 72 37.502 72 17.68 72 1.613 55.882 1.613 36S17.681 0 37.502 0C52.122 0 64.7 8.77 70.294 21.351A35.967 35.967 0 0 0 67.2 36a35.967 35.967 0 0 0 3.095 14.649z" fill="#56679C"/><path d="M2.93 54.22h65.529a36.143 36.143 0 0 1-7.263 8.817H5.86C2.623 63.037 0 60.405 0 57.159a2.934 2.934 0 0 1 2.93-2.938zM59.52 7.573c-.16-.126-.322-.25-.484-.372h-45.56c-3.236 0-5.859 2.632-5.859 5.878v32.326c0 3.246 2.624 5.878 5.86 5.878H69.14c.304 0 .603-.023.895-.068a35.812 35.812 0 0 0 2.116-5.81c.004-.015.184-11.26.184-11.26 0-10.356-4.667-20.212-12.815-26.572z" fill="#F6F6F6"/><path d="M12.89 63.037H5.86c-3.237 0-5.86-2.632-5.86-5.878a2.934 2.934 0 0 1 2.93-2.938h7.03a2.934 2.934 0 0 0-2.929 2.938c0 3.246 2.624 5.878 5.86 5.878zM19.337 7.2h-5.86c-3.236 0-5.859 2.632-5.859 5.878v32.326c0 3.246 2.624 5.878 5.86 5.878h5.859c-3.236 0-5.86-2.632-5.86-5.878V13.078c0-3.246 2.624-5.878 5.86-5.878zM30.76 54.22a4.401 4.401 0 0 0 4.395 4.409h13.183a4.401 4.401 0 0 0 4.395-4.408H30.76z" fill="#DDDAEC"/><path d="M46.671 13C51.874 19.163 55 27.07 55 35.69c0 3.222-.436 6.342-1.254 9.31H15.97C14.33 45 13 43.698 13 42.09V15.91c0-1.608 1.33-2.91 2.97-2.91h30.701z" fill="#56679C"/><path d="M20.508 42.466h-2.93a1.467 1.467 0 0 1-1.465-1.47V26.302c0-.811.656-1.469 1.465-1.469h2.93c.809 0 1.465.658 1.465 1.47v14.693c0 .812-.656 1.47-1.465 1.47z" fill="#384D8D"/><path d="M19.042 36.838c.753 0 1.363.612 1.363 1.367s-.61 1.367-1.363 1.367a1.365 1.365 0 0 1-1.362-1.367c0-.755.61-1.367 1.362-1.367zm-1.362-3.19c0 .756.61 1.367 1.362 1.367.753 0 1.363-.611 1.363-1.366 0-.755-.61-1.367-1.363-1.367-.752 0-1.362.612-1.362 1.367zm0-4.556c0 .755.61 1.367 1.362 1.367.753 0 1.363-.612 1.363-1.367s-.61-1.366-1.363-1.366c-.752 0-1.362.612-1.362 1.366z" fill="#fff"/><path d="M67 43.333V26.667c0-.92-.846-1.667-1.889-1.667H51.89C50.846 25 50 25.746 50 26.667v16.666c0 .92.846 1.667 1.889 1.667H65.11C66.154 45 67 44.254 67 43.333z" fill="#56679C"/><path d="M15.979 13h26.577c2.218 3.303 4.06 7.003 5.444 11H13v-7.333C13 14.642 14.334 13 15.979 13z" fill="#394D8D"/><path d="M28.173 17.486c0 .755-.61 1.367-1.363 1.367a1.365 1.365 0 0 1-1.362-1.367c0-.755.61-1.367 1.362-1.367.753 0 1.363.612 1.363 1.367zm-5.905-1.367c-.753 0-1.363.612-1.363 1.367s.61 1.367 1.363 1.367c.752 0 1.363-.612 1.363-1.367s-.61-1.367-1.363-1.367zm-4.542 0c-.753 0-1.363.612-1.363 1.367s.61 1.367 1.363 1.367 1.362-.612 1.362-1.367-.61-1.367-1.362-1.367z" fill="#FFF5F5"/><path d="M75 5.878v22.334c0 3.246-2.624 5.878-5.86 5.878H53.778v-4.194c0-3.246-2.623-5.877-5.86-5.877h-6.902V5.878C41.016 2.632 43.639 0 46.875 0H69.14C72.376 0 75 2.632 75 5.878z" fill="#C92E43"/><path d="M74.999 5.878v17.18a16.875 16.875 0 0 1-7.984 1.995c-9.384 0-16.992-7.631-16.992-17.045 0-2.894.72-5.62 1.989-8.008h17.127C72.376 0 75 2.632 75 5.878z" fill="#FD4343"/><path d="M61.82 10.036c-2.736-.31-3.648 1.543-3.83 2.098-.244-.617-1.095-2.407-3.83-2.098-2.554.432-3.405 2.716-3.101 4.938.547 3.457 5.775 5.803 6.87 7.964l.06.062.061-.062c1.094-2.16 6.383-4.445 6.87-7.902.364-2.284-.487-4.568-3.1-5z" fill="#F6F6F6"/></svg>