<svg width="73" height="72" fill="none" xmlns="http://www.w3.org/2000/svg"><path d="M62.902 36c0 5.006-1.568 4.669-3.492 9-.243.548 4.98 2.772 4.709 3.307a35.487 35.487 0 0 1-2.937 4.81c-2.342 3.232 1.897 9.498-1.396 11.838C53.556 69.382 45.846 72 37.5 72c-8.347 0-16.056-2.618-22.286-7.045a36.916 36.916 0 0 1-8.517-8.418 35.496 35.496 0 0 1-3.079-5.095A34.657 34.657 0 0 1 0 36a34.647 34.647 0 0 1 3.618-15.443C6.344 15.05 10.487 10.313 15.592 6.78 21.754 2.514 29.322 0 37.5 0s15.746 2.514 21.91 6.78c5.512 3.817 2.01 9.644 4.709 15.72 1.925 4.331-1.217 8.492-1.217 13.5z" fill="#56679C"/><path d="M72.13 16.098v34.006a35.384 35.384 0 0 1-1.91 3.83 35.67 35.67 0 0 1-1.65 2.603H6.473v-40.44c0-5.145 4.172-9.316 9.317-9.316h47.021a9.317 9.317 0 0 1 9.318 9.317z" fill="#F6F6F6"/><path d="M18.898 6.781c-5.145 0-9.318 4.171-9.318 9.317v40.44H6.473v-40.44c0-5.146 4.172-9.317 9.318-9.317h3.107z" fill="#DDDAEC"/><path d="M71.39 51.728a35.668 35.668 0 0 1-2.82 4.81H6.473v-4.765a5.11 5.11 0 0 1 1.696-.285h61.66c.544 0 1.068.084 1.56.24z" fill="#DDDAEC"/><path d="M67.91 16.098v30.47a5.75 5.75 0 0 1-5.751 5.75H16.443a5.72 5.72 0 0 1-2.855-.758 5.744 5.744 0 0 1-2.897-4.992v-30.47a5.098 5.098 0 0 1 5.1-5.098h47.02a5.101 5.101 0 0 1 5.1 5.098z" fill="#56679C"/><path d="M19.343 52.318h-2.9a5.75 5.75 0 0 1-5.752-5.75v-30.47a5.098 5.098 0 0 1 5.1-5.098h2.9a5.098 5.098 0 0 0-5.1 5.098v30.47a5.75 5.75 0 0 0 5.752 5.75z" fill="#3E4D7C"/><path d="M70.222 53.934a36.174 36.174 0 0 1-9.827 11.021H8.169A5.17 5.17 0 0 1 3 59.785v-.697a5.168 5.168 0 0 1 5.17-5.17h61.66c.131 0 .262.005.392.016z" fill="#F6F6F6"/><path d="M17.875 64.955H8.17A5.17 5.17 0 0 1 3 59.785v-.697a5.17 5.17 0 0 1 5.17-5.17h9.705a5.17 5.17 0 0 0-5.17 5.17v.698a5.17 5.17 0 0 0 5.17 5.17zm28.514-7.109H31.612a3.928 3.928 0 0 1-3.928-3.928h22.633a3.928 3.928 0 0 1-3.928 3.928z" fill="#DDDAEC"/><path d="M16.2 14.216h3.366v3.367H16.2v-3.367z" fill="#2A9137"/><path d="M21.18 14.216h3.367v3.367H21.18v-3.367z" fill="#E4B34B"/><path d="M72.095 4.087L70.875 13c-.211 1.535-1.702 2.421-3.066 2.081a2.478 2.478 0 0 1-.927-.451l-1.527-1.186-21.01 26.016a2.13 2.13 0 0 1-2.61.566L26.324 32.32l-9.018 11.824a2.13 2.13 0 0 1-2.8.528l-.914-.555-2.9-1.764v-5.907l2.9 1.763 1.292.786 8.89-11.656a2.13 2.13 0 0 1 2.646-.613L41.91 34.47 60.84 11l.524-.651-1.589-1.233c-1.514-1.175-1.19-3.547.585-4.271l8.328-3.4c1.775-.723 3.668.744 3.407 2.642z" fill="#56AE61"/><path d="M13.591 38.208v5.907l-2.9-1.763v-5.908l2.9 1.764z" fill="#2A9137"/><path d="M53.234 34.343h5.191v17.975h-5.19V34.343zm-12.82 9.987h5.19v7.988h-5.19V44.33zm-21.638 3.901v4.087h-2.335a5.719 5.719 0 0 1-2.855-.758v-3.329h5.19zm5.337-8.978h5.191v13.065h-5.19V39.253z" fill="#FF4151"/></svg>