<svg width="85" height="20" fill="none" xmlns="http://www.w3.org/2000/svg"><path d="M74.763.001c1.589 0 3.101.363 4.457 1.012.213.095.427.21.64.325l-.93.822L77.535.727l-2.403 2.1-1.415-1.508-4.419 3.916 2.83 3.076-1.105.953 2.791 3.076-1.105.955 3.994 4.374 2.363-2.14 2.055 2.293c-.407.306-.853.612-1.337.879a10.234 10.234 0 0 1-5.001 1.298c-5.601 0-10.155-4.487-10.155-10.008C64.608 4.51 69.163 0 74.763 0v.001zM72.902 9.38l2.423-2.14 2.17 2.389-2.423 2.139-2.17-2.388zm1.725 4.127l2.404-2.16 2.19 2.389-2.424 2.14-2.17-2.37zM71.179 5.31L73.6 3.17l2.172 2.388-2.424 2.14-2.17-2.388zm4.437-1.146l1.802-1.604 1.628 1.776-1.803 1.623-1.628-1.795h.001zm3.217 7.354l1.801-1.604 1.629 1.795-1.803 1.605-1.627-1.796zm1.588 3.61l1.803-1.604 1.627 1.776-1.802 1.623-1.628-1.795zm.737-8.252l1.202-1.07 1.085 1.185-1.201 1.07-1.086-1.185zm-1.55-3.534l1.202-1.088 1.086 1.204-1.203 1.07-1.085-1.186zm3.082 7.069l1.201-1.07 1.104 1.184-1.221 1.07-1.084-1.184zm-5.407-2.656l1.802-1.604 1.628 1.776-1.802 1.605-1.628-1.777zM5.316 8.14h-.091l-1.717 6.5H2.106L0 5.405h1.456l1.455 6.889h.09l1.69-6.89h1.157l1.806 6.89h.092l1.326-6.89h1.52L8.487 14.64H7.083l-1.767-6.5zm7.123 2.568h2.976c-.065-1.367-.728-1.914-1.43-1.914-.793 0-1.403.613-1.546 1.914zm4.016 2.449v.99c-.586.339-1.365.6-2.301.6-2.185 0-3.08-1.356-3.08-3.413 0-1.98 1.001-3.412 2.95-3.412 1.624 0 2.625 1.054 2.625 3.177v.482h-4.237c0 1.563.636 2.253 1.976 2.253.702 0 1.352-.248 2.067-.677zm3.218.546c.416.182.871.208 1.196.208.963 0 1.689-.6 1.689-2.71 0-1.653-.598-2.187-1.468-2.187-.52 0-.897.143-1.416.43v4.259zm.013-5.222c.39-.208 1.052-.483 1.755-.483 1.611 0 2.482 1.12 2.482 3.204 0 2.435-1.17 3.62-3.054 3.62-.69 0-1.755-.221-2.535-.64V5.097l1.352-.327v3.712zm10.087 4.199h.065l2.78-7.28h1.611v9.233h-1.403V7.94h-.117l-2.65 6.693h-.832l-2.651-6.537h-.118v6.537h-1.17V5.4h1.574l2.912 7.28zm10.192-1.346c0-1.757-.714-2.5-1.597-2.5-.858 0-1.6.742-1.6 2.5 0 1.784.677 2.5 1.6 2.5.922 0 1.596-.715 1.596-2.5zm-4.56 0c0-2.28 1.248-3.413 2.963-3.413 1.717 0 2.964 1.133 2.964 3.412 0 2.226-1.182 3.412-2.963 3.412-1.782 0-2.964-1.185-2.964-3.411zm6.954-2.448c.585-.352 1.82-.964 3.313-.964 1.56 0 2.144.611 2.144 1.952v4.715h-1.35v-4.413c0-1.03-.506-1.212-1.17-1.212-.52 0-1.183.235-1.586.47v5.156h-1.351V8.886zm8.319 1.822h2.975c-.063-1.367-.727-1.914-1.43-1.914-.792 0-1.402.613-1.545 1.914zm4.014 2.449v.99a4.57 4.57 0 0 1-2.3.6c-2.182 0-3.079-1.356-3.079-3.413 0-1.98 1-3.412 2.95-3.412 1.623 0 2.625 1.054 2.625 3.177v.482h-4.236c0 1.563.636 2.253 1.974 2.253.702 0 1.354-.248 2.066-.677zm5.595-5.234h1.391l-2.352 6.508c-.65 1.797-1.442 2.735-2.937 2.735V16.1c.884 0 1.429-.703 1.742-1.668l-2.495-6.51h1.428l1.665 4.792h.078l1.48-4.791z" fill="#fff"/></svg>