<svg fill="none" height="200" viewBox="0 0 200 200" width="200" xmlns="http://www.w3.org/2000/svg" xmlns:xlink="http://www.w3.org/1999/xlink"><linearGradient id="a"><stop offset=".00362436" stop-color="#d1d1d1"/><stop offset="1" stop-color="#fff"/></linearGradient><linearGradient id="b" gradientUnits="userSpaceOnUse" x1="40.2291" x2="40.2291" xlink:href="#a" y1="137.981" y2="60"/><linearGradient id="c" gradientUnits="userSpaceOnUse" x1="80.3479" x2="80.3479" xlink:href="#a" y1="98.5782" y2="77.4233"/><linearGradient id="d" gradientUnits="userSpaceOnUse" x1="115.446" x2="115.446" xlink:href="#a" y1="98.5772" y2="77.4242"/><linearGradient id="e" gradientUnits="userSpaceOnUse" x1="161.631" x2="161.631" xlink:href="#a" y1="98.5798" y2="77.4229"/><linearGradient id="f" gradientUnits="userSpaceOnUse" x1="140.997" x2="140.997" xlink:href="#a" y1="99.0788" y2="76.9777"/><linearGradient id="g" gradientUnits="userSpaceOnUse" x1="99.8026" x2="99.8026" xlink:href="#a" y1="98.5506" y2="77.4476"/><linearGradient id="h" gradientUnits="userSpaceOnUse" x1="178.669" x2="178.669" xlink:href="#a" y1="99.0854" y2="77.0105"/><linearGradient id="i" gradientUnits="userSpaceOnUse" x1="126.333" x2="126.333" xlink:href="#a" y1="98.5536" y2="77.4369"/><linearGradient id="j" gradientUnits="userSpaceOnUse" x1="52.8806" x2="52.8806" xlink:href="#a" y1="119.082" y2="101.279"/><linearGradient id="k" gradientUnits="userSpaceOnUse" x1="176.276" x2="176.276" xlink:href="#a" y1="118.803" y2="101.544"/><linearGradient id="l" gradientUnits="userSpaceOnUse" x1="135.197" x2="135.197" xlink:href="#a" y1="119.087" y2="101.226"/><linearGradient id="m" gradientUnits="userSpaceOnUse" x1="155.438" x2="155.438" xlink:href="#a" y1="119.084" y2="101.228"/><linearGradient id="n" gradientUnits="userSpaceOnUse" x1="102.654" x2="102.654" xlink:href="#a" y1="118.785" y2="101.546"/><linearGradient id="o" gradientUnits="userSpaceOnUse" x1="86.9937" x2="86.9937" xlink:href="#a" y1="118.787" y2="101.548"/><linearGradient id="p" gradientUnits="userSpaceOnUse" x1="118.442" x2="118.442" xlink:href="#a" y1="118.781" y2="101.55"/><linearGradient id="q" gradientUnits="userSpaceOnUse" x1="70.9242" x2="70.9242" xlink:href="#a" y1="118.785" y2="101.547"/><path d="m200 0h-200v200h200z" fill="#000"/><path d="m53.8996 86.3-2.8-3.3-2.8 3.3c-.5.5-.7 1.2-.7 2 0 1.5.9 2.7 2.1 2.7.5 0 .9-.2 1.3-.6-.1.5-.3 1-.6 1.3l-.4.5h.1c.7-.2 1.3-.2 2 0h.1l-.4-.5c-.3-.4-.5-.8-.6-1.3.4.4.8.6 1.3.6 1.2 0 2.1-1.2 2.1-2.7 0-.7-.3-1.5-.7-2z" fill="#cf3028"/><path d="m51.2 76 8.5 22.6h6.8l-15.3-38.6-11.8 28.7h-25.4l19 17.4-6.5 31.9 15.3-32.5-13.3-11.7h15.3z" fill="url(#b)"/><path d="m73.6002 82.9c.2.6.4 1.1.6 1.7 1.5 4.6 3 9.2 4.5 13.8.1.2.1.2.3.2h2.4.5c1.7-5.3 3.4-10.5 5.1-15.7h.1v15.7h3.7c0-7 0-14.1 0-21.1-.1 0-.1 0-.2 0-1.6 0-3.1 0-4.7 0-.2 0-.2.1-.3.2-1.5 4.4-3 8.7-4.5 13.1-.3.9-.6 1.9-1 2.8 0-.1-.1-.2-.1-.3-1.2-3.6-2.4-7.1-3.6-10.7-.5-1.6-1.1-3.3-1.6-4.9 0-.1-.1-.2-.2-.2-1.6 0-3.3 0-4.9 0v21.1h3.7c.2-5.3.2-10.5.2-15.7z" fill="url(#c)"/><path d="m117.5 98.4c.1.1.2.2.4.2h4.2.3c-1.8-2.6-3.6-5.2-5.5-7.8.4-.1.7-.2 1-.3 1.7-.7 3-1.9 3.7-3.6.5-1.3.6-2.7.4-4.1-.3-1.8-1.2-3.2-2.8-4.2-1.3-.8-2.8-1.1-4.3-1.1-2 0-4 0-6 0-.1 0-.1 0-.2 0v21.1h3.7c0-2.7 0-5.3 0-8h.1c.1.1.1.2.2.2 1.5 2.5 3.2 5.1 4.8 7.6zm-5.2-10.9c0-2.1 0-4.2 0-6.3h.9c.7 0 1.5 0 2.2.1.9.1 1.7.5 2.2 1.3.9 1.2.7 2.9-.5 3.9-.8.6-1.7 1-2.7 1-.6 0-1.3 0-2.1 0z" fill="url(#d)"/><path d="m167.7 98.6002h3.6.3c0-.1-.1-.2-.1-.2-.7-1.6-1.3-3.3-2-4.9-2.1-5.3-4.2-10.5-6.3-15.8-.1-.2-.2-.3-.4-.2-.8 0-1.6 0-2.4 0-.2 0-.3.1-.3.2-2.7 6.9-5.5 13.8-8.2 20.7 0 .1-.1.2-.1.2h3.9c.2 0 .3-.1.3-.2.7-1.7 1.4-3.3 2-5 .1-.2.1-.2.3-.2h6.7c.2 0 .3.1.4.2.7 1.7 1.3 3.3 2 5 0 .1.1.2.3.2zm-8.2-9.3c.7-2.1 1.4-4.2 2.1-6.3h.1c.7 2.1 1.4 4.2 2.1 6.3-1.5 0-2.9 0-4.3 0z" fill="url(#e)"/><path d="m143.5 98.8992c3.3-.7 5.7-2.6 7.1-5.6.1-.1.1-.3.2-.4-.1 0-.1 0-.1 0-1.4 0-2.7 0-4.1 0-.1 0-.2.1-.3.1-.3.3-.6.6-.9.8-2.3 1.8-5.3 2-7.6.3-3.5-2.5-4.1-7.6-1.3-10.9 1.3-1.6 3-2.4 5.1-2.3 2 .1 3.6.9 4.9 2.4.1.1.2.2.4.2h3.8.3c-.1-.2-.1-.3-.2-.4-1-2.1-2.5-3.8-4.6-4.8-3.2-1.6-6.5-1.7-9.7.1-3.1 1.8-4.8 4.5-5.4 8-.5 3.3.3 6.3 2.5 8.9 2.6 3 5.9 4.4 9.9 3.6z" fill="url(#f)"/><path d="m105.2 94.7984c-2.4 0-4.7 0-7 0 0-1.6 0-3.2 0-4.9h6.8c0-1.3 0-2.5 0-3.8-2.3 0-4.5 0-6.8 0 0-1.6 0-3.3 0-4.9h7.1c0-1.3 0-2.5 0-3.8-3.6 0-7.2 0-10.8 0v21.1h10.8c-.1-1.2-.1-2.5-.1-3.7z" fill="url(#g)"/><path d="m178.3 95.2013c-1-.2-1.8-.7-2.1-1.8-.1-.3-.1-.5-.2-.8-1.3 0-2.5 0-3.8 0v.3c0 .3 0 .7.1 1 .7 2.7 2.3 4.4 5.1 5 2.7.5 4.9-.4 6.6-2.6 1.2-1.6 1.5-3.4 1.1-5.4-.4-2.1-1.6-3.6-3.6-4.4-.6-.2-1.2-.5-1.8-.7-.4-.2-.8-.4-1.1-.6-.8-.6-1.3-1.3-1.8-2.1 0 0 0-.1 0-.2 0-.6.2-1.1.6-1.6.6-.6 1.3-.7 2.1-.5.8.3 1.3.8 1.5 1.7 0 .1 0 .2.1.4h3.8c0-.7-.1-1.3-.3-1.9-.8-2.1-2.3-3.5-4.6-3.9-2.2-.4-4.1.3-5.5 2.1-1.1 1.3-1.6 2.9-1.3 4.6.2 1.3.9 2.4 1.7 3.4.5.6 1.1 1.1 1.9 1.4.3.1.6.2.9.4.9.4 1.7.7 2.6 1.1 1.3.7 1.5 2.1 1.3 3.2-.5 1.3-1.9 2.2-3.3 1.9z" fill="url(#h)"/><path d="m128.2 77.3984c-1.2 0-2.4 0-3.7 0v21.1h3.7c0-7 0-14 0-21.1z" fill="url(#i)"/><path d="m59.7004 114.302c-.2 0-.3.1-.5.2-.4.5-.8 1-1.3 1.4-1.7 1.4-3.7 2-5.8 1.6-2-.4-3.5-1.5-4.7-3.2-1.1-1.6-1.5-3.3-1.2-5.2s1.2-3.4 2.7-4.5c1.7-1.4 3.6-1.9 5.7-1.5 1.9.3 3.5 1.3 4.6 2.9 0 .1.1.2.2.2h1.9c-.3-.5-.6-1-.9-1.4-2.3-2.6-5.2-3.7-8.6-3.2-3.6.6-6.4 3.3-7.2 6.8-.1.5-.2 1-.2 1.5v1.1c0 .3.1.7.1 1 .8 4.7 5.4 8.1 10.4 7.2 2.5-.5 4.5-1.8 5.9-3.9.2-.2.3-.5.5-.7-.5-.3-1.1-.3-1.6-.3z" fill="url(#j)"/><path d="m184.9 101.498c-.7 0-1.4 0-2.1 0-.2 0-.3.1-.4.2-1.7 4-3.4 8-5.2 12.1-.3.8-.7 1.5-1 2.3-.1-.1-.1-.2-.1-.3-2-4.7-4-9.4-6-14.1-.1-.2-.2-.2-.4-.2-.7 0-1.4 0-2.1 0-.1 0-.2 0-.3 0v17.2h1.7c0-5.1 0-10.2 0-15.3.1.1.1.2.2.2 2 4.7 3.9 9.5 5.9 14.2.1.3.2.7.4.8s.6.1.9.1c.5 0 .5 0 .7-.5 2-4.9 4.1-9.7 6.1-14.6 0-.1.1-.1.1-.2v7.6 7.6h1.7c0-5.7 0-11.5 0-17.2.1.1 0 .1-.1.1z" fill="url(#k)"/><path d="m128.9 103.801c-2.7 2.6-3.5 5.8-2.3 9.4 1.5 4.2 6.3 6.7 10.6 5.7 4.1-1 7.1-4.6 7.1-8.7 0-.9-.1-1.8-.4-2.7-2.1-6.4-10.2-8.4-15-3.7zm6.3 13.7c-3.9 0-7.4-3.3-7.4-7.2 0-4.1 3.3-7.5 7.3-7.5 4.1 0 7.5 3.3 7.5 7.4 0 4-3.3 7.3-7.4 7.3z" fill="url(#l)"/><path d="m149.1 103.801c-2.6 2.5-3.5 5.6-2.4 9.1 1.4 4.5 6.4 7.1 10.9 5.9 4-1 6.9-4.6 6.9-8.6 0-.9-.2-1.9-.5-2.8-2.1-6.4-10.1-8.2002-14.9-3.6zm6.4 13.7c-4 0-7.4-3.3-7.4-7.2 0-4.1 3.3-7.5 7.3-7.5 4.1 0 7.4 3.3 7.4 7.4.1 4-3.3 7.3-7.3 7.3z" fill="url(#m)"/><path d="m105.9 102.902c-1.6-.9-3.3-1.3-5.1-1.3-1.6996 0-3.4996 0-5.1996 0-.1 0-.1 0-.2 0v17.2h.3 4.2996c.8 0 1.6 0 2.4-.2 1.3-.2 2.6-.6 3.7-1.4 3-2.2 4.3-5.1 3.6-8.7-.4-2.4-1.7-4.3-3.8-5.6zm0 12.6c-1 .9-2.2 1.3-3.4 1.5-.8.1-1.6.2-2.4.2-.9996 0-1.8996 0-2.8996 0 0-4.7 0-9.4 0-14.1 1.9.1 3.7996-.1 5.6996.3 2.8.7 4.9 2.7 5.3 5.6.3 2.5-.4 4.8-2.3 6.5z" fill="url(#n)"/><path d="m92.7996 107.2c0-2-.7-3.6-2.5-4.7-1.1-.7-2.3-1-3.6-1-1.8 0-3.6 0-5.4 0-.1 0-.1 0-.2 0v17.2h1.7c0-5.2 0-10.4 0-15.6h.1 3.6c1 0 1.9.2 2.7.7 2.1 1.3 2.2 4.1 1 5.6-.8.9-1.7 1.3-2.8 1.5-.8.1-1.7.1-2.5.1-.1 0-.2 0-.3 0 .1.1.1.2.2.2l5.4 7.2c.2.3.4.4.7.4h1.7c-1.6-2.2-3.2-4.3-4.9-6.4.2 0 .4-.1.6-.1 2.6-.4 4.5-2.5 4.5-5.1z" fill="url(#o)"/><path d="m124.3 107.202c0-2-.8-3.6-2.5-4.7-1.1-.7-2.3-.9-3.5-.9-1.8 0-3.7 0-5.5 0-.1 0-.1 0-.2 0v17.2h1.7c0-5.2 0-10.4 0-15.6h.1 3.6c1 0 1.9.2 2.8.7 2.1 1.3 2.2 4.2 1 5.6-.8.9-1.7 1.3-2.8 1.4-.9.1-1.7.1-2.6.1-.1 0-.2 0-.3 0v.1c1.9 2.5 3.8 5.1 5.7 7.6.1.1.2.1.3.1h1.8.2c-1.6-2.1-3.2-4.3-4.8-6.4.2 0 .4-.1.6-.1 2.4-.4 4.3-2.5 4.4-5.1z" fill="url(#p)"/><path d="m77.4 114.402c-1.8-4.2-3.6-8.4-5.4-12.6-.1-.2-.2-.2-.4-.2-.5 0-.9 0-1.4 0-.2 0-.3.1-.4.2-2 4.6-3.9 9.2-5.9 13.8-.4 1-.9 2.1-1.4 3.2h1.5c.2 0 .3-.1.3-.2.8-1.8 1.5-3.6 2.3-5.3.1-.2.2-.2.4-.2h7.5c.2 0 .3.1.3.2.5 1.1.9 2.2 1.4 3.3.3.8.7 1.5 1 2.3h1.9c0-.1-.1-.2-.1-.3-.4-1.5-1-2.8-1.6-4.2zm-9.9-3c1.1-2.6 2.2-5.2 3.4-7.9 1.1 2.7 2.2 5.3 3.3 7.9-2.2 0-4.4 0-6.7 0z" fill="url(#q)"/><path d="m28.5996 137.999 3.4-6.7s66.1-21.1 153.7004-2.4c.1 0-74.3-14-157.1004 9.1z" fill="#cf3028"/></svg>