<svg width="200" height="200" fill="none" xmlns="http://www.w3.org/2000/svg"><path d="M200 0H0v200h200V0z" fill="#3AAA35"/><circle cx="100" cy="100" r="80" fill="#64B961"/><path d="M142.938 47.009L114.702 47c-.28 0-.554.114-.752.312a1.057 1.057 0 0 0-.311.751v68.796c0 7.545-6.118 13.682-13.639 13.682-7.52 0-13.639-6.137-13.639-13.682v-56.44.001l-.001-4.027.001-8.321c0-.586-.476-1.063-1.061-1.063L57.064 47c-.284 0-.552.11-.753.312-.2.201-.311.468-.311.751v68.796C56 141.198 75.739 161 100 161c24.262 0 44-19.802 44-44.141V56.392l-.002.001.002-8.321c0-.586-.476-1.063-1.062-1.063z" fill="#fff"/></svg>