<svg width="200" height="200" fill="none" xmlns="http://www.w3.org/2000/svg"><path d="M200 0H0v200h200V0z" fill="url(#paint0_radial)"/><path d="M44.7 153.946V46.551h23.61c4.26 0 8.165.532 11.36 1.597 3.195 1.066 6.213 3.018 8.876 5.858 2.662 2.84 4.437 6.036 5.502 9.941 1.066 3.728 1.598 8.876 1.598 15.266 0 4.793-.355 8.876-.887 12.248-.533 3.373-1.775 6.39-3.55 9.408-2.13 3.551-4.971 6.213-8.699 8.166-3.55 1.953-8.343 3.018-14.2 3.018H60.32v41.893h-15.62zm15.621-92.84v36.568h7.456c3.195 0 5.68-.532 7.455-1.42 1.775-.887 3.018-2.13 3.906-3.728.887-1.597 1.242-3.372 1.42-5.502.177-2.13.177-4.616.177-7.456 0-2.485 0-4.97-.177-7.1-.178-2.308-.533-4.26-1.42-6.036-.888-1.775-2.13-3.018-3.728-3.905-1.598-.888-4.083-1.42-7.1-1.42H60.32z" fill="#fff"/><path d="M105.231 153.946V46.551h23.255c9.053 0 15.798 2.485 20.591 7.278C153.692 58.622 156 65.545 156 74.42v50.236c0 10.118-2.485 17.396-7.456 22.189-4.97 4.793-12.07 7.101-21.479 7.101h-21.834zm15.622-92.84v78.461h7.277c4.438 0 7.456-1.065 9.409-3.195 1.775-2.13 2.84-5.503 2.84-10.118V74.243c0-4.26-.888-7.456-2.663-9.763-1.775-2.308-4.97-3.55-9.586-3.55h-7.277v.177z" fill="#E30101"/><defs><radialGradient id="paint0_radial" cx="0" cy="0" r="1" gradientUnits="userSpaceOnUse" gradientTransform="rotate(45) scale(282.843)"><stop stop-color="#525252"/><stop offset="1"/></radialGradient></defs></svg>