<svg width="20" height="20" viewBox="0 0 20 20" xmlns="http://www.w3.org/2000/svg">
<path d="M4.73132 13.5365C4.2306 15.3114 4.63296 17.3456 6.20219 18.879C4.78497 18.7315 2.72397 18.0788 1.71806 15.6914C0.0191862 11.6723 1.44087 4.57723 8.17377 1.79644C9.1305 1.40302 10.5298 0.982771 11.8666 1.08113C11.9426 1.0856 12.0186 1.09454 12.0946 1.10348L10.2035 5.16289C10.1275 5.32831 10.1409 5.52055 10.2392 5.67702C10.3376 5.8335 10.5075 5.92291 10.6908 5.92291H12.8546L12.3807 9.30277C11.804 9.44136 11.12 9.52631 10.3063 9.52631C7.35563 9.52184 5.34828 11.3414 4.73132 13.5365ZM18.756 1.76962C18.2239 1.5282 17.6115 1.52373 17.075 1.75173C16.8827 1.83668 16.7486 1.8948 16.7486 1.8948C16.4759 2.01104 16.3507 2.32399 16.4669 2.5967C16.5832 2.86941 16.8961 2.99459 17.1688 2.87835C17.1688 2.87835 17.303 2.82024 17.4952 2.73976C17.759 2.62799 18.0541 2.63247 18.3178 2.7487C18.5771 2.86494 18.7783 3.08848 18.8677 3.35672C18.984 3.70544 18.9258 4.08545 18.7112 4.38052C18.4967 4.67558 18.1524 4.85441 17.7903 4.85441C16.7665 4.85441 15.7919 4.85441 15.7919 4.85441C15.4968 4.85441 15.2554 5.09583 15.2554 5.3909C15.2554 5.41772 15.2599 5.44007 15.2599 5.4669V5.48478C15.2599 5.48478 15.5057 6.92435 14.5445 8.0778C14.2897 8.3818 13.9544 8.65899 13.5207 8.88699L13.9991 5.4669C14.0215 5.31489 13.9768 5.15842 13.8739 5.04218C13.7711 4.92594 13.6236 4.85888 13.4716 4.85888H11.5313L13.1452 1.38514C13.8739 1.69809 14.5043 2.28375 14.9111 3.26284C15.0229 3.53555 15.3403 3.6652 15.613 3.55343C15.8858 3.44166 16.0154 3.12871 15.9036 2.85153C15.081 0.871004 13.5565 0.137806 11.9515 0.017097C10.4404 -0.0946709 8.85332 0.361342 7.77141 0.808414C0.363431 3.86191 -1.13873 11.6901 0.73003 16.1072C2.67032 20.6986 7.85635 19.9341 7.85635 19.9341C8.07989 19.8984 8.25871 19.7285 8.30342 19.5049C8.34813 19.2814 8.2453 19.0579 8.04859 18.9416C5.91159 17.6854 5.26334 15.602 5.76406 13.8271C6.26478 12.0478 7.91 10.5948 10.3063 10.5948C13.0558 10.5948 14.549 9.73643 15.3672 8.75734C16.1987 7.76485 16.3507 6.61587 16.3596 5.92291H17.7903C18.5011 5.92291 19.1673 5.58314 19.583 5.00642C19.9988 4.42969 20.1106 3.69202 19.887 3.01695C19.6993 2.46258 19.2924 2.01104 18.756 1.76962" />
<path d="M11.9203 18.6216C11.129 18.2863 10.6416 17.7006 10.3466 17.1194C11.0574 17.4726 11.8443 17.5173 12.5596 17.3161C13.8293 16.9585 14.8844 15.8006 14.8844 14.0928C14.8844 14.0033 14.8888 13.9229 14.8888 13.8424L16.3731 13.6367V14.5085C16.3731 14.6918 16.467 14.8617 16.619 14.9601C16.7755 15.0584 16.9677 15.0718 17.1331 14.9958L18.832 14.2045C18.7605 14.5577 18.6487 14.8841 18.5414 15.1434C17.1242 18.5769 13.9723 19.4889 11.9203 18.6216V18.6216ZM18.7873 11.1242C18.8588 10.9588 18.9393 10.771 19.0198 10.5832C19.1718 10.2301 19.1673 9.82769 19.0108 9.4745C18.8543 9.12132 18.5548 8.85307 18.1882 8.73236C17.7546 8.5893 17.2807 8.66083 16.9096 8.92908C16.6682 9.10343 16.6145 9.43874 16.7889 9.67569C16.9632 9.9171 17.2985 9.97075 17.5355 9.79639C17.6249 9.72933 17.7456 9.71145 17.8529 9.74722C17.9334 9.77404 18.0004 9.83216 18.0362 9.91263C18.072 9.99311 18.072 10.0825 18.0362 10.1585C17.8306 10.6414 17.6115 11.1555 17.6115 11.1555C17.4058 11.6786 17.8976 11.8619 17.8976 11.8619C18.4922 12.1078 18.7694 12.5325 18.8722 13.0064L17.4505 13.668V13.0198C17.4505 12.8633 17.3835 12.7158 17.2672 12.6174C17.151 12.5146 16.9945 12.4699 16.8425 12.4922L15.0989 12.7381C15.1973 12.4788 15.327 12.2776 15.4745 12.1212C15.7785 11.8082 16.1496 11.7143 16.4178 11.692C16.7129 11.6652 16.9275 11.4014 16.9006 11.1108C16.8738 10.8157 16.6145 10.6011 16.3195 10.6279C15.859 10.6727 15.2286 10.8425 14.7055 11.379C14.2272 11.8753 13.8248 12.6979 13.8248 14.1017C13.8248 15.2551 13.1318 16.0509 12.2779 16.2923C11.424 16.5338 10.4271 16.2119 9.82351 15.1836C9.69833 14.9735 9.44797 14.8707 9.21102 14.9422C8.97407 15.0092 8.81759 15.2328 8.82654 15.4742C8.82654 15.4742 8.95619 18.5366 11.5134 19.6141C13.9768 20.6558 17.835 19.6856 19.5428 15.5547C20.0212 14.3655 20.4504 12.1838 18.7873 11.1242Z" />
</svg>
