<svg enable-background="new 0 0 200 200" viewBox="0 0 200 200" xmlns="http://www.w3.org/2000/svg" xmlns:xlink="http://www.w3.org/1999/xlink"><linearGradient id="a"><stop offset="0" stop-color="#ffeca4"/><stop offset="1" stop-color="#ffcf70"/></linearGradient><linearGradient id="b" gradientUnits="userSpaceOnUse" x1="50.6772" x2="50.6772" xlink:href="#a" y1="30.8693" y2="151.0074"/><linearGradient id="c" gradientUnits="userSpaceOnUse" x1="96.5229" x2="96.5229" xlink:href="#a" y1="30.8693" y2="151.0074"/><linearGradient id="d" gradientUnits="userSpaceOnUse" x1="146.244" x2="146.244" xlink:href="#a" y1="30.8693" y2="151.0074"/><linearGradient id="e" gradientUnits="userSpaceOnUse" x1="99.8222" x2="99.8222" xlink:href="#a" y1="30.8693" y2="151.0074"/><linearGradient id="f" gradientUnits="userSpaceOnUse" x1="99.8387" x2="99.8387" xlink:href="#a" y1="30.8693" y2="151.0074"/><path d="m0 0h200v200h-200z"/><path d="m64.75 138.05s-12.41-.12-13.59-.11c-4.27.04-6.6-1.89-6.59-6.35.03-8-.43-16.03.29-23.96.2-2.24 3.45-5.03 5.92-6.01.81-.32 1.7-.44 2.62-.48 0 0 7.17.05 7.56 0h4.18l3.81-8.12c1.52-2.95 2.99-6 4.62-9.17-8.99 0-17.45-.53-25.82.13-11.21.88-20.02 10.48-20.37 21.66-.3 9.63-.3 19.29-.01 28.93.35 11.17 9.37 20.86 20.41 21.57 8.39.54 16.84 0 26.4 0-.94-1.53-9.43-18.09-9.43-18.09z" fill="url(#b)"/><path d="m121.05 132.92c.01-1.32.01-2.63.01-3.95-.03 0-.06 0-.08 0 0-7.53.32-15.08-.07-22.59-.67-12.92-11.3-22.65-24.25-22.69-12.99-.04-23.71 9.55-24.39 22.5-.48 9.15-.45 18.37-.03 27.52.58 12.51 10.36 21.9 22.77 22.42 5.62.23 26.1 0 26.1 0v-23.26zm-16.68 5.52c-14.48.92-15.27.21-15.28-12.58 0-6.32-.05-12.65.14-18.97.13-4.26 2.65-6.18 6.85-6.3 4.21-.12 8 1.01 8.17 5.67.39 10.68.12 21.38.12 32.18z" fill="url(#c)"/><path d="m154.76 84.69c-10.88-1.55-22.15-.32-35.12-.32 9.56 7.75 8.93 17.27 8.84 26.71-.1 9.9-.06 19.8-.04 29.71v15.46h16.43s-.04-15.93-.04-18.24c3.26-.49 5.82-.79 8.34-1.27 11.81-2.23 19.28-11.42 19.65-24.06.44-15.2-5.75-26.24-18.06-27.99zm.34 33.05c-.63 2.07-4 4.19-9.87 3.8 0-8.19 0-14.49 0-22.63 4.95-.18 9.46.93 9.91 4.19.66 4.8 1.34 10.09-.04 14.64z" fill="url(#d)"/><path d="m163.24 75.37c-16.45-15.9-38.77-25.66-63.4-25.66-24.66 0-47.01 9.75-63.43 25.69 14.45-19.3 37.47-31.78 63.43-31.78 25.93 0 48.98 12.48 63.4 31.75z" fill="url(#e)"/><path d="m100.23 73.23c.07.82.2 1.79.48 2.42.43.97 1.53 2.06 2.34 2.34h-6.44c.82-.28 1.91-1.37 2.34-2.34.28-.63.41-1.6.48-2.42-6.46 3.76-10.38-1.13-10.1-5.23.48-7.03 10.42-11.98 10.42-11.98s.03.01.08.04c.05-.03.08-.04.08-.04s9.94 4.94 10.42 11.98c.29 4.1-3.63 8.99-10.1 5.23z" fill="url(#f)"/></svg>