<svg width="88" height="88" fill="none" xmlns="http://www.w3.org/2000/svg"><rect width="88" height="88" rx="44" fill="url(#paint0_radial)"/><path d="M43.392 22.003c3.512 0 6.852.798 9.85 2.226.47.21.942.462 1.411.715L52.6 26.753l-3.082-3.154-5.308 4.623-3.127-3.32-9.763 8.617 6.252 6.765-2.441 2.099 6.166 6.766-2.44 2.101 8.822 9.624 5.221-4.708 4.541 5.046c-.9.672-1.884 1.346-2.954 1.932A22.683 22.683 0 0 1 43.436 66C31.063 66 21 56.127 21 43.982 20.958 31.921 31.02 22 43.394 22l-.002.003zm-4.11 20.633l5.354-4.709 4.795 5.255-5.354 4.706-4.796-5.252zm3.81 9.078l5.313-4.75 4.837 5.254-5.355 4.709-4.795-5.213zm-7.618-18.03l5.35-4.706 4.798 5.253-5.355 4.708-4.794-5.255zm9.804-2.52l3.98-3.53 3.598 3.907-3.984 3.572-3.597-3.949h.003zm7.107 16.179l3.98-3.53 3.598 3.95-3.983 3.532-3.595-3.952zm3.51 7.943l3.983-3.53 3.595 3.907-3.982 3.573-3.596-3.95zm1.627-18.157l2.656-2.351 2.397 2.605-2.654 2.353-2.399-2.607zm-3.425-7.774l2.656-2.394 2.4 2.648-2.657 2.355-2.4-2.609zm6.81 15.552l2.654-2.354L66 45.158l-2.698 2.353-2.395-2.604zm-11.946-5.843l3.981-3.53 3.597 3.908-3.98 3.53-3.598-3.908z" fill="#fff"/><defs><radialGradient id="paint0_radial" cx="0" cy="0" r="1" gradientUnits="userSpaceOnUse" gradientTransform="rotate(45) scale(124.451)"><stop stop-color="#0084DB"/><stop offset="1" stop-color="#006CB4"/></radialGradient></defs></svg>