<svg width="200" height="200" fill="none" xmlns="http://www.w3.org/2000/svg"><path d="M200 0H0v200h200V0z" fill="url(#paint0_radial)"/><path d="M73.673 41.661c-8.723.32-20.407 11.604-20.407 11.604S41.982 64.95 41.662 73.672c-.16 5.922.4 9.603 17.766 15.846 17.286 6.242 36.013 5.922 36.013 5.922s.4-18.727-5.922-36.013c-6.323-17.285-9.924-17.926-15.846-17.766zm85.309 85.311c-.32 8.723-11.604 20.407-11.604 20.407s-11.684 11.284-20.407 11.604c-5.922.16-9.603-.401-15.845-17.766-6.242-17.286-5.922-36.013-5.922-36.013s18.726-.4 36.012 5.922 17.926 10.004 17.766 15.846zm-117.319 0c.32 8.723 11.604 20.407 11.604 20.407s11.684 11.284 20.407 11.604c5.922.16 9.603-.401 15.846-17.766 6.242-17.286 5.922-36.013 5.922-36.013s-18.727-.4-36.013 5.922c-17.286 6.322-17.926 10.004-17.766 15.846zm85.309-85.31c8.723.32 20.407 11.603 20.407 11.603s11.284 11.684 11.604 20.407c.16 5.922-.401 9.603-17.766 15.846-17.286 6.242-36.013 5.922-36.013 5.922s-.4-18.727 5.922-36.013c6.322-17.285 10.004-17.926 15.846-17.766z" fill="#fff"/><defs><radialGradient id="paint0_radial" cx="0" cy="0" r="1" gradientUnits="userSpaceOnUse" gradientTransform="rotate(45) scale(282.843)"><stop stop-color="#FFB762"/><stop offset="1" stop-color="#FF4A00"/></radialGradient></defs></svg>