<svg fill="none" viewBox="0 0 200 200" xmlns="http://www.w3.org/2000/svg"><path d="m100 200c-55.2 0-100-44.8-100-100s44.8-100 100-100 100 44.8 100 100-44.8 100-100 100z" fill="#bbb"/><path d="m86.679 121.999-22.64-58.64-23.12 58.641h12.24l2.96-8.8h14.64l3.04 8.8h12.88zm-18.56-18.16h-9.04l4.48-13.6zm36.567-27.28c-10.24 0-18 10.08-18 23.44 0 13.2 7.76 23.28 17.92 23.28 10.24 0 18.08-10.16 18.08-23.36 0-13.28-7.76-23.36-18-23.36zm-.08 10.8c4.32 0 6.8 4.64 6.8 12.56 0 7.76-2.56 12.48-6.72 12.48-4.32 0-6.8-4.64-6.8-12.72 0-7.6 2.56-12.32 6.72-12.32zm24.804 34.641h12.24v-21.68h13.52v-10.64h-13.52v-13.12h14.64v-11.2h-26.88z" fill="#fff"/></svg>