<svg width="17" height="20" fill="none" xmlns="http://www.w3.org/2000/svg"><path opacity=".7" d="M16.571 3.856L8.773.086a.881.881 0 0 0-.77.005L.42 3.861a.727.727 0 0 0-.42.642V9.84c0 4.193 2.743 7.993 6.99 9.682l1.052.416a.879.879 0 0 0 .644 0l1.185-.463C14.2 17.813 17 13.993 17 9.743V4.504a.728.728 0 0 0-.429-.648zm-1.19 5.887c0 3.66-2.411 6.95-6.144 8.38l-.005.003-.865.34-.73-.289C3.983 16.721 1.62 13.45 1.62 9.84v-4.9l6.779-3.37 6.983 3.375v4.798h-.001z" fill="#008BE2"/><path opacity=".7" d="M12.512 8.031a.735.735 0 0 0-1.033-.106l-3.777 3.072-1.395-1.633a.734.734 0 0 0-1.116.954l1.86 2.178a.732.732 0 0 0 1.022.093l4.333-3.525a.733.733 0 0 0 .106-1.033z" fill="#008BE2"/></svg>