<svg width="45" height="20" fill="none" xmlns="http://www.w3.org/2000/svg"><g clip-path="url(#clip0)"><path d="M19.5 17.13h-3.646l2.28-14.224h3.645L19.5 17.13zM32.714 3.254a8.914 8.914 0 0 0-3.27-.606c-3.6 0-6.134 1.937-6.15 4.706-.03 2.043 1.815 3.178 3.195 3.859 1.41.696 1.89 1.15 1.89 1.77-.015.954-1.14 1.393-2.19 1.393-1.455 0-2.235-.226-3.42-.757l-.48-.227-.51 3.193c.855.393 2.43.742 4.066.757 3.825 0 6.315-1.907 6.344-4.857.015-1.62-.96-2.86-3.06-3.874-1.275-.651-2.055-1.09-2.055-1.756.015-.605.66-1.225 2.1-1.225a6.147 6.147 0 0 1 2.715.544l.33.151.495-3.071zm4.846 8.837c.3-.817 1.456-3.98 1.456-3.98-.016.03.3-.832.48-1.361l.254 1.225s.69 3.405.84 4.116h-3.03zm4.5-9.185h-2.82c-.87 0-1.53.257-1.905 1.18L31.92 17.13h3.825l.765-2.134h4.68c.105.5.435 2.134.435 2.134h3.376L42.06 2.906zm-29.25 0l-3.57 9.7-.39-1.968c-.66-2.27-2.73-4.736-5.04-5.962l3.27 12.439h3.854l5.73-14.209h-3.855z" fill="#fff"/><path d="M5.925 2.906H.06L0 3.194c4.575 1.18 7.605 4.025 8.85 7.445L7.575 4.102c-.21-.909-.855-1.166-1.65-1.196z" fill="#B0B0B0"/></g></svg>