<svg width="20" height="20" fill="none" xmlns="http://www.w3.org/2000/svg"><path d="M13.516 5.898H6.484a.586.586 0 0 0-.586.586v7.032c0 .323.263.586.586.586h7.032a.586.586 0 0 0 .586-.586V6.484a.586.586 0 0 0-.586-.586zM9.414 7.07h1.172v1.172H9.414V7.07zm3.516 5.86H7.07V7.07h1.172v1.758c0 .324.263.586.586.586h2.344a.586.586 0 0 0 .586-.586V7.07h1.172v5.86z" fill="#999"/><path d="M19.414 9.414h-1.82a7.63 7.63 0 0 0-7.008-7.009V.585a.586.586 0 1 0-1.172 0v1.82a7.63 7.63 0 0 0-7.009 7.01H.585a.586.586 0 0 0 0 1.17h1.82a7.63 7.63 0 0 0 7.01 7.01v1.82a.586.586 0 0 0 1.17 0v-1.82a7.63 7.63 0 0 0 7.01-7.01h1.82a.586.586 0 1 0 0-1.17zm-8.828 7.004v-.559a.586.586 0 1 0-1.172 0v.56a6.456 6.456 0 0 1-5.832-5.833h.559a.586.586 0 1 0 0-1.172h-.56a6.456 6.456 0 0 1 5.833-5.832v.559a.586.586 0 0 0 1.172 0v-.56a6.456 6.456 0 0 1 5.832 5.833h-.559a.586.586 0 0 0 0 1.172h.56a6.456 6.456 0 0 1-5.833 5.832zM1.796 4.727a.586.586 0 0 0 .587-.586V2.383H4.14a.586.586 0 0 0 0-1.172H1.797a.586.586 0 0 0-.586.586V4.14c0 .323.262.586.586.586zm2.345 12.89H2.383V15.86a.586.586 0 1 0-1.172 0v2.344c0 .324.262.586.586.586H4.14a.586.586 0 0 0 0-1.172zm14.062-2.344a.586.586 0 0 0-.586.586v1.758H15.86a.586.586 0 1 0 0 1.172h2.344a.586.586 0 0 0 .586-.586V15.86a.586.586 0 0 0-.586-.586zM15.86 2.383h1.758V4.14a.586.586 0 1 0 1.172 0V1.797a.586.586 0 0 0-.586-.586H15.86a.586.586 0 1 0 0 1.172z" fill="#999"/></svg>