<svg width="68" height="68" fill="none" xmlns="http://www.w3.org/2000/svg"><path d="M13.162 8.774h2.194v2.194h-2.194V8.774zm4.387 0h2.193v2.194H17.55V8.774zm4.387 0h2.193v2.194h-2.194V8.774z" fill="#8F62C9"/><path d="M68 10.111l-2.65-.661 1.405-2.343-5.864-5.863-2.34 1.405L57.888 0h-8.294l-.661 2.65-2.34-1.405-3.145 3.142H8.774v28.516h-3.29A5.49 5.49 0 0 0 0 38.387v24.13A5.49 5.49 0 0 0 5.484 68h50.451a5.49 5.49 0 0 0 5.484-5.484V26.744l5.337-5.335-1.405-2.343L68 18.405v-8.294zm-26.745-3.53l-.527.526 1.405 2.343-2.65.661v.857h-11.42l-2.194 2.193H10.968v-6.58h30.287zM5.484 35.097h7.677c1.03 0 2.015.491 2.633 1.315l2.303 3.072H47.16c1.428 0 2.635.92 3.089 2.193H2.194v-3.29a3.294 3.294 0 0 1 3.29-3.29zm0 30.71a3.294 3.294 0 0 1-3.29-3.29V43.87h48.258v18.645c0 1.234.41 2.373 1.099 3.29H5.484zm50.451 0a3.294 3.294 0 0 1-3.29-3.29V42.773a5.49 5.49 0 0 0-5.484-5.484H19.193l-1.645-2.194a5.51 5.51 0 0 0-4.387-2.193h-2.193V15.355h15.809l2.193-2.194h10.514v5.244l2.65.661-1.405 2.343 5.864 5.863 2.34-1.405.662 2.65h8.294l.661-2.65.676.405v36.244a3.294 3.294 0 0 1-3.29 3.29zm9.871-49.115l-2.137.534-.586.225-.51 1.249 1.42 2.368-3.441 3.443-2.367-1.422-1.338.544-.671 2.69h-4.868l-.534-2.138-.223-.587-1.252-.509-2.367 1.422-3.442-3.443 1.422-2.368-.552-1.338-2.683-.67v-4.868l2.683-.67.552-1.338-1.422-2.368 3.442-3.443L49.3 5.427l1.338-.544.671-2.69h4.868l.534 2.138.222.587 1.253.509 2.367-1.422 3.441 3.443-1.42 2.368.55 1.338 2.683.67v4.868z" fill="#8F62C9"/><path d="M53.742 6.58c-4.234 0-7.677 3.445-7.677 7.678 0 4.232 3.443 7.677 7.677 7.677 4.233 0 7.677-3.445 7.677-7.677 0-4.232-3.444-7.677-7.677-7.677zm0 13.162a5.49 5.49 0 0 1-5.484-5.484 5.49 5.49 0 0 1 5.484-5.484 5.49 5.49 0 0 1 5.484 5.484 5.49 5.49 0 0 1-5.484 5.484zM4.387 37.29H6.58v2.194H4.387V37.29zm4.386 0h2.194v2.194H8.773V37.29zm4.39 0h2.193v2.194h-2.194V37.29zm4.824-19.522l-5.557 4.168 5.557 4.167 1.316-1.755-3.217-2.412 3.217-2.413-1.316-1.755zM41.02 28.297l3.216 2.413-3.216 2.413 1.316 1.755 5.557-4.168-5.557-4.168-1.316 1.755zM21.934 17.548H37.29v2.194H21.936v-2.194zm0 4.388H37.29v2.193H21.936v-2.194zm0 4.387H37.29v2.193H21.936v-2.193zm0 4.387h10.968v2.193H21.936V30.71zm13.163 0h2.193v2.193h-2.193V30.71zm-5.09 19.488l5.57 4.64-5.57 4.641 1.404 1.687 7.592-6.327-7.592-6.328-1.404 1.687zm-8.773-1.687l-7.592 6.328 7.591 6.327 1.404-1.687-5.57-4.64 5.57-4.64-1.404-1.688zm1.818 14.83l4.377-17.545 2.128.531-4.378 17.545-2.127-.53zM4.387 54.84H6.58v2.193H4.387V54.84zm0-4.387H6.58v2.193H4.387v-2.193zm0-4.387H6.58v2.193H4.387v-2.194zm41.678 10.967h2.193v2.194h-2.194v-2.194zm0-4.387h2.193v2.194h-2.194v-2.194zm0 8.774h2.193v2.194h-2.194v-2.194zm8.773-8.774h2.193v2.194h-2.193v-2.194zm0 8.774h2.193v2.194h-2.193v-2.194zm0-4.387h2.193v2.194h-2.193v-2.194z" fill="#8F62C9"/><path d="M53.742 10.968a3.294 3.294 0 0 0-3.29 3.29 3.294 3.294 0 0 0 3.29 3.29 3.294 3.294 0 0 0 3.29-3.29 3.294 3.294 0 0 0-3.29-3.29zm0 4.387a1.098 1.098 0 0 1 0-2.194 1.098 1.098 0 0 1 0 2.194z" fill="#8F62C9"/></svg>