<svg fill="none" height="68" width="68" xmlns="http://www.w3.org/2000/svg"><g fill="#ff4151"><path d="m66.856 58.931h-2.266v-2.267h-2.266v2.267h-2.267v-2.267h-2.266v2.267h-16.863a3.166 3.166 0 0 0 -2.854 1.76.907.907 0 0 1 -.82.507h-6.524a.907.907 0 0 1 -.82-.506 3.165 3.165 0 0 0 -2.847-1.76h-16.865v-20.407h-2.266v20.405h-2.266v-20.404h-2.267v20.405h-2.266c-.626 0-1.133.509-1.133 1.134v3.4a4.534 4.534 0 0 0 4.533 4.535h58.924a4.534 4.534 0 0 0 4.532-4.534v-3.401c0-.626-.507-1.134-1.133-1.134zm-1.133 4.535a2.267 2.267 0 0 1 -2.266 2.267h-58.924a2.267 2.267 0 0 1 -2.267-2.267v-2.268h24.796a.907.907 0 0 1 .82.507 3.165 3.165 0 0 0 2.847 1.76h6.531a3.165 3.165 0 0 0 2.854-1.76.907.907 0 0 1 .814-.507h24.795zm-36.26-45.344v-2.268h-20.397a5.674 5.674 0 0 0 -5.666 5.669v1.133h2.266v-1.133a3.4 3.4 0 0 1 3.4-3.401h20.396z"/><path d="m7.93 22.656h23.797v-2.267h-21.53a2.267 2.267 0 0 0 -2.266 2.267zm56.363-8.403 1.36-4.289a1.136 1.136 0 0 0 -.836-1.452l-4.396-.961-.956-4.393a1.133 1.133 0 0 0 -1.447-.842l-4.287 1.36-3.035-3.322a1.166 1.166 0 0 0 -1.674 0l-3.03 3.328-4.292-1.366a1.131 1.131 0 0 0 -1.451.837l-.961 4.398-4.387.961a1.133 1.133 0 0 0 -.837 1.452l1.36 4.288-3.327 3.032a1.133 1.133 0 0 0 0 1.675l3.327 3.032-1.36 4.288a1.136 1.136 0 0 0 .837 1.452l4.396.962.96 4.397a1.133 1.133 0 0 0 1.453.837l4.286-1.366 3.03 3.328a1.132 1.132 0 0 0 1.675 0l3.03-3.328 4.287 1.366a1.131 1.131 0 0 0 1.451-.837l.962-4.397 4.395-.962a1.133 1.133 0 0 0 .837-1.452l-1.36-4.288 3.328-3.032a1.134 1.134 0 0 0 0-1.675zm-2.063 6.55c-.327.3-.451.76-.316 1.183l1.203 3.796-3.89.852a1.135 1.135 0 0 0 -.864.864l-.846 3.887-3.795-1.209a1.14 1.14 0 0 0 -1.181.317l-2.682 2.95-2.681-2.948a1.131 1.131 0 0 0 -1.178-.316l-3.8 1.206-.85-3.892a1.135 1.135 0 0 0 -.864-.864l-3.886-.847 1.209-3.796a1.134 1.134 0 0 0 -.317-1.182l-2.949-2.682 2.947-2.683c.327-.298.45-.76.316-1.182l-1.206-3.797 3.89-.851c.432-.096.769-.433.864-.864l.847-3.888 3.794 1.21c.422.134.884.01 1.182-.318l2.681-2.95 2.681 2.948c.299.328.76.451 1.182.316l3.795-1.206.85 3.892c.096.432.433.769.865.864l3.89.851-1.208 3.797c-.135.422-.011.883.316 1.182l2.944 2.678-2.944 2.682z"/><path d="m43.392 22.988 11.33-11.336 1.603 1.603-11.331 11.336zm4.2-8.267a3.4 3.4 0 1 0 -6.801-.001 3.4 3.4 0 0 0 6.8 0zm-4.533 0a1.133 1.133 0 1 1 2.267 0 1.133 1.133 0 0 1 -2.267 0zm12.467 3.4a3.4 3.4 0 1 0 .002 6.801 3.4 3.4 0 0 0 -.002-6.8zm0 4.535a1.133 1.133 0 1 1 .001-2.267 1.133 1.133 0 0 1 0 2.267zm-26.104 7.671a1.124 1.124 0 0 0 -1.054.297l-11.06 10.95-2.69 1.6a4.34 4.34 0 0 0 -1.925 5.148 4.306 4.306 0 0 0 3.566 2.931l2.36 4.779c.192.388.587.633 1.02.631h4.458a1.133 1.133 0 0 0 1.04-1.587l-2.346-5.418 12.319.204h.019a1.132 1.132 0 0 0 1.07-1.503l-5.963-17.298a1.133 1.133 0 0 0 -.814-.734zm-14.576 17.268a2.09 2.09 0 0 1 .93-2.477l1.77-1.05 1.982 3.92-1.678.832c-.563.28-1.22.3-1.8.058a2.1 2.1 0 0 1 -1.204-1.283zm5.498 6.802-1.714-3.462c.072-.032.149-.044.22-.08l1.634-.809 1.883 4.35h-2.023zm1.414-7.018-2.361-4.677 9.291-9.199 4.85 14.066zm13.551-8.564 3.748-1.303.743 2.14-3.747 1.304-.744-2.14zm-2.944-7.536 2.499-2.606 1.636 1.57-2.5 2.606zm6.162 15.182h3.4v2.268h-3.4v-2.269zm28.329-7.934h-2.267v-7.937h-2.266v7.935h-2.266v-2.265h-2.267v2.267h-12.465c-.625 0-1.133.508-1.133 1.134v13.603c0 .626.508 1.134 1.133 1.134h21.53c.626 0 1.134-.508 1.134-1.134v-13.604c0-.626-.508-1.133-1.133-1.133zm-1.134 13.603h-19.262v-11.336h19.263v11.336z"/><path d="m48.727 43.06h4.533v2.268h-4.533zm6.796 0h7.932v2.268h-7.932zm-6.796 4.535h14.731v2.267h-14.73v-2.267zm-47.594-11.335h16.998c.625 0 1.133-.507 1.133-1.133v-9.07c0-.625-.508-1.133-1.133-1.133h-16.998c-.626 0-1.133.508-1.133 1.134v9.069c0 .626.507 1.133 1.133 1.133zm1.133-9.069h14.731v6.802h-14.73v-6.801z"/><path d="m4.53 29.458h2.268v2.267h-2.267v-2.267zm4.535 0h5.666v2.267h-5.666z"/></g></svg>