<svg width="200" height="200" fill="none" xmlns="http://www.w3.org/2000/svg"><path d="M200 0H0v200h200V0z" fill="#2B242E"/><path d="M165.051 59.569c5.698 11.118 8.2 23.904 7.088 36.552-2.085 25.989-19.319 49.477-42.945 59.9-25.295 11.258-56.427 6.254-77.274-11.952-21.68-19.04-30.298-49.755-20.986-77.134 2.78-7.922 6.81-15.288 12.37-21.682 4.308-5.142 12.09-5.698 17.094-1.25 4.586 3.891 5.56 10.562 2.363 15.566l-.14.277c-13.064 20.848-8.2 49.895 12.787 63.793 13.342 8.756 31.41 9.728 45.447 2.362 20.291-10.562 28.908-35.44 21.82-56.704l-.139-.278a12.098 12.098 0 0 1 7.783-15.288c5.976-1.946 12.091.695 14.732 5.837z" fill="#EF374B"/><path d="M100.702 116.273c18.345 0 33.216-14.872 33.216-33.217S119.047 49.84 100.702 49.84 67.485 64.71 67.485 83.056s14.872 33.217 33.217 33.217z" fill="#EF374B"/></svg>