<svg width="68" height="68" viewBox="0 0 68 68" fill="none" xmlns="http://www.w3.org/2000/svg">
<rect width="68" height="68" rx="7" fill="#357628"/>
<path d="M62.9 68H5.1C2.28836 68 0 65.7116 0 62.9V5.1C0 2.28836 2.28836 0 5.1 0H62.9C65.7116 0 68 2.28836 68 5.1V62.9C68 65.7116 65.7116 68 62.9 68ZM5.1 2.26711C3.53813 2.26711 2.26711 3.53813 2.26711 5.1V62.9C2.26711 64.4619 3.53813 65.7329 5.1 65.7329H62.9C64.4632 65.7329 65.7329 64.4619 65.7329 62.9V5.1C65.7329 3.53813 64.4619 2.26711 62.9 2.26711H5.1Z" fill="#71BA37"/>
<path d="M10.2009 11.3329H5.66805C5.0425 11.3329 4.53516 10.8255 4.53516 10.2V5.66707C4.53516 5.04152 5.0425 4.53418 5.66805 4.53418H10.2009C10.8265 4.53418 11.3338 5.04152 11.3338 5.66707V10.2C11.3338 10.8255 10.8265 11.3329 10.2009 11.3329ZM6.80094 9.06707H9.06805V6.79996H6.80094V9.06707Z" fill="#71BA37"/>
<path d="M19.2673 11.3329H14.7345C14.1089 11.3329 13.6016 10.8255 13.6016 10.2V5.66707C13.6016 5.04152 14.1089 4.53418 14.7345 4.53418H19.2673C19.8929 4.53418 20.4002 5.04152 20.4002 5.66707V10.2C20.4002 10.8255 19.8929 11.3329 19.2673 11.3329ZM15.8673 9.06707H18.1345V6.79996H15.8673V9.06707Z" fill="#71BA37"/>
<path d="M28.3338 11.3329H23.8009C23.1753 11.3329 22.668 10.8255 22.668 10.2V5.66707C22.668 5.04152 23.1753 4.53418 23.8009 4.53418H28.3338C28.9593 4.53418 29.4666 5.04152 29.4666 5.66707V10.2C29.468 10.8255 28.9593 11.3329 28.3338 11.3329ZM24.9337 9.06707H27.2009V6.79996H24.9337V9.06707Z" fill="#71BA37"/>
<path d="M66.8671 15.8671H1.13289C0.507344 15.8671 0 15.3598 0 14.7342V5.1C0 2.28836 2.28836 0 5.1 0H62.9C65.7116 0 68 2.28836 68 5.1V14.7329C68 15.3584 67.4927 15.8671 66.8671 15.8671ZM2.26711 13.6H65.7342V5.1C65.7342 3.53813 64.4632 2.26711 62.9013 2.26711H5.1C3.53813 2.26711 2.26711 3.53813 2.26711 5.1V13.6Z" fill="#71BA37"/>
<path d="M55.5314 24.9328H37.3985C36.773 24.9328 36.2656 24.4254 36.2656 23.7999C36.2656 23.1743 36.773 22.667 37.3985 22.667H55.5314C56.157 22.667 56.6643 23.1743 56.6643 23.7999C56.6643 24.4254 56.157 24.9328 55.5314 24.9328Z" fill="#71BA37"/>
<path d="M62.3336 24.9328H60.0665C59.4409 24.9328 58.9336 24.4254 58.9336 23.7999C58.9336 23.1743 59.4409 22.667 60.0665 22.667H62.3336C62.9591 22.667 63.4665 23.1743 63.4665 23.7999C63.4665 24.4254 62.9591 24.9328 62.3336 24.9328Z" fill="#71BA37"/>
<path d="M55.5314 33.9999H37.3985C36.773 33.9999 36.2656 33.4926 36.2656 32.867C36.2656 32.2415 36.773 31.7341 37.3985 31.7341H55.5314C56.157 31.7341 56.6643 32.2415 56.6643 32.867C56.6643 33.4926 56.157 33.9999 55.5314 33.9999Z" fill="#71BA37"/>
<path d="M62.3336 33.9999H60.0665C59.4409 33.9999 58.9336 33.4926 58.9336 32.867C58.9336 32.2415 59.4409 31.7341 60.0665 31.7341H62.3336C62.9591 31.7341 63.4665 32.2415 63.4665 32.867C63.4665 33.4926 62.9591 33.9999 62.3336 33.9999Z" fill="#71BA37"/>
<path d="M62.3322 29.4672H44.1993C43.5737 29.4672 43.0664 28.9599 43.0664 28.3343C43.0664 27.7088 43.5737 27.2014 44.1993 27.2014H62.3322C62.9577 27.2014 63.4651 27.7088 63.4651 28.3343C63.4651 28.9599 62.9577 29.4672 62.3322 29.4672Z" fill="#71BA37"/>
<path d="M39.6656 29.4672H37.3985C36.773 29.4672 36.2656 28.9599 36.2656 28.3343C36.2656 27.7088 36.773 27.2014 37.3985 27.2014H39.6656C40.2912 27.2014 40.7985 27.7088 40.7985 28.3343C40.7985 28.9599 40.2912 29.4672 39.6656 29.4672Z" fill="#71BA37"/>
<path d="M23.8009 49.8671H5.66805C5.0425 49.8671 4.53516 49.3598 4.53516 48.7342C4.53516 48.1087 5.0425 47.6013 5.66805 47.6013H23.8009C24.4265 47.6013 24.9338 48.1087 24.9338 48.7342C24.9338 49.3598 24.4265 49.8671 23.8009 49.8671Z" fill="#71BA37"/>
<path d="M30.5992 49.8671H28.3321C27.7066 49.8671 27.1992 49.3598 27.1992 48.7342C27.1992 48.1087 27.7066 47.6013 28.3321 47.6013H30.5992C31.2248 47.6013 31.7321 48.1087 31.7321 48.7342C31.7321 49.3598 31.2248 49.8671 30.5992 49.8671Z" fill="#71BA37"/>
<path d="M23.8009 58.9328H5.66805C5.0425 58.9328 4.53516 58.4254 4.53516 57.7999C4.53516 57.1743 5.0425 56.667 5.66805 56.667H23.8009C24.4265 56.667 24.9338 57.1743 24.9338 57.7999C24.9338 58.4254 24.4265 58.9328 23.8009 58.9328Z" fill="#71BA37"/>
<path d="M30.5992 58.9328H28.3321C27.7066 58.9328 27.1992 58.4254 27.1992 57.7999C27.1992 57.1743 27.7066 56.667 28.3321 56.667H30.5992C31.2248 56.667 31.7321 57.1743 31.7321 57.7999C31.7321 58.4254 31.2248 58.9328 30.5992 58.9328Z" fill="#71BA37"/>
<path d="M30.6017 54.4001H12.4688C11.8433 54.4001 11.3359 53.8927 11.3359 53.2672C11.3359 52.6416 11.8433 52.1343 12.4688 52.1343H30.6017C31.2273 52.1343 31.7346 52.6416 31.7346 53.2672C31.7346 53.8927 31.2273 54.4001 30.6017 54.4001Z" fill="#71BA37"/>
<path d="M7.93383 54.4001H5.66805C5.0425 54.4001 4.53516 53.8927 4.53516 53.2672C4.53516 52.6416 5.0425 52.1343 5.66805 52.1343H7.93516C8.5607 52.1343 9.06805 52.6416 9.06805 53.2672C9.06805 53.8927 8.55937 54.4001 7.93383 54.4001Z" fill="#71BA37"/>
<path d="M18.133 21.5859C18.4345 21.5859 18.7346 21.6975 18.9458 21.9206C21.3988 24.5171 27.1058 30.8164 27.1058 33.2402C27.1058 36.0944 24.6461 38.4173 21.6246 38.4173C20.8304 38.4173 20.0734 38.2406 19.3761 37.9391V41.6898C19.3761 42.3073 18.8754 42.808 18.2578 42.808C17.6402 42.808 17.1395 42.3073 17.1395 41.6898V37.8316C16.3772 38.2048 15.5312 38.4186 14.644 38.4186C11.6225 38.4186 9.16281 36.0957 9.16281 33.2416C9.16281 30.8177 14.8698 24.5171 17.3228 21.922C17.5313 21.6975 17.8328 21.5859 18.133 21.5859ZM18.133 19.1953C17.1621 19.1953 16.2324 19.5911 15.5816 20.2804C14.1991 21.744 12.183 23.9553 10.4418 26.1666C9.42047 27.4642 8.60898 28.6197 8.03125 29.5998C7.17063 31.0595 6.76953 32.2163 6.76953 33.2402C6.76953 37.4132 10.301 40.8079 14.6413 40.8079C14.6759 40.8079 14.7117 40.8079 14.7462 40.8066V41.6884C14.7462 43.6235 16.3201 45.1973 18.2552 45.1973C20.1902 45.1973 21.7641 43.6235 21.7641 41.6884V40.8052C26.0393 40.7322 29.4951 37.3654 29.4951 33.2389C29.4951 32.2149 29.094 31.0568 28.2334 29.5985C27.6556 28.6184 26.8441 27.4629 25.8228 26.1653C24.0816 23.9527 22.0655 21.7427 20.6816 20.2777C20.0335 19.5911 19.1038 19.1953 18.133 19.1953Z" fill="#71BA37"/>
<path d="M50.0291 62.1536L49.2535 61.4457C47.4087 59.7603 38.2061 51.1142 38.2659 46.3303C38.3084 42.8506 41.3392 40.019 45.0208 40.019C46.9558 40.019 48.7554 40.784 50.0397 42.1347C51.3254 40.7827 53.1236 40.019 55.0587 40.019C58.727 40.019 61.694 42.7869 61.8136 46.3197C61.8879 48.5084 60.5027 51.2656 57.5782 54.7479C54.8343 58.0178 51.7185 60.7245 50.83 61.4749L50.0291 62.1536ZM45.0208 42.4083C42.6408 42.4083 40.6831 44.1801 40.6565 46.3582C40.626 48.7926 45.3594 54.5022 50.0876 58.9581C54.1676 55.3602 59.5305 49.5284 59.4243 46.3994C59.3486 44.1615 57.4308 42.4083 55.0587 42.4083C53.6562 42.4083 52.3693 43.01 51.5299 44.0579C51.174 44.5041 50.6308 44.7604 50.0397 44.7604C49.4487 44.7604 48.9055 44.5041 48.5496 44.0565C47.7102 43.01 46.4233 42.4083 45.0208 42.4083ZM49.6652 42.5637L49.6639 42.5651C49.6639 42.5651 49.6639 42.5651 49.6652 42.5637ZM50.4143 42.5624C50.4143 42.5637 50.4156 42.5637 50.4156 42.5651C50.4156 42.5637 50.4156 42.5624 50.4143 42.5624Z" fill="#71BA37"/>
</svg>
