<svg width="30" height="30" fill="none" xmlns="http://www.w3.org/2000/svg">
  <g clip-path="url(#paypal-color-30px__clip0)">
    <path d="M28 0H2a2 2 0 00-2 2v26a2 2 0 002 2h26a2 2 0 002-2V2a2 2 0 00-2-2z" fill="#0074B7"/>
    <path d="M13.266 10.962a.642.642 0 01.633-.541h4.017c.476 0 .92.03 1.325.095.222.036.441.085.657.147.245.07.482.163.707.282.202-1.283 0-2.155-.694-2.946-.764-.87-2.144-1.243-3.91-1.243h-5.124a.734.734 0 00-.724.619L8.02 20.905a.44.44 0 00.434.51h3.163l.795-5.04.854-5.413z" fill="#fff"/>
    <path d="M20.606 10.947c-.016.1-.033.2-.053.3-.675 3.47-2.987 4.67-5.94 4.67h-1.504a.73.73 0 00-.722.618l-.77 4.881-.218 1.385a.385.385 0 00.38.445h2.667c.315 0 .584-.23.633-.541l.026-.136.503-3.185.032-.176a.642.642 0 01.634-.542h.399c2.583 0 4.606-1.049 5.197-4.084.246-1.268.118-2.328-.534-3.071a2.548 2.548 0 00-.73-.564" fill="#ADD0E6"/>
    <path d="M19.898 10.662a5.675 5.675 0 00-.657-.146 8.286 8.286 0 00-1.325-.097h-4.017a.64.64 0 00-.633.541l-.854 5.414-.025.157a.731.731 0 01.722-.619h1.503c2.953 0 5.266-1.2 5.941-4.669.02-.103.037-.202.052-.3a3.637 3.637 0 00-.707-.282" fill="#E6EFF5"/>
  </g>
  <defs>
    <clipPath id="paypal-color-30px__clip0">
      <path fill="#fff" d="M0 0h30v30H0z"/>
    </clipPath>
  </defs>
</svg>
