<svg width="88" height="88" fill="none" xmlns="http://www.w3.org/2000/svg"><rect width="88" height="88" rx="44" fill="url(#paint0_radial)"/><path d="M55.687 36.63c1.482-.023 2.964 0 4.447-.046.615-.024.866.14.866.837-.023 8.42-.023 16.839 0 25.259 0 .977-.57.79-1.117.79H36.327c-1.893 0-3.785.024-5.7 0-2.235-.023-3.58-1.395-3.604-3.698 0-6.42.023-12.815-.023-19.234-.022-2.14.707-3.885 2.19-5.373 1.801-1.791 3.876-3.21 5.837-4.791 4.812-3.861 9.646-7.746 14.457-11.63.274-.21.548-.395 1.004-.744v18.49c-.023 3.28-.046 6.56-.023 9.839 0 .814-.25 1.326-.935 1.79-5.541 3.792-11.06 7.653-16.578 11.49-.296.21-.707.303-.798.814.16-.023.32 0 .433-.046 7.411-2.465 14.8-4.93 22.21-7.35.708-.232.89-.604.89-1.325 0-5.047.023-10.071 0-15.072zm-9.691-.279c-.023-1.349-.913-2.047-2.19-1.721-1.527.395-2.941 2.07-3.055 3.651-.091 1.35.89 2.21 2.166 1.93 1.62-.348 3.079-2.209 3.079-3.86z" fill="#FEC901"/><path d="M55.689 36.666c0 5.023-.023 10.024.023 15.048 0 .72-.183 1.093-.89 1.325-7.41 2.443-14.799 4.908-22.21 7.35-.137.047-.274.023-.433.047.068-.535.501-.605.798-.814 5.518-3.838 11.037-7.676 16.578-11.49.684-.465.935-.977.935-1.791-.023-3.28.023-6.559.023-9.838 1.733.255 3.466-.024 5.176.163z" fill="#DA0"/><path d="M45.995 36.359c.023 1.651-1.459 3.512-3.055 3.86-1.277.28-2.258-.58-2.166-1.93.09-1.581 1.505-3.28 3.055-3.651 1.254-.303 2.144.395 2.166 1.72z" fill="#030303"/><defs><radialGradient id="paint0_radial" cx="0" cy="0" r="1" gradientUnits="userSpaceOnUse" gradientTransform="rotate(45) scale(124.451)"><stop stop-color="#A6A6A6"/><stop offset="1"/></radialGradient></defs></svg>