<svg width="200" height="200" fill="none" xmlns="http://www.w3.org/2000/svg"><path d="M200 0H0v200h200V0z" fill="#027B5B"/><path d="M39.852 38.349a8275.29 8275.29 0 0 1 17.474 0c-.053 7.666.008 15.328-.037 22.994 1.658-2.36 3.821-4.502 6.645-5.376 5.064-1.593 11.187-.485 14.815 3.574 3.648 4.067 4.888 9.673 5.04 14.996.086 5.34-.427 10.933-3.079 15.677-1.805 3.337-4.961 5.975-8.7 6.804-3.73.833-7.99.714-11.236-1.518-2.229-1.498-3.46-3.981-4.597-6.328.074 2.478-.066 4.949-.115 7.424H39.848c0-19.416 0-38.832.004-58.248zm95.922 8.48c5.836-1.879 11.594-3.996 17.43-5.872-.05 5.085-.017 10.174-.021 15.258 2.651 0 5.306-.004 7.966-.004-.033 3.85-.004 7.695-.025 11.54-2.655.046-5.319-.07-7.97.062.082 3.993-.045 7.986.062 11.98.045 1.776.812 3.787 2.577 4.493 1.781.386 3.636.029 5.36-.488-.037 3.858-.021 7.72-.017 11.577-4.871 1.514-10.046 2.586-15.151 1.847-3.086-.451-6.041-2.105-7.736-4.765-1.896-2.877-2.409-6.406-2.536-9.775-.013-4.978 0-9.952-.005-14.926-2.035.004-4.067-.025-6.098.04-.074-3.861-.025-7.723-.025-11.589 2.04.012 4.08.004 6.123.004.042-3.127-.086-6.262.066-9.381zM91.998 61.045c4.445-4.46 11.052-5.77 17.138-5.741 4.605-.131 9.472 1.026 12.932 4.219 3.586 3.312 5.248 8.179 5.901 12.907.443 2.856.39 5.753.382 8.634h-24.267c.131 1.424.423 2.935 1.51 3.956 1.929 1.827 4.74 2.073 7.264 2.241 4.42.074 9.004-.402 12.948-2.552-.033 3.48 0 6.964-.029 10.448-4.941 1.736-10.206 2.237-15.41 2.331-5.901.107-12.242-.935-16.855-4.892-4.296-3.632-6.2-9.332-6.451-14.81-.382-5.882.64-12.382 4.937-16.74z" fill="#FAFCFC"/><path d="M105.649 66.127c1.395-2.019 4.838-2.146 6.225-.049 1.248 1.9 1.326 4.28 1.367 6.476-3.041.004-6.078.004-9.119.004.082-2.2.205-4.567 1.527-6.43zm-45.422 1.28c1.638-.529 3.579.284 4.322 1.851 1.07 2.118 1.034 4.576 1.067 6.895-.082 2.323-.197 4.834-1.523 6.837-1.284 1.982-4.658 1.987-5.897-.05-1.178-1.891-1.297-4.222-1.31-6.389 0-2.093-.003-4.235.616-6.254.398-1.31 1.338-2.561 2.725-2.89z" fill="#027B5B"/><path d="M40.215 109.74c5.408-1.995 11.282-2.085 16.98-2.019 5.164.219 10.51 1.718 14.438 5.209 5.197 4.55 5.412 13.891-.054 18.301-1.397 1.178-3.056 1.996-4.786 2.559 2.508.88 5.009 2.082 6.738 4.175 2.775 3.205 3.217 7.838 2.215 11.826-.904 3.654-3.65 6.62-6.957 8.303-6.003 3.256-13.101 3.189-19.714 2.547-3.103-.293-6.16-.915-9.165-1.725-.125-3.995 0-7.999-.062-11.99 5.157 1.71 10.811 2.845 16.192 1.554 3.608-.908 3.792-6.516.571-8.046-3.404-1.694-7.392-1.04-11.011-.559.02-3.772.004-7.548.008-11.328 2.81.133 5.646.293 8.432-.173 1.683-.297 3.589-1.142 4.05-2.95.259-1.448.102-3.095-.9-4.238-1.138-1.33-2.938-1.855-4.633-1.956-4.163-.216-8.354.508-12.252 1.956-.136-3.807.02-7.63-.09-11.446zm44.313 6c3.878-4.79 9.876-7.541 15.973-7.951 5.666-.231 11.438-.149 16.951 1.354-.078 3.94 0 7.884-.043 11.825-4.488-1.256-9.168-2.145-13.844-1.62-2.841.383-5.666 1.847-7.11 4.402-1.01 1.714-1.237 3.725-1.385 5.67 3.373-2.637 7.861-3.26 12.024-3.005 5.271.34 10.272 3.537 12.698 8.241 1.816 3.506 2.133 7.622 1.573 11.488-.595 4.097-2.794 7.971-6.132 10.448-4.91 3.831-11.48 4.958-17.55 4.172-5.298-.646-10.26-3.46-13.547-7.654-3.85-4.653-5.572-10.753-5.685-16.729-.157-7.247 1.287-14.959 6.077-20.641zm40.688-7.143c10.883-.004 21.765-.004 32.643 0-.012 3.96 0 7.92-.008 11.88-5.822.047-11.653-.082-17.472.066.055 2.622.067 5.255-.003 7.881 3.302-.062 6.726-.559 9.911.583 4.555 1.526 8.093 5.6 9.153 10.268 1.01 4.496.743 9.489-1.604 13.539-2.207 3.796-6.273 6.116-10.429 7.192-7.501 1.871-15.374.857-22.727-1.17-.109-3.932-.019-7.865-.051-11.797 4.72 1.189 9.807 2.351 14.584.813 3.976-1.232 4.567-7.18 1.433-9.598-1.883-1.417-4.32-1.761-6.614-1.859-2.566-.039-5.137.301-7.634.892-.532.102-.994.407-1.416.724.121-.426.203-.861.238-1.299-.011-9.372-.008-18.747-.004-28.115z" fill="#F9DC1C"/><path d="M98.616 136.447c2.351-.86 5.349-.144 6.66 2.09 1.6 2.731 1.491 6.413-.208 9.07-1.675 2.802-6.198 3.131-8.272.627-1.788-2.039-1.956-5.001-1.405-7.549.337-1.792 1.432-3.596 3.225-4.238z" fill="#027B5B"/></svg>