<svg width="20" height="20" fill="none" xmlns="http://www.w3.org/2000/svg"><g opacity=".7" fill="#fff" clip-path="url(#clip0)"><path d="M8.145 5.875a.422.422 0 110-.843.422.422 0 010 .843zM11.856 5.875a.422.422 0 110-.843.422.422 0 010 .843z"/><path fill-rule="evenodd" clip-rule="evenodd" d="M10 20c5.523 0 10-4.477 10-10S15.523 0 10 0C4.479 0 0 4.477 0 10s4.478 10 10 10zM4.615 7.45a.922.922 0 00-.922.922v3.89a.922.922 0 101.844 0v-3.89a.922.922 0 00-.922-.922zm9.85.922a.922.922 0 011.845 0v3.89a.922.922 0 11-1.844 0v-3.89zm-2.196-4.255l.686-1.138-.578-.348-.704 1.167a4.134 4.134 0 00-1.65-.34c-.586 0-1.143.121-1.649.34L7.67 2.631l-.578.348.686 1.138a4.147 4.147 0 00-1.9 3.332h8.292a4.147 4.147 0 00-1.901-3.332zM7.493 14.545H5.85V8.068h8.3v6.477h-1.688v2.058a.922.922 0 01-1.844 0v-2.058H9.337v2.058a.922.922 0 11-1.844 0v-2.058z"/></g><defs><clipPath id="clip0"><path fill="#fff" d="M0 0h20v20H0z"/></clipPath></defs></svg>