<svg width="20" height="20" xmlns="http://www.w3.org/2000/svg"><path d="M17.391 8.78c.375-.462.6-1.05.6-1.69a2.69 2.69 0 0 0-2.688-2.688 2.69 2.69 0 0 0-2.688 2.688c0 .64.226 1.228.6 1.69a3.763 3.763 0 0 0-.998.492 2.686 2.686 0 0 0-4.434 0 3.761 3.761 0 0 0-.999-.492c.375-.462.6-1.05.6-1.69a2.69 2.69 0 0 0-2.687-2.688A2.69 2.69 0 0 0 2.009 7.09c0 .64.225 1.228.6 1.69A3.751 3.751 0 0 0 0 12.348v3.327c0 .324.263.587.587.587h4.716v3.113c0 .324.263.587.587.587h8.22a.587.587 0 0 0 .587-.587v-3.113h4.716a.587.587 0 0 0 .587-.587v-3.327a3.751 3.751 0 0 0-2.609-3.568zm-2.088-3.203c.835 0 1.514.678 1.514 1.513 0 .834-.679 1.513-1.512 1.513h-.003c-.834 0-1.512-.679-1.512-1.513 0-.835.679-1.513 1.513-1.513zM10 9.277c.84 0 1.525.689 1.513 1.535A1.515 1.515 0 0 1 10 12.303a1.516 1.516 0 0 1-1.513-1.513c0-.823.668-1.513 1.513-1.513zm-5.303-3.7c.834 0 1.513.678 1.513 1.513 0 .834-.678 1.513-1.511 1.513h-.004c-.833 0-1.511-.679-1.511-1.513 0-.835.678-1.513 1.513-1.513zm-3.523 6.77a2.573 2.573 0 0 1 2.57-2.57H5.65c.622 0 1.223.229 1.689.634a2.696 2.696 0 0 0 .571 2.069 3.755 3.755 0 0 0-2.482 2.608h-1.75V12.89a.587.587 0 0 0-1.173 0v2.197h-1.33v-2.74zm12.349 6.44h-1.175v-1.735a.587.587 0 1 0-1.174 0v1.736H8.826v-1.736a.587.587 0 0 0-1.174 0v1.736H6.477v-2.74a2.574 2.574 0 0 1 2.57-2.57h1.905c1.42 0 2.57 1.156 2.57 2.57v2.74zm5.303-3.7h-1.33V12.89a.587.587 0 0 0-1.175 0v2.198h-1.749a3.755 3.755 0 0 0-2.482-2.608c.449-.556.68-1.302.571-2.069a2.577 2.577 0 0 1 1.69-.633h1.904a2.573 2.573 0 0 1 2.57 2.57v2.74zM6.829 2.975a.587.587 0 1 0 1.07-.486L7.114.766a.587.587 0 1 0-1.069.486l.783 1.722zm5.564.292a.587.587 0 0 0 .777-.292l.783-1.722a.587.587 0 1 0-1.069-.486l-.782 1.722a.587.587 0 0 0 .291.778zM10 2.89a.587.587 0 0 0 .587-.587V.587a.587.587 0 0 0-1.174 0v1.716c0 .324.263.587.587.587z"/></svg>