<svg width="200" height="200" viewBox="0 0 200 200" fill="none" xmlns="http://www.w3.org/2000/svg">
<path d="M100 200C44.8 200 0 155.2 0 100C0 44.8 44.8 0 100 0C155.2 0 200 44.8 200 100C200 155.2 155.2 200 100 200Z" fill="#BBBBBB"/>
<path d="M44.8178 122H56.5778L59.7778 100.64L69.6178 124.16L79.4578 100.64L83.4578 122H95.2178L82.8978 63.36L70.0178 97.44L57.1378 63.36L44.8178 122ZM111.18 122V76.56L99.9803 77.84V122H111.18ZM105.58 59.68C102.06 59.68 99.2603 62.48 99.2603 66C99.2603 69.44 102.14 72.32 105.58 72.32C109.1 72.32 111.9 69.52 111.9 65.92C111.9 62.4 109.1 59.68 105.58 59.68ZM151.352 64.08L139.592 65.36V77.84C137.272 76.88 135.832 76.56 133.832 76.56C123.912 76.56 117.272 86.16 117.272 100.48C117.272 114 123.112 123.28 131.672 123.28C134.632 123.28 137.032 122.32 140.152 119.84L140.792 123.28L151.912 122C151.512 118.16 151.352 114.64 151.352 107.44V64.08ZM139.592 109.76C137.432 111.68 135.992 112.4 134.232 112.4C130.472 112.4 128.472 108.24 128.472 100.4C128.472 91.76 130.792 87.36 135.192 87.36C136.712 87.36 137.752 87.76 139.592 88.96V109.76Z" fill="#FFFFFF"/>
</svg>
