<svg width="88" height="88" fill="none" xmlns="http://www.w3.org/2000/svg"><rect width="88" height="88" rx="44" fill="url(#paint0_radial)"/><path d="M26.243 34.507c0 1.367-1.042 2.475-2.67 2.475-1.563 0-2.604-1.107-2.572-2.475C20.968 33.074 22.01 32 23.606 32s2.604 1.075 2.637 2.507zm-5.113 20.35V38.936h4.95v15.922h-4.95zm29.175-11.2c0 7.196-4.363 11.559-10.777 11.559-6.512 0-10.322-4.917-10.322-11.169 0-6.578 4.2-11.494 10.68-11.494 6.74 0 10.42 5.047 10.42 11.104zm-15.857.293c0 4.298 2.019 7.325 5.34 7.325 3.354 0 5.275-3.19 5.275-7.456 0-3.94-1.889-7.326-5.308-7.326-3.354 0-5.307 3.191-5.307 7.457zm19.275 5.796c1.335.683 3.386 1.367 5.502 1.367 2.28 0 3.484-.944 3.484-2.377 0-1.367-1.043-2.149-3.68-3.093-3.646-1.27-6.024-3.289-6.024-6.48 0-3.744 3.126-6.61 8.304-6.61 2.475 0 4.298.522 5.6 1.108l-1.106 4.005a10.434 10.434 0 0 0-4.592-1.042c-2.149 0-3.19.976-3.19 2.116 0 1.4 1.236 2.019 4.069 3.093 3.876 1.434 5.699 3.452 5.699 6.546 0 3.679-2.833 6.805-8.857 6.805-2.507 0-4.982-.652-6.219-1.336l1.01-4.102z" fill="#fff"/><defs><radialGradient id="paint0_radial" cx="0" cy="0" r="1" gradientUnits="userSpaceOnUse" gradientTransform="rotate(45) scale(124.451)"><stop stop-color="#110EBF"/><stop offset=".255" stop-color="#2659E3"/><stop offset=".771" stop-color="#6EBE81"/><stop offset="1" stop-color="#D3E952"/></radialGradient></defs></svg>