<svg width="60" height="60" fill="none" xmlns="http://www.w3.org/2000/svg"><path d="M13.508 53.052c.03.116.04.232.04.348 0 .978-.785 1.761-1.762 1.761H9.512l1.132-5.477c.774.136 1.548.32 2.303.552l.562 2.816z" fill="#E2B454"/><path d="M59.03 4.839v17.42l-11.612-7.743L59.031 4.84z" fill="#FF4151"/><path d="M59.032 4.839L47.42 14.516h-5.806L30 4.84h7.742c0 1.064.87 1.935 1.935 1.935.533 0 1.017-.213 1.365-.57.358-.349.57-.833.57-1.365 0 1.064.872 1.935 1.936 1.935.533 0 1.017-.213 1.365-.57.358-.349.57-.833.57-1.365 0 1.064.872 1.935 1.936 1.935.533 0 1.017-.213 1.365-.57.358-.349.57-.833.57-1.365 0 1.064.872 1.935 1.936 1.935.533 0 1.016-.213 1.365-.57.358-.349.57-.833.57-1.365h5.807z" fill="#FF4151"/><path d="M59.032 22.258h-21.29v-4.839c0-.106-.01-.203-.02-.31l3.891-2.593h5.806l11.613 7.742z" fill="#FF4151"/><path d="M37.74 22.258h15.484v.871a5.784 5.784 0 0 1-1.268 3.62L49.353 30H37.74l-1.548-1.936-1.055-1.316a5.784 5.784 0 0 1-1.268-3.619v-7.645a.97.97 0 0 1 .968-.968 2.89 2.89 0 0 1 2.884 2.594c.01.106.02.203.02.31v4.838zM53.224 2.903V4.84c0 .532-.212 1.016-.57 1.364a1.892 1.892 0 0 1-1.365.571 1.941 1.941 0 0 1-1.936-1.935V2.903c0-1.064.871-1.935 1.936-1.935 1.064 0 1.935.87 1.935 1.935z" fill="#FFE8DA"/><path d="M49.355 30v1.81c0 .697-.038 1.384-.125 2.061H37.142c.397-.852.6-1.78.6-2.739V30h11.614z" fill="#E2B454"/><path d="M49.353 2.903V4.84c0 .532-.212 1.016-.57 1.364a1.892 1.892 0 0 1-1.365.571 1.941 1.941 0 0 1-1.936-1.935V2.903c0-1.064.871-1.935 1.936-1.935 1.064 0 1.935.87 1.935 1.935z" fill="#FFE8DA"/><path d="M37.151 33.871H49.23a17.53 17.53 0 0 1-8.226 12.88 17.833 17.833 0 0 1-4.422 1.946 17.628 17.628 0 0 1-4.772.658h-7.616V37.742h6.94a6.615 6.615 0 0 0 4.673-1.935 6.474 6.474 0 0 0 1.336-1.936h.01z" fill="#E2B454"/><path d="M45.482 2.903V4.84c0 .532-.213 1.016-.57 1.364a1.892 1.892 0 0 1-1.365.571A1.941 1.941 0 0 1 41.61 4.84V2.903c0-1.064.871-1.935 1.936-1.935 1.064 0 1.935.87 1.935 1.935zm-3.87 0V4.84c0 .532-.214 1.016-.572 1.364a1.892 1.892 0 0 1-1.364.571A1.941 1.941 0 0 1 37.74 4.84V2.903c0-1.064.871-1.935 1.936-1.935 1.064 0 1.935.87 1.935 1.935z" fill="#FFE8DA"/><path d="M41.613 14.516l-3.89 2.594a2.89 2.89 0 0 0-2.884-2.594.97.97 0 0 0-.968.968v6.774H30V4.84l11.613 9.677z" fill="#FF4151"/><path d="M36.193 28.065H14.515v2.438c0 .794-.639 1.433-1.432 1.433a1.45 1.45 0 0 1-.9-.31L7.74 28.065H4.838a3.87 3.87 0 0 1-3.871-3.871V10.645a3.87 3.87 0 0 1 3.87-3.87H30v15.483h3.871v.871c0 1.316.445 2.594 1.268 3.62l1.055 1.316z" fill="#FFE8DA"/><path d="M24.193 49.355v4.839c0 1.064-.87 1.935-1.935 1.935a1.941 1.941 0 0 1-1.936-1.935v-21.29c0-1.065.871-1.936 1.936-1.936.532 0 1.016.213 1.364.57.358.35.571.833.571 1.365V49.355zm-3.871-16.452v21.29a20.897 20.897 0 0 0-7.374-3.957 18.951 18.951 0 0 0-2.304-.552 20.328 20.328 0 0 0-3.687-.33h-.184V37.743h.184c4.887 0 9.61-1.713 13.365-4.839z" fill="#1C7CBE"/><path d="M10.644 49.684l-1.132 5.477-.639 3.097a.972.972 0 0 1-.948.774h-2.12a.97.97 0 0 1-.967-.967v-8.71h2.119c1.249 0 2.478.106 3.687.329z" fill="#1C7CBE"/><path d="M.967 41.613a3.87 3.87 0 0 1 3.87-3.87h1.936v11.612H4.838a3.87 3.87 0 0 1-3.871-3.87v-3.872z" fill="#1C7CBE"/><path d="M14.611 9.677h-.146c-3.706 0-6.723 3.003-6.723 6.694v2.095c0 3.692 3.003 6.695 6.774 6.695l-.08-1.935a4.764 4.764 0 0 1-4.758-4.759v-2.095c0-2.624 2.147-4.76 4.787-4.76h.146c1.273 0 2.47.497 3.368 1.398.9.901 1.393 2.1 1.39 3.372l-.01 4.908a.972.972 0 0 1-.97.968.971.971 0 0 1-.97-.97v-4.837c0-1.6-1.302-2.903-2.903-2.903a2.907 2.907 0 0 0-2.903 2.903v1.936c0 1.6 1.303 2.903 2.903 2.903.341 0 .664-.07.968-.178v.176a2.909 2.909 0 0 0 2.905 2.905 2.91 2.91 0 0 0 2.905-2.898l.011-4.908a6.648 6.648 0 0 0-1.956-4.743 6.642 6.642 0 0 0-4.738-1.967zm.873 7.742v.968a.97.97 0 0 1-.968.968.97.97 0 0 1-.967-.968V16.45a.97.97 0 0 1 .967-.967.97.97 0 0 1 .968.967v.968z" fill="#373A4A"/><path d="M54.194 3.871v-.968C54.194 1.303 52.89 0 51.29 0c-.746 0-1.42.291-1.935.755A2.884 2.884 0 0 0 47.419 0c-.746 0-1.42.291-1.935.755A2.885 2.885 0 0 0 43.548 0c-.746 0-1.42.291-1.935.755A2.885 2.885 0 0 0 39.677 0a2.907 2.907 0 0 0-2.903 2.903v.968h-7.742v1.935H4.84A4.844 4.844 0 0 0 0 10.646v13.547a4.844 4.844 0 0 0 4.839 4.84h2.563l4.18 3.345a2.403 2.403 0 0 0 3.901-1.874v-1.472H35.73l1.045 1.308v.794a5.604 5.604 0 0 1-1.652 3.99 5.606 5.606 0 0 1-3.989 1.65h-5.972v-3.87c0-1.601-1.302-2.904-2.903-2.904a2.904 2.904 0 0 0-2.85 2.386 19.937 19.937 0 0 1-12.45 4.388h-2.12A4.844 4.844 0 0 0 0 41.613v3.87a4.848 4.848 0 0 0 3.871 4.742v7.84c0 1.067.868 1.935 1.935 1.935h2.116c.913 0 1.71-.648 1.895-1.544l.482-2.327h1.488a2.732 2.732 0 0 0 2.676-3.264l-.23-1.146a19.866 19.866 0 0 1 5.174 2.992 2.904 2.904 0 0 0 2.851 2.386c1.6 0 2.903-1.303 2.903-2.904v-3.87h6.647a18.5 18.5 0 0 0 9.703-2.747c5.435-3.344 8.812-9.387 8.812-15.768V30.34l2.386-2.984a6.792 6.792 0 0 0 1.476-4.13H60V3.87h-5.806zM4.839 48.387a2.9 2.9 0 0 1-2.725-1.935H3.87v-1.936H1.935v-1.935h1.936v-1.936H2.114a2.9 2.9 0 0 1 2.725-1.935h.967v9.677H4.84zm3.083 9.678H5.806v-7.742h1.152c.85 0 1.693.073 2.53.18l-1.566 7.562zm3.865-3.871H10.7l.694-3.35c.241.054.486.098.725.162l.448 2.237a.795.795 0 0 1-.779.95zm7.568-1.944a21.88 21.88 0 0 0-11.613-3.829v-9.746a21.88 21.88 0 0 0 11.613-3.83V52.25zm3.87 1.944a.97.97 0 0 1-.967.967.97.97 0 0 1-.968-.968v-21.29a.97.97 0 0 1 .968-.967.97.97 0 0 1 .968.967v21.29zm27.098-51.29a.97.97 0 0 1 .967-.969.97.97 0 0 1 .968.968V4.84a.97.97 0 0 1-.968.967.97.97 0 0 1-.967-.967V2.903zm-3.871 0a.97.97 0 0 1 .967-.969.97.97 0 0 1 .968.968V4.84a.97.97 0 0 1-.968.967.97.97 0 0 1-.967-.967V2.903zm-3.871 0a.97.97 0 0 1 .967-.969.97.97 0 0 1 .968.968V4.84a.97.97 0 0 1-.968.967.97.97 0 0 1-.967-.967V2.903zm-3.871 0a.97.97 0 0 1 .967-.969.97.97 0 0 1 .968.968V4.84a.97.97 0 0 1-.968.967.97.97 0 0 1-.967-.967V2.903zm-1.758 2.902a2.9 2.9 0 0 0 2.725 1.936c.746 0 1.421-.291 1.936-.755.515.464 1.19.755 1.935.755.746 0 1.421-.291 1.936-.755.515.464 1.19.755 1.935.755.747 0 1.421-.291 1.936-.755.515.464 1.19.755 1.935.755a2.9 2.9 0 0 0 2.726-1.936h2.343l-9.29 7.742h-5.106l-9.29-7.742h4.28zm-5.984 1.099l9.03 7.525-1.761 1.174c-.654-1.217-1.924-2.056-3.398-2.056a1.937 1.937 0 0 0-1.936 1.936v5.806h-1.935V6.905zm-17.42 20.192v3.406c0 .363-.472.588-.755.363l-4.711-3.77H4.839a2.907 2.907 0 0 1-2.904-2.902V10.645c0-1.6 1.303-2.903 2.904-2.903h24.193v15.484h3.88a6.784 6.784 0 0 0 1.303 3.87H13.547zm26.95 18.83a16.57 16.57 0 0 1-8.69 2.46H25.16V38.71h5.972a7.526 7.526 0 0 0 5.358-2.22 7.62 7.62 0 0 0 1.248-1.651h10.36c-.859 4.544-3.608 8.631-7.602 11.088zm7.89-14.12c0 .368-.014.733-.039 1.096h-9.855a7.588 7.588 0 0 0 .216-1.77v-.165h9.677v.84zm2.81-5.66l-2.308 2.885H38.206l-2.308-2.885a4.861 4.861 0 0 1-1.06-3.022v-7.641c1.068 0 1.936.868 1.936 1.935v5.357l.919.612a4.449 4.449 0 0 1 1.984 3.709h1.936a6.373 6.373 0 0 0-1.316-3.871h11.952a4.85 4.85 0 0 1-1.052 2.921zM38.71 21.29v-3.675l3.196-2.131h5.221l8.71 5.806H38.71zm19.355-.84l-9.03-6.02 9.03-7.525V20.45z" fill="#373A4A"/><path d="M3.871 9.677h1.936v1.936H3.87V9.677zm0 13.549h1.936v1.935H3.87v-1.935z" fill="#373A4A"/></svg>