<svg width="20" height="20" viewBox="0 0 20 20" xmlns="http://www.w3.org/2000/svg">
<path d="M18.5694 7.80187C18.21 7.53552 17.9036 7.20417 17.6663 6.825C17.5559 6.36842 17.5332 5.89504 17.5994 5.43C17.6525 4.55875 17.7131 3.57125 17.0706 2.93C16.4281 2.28875 15.4419 2.3475 14.5706 2.40187C14.1053 2.4679 13.6317 2.44499 13.175 2.33437C12.7958 2.09699 12.4645 1.79066 12.1981 1.43125C11.6113 0.760625 10.9463 0 10 0C9.05375 0 8.38875 0.760625 7.80187 1.43125C7.53535 1.79034 7.20403 2.09643 6.825 2.33375C6.36846 2.44441 5.89503 2.46711 5.43 2.40063C4.56 2.34688 3.57188 2.28687 2.93 2.92937C2.28813 3.57187 2.3475 4.55875 2.40125 5.42938C2.46775 5.8944 2.44505 6.36784 2.33437 6.82437C2.09712 7.20383 1.79078 7.5354 1.43125 7.80187C0.76 8.38875 0 9.05375 0 10C0 10.9463 0.76 11.6113 1.43125 12.1981C1.7905 12.4645 2.09662 12.7958 2.33375 13.175C2.44444 13.6317 2.46714 14.1054 2.40063 14.5706C2.34688 15.4412 2.28625 16.4287 2.92875 17.0706C3.57125 17.7125 4.55687 17.6525 5.42875 17.5988C5.89383 17.5327 6.36722 17.5556 6.82375 17.6663C7.20312 17.9034 7.53468 18.2095 7.80125 18.5687C8.38813 19.2394 9.05125 20 9.99937 20C10.9475 20 11.6106 19.2394 12.1975 18.5694C12.4639 18.21 12.7952 17.9036 13.1744 17.6663C13.6309 17.5555 14.1044 17.5328 14.5694 17.5994C15.4394 17.6531 16.4275 17.7137 17.0694 17.0706C17.7113 16.4275 17.6513 15.4419 17.5975 14.5706C17.5312 14.1054 17.5541 13.6317 17.665 13.175C17.9024 12.7958 18.2087 12.4645 18.5681 12.1981C19.2394 11.6113 20 10.9463 20 10C20 9.05375 19.2394 8.38875 18.5694 7.80187ZM17.7462 11.2575C17.2323 11.6383 16.8103 12.1295 16.5112 12.695C16.3139 13.3255 16.2592 13.992 16.3513 14.6463C16.3888 15.2531 16.4313 15.9419 16.1869 16.1856C15.9425 16.4294 15.2537 16.3869 14.6469 16.3506C13.9929 16.2588 13.3267 16.3132 12.6962 16.51C12.1308 16.809 11.6396 17.231 11.2587 17.745C10.825 18.24 10.3788 18.75 10 18.75C9.62125 18.75 9.17437 18.24 8.7425 17.7462C8.36153 17.2324 7.87035 16.8104 7.305 16.5112C6.92805 16.3705 6.52711 16.3053 6.125 16.3194C5.86875 16.3194 5.60875 16.3356 5.35125 16.3513C4.74313 16.3894 4.05563 16.4313 3.81125 16.1869C3.56688 15.9425 3.61 15.2544 3.64688 14.6475C3.73911 13.9933 3.68467 13.3268 3.4875 12.6962C3.18848 12.1308 2.76646 11.6396 2.2525 11.2587C1.76 10.825 1.25 10.3788 1.25 10C1.25 9.62125 1.76 9.175 2.25375 8.7425C2.76771 8.36169 3.18973 7.87047 3.48875 7.305C3.68591 6.67466 3.74035 6.00836 3.64812 5.35438C3.61125 4.74563 3.56875 4.05687 3.8125 3.8125C4.05625 3.56812 4.745 3.61125 5.3525 3.6475C6.00647 3.7401 6.67286 3.68566 7.30313 3.48812C7.86847 3.18893 8.35966 2.76694 8.74062 2.25313C9.17437 1.76 9.62125 1.25 10 1.25C10.3788 1.25 10.825 1.76 11.2575 2.25375C11.6383 2.76771 12.1295 3.18973 12.695 3.48875C13.3255 3.68613 13.992 3.74078 14.6463 3.64875C15.2538 3.61062 15.9419 3.56812 16.1856 3.81312C16.4294 4.05812 16.3881 4.74562 16.3506 5.35312C16.2584 6.00711 16.3128 6.67341 16.51 7.30375C16.809 7.86922 17.231 8.36044 17.745 8.74125C18.24 9.175 18.75 9.62125 18.75 10C18.75 10.3788 18.24 10.825 17.7462 11.2575Z" />
<path d="M8.57292 13.2255C8.58984 13.1109 8.57379 12.9939 8.52667 12.888L6.94167 9.48992C6.907 9.41552 6.858 9.34868 6.79749 9.29321C6.73698 9.23774 6.66614 9.19473 6.58901 9.16664C6.51188 9.13855 6.42997 9.12593 6.34796 9.1295C6.26595 9.13306 6.18545 9.15274 6.11105 9.18742C6.03665 9.2221 5.9698 9.27109 5.91434 9.3316C5.85887 9.39211 5.81586 9.46295 5.78777 9.54008C5.75968 9.61721 5.74706 9.69912 5.75062 9.78113C5.75419 9.86314 5.77387 9.94364 5.80855 10.018L6.2748 11.018L5.0623 10.0568C4.95179 9.96947 4.81503 9.92204 4.67418 9.92218C4.53333 9.92232 4.39667 9.97003 4.28633 10.0576C4.176 10.1451 4.09847 10.2674 4.06631 10.4045C4.03416 10.5416 4.04926 10.6856 4.10917 10.813L5.69417 14.2118C5.76582 14.3606 5.89278 14.4755 6.04795 14.532C6.20313 14.5885 6.37424 14.5822 6.5248 14.5143C6.59921 14.4796 6.66606 14.4306 6.72153 14.3701C6.77701 14.3096 6.82002 14.2388 6.84811 14.1616C6.8762 14.0845 6.88882 14.0026 6.88525 13.9206C6.88168 13.8386 6.86199 13.7581 6.8273 13.6837L6.36105 12.6837L7.57167 13.6443C7.68205 13.7277 7.81645 13.7732 7.9548 13.7738C8.09315 13.7745 8.22799 13.7304 8.33917 13.648C8.4685 13.5425 8.55221 13.3912 8.57292 13.2255V13.2255Z" />
<path d="M10.5282 11.2662L9.962 11.5306L9.69762 10.9637L10.2645 10.6994C10.4121 10.6277 10.5256 10.5008 10.5805 10.3461C10.6353 10.1915 10.6272 10.0215 10.5578 9.87276C10.4883 9.72407 10.3632 9.60865 10.2094 9.55141C10.0556 9.49418 9.88549 9.49973 9.73575 9.56687L9.1695 9.83124L8.90512 9.26437L9.472 8.99999C9.54763 8.96608 9.61576 8.91747 9.67242 8.85698C9.72909 8.7965 9.77315 8.72535 9.80206 8.64767C9.83097 8.56999 9.84413 8.48734 9.8408 8.40452C9.83746 8.32171 9.81768 8.24038 9.78262 8.16528C9.74756 8.09018 9.69791 8.02281 9.63656 7.96707C9.57521 7.91134 9.50339 7.86837 9.42528 7.84066C9.34717 7.81295 9.26432 7.80105 9.18157 7.80565C9.09881 7.81026 9.0178 7.83128 8.94325 7.86749L7.81075 8.39624C7.73634 8.43091 7.66949 8.4799 7.61401 8.54041C7.55854 8.60092 7.51553 8.67176 7.48744 8.74889C7.45935 8.82603 7.44673 8.90794 7.4503 8.98995C7.45387 9.07196 7.47356 9.15247 7.50825 9.22687L9.09325 12.6262C9.14359 12.7341 9.22369 12.8253 9.32411 12.8892C9.42453 12.9531 9.5411 12.987 9.66012 12.9869C9.75121 12.9868 9.84119 12.9669 9.92387 12.9287V12.9287L11.0557 12.4012C11.1301 12.3666 11.197 12.3176 11.2525 12.2571C11.3079 12.1966 11.3509 12.1257 11.379 12.0486C11.4071 11.9714 11.4197 11.8895 11.4162 11.8075C11.4126 11.7255 11.3929 11.645 11.3582 11.5706C11.3236 11.4962 11.2746 11.4294 11.2141 11.3739C11.1536 11.3184 11.0827 11.2754 11.0056 11.2473C10.9285 11.2192 10.8465 11.2066 10.7645 11.2102C10.6825 11.2138 10.602 11.2334 10.5276 11.2681L10.5282 11.2662Z" />
<path d="M15.9376 9.59777C15.9376 9.58152 15.9307 9.56589 15.9263 9.55027L14.9082 5.88777C14.8639 5.72797 14.7579 5.59234 14.6135 5.5107C14.4692 5.42907 14.2983 5.40811 14.1385 5.45246C13.9787 5.4968 13.8431 5.6028 13.7614 5.74714C13.6798 5.89149 13.6589 6.06235 13.7032 6.22214L14.207 8.03464L13.5232 7.49214C13.431 7.42457 13.3224 7.383 13.2087 7.3718C13.095 7.3606 12.9803 7.38018 12.8768 7.42848C12.7732 7.47678 12.6845 7.55203 12.62 7.64636C12.5555 7.74068 12.5175 7.85061 12.5101 7.96464L12.4857 8.83964L11.4232 7.28964C11.328 7.15665 11.1844 7.06629 11.0233 7.03796C10.8622 7.00962 10.6964 7.04557 10.5615 7.13809C10.4266 7.23061 10.3334 7.37232 10.3018 7.53281C10.2702 7.6933 10.3028 7.85978 10.3926 7.99652L12.5445 11.1315C12.6215 11.2363 12.7282 11.3155 12.8508 11.3589C12.9733 11.4024 13.1061 11.4081 13.232 11.3753C13.3568 11.3349 13.4668 11.2581 13.5476 11.1548C13.6285 11.0514 13.6766 10.9262 13.6857 10.7953L13.7276 9.25027C13.7276 9.25027 14.9376 10.2103 14.9445 10.214C15.068 10.3123 15.2249 10.3585 15.3819 10.343C15.539 10.3275 15.6838 10.2514 15.7857 10.1309C15.8483 10.0585 15.8944 9.97323 15.9206 9.88114C15.9469 9.78904 15.9526 9.69233 15.9376 9.59777V9.59777Z" />
</svg>
