<svg width="18" height="22" fill="#282B37" xmlns="http://www.w3.org/2000/svg"><path d="M.508 9.36h1.958V6.505C4.207 6.441 5.27 5.251 5.27 3.382 5.27 1.398 4.117.297 2.031.297H.508V9.36zm1.958-7.27c.602.038.896.473.896 1.305s-.294 1.254-.896 1.306V2.089zM6.144 9.36h4.3V7.568H8.103V.298H6.144V9.36zM14.33.054c-1.972 0-3.56 2.112-3.56 4.71 0 2.74 1.55 4.839 3.56 4.839 1.97 0 3.545-2.112 3.545-4.774 0-2.663-1.562-4.775-3.546-4.775zm-.014 1.92c.91 0 1.51 1.165 1.51 2.893 0 1.728-.6 2.893-1.497 2.893-.909 0-1.51-1.152-1.51-2.931 0-1.69.614-2.855 1.497-2.855zM7.372 11.817l-.41 4.8c.666-.23.884-.281 1.242-.281.922 0 1.408.525 1.408 1.536 0 .96-.41 1.497-1.139 1.497-.525 0-.78-.14-1.305-.69l-.986 1.369c.845.819 1.408 1.075 2.42 1.075 1.74 0 2.892-1.318 2.892-3.302 0-1.728-.986-3.008-2.33-3.008H8.96l.115-1.242H10.7l.217-1.754H7.372z"/></svg>