<svg width="200" height="200" fill="none" xmlns="http://www.w3.org/2000/svg"><path d="M200 0H0v200h200V0z" fill="#E70B00"/><path d="M32.765 133.75c12.857 31.887 54.258 37.544 90.774 17.743 36.515-19.8 55.801-57.858 43.844-85.373-1.543-3.6-4.115-8.743-7.458-11.958-16.971-17.1-50.401-18.257-81.002-1.671-36.515 19.672-57.344 53.358-46.158 81.259z" fill="#962428"/><path fill-rule="evenodd" clip-rule="evenodd" d="M161.981 99.417l3.729 7.971c3.086-6.171 5.529-17.486 5.272-23.529l-3.729-7.715c-.129 1.286-1.286 9.515-1.672 10.8-.9 3.73-2.314 9.13-3.6 12.473zm-28.543 34.072l4.114 9.129c6.043-4.243 13.115-10.929 17.358-17.101l-3.858-8.614c-2.957 4.371-13.243 13.5-17.614 16.586zm-38.316 28.158l-2.571-8.229c9.643-2.443 15.172-4.757 24.043-8.743l2.315 9.257c-5.658 3.086-18.515 7.072-23.787 7.715zm-43.586-5.786l-5.143-7.586c7.2 3.086 15.557 6.172 24.172 6.943l1.8 7.329c-11.7-1.543-14.915-3.729-20.83-6.686z" fill="#DFE0DF"/><path fill-rule="evenodd" clip-rule="evenodd" d="M56.036 83.99l-11.572-7.586c-4.114 5.014-7.328 10.286-10.029 16.2l14.272 3.086c1.929-4.243 4.629-7.715 7.33-11.7zm25.458-21.344l-6.172-12.214c-6.3 2.957-10.286 5.657-15.172 10.414l9.258 10.03c3.471-3.215 7.843-5.658 12.086-8.23zm33.944-9.771l2.571-15.3c-8.1.128-15.172 1.67-23.272 4.37l3.215 13.887c5.785-1.929 11.828-2.829 17.486-2.957zm30.343 12.086l14.915-10.158c-4.243-5.914-11.057-11.057-18.129-13.5l-8.743 13.5c4.5 2.958 8.872 5.915 11.957 10.158zm-.9 29.572l18.387 5.271c3.471-6.043 4.628-16.971 5.657-24.043l-20.058 3.472c-.128 1.285.257 1.8-.128 3.085-.772 3.729-2.058 9-3.858 12.215zm-20.958 25.077l10.929 16.072c5.786-4.886 13.243-11.957 17.486-18l-16.072-9.772c-3.086 4.243-8.357 7.972-12.343 11.7zm-30.987 15.301l-.514 19.286c9.643-2.443 15.943-3.6 24.686-8.229l-7.971-17.357c-4.5 2.443-7.843 3.857-13.115 5.528-1.671.386-1.414.258-3.086.772zm-33.815-.9l-12.857 14.272c6.686 3.6 15.3 6.557 24.3 7.071l5.272-18c-6.172-.515-11.572-1.157-16.715-3.343zm-14.143-23.272l-15.943-.257c-1.157 7.586 0 15.557 3.214 22.372l16.33-7.586c-2.058-4.5-3.73-9.386-3.601-14.529z" fill="#7F8082"/><path d="M32.121 132.206c11.572 25.844 50.53 30.858 86.917 11.186s56.444-56.701 44.873-82.545c-11.572-25.972-50.53-30.858-86.917-11.186s-56.444 56.702-44.873 82.545z" fill="#CA262B"/><path fill-rule="evenodd" clip-rule="evenodd" d="M56.036 83.99l-11.572-7.586c-4.114 5.014-7.328 10.286-10.029 16.2l14.272 3.086c1.929-4.243 4.629-7.715 7.33-11.7zm25.458-21.344l-6.172-12.214c-6.3 2.957-10.286 5.657-15.172 10.414l9.258 10.03c3.471-3.215 7.843-5.658 12.086-8.23zm33.944-9.771l2.571-15.3c-8.1.128-15.172 1.67-23.272 4.37l3.215 13.887c5.785-1.929 11.828-2.829 17.486-2.957zm30.343 12.086l14.915-10.158c-4.243-5.914-11.057-11.057-18.129-13.5l-8.743 13.5c4.5 2.958 8.872 5.915 11.957 10.158zm-.9 29.572l18.387 5.271c3.471-6.043 4.628-16.971 5.657-24.043l-20.058 3.472c-.128 1.285.257 1.8-.128 3.085-.772 3.729-2.058 9-3.858 12.215zm-20.958 25.077l10.929 16.072c5.786-4.886 13.243-11.957 17.486-18l-16.072-9.772c-3.086 4.243-8.357 7.972-12.343 11.7zm-30.987 15.301l-.514 19.286c9.643-2.443 15.943-3.6 24.686-8.229l-7.971-17.357c-4.5 2.443-7.843 3.857-13.115 5.528-1.671.386-1.414.258-3.086.772zm-33.815-.9l-12.857 14.272c6.686 3.6 15.3 6.557 24.3 7.071l5.272-18c-6.172-.515-11.572-1.157-16.715-3.343zm-14.143-23.272l-15.943-.257c-1.157 7.586 0 15.557 3.214 22.372l16.33-7.586c-2.058-4.5-3.73-9.386-3.601-14.529z" fill="#fff"/><path fill-rule="evenodd" clip-rule="evenodd" d="M46.779 122.564c8.1 17.872 37.158 20.187 64.801 5.015 27.644-15.043 43.459-41.787 35.359-59.787-8.101-17.872-37.159-20.187-64.802-5.144-27.644 15.172-43.459 41.916-35.358 59.916z" fill="#fff"/><path d="M46.264 122.689c-1.414-3.214-2.186-6.814-2.186-10.543 0-17.1 14.915-37.544 37.801-50.016 12.343-6.686 25.072-10.028 36.001-10.028 13.758 0 24.944 5.143 29.572 15.429a26.056 26.056 0 0 1 2.186 10.414c0 17.1-14.915 37.544-37.801 50.016-12.343 6.814-25.072 10.029-36 10.029-13.63.128-24.944-5.015-29.573-15.301zm29.572 14.272c10.8 0 23.272-3.214 35.487-9.9 22.629-12.343 37.286-32.53 37.158-48.987 0-3.6-.643-6.943-2.057-10.03-4.372-9.642-15.044-14.785-28.544-14.785-10.8 0-23.272 3.214-35.487 9.9-22.629 12.343-37.286 32.53-37.286 48.987 0 3.6.643 6.943 2.057 10.029l-.386.386.514-.258c4.372 9.644 15.172 14.658 28.544 14.658z" fill="#962428"/><path d="M62.722 63.676c-5.529 5.529-9.9 11.186-13.244 16.072l3.086 2.057c4.115-3.857 9.386-8.357 15.3-12.472l-5.142-5.657zm96.817-8.1l-10.544 7.2c2.958 3.857 5.015 8.872 5.915 15.43l3.729-.644c3.985-8.743 3.857-16.072.9-21.986zM94.865 42.59c-6.943 2.571-13.114 5.914-18.643 9.643l4.629 9c5.143-2.7 10.671-4.886 16.457-6.3.129 0 .257 0 .386-.128L94.865 42.59zm25.201-4.5h-2.057l-2.443 13.757c1.929-.128 3.857-.257 5.786-.257 4.629 0 9.129.514 13.243 1.672l7.457-11.444c-6.428-2.442-14.143-3.728-21.986-3.728z" fill="#CA262B"/><path d="M49.35 79.62c-5.4 7.843-7.972 13.757-7.972 13.757s4.114-5.143 11.186-11.7l-3.214-2.058zm26.872-27.258c-5.143 3.471-9.643 7.457-13.63 11.314l5.144 5.529c3.986-2.829 8.357-5.529 12.986-7.843l-4.5-9zm41.787-14.272c-6.172.128-12.344 1.157-18.13 2.828-1.671.515-3.343 1.03-4.885 1.672l2.828 12.343c5.658-1.414 11.829-2.571 17.872-3.086l2.315-13.757zm24.172 3.728l-7.458 11.444c5.658 1.671 10.672 4.628 14.272 9.514l10.543-7.2c-3.086-6.3-9.514-10.929-17.357-13.758zm16.457 35.744l-3.729.643c.258 1.672.386 3.472.515 5.272 1.286-1.929 2.314-3.986 3.214-5.915z" fill="#fff"/><path fill-rule="evenodd" clip-rule="evenodd" d="M135.238 62.645L105.795 74.73 86.251 64.316l-5.914 23.786-27.258 17.744 25.844 2.571 2.7 21.344 21.857-22.244 29.058-4.5-12.471-16.329 15.171-24.044z" fill="#B8242A"/><path d="M85.608 66.76c-10.286 5.786-19.672 13.115-24.3 20.7-12.73 20.701-13.115 27.259-7.715 27.259 3.857 0 10.543-3.215 17.615-7.072l-18.13-1.8 27.258-17.743 5.272-21.344zm34.33-11.186c-8.358 0-20.572 3.858-31.887 9.772l17.615 9.386 29.572-12.086-15.172 24.043.257.386c2.057-.514 3.729-.771 5.272-.771 5.786 0 7.457 4.114 5.657 15.043l1.157 1.543-1.414.385c-.257 1.415-.514 2.958-.9 4.629 0 .257 0 .386.129.386.771 0 5.657-6.557 9.385-15.3 9.129-21.344-3.342-34.073-14.914-37.03-1.415-.257-2.957-.386-4.757-.386z" fill="#fff"/><path d="M131.381 101.474c-.128.643-.257 1.157-.257 1.8l1.543-.257-1.286-1.543zm3.857-38.83l-29.572 12.087-17.614-9.386c-.9.385-1.672.9-2.572 1.414l-5.272 21.343-27.129 17.744 18.258 1.8c6.943-3.729 14.272-7.843 19.8-9.9 13.115-5.015 22.758-9 29.444-10.544l-.257-.385 14.914-24.172z" fill="#CA262B"/></svg>