<svg width="200" height="200" fill="none" xmlns="http://www.w3.org/2000/svg"><path d="M200 0H0v200h200V0z" fill="url(#paint0_radial)"/><path d="M142.58 85.6l-.758-.75-1.138-1.125L116.704 60c1.896 11.722-7.014 21.85-9.194 24.1l-40.757 40.324c-9.004 8.908-9.004 23.444 0 32.352l1.896 1.876c9.004 8.908 23.696 8.908 32.7 0l41.231-40.793a22.638 22.638 0 0 0 0-32.258z" fill="#FF4200"/><path d="M102.944 76.294a24.453 24.453 0 0 0 5.666-15.645c0-13.654-11.14-24.653-24.971-24.653-13.83 0-24.972 11-24.972 24.653a24.45 24.45 0 0 0 5.667 15.645c.864 1.043 1.825 1.991 2.881 2.94l16.424 16.783 16.52-16.783c.96-.949 1.92-1.897 2.785-2.94z" fill="#8F00FF"/><defs><radialGradient id="paint0_radial" cx="0" cy="0" r="1" gradientUnits="userSpaceOnUse" gradientTransform="rotate(45) scale(282.843)"><stop stop-color="#6600D0"/><stop offset="1" stop-color="#2F0061"/></radialGradient></defs></svg>