<svg width="200" height="200" fill="none" xmlns="http://www.w3.org/2000/svg"><path d="M200 0H0v200h200V0z" fill="#004869"/><path d="M100.511 175.936c41.691 0 75.488-33.797 75.488-75.487 0-41.691-33.797-75.488-75.488-75.488-41.69 0-75.488 33.797-75.488 75.488 0 41.69 33.797 75.487 75.488 75.487z" fill="#000"/><path d="M100.51 156.364c30.88 0 55.914-25.034 55.914-55.915 0-30.88-25.034-55.914-55.914-55.914-30.88 0-55.914 25.034-55.914 55.914 0 30.881 25.033 55.915 55.914 55.915z" fill="#fff"/><path d="M132.677 76.422c-2.874-2.122-6.159-3.354-9.581-4.243-3.764-1.985-6.912-5.133-11.224-5.68-1.848-.206-1.916-.275-2.053-2.19.068-5.27-5.27-6.434-4.585-8.487 2.942-3.97-.548-4.312-3.696-3.354-.684.548-.89 2.464-1.232 3.285-1.574.206-2.258.616-2.669 2.122-.48 2.532-1.78 4.722-3.217 6.844-.958 2.121-2.463 1.642-4.448 2.669-1.095.616-1.848 1.437-3.011 1.71-3.833.89-7.94 1.917-11.293 4.107-1.369.958-2.6 2.738-4.175 2.875-2.874-.274-5.543.342-6.57 3.421-3.49 7.118 2.806 13.893 4.791 20.395-5.886 11.908 7.05 29.086 1.163 34.014-1.094.684-5.064 3.08-4.174 4.038.89 1.026 6.433 1.574 10.197-1.643.958-.479 2.532-.273 2.943-1.095-2.874-10.471.616-11.087.821-20.394.069-5.544-3.559-5.749 3.217-7.118.684-.41 1.369-1.574 2.121-1.711 3.08.342 6.502 1.232 9.65.821.342 1.643-.821 2.875-1.3 4.312 4.654.411 10.882-.616 14.098-4.38 2.943 2.601 8.35 3.217 12.045 4.654-.41 2.258-1.916 3.627-.752 5.954 1.574 3.217.616 6.981.273 10.334-.205 2.19 0 4.449-1.505 6.228.342 4.791 10.129 5.133 13.687 3.422.822-2.19-3.627-4.175-4.859-5.475-1.848-1.916 3.422-8.418 3.97-10.471 1.437-7.528 0-12.114.479-19.779 3.627-2.874 1.232-8.486 3.079-12.182 1.711-4.38 2.875-10.403-2.19-13.003zm-50.37 10.334c-.685 3.285-4.928 2.327-6.365 4.927-.48.822-.684 2.464-1.369 2.67-4.654.547.616-7.05-2.258-10.54 3.011.274 6.022.137 8.76-1.232.547 1.369 1.642 2.396 1.232 4.175zm43.732 8.418c-.89-.205-1.779-1.574-2.601-2.122-.684-.479-2.669-.753-3.148-1.369-.411-.547 0-.82 0-1.505.069-1.369-1.095-2.122-1.574-3.285 1.437-.137 2.464-2.6 1.437-3.696 3.011-.205 6.228-.616 9.308-.41-2.259 3.01-2.943 9.033.068 11.703-.616.342-2.669.89-3.49.684z" fill="#004869"/><path d="M173.946 82.723c-3.49 0-8.418.205-10.265 1.026-2.875 1.369-4.175 3.08-4.175 4.928V110.44c0 1.848 1.3 3.559 4.175 4.928 1.847.889 7.117 1.026 10.608 1.026 1.095-5.133 1.711-10.471 1.711-15.946 0-6.09-.685-12.045-2.054-17.725zm-146.87 0c3.491 0 8.419.205 10.266 1.026 2.875 1.369 4.175 3.08 4.175 4.928V110.44c0 1.848-1.3 3.559-4.175 4.928-1.847.889-7.117 1.026-10.607 1.026a72.073 72.073 0 0 1-1.78-15.946c0-6.09.753-12.045 2.122-17.725zm95.812-54.407c-1.779 3.012-4.174 7.392-4.311 9.308-.274 3.148.479 5.133 2.053 6.091 1.574.958 9.376 5.544 9.376 5.544s7.733 4.585 9.376 5.543c1.643.958 3.696.684 6.365-1.095 1.711-1.163 4.585-5.612 6.365-8.623a76.13 76.13 0 0 0-12.867-9.65c-5.338-3.011-10.813-5.407-16.357-7.118zM47.746 154.447c1.78-3.011 4.517-7.186 6.16-8.281 2.669-1.779 4.722-2.053 6.364-1.095 1.574.958 9.376 5.544 9.376 5.544s7.734 4.585 9.376 5.543c1.575.958 2.396 2.943 2.054 6.091-.206 2.053-2.738 6.639-4.517 9.65-4.996-1.711-9.855-3.901-14.578-6.707-5.338-3.011-10.06-6.639-14.235-10.745zm2.191-110.186c1.643 3.08 4.175 7.323 5.818 8.486 2.6 1.917 4.654 2.19 6.296 1.37 1.643-.89 9.581-5.202 9.581-5.202s7.94-4.312 9.582-5.201c1.642-.89 2.464-2.806 2.327-6.023-.137-2.053-2.464-6.775-4.106-9.855-5.065 1.506-10.061 3.49-14.852 6.091-5.406 3.011-10.265 6.433-14.645 10.334zm70.011 129.14c-1.643-3.08-3.833-7.528-3.97-9.513-.205-3.216.685-5.133 2.327-6.022 1.643-.89 9.582-5.202 9.582-5.202s7.939-4.311 9.581-5.201c1.643-.89 3.696-.548 6.296 1.369 1.643 1.232 4.312 5.749 6.023 8.828a75.291 75.291 0 0 1-13.209 9.103c-5.475 2.942-11.018 5.133-16.63 6.638z" fill="#075D84"/></svg>