<svg width="40" height="40" fill="none" xmlns="http://www.w3.org/2000/svg"><rect width="40" height="40" rx="4" fill="url(#android_radial)"/><path d="M11.478 16.47c-.816 0-1.478.661-1.478 1.477v6.235a1.478 1.478 0 1 0 2.955 0v-6.235c0-.816-.661-1.477-1.477-1.477zm17.262 0c-.816 0-1.477.661-1.477 1.477v6.235a1.478 1.478 0 1 0 2.955 0v-6.235c0-.816-.662-1.477-1.478-1.477zm-4.997-5.338l1.1-1.824-.927-.558-1.128 1.87a6.626 6.626 0 0 0-2.643-.546c-.94 0-1.833.195-2.643.547L16.373 8.75l-.926.558 1.1 1.824a6.645 6.645 0 0 0-3.046 5.34h13.288a6.645 6.645 0 0 0-3.046-5.34zm-6.607 2.816a.676.676 0 1 1 0-1.35.676.676 0 0 1 0 1.35zm5.946 0a.676.676 0 1 1 0-1.35.676.676 0 0 1 0 1.35zM13.46 27.84h2.63v3.297a1.478 1.478 0 0 0 2.956 0V27.84H21.1v3.297a1.478 1.478 0 1 0 2.955 0V27.84h2.703V17.46H13.46v10.38z" fill="#fff"/><defs><radialGradient id="android_radial" cx="0" cy="0" r="1" gradientUnits="userSpaceOnUse" gradientTransform="rotate(45) scale(56.5685)"><stop stop-color="#B0E028"/><stop offset="1" stop-color="#5C7C00"/></radialGradient></defs></svg>