<svg width="88" height="88" fill="none" xmlns="http://www.w3.org/2000/svg"><rect width="88" height="88" rx="44" fill="url(#paint0_radial)"/><path fill-rule="evenodd" clip-rule="evenodd" d="M57.535 38.07a2.54 2.54 0 0 0 2.544-2.534A2.54 2.54 0 0 0 57.535 33a2.54 2.54 0 0 0-2.543 2.536c0 1.4 1.139 2.535 2.543 2.535zm-19.49 1.37c-.115.287-.942 2.614-2.94 5.026V34.154l-5.327 1.05v18.69h5.326v-5.777c1.543 2.305 2.304 5.777 2.304 5.777h6.38c-.631-2.615-3.391-7.436-3.391-7.436 2.477-3.13 3.565-6.466 3.738-7.018h-6.09zm14.001-.195c-4.77.152-7.192 2.285-7.192 6.526v8.123h5.204V47.27c0-2.54.334-3.628 3.357-3.732v-4.22c-.509-.107-1.369-.073-1.369-.073zm-31.2 2.253c-.652-.043-2.162-.14-2.162-1.495 0-1.636 2.174-1.636 2.99-1.636 1.434 0 3.29.423 4.617.818 0 0 .74.26 1.37.526l.058.016V35.25l-.08-.024c-1.566-.546-3.386-1.071-6.76-1.071-5.818 0-7.88 3.378-7.88 6.272 0 1.668.718 5.594 7.381 6.047.565.035 2.064.121 2.064 1.521 0 1.157-1.227 1.838-3.291 1.838-2.263 0-4.457-.575-5.79-1.12v4.613c1.995.521 4.245.781 6.88.781 5.69 0 8.238-3.196 8.238-6.363 0-3.592-2.852-5.926-7.635-6.245zm34.109 12.396h5.162V39.456h-5.162v14.438zm14.882-18.82v18.82H75v-19.74l-5.163.92zm-7.534 0l5.159-.92v19.74h-5.159v-18.82z" fill="#fff"/><defs><radialGradient id="paint0_radial" cx="0" cy="0" r="1" gradientUnits="userSpaceOnUse" gradientTransform="rotate(45) scale(124.451)"><stop stop-color="#B64C94"/><stop offset="1" stop-color="#792A60"/></radialGradient></defs></svg>