<svg width="20" height="20" xmlns="http://www.w3.org/2000/svg"><path d="M5.455 8.063A1.958 1.958 0 0 0 7.41 6.108a1.958 1.958 0 0 0-1.955-1.956 1.958 1.958 0 0 0-1.956 1.956c0 1.078.877 1.955 1.956 1.955zm0-2.736a.782.782 0 0 1 0 1.562.782.782 0 0 1 0-1.562z"/><path d="M18.017 13.763h-.797c.021-.113.069-.25.166-.4.298-.463.362-.872.418-1.232.036-.228.07-.442.16-.69.082-.22.237-.397.396-.533l.551 1.358L20 11.824l-1.97-4.871-.479.097c-.054.01-1.347.288-2.155 1.785-.59 1.092-1.919 1.94-3.535 2.28l-.322-1.181-.574.168c-1.11.325-1.677.612-2.813 1.31-.389.238-.907.384-1.55.438.287-.383 1.066-1.414 1.066-1.414.8-1.045 1.894-2.477 1.894-4.33A4.112 4.112 0 0 0 5.455 2a4.112 4.112 0 0 0-4.107 4.107c0 1.852 1.094 3.284 1.893 4.33 0 0 .727.959 1 1.324-.92-.015-1.636.232-2.179.75-.633.605-.891 1.605-.687 2.52L0 15.947l1.625 2.939h.789l.609-.686a3.245 3.245 0 0 1 4.552-.291c.674.585 1.328.912 1.945.974.116.012.227.017.333.017.572 0 .993-.155 1.372-.294.426-.158.763-.282 1.33-.208.24.03.458.046.658.046 1.121 0 1.659-.468 2.082-1.163a.987.987 0 0 1 .545-.439c.431-.134.977.437.977.437l1.11-.545c.198.543.298 1.112.298 1.692H19.4a6.11 6.11 0 0 0-.439-2.279l-.944-2.383zM5.455 3.175a2.935 2.935 0 0 1 2.932 2.932c0 1.455-.916 2.653-1.652 3.616 0 0-.965 1.277-1.28 1.703-.316-.426-1.28-1.703-1.28-1.703-.736-.963-1.652-2.161-1.652-3.616a2.935 2.935 0 0 1 2.932-2.932zM16.917 15.92c-.531-.291-.991-.293-1.303-.232-.53.104-1 .452-1.322.981-.233.382-.434.712-1.586.563-.854-.111-1.403.091-1.888.27-.392.145-.702.259-1.181.211-.366-.036-.812-.276-1.292-.693a4.42 4.42 0 0 0-6.193.39l-.6-1.085 1.246-.83-.19-.448c-.281-.662-.073-1.363.265-1.686.389-.37.937-.493 1.778-.396 1.82.21 3.167.03 4.115-.552.844-.518 1.31-.774 1.958-1.002l.28 1.028.512-.072c2.24-.311 4.076-1.423 4.913-2.974.284-.526.64-.827.917-.996l.558 1.385c-.364.242-.819.648-1.042 1.253a4.44 4.44 0 0 0-.218.914c-.05.315-.082.523-.246.777-.631.978-.269 1.791-.225 1.88l.16.332h.884l.276.699-.576.283z"/></svg>