<svg width="70" height="72" fill="none" xmlns="http://www.w3.org/2000/svg"><path d="M68.053 48.967a34.276 34.276 0 0 0 1.948-11.42C70 18.519 54.52 3.094 35.424 3.094 16.328 3.094.848 18.519.848 37.547c0 3.997.685 7.834 1.941 11.404l65.264.016z" fill="#56679C"/><path d="M35.425 72c15.13 0 27.987-9.683 32.677-23.168-.238-17.783-14.777-32.126-32.68-32.126-17.897 0-32.432 14.335-32.68 32.11C7.428 62.308 20.29 72 35.425 72z" fill="#7689C5"/><path d="M42.308 57.586c1.67-6.468-2.328-5.812-7.083-11.729-4.755-5.916-.948-12.384-.948-12.384l-.27-3.994c-.452-1.398-.341-2.388-.01-3.084a3.946 3.946 0 0 0-.252-3.81c-1.89-2.948-.387-5.774-.366-5.814-16.948 1.043-30.4 14.951-30.637 32.044C7.428 62.31 20.29 72 35.425 72a34.755 34.755 0 0 0 8.271-.995c-4.93-4.45-3.057-6.95-1.388-13.419z" fill="#56679C"/><path d="M50.677 20.469L52.5 25.73s2.197 3.517 0 5.708c-2.198 2.19-4.929.53-4.929 1.99s-5.462.664-5.462 2.655c0 1.991-4.928 3.982-2.663 6.238 2.264 2.257 4.262-2.92 5.727-1.46 1.465 1.46 1.865 5.973 0 5.973-1.864 0-2.655 2.787-6.323 1.46-3.667-1.327-4.732-4.911-6.464-3.186-1.732 1.726-8.06 3.452-6.494 9.557 1.565 6.106 5.295 5.574 8.358 5.574 3.064 0 2.531 4.248 2.531 6.637 0 1.181.994 3.287 2.167 4.946 1.617-.163 3.2-.44 4.744-.817.626-1.83 1.302-3.95 2.547-5.191 2.13-2.124 4.309-2.759 3.376-5.247-.494-1.32 1.353-3.845-.312-5.504-1.665-1.659-3.863-2.92-2.931-3.849.933-.929 6.86 2.588 8.791.664 1.932-1.925 2.931 5.309 4.796 5.309 1.864 0 1.864-4.911 3.463-4.911.997 0 2.253-.617 3.348-.18a34.22 34.22 0 0 0 1.33-3.27c-.167-12.306-7.183-22.961-17.422-28.358z" fill="#83D912"/><path d="M50.68 20.469L52.5 25.73s1.133 1.813.958 3.647a3.38 3.38 0 0 1-.374 1.273c-.487 2.15-.814 6.473 3.62 8.586 5.887 2.807 1.442 10.703 9.418 12.713.22.018.437.062.648.146a34.224 34.224 0 0 0 1.33-3.27c-.167-12.305-7.182-22.96-17.421-28.357z" fill="#ABF222"/><path d="M42.303 57.586c1.669-6.468-2.328-5.812-7.083-11.729-1.114-1.024-1.872-1.707-2.835-.747-1.732 1.725-8.06 3.45-6.494 9.556 1.565 6.106 5.295 5.575 8.359 5.575 3.063 0 2.53 4.247 2.53 6.636 0 1.181.994 3.287 2.167 4.946 1.617-.163 3.2-.44 4.744-.817-4.93-4.451-3.058-6.95-1.389-13.42z" fill="#5BBF02"/><path d="M42.53 17.48a32.946 32.946 0 0 0-13.402-.169c-.163 1.146-.184 2.328.232 3.444 1.3 3.483 4.696 4.08 6.594 4.08 1.898 0 2.597 3.585 4.995 3.585s.999-3.982 2.198-5.177c1.199-1.194 1.498-1.891 0-3.384-.535-.534-.689-1.233-.664-1.91.006-.158.023-.314.048-.468z" fill="#83D912"/><path d="M34.372 24.7a3.971 3.971 0 0 0-.627-2.114c-1.886-2.945-.391-5.767-.366-5.814-1.443.089-2.862.27-4.25.54-.164 1.145-.185 2.327.231 3.443.987 2.645 3.181 3.625 5.012 3.944z" fill="#5BBF02"/><path d="M33.533 37.493a1.108 1.108 0 0 1 .484-1.495c1.936-.99 1.975-.93 2.188-1.266a1.118 1.118 0 0 1 1.54-.343 1.11 1.11 0 0 1 .344 1.533c-.635.999-1.346 1.18-3.054 2.053a1.117 1.117 0 0 1-1.502-.482zm.04 4.207a1.108 1.108 0 0 1 .292-1.544l.421-.287a1.118 1.118 0 0 1 1.55.29 1.108 1.108 0 0 1-.291 1.544l-.421.288a1.118 1.118 0 0 1-1.55-.29z" fill="#83D912"/><path d="M22.935 28.419c-2.182-2.174.732-3.949-1.332-6.006-.64-.638-.883-1.429-.914-2.217C10.169 25.5 2.919 36.302 2.742 48.81c2.704 7.788 8.13 14.31 15.147 18.433-.187-3.925 1.731-7.584-.15-9.459-2.264-2.256-2.297-4.479-3.063-5.242-.766-.763-2.597 1.128-3.73-1.328-1.132-2.455 1.532-3.981 1.532-3.981 1.732-.465 1.499-2.754 3.93-5.177 2.43-2.422 5.727 0 7.859 0 2.13 0 2.397-2.256 0-4.645-2.398-2.39.849-6.819-1.332-8.992z" fill="#5BBF02"/><path d="M20.3 47.163l-1.333-.566a1.11 1.11 0 0 1-.588-1.459 1.117 1.117 0 0 1 1.463-.586l1.332.566c.566.24.83.894.588 1.458-.24.562-.893.828-1.463.587z" fill="#83D912"/><path d="M60.909 43.425a4.195 4.195 0 0 1-4.203 4.188 4.195 4.195 0 0 1-4.202-4.188 4.195 4.195 0 0 1 4.202-4.188 4.195 4.195 0 0 1 4.203 4.188z" fill="#F9B50B"/><path d="M58.193 44.65a2.71 2.71 0 0 1-2.715-2.707c0-1.269.878-2.33 2.06-2.623a4.195 4.195 0 0 0-5.035 4.105 4.195 4.195 0 0 0 4.203 4.187 4.195 4.195 0 0 0 4.12-5.017 2.712 2.712 0 0 1-2.633 2.054z" fill="#F79D0D"/><path d="M18.956 36.986a4.195 4.195 0 0 1-4.203 4.187 4.195 4.195 0 0 1-4.202-4.187 4.195 4.195 0 0 1 4.202-4.188 4.195 4.195 0 0 1 4.203 4.188z" fill="#F97396"/><path d="M16.148 38.392a2.802 2.802 0 0 1-2.807-2.797c0-1.331.934-2.442 2.184-2.725a4.195 4.195 0 0 0-4.974 4.116 4.195 4.195 0 0 0 4.202 4.187 4.195 4.195 0 0 0 4.13-4.957 2.804 2.804 0 0 1-2.735 2.176z" fill="#F7577A"/><path d="M50.677 38.508c-7.29-6.188-19.42-6.548-27.316-1.97a2.011 2.011 0 0 1-2.745-.722 1.997 1.997 0 0 1 .726-2.735c9.385-5.443 23.36-4.902 31.939 2.382.843.716.944 1.979.226 2.82a2.012 2.012 0 0 1-2.83.225z" fill="#D9F5FF"/><path d="M14.752 0C2.44 0-4.435 14.162 3.208 23.78l9.041 11.378a3.199 3.199 0 0 0 5.006 0l9.041-11.378C33.94 14.162 27.066 0 14.752 0z" fill="#F7577A"/><path d="M20.25 22.968a.86.86 0 0 0-.541-.849c-.912-.355-1.103-1.105-1.111-1.645a.872.872 0 0 0-.617-.816c-6.58-2.053-6.561-7.875-6.345-9.89a.872.872 0 0 0-.492-.876c-.77-.372-.905-1.145-.89-1.704a.877.877 0 0 0-.588-.842C6.5 5.2 7.743 1.788 7.768 1.72.185 5.78-2.822 16.193 3.208 23.78l9.041 11.378a3.199 3.199 0 0 0 5.005 0l6.684-8.41c-3.447-.19-3.755-2.573-3.688-3.78z" fill="#D93A59"/><path d="M14.752 24.123c-5.175 0-9.385-4.195-9.385-9.352 0-5.156 4.21-9.351 9.385-9.351s9.385 4.195 9.385 9.351c0 5.157-4.21 9.352-9.385 9.352zm0-15.74c-3.535 0-6.41 2.866-6.41 6.389 0 3.522 2.875 6.388 6.41 6.388s6.411-2.866 6.411-6.389c0-3.522-2.875-6.388-6.41-6.388z" fill="#D93A59"/><path d="M19.71 22.118c-.912-.355-1.104-1.105-1.112-1.645a.86.86 0 0 0-.158-.481 6.387 6.387 0 0 1-3.688 1.167c-3.535 0-6.41-2.865-6.41-6.388a6.387 6.387 0 0 1 3.188-5.52.885.885 0 0 0-.385-.36c-.77-.372-.905-1.145-.89-1.704a.85.85 0 0 0-.167-.526c-2.818 1.616-4.72 4.645-4.72 8.11 0 5.156 4.21 9.351 9.384 9.351 1.99 0 3.837-.622 5.357-1.679a.847.847 0 0 0-.4-.325z" fill="#BA1C37"/><path d="M32.665 31.434a2.1 2.1 0 0 1 1.341-1.954c-4.527.235-8.954 1.45-12.664 3.601a1.996 1.996 0 0 0-.725 2.735 2.01 2.01 0 0 0 2.744.723c3.155-1.83 6.988-2.87 10.917-3.065a2.101 2.101 0 0 1-1.613-2.04z" fill="#ABE4FE"/><path d="M17.74 57.785c-2.265-2.257-2.298-4.48-3.064-5.243-.766-.764-2.597 1.128-3.73-1.327-.403-.874-.324-1.63-.056-2.242-.365-.883-1.185-1.962-2.897-3.116-3.571-2.407-3.035-7.445-2.738-9.134A32.343 32.343 0 0 0 2.742 48.81c2.703 7.789 8.13 14.31 15.147 18.433-.187-3.925 1.731-7.584-.15-9.458z" fill="#58AA02"/></svg>