<svg width="200" height="200" viewBox="0 0 200 200" fill="none" xmlns="http://www.w3.org/2000/svg">
<path d="M100 200C44.8 200 0 155.2 0 100C0 44.8 44.8 0 100 0C155.2 0 200 44.8 200 100C200 155.2 155.2 200 100 200Z" fill="#BBBBBB"/>
<path d="M61.968 68.26C58.098 65.83 54.228 64.57 50.178 64.57C40.638 64.57 33.618 72.31 33.618 82.93C33.618 90.49 36.138 95.08 43.158 100.57L47.478 103.9C50.538 106.24 52.248 109.21 52.248 112.36C52.248 116.32 49.908 118.75 46.038 118.75C42.618 118.75 38.748 117.31 33.798 114.07L35.328 128.47C41.268 130.9 44.508 131.71 48.288 131.71C58.818 131.71 66.198 123.79 66.198 112.36C66.198 104.17 63.408 99.67 53.868 92.11L50.358 89.41C48.288 87.79 47.298 85.9 47.298 83.56C47.298 80.23 49.458 78.07 52.878 78.07C55.218 78.07 58.008 79.24 61.968 82.03V68.26ZM73.8473 130H87.6173V100.57L114.797 132.43V66.28H101.027V95.71L73.8473 64.03V130ZM162.421 69.43C157.561 65.92 153.601 64.57 148.741 64.57C133.891 64.57 123.091 78.7 123.091 98.23C123.091 116.77 134.161 131.71 147.931 131.71C153.871 131.71 158.551 129.55 165.931 123.43V94.9H145.771V106.87H152.431V117.13C150.541 118.39 149.551 118.75 147.931 118.75C141.631 118.75 137.491 110.56 137.491 98.32C137.491 85.9 142.261 78.16 149.821 78.16C153.511 78.16 156.841 79.87 160.351 83.65L162.421 69.43Z" fill="white"/>
</svg>
