<svg width="20" height="20" xmlns="http://www.w3.org/2000/svg"><path d="M19.414 9.414h-1.297V7.49a2.467 2.467 0 0 0-2.469-2.47h-.669V1.842A1.843 1.843 0 0 0 13.138 0H4.352A1.84 1.84 0 0 0 2.51 1.841v4.435h-.669A1.84 1.84 0 0 0 .885 9.69a1.842 1.842 0 0 0 .626 2.51 1.837 1.837 0 0 0 .628 2.512 1.837 1.837 0 0 0 .37 2.32v1.127C2.511 19.174 3.337 20 4.353 20h8.786c.492 0 .954-.192 1.302-.54.348-.347.54-.81.54-1.301v-.67h.668c1.16 0 2.135-.803 2.399-1.882h1.367A.586.586 0 0 0 20 15.02V10a.586.586 0 0 0-.586-.586zM6.193 1.172h5.104v.67a.67.67 0 0 1-.67.668H6.863a.67.67 0 0 1-.67-.669v-.67zM1.172 8.117a.67.67 0 0 1 .67-.67h.668v1.34h-.669a.67.67 0 0 1-.67-.67zm.627 2.51c0-.368.3-.669.67-.669h1.883a.67.67 0 0 1 0 1.339H2.469a.67.67 0 0 1-.67-.67zm.628 2.511a.67.67 0 0 1 .67-.67h1.255a.67.67 0 1 1 0 1.34H3.096a.67.67 0 0 1-.669-.67zm.628 2.51a.67.67 0 1 1 1.34.002.67.67 0 0 1-1.34-.002zm10.752 2.51a.67.67 0 0 1-.669.67H4.352a.67.67 0 0 1-.67-.67v-.67l.042.002a1.843 1.843 0 0 0 1.584-2.778 1.842 1.842 0 0 0 .39-2.83c.306-.329.495-.77.495-1.254a1.843 1.843 0 0 0-1.841-1.842h-.67V1.842a.67.67 0 0 1 .67-.67h.669v.67a1.84 1.84 0 0 0 1.841 1.84h3.766a1.84 1.84 0 0 0 1.84-1.84v-.67h.67c.369 0 .67.3.67.67V5.02h-3.18a.586.586 0 0 0-.586.586 3.728 3.728 0 0 0 3.724 3.724h.041v8.828zm5.021-3.723h-1.297a.586.586 0 0 0-.586.586c0 .715-.582 1.297-1.297 1.297h-.669V8.745a.586.586 0 0 0-.586-.586h-.627a2.557 2.557 0 0 1-2.485-1.966h4.367c.717 0 1.297.58 1.297 1.297V10c0 .324.263.586.586.586h1.297v3.849z"/><path d="M10 16.316H7.49a.586.586 0 1 0 0 1.172H10a.586.586 0 0 0 0-1.172z"/></svg>