<svg width="88" height="88" fill="none" xmlns="http://www.w3.org/2000/svg"><rect width="88" height="88" rx="44" fill="url(#paint0_radial)"/><path d="M37.175 29.052c-12.252 0-22.162 5.793-22.162 12.986 0 3.047 1.792 5.843 4.83 8.09-1.494-1.847-2.34-3.895-2.34-6.092 0-7.442 9.71-13.486 21.663-13.486 7.72 0 14.492 2.498 18.327 6.293-3.436-4.595-11.255-7.791-20.319-7.791z" fill="#97C24B"/><path d="M35.228 45.714c.901 0 1.627-.19 2.176-.569.638-.419.956-1.027.956-1.825 0-1.475-.483-2.841-1.45-4.098-.968-1.256-2.21-2.203-3.726-2.841-1.055-.439-2.231-.658-3.528-.658-2.615 0-4.764.847-6.446 2.542-1.681 1.695-2.522 3.74-2.522 6.132 0 2.413.879 4.442 2.638 6.088 1.758 1.645 3.956 2.468 6.594 2.468 1.406 0 2.758-.2 4.055-.599 1.538-.458 2.66-1.126 3.363-2.004.396-.479.594-.957.594-1.436 0-1.256-.704-1.884-2.11-1.884-.309 0-1.1.264-2.374.793-1.275.528-2.363.792-3.265.792-1.077 0-1.989-.249-2.736-.748-.748-.498-1.176-1.216-1.286-2.153h9.067zm-7.913-5.25c.638-.528 1.429-.793 2.374-.793.923 0 1.709.27 2.358.808a2.877 2.877 0 0 1 1.071 2.064h-7.023c.176-.857.583-1.55 1.22-2.08zm14.01 9.972c1.626 1.655 3.78 2.482 6.462 2.482 1.605 0 2.946-.239 4.023-.718 1.494-.677 2.242-1.505 2.242-2.483 0-.578-.193-1.071-.577-1.48-.385-.408-.885-.613-1.5-.613-.418 0-.946.12-1.583.359s-1.33.359-2.077.359c-1.275 0-2.264-.399-2.967-1.197-.616-.718-.923-1.675-.923-2.871 0-1.137.297-2.084.89-2.842.66-.838 1.593-1.257 2.803-1.257.746 0 1.455.125 2.126.374.67.25 1.214.374 1.632.374.638 0 1.165-.2 1.583-.598.417-.399.626-.887.626-1.466 0-1.117-.725-1.954-2.176-2.513-1.077-.398-2.34-.598-3.791-.598-2.77 0-4.99.803-6.66 2.408-1.672 1.606-2.506 3.675-2.506 6.208 0 2.452.79 4.476 2.373 6.072zm15.367.022C58.406 52.153 60.593 53 63.253 53c2.682 0 4.868-.837 6.561-2.513 1.627-1.635 2.44-3.679 2.44-6.132 0-2.472-.824-4.536-2.473-6.192-1.648-1.655-3.824-2.483-6.528-2.483-2.66 0-4.83.833-6.511 2.498-1.682 1.665-2.523 3.724-2.523 6.177 0 2.433.824 4.467 2.473 6.103zm3.857-8.915c.638-.857 1.538-1.286 2.704-1.286 1.142 0 2.032.439 2.67 1.316.572.758.857 1.675.857 2.752 0 1.117-.275 2.044-.824 2.782-.638.877-1.538 1.316-2.703 1.316-1.144 0-2.034-.438-2.671-1.316-.572-.758-.857-1.685-.857-2.782s.274-2.024.824-2.782z" fill="#fff"/><defs><radialGradient id="paint0_radial" cx="0" cy="0" r="1" gradientUnits="userSpaceOnUse" gradientTransform="rotate(45) scale(124.451)"><stop stop-color="#367ADC"/><stop offset="1" stop-color="#0E4595"/></radialGradient></defs></svg>