<svg width="200" height="200" fill="none" xmlns="http://www.w3.org/2000/svg"><path d="M200 0H0v200h200V0z" fill="url(#paint0_radial)"/><path d="M47.358 100.396l52.278 12.058V70.462c1.136 1.454 15.274 20.956 31.687 35.97L152 100.396c-44.707-31.368-51.453-67.844-52.27-73.769l-.095-.842c-6.97 43.983-49.31 72.45-52.277 74.611z" fill="url(#paint1_linear)"/><path d="M125.292 100.355c-16.409 14.993-24.524 28.681-25.656 30.134v-30.124H47.381c2.956 2.147 45.294 30.606 52.268 74.576l.094-.833c.817-5.93 7.558-42.392 52.252-73.744h-26.703v-.009z" fill="url(#paint2_linear)"/><defs><radialGradient id="paint0_radial" cx="0" cy="0" r="1" gradientUnits="userSpaceOnUse" gradientTransform="rotate(45) scale(282.843)"><stop stop-color="#8D8D8D"/><stop offset="1" stop-color="#0D0D0D"/></radialGradient><linearGradient id="paint1_linear" x1="58.156" y1="54.127" x2="149.071" y2="107.238" gradientUnits="userSpaceOnUse"><stop offset=".273" stop-color="#EE845A"/><stop offset=".436" stop-color="#E8490D"/><stop offset=".703" stop-color="#E8490D"/><stop offset=".946" stop-color="#EE845A"/></linearGradient><linearGradient id="paint2_linear" x1="21.088" y1="137.647" x2="194.793" y2="137.647" gradientUnits="userSpaceOnUse"><stop offset=".115" stop-color="#A34333"/><stop offset=".418" stop-color="#E8490D"/><stop offset=".63" stop-color="#E8490D"/><stop offset="1" stop-color="#A34333"/></linearGradient></defs></svg>