<svg width="200" height="200" fill="none" xmlns="http://www.w3.org/2000/svg"><path d="M200 0H0v200h200V0z" fill="#383D46"/><path d="M100 176c41.974 0 76-34.026 76-76s-34.026-76-76-76-76 34.026-76 76 34.026 76 76 76z" fill="#006DB6"/><path d="M99.972 157.401c-31.635 0-57.386-25.751-57.386-57.386s25.75-57.386 57.386-57.386c31.635 0 57.386 25.75 57.386 57.386 0 31.635-25.693 57.386-57.386 57.386zm0-112.5c-30.353 0-55.056 24.702-55.056 55.056 0 30.353 24.703 55.113 55.056 55.113 30.353 0 55.055-24.702 55.055-55.055 0-30.353-24.644-55.114-55.055-55.114z" fill="#231F20"/><path d="M100.002 151.409c28.394 0 51.411-23.017 51.411-51.411 0-28.394-23.017-51.412-51.411-51.412-28.394 0-51.412 23.018-51.412 51.412s23.018 51.411 51.412 51.411z" fill="#080202"/><path d="M85.43 56.607s.117 13.282-.651 15.798c-.769 2.574-7.154 10.59 3.133 20.77 0 0-7.095-12.871 1.183-20.01 8.277-7.138 17.618-5.85 21.934.936 4.316 6.788 1.951 15.389-3.843 19.426-5.794 4.037-11.529 3.861-11.529 3.861s11.943 2.75 18.151-6.67c6.267-9.478 1.064-18.664-1.833-21.473-2.66-2.574-11.943-9.42-23.944-.292 0 0 2.128-12.755 11.41-19.25L85.43 56.607z" fill="#fff"/><path d="M93.535 98.827s-6.969-10.41-20.375-5.176c-13.405 5.234-11.457 21.574-5.315 27.04 6.142 5.467 17.835 8.083 24.922-.697 7.146-8.839-.827-19.888-9.685-15.352 0 0 8.858-.233 9.213 6.28.354 6.513-6.91 12.503-15.65 10.409-8.74-2.093-12.225-14.48-7.087-20.644 4.016-4.71 10.807-8.257 23.977-1.86zm14.462-.61s5.921-5.548 15.616-4.861c10.799.8 15.211 13.038 12.482 21.158-2.728 8.121-10.682 10.866-16.313 11.152-5.632.286-15.385-5.49-18.346-10.008 0 0-.58 19.157 8.767 29.051H89.941s12.192-14.869 9.58-40.66c0 0 2.902 9.207 8.011 12.924 5.109 3.718 9.811 6.234 17.997 3.775s8.767-15.326 5.399-19.215c-3.309-3.717-6.618-7.491-22.931-3.317z" fill="#fff"/><path d="M26.001 117.882h10.293V81H26.287A80.45 80.45 0 0 0 24 100.063c0 6.098.686 12.077 2.001 17.819zm20.35-72.459l5.471 8.752 31.412-18.299-5.294-8.524a79.544 79.544 0 0 0-17.47 7.501c-5.236 3.069-9.942 6.592-14.118 10.57zm73.133-19.189l-4.953 9.415 32.047 17.409 4.836-9.119c-4.545-4.204-9.731-7.994-15.441-11.073a72.36 72.36 0 0 0-16.489-6.632zM174 82.117h-10.293V119h10.007a80.444 80.444 0 0 0 2.287-19.063c0-6.098-.686-12.136-2.001-17.82zm-21.469 72.625l-5.336-8.922-31.547 18.132 5.219 8.692c5.981-1.669 11.845-4.145 17.474-7.368 5.218-3.051 9.968-6.562 14.19-10.534zm-73.273 17.901l5.093-8.792-31.906-16.913-4.976 8.512c4.508 4.088 9.66 7.673 15.338 10.697a78.827 78.827 0 0 0 16.45 6.496z" fill="#080202"/></svg>