<svg width="30" height="30" fill="none" xmlns="http://www.w3.org/2000/svg">
  <g clip-path="url(#yandex_money-color-30px__clip0)">
    <path d="M28 0H2a2 2 0 00-2 2v26a2 2 0 002 2h26a2 2 0 002-2V2a2 2 0 00-2-2z" fill="#000"/>
    <path d="M19.668 11.245c.591-.009 1.184 0 1.775-.018.246-.01.346.055.346.334-.009 3.363-.009 6.725 0 10.088 0 .39-.227.316-.446.316h-9.408c-.755 0-1.511.01-2.276 0-.893-.01-1.43-.558-1.44-1.477 0-2.564.01-5.118-.008-7.682-.01-.855.282-1.551.874-2.146.72-.715 1.548-1.282 2.331-1.914 1.922-1.542 3.853-3.093 5.774-4.644.11-.084.219-.158.401-.297v7.385c-.009 1.31-.018 2.619-.009 3.929 0 .325-.1.53-.373.715-2.213 1.514-4.417 3.056-6.621 4.589-.119.083-.283.12-.32.325.065-.01.128 0 .174-.019 2.96-.984 5.91-1.969 8.87-2.935.283-.093.355-.242.355-.53 0-2.015.01-4.022 0-6.019zm-3.871-.111c-.01-.539-.364-.818-.874-.688-.61.158-1.175.827-1.22 1.459-.037.539.354.882.865.77.646-.139 1.229-.882 1.229-1.541z" fill="#FEC901"/>
    <path d="M19.668 11.26c0 2.007-.009 4.004.01 6.01 0 .288-.073.437-.356.53-2.96.975-5.91 1.96-8.87 2.935-.055.019-.11.01-.173.019.027-.214.2-.242.319-.325 2.204-1.533 4.407-3.066 6.62-4.59.274-.185.374-.39.374-.714-.01-1.31.009-2.62.009-3.93.692.102 1.384-.009 2.067.065z" fill="#DA0"/>
    <path d="M15.797 11.137c.009.66-.583 1.403-1.22 1.542-.51.112-.902-.232-.866-.77.037-.633.601-1.31 1.22-1.46.502-.12.857.159.866.688z" fill="#030303"/>
  </g>
  <defs>
    <clipPath id="yandex_money-color-30px__clip0">
      <path fill="#fff" d="M0 0h30v30H0z"/>
    </clipPath>
  </defs>
</svg>
