<svg width="16" height="16" fill="none" xmlns="http://www.w3.org/2000/svg"><path d="M15.623 11.93v-.7c0-.285-.05-.565-.143-.832a2.752 2.752 0 0 0-.864-1.218l-1.805-1.476v2.433l.018.016 1.607 1.413-.735.685-.139.128-.75-.66-.628-.551-.627-.551-.627-.551-1.39-1.224c-.13.177-.25.402-.272.648-.024.29.095.568.364.853l.014.016a30.306 30.306 0 0 0 .869.87l.059.055a.074.074 0 0 1 .007.007l.063.06.137.126.126.114a9.484 9.484 0 0 0 .506.42.306.306 0 0 0 .007.005h.001l.014.01.012.01.015.008.53.316-.392.465c-.05.067-.716 1 .004 1.95l-1.034.642c-.842-1.111-.553-2.19-.27-2.782a13.7 13.7 0 0 1-.658-.59h-7.3V1.531L0 1.912l2.224 11.227 4.726-.79v1.49c-.001.126.02 1.369 1.114 2.16H16l-.377-4.07z" fill="#AAA"/><path d="M9 5.047c-.136-.224-.391-.441-.638-.65l-.153-.132c-.173-.15-.352-.298-.524-.441a12.21 12.21 0 0 1-.113-.094l-.113.094c-.173.143-.352.29-.525.44l-.153.132c-.247.21-.502.427-.637.65-.083.138-.15.349 0 .571.121.179.258.256.459.257h.004a.754.754 0 0 0 .372-.1l.593-.336.59.335a.746.746 0 0 0 .38.101c.199 0 .336-.078.457-.257.151-.222.083-.433 0-.57z" fill="#AAA"/><path d="M3.606 0v10.91h4.931a2.452 2.452 0 0 1-.352-.566 1.914 1.914 0 0 1-.158-.952 2.04 2.04 0 0 1 .101-.472c.26-.77.9-1.27.986-1.335l.434-.325 2.018 1.775V0h-7.96zm6.476 6.21c-.136.2-.302.366-.491.493a1.84 1.84 0 0 1-1.026.305H8.55c-.114 0-.227-.009-.338-.028v.41H6.959v-.409a2.046 2.046 0 0 1-.338.028h-.014a1.795 1.795 0 0 1-1.518-.8c-.352-.519-.363-1.157-.031-1.706l.057-.09c.104-.155.226-.294.355-.423.153-.153.314-.29.466-.42l.144-.123c.184-.16.368-.313.547-.46.173-.143.351-.29.525-.44l.434-.378.434.377c.173.15.352.298.525.441.178.147.363.3.547.46l.144.123c.303.258.647.55.878.933.332.55.32 1.187-.032 1.706z" fill="#AAA"/></svg>