<svg width="26" height="20" fill="none" xmlns="http://www.w3.org/2000/svg"><path d="M25.238 9.23h-2.285a.766.766 0 0 0-.762.77c0 .425.341.769.762.769h2.285c.42 0 .762-.345.762-.77a.765.765 0 0 0-.762-.769zm-.985 4.841l-1.523-1.538a.757.757 0 0 0-1.078 0 .774.774 0 0 0 0 1.088l1.524 1.538c.297.3.78.3 1.077 0a.775.775 0 0 0 0-1.088zm0-9.23a.757.757 0 0 0-1.077 0l-1.524 1.538a.775.775 0 0 0 0 1.088c.298.3.78.3 1.078 0l1.523-1.539a.775.775 0 0 0 0-1.088zM17.621 0a2.296 2.296 0 0 0-2.26 1.963l-.694.702c-1.21 1.221-2.99 1.95-4.765 1.95h-4.57a2.29 2.29 0 0 0-2.154 1.539h-.131C1.367 6.154 0 7.534 0 9.23c0 1.696 1.367 3.077 3.047 3.077h.13c.23.654.745 1.174 1.393 1.406v3.978C4.57 18.965 5.595 20 6.856 20c1.26 0 2.285-1.035 2.285-2.308v-3.846h.761c1.774 0 3.555.73 4.765 1.95l.694.702a2.296 2.296 0 0 0 2.26 1.963c1.26 0 2.285-1.035 2.285-2.307V2.308C19.906 1.035 18.881 0 17.621 0zM3.047 10.77c-.84 0-1.524-.69-1.524-1.54 0-.848.684-1.538 1.524-1.538v3.077zm4.57 6.922c0 .424-.342.77-.762.77a.766.766 0 0 1-.761-.77v-3.846h1.523v3.846zm1.524-5.384H5.332a.766.766 0 0 1-.762-.77V6.924c0-.424.342-.77.762-.77h3.809v6.155zm6.195 2.017a8.284 8.284 0 0 0-4.677-1.982V6.119a8.283 8.283 0 0 0 4.677-1.983v10.19zm3.047 1.829c0 .424-.342.77-.762.77a.766.766 0 0 1-.762-.77V2.308c0-.424.342-.77.762-.77s.762.346.762.77v13.846z" /></svg>