<svg fill="none" height="50" width="50" xmlns="http://www.w3.org/2000/svg" xmlns:xlink="http://www.w3.org/1999/xlink"><mask id="a" height="43" maskUnits="userSpaceOnUse" width="50" x="0" y="1"><path clip-rule="evenodd" d="m0 1.656h50v41.806h-50z" fill="#fff" fill-rule="evenodd"/></mask><mask id="b" height="50" maskUnits="userSpaceOnUse" width="50" x="0" y="0"><path clip-rule="evenodd" d="m0 50h50v-50h-50z" fill="#fff" fill-rule="evenodd"/></mask><rect fill="#008be2" fill-opacity=".1" height="50" rx="25" transform="matrix(-1 0 0 -1 100 100)" width="50" x="50" y="50"/><g mask="url(#a)"><path clip-rule="evenodd" d="m48.388 22.124a4.07 4.07 0 0 1 -3.142-3.188h3.142zm-.002 14.864c-2.472.365-4.412 2.333-4.772 4.838h-37.238c-.36-2.502-2.296-4.468-4.763-4.838v-13.211c2.473-.366 4.414-2.335 4.773-4.841h37.238c.358 2.507 2.3 4.476 4.773 4.84l-.01 13.212zm.002 4.84h-3.142a4.06 4.06 0 0 1 3.142-3.185zm-46.775 0v-3.185a4.06 4.06 0 0 1 3.143 3.185zm0-22.892h3.143a4.07 4.07 0 0 1 -3.143 3.188zm46.774-1.632v-10.972l.407.234.8-1.417-6.045-3.493-6.046 3.493.8 1.417.408-.234v7.7h1.611v-8.635l3.227-1.867 3.223 1.867v11.92h-43.545v-10.264l3.223-1.868 3.23 1.868v5.364h1.61v-4.45l.408.236.801-1.418-6.047-3.503-6.046 3.503.8 1.418.407-.236v9.337h-1.613v26.158h50v-26.159h-1.613z" fill="#008be2" fill-rule="evenodd"/></g><g clip-rule="evenodd" fill="#008be2" fill-rule="evenodd"><path d="m24.998 38.556c-4.454 0-8.064-3.66-8.064-8.175s3.61-8.176 8.064-8.176c4.455 0 8.065 3.66 8.065 8.176-.003 4.513-3.612 8.17-8.065 8.175zm0-17.986c-5.345 0-9.678 4.393-9.678 9.811s4.333 9.81 9.678 9.81c5.346 0 9.678-4.392 9.678-9.81-.004-5.416-4.334-9.805-9.678-9.81z"/><g mask="url(#b)"><path d="m0 46.733h50v-1.637h-50zm0 3.267h50v-1.636h-50zm42.742-34.334h1.614v-1.636h-1.614zm-22.58-10.82v9.186h1.615v-10.164l3.223-1.961 3.227 1.96v10.166h1.613v-9.185l2.81 1.712.833-1.402-8.483-5.158-8.477 5.158.83 1.402 2.81-1.712zm-14.517 10.822h1.613v-8.175h-1.613v8.174zm37.097-3.272h1.614v-6.54h-1.614z"/><path d="m24.195 15.664h1.614v-11.444h-1.614v11.443zm-14.515.003h1.613v-1.637h-1.613v1.636zm16.532 9.829h-.405v-1.656h-1.61v1.655h-.406c-1.559.002-2.821 1.283-2.82 2.862 0 1.58 1.262 2.86 2.82 2.86h2.421c.668 0 1.208.549 1.208 1.226s-.54 1.224-1.208 1.224h-2.421a1.216 1.216 0 0 1 -1.208-1.224v-.424h-1.613v.407c.002 1.579 1.264 2.858 2.822 2.86h.406v1.636h1.61v-1.636h.405c1.558 0 2.821-1.281 2.821-2.861s-1.263-2.859-2.82-2.86h-2.424a1.222 1.222 0 0 1 -1.147-1.29 1.22 1.22 0 0 1 1.147-1.163h2.421a1.22 1.22 0 0 1 1.208 1.227v.408h1.614v-.408c-.01-1.572-1.27-2.841-2.822-2.843z"/></g></g></svg>