<svg width="16" height="16" viewBox="0 0 16 16" fill="none" xmlns="http://www.w3.org/2000/svg">
<path d="M15.5312 0H0.46875C0.209839 0 0 0.209839 0 0.46875V1.90625H16V0.46875C16 0.209839 15.7902 0 15.5312 0Z" fill="#C6C7CA"/>
<path d="M6.34338 13.625H9.65662C9.82092 13.3389 10.0576 13.1022 10.3438 12.9379V5.87463C10.0576 5.71021 9.82092 5.47363 9.65662 5.1875H6.34338C6.17896 5.47363 5.94238 5.71033 5.65625 5.87463V12.9379C5.94238 13.1022 6.17908 13.3389 6.34338 13.625ZM8 12.6875C7.74109 12.6875 7.53125 12.4777 7.53125 12.2188C7.53125 11.9598 7.74109 11.75 8 11.75C8.25891 11.75 8.46875 11.9598 8.46875 12.2188C8.46875 12.4777 8.25891 12.6875 8 12.6875ZM8 6.125C8.25891 6.125 8.46875 6.33484 8.46875 6.59375C8.46875 6.85266 8.25891 7.0625 8 7.0625C7.74109 7.0625 7.53125 6.85266 7.53125 6.59375C7.53125 6.33484 7.74109 6.125 8 6.125ZM8 8C8.77539 8 9.40625 8.63086 9.40625 9.40625C9.40625 10.1816 8.77539 10.8125 8 10.8125C7.22461 10.8125 6.59375 10.1816 6.59375 9.40625C6.59375 8.63086 7.22461 8 8 8Z" fill="#C6C7CA"/>
<path d="M8 9.875C8.25867 9.875 8.46875 9.66492 8.46875 9.40625C8.46875 9.14758 8.25867 8.9375 8 8.9375C7.74133 8.9375 7.53125 9.14758 7.53125 9.40625C7.53125 9.66492 7.74133 9.875 8 9.875Z" fill="#C6C7CA"/>
<path d="M0 4.25C0 4.50891 0.209839 4.71875 0.46875 4.71875H2.375V2.84375H0V4.25Z" fill="#C6C7CA"/>
<path d="M13.625 4.71875H15.5312C15.7902 4.71875 16 4.50891 16 4.25V2.84375H13.625V4.71875Z" fill="#C6C7CA"/>
<path d="M3.3125 15.5312C3.3125 15.7902 3.52234 16 3.78125 16H12.2188C12.4777 16 12.6875 15.7902 12.6875 15.5312V2.84375H3.3125V15.5312ZM4.71875 5.57043C4.71875 5.3772 4.87537 5.19421 5.05579 5.12488C5.30103 5.03076 5.49963 4.83228 5.59375 4.58704C5.66296 4.40662 5.85168 4.25 6.04492 4.25H9.95508C10.1483 4.25 10.337 4.40662 10.4064 4.58704C10.5005 4.83228 10.699 5.03076 10.9442 5.12488C11.1246 5.19421 11.2812 5.3772 11.2812 5.57043V13.2419C11.2812 13.4352 11.1246 13.6183 10.9442 13.6875C10.699 13.7816 10.5005 13.9802 10.4064 14.2255C10.337 14.4058 10.1483 14.5625 9.95508 14.5625H6.04492C5.85168 14.5625 5.66296 14.4059 5.59375 14.2255C5.49963 13.9802 5.30103 13.7816 5.05579 13.6875C4.87549 13.6183 4.71875 13.4353 4.71875 13.2419C4.71875 11.8328 4.71875 6.97974 4.71875 5.57043Z" fill="#C6C7CA"/>
</svg>
