<svg width="48" height="48" viewBox="0 0 48 48" fill="none" xmlns="http://www.w3.org/2000/svg">
<path d="M32.8514 39.1565L29.9959 37.9572L30.385 34.8847L29.0324 32.5417L26.1769 31.3425L26.566 28.2699L24.2563 24.2694C26.7912 21.0111 27.2507 16.4131 25.0594 12.6176C24.8393 12.2365 24.5985 11.8749 24.3398 11.5326V7.64541C24.3399 3.42975 20.9102 0 16.6945 0C12.6829 0 9.38541 3.10641 9.07537 7.03978C3.95334 7.71534 0 12.098 0 17.4045C0 21.7871 2.69691 25.5393 6.52134 27.0938V44.5365L10.0183 48H14.3895V44.2838L12.5162 41.8175L14.3895 39.3511V36.6458L12.5162 34.1794L14.3895 31.713V27.0938C18.2139 25.5393 20.9108 21.7871 20.9108 17.4045C20.9108 12.1203 16.9905 7.75238 11.8998 7.04888C12.1948 4.66463 14.2318 2.8125 16.6945 2.8125C19.3594 2.8125 21.5274 4.98047 21.5274 7.64541V8.96681C21.0359 8.66175 20.5219 8.39831 19.9905 8.17959C22.399 10.667 23.7234 13.9338 23.7234 17.4045C23.7234 20.0957 22.9213 22.6877 21.4039 24.9004C20.3967 26.369 19.1203 27.6056 17.646 28.5562L26.1637 43.3093L30.9407 44.5893L34.7262 42.4037L32.8514 39.1565ZM13.2626 15.0853C13.2626 16.6357 12.0058 17.8925 10.4555 17.8925C8.90512 17.8925 7.64831 16.6357 7.64831 15.0853C7.64831 13.535 8.90512 12.2782 10.4555 12.2782C12.0058 12.2782 13.2626 13.535 13.2626 15.0853Z" fill="white" fill-opacity="0.1"/>
<path d="M44.7528 27.44L41.6802 27.8292L40.481 24.9737L38.1382 23.621L35.0655 24.0102L33.8663 21.1547L29.8658 18.8449C30.3495 15.3499 29.03 11.7667 26.2671 9.43066C26.7194 9.98491 27.1302 10.5794 27.4952 11.2115C28.8408 13.5422 29.4422 16.188 29.2344 18.8629C29.0828 20.8144 28.5106 22.6867 27.5611 24.3684L29.0019 26.8639L29.4754 27.684L29.473 27.7035L41.0376 34.3803L45.8145 33.1003L48 29.3149L44.7528 27.44Z" fill="white" fill-opacity="0.1"/>
</svg>
