<svg width="200" height="200" viewBox="0 0 200 200" fill="none" xmlns="http://www.w3.org/2000/svg">
<path d="M100 200C44.8 200 0 155.2 0 100C0 44.8 44.8 0 100 0C155.2 0 200 44.8 200 100C200 155.2 155.2 200 100 200Z" fill="#BBBBBB"/>
<path d="M44.0969 122H70.9769V110.8H56.3369V65.36H44.0969V122ZM92.1075 76.56C81.8675 76.56 74.1075 86.64 74.1075 100C74.1075 113.2 81.8675 123.28 92.0275 123.28C102.268 123.28 110.108 113.12 110.108 99.92C110.108 86.64 102.348 76.56 92.1075 76.56ZM92.0275 87.36C96.3475 87.36 98.8275 92 98.8275 99.92C98.8275 107.68 96.2675 112.4 92.1075 112.4C87.7875 112.4 85.3075 107.76 85.3075 99.68C85.3075 92.08 87.8675 87.36 92.0275 87.36ZM127.593 124L136.073 101.76L144.473 124L161.113 77.84H149.913L143.993 96.96L135.913 75.84L128.233 96.96L121.673 77.84H109.912L127.593 124Z" fill="#FFFFFF"/>
</svg>
