<svg width="90" height="20" fill="none" xmlns="http://www.w3.org/2000/svg"><path d="M52.259 9.24c.127-.167.244-.334.377-.496 1.066-1.304 2.903-1.32 3.963-.791.672.334 1.043.914 1.254 1.61.145.474.211.965.211 1.455 0 1.829 0 3.657.006 5.485 0 .217-.056.267-.272.24-1.016-.128-1.748-.976-1.754-2.074-.006-.975 0-1.95-.006-2.932 0-.462-.06-.914-.2-1.354-.466-1.438-2.07-1.338-2.775-.647-.666.652-.865 1.455-.865 2.347 0 1.46-.006 2.92.005 4.381 0 .229-.06.301-.294.29a21.596 21.596 0 0 0-1.47 0c-.223.005-.278-.062-.273-.279.006-3.038.006-6.075.006-9.119 0-.602-.006-1.204 0-1.806.006-1.03.827-1.9 1.848-1.99.189-.016.178.084.178.207v5.451c.022.011.044.017.06.022zm-21.13 5.1c-.022.792-.316 1.427-.882 1.934-.394.351-.86.563-1.393.624-1.238.145-2.47.129-3.635-.35-2.032-.837-3.13-2.414-3.464-4.543-.216-1.4-.133-2.793.433-4.103.927-2.135 2.559-3.383 4.851-3.74.716-.111 1.443-.145 2.159.006 1.038.223 1.86 1.204 1.926 2.263.006.055.011.14-.022.167-.061.05-.122-.022-.178-.05a5.36 5.36 0 0 0-3.73-.513c-1.798.39-3.08 1.85-3.307 3.729-.117.98-.095 1.956.294 2.882.627 1.51 1.781 2.335 3.402 2.48 1.204.112 2.353-.1 3.408-.725.039-.027.077-.033.139-.06zm29.994-1.246c0-1.137-.006-2.269.005-3.406 0-.195-.05-.262-.25-.256-.338.016-.682-.011-1.02.01-.234.012-.262-.094-.234-.283.089-.658.622-1.216 1.277-1.294.216-.022.227-.111.227-.284.011-.619-.055-1.237.061-1.85.239-1.26 1.271-2.18 2.598-2.336a4.768 4.768 0 0 1 1.515.056c.166.033.255.1.25.295-.017.407-.012.82-.006 1.227 0 .161 0 .256-.21.156-.34-.168-.711-.173-1.078-.117-.627.094-1.004.518-1.087 1.226-.056.48-.017.964-.028 1.45-.006.166.1.16.216.16.533 0 1.066.012 1.599-.005.25-.011.272.09.227.296-.155.78-.782 1.293-1.604 1.298-.422.006-.422.006-.422.424 0 2.196-.005 4.386.006 6.583 0 .262-.078.323-.322.312a20.949 20.949 0 0 0-1.449 0c-.227.01-.277-.073-.271-.285.005-1.125 0-2.251 0-3.377zm-19.137 1.52c.433.3.86.54 1.338.674a4.027 4.027 0 0 0 2.025.073c.617-.134.933-.49.922-1.01-.006-.289-.139-.512-.344-.69-.245-.212-.528-.346-.827-.457-.572-.212-1.144-.413-1.682-.697-1.16-.608-1.648-1.566-1.388-2.76.178-.796.716-1.303 1.416-1.65a4.627 4.627 0 0 1 2.547-.45c.977.1 1.81 1.03 1.815 2.017 0 .023-.011.045-.022.09-.483-.302-.983-.513-1.538-.58-.566-.067-1.132-.084-1.664.173-.478.234-.678.63-.567 1.098.067.261.239.429.455.568.311.2.661.312 1.005.435.622.217 1.216.49 1.776.847 1.36.88 1.388 2.988-.011 3.93-.605.407-1.276.596-1.987.68-.522.061-1.043.094-1.565-.045-1.01-.256-1.776-1.248-1.704-2.246zm26.662-5.089c.228-.401.422-.797.733-1.12.6-.624 1.32-.836 2.159-.647.166.04.255.106.25.301-.017.508-.006 1.02-.006 1.528 0 .106.005.178-.15.106-1.055-.469-2.042-.112-2.592.925-.3.568-.394 1.181-.4 1.817-.005 1.354-.005 2.703.006 4.058 0 .2-.044.278-.26.267a29.587 29.587 0 0 0-1.572 0c-.15 0-.205-.044-.205-.2.006-2.252-.01-4.51.011-6.762.006-.947.683-1.71 1.61-1.911.388-.084.41-.067.41.323.006.44.006.875.006 1.315zm11.783 1.116c-.26-1.154-.8-2.118-1.91-2.631-1.709-.791-4.284-.48-5.5 1.912-.804 1.583-.749 3.25-.066 4.871.439 1.032 1.249 1.69 2.326 2.002a5.2 5.2 0 0 0 1.604.183c.949-.033 1.87-.167 2.73-.607.189-.1.289-.206.272-.44-.022-.368-.005-.736-.01-1.104 0-.067.044-.167-.04-.206-.06-.028-.116.044-.172.083a4.417 4.417 0 0 1-2.553.72c-1.487-.034-2.464-.915-2.58-2.32-.017-.194.038-.24.221-.24.922.006 1.849.006 2.77.006h2.82c.11 0 .216.017.216-.156 0-.702.028-1.393-.128-2.073zm-2.192.775h-3.513c-.095 0-.206.028-.183-.145.133-.864.682-1.79 1.598-2.057 1.276-.368 2.314.401 2.447 1.806.04.396.04.396-.35.396zm11.594-.898c-.3-1.188-.9-2.157-2.087-2.603-2.009-.753-4.362-.073-5.4 2.201-.622 1.36-.6 2.782-.161 4.18.433 1.389 1.388 2.247 2.814 2.56.721.16 1.454.133 2.187.044.671-.084 1.32-.251 1.92-.585.089-.05.2-.079.2-.229-.006-.49 0-.981 0-1.522-.1.062-.156.095-.211.134a4.426 4.426 0 0 1-2.531.714c-1.487-.023-2.43-.859-2.597-2.303-.023-.189.005-.261.222-.256.754.011 1.515.006 2.275.006h3.297c.105 0 .239.05.239-.15-.006-.736.016-1.472-.167-2.191zm-2.398.897H84.622c-.15 0-.306 0-.456.006-.15 0-.222-.011-.183-.201.122-.585.355-1.115.794-1.527.577-.546 1.27-.686 2.015-.452.721.223 1.049.803 1.193 1.505.133.67.122.67-.55.67zm-47.358-.437c0-.267-.017-.535-.05-.797-.156-1.27-.905-2.129-2.098-2.413-.733-.173-1.466-.162-2.21-.067-1.16.145-1.997.925-2.22 2.057-.027.144-.06.29-.022.44.034-.011.05-.011.067-.022.072-.056.144-.112.222-.168.8-.59 1.687-.891 2.68-.858 1.06.039 1.66.658 1.677 1.717 0 .122-.028.178-.161.195a97.17 97.17 0 0 0-1.782.25c-.71.101-1.42.174-2.08.491-.789.38-1.294.987-1.45 1.856-.172.976-.055 1.884.705 2.609.478.451 1.066.63 1.704.68 1.01.078 1.898-.19 2.587-.97.144-.162.266-.334.394-.507a.276.276 0 0 0 .066.011c0 .34.011.68-.005 1.02-.006.184.044.25.233.245.488-.01.982-.017 1.47 0 .212.006.267-.055.267-.267 0-1.829 0-3.662.006-5.502zm-1.954 2.001c.028.758-.172 1.46-.805 1.979-.577.474-1.243.58-1.948.357-.516-.167-.827-.613-.844-1.149-.016-.663.222-1.053.783-1.282.594-.24 1.232-.256 1.854-.362.238-.039.477-.061.716-.1.177-.034.272.005.244.212-.011.1 0 .206 0 .345z" fill="#fff"/><path d="M4.654 6.316l9.842 1.045s-.426 3.287-3.779 2.973c-3.353-.314-7.495-.799-7.495-.799l1.432-3.219z" fill="url(#paint0_linear)"/><path d="M11.82.04l10.115 1.072s-.437 3.378-3.88 3.059c-3.445-.32-7.712-.816-7.712-.816L11.82.039z" fill="url(#paint1_linear)"/><path d="M5.188 6.412s-.67-.052-.824 1.558c-.153 1.609-.801 8.788-.801 8.788S3.33 20.103 0 19.978L1.114 8.454s.517-2.802 4.074-2.043zm7.177-6.28s-.688-.05-.852 1.599c-.16 1.655-.824 9.04-.824 9.04s-.239 3.441-3.666 3.304L8.166 2.227c.005.006.545-2.87 4.2-2.094z" fill="#fff"/><defs><linearGradient id="paint0_linear" x1="3.221" y1="8.337" x2="14.494" y2="8.337" gradientUnits="userSpaceOnUse"><stop stop-color="#BBB"/><stop offset=".358" stop-color="#fff"/></linearGradient><linearGradient id="paint1_linear" x1="10.343" y1="2.117" x2="21.932" y2="2.117" gradientUnits="userSpaceOnUse"><stop stop-color="#BBB"/><stop offset=".497" stop-color="#fff"/></linearGradient></defs></svg>