<svg width="200" height="200" fill="none" xmlns="http://www.w3.org/2000/svg"><path d="M200 0H0v200h200V0z" fill="#1B1B1B"/><path d="M104.94 157.002a14269.84 14269.84 0 0 1-4.461-18.579c-.102 0-.205.025-.307.025v17.337c-1.538-.279-3.666.583-4.05-1.267-.283-4.411-.334-8.77-.693-13.181-3.282-.329-1.795 6.337-6.23 10.063-7.255 6.666-14.561-2.763-15.484-9.86-1.282-5.804-1.538-11.609.461-17.362.334-.989 0-2.231-.23-3.321-.18-.811.076-1.216.666-1.698 3.769-2.915 8.973-2.737 12.87.482 6.486 5.069 6.511 13.129 6.537 20.581 2.794-4.41.359-18.224.743-24.358-.333-2.611 3.64-2.053 5.435-2.966v15.817l.308.076c1.333-4.689 2.666-9.378 4.076-14.296 7.665 11.761 6.537 6.616-2.307 18.377-.641.76-.615 1.292-.077 2.129 2.794 4.207 5.512 8.44 8.281 12.648.384.608.538 1.064.051 1.698-1.82 2.433-3.589 4.917-5.589 7.655zm-16.664-18.934c-.41-3.65-.512-15.132-5.383-15.36-6.384.836-3.538 11.76-3.718 16.196.923 12.952 9.768 11.913 9.101-.836zm-28.584-6.086c1.384 7.705 2.717 15.284 4.127 23.116-2.871-.609-5.41-1.496-8.204-2.18-.692-.177-.948-.482-.974-1.217-.666-10.747-.923-21.392-1.922-32.139-.641.329-1.103.557-1.641.836-1.256-2.585-1.64-5.576-2.487-8.339-.077-.355.077-1.014.333-1.141 2.949-1.52 5.794-3.345 8.922-4.334 14.92-3.954 19.689 16.704 8.28 24.003-1.794 1.293-2.845 1.471-6.434 1.395zm1.974-19.036c-2.487.837-6.179 1.698-5.153 5.07 1.05 2.636.564 8.313 4.794 7.528 3.05-.786 5.845-4.512 5.896-7.833.18-3.244-2.948-3.954-5.537-4.765zm71.808 8.241c-.77.507-1.308.862-2.154 1.394-.308-2.382-.59-4.562-.795-6.742-.025-.203.487-.583.795-.659 5.973-2.028 13.767-2.382 15.946 4.892 1.589 5.196.974 11.609-3.64 15.183-.693.481-.821.938-.564 1.698 4.46 13.13 10.331 5.019 5.076 15.867-5.512-2.813-8.178-7.503-9.87-13.003-.077 4.106.205 8.212.461 12.319.179 2.332-3.179.963-4.615 1.47-1.051.101-1.435-.228-1.384-1.318.231-10.392.82-20.709.744-31.101zm4.255 4.639c0 1.318.051 2.61-.025 3.928-.103 1.496-.052 1.623 1.435 1.395 2.461-.533 3.948-3.017 4.128-5.349.179-2.332-1.487-4.435-3.641-4.866-2.922-.609-1.64 3.244-1.897 4.892z" fill="#F6001D"/><path d="M70.377 78.831c.385-4.131 2.461-8.06 1.666-12.09-.256-.836-.077-1.343.692-1.901 4.743-3.574 10.793-1.774 14.28 2.433 5.896 7.123 5.743 17.312 2.538 25.55-1.564 4.638-7.332 8.288-11.818 4.917-6.204-4.258-5.897-12.318-7.358-18.909zm15.972 5.02c-.257-4.64-.616-9.202-2.487-13.51-.923-2.688-5.102-3.042-6.281-.406-2.308 4.714-.872 10.037-.744 15.03-.128 4.259 3.897 13.409 8.204 6.793 1.077-2.458.872-5.272 1.308-7.908z" fill="#79BF00"/><path d="M125.86 115.711c.256 7.731.128 5.171-8.05 6.21-2.128.152-2.179.177-2.077 2.23.129 2.155.308 4.309.359 6.464.026 1.216.539 1.394 1.615 1.191 1.846-.355 3.692-.608 5.564-.836 1.692.304.948 3.092 1.384 4.359.128.837-.256 1.141-1.051 1.192-8.845.583-7.101-1.116-7.23 7.578 0 .786.282 1.141 1.103 1.217 3.999.405 7.973.938 11.972 1.293 1.154.101 1.41.481 1.282 1.571-.257 2.104-.41 4.208-.539 6.311-.076 1.09-.41 1.471-1.589 1.141a701.308 701.308 0 0 0-14.356-3.65c-.898-.228-1.128-.558-1.128-1.419-.026-8.694-.103-17.414-.154-26.107.077-3.828-2.487.76-2.205-6.388-.256-1.799 12.664-1.825 15.1-2.357z" fill="#F6001D"/><path d="M103.14 99.666c-1.794-.507-3.332-.963-4.87-1.394-2.051-.557-2-.557-2.103-2.661-.359-7.68-.948-15.335-1.256-22.99-.051-1.419-.23-1.546-1.794-1.064-2.615-8.745-2.897-6.134 5.511-10.29 11.383-2.916 15.203 12.267 6.871 18.452-2.128 2.382-6.127.076-5.435 2.788 1.077 5.804 2.128 11.304 3.076 17.16zm3.154-29.883c-.564-3.498-5.435-4.69-8.025-2.358-2.23 1.876-.076 4.892.206 7.224 2.179 5.298 7.998-.836 7.819-4.866zm39.864 31.478c-5.127-1.242-9.921-2.51-14.946-3.777-1.076-.253-1.512-.786-1.512-1.926.025-5.78 0-11.559-.051-17.363-.026-2.965-.129-5.906-.154-8.871 0-.837-.257-1.344-1.18-1.521-1.41-.71-.846-2.839-.948-4.132 0-.253.41-.71.666-.735 4.23-.481 8.486-.887 12.716-1.343 1.077-.177 1.359.558 1.333 1.47-.102 4.436.949 3.523-3.666 3.98-1.41.456-7.075-.305-6.563 1.672 1.308 10.342-2.512 9.657 8.358 7.883.205 1.597.436 3.093.615 4.563.103.735-.41.81-.974.81-1.82.432-7.742-1.038-7.409 1.674.359 1.647-1.026 7.705 1.256 7.452 4.179.456 8.409.785 12.562 1.47 1.461.304-.205 6.995-.103 8.694z" fill="#79BF00"/><path d="M127.957 91.379c-.256 2.89-.487 5.652-.718 8.567-5.563-1.343-10.844-3.22-16.305-4.867-1.179-.532-1.102-2.103-1.205-3.219-.435-2.636 2.333-.785 1.718-3.878-.256-8.567-.461-17.109-.743-25.676-.052-1.267.384-1.571 1.563-1.267 1.359.456 3.82.127 4.179 1.9-.154 5.78-.41 11.559-.589 17.313-.103 2.813-.154 5.652-.231 8.465-.026.989.743.938 1.41 1.04 3.64.582 7.357.735 10.921 1.622zm32.122-3.953c4.538 19.441 13.998-8.669 6.384-6.058a88.185 88.185 0 0 1-6.23 1.394c-6.87-.05-5.691-14.169-2.999-18.275 2.384-4.69 9.87-1.445 11.844 2.484.794 1.673-1.641 3.143-2.308 4.435-6.383-6.133-8.716-.963-7.844 5.627.717 3.524 5.409.584 7.768.634 11.356-.127 2.409 28.743-6.922 19.01-1.769-1.825-3.179-3.827-3.718-6.387-.538-2.028 2.949-2.079 4.025-2.864zM154.72 51c-.256 1.47.77 5.627-.871 5.906-.897.101-1.231.507-1.282 1.394-.103 1.064-.256 2.23-.538 3.219a304.094 304.094 0 0 1-4.564 3.447l-.461-.456c1.82-2.23 2.666-3.65 2.717-6.54.026-.33-.282-.887-.564-.988-.897-.38-1.025-1.04-.948-1.85-.462-5.982 1.82-3.346 6.511-4.132zM70.173 92.541c-3.974-.507-7.948-1.013-11.947-1.419-1.18-.127-1.513-.608-1.487-1.698-.051-9.657-.77-6.996 8.409-7.376-.77-7.807-.205-5.044-7.358-4.36-.846.152-1.23-.127-1.282-.938-.154-2.61-.333-5.221-.512-7.832-.052-.912.205-1.394 1.256-1.445 2-.1 3.999-.253 5.999-.481 3.589-.431 2.922.38 2.974-3.118-.077-.963.333-2.585-1.18-2.28-4.102.506-8.23.912-12.33 1.266-.693.051-1.257-.076-1.334-.963-1.487-10.595-13.254-12.191-20.868-6.463-2.871 1.42-2.871 1.42-2.025 4.512.538 1.951 1.076 3.878 1.64 5.88.667-.355 1.18-.608 1.82-.938 1.206 10.367 1.206 20.81 1.923 31.227.077 1.293.334 2.282 1.923 2.434 2.333.633 4.358 1.343 6.87 1.926a1857.014 1857.014 0 0 0-3.896-21.925c-.205-1.04.077-1.394 1.18-1.217 5.998.71 9.562-5.45 11.228-10.316 1.128 1.217 2.615.634 2.487 2.586.102 8.618.256 17.235.307 25.853 0 1.318.513 1.775 1.615 2.053 5.025 1.318 9.64 2.51 14.818 3.701.257-2.737.513-5.348.692-7.984 0-.203-.59-.634-.922-.685zm-29.406-21.29c-4.512 1.317-4.05-4.386-5.178-7.098-1.615-5.12 5.512-6.742 8.793-4.588 4.692 2.788 1.051 10.317-3.614 11.685z" fill="#79BF00"/></svg>