<svg viewBox="0 0 200 200" fill="none" xmlns="http://www.w3.org/2000/svg"><path d="M100 200C44.8 200 0 155.2 0 100S44.8 0 100 0s100 44.8 100 100-44.8 100-100 100z" fill="#BBB"/><path d="M33.042 121.999h12.24v-20.8h.56l8 20.8h13.2l-10.08-24.32c4.32-3.52 6.24-7.92 6.24-14.24 0-5.92-2.32-11.2-6.4-14.48-3.44-2.64-7.2-3.6-14.64-3.6h-9.12V122zm12.24-45.44c3.92.32 5.6 2.48 5.6 7.12 0 4.64-1.68 6.8-5.6 7.12V76.56zm57.632 0l-10.72 1.28c-2.64-.96-4.32-1.28-6.4-1.28-10.32 0-16.96 9.36-16.96 23.92 0 13.52 5.84 22.8 14.4 22.8 2.96 0 5.36-.96 8.48-3.44l.64 3.44 11.12-1.28c-.4-3.84-.56-7.36-.56-14.56v-30.88zm-11.76 33.2c-2.16 1.92-3.6 2.64-5.36 2.64-3.76 0-5.76-4.16-5.76-12 0-8.64 2.32-13.04 6.72-13.04 1.52 0 2.56.4 4.4 1.6v20.8zm15.516 12.24h30.88l1.36-10.64h-15.2l15.68-33.52h-28.72l-2 10.56h13.76L106.67 122zm32.344 0h30.88l1.36-10.64h-15.2l15.68-33.52h-28.72l-2 10.56h13.76l-15.76 33.6z" fill="#fff"/></svg>