<svg enable-background="new 0 0 200 200" viewBox="0 0 200 200" xmlns="http://www.w3.org/2000/svg" xmlns:xlink="http://www.w3.org/1999/xlink"><linearGradient id="a"><stop offset="0" stop-color="#946700"/><stop offset=".3156" stop-color="#573600"/><stop offset=".4721" stop-color="#ffcd57"/><stop offset=".6117" stop-color="#7e581b"/><stop offset=".824" stop-color="#92732b"/></linearGradient><linearGradient id="b" gradientUnits="userSpaceOnUse" x1="51.9993" x2="51.9993" xlink:href="#a" y1="153.8424" y2="28.3336"/><linearGradient id="c" gradientUnits="userSpaceOnUse" x1="86.9343" x2="86.9343" xlink:href="#a" y1="153.8424" y2="28.3336"/><linearGradient id="d" gradientUnits="userSpaceOnUse" x1="116.2771" x2="116.2771" xlink:href="#a" y1="153.8424" y2="28.3336"/><linearGradient id="e" gradientUnits="userSpaceOnUse" x1="155.0134" x2="155.0134" xlink:href="#a" y1="153.8424" y2="28.3336"/><path d="m0 0h200v200h-200z"/><path d="m59.35 125.09c-.83 0-1.5-.67-1.5-1.5v-3.12c0-.75.55-1.37 1.26-1.48v-3.82c-.72-.11-1.26-.73-1.26-1.48v-3.12c0-.83.67-1.5 1.5-1.5h7.99c2.06 0 3.56.21 4.61.65 1.14.48 1.99 1.17 2.55 2.05.55.87.83 1.83.83 2.86 0 1.25-.35 2.33-1.03 3.21-.65.84-1.51 1.45-2.57 1.82-.8.28-1.89.44-3.32.48.03.11.04.22.04.34v3.12c0 .83-.67 1.5-1.5 1.5h-7.6z"/><path d="m82.59 125.3c-2.56 0-4.69-.77-6.32-2.29-1.67-1.54-2.52-3.54-2.52-5.96 0-1.32.33-2.62.97-3.85.64-1.24 1.65-2.3 2.98-3.13.49-.3 1-.55 1.52-.73.49-.17 1.03-.3 1.6-.4.56-.09 1.16-.13 1.78-.13 2.75 0 4.95.85 6.52 2.53.75.8 1.34 1.69 1.73 2.64.4.97.6 2 .6 3.07 0 2.21-.81 4.16-2.42 5.79-1.62 1.63-3.78 2.46-6.44 2.46zm0-10.34c-.07.24-.19.82-.19 2.09 0 1.31.13 1.88.19 2.09.07-.25.19-.83.19-2.09 0-1.29-.12-1.87-.19-2.09z"/><path d="m100.18 125.09c-.24 0-.48-.06-.68-.16-.2.1-.43.16-.68.16h-7.06c-.83 0-1.5-.67-1.5-1.5v-3.12c0-.65.41-1.2.99-1.41v-3.96c-.59-.2-1.02-.76-1.02-1.42v-3.12c0-.83.67-1.5 1.5-1.5h7.08c.25 0 .49.06.69.17.21-.11.44-.17.69-.17h6.41c.83 0 1.5.67 1.5 1.5v3.12c0 .83-.67 1.5-1.5 1.5h-.42l-1.22 1.14 2.04 2.65c.78.05 1.4.7 1.4 1.5v3.12c0 .83-.67 1.5-1.5 1.5z"/><path d="m108.13 125.09c-.83 0-1.5-.67-1.5-1.5v-3.12c0-.66.42-1.22 1.01-1.42v-3.94c-.6-.2-1.03-.76-1.03-1.42v-3.12c0-.83.67-1.5 1.5-1.5h12.44c.83 0 1.5.67 1.5 1.5v4.17c0 .83-.67 1.5-1.5 1.5h-2.3v1.69h2.3c.83 0 1.5.67 1.5 1.5v4.17c0 .83-.67 1.5-1.5 1.5h-12.42z"/><path d="m133.01 125.09c-.55 0-1.06-.31-1.32-.79l-.63-1.18v.47c0 .83-.67 1.5-1.5 1.5h-7.08c-.83 0-1.5-.67-1.5-1.5v-3.12c0-.67.45-1.25 1.06-1.43v-3.92c-.61-.19-1.06-.76-1.06-1.43v-3.12c0-.83.67-1.5 1.5-1.5h7.08c.66 0 1.27.01 1.83.03.58.02 1.07.06 1.49.1.45.05.85.11 1.22.19 1.23.26 2.25.85 3.04 1.74.82.94 1.23 2.06 1.23 3.33 0 .96-.25 1.85-.76 2.64-.19.3-.41.56-.64.8l.64 1.07h.09c.83 0 1.5.67 1.5 1.5v3.12c0 .83-.67 1.5-1.5 1.5z"/><path d="m56.14 108.35c-.64 0-1.2-.4-1.42-1l-2.7-7.69-2.71 7.69c-.21.6-.78 1-1.42 1h-9.57c-.63 0-1.19-.39-1.41-.98l-8.2-22.39h-1.05c-.83 0-1.5-.67-1.5-1.5v-7.28c0-.83.67-1.5 1.5-1.5h15.75c.83 0 1.5.67 1.5 1.5v7.28c0 .83-.67 1.5-1.5 1.5h-.31l1.79 6.53 2.27-6.53h-.14c-.83 0-1.5-.67-1.5-1.5v-7.28c0-.83.67-1.5 1.5-1.5h13.24c.83 0 1.5.67 1.5 1.5v7.28c0 .83-.67 1.5-1.5 1.5h-.13l2.32 6.59 1.83-6.59h-.21c-.83 0-1.5-.67-1.5-1.5v-7.28c0-.83.67-1.5 1.5-1.5h12.26c.83 0 1.5.67 1.5 1.5v7.28c0 .83-.67 1.5-1.5 1.5h-1.05l-8.29 22.4c-.22.59-.78.98-1.41.98h-9.44z"/><path d="m78.27 108.09c-.83 0-1.5-.67-1.5-1.5v-7.28c0-.83.67-1.5 1.5-1.5h1.3v-12.83h-1.3c-.83 0-1.5-.67-1.5-1.5v-7.28c0-.83.67-1.5 1.5-1.5h17.33c.83 0 1.5.67 1.5 1.5v7.28c0 .83-.67 1.5-1.5 1.5h-1.27v12.84h1.27c.83 0 1.5.67 1.5 1.5v7.28c0 .83-.67 1.5-1.5 1.5h-17.33z"/><path d="m121.25 108.48c-.49 0-.95-.24-1.23-.64l-10.07-14.46v4.43h1.19c.83 0 1.5.67 1.5 1.5v7.28c0 .83-.67 1.5-1.5 1.5h-12.48c-.83 0-1.5-.67-1.5-1.5v-7.28c0-.83.67-1.5 1.5-1.5h1.17v-12.83h-1.17c-.83 0-1.5-.67-1.5-1.5v-7.28c0-.83.67-1.5 1.5-1.5h14.4c.49 0 .95.24 1.23.64l5.89 8.47c-.02-.11-.04-.22-.04-.33v-7.28c0-.83.67-1.5 1.5-1.5h12.26c.83 0 1.5.67 1.5 1.5v7.28c0 .83-.67 1.5-1.5 1.5h-1.14v22.01c0 .83-.67 1.5-1.5 1.5h-10.01zm1.36-21.18v-2.33h-.97c-.3 0-.59-.09-.82-.25z"/><path d="m137.7 108.09c-.83 0-1.5-.67-1.5-1.5v-7.28c0-.83.67-1.5 1.5-1.5h.88v-12.83h-.88c-.83 0-1.5-.67-1.5-1.5v-7.28c0-.83.67-1.5 1.5-1.5h14.55c3.4 0 6.23.21 8.41.64 2.3.45 4.5 1.37 6.52 2.75 2.07 1.43 3.7 3.38 4.88 5.78.57 1.14 1.01 2.38 1.31 3.68s.46 2.68.46 4.1c0 2.87-.62 5.52-1.85 7.9-1.22 2.37-2.8 4.23-4.71 5.51-1.82 1.26-3.85 2.1-6.04 2.48-2.07.37-5.14.55-9.39.55zm15.63-10.28c1.95-.06 3.2-.54 3.7-1.44.68-1.23 1.03-2.85 1.03-4.81 0-1.2-.16-2.41-.47-3.59-.27-.99-.73-1.72-1.39-2.24-.31-.24-1.06-.62-2.87-.73z"/><path d="m47.9 106.85h-9.57l-8.56-23.38h-2.1v-7.27h15.75v7.28h-2.27l3.58 13.09 4.54-13.09h-2.25v-7.28h13.24v7.28h-2.25l4.61 13.09 3.63-13.09h-2.18v-7.28h12.26v7.28h-2.1l-8.65 23.38h-9.44l-4.11-11.71z" fill="url(#b)"/><path d="m65.93 107.35h-10.14l-3.75-10.7-3.78 10.7h-10.28l-8.56-23.38h-2.25v-8.27h16.75v8.28h-2.12l2.98 10.9 3.79-10.9h-2.05v-8.28h14.24v8.28h-2.04l3.85 10.92 3.03-10.92h-2.03v-8.28h13.26v8.28h-2.25zm-9.44-1h8.74l8.65-23.38h1.95v-6.27h-11.26v6.28h2.34l-4.23 15.25-5.37-15.25h2.46v-6.28h-12.24v6.28h2.45l-5.3 15.27-4.18-15.27h2.43v-6.28h-14.76v6.28h1.95l8.56 23.38h8.87l4.48-12.72z" fill="#fff"/><path d="m95.6 106.59h-17.33v-7.28h2.8v-15.83h-2.8v-7.28h17.33v7.28h-2.77v15.84h2.77z" fill="url(#c)"/><path d="m96.1 107.09h-18.33v-8.28h2.8v-14.83h-2.8v-8.28h18.33v8.28h-2.77v14.84h2.77zm-17.33-1h16.33v-6.28h-2.77v-16.83h2.77v-6.28h-16.33v6.28h2.8v16.84h-2.8z" fill="#fff"/><path d="m111.13 106.59h-12.47v-7.28h2.67v-15.83h-2.67v-7.28h14.4l11.06 15.88v-8.61h-2.47v-7.27h12.26v7.28h-2.64v23.51h-10.01l-12.8-18.38v10.71h2.69v7.27z" fill="url(#d)"/><path d="m131.75 107.48h-10.77l-12.04-17.28v8.61h2.69v8.28h-13.47v-8.28h2.67v-14.83h-2.67v-8.28h15.16l10.29 14.79v-6.51h-2.47v-8.28h13.26v8.28h-2.64v23.5zm-10.24-1h9.25v-23.5h2.64v-6.28h-11.26v6.28h2.47v10.7l-11.82-16.98h-13.63v6.28h2.67v16.84h-2.67v6.28h11.48v-6.28h-2.69v-12.8z" fill="#fff"/><path d="m151.83 106.59h-14.13v-7.28h2.38v-15.83h-2.38v-7.28h14.55c3.32 0 6.03.2 8.13.61 2.11.41 4.1 1.25 5.96 2.51 1.85 1.28 3.31 3.02 4.37 5.2.52 1.05.92 2.17 1.2 3.36s.42 2.45.42 3.76c0 2.64-.56 5.04-1.68 7.21-1.11 2.16-2.51 3.81-4.22 4.96-1.66 1.15-3.48 1.9-5.46 2.25-1.97.36-5.01.53-9.14.53zm0-23.11v15.84h1.11c2.77 0 4.57-.74 5.4-2.21.82-1.47 1.22-3.32 1.22-5.55 0-1.34-.17-2.67-.52-3.98-.36-1.31-1-2.32-1.92-3.04-.9-.71-2.52-1.07-4.85-1.07h-.44z" fill="url(#e)"/><g fill="#fff"><path d="m151.83 107.09h-14.63v-8.28h2.38v-14.83h-2.38v-8.28h15.05c3.34 0 6.1.21 8.22.62 2.17.42 4.24 1.29 6.15 2.59 1.92 1.33 3.44 3.14 4.54 5.39.54 1.07.96 2.24 1.24 3.47.28 1.22.43 2.53.43 3.87 0 2.7-.58 5.21-1.74 7.44-1.14 2.22-2.62 3.95-4.38 5.14-1.71 1.18-3.61 1.97-5.65 2.33-1.99.36-5.09.54-9.23.54zm-13.63-1h13.64c4.07 0 7.12-.17 9.04-.52 1.9-.34 3.67-1.07 5.26-2.17 1.63-1.1 2.99-2.71 4.06-4.78 1.08-2.09 1.63-4.44 1.63-6.98 0-1.27-.14-2.49-.4-3.64-.27-1.15-.66-2.25-1.16-3.25-1.02-2.1-2.44-3.79-4.21-5.01-1.79-1.22-3.74-2.04-5.77-2.43-2.06-.4-4.76-.6-8.03-.6h-14.06v6.28h2.38v16.84h-2.38zm14.75-6.27h-1.61v-16.84h.94c2.47 0 4.16.39 5.16 1.18 1 .78 1.7 1.88 2.09 3.3.36 1.35.54 2.73.54 4.11 0 2.3-.43 4.25-1.29 5.79-.92 1.63-2.88 2.46-5.83 2.46zm-.62-1h.61c2.56 0 4.23-.66 4.96-1.95.77-1.39 1.16-3.17 1.16-5.3 0-1.29-.17-2.58-.51-3.85-.33-1.19-.92-2.13-1.75-2.77-.8-.63-2.31-.96-4.48-.96v14.83z"/><path d="m66.97 123.59h-7.61v-3.12h1.27v-6.79h-1.27v-3.12h7.99c1.84 0 3.18.18 4.03.53.85.36 1.47.85 1.87 1.48s.6 1.31.6 2.05c0 .92-.24 1.68-.71 2.28-.47.61-1.1 1.05-1.88 1.33-.77.27-1.95.4-3.56.4h-2.03v1.83h1.31v3.13zm-1.31-10.16v2.44h.98c.69 0 1.19-.08 1.5-.24.3-.16.45-.48.45-.95 0-.31-.08-.57-.24-.78-.15-.21-.36-.34-.63-.39-.25-.06-.67-.08-1.27-.08z"/><path d="m75.25 117.05c0-1.09.27-2.14.8-3.15.52-1.01 1.34-1.86 2.44-2.56.39-.24.8-.44 1.21-.58.42-.14.87-.25 1.35-.33.49-.08 1-.12 1.54-.12 2.33 0 4.14.68 5.42 2.05.64.67 1.12 1.4 1.44 2.19s.49 1.62.49 2.5c0 1.82-.66 3.4-1.99 4.74-1.32 1.34-3.11 2.01-5.36 2.01-2.18 0-3.95-.63-5.3-1.89-1.36-1.26-2.04-2.87-2.04-4.86zm5.65 0c0 1.45.14 2.43.42 2.93.27.51.69.77 1.26.77s.99-.25 1.27-.74c.28-.5.42-1.48.42-2.96 0-1.43-.14-2.4-.41-2.92-.27-.51-.7-.77-1.28-.77-.56 0-.98.25-1.26.74-.27.5-.42 1.48-.42 2.95z"/><path d="m98.82 123.59h-7.06v-3.12h.99v-6.79h-1.02v-3.12h7.09v3.12h-1.03v6.79h1.03zm8.1 0h-6.74v-3.12h.63l-2.86-3.71 3.31-3.08h-1.06v-3.12h6.41v3.12h-1.01l-2.66 2.47 3.32 4.32h.64v3.12z"/><path d="m120.55 123.59h-12.42v-3.12h1.01v-6.79h-1.03v-3.12h12.44v4.17h-3.42v-1.05h-2.96v2h2.57v2.65h-2.57v2.13h2.96v-1.05h3.42z"/><path d="m129.56 123.59h-7.08v-3.12h1.06v-6.79h-1.06v-3.12h7.08c.64 0 1.23.01 1.77.03s1.01.05 1.39.09c.39.04.74.09 1.07.16.91.19 1.65.62 2.22 1.26.57.66.86 1.44.86 2.34 0 .67-.17 1.29-.52 1.83s-.81.94-1.38 1.2l1.8 2.98h.93v3.12h-4.69l-2.84-5.32h-1.6v2.2h.98v3.14zm-.99-10.16v2.48h.56c.74 0 1.24-.02 1.5-.07.28-.04.52-.17.71-.37.19-.19.29-.46.29-.8s-.1-.6-.29-.8c-.19-.21-.44-.33-.74-.37-.29-.04-.81-.07-1.57-.07z"/></g></svg>