<svg width="200" height="200" fill="none" xmlns="http://www.w3.org/2000/svg"><path d="M200 0H0v200h200V0z" fill="#2B2B2B"/><path d="M140.928 94.04c2.141-3.008 4.231-5.914 6.475-9.024 10.299 3.314 15.754 12.695 19.833 22.076 3.875 10.452 1.02 22.638-5.2 31.612-9.993 14.581-31.051 17.233-46.295 9.84-4.232-2.091-7.954-4.997-10.656-8.974-.612-.866-.765-1.274-2.091-1.274.153 16.162 4.997 29.979 18.865 40.38H78.113c13.665-10.35 18.661-24.065 18.763-40.737-.969.612-1.632.816-1.937 1.274-10.911 15.857-35.588 17.285-50.527 6.221-20.14-15.143-16.621-49.558 6.526-59.909 3.212-1.937 2.243 7.954 2.396 9.637-.102 1.172-1.53 2.396-2.6 3.263-27.89 26.665 14.633 61.947 36.659 30.948 1.02-1.325 2.04-1.733 3.875-1.427 5.608.968 11.267 1.58 16.927 2.345 3.008.408 5.659.714 8.056 3.518 8.106 9.483 24.167 9.789 33.446 1.733 14.735-12.236 8.923-35.588-8.769-41.502z" fill="#D13B32"/><path d="M79.184 118.358a861.78 861.78 0 0 0 8.005-3.263c-2.753-2.039-5.506-1.529-10.35 1.938-3.06-2.091-5.507-4.64-6.271-8.821 1.886.153 2.804-.255 1.784-2.09-2.04-3.365.867-1.53 1.02-3.875.969-8.566 7.903-.153 12.797-5.813 1.632-1.682 4.334-2.243 5.2-4.537-5.506-1.938-7.647 5.608-13.409 3.824-4.435-.714-9.534 4.333-9.177 8.82-.663-.969-1.275-1.988-1.937-2.957l-.918.459c.459 1.682.918 3.416 1.478 5.557-4.027-2.702-8.667-4.13-9.585-9.432-.204-5.507 1.479-19.986-7.903-16.57-1.835.56-3.518.968-5.71-1.02 1.785-.306 3.11-.765 4.334-.612 8.361.714 1.937-9.636 1.682-14.021 2.652-.255 2.805.051 3.57 7.087 1.63-3.11 3.16-6.271 1.784-9.993 5.15.153.816 5.302.255 8.26a399.239 399.239 0 0 0 5.608-4.997c4.028 3.11-4.385 4.538-3.824 7.954 1.173 6.679 2.346 23.86 13.206 17.13 8.463-4.639 12.899-11.828 22.076-3.721.255-.204.51-.408.765-.561-.918-1.632-1.835-3.263-2.855-5.099 10.401-1.58 13.205-1.937 22.536 3.416.204-.254.356-.51.56-.764-1.325-1.632-2.6-3.263-3.671-4.538 8.515-4.385 8.872-5.557 17.896-.357-.917-4.487-4.18-5.506-7.291-6.679-.407-6.68 4.232-3.569 8.515-6.067 3.365-1.377-2.6-8.362-3.059-10.81.408-.51.51-.662.663-.713 6.016-1.836 1.07-4.436-.408-7.954-1.53-2.957.663-3.926 3.008-3.926 1.479.306 2.804 1.428 4.385 2.346-1.326 1.325-2.753.764-4.334 1.172 2.498 4.487 7.903 6.73 10.35 11.064-6.373 1.275 3.263 8.77 4.436 11.778-.204.153-.357.255-.561.408-1.224-.306-2.396-.612-3.62-.867-.255.153-.459.306-.714.459 1.581 6.22 7.75 7.24 2.702 15.194-.153-2.244.357-4.59-2.039-5.762-3.773 2.906.051 5.71-2.549 12.186-.255-.051-.561-.051-.816-.102.663-2.55-1.683-6.118-3.926-3.161-1.122 2.906-.612 7.036-4.028 8.055-1.172-4.894-3.722-6.322-5.302-1.121-1.02 2.141-2.601 3.11-4.538 3.467-.306-1.224-.612-2.295-.867-3.365-3.467.612-6.271 2.498-9.126 4.486-.204-.254-.357-.458-.561-.713.867-.816.612-1.989.714-3.06-2.804-.458-4.334 2.295-6.17 3.722-.509-1.172-.866-2.039-1.223-2.906-1.224.816-2.448 1.683-3.671 2.499l.918-.612c-.714-.306-1.479-.867-2.193-.867-2.04 1.428-4.487 3.161-6.526 4.793.51.408 1.02.764 1.58 1.223-.254.357-.662.867-1.121 1.53 2.855 1.937 4.538-2.651 6.934-1.224-.153 1.071-.255 1.989-.357 2.906 3.518.51 6.679-.764 10.146-1.529-.102 1.427-.153 2.345-.255 3.263 4.283.612 6.883-3.365 11.472-1.938-1.173.867-.867 1.938-1.071 3.162 4.538.509 8.056-3.213 12.951-1.326-1.734.765-3.518 1.479-2.295 3.926 3.773.306 7.546-3.722 11.523-.255-1.478.357-3.722-.102-3.518 2.09.663 4.079 7.546-1.937 11.472 4.538-1.581.102-3.518-2.141-4.334.357-1.275 3.008 6.781 2.447 8.158 6.934-1.122.204-1.989.357-2.906.51.662 1.886.611 3.467-.306 5.251-9.229-19.476-22.536-18.558-41.248-21.108-.051.408-.153.765-.204 1.173 14.582 3.824 32.682 3.569 37.679 20.955-.561 3.926-8.872 4.487-12.135 4.334-3.722-1.224-5.506-5.405-8.463-8.107 1.886-.51 4.129-1.173 6.373-1.784-2.804-3.977-7.393-.204-10.809.662-6.628-1.121-13.256-2.294-20.445-3.569 2.243-1.274 4.231-2.447 6.424-3.721-2.193-1.632-5.048-.663-6.832.815-5.2 5.864-13.614-.968-19.477-2.498-.102-.408-.05-.663-.05-.918zM99.527 94.65c.051.408.102.867.204 1.275 9.127-1.224 18.559-1.785 26.87-6.22 10.911-5.711 14.99-19.171 8.514-28.706l-.611.306c6.883 24.932-15.857 29.827-34.977 33.345z" fill="#D13B32"/><path d="M88.107 63.447c-.459-.407-1.173-.764-1.326-1.325-1.223-4.181-7.546-2.346-11.064-4.487-.305-.102-.56-.663-.611-1.02.05-2.906-.561-3.62-2.907-5.302 2.703.459 4.64-.153 6.119-2.55.918-1.784 6.883-2.039 4.13-4.894-2.703-2.855-6.578-4.232-9.79-6.373-1.121-.765-1.988-1.275-2.906.663-.408-1.887-.56-2.907-1.682-4.232-1.173.968-1.275 2.04-2.55 3.059-.102-1.785-.153-3.62-.255-5.71-1.53.305-3.263.662-4.996 1.07-.102-.153-.204-.357-.306-.51 9.534-5.863 1.937-5.098 6.832-9.483 2.855-2.447 6.322 8.566 8.056 10.452 4.945 5.914 5.608 0 5.15-4.64 6.678 1.275 6.678-.968 14.173 2.6 2.499.613 5.354-.254 7.801-.356 7.291 1.886 13.052-2.397 19.681-3.977-1.887 3.824-5.813 5.2-8.719 8.107 1.683-.357 3.314-.765 5.099-1.173-.561 1.377-1.02 2.6-1.53 3.875 5.608.765 9.789-1.275 18.916-9.33.51 8.718-9.688 12.848-16.316 15.958 2.244 2.702 4.385 5.353 6.781 8.209-2.345 1.223-3.722-.561-5.557-1.173 2.09 4.487 4.181 9.024 6.373 13.715-4.436.663-5.557-4.334-7.546-7.29-2.447-3.672-2.039-10.86-6.832-12.084 4.028 3.365 1.938 8.718 4.895 12.797 1.376 2.651 5.302 6.322 2.396 9.075-1.784-2.294-3.773-4.537-5.353-7.036-1.581-2.447-1.632-5.71-3.365-8.106.254 8.973 1.274 6.526 4.69 13.868-.204.102-.408.255-.561.357-5.659-2.397-6.22-7.75-9.075-12.492 1.479 3.722-1.122 8.719 3.722 11.37-5.863 1.326-6.067-3.416-8.515-7.138-.459 2.651-.102 4.64 1.071 7.189-6.832-2.804-2.855-4.793-6.016-8.362-4.793-1.376-11.676-6.934-15.602-1.02 5.71 2.346 5.252 1.53 7.852 7.445-.153.102-.255.204-.357.254zm15.143-18.711c1.631-.765 13.766-4.538 9.993-6.781-3.314-2.55-9.483-2.856-12.594.968 2.958-.204 5.915-1.784 9.382.357-3.926 1.683-7.444 3.212-10.911 4.69 0 .307.05.613.05.919l4.692 3.518a3288.926 3288.926 0 0 1-7.291 4.13c.102.254.204.458.255.713 3.823-1.223 7.698-2.141 10.146-5.608-1.224-1.02-2.499-1.836-3.722-2.906zm-22.434-6.271c2.447 3.823 5.71 5.914 10.044 5.2-1.121 1.07-2.294 2.04-3.11 3.212 0 2.855 3.11 2.142 5.099 1.785 0-.255-.051-.46-.051-.714-.765-.255-1.58-.51-2.957-1.02 5.098.051 6.322-5.914 1.325-5.812-3.824.204-7.138-.714-10.35-2.651zm3.671-4.793c2.396 3.314 4.946 3.67 8.209 1.122-2.652-1.071-5.048-2.907-8.209-1.122zM66.846 51.773c2.549 3.365 5.047 6.476 7.29 9.79 2.244 6.169 3.977 12.746 6.985 18.66a12077.38 12077.38 0 0 0-14.836 8.362c-1.071-2.04-2.193-4.028-3.518-6.526h7.138c-5.048-9.993-7.036-19.884-3.06-30.286zM56.75 127.024c-1.122-3.518 2.753-3.161 3.62-5.048-3.314-.764-4.028-.561-7.546 2.397-1.173-2.142-1.071-2.193 5.965-3.671-2.447-.765-4.232-1.326-6.016-1.887.867-4.537 4.996 3.569 8.718-1.733 1.632-1.887 3.926-3.212 5.915-4.793 1.274 1.173 1.631 2.192.102 3.824-2.6 3.416 4.894 4.181 3.059 8.107-.612-.51-1.377-.918-1.734-1.581-3.773-5.914-8.463 1.887-12.083 4.385z" fill="#D13B32"/><path d="M76.94 45.241c.307 4.997-7.29 3.926-7.035-.204.968-4.13 6.832-4.741 7.036.204z" fill="#D13B32"/></svg>