<svg width="200" height="200" fill="none" xmlns="http://www.w3.org/2000/svg"><path d="M200 0H0v200h200V0z" fill="#264283"/><path d="M24.54 86.31c.883-7.565-3.026-26.73 5.17-30.765 7.943-6.178 50.685-2.27 60.645-3.278l2.648 14.374c-2.774-1.892-6.682-2.774-11.726-2.774-2.395.252-26.855-.757-28.494.756-1.513.63-1.261 3.783-1.261 5.422-.126 4.035 2.143 4.413 5.8 4.287 34.294-.126 38.581-3.026 36.816 33.916.504 11.348-9.204 14.878-19.039 14.626H27.314l-2.522-14.248c8.07 4.665 29.377 1.766 38.582 2.522 4.16.378 4.034-2.774 3.908-5.926-.126-2.774-.252-4.287-3.278-4.287-12.608-1.387-40.599 5.926-39.464-14.625z" fill="#fff"/><path d="M100.82 138.505c-1.135-8.069 2.774-54.09-3.026-60.142h58.376c11.222.252 19.165 2.396 19.165 14.752 1.135 14.121-2.269 19.165-17.147 19.291 17.147-1.009 18.03 7.565 17.147 21.938.504 11.474-9.078 15.004-19.165 14.626H97.794c1.765-2.522 3.152-6.304 3.026-10.465zm27.36-31.143h14.878c6.43.379 5.674-4.791 5.8-9.582-.253-4.539.126-7.565-4.918-7.691h-15.634v17.273h-.126zm0 30.008c3.656-.378 16.139.883 18.912-1.135 2.648-1.386 1.513-8.699 1.766-11.347-.126-5.296-1.261-5.8-6.431-5.926h-14.121v18.408h-.126z" fill="#A9C3FF"/></svg>