<svg width="88" height="88" fill="none" xmlns="http://www.w3.org/2000/svg"><rect width="88" height="88" rx="44" fill="url(#paint0_radial)"/><path d="M49.674 45.086c.29-1.43.555-2.723.821-4.029 1.041-5.13 2.093-10.25 3.134-15.382.104-.484.347-.675.867-.675 3.227.011 6.453.011 9.691.011.74 0 .914.225.763.934l-6.279 30.877c-.382 1.846-.763 3.691-1.133 5.548-.093.45-.313.63-.775.63-3.273-.011-6.534-.011-9.806 0-.52 0-.683-.293-.845-.686-2.497-6.223-5.007-12.434-7.516-18.646-.081-.191-.162-.371-.312-.698-.255 1.272-.486 2.386-.717 3.511-1.076 5.278-2.151 10.544-3.204 15.821-.104.507-.347.687-.855.687-3.215-.011-6.419 0-9.633-.011-.798 0-.983-.226-.821-1.002l1.873-9.17a7495.067 7495.067 0 0 0 4.926-24.149c.197-.99.417-1.98.602-2.97.092-.485.335-.687.867-.687 3.215.011 6.418.011 9.633 0 .509 0 .752.191.925.641 2.475 6.223 4.973 12.446 7.47 18.668.081.214.174.428.324.777z" fill="#fff"/><defs><radialGradient id="paint0_radial" cx="0" cy="0" r="1" gradientUnits="userSpaceOnUse" gradientTransform="rotate(45) scale(124.451)"><stop stop-color="#A9D937"/><stop offset="1" stop-color="#779B21"/></radialGradient></defs></svg>