<svg width="18" height="20" fill="none" xmlns="http://www.w3.org/2000/svg"><g clip-path="url(#clip0)" fill="#008BE2"><path opacity=".7" d="M8.79 11.758a.587.587 0 0 1-.229-1.126c.263-.111.577-.016.862.26a.586.586 0 0 0 .815-.842 2.3 2.3 0 0 0-.863-.54v-.682a.586.586 0 0 0-1.172 0v.686a1.755 1.755 0 0 0-1.17 1.658c0 .97.787 1.758 1.756 1.758a.587.587 0 0 1 .201 1.136c-.3.11-.65-.04-.96-.407a.587.587 0 1 0-.899.753c.317.377.686.636 1.072.766v.68a.586.586 0 1 0 1.172 0v-.685l.016-.005a1.764 1.764 0 0 0 1.156-1.652 1.76 1.76 0 0 0-1.758-1.758h.001z"/><path opacity=".7" d="M11.36 6.376a1.758 1.758 0 0 0-.481-2.562L12.793.908a.585.585 0 0 0-.49-.908h-1.097c-.548 0-1.078.16-1.534.464l-.884.59-.884-.59A2.756 2.756 0 0 0 6.371 0H5.273a.586.586 0 0 0-.489.908L6.7 3.814a1.758 1.758 0 0 0-.482 2.562A10.327 10.327 0 0 0 0 15.859C0 18.142 1.84 20 4.102 20h9.375c2.261 0 4.101-1.858 4.101-4.14 0-4.152-2.464-7.856-6.218-9.484zM6.362 1.172h.01c.315 0 .62.092.883.267l1.209.806a.586.586 0 0 0 .65 0l1.209-.806c.262-.175.568-.267.884-.267h.01L9.645 3.555H7.933L6.362 1.172zm4.185 4.14a.587.587 0 0 1-.586.586H7.617a.587.587 0 0 1 0-1.171h2.344c.323 0 .586.262.586.585zm2.93 13.516h-.66a4.148 4.148 0 0 0 1.245-2.969.587.587 0 1 0-1.171 0c0 1.637-1.315 2.97-2.93 2.97H7.617c-1.615 0-2.93-1.333-2.93-2.97a.586.586 0 1 0-1.171 0 4.15 4.15 0 0 0 1.245 2.97h-.66c-1.615 0-2.93-1.333-2.93-2.97A9.158 9.158 0 0 1 7.443 7.16l.27-.09h2.154l.27.09a9.158 9.158 0 0 1 6.27 8.7c0 1.636-1.314 2.968-2.93 2.968z"/></g><defs><clipPath id="clip0"><path fill="#fff" d="M0 0H18V20H0z"/></clipPath></defs></svg>