<svg width="200" height="200" viewBox="0 0 200 200" fill="none" xmlns="http://www.w3.org/2000/svg">
<g clip-path="url(#clip0)">
<path d="M100 200C44.8 200 0 155.2 0 100C0 44.8 44.8 0 100 0C155.2 0 200 44.8 200 100C200 155.2 155.2 200 100 200Z" fill="white"/>
<path d="M100 0C88.4 0 76.4 2.1 65.7 6L70.2 18.2C79.7 14.8 89.7 13 100 13V0ZM35.6 23.5C26.7 31 19.1 40.1 13.3 50.2L24.6 56.7C29.7 47.9 36.2 40 44 33.4L35.6 23.5ZM1.4 83C0.5 88.6 0 94.3 0 100C0 106 0.5 112 1.6 117.8L14.4 115.5C12.6 105.6 12.6 95.1 14.3 85.2L1.4 83ZM24.9 143.9L13.7 150.5C19.6 160.6 27.3 169.6 36.3 177L44.6 167C36.7 160.5 30 152.7 24.9 143.9ZM70.8 182L66.4 194.2C77.4 198.1 89.1 200.1 100.7 200L100.6 187C90.5 187.1 80.4 185.4 70.8 182ZM156.6 166.1C148.8 172.8 140.1 178 130.5 181.5L135.1 193.7C146.1 189.6 156.2 183.6 165.1 176L156.6 166.1ZM185.9 114.1C184.3 124.2 180.9 133.8 175.9 142.7L187.2 149.1C192.8 139.1 196.8 128 198.7 116.2L185.9 114.1ZM185.9 48.8L174.7 55.5C179.9 64.3 183.6 73.8 185.4 83.8L198.2 81.4C196.1 69.7 191.9 58.9 185.9 48.8ZM132.7 5.5L128.4 17.8C138 21.1 146.9 26.1 154.8 32.6L163 22.5C154.1 15.1 143.8 9.3 132.7 5.5Z" fill="#AF197C"/>
<path d="M100 188C51.4483 188 12 148.552 12 100C12 51.4483 51.4483 12 100 12C148.552 12 188 51.4483 188 100C188 148.552 148.552 188 100 188Z" fill="url(#paint0_radial)"/>
<path d="M56.5465 99H66.4915V84.505C75.3315 84.18 80.7265 78.135 80.7265 68.645C80.7265 58.57 74.8765 52.98 64.2815 52.98H56.5465V99ZM66.4915 62.08C69.5465 62.275 71.0415 64.485 71.0415 68.71C71.0415 72.935 69.5465 75.08 66.4915 75.34V62.08ZM85.4918 99H107.332V89.9H95.4368V52.98H85.4918V99ZM127.383 51.745C117.373 51.745 109.313 62.47 109.313 75.665C109.313 89.575 117.178 100.235 127.383 100.235C137.393 100.235 145.388 89.51 145.388 75.99C145.388 62.47 137.458 51.745 127.383 51.745ZM127.318 61.495C131.933 61.495 134.988 67.41 134.988 76.185C134.988 84.96 131.933 90.875 127.383 90.875C122.768 90.875 119.713 85.025 119.713 75.99C119.713 67.41 122.833 61.495 127.318 61.495ZM91.731 112.98L89.651 137.355C93.031 136.185 94.136 135.925 95.956 135.925C100.636 135.925 103.106 138.59 103.106 143.725C103.106 148.6 101.026 151.33 97.321 151.33C94.656 151.33 93.356 150.615 90.691 147.82L85.686 154.775C89.976 158.935 92.836 160.235 97.971 160.235C106.811 160.235 112.661 153.54 112.661 143.465C112.661 134.69 107.656 128.19 100.831 128.19H99.791L100.376 121.885H108.631L109.736 112.98H91.731Z" fill="white"/>
</g>
<defs>
<radialGradient id="paint0_radial" cx="0" cy="0" r="1" gradientUnits="userSpaceOnUse" gradientTransform="translate(12 12) rotate(45) scale(248.902)">
<stop stop-color="#DA41A6"/>
<stop offset="1" stop-color="#9D0A6B"/>
</radialGradient>
<clipPath id="clip0">
<rect width="200" height="200" fill="white"/>
</clipPath>
</defs>
</svg>
