<svg width="50" height="20" fill="none" xmlns="http://www.w3.org/2000/svg"><path d="M39.083 5.032l.413-.33c1.435-1.219 3.273-1.084 4.502.361.124.145.186.155.31.031.082-.093.175-.165.258-.258.96-.94 2.23-1.218 3.418-.692 1.25.558 1.92 1.539 1.93 2.912.021 2.964.011 5.917.011 8.881 0 1.053-.65 1.714-1.693 1.714-.413 0-.826-.03-1.24.01-.423.042-.547-.093-.547-.537.02-2.89.01-5.782.01-8.674V8.09c-.01-.671-.278-.95-.919-.981-.578-.031-.98.32-1.042.909-.01.134 0 .279 0 .413v7.486c0 1.095-.63 1.735-1.725 1.725-.557-.01-1.311.248-1.631-.114-.28-.31-.093-1.043-.093-1.59V8.244c0-.909-.589-1.373-1.353-1.064-.475.197-.63.579-.63 1.074.01 2.396 0 4.781 0 7.177v.568c-.031 1.002-.671 1.632-1.663 1.642-.413.01-.826-.031-1.239.01-.444.041-.578-.082-.568-.558.021-4.058.01-8.116.01-12.184 0-.176.011-.341 0-.517-.02-.227.073-.3.3-.3.95.011 1.89.011 2.84 0 .237 0 .35.063.33.32-.02.187 0 .352.01.62z" fill="#BBB"/><path d="M17.192 10.629v4.234c-.01 1.838-.971 2.788-2.81 2.798-.805 0-1.62.01-2.426 0-1.631-.02-2.83-1.105-2.912-2.736a33.183 33.183 0 0 1-.01-3.511c.082-1.673 1.363-2.85 3.056-2.87.444-.011.899 0 1.343 0 .434-.011.599-.26.588-.672 0-.413-.186-.599-.599-.578-.464.01-.929.01-1.394 0-1.136-.021-1.765-.64-1.755-1.756 0-.454-.207-1.063.093-1.332.258-.227.847-.083 1.29-.083 1.157-.01 2.303 0 3.46 0 1.229 0 2.065.837 2.076 2.076.01 1.466 0 2.953 0 4.43zm-3.16 2.344v-.516c0-1.054 0-1.054-1.053-1.012-.527.02-.816.289-.827.836-.01.434-.01.857 0 1.291.01.744.341.94 1.415.97.795.021.392-.536.465-.846.041-.227-.01-.485 0-.723zm12.35-3.462c0 1.58.02 3.17-.01 4.75-.021 1.218-.31 2.323-1.488 2.974a3.32 3.32 0 0 1-1.528.413c-1.187.02-2.375 0-3.563.02-.289 0-.35-.103-.34-.361.02-.434-.01-.857.01-1.29.02-.827.65-1.457 1.477-1.488.537-.02 1.063-.01 1.6 0 .434 0 .672-.175.672-.64 0-.475-.228-.64-.661-.65-.723-.021-1.446.082-2.159-.124-1.228-.362-2.127-1.384-2.158-2.654-.062-2.014-.02-4.028-.03-6.041 0-.227.072-.3.299-.29.846.011 1.683.021 2.53 0 .371-.01.32.197.32.424v4.544c0 .66.31 1.012.888 1.032.681.02.98-.258.98-.95 0-1.528.011-3.067-.01-4.595 0-.361.093-.465.455-.454a23.81 23.81 0 0 0 2.272 0c.413-.02.475.134.464.495-.03 1.622-.02 3.253-.02 4.885zM.07 11.85v-5.06c0-1.652 1.012-2.684 2.674-2.664 1.084.01 2.169-.124 3.243.083 1.373.268 2.24 1.332 2.25 2.747.011 1.497 0 2.994 0 4.491 0 1.88-1.104 3.026-2.984 3.078-.567.02-1.135.01-1.703 0-.259-.01-.372.072-.362.35.02.414.01.827 0 1.24-.02.888-.65 1.528-1.528 1.539-.516.01-1.167.216-1.497-.083-.31-.279-.083-.94-.093-1.435-.01-1.425 0-2.86 0-4.286zm3.118-2.53v.981c0 1.167 0 1.167 1.167 1.064.506-.041.744-.29.754-.795.01-.579-.02-1.167.01-1.745.062-1.673-.248-1.508-1.61-1.518-.248 0-.331.072-.331.32.02.557.01 1.125.01 1.693z" fill="#fff"/><path d="M29.305 11.869c0-1.374-.01-2.758.01-4.13 0-.321-.072-.455-.423-.445-.465.02-1.085.155-1.343-.072-.32-.3-.072-.94-.113-1.436v-.103c0-.485-.155-1.053.051-1.415.207-.361.837-.134 1.28-.247.878-.228 1.54-.734 2.076-1.436.372-.475.837-.815 1.436-.93.32-.061.516-.02.495.393-.03.579 0 1.167-.01 1.756-.01.248.083.33.33.32.413-.01.826.01 1.24-.01.247-.01.33.082.32.33-.01.847-.01 1.683 0 2.53 0 .237-.062.361-.32.33-.052-.01-.104 0-.155 0-.455.042-1.085-.206-1.322.104-.227.289-.083.888-.083 1.352 0 2.81-.01 5.607.01 8.416 0 .393-.103.517-.495.486-.372-.031-.754 0-1.136-.01-1.115-.042-1.848-.796-1.848-1.911v-3.872z" fill="#BBB"/></svg>