<svg width="211" height="72" fill="none" xmlns="http://www.w3.org/2000/svg"><path fill-rule="evenodd" clip-rule="evenodd" d="M151.131 17.298c4.77 0 8.636-3.871 8.636-8.646 0-4.777-3.866-8.652-8.636-8.652-4.764 0-8.629 3.875-8.629 8.652 0 4.775 3.865 8.646 8.629 8.646zm-66.14 4.67c-.39.98-3.195 8.918-9.978 17.144V3.937L56.939 7.515v63.76h18.074V51.566c5.235 7.866 7.82 19.709 7.82 19.709h21.648c-2.141-8.92-11.508-25.365-11.508-25.365 8.406-10.679 12.099-22.057 12.686-23.943H84.991zm47.514-.666c-16.188.52-24.406 7.797-24.406 22.262v27.71h17.661V48.678c0-8.661 1.132-12.374 11.391-12.728V21.556c-1.727-.368-4.646-.254-4.646-.254zM26.628 28.988c-2.214-.146-7.339-.477-7.339-5.1 0-5.579 7.379-5.579 10.146-5.579 4.867 0 11.17 1.441 15.67 2.79 0 0 2.51.887 4.648 1.795l.198.054V7.671l-.273-.081C44.367 5.728 38.19 3.937 26.74 3.937 6.996 3.937 0 15.46 0 25.332c0 5.691 2.435 19.084 25.046 20.63 1.917.117 7.004.411 7.004 5.188 0 3.944-4.165 6.27-11.17 6.27-7.676 0-15.123-1.962-19.646-3.822v15.735C8.005 71.111 15.638 72 24.584 72c19.305 0 27.951-10.903 27.951-21.709 0-12.252-9.675-20.213-25.907-21.303zm115.748 42.287h17.518V22.023h-17.518v49.252zm50.503-64.198v64.198H210.4V3.937l-17.521 3.14zm-25.564 0l17.504-3.14v67.338h-17.504V7.077z" fill="#C62991" opacity=".7"/></svg>