<svg width="200" height="200" fill="none" xmlns="http://www.w3.org/2000/svg"><path d="M200 0H0v200h200V0z" fill="#2C6AAA"/><path d="M49.91 85.412C48.1 58.595 68.312 35.39 95.068 33.562c12.986-.88 25.111 3.468 34.372 11.223 8.463 9.443 12.527 22.249 8.701 35.634-5.817 20.417-26.559 32.379-46.323 26.718C78.85 103.42 69.533 93.049 66.288 80.6c1.582 15.799 12.239 29.654 28 34.175 20.816 5.968 42.666-6.63 48.794-28.14 3.46-12.14.871-24.02-5.665-33.325.204.271.441.513.633.788-8.876-18.116-28.035-30.004-49.375-28.548-28.176 1.91-49.472 26.361-47.555 54.61 1.452 21.378 18.7 43.535 38.78 48.08-14.551-7.57-28.802-25.239-29.99-42.828z" fill="#fff"/><path d="M158.957 67.049C154.635 45.52 136.369 24.946 113.663 23c15.722 5.757 32.145 22.173 35.698 39.876 5.416 26.995-11.931 53.262-38.746 58.657-12.52 2.52-24.854-.023-35.04-6.123a40.729 40.729 0 0 1-12.373-29.318c0-22.314 17.636-40.395 39.379-40.395 14.26 0 26.747 7.779 33.664 19.429-6.192-15.509-21.047-26.43-38.388-26.43-22.917 0-41.476 19.053-41.476 42.556 0 9.601 3.178 18.401 8.407 25.523-.13-.136-.277-.256-.408-.398 11.41 17.227 32.371 26.754 53.758 22.453 28.254-5.679 46.524-33.347 40.819-61.781zm-108.52 85.13c0 3.162.092 5.981.382 8.751l-.081.01c-.942-2.37-2.167-4.998-3.416-7.19l-4.307-7.633h-5.558v20.941h4.379v-6.25c0-3.419-.063-6.389-.21-9.167l.103-.01c1.017 2.458 2.391 5.146 3.637 7.405l4.453 8.022h4.995v-20.94h-4.376v6.061zm13.974-.667c-4.9 0-8.137 3.152-8.137 8.057 0 4.915 3.435 7.837 7.866 7.837h.03c4.054 0 7.993-2.543 7.993-8.1 0-4.59-3.096-7.794-7.752-7.794zm-.172 12.495h-.032c-1.972 0-3.056-1.962-3.056-4.544 0-2.245.853-4.552 3.091-4.552 2.123 0 2.98 2.29 2.98 4.531 0 2.73-1.152 4.565-2.983 4.565zm13.559-9.339h-.116l-.174-2.813H73.42c.083 1.309.123 2.777.123 5.02l-.033 10.191h4.77v-7.689c0-.384.029-.752.086-1.049.32-1.468 1.502-2.382 3.235-2.382.53 0 .916.057 1.316.133v-4.477c-.357-.078-.576-.09-1.015-.09-1.468 0-3.322.928-4.104 3.156zM98.932 145h-4.763v8.217h-.06c-.68-1.047-2.118-1.71-3.988-1.71-3.619 0-6.83 2.976-6.805 8.08 0 4.733 2.903 7.815 6.489 7.815 1.954 0 3.796-.858 4.757-2.564h.062l.202 2.224h4.23a79.665 79.665 0 0 1-.125-4.556V145zm-4.762 15.291c0 .376-.021.742-.097 1.065-.285 1.324-1.378 2.25-2.714 2.25-1.955 0-3.213-1.6-3.213-4.152 0-2.382 1.09-4.293 3.246-4.293 1.43 0 2.453 1.037 2.717 2.296.054.272.061.591.061.855v1.979zm11.73-8.443h-4.766v15.209h4.766v-15.209zm10.284 3.324c1.24 0 2.069.228 2.637.481l.739-3.535c-.992-.376-2.361-.598-3.607-.598-5.664 0-8.703 3.639-8.703 8.081 0 4.778 3.131 7.784 8.053 7.784 1.793 0 3.379-.309 4.233-.704l-.558-3.51c-.724.296-1.592.492-2.714.492-2.276 0-4.144-1.473-4.144-4.253-.019-2.477 1.581-4.238 4.064-4.238zm16.56.618v-.078c2.364-.876 3.44-2.612 3.44-4.45 0-1.926-1.037-3.357-2.513-4.138-1.531-.884-3.31-1.167-6.199-1.167-2.38 0-4.882.209-6.131.45v20.561c1.067.156 2.792.309 5.134.309 4.182 0 6.715-.671 8.253-1.903 1.296-1.035 2.184-2.534 2.184-4.453 0-2.672-1.769-4.499-4.168-5.131zm-6.676-6.223c.386-.082.968-.146 2.002-.146 2.128 0 3.325.836 3.325 2.412 0 1.55-1.306 2.582-3.806 2.582h-1.52v-4.848h-.001zm1.811 14.187c-.798 0-1.357-.009-1.811-.085v-5.852h1.609c2.351.001 4.217.834 4.217 2.917 0 2.189-1.878 3.02-4.015 3.02zm17.767-12.172c-5.27 0-7.674 4.282-7.674 8.136 0 4.741 2.962 7.74 8.122 7.74 2.033 0 3.934-.316 5.515-.963l-.636-3.217c-1.284.429-2.596.641-4.189.641-2.196 0-4.126-.923-4.271-2.856l9.763.033c.083-.382.169-1.086.169-1.913 0-3.779-1.872-7.601-6.799-7.601zm-3.173 6.223c.13-1.248.93-3.06 2.919-3.06 2.134 0 2.637 1.93 2.632 3.06h-5.551zm17.133-9.981l-4.655 1.281v2.845h-2.015v3.511h2.015v6.187c0 2.165.429 3.615 1.308 4.517.765.789 2.042 1.322 3.576 1.322 1.327 0 2.46-.186 3.072-.405l-.037-3.621c-.453.115-.738.143-1.4.143-1.409 0-1.864-.843-1.864-2.676v-5.468H163v-3.51h-3.394v-4.126zm-55.901-2.695a2.74 2.74 0 1 0 0 5.48 2.74 2.74 0 0 0 0-5.48z" fill="#fff"/></svg>