<svg id="Layer_1" xmlns="http://www.w3.org/2000/svg" viewBox="0 0 200 200"><style>.st5{fill:url(#SVGID_1_)}</style><path d="M0 0H200V200H0z"/><linearGradient id="SVGID_1_" gradientUnits="userSpaceOnUse" x1="100" y1="226.749" x2="100" y2="17.824"><stop offset="0" stop-color="#0A9A82"/><stop offset="1" stop-color="#52D3A2"/></linearGradient><path class="st5" d="M166.7 106.38c1.81 26.44-23.48 57.99-65.21 33.78.42 5.3 1.28 11.56 3.08 15.6 2.8 6.28 9.84 13.3 15.12 15.12H100.2 79.24c5.28-1.82 12.34-8.84 15.12-15.12 1.8-4.04 2.66-10.3 3.08-15.6-41.73 24.21-67.01-7.34-65.21-33.78 3.1-45.37 67.23-77.25 67.23-77.25s29.97 14.9 49.92 38.83c4.34-5.98 5-12.87 4.36-16.79-.91-5.65-9.65-6.73-9.65-6.73 7.47-2.37 20.61-4.11 23.5 8.56 1.71 7.46-5.88 16.41-12.46 22.56.22.32-30.35 32.64-78.45 43.21 22.23-1.64 46.46-13.01 55.02-16.4 9.42-3.73 21.34-11.2 29.35-16.57 3.11 6.46 5.15 13.35 5.65 20.58z"/></svg>