<svg width="200" height="200" fill="none" xmlns="http://www.w3.org/2000/svg"><path d="M200 0H0v200h200V0z" fill="#C4C4C4"/><path d="M117.831 161.686h-3.308c-4.438 0-8.069-3.704-8.069-8.324V94.505c0-4.58 3.591-8.325 8.069-8.325h3.308c4.438 0 8.069 3.704 8.069 8.325v58.898c0 4.579-3.631 8.283-8.069 8.283zm.967-82.502h-4.639c-5.527 0-10.006-4.62-10.006-10.323v-4.745c0-5.703 4.479-10.323 10.006-10.323h4.639c5.527 0 10.006 4.62 10.006 10.323v4.745c0 5.703-4.479 10.323-10.006 10.323z" fill="#ED0000"/><path d="M167.483 52.248c-15.371-22.935-58.015-19.98-95.293 6.618-37.278 26.556-55.03 66.682-39.659 89.617 12.023 17.982 40.829 20.022 70.684 7.285v-24.85c-28.242 16.691-56.2 19.522-65.923 5.411C26.157 120.22 43.02 88.128 74.973 64.61c31.913-23.476 66.851-29.47 77.986-13.403 9.4 13.57-1.13 38.544-23.843 60.147v29.554c36.35-26.557 53.537-66.017 38.367-88.66z" fill="#343434"/></svg>