<svg width="45" height="20" fill="none" xmlns="http://www.w3.org/2000/svg"><path d="M21.81 11.336h.699v1.565h.504l.905-1.565h.763l-1.086 1.836v.013l1.15 2.004h-.788l-.931-1.681h-.504v1.68h-.699v-3.852h-.012zm4.5 1.022c.84 0 1.525.607 1.525 1.447 0 .854-.672 1.449-1.512 1.449-.841 0-1.513-.595-1.513-1.448-.013-.853.66-1.448 1.5-1.448zm2.068.064h.66v2.172h.866v-2.171h.659v2.171h.866v-2.171h.66v2.766h-3.685v-2.767h-.026zm5.663-.064c.788 0 1.228.582 1.228 1.306-.002.09-.011.181-.026.27h-1.9c.038.48.413.738.827.738.284 0 .569-.13.789-.298l.271.492c-.284.245-.711.4-1.112.4-.918 0-1.486-.659-1.486-1.448 0-.865.581-1.46 1.409-1.46zm1.55 2.25c.337-.053.583-.337.583-1.32v-.866h2.017v2.767h-.686v-2.211h-.672v.31c0 1.202-.323 1.9-1.241 1.926v-.607zm4.565-2.25c.788 0 1.228.582 1.228 1.306-.002.09-.011.181-.026.27h-1.9c.038.48.413.738.827.738.284 0 .569-.13.789-.298l.271.492c-.284.245-.711.4-1.112.4-.917 0-1.486-.659-1.486-1.448 0-.865.581-1.46 1.409-1.46zm1.797.064h.685v1.06h.336l.672-1.06h.763l-.88 1.319v.013l.983 1.435h-.8l-.725-1.125h-.362v1.125h-.685v-2.767h.012zM26.31 14.66c.452 0 .827-.35.827-.866 0-.505-.375-.867-.828-.867-.452 0-.814.35-.814.867s.362.866.815.866zm8.26-1.202c0-.362-.245-.582-.555-.582-.35 0-.608.233-.672.582h1.228zm6.116 0c0-.362-.246-.582-.556-.582-.35 0-.608.233-.673.582h1.229z" fill="#B0B0B0"/><path d="M31.467 2.947v6.53a.178.178 0 0 1-.18.18h-1.332a.177.177 0 0 1-.181-.18v-6.53a.176.176 0 0 1 .18-.18h1.332a.177.177 0 0 1 .181.18zm10.395-.18c.051 0 .116.025.18.077.04.039.04.103.026.155l-2.197 6.542a.184.184 0 0 1-.169.116h-1.189c-.077 0-.142-.039-.168-.116l-1.28-3.814-1.28 3.813a.185.185 0 0 1-.168.117h-1.19c-.077 0-.142-.039-.168-.117L32.062 3c-.013-.052-.013-.103.025-.155.026-.052.091-.077.142-.077h1.487c.078 0 .142.051.169.129L35.06 6.76l1.293-3.865a.185.185 0 0 1 .168-.117h1.047c.077 0 .142.039.168.117L39.03 6.76l1.176-3.865a.179.179 0 0 1 .168-.13h1.487zm2.249 0c.09 0 .168.077.18.18v6.53a.178.178 0 0 1-.18.18h-1.332a.176.176 0 0 1-.18-.18v-6.53a.176.176 0 0 1 .18-.18h1.332zM28.998 9.425c.078.09.013.22-.104.22h-1.629a.208.208 0 0 1-.168-.078l-.27-.336a3.646 3.646 0 0 1-1.953.582 3.609 3.609 0 0 1-3.607-3.608 3.609 3.609 0 0 1 3.607-3.607 3.609 3.609 0 0 1 3.607 3.607c0 .712-.207 1.384-.57 1.952l1.087 1.268zm-13.614 3.167c.336.13.466.633.492.853.052.401-.065.556-.194.556-.13 0-.31-.155-.504-.465-.194-.31-.272-.66-.168-.84.064-.117.206-.169.374-.104zm-1.965 1.461c.207 0 .44.09.647.271.4.337.517.724.31 1.009a.681.681 0 0 1-.53.232.922.922 0 0 1-.607-.22c-.363-.31-.466-.827-.234-1.111a.502.502 0 0 1 .414-.181zm-4.524 3.736A8.894 8.894 0 0 1 0 8.894 8.894 8.894 0 0 1 8.894 0a8.894 8.894 0 0 1 8.895 8.894 8.95 8.95 0 0 1-1.254 4.564c-.026.039-.09.026-.103-.026-.31-2.185-1.642-3.387-3.581-3.749-.169-.026-.194-.13.025-.155.595-.052 1.435-.039 1.875.039a5.888 5.888 0 0 0-5.844-6.568 5.887 5.887 0 0 0-5.882 5.883 5.888 5.888 0 0 0 5.883 5.882h.27a7.935 7.935 0 0 1-.116-1.59c.014-.362.091-.414.246-.13.815 1.41 1.978 2.676 4.254 3.18 1.861.415 3.723.893 5.727 3.44.18.22-.09.452-.298.271-2.042-1.81-3.904-2.405-5.597-2.405-1.901.014-3.193.26-4.5.26zm16.87-9.812l-.71-.867c-.078-.09-.013-.232.103-.232h1.5c.077-.207.116-.44.116-.673 0-1.073-.801-2.004-1.9-2.004-1.099 0-1.901.931-1.901 2.004s.802 1.991 1.9 1.991c.31.013.621-.077.893-.22z" fill="#fff"/></svg>