<svg width="35" height="16" viewBox="0 0 35 16" fill="none" xmlns="http://www.w3.org/2000/svg">
<path opacity="0.4" fill-rule="evenodd" clip-rule="evenodd" d="M8 0C3.58172 0 0 3.58172 0 8C0 12.4183 3.58172 16 8 16H26.0698C30.4881 16 34.0698 12.4183 34.0698 8C34.0698 3.58172 30.4881 0 26.0698 0H8ZM15.0274 8.00248C15.0274 6.89486 15.9235 6 17.0325 6C18.1416 6 19.0376 6.89486 19.0376 8.00248C19.0376 9.1101 18.1416 10.005 17.0325 10.005C15.9235 10.005 15.0274 9.1101 15.0274 8.00248ZM9.01984 6C7.91077 6 7.01474 6.89486 7.01474 8.00248C7.01474 9.1101 7.91077 10.005 9.01984 10.005C10.1289 10.005 11.0249 9.1101 11.0249 8.00248C11.0249 6.89486 10.1226 6 9.01984 6ZM23.046 8.00248C23.046 6.89486 23.942 6 25.0511 6C26.1602 6 27.0562 6.89486 27.0562 8.00248C27.0562 9.1101 26.1602 10.005 25.0511 10.005C23.942 10.005 23.046 9.1101 23.046 8.00248Z" fill="white"/>
</svg>
