<svg viewBox="0 0 200 200" fill="none" xmlns="http://www.w3.org/2000/svg"><path d="M100 200C44.8 200 0 155.2 0 100S44.8 0 100 0s100 44.8 100 100-44.8 100-100 100z" fill="#BBB"/><path d="M59.007 67.12c-3.44-2.16-6.88-3.28-10.48-3.28-8.48 0-14.72 6.88-14.72 16.32 0 6.72 2.24 10.8 8.48 15.68l3.84 2.96c2.72 2.08 4.24 4.72 4.24 7.52 0 3.52-2.08 5.68-5.52 5.68-3.04 0-6.48-1.28-10.88-4.16l1.36 12.8c5.28 2.16 8.16 2.88 11.52 2.88 9.36 0 15.92-7.04 15.92-17.2 0-7.28-2.48-11.28-10.96-18l-3.12-2.4c-1.84-1.44-2.72-3.12-2.72-5.2 0-2.96 1.92-4.88 4.96-4.88 2.08 0 4.56 1.04 8.08 3.52V67.12zm28.799 43.92c-1.52.16-2.16.24-3.2.24-2.96 0-4.16-1.36-4.16-4.64V88.4h6.96V77.84h-6.96V64.08l-11.2 1.28v12.48h-3.76V88.4h3.76V106c0 5.04.56 7.92 2 10.32 2.16 3.68 6.56 6 11.36 6 1.36 0 2.16-.08 4.24-.32l.96-10.96zm25.036-33.2V99.2c0 4.88-.32 8.08-1.04 9.52-1.04 2.24-3.04 3.76-5.04 3.76-2.64 0-3.52-1.76-3.52-7.12v-28.8l-11.2 1.28v29.92c0 10.72 3.04 15.52 9.68 15.52 4.16 0 6.96-1.6 11.12-6.24v6.24l11.2-1.28V76.56l-11.2 1.28zm51.362-13.76l-11.76 1.28v12.48c-2.32-.96-3.76-1.28-5.76-1.28-9.92 0-16.56 9.6-16.56 23.92 0 13.52 5.84 22.8 14.4 22.8 2.96 0 5.36-.96 8.48-3.44l.64 3.44 11.12-1.28c-.4-3.84-.56-7.36-.56-14.56V64.08zm-11.76 45.68c-2.16 1.92-3.6 2.64-5.36 2.64-3.76 0-5.76-4.16-5.76-12 0-8.64 2.32-13.04 6.72-13.04 1.52 0 2.56.4 4.4 1.6v20.8z" fill="#fff"/></svg>