<svg width="200" height="200" viewBox="0 0 200 200" fill="none" xmlns="http://www.w3.org/2000/svg">
<path d="M100 200C44.8 200 0 155.2 0 100C0 44.8 44.8 0 100 0C155.2 0 200 44.8 200 100C200 155.2 155.2 200 100 200Z" fill="#BBBBBB"/>
<path d="M49.8613 97H61.3363V80.275C71.5363 79.9 77.7613 72.925 77.7613 61.975C77.7613 50.35 71.0113 43.9 58.7863 43.9H49.8613V97ZM61.3363 54.4C64.8613 54.625 66.5863 57.175 66.5863 62.05C66.5863 66.925 64.8613 69.4 61.3363 69.7V54.4ZM83.2598 97H108.46V86.5H94.7348V43.9H83.2598V97ZM131.596 42.475C120.046 42.475 110.746 54.85 110.746 70.075C110.746 86.125 119.821 98.425 131.596 98.425C143.146 98.425 152.371 86.05 152.371 70.45C152.371 54.85 143.221 42.475 131.596 42.475ZM131.521 53.725C136.846 53.725 140.371 60.55 140.371 70.675C140.371 80.8 136.846 87.625 131.596 87.625C126.271 87.625 122.746 80.875 122.746 70.45C122.746 60.55 126.346 53.725 131.521 53.725ZM90.4589 113.9L88.0589 142.025C91.9589 140.675 93.2339 140.375 95.3339 140.375C100.734 140.375 103.584 143.45 103.584 149.375C103.584 155 101.184 158.15 96.9089 158.15C93.8339 158.15 92.3339 157.325 89.2589 154.1L83.4839 162.125C88.4339 166.925 91.7339 168.425 97.6589 168.425C107.859 168.425 114.609 160.7 114.609 149.075C114.609 138.95 108.834 131.45 100.959 131.45H99.7589L100.434 124.175H109.959L111.234 113.9H90.4589Z" fill="#FFFFFF"/>
</svg>
