<svg viewBox="0 0 200 200" xmlns="http://www.w3.org/2000/svg"><path d="M0 0h200v200H0z"/><path d="M165.39 80.08c-13.34-30.72-52.7-49.76-87.85-42.55-35.18 7.23-52.89 37.93-39.53 68.63 13.34 30.72 52.7 49.76 87.85 42.55 35.18-7.21 52.9-37.96 39.53-68.63zm-17.03 24.4l11.94 6.22c-2.97 7.95-8.55 14.96-16.28 20.11l-8.88-11.91c-7.4 4.37-16.31 6.27-24.89 6.16l.99 15.02c-12.05.03-24.09-3.05-34.63-8.55l8.17-12.57c-8.17-3.99-15.29-9.79-20.13-16.92l-14.14 5.56c-4.98-8.39-7.65-18.02-6.6-27.78l14.36.5c.5-6.66 3.33-12.82 8.06-17.8l-11.13-6.2c5.42-5.47 12.54-9.79 21.15-12.4l6.46 8.75c6.57-2.01 13.51-2.56 20.38-1.95v-9.13c8.66.96 17.14 3.47 24.89 7.26l-4.48 7.51c6.52 3.08 12.38 7.32 17 12.43l8.86-3.91c5.42 6.13 9.6 13.34 11.72 21.21l-11.22.06c1.54 6.39.88 12.72-1.6 18.33z" fill="#ad0f0a"/><g fill="#fff"><path d="M140.3 106.57c-11.66 2.37-21.43-2.12-28.94-14.5 3.71 3.38 9.13 5.64 14.88 5.72 9.76.14 16.78-5.91 15.73-13.53-1.07-7.59-9.85-13.89-19.61-14.03-2.23-.03-4.35.28-6.22.85.17-.99.19-2.01.06-3.05-.99-6.77-9.05-12.24-17.99-12.24-8.97 0-15.43 5.5-14.44 12.24.41 2.83 2.06 5.47 4.51 7.54h-1.6c-10.26.36-17.66 7.26-16.53 15.46 1.13 8.17 10.37 14.52 20.63 14.19 7.62-.25 15.29-5.5 17.74-11 4.15 12.13-1.46 19.97-14.74 23.21l.19 3.14 48.11-11.25z"/><path d="M100.83 31.92c-48.3-6.11-95.09 30.61-71.76 81.25 16.28 35.4 61.12 57.62 100.37 47.39 56.06-14.61 62.49-70.83 23.24-105.32 45.41 34.88 38.34 98.69-21.62 111.86-41.95 9.24-89.72-13.45-106.75-50.67-24.5-53.65 25.34-92.73 76.52-84.51z"/><path d="M101.19 32.42C55.39 26.59 11 61.63 33.12 109.98c15.46 33.78 58.42 54.41 95.97 46.02 53.72-11.99 58.53-68.38 21.29-101.3 43.07 33.28 36.39 94.21-20.52 106.78-39.77 8.83-85.1-12.82-101.25-48.35-23.25-51.25 24.03-88.58 72.58-80.71z"/></g></svg>