<svg width="20" height="20" fill="none" xmlns="http://www.w3.org/2000/svg"><path d="M16.058 20H3.942l1.702-1c2.403-1.5 3.104-2.6 3.204-3.4v-.3c-1.602 1.2-3.604 1.7-5.307 1.3C2.04 16.2.738 14.9.137 13-1.265 8.6 8.548 1.1 9.75.3l.3-.3.3.3c1.102.8 10.915 8.3 9.513 12.8-.6 1.9-1.802 3.2-3.505 3.6-1.702.4-3.604-.1-5.307-1.3v.3c.1.7.801 1.9 3.205 3.4l1.802.9zm-8.311-1.1h4.506c-1.302-1-2.003-2.1-2.203-3.1v-.3.3c-.2 1-1.001 2-2.303 3.1zm3.104-5.4l.4.4c1.503 1.4 3.305 2 4.907 1.6 1.302-.3 2.203-1.3 2.704-2.8.901-3-5.708-8.9-8.812-11.2C6.946 3.8.337 9.7 1.238 12.7c.5 1.5 1.402 2.5 2.704 2.8 1.502.4 3.404-.2 4.906-1.6l.401-.4.4.5c0 .1.401.5.401 1.1 0-.7.4-1.1.4-1.1l.401-.5z" fill="#999"/><path d="M6.847 13.2l1.202-3.7-3.105-2.3H8.85l1.201-3.7 1.202 3.7h3.905l-3.104 2.3 1.201 3.7-3.204-2.3-3.204 2.3zm3.204-3.4l1.502 1.1-.6-1.8L12.453 8h-1.902l-.5-1.7-.602 1.8H7.548L9.05 9.2 8.449 11l1.602-1.2z" fill="#999"/></svg>