<svg width="200" height="200" fill="none" xmlns="http://www.w3.org/2000/svg"><path d="M200 0H0v200h200V0z" fill="url(#paint0_radial)"/><path d="M29.334 63.731v50.998h18.12l8.982-18.716v18.716h15.7L85.53 76.156v38.573H98.3V78.476s1.562 2.438 5.116 2.32c0 0-2.187-3.539 1.211-5.74 3.398-2.203 6.561-.866 9.49 1.965a349.63 349.63 0 0 1 4.608 4.522l-4.491 4.522s-6.678 7.117-11.052.354v13.093s10.701.236 14.723-1.337 7.42-4.64 8.865-7.942v24.496h12.77V96.13l12.536 18.599h18.59V63.692h-12.693v35.702l-19.721-35.663h-11.56v8.926s-3.632-9.044-15.699-9.044H75.963l-9.724 23.985V63.613H56.163L42.416 97.546V63.771H29.334v-.04zm7.768 73.486h-1.289l-1.055-5.819-.507-3.185h-.04l-.546 3.264-1.054 5.74h-1.29l-1.757-12.307h1.445l.664 5.23.39 3.538h-.038l.547-3.499.976-5.269h1.289l.937 5.23.586 3.578h.039l.39-3.618.625-5.19h1.445l-1.757 12.307zm3.167 0V124.91h1.367v12.307h-1.367zm4.642-8.414v8.414h-1.367V124.91h1.328l2.538 6.252.86 2.241h.077v-8.454h1.367v12.307h-1.288l-2.539-6.173-.859-2.241h-.117v-.039zm7.89 0v8.414h-1.366V124.91h1.327l2.539 6.252.859 2.241h.078v-8.454h1.367v12.307h-1.289l-2.538-6.173-.86-2.241h-.117v-.039zm6.639 8.414V124.91h1.367v12.307H59.44zm4.652-8.414v8.414h-1.367V124.91h1.328l2.538 6.252.86 2.241h.078v-8.454h1.367v12.307h-1.29l-2.538-6.173-.859-2.241h-.117v-.039zm9.251 8.533c-.937 0-1.601-.275-2.07-.786-.468-.512-.703-1.259-.703-2.202v-6.056c0-.432.04-.865.118-1.297.078-.433.195-.787.43-1.101.194-.315.468-.59.858-.786.352-.197.82-.315 1.367-.315.937 0 1.64.236 2.03.747.43.472.626 1.14.665 2.005l-1.367.354c0-.55-.078-.983-.274-1.297-.195-.315-.546-.472-1.054-.472-.273 0-.508.078-.703.196a1.682 1.682 0 0 0-.43.472c-.117.197-.156.393-.195.629-.039.236-.039.472-.039.669v6.212c0 .158 0 .354.04.59.038.197.116.393.194.551.118.157.235.314.391.432.156.118.39.157.664.157.43 0 .781-.118 1.054-.354.274-.235.39-.55.39-.983v-2.948h-1.405v-1.219h2.812v3.971c0 .472-.078.865-.234 1.219a2.8 2.8 0 0 1-.586.865c-.235.236-.547.393-.899.511a2.316 2.316 0 0 1-1.054.236zm10.471-12.426c.625 0 1.133.079 1.523.236.39.158.703.394.938.708.234.315.39.708.468 1.14.078.433.118.983.118 1.534 0 .511-.04.983-.118 1.455a2.881 2.881 0 0 1-.468 1.179c-.235.354-.547.59-.977.787-.43.196-.937.275-1.64.275h-1.015v4.954h-1.367v-12.307h2.538v.039zm-1.093 6.056h.937c.43 0 .742-.079 1.016-.197.234-.118.43-.315.585-.511.156-.197.235-.472.274-.747.039-.275.039-.59.039-.905 0-.314-.04-.629-.078-.943a1.718 1.718 0 0 0-.274-.787c-.156-.236-.312-.393-.546-.511-.235-.118-.586-.196-.977-.196h-.976v4.797zm11.042 2.949c0 1.101-.195 1.926-.625 2.516-.43.59-1.171.905-2.187.905-1.015 0-1.718-.276-2.147-.826-.43-.551-.625-1.298-.625-2.202v-6.055c0-.433.039-.865.117-1.258.078-.394.234-.787.43-1.101.195-.315.468-.59.859-.787.351-.196.82-.275 1.406-.275.624 0 1.093.079 1.484.275.351.158.663.393.859.708.195.315.312.668.39 1.062.078.393.078.865.078 1.376v5.662h-.039zm-1.406-5.898c0-.197 0-.433-.039-.669-.039-.235-.078-.432-.195-.589-.117-.158-.234-.354-.43-.472-.195-.118-.43-.197-.78-.197-.352 0-.625.079-.82.236-.196.157-.313.354-.43.59-.078.236-.156.472-.156.747s-.04.472-.04.668v5.938c0 .157 0 .354.04.55.039.197.117.393.195.551.117.157.234.314.43.432.195.118.429.157.702.157.274 0 .547-.039.703-.157.195-.118.352-.275.43-.432.117-.197.195-.394.234-.629.04-.236.078-.472.078-.708v-6.016h.078zm7.931 9.2l-2.226-5.898-1.21 2.32v3.578h-1.367V124.91h1.367v6.134h.039l2.929-6.134h1.367l-2.383 4.876 2.812 7.431h-1.328zm2.466 0V124.91h5.234v1.298h-3.828v4.128h3.32v1.298h-3.32v4.325h3.828v1.297h-5.234v-.039zm10.857 0l-1.718-5.387h-1.328v5.387h-1.367V124.91h2.656c.976 0 1.718.275 2.187.865.468.59.703 1.455.703 2.635a5.6 5.6 0 0 1-.313 1.887c-.195.55-.624.944-1.249 1.258l1.835 5.662h-1.406zm-.234-8.807c0-.315-.039-.63-.078-.905a1.902 1.902 0 0 0-.274-.708 1.014 1.014 0 0 0-.546-.432c-.235-.118-.508-.157-.859-.157h-1.055v4.325h1.172c.312 0 .585-.039.781-.157.195-.118.39-.236.507-.433.118-.197.196-.393.274-.668.039-.276.078-.551.078-.865zm7.801.393v8.414h-1.367V124.91h1.328l2.538 6.252.859 2.241h.079v-8.454h1.366v12.307h-1.288l-2.539-6.173-.859-2.241h-.117v-.039zm6.57 8.414V124.91h5.233v1.298h-3.827v4.128h3.319v1.298h-3.319v4.325h3.827v1.297h-5.233v-.039zm8.974-11.009v11.009h-1.367v-11.009h-2.07v-1.298h5.507v1.298h-2.07zm10.154 11.009h-1.289l-1.055-5.819-.507-3.185h-.039l-.547 3.264-1.054 5.74h-1.289l-1.758-12.307h1.445l.664 5.23.391 3.538h.039l.547-3.499.976-5.269h1.289l.937 5.23.586 3.578h.039l.39-3.618.625-5.19h1.445l-1.835 12.307zm8.442-3.302c0 1.101-.196 1.926-.625 2.516-.43.59-1.172.905-2.187.905-1.016 0-1.719-.276-2.148-.826-.43-.551-.625-1.298-.625-2.202v-6.055c0-.433.039-.865.117-1.258.078-.394.234-.787.43-1.101a2.1 2.1 0 0 1 .859-.787c.351-.196.82-.275 1.406-.275.625 0 1.093.079 1.484.275.351.158.664.393.859.708.195.315.312.668.39 1.062.079.393.079.865.079 1.376v5.662h-.039zm-1.367-5.898c0-.197 0-.433-.039-.669-.039-.235-.078-.432-.196-.589a.996.996 0 0 0-.429-.472c-.196-.118-.43-.197-.781-.197-.352 0-.625.079-.82.236-.196.157-.313.354-.43.59-.078.236-.156.472-.156.747s-.039.472-.039.668v5.938c0 .157 0 .354.039.55.039.197.117.393.195.551.117.157.234.314.43.432.195.118.429.157.703.157.273 0 .546-.039.703-.157.195-.118.351-.275.429-.432.117-.197.195-.394.234-.629.04-.236.079-.472.079-.708v-6.016h.078zm7.535 9.2l-1.718-5.387h-1.328v5.387h-1.367V124.91h2.656c.976 0 1.718.275 2.187.865.468.59.703 1.455.703 2.635a5.6 5.6 0 0 1-.313 1.887c-.195.55-.624.944-1.249 1.258l1.835 5.662h-1.406zm-.234-8.807c0-.315-.039-.63-.078-.905a1.902 1.902 0 0 0-.274-.708 1.014 1.014 0 0 0-.546-.432c-.235-.118-.508-.157-.859-.157h-1.055v4.325h1.172c.312 0 .585-.039.781-.157.195-.118.39-.236.507-.433.118-.197.196-.393.274-.668.039-.276.078-.551.078-.865zm7.85 8.807l-2.226-5.898-1.211 2.32v3.578h-1.367V124.91h1.367v6.134h.039l2.929-6.134H170l-2.382 4.876 2.812 7.431h-1.328z" fill="#fff"/><defs><radialGradient id="paint0_radial" cx="0" cy="0" r="1" gradientUnits="userSpaceOnUse" gradientTransform="rotate(45) scale(282.843)"><stop stop-color="#3B6194"/><stop offset="1" stop-color="#102535"/></radialGradient></defs></svg>