<svg width="72" height="72" fill="none" xmlns="http://www.w3.org/2000/svg"><path d="M70.42 36.79C70.42 56.237 54.654 72 35.21 72c-2.048 0-4.033-.17-5.985-.506a1.049 1.049 0 0 1-.845-.793C25.626 57.748 15.75 47.43 3.045 44.039a3.84 3.84 0 0 1-2.823-3.27A35.486 35.486 0 0 1 0 36.79C0 17.345 15.764 1.58 35.21 1.58c19.398 0 35.21 15.812 35.21 35.21z" fill="#56679C"/><path d="M66.245 5.753c-7.67-7.67-20.15-7.67-27.822 0L20.34 23.837c-7.67 7.67-7.67 20.152 0 27.822 7.67 7.671 20.151 7.671 27.822 0l18.084-18.084c7.671-7.67 7.671-20.151 0-27.822zM59.29 26.619L41.205 44.704c-3.835 3.835-10.075 3.835-13.91 0-3.836-3.835-3.836-10.076 0-13.911l18.084-18.085c3.835-3.835 10.076-3.835 13.91 0 3.836 3.836 3.836 10.076 0 13.911z" fill="#F5DC90"/><path d="M63.494 16.912c3.835 3.836 3.835 10.076 0 13.912L45.41 48.908c-3.836 3.835-10.076 3.835-13.912 0a9.795 9.795 0 0 1-1.777-2.427c3.704 1.918 8.382 1.326 11.485-1.777L59.29 26.619c3.103-3.103 3.695-7.78 1.777-11.484a9.804 9.804 0 0 1 2.427 1.777zM42.627 9.957C49.583 3 60.496 2.353 68.19 8.013a19.69 19.69 0 0 0-1.944-2.26c-7.67-7.67-20.15-7.67-27.822 0L20.34 23.837c-7.67 7.67-7.67 20.152 0 27.822.715.715 1.47 1.363 2.26 1.944-5.66-7.693-5.012-18.605 1.944-25.562L42.627 9.957z" fill="#F5B65D"/><path d="M.227 40.794c1.049-8.575 5.313-17.479 12.575-24.74 3.55-3.551 7.495-6.386 11.602-8.478a3.086 3.086 0 0 1 3.583.566l35.436 35.437a3.084 3.084 0 0 1 .566 3.582c-2.092 4.107-4.927 8.051-8.478 11.603-7.698 7.698-17.243 12.028-26.285 12.73-15.304-2.622-27.236-15.12-29-30.7z" fill="#F19B0B"/><path d="M35.394 15.551L63.422 43.58a3.084 3.084 0 0 1 .566 3.583c-2.092 4.106-4.927 8.051-8.478 11.602-3.962 3.962-8.412 7.032-13.032 9.173-19.922 9.239-40.68-11.52-31.442-31.442 2.142-4.62 5.212-9.07 9.173-13.031 3.552-3.552 7.497-6.387 11.603-8.479a3.084 3.084 0 0 1 3.582.566z" fill="#F5C02C"/><path d="M26.858 54.528c-.573 1.62-2.64 2.088-3.854.873l-6.843-6.842c-1.214-1.215-.746-3.281.874-3.854l5.742-2.03a.715.715 0 0 0 .454-.862c-.862-3.133-.07-6.625 2.392-9.087 3.658-3.658 9.622-3.638 13.257.043a9.344 9.344 0 0 1-.043 13.171c-2.464 2.464-5.958 3.255-9.093 2.39a.713.713 0 0 0-.857.457l-2.03 5.741z" fill="#47547D"/><path d="M23.003 55.402L20.54 52.94c-1.214-1.214-.746-3.28.874-3.854l2.989-1.056c1.739-.615 2.915-2.27 2.873-4.114a9.295 9.295 0 0 1 2.726-6.81 9.347 9.347 0 0 1 10.653-1.817 9.347 9.347 0 0 1-1.819 10.653c-2.629 2.629-6.431 3.353-9.718 2.194l-2.26 6.394c-.573 1.62-2.64 2.088-3.855.873z" fill="#56679C"/><path d="M26.746 13.222a2.311 2.311 0 1 1-3.269 3.268 2.311 2.311 0 0 1 3.269-3.268zm31.596 31.596a2.311 2.311 0 1 0-3.268 3.269 2.311 2.311 0 0 0 3.268-3.27zM4.407 37.605a2.311 2.311 0 1 0 3.27 3.269 2.311 2.311 0 0 0-3.27-3.269zm26.719 26.718a2.312 2.312 0 1 0 3.27 3.27 2.312 2.312 0 0 0-3.27-3.27zM10.839 22.374a2.31 2.31 0 1 0 3.268 3.268 2.311 2.311 0 0 0-3.268-3.268zm34.864 34.865a2.311 2.311 0 1 0 3.27 3.268 2.311 2.311 0 0 0-3.27-3.268z" fill="#D98800"/></svg>