<svg width="200" height="200" viewBox="0 0 200 200" fill="none" xmlns="http://www.w3.org/2000/svg">
<path d="M100 200C44.8 200 0 155.2 0 100C0 44.8 44.8 0 100 0C155.2 0 200 44.8 200 100C200 155.2 155.2 200 100 200Z" fill="#BBBBBB"/>
<path d="M59.2972 64.57C45.4371 64.57 34.2771 79.42 34.2771 97.69C34.2771 116.95 45.1671 131.71 59.2972 131.71C73.1571 131.71 84.2272 116.86 84.2272 98.14C84.2272 79.42 73.2472 64.57 59.2972 64.57ZM59.2071 78.07C65.5972 78.07 69.8271 86.26 69.8271 98.41C69.8271 110.56 65.5972 118.75 59.2972 118.75C52.9072 118.75 48.6771 110.65 48.6771 98.14C48.6771 86.26 52.9971 78.07 59.2071 78.07ZM92.3482 130H106.118V105.61H121.328V93.64H106.118V78.88H122.588V66.28H92.3482V130ZM166.499 69.43C161.549 66.01 157.499 64.57 152.909 64.57C138.599 64.57 127.529 79.24 127.529 98.23C127.529 116.95 138.599 131.71 152.639 131.71C156.959 131.71 160.919 130.45 165.329 127.57L166.949 112.54C161.459 117.49 159.029 118.75 154.709 118.75C146.879 118.75 141.929 110.74 141.929 98.05C141.929 85.81 146.609 78.07 154.079 78.07C157.589 78.07 160.559 79.69 164.879 83.83L166.499 69.43Z" fill="white"/>
</svg>
