<svg viewBox="0 0 200 200" xmlns="http://www.w3.org/2000/svg"><path d="m0 0h200v200h-200z" fill="#09381f"/><path d="m97.43 145.81v-92.84c4.26 0 8.44-.1 12.61.02 8.54.25 17.31-.52 25.58 1.16 23.38 4.74 37.83 25.23 36.21 49.78-1.43 21.66-19.73 40.04-42.46 41.75-10.5.78-21.1.13-31.94.13zm16.61-6.75c18.8 2.97 34.71-7.39 38.15-25.18 1.82-9.43 1.85-19.79.03-29.22-3.48-18.11-18.42-25-38.18-25zm-83.82-44.67v-41.06h46.35c.15 2.94.29 8.22.37 9.78-5.29-5.47-22.87-3.68-34.4-4.29v24.81c4.09 0 8.1-.15 12.1.02 24.88 1.06 39.59 24.84 28.63 46.26-3.88 7.59-10.44 11.99-18.3 14.48-12.22 3.88-24.47 3.23-36.92-.08v-10.61c5.65 4.4 12.17 5.99 18.53 6.85 7.02.94 13.11-2.26 17.77-7.6 7.07-8.1 7.9-23.48 1.97-33.08-6.42-10.37-19.72-13.74-36.1-5.48z" fill="#fff"/></svg>