<svg width="93" height="20" fill="none" xmlns="http://www.w3.org/2000/svg"><path d="M18.34 7.462h.524c.321 0 .528-.191.528-.52 0-.32-.168-.53-.528-.53h-.523v1.05zm0-1.777h.481c.317 0 .518-.14.518-.442 0-.296-.217-.457-.518-.457h-.48v.9zm-1.613 2.702V7.88c.18-.07.286-.209.292-.362V4.703c-.006-.154-.111-.292-.292-.36v-.507h2.269c.407 0 .862-.006 1.214.186.388.207.517.59.517.967 0 .52-.238.876-.82 1.018v.011c.667.075.898.542.898 1.074 0 .371-.098.785-.437 1.024-.37.265-.844.271-1.299.271h-2.342zm6.267-1.514c-.255.09-.786.202-.786.5 0 .165.08.355.339.355.23 0 .284-.028.447-.128v-.727zm.083 1.263c-.303.222-.687.323-1.081.323-.668 0-1-.412-1-.954 0-.67.374-.867 1.018-1.053l.96-.26v-.305c0-.165-.151-.3-.352-.3-.23 0-.39.136-.39.3v.326h-1.08v-.729c.493-.307 1.026-.507 1.62-.507.383 0 .703.052 1.025.265.4.276.407.627.4 1.015v1.235c0 .175-.018.329.177.451l.086.448h-1.296m23.294-.929h.523c.322 0 .529-.191.529-.52 0-.32-.169-.53-.529-.53h-.523v1.05zm0-1.777h.48c.318 0 .518-.14.518-.442 0-.296-.216-.457-.517-.457h-.48v.9zm-1.614 2.702V7.88c.182-.07.287-.209.292-.362V4.703c-.006-.154-.11-.292-.292-.36v-.507h2.27c.407 0 .862-.006 1.214.186.389.207.517.59.517.967 0 .52-.237.876-.82 1.018v.011c.667.075.898.542.898 1.074 0 .371-.098.785-.437 1.024-.37.265-.845.271-1.3.271h-2.342zm6.248-1.514c-.255.09-.786.202-.786.5 0 .165.08.355.338.355.23 0 .285-.028.447-.128v-.727zm.083 1.263c-.303.222-.687.323-1.082.323-.667 0-1-.412-1-.954 0-.67.375-.867 1.019-1.053l.96-.26v-.305c0-.165-.152-.3-.352-.3-.23 0-.39.136-.39.3v.326h-1.08v-.729c.492-.307 1.025-.507 1.62-.507.383 0 .703.052 1.024.265.4.276.407.627.4 1.015v1.235c0 .175-.017.329.177.451l.087.448H51.26l-.086-.255zM26.094 5.253c.395-.232.793-.283.988-.276.299.01.516.096.662.223.26.218.291.462.291.749v1.516c0 .165.068.35.256.44v.487h-1.438c-.085-.34-.079-.696-.079-1.041V6.185c0-.02.018-.174-.042-.297-.098-.127-.342-.223-.579-.127v1.742c0 .164-.018.35.177.44v.449h-1.7v-.449a.445.445 0 0 0 .263-.42V6.02c0-.18-.08-.297-.262-.414v-.56h1.462m28.153.207c.395-.232.794-.283.99-.276.297.01.515.096.661.223.261.218.291.462.291.749v1.516c0 .165.068.35.256.44v.487h-1.438c-.085-.34-.078-.696-.078-1.041V6.185c0-.02.018-.174-.043-.297-.097-.127-.342-.223-.579-.127v1.742c0 .164-.017.35.177.44v.449h-1.699v-.449a.446.446 0 0 0 .262-.42V6.02c0-.18-.08-.297-.262-.414v-.56h1.462m-23.685.767c-.066-.04-.289-.065-.372-.065-.415 0-.47.355-.47.536v.773c0 .172.078.592.476.592.072 0 .3-.02.366-.055v-1.78zm1.523-.32c-.188.101-.262.245-.262.414v2.33c0 .377.019.887-.315 1.168-.328.282-.751.33-1.188.33-.638 0-1.075-.217-1.634-.488v-.633h1.158c0 .038.006.246.043.321.042.074.195.126.31.126.316 0 .366-.441.366-.633v-.212c-.255.17-.614.244-.887.244-.946 0-1.179-.61-1.179-1.342v-.656c0-.727.082-1.485 1.112-1.485.34 0 .717.08.99.26v-.19h1.487v.446zm1.554.66l.46-.342c.163-.156.202-.345.202-.637v-.133h1.364v.448c-.048.022-.182.07-.285.18l-.782.688.782 1.126c.097.174.17.36.4.456v.448h-1.217l-.911-1.456h-.012V7.5c0 .18.068.318.262.44v.448h-1.7V7.94c.183-.122.263-.24.263-.42V4.726c0-.181-.068-.319-.262-.441v-.448h1.437m24.429 2.317l.46-.342c.163-.156.2-.345.2-.637v-.133h1.365v.448c-.049.022-.182.07-.286.18l-.782.688.782 1.126c.098.174.171.36.402.456v.448h-1.218l-.91-1.456h-.013V7.5c0 .18.068.318.262.44v.448h-1.7V7.94c.183-.122.263-.24.263-.42V4.726c0-.181-.068-.319-.262-.441v-.448h1.437M40.742 6.153l.46-.342c.164-.156.202-.345.202-.637v-.133h1.364v.448c-.048.022-.183.07-.285.18l-.782.688.782 1.126c.098.174.17.36.4.456v.448h-1.217l-.91-1.456h-.014V7.5c0 .18.069.318.263.44v.448h-1.7V7.94c.182-.122.263-.24.263-.42V4.726c0-.181-.069-.319-.262-.441v-.448h1.436M37.08 7.392c0 .18.139.456.408.456.3 0 .414-.276.414-.456V6.087c0-.18-.101-.5-.409-.5-.307 0-.413.314-.413.5v1.305zm2.117-.276c0 .372-.012.791-.36 1.052-.345.26-.854.292-1.291.292-.396 0-.955-.028-1.288-.224-.468-.27-.468-.68-.468-1.12v-.87c0-.362.006-.755.365-.999.346-.239.814-.27 1.244-.27.389 0 .972.025 1.306.196.461.244.492.648.492 1.073v.87zm52.638 9.091c.007.513-.071.524-.324.579h-3.084c-.227.012-.436-.126-.449-.378l.007-4.079c-.051-.09-.097-.185-.205-.206-.096-.007-.194.015-.245.08l-.073.163-.005 3.96c0 .251-.105.487-.508.46H84.1c-.171.012-.591.005-.604-.39l.027-4.03c-.03-.14.009-.279-.265-.279l-.376-.018c-.198.018-.214-.108-.214-.216v-.848c.034-.161.089-.192.505-.192h1.802c.288 0 .25.319.25.319l.01 4.077c.023.087.037.212.139.249.112.066.212.048.337.02 0 0 .152-.056.152-.292l-.01-3.607c.006-.263.016-.68.58-.76.467 0 1.968-.007 2.536 0 .293 0 .575.058.643.361l.002 4.153a.315.315 0 0 0 .163.19c.147.036.248.016.316-.08l.052-.09.035-1.248-.005-2.98c0-.216-.017-.324.272-.324h1.135c.187.012.252.09.26.27l-.008 5.136zm-9.666.314c.013.25-.139.264-.237.25H80.68s-.236.027-.236-.28l-.013-4.157c-.022-.132-.07-.147-.182-.235-.167-.06-.25-.036-.436-.022-.315.102-.175.5-.212.772l-.005 3.38c0 .403.042.543-.306.543h-3.254c-.242.003-.503-.014-.501-.571l-.011-3.882c-.032-.14-.057-.276-.25-.278 0 0-.338.014-.49 0-.166-.012-.166-.207-.166-.207l.003-.853c0-.18.271-.18.271-.18l1.979.005s.279.028.306.333l.007 4.16c-.007.102.087.191.161.243a.622.622 0 0 0 .457-.015c.096-.059.14-.118.126-.258l.006-3.964c.03-.183.065-.486.441-.486h2.975c.642-.018.823.108.823.595l-.004 5.107zm-7.44.156c0 .125-.095.112-.196.116l-2.138-.004c-.225.012-.276-.066-.348-.21l-.008-5.623s-.014-.14.134-.14h1.441l.16.11-.015 4.283c.015.168 0 .32.163.378 0 0 .546.005.683.005.14 0 .134.164.134.164l-.01.921zm-3.404-.453c-.051.243-.175.494-.424.558 0 0-4.163-.008-4.155-.01-.334.002-.37-.13-.453-.344 0 0 .004-1.425.013-2.114 0-.082.105-.213.169-.228.177-.016 1.289-.007 1.289-.007.217 0 .204.126.234.288v.973c.05.038.073.199.325.199l.996.003c.194.015.243-.126.273-.265l.007-2.925c.022-.17-.084-.34-.374-.327l-.728.011c-.136-.011-.316.042-.335-.21 0 0 0-.559-.004-.964l.088-.053 2.621-.012c.23.053.43.11.45.452l.008 4.975zm-5.746.147c.022.312-.247.362-.439.412l-2.563-.008c-.12.016-.209.013-.223-.134-.008-.17 0-.56 0-.937 0 0-.035-.18.198-.18l1.07-.011c.198 0 .29-.108.27-.306 0 0-.01-.796 0-1.046-.03-.14-.122-.237-.27-.289l-2.484-.006c-.335 0-.48-.145-.502-.457l.008-1.977c-.029-.455.201-.612.597-.612h4.13c.066.016.251-.009.251.325v.72c0 .27-.25.228-.408.24l-2.697.014c-.133.044-.184.146-.199.277-.02.134.06.207.148.289.168.07.396.014.58.05l2.2-.016c.312.02.333.208.333.585v3.067m-.02 3.47c-.126.11-.299.066-.448.096l-1.05-.016c-.051-.036-.147-.014-.147-.103-.11-.381.19-1.013-.26-1.213-.388-.087-.843 0-1.224-.08-.045-.352-.03-.743-.014-1.101l.064-.061c.876-.02 1.75-.02 2.624 0 .162.075.338.14.413.317.042.102.073.221.08.338l-.038 1.822zm-5.513-3.259s.01.206-.168.206h-1.32c-.217 0-.164-.182-.18-.271l.002-3.952a.566.566 0 0 0-.373-.456h-1.153c-.252 0-.26.132-.282.21l-.006 4.349s.045.12-.188.12c0 0-1.294.031-1.43.016-.14-.016-.115-.209-.115-.209v-5.55c-.018-.162.092-.229.308-.229h4.074c.612 0 .831.14.831.899v4.867zm-6.083-.137c0 .235-.055.343-.343.343 0 0-2.685.002-2.703 0-.361 0-.319-.098-.319-.156 0 0-.017-.595-.017-.848 0-.25.178-.286.178-.286l1.083-.002c.113.005.378.073.378-.235v-.847c0-.36-.054-.395-.323-.413l-2.45.004c-.053-.059-.148-.014-.207-.051-.177-.074-.265-.236-.3-.411v-2.095c-.017-.296.072-.632.865-.632l3.565.005c.406 0 .582-.065.582.314v.83c0 .252-.181.234-.451.216l-2.49.002c-.102.03-.213.058-.271.154-.036.11-.053.273.007.382l.138.089 2.634-.015c.323.035.453.485.446.698l-.002 2.954zm-5.624.055s.046.282-.242.282H46.87c-.199 0-.252-.199-.252-.199l.004-4.06c-.007-.125.011-.345-.239-.375l-1.128-.01c-.378.018-.235.216-.27.342 0 0 .09.306-.235.253h-1.297s-.197.018-.197-.18v-1.407c.017-.433.305-.336.52-.336l4.08.006c.212.038.434.215.486.43l-.004 5.254zm-12.769 0s.046.282-.242.282h-1.225c-.199 0-.253-.199-.253-.199l.005-4.06c-.008-.125.011-.345-.24-.375l-1.127-.01c-.379.018-.235.216-.27.342 0 0 .09.306-.236.253h-1.297s-.198.018-.198-.18v-1.407c.019-.433.307-.336.522-.336l4.079.006c.212.038.435.215.487.43l-.005 5.254zm7.092.023s.01.265-.188.265c-.343 0-1.226.005-1.333 0-.174-.01-.192-.246-.192-.246l.018-4.007c-.017-.117-.068-.248-.177-.308l-.161-.051H38.07a.384.384 0 0 0-.266.242l.007 2.763c.014.126.118.222.23.278.16-.02.307.038.432-.05l.088-.14.015-1.955c.008-.13-.061-.414.335-.469h1.334c.306 0 .306.163.306.163.015.337 0 .902 0 .902.018.143-.252.143-.38.14-.095.014-.196.095-.179.328v2.09c-.036.31-.432.311-.638.32h-2.522c-.206-.046-.48-.01-.535-.374l.008-5.26c.028-.256.25-.334.456-.334h5.45c.182.06.267.173.362.355.046.112.06.243.09.36l-.003 4.988z" fill="#fff"/><path d="M31.763 16.775l-2.861.01c-.325 0-.386-.252-.452-.414-.023-.536 0-1.095-.067-1.617-.021-.095-.094-.147-.183-.17-.096-.006-.162.045-.229.082l-.08.164-.008 1.491c.018.454-.243.454-.451.454l-2.803.002a.567.567 0 0 1-.367-.252c-.148-.433-.082-.96-.104-1.417a49.65 49.65 0 0 0-.05-2.749c-.096-.264-.645-.213-.645-.213-.105.03-.213-.024-.213-.167l.012-.866c.007-.156.03-.275.078-.312h1.983c.255.037.423.242.496.492.013.2.036.684.036.684l.074 3.256c.029.08.095.155.169.206.11.021.242.021.323-.051l.081-.177c.022-.56-.11-1.191.058-1.713.206-.287.624-.236.943-.242.233 0 .578.029.821-.074l.051-.14s.002-1.862-.007-2c-.017-.29.127-.228.127-.228h1.387c.181 0 .235.047.217.227l.013 2.084c.028.043.058.08.11.107l1.4.053c.232.027.394.1.448.334l.001 2.747c-.002.28-.093.409-.308.409zm-1.051-1.513c.015-.206.067-.472-.11-.61-.066-.051-.177-.051-.28-.051-.124.006-.176.124-.197.228 0 .227-.037.513.174.61.09.05.208.005.303-.016.066-.03.089-.088.11-.161zm-8.035.874c-.021.2-.125.404-.3.508a.839.839 0 0 1-.444.145H17.8c-.36-.046-.731-.09-.901-.451-.05-.56-.095-1.157-.05-1.731l.159-.08c.5-.015 1.142-.021 1.543 0 .176.279-.103.802.316.91.566.046 1.205.032 1.792.017.09-.008.164-.037.243-.067.191-.25.066-.646.103-.947.022-.148-.074-.28-.177-.339-.425-.074-.91-.037-1.351-.03l-2.116.03a.65.65 0 0 1-.492-.537 32.958 32.958 0 0 1 0-2.123c.036-.353.124-.543.433-.625h5.118c.08.022.235.083.217.282v.938s0 .163-.288.163l-3.497.014c-.095.006-.198.095-.227.19 0 .11-.023.228.072.302l.134.073c1.205.05 2.186-.037 3.428.03.236.058.39.257.41.493l.008 2.835zm-9.57-6.672c-.163-.618-.4-1.075-.78-1.773-.125-.198-.286-.42-.43-.654C10.242 4.579 6.972.29 6.673.016c0 0-.02-.016-.037-.016-.02 0-.04.016-.04.016-.297.275-3.568 4.563-5.225 7.02-.143.236-.304.457-.43.655-.38.698-.616 1.155-.78 1.773a7.362 7.362 0 0 0-.029 2.913c.167.8.928 1.618 1.693 2.228l1.17.93s3.272 2.36 3.576 2.508c0 0 .03.02.064.02s.063-.02.063-.02c.305-.149 3.574-2.508 3.574-2.508l1.171-.93c.766-.61 1.525-1.428 1.692-2.228a7.345 7.345 0 0 0-.027-2.913zm-7.498 6.153c-.023.035-.076.024-.114.02-.191-.134-.665-.477-.665-.477-.815-.604-1.637-1.161-2.418-1.782-1.198-1.319-1.077-2.635-.71-3.958.014-.085.054-.214.166-.237.338.499 1.055 1.526 1.055 1.526.697 1.002 1.544 1.905 2.344 2.846.55.505.328 1.353.342 2.062zm1.027-2.615c-.017 0-.043-.012-.068-.038-1.037-1.228-2.214-2.616-3.246-3.85-.187-.312-.377-.613-.398-1.015-.013-.315-.032-.604.228-.998 0 0 .172-.25.221-.324 0 0 2.115-2.973 3.228-4.383 0 0 .015-.019.034-.019.015 0 .03.02.03.02 1.113 1.408 3.227 4.382 3.227 4.382l.222.324c.26.394.24.683.226.998-.02.402-.211.702-.397 1.015-1.033 1.234-2.209 2.622-3.245 3.85-.025.026-.05.037-.062.038zm4.212.376c-.78.621-1.604 1.178-2.419 1.782 0 0-.473.343-.664.478-.038.003-.091.014-.114-.02.015-.71-.208-1.558.342-2.063.8-.94 1.647-1.844 2.344-2.846 0 0 .717-1.027 1.055-1.526.11.023.151.153.165.238.369 1.322.489 2.638-.709 3.957z" fill="#fff"/></svg>