<svg width="50" height="50" fill="none" xmlns="http://www.w3.org/2000/svg"><rect x="50" y="50" width="50" height="50" rx="25" transform="rotate(-180 50 50)" fill="#AF3185" fill-opacity=".1"/><mask id="a" maskUnits="userSpaceOnUse" x="10" y="0" width="30" height="50"><path fill-rule="evenodd" clip-rule="evenodd" d="M10.484 0h29.04v50h-29.04V0z" fill="#fff"/></mask><g mask="url(#a)"><path fill-rule="evenodd" clip-rule="evenodd" d="M12.085 43.548h25.806v2.42a2.425 2.425 0 0 1-2.421 2.418H14.516a2.423 2.423 0 0 1-2.42-2.418l-.01-2.42zm-1.6 2.42A4.035 4.035 0 0 0 14.514 50h20.968a4.034 4.034 0 0 0 4.04-4.028v-4.037H10.484v4.034zm27.418-5.647h1.614v-8.064h-1.614v8.064zM12.086 4.031a2.423 2.423 0 0 1 2.42-2.417h20.967a2.424 2.424 0 0 1 2.421 2.417v.807H12.086V4.03zm0 2.42H37.89v8.065h1.632V4.031A4.035 4.035 0 0 0 35.487 0H14.515a4.035 4.035 0 0 0-4.03 4.03v4.035h1.6V6.451zm-1.602 33.87H12.1V25.804h-1.615V40.32z" fill="#AF3185"/></g><mask id="b" maskUnits="userSpaceOnUse" x="0" y="0" width="50" height="50"><path fill-rule="evenodd" clip-rule="evenodd" d="M0 50h50V0H0v50z" fill="#fff"/></mask><g mask="url(#b)" fill-rule="evenodd" clip-rule="evenodd" fill="#AF3185"><path d="M20.969 46.777h8.064v-1.614H20.97v1.614zM1.613 22.58h11.29V11.288H1.612V22.58zM0 24.194h14.516V9.68H0v14.515z"/><path d="M3.227 14.516h8.065v-1.614H3.227v1.614zm0 3.228h8.065V16.13H3.227v1.613zm3.222 3.223h1.614v-1.614H6.449v1.614zm3.23 0h1.614v-1.614H9.68v1.614zm-6.452 0H4.84v-1.614H3.227v1.614zm33.87 8.065h11.29v-11.29h-11.29v11.29zm-1.613 1.614H50V16.131H35.484v14.515z"/><path d="M38.71 20.967h8.066v-1.614h-8.065v1.614zm0 3.227h8.066V22.58h-8.065v1.614zm3.224 3.225h1.614v-1.614h-1.614v1.614zm3.23 0h1.613v-1.614h-1.613v1.614zm-6.453 0h1.613v-1.614h-1.613v1.614zm-5.095 5.82l.747 2.248H15.637l.747-2.248a2.419 2.419 0 0 1 1.53-1.528l2.593-.866 1.897 3.802 2.212-3.191h.759l2.146 3.214 1.92-3.84 2.642.881a2.421 2.421 0 0 1 1.533 1.525v.003zM18.548 23.24c.259.097.532.148.808.151h.052a3.984 3.984 0 0 0 1.13 2.32l1.805 1.81a2.41 2.41 0 0 0 1.714.708h1.89a2.392 2.392 0 0 0 1.709-.709l1.81-1.813a3.99 3.99 0 0 0 1.128-2.319h.054c.275-.003.547-.054.806-.15v6.556l-1.613-.536v-1.032h-1.614v1.424l-.905 1.813-1.084-1.634h-2.466l-1.14 1.633-.857-1.712v-1.524h-1.613v1.032l-1.614.536V23.24zm.81-3.077v1.614a.808.808 0 0 1 0-1.614zm9.675-.033v2.735a2.423 2.423 0 0 1-.709 1.708l-1.81 1.81a.802.802 0 0 1-.566.234h-1.891a.8.8 0 0 1-.57-.234l-1.81-1.81a2.432 2.432 0 0 1-.708-1.708v-3.512a1.615 1.615 0 0 1 2.58-1.307 10.533 10.533 0 0 0 5.484 2.081v.003zm2.421.84a.811.811 0 0 1-.806.809V20.16a.81.81 0 0 1 .806.806v.004zm-12.906-4.573v.001a5.11 5.11 0 0 1 9.195-3.065l.886 1.183h.404a2.424 2.424 0 0 1 2.421 2.42v1.761a2.359 2.359 0 0 0-.777-.147h-.836a8.919 8.919 0 0 1-5.324-1.774 3.216 3.216 0 0 0-5.047 1.771h-.114a2.367 2.367 0 0 0-.808.15v-2.3zm14.517.54a4.035 4.035 0 0 0-3.593-4.013l-.422-.557a6.719 6.719 0 0 0-12.085 4.03v13.98a4.05 4.05 0 0 0-2.085 2.359l-1.486 4.36h23.192l-1.457-4.37a4.052 4.052 0 0 0-2.064-2.348V16.937z"/></g></svg>