<svg width="72" height="72" fill="none" xmlns="http://www.w3.org/2000/svg"><path d="M36 72c19.882 0 36-15.425 36-34.453C72 18.519 55.882 3.094 36 3.094S0 18.519 0 37.547C0 56.575 16.118 72 36 72z" fill="#56679C"/><path d="M38.572 50.877v-7.54c-.303.072-.62.11-.946.11h-3.25c-.326 0-.643-.038-.946-.11v7.54h5.142z" fill="#FFAF10"/><path d="M35.707 50.877v-7.43h-1.33c-.327 0-.644-.038-.947-.11v7.54h2.277z" fill="#EF9614"/><path d="M35.999 40.078c-1.97 0-3.856-.347-5.597-.978v.693c0 2.099 1.778 3.8 3.972 3.8h3.25c2.193 0 3.971-1.701 3.971-3.8V39.1a16.38 16.38 0 0 1-5.596.978z" fill="#FFD00D"/><path d="M34.954 40.045a16.324 16.324 0 0 1-4.552-.945v.693c0 2.099 1.779 3.8 3.972 3.8h3.25c.22 0 .435-.017.646-.05-1.801-.283-3.194-1.724-3.316-3.498z" fill="#FFAF10"/><path d="M41.73 53.719v-2.39c0-.388-.33-.704-.734-.704h-9.992c-.404 0-.735.316-.735.703v2.39h11.462z" fill="#EF8318"/><path d="M34.678 53.719v-2.39c0-.388.33-.704.734-.704h-4.408c-.404 0-.735.316-.735.703v2.39h4.409z" fill="#DB722C"/><path d="M49.885 65.672V54.14c0-.387-.33-.703-.735-.703H22.848c-.404 0-.735.316-.735.703v11.53h27.772z" fill="#A05F33"/><path d="M24.39 65.672V54.14c0-.387.331-.703.735-.703h-2.277c-.404 0-.735.316-.735.703v11.53h2.278z" fill="#87502A"/><path d="M45.849 62.578c0 .387-.331.703-.735.703H26.887c-.404 0-.735-.316-.735-.703v-5.906c0-.387.331-.703.735-.703h18.227c.404 0 .735.316.735.703v5.906z" fill="#56679C"/><path d="M29.088 62.578v-5.906c0-.387.33-.703.734-.703h-2.935c-.404 0-.735.316-.735.703v5.906c0 .387.331.703.735.703h2.935c-.404 0-.734-.316-.734-.703z" fill="#56679C"/><path d="M52.97 65.531H19.029c-.404 0-.735.317-.735.703v1.316C23.521 70.381 29.563 72 35.999 72c6.437 0 12.478-1.618 17.706-4.45v-1.316c0-.386-.33-.703-.734-.703z" fill="#BF7E52"/><path d="M22.775 66.234c0-.386.33-.703.734-.703h-4.481c-.404 0-.735.317-.735.703v1.316a36.596 36.596 0 0 0 4.482 2.049v-3.365z" fill="#AA6B3F"/><path d="M60.724 3.599h-5.695V4.78c0 .31-.264.563-.588.563h-2.466a.144.144 0 0 0-.147.14v1.63h7.703c-.315 6.16-3.224 11.678-7.703 15.572v2.245c0 .816-.069 1.618-.2 2.4C58.642 22.61 63.234 14.81 63.234 6c0-1.325-1.126-2.402-2.51-2.402z" fill="#FFAF10"/><path d="M20.17 24.93v-2.244c-4.478-3.894-7.388-9.412-7.702-15.572h7.702v-1.63a.144.144 0 0 0-.147-.14h-2.466a.576.576 0 0 1-.587-.563V3.6h-5.695c-1.384 0-2.51 1.077-2.51 2.401 0 8.81 4.592 16.611 11.604 21.331-.13-.782-.199-1.584-.199-2.4z" fill="#FFD00D"/><path d="M20.023 5.344V24.93c0 8.443 7.153 15.288 15.975 15.288 8.823 0 15.975-6.845 15.975-15.288V5.344h-31.95z" fill="#EF8318"/><path d="M23.219 24.93V5.203h-3.192V24.93c0 8.444 7.153 15.289 15.975 15.289.535 0 1.063-.027 1.584-.077-8.068-.771-14.367-7.287-14.367-15.212z" fill="#DB722C"/><path d="M36.002 32.273c6.006 0 10.874-4.659 10.874-10.406 0-5.747-4.868-10.406-10.874-10.406-6.005 0-10.873 4.659-10.873 10.406 0 5.747 4.868 10.406 10.873 10.406z" fill="#DB722C"/><path d="M27.917 21.867c0-5.294 4.132-9.662 9.477-10.318A11.45 11.45 0 0 0 36 11.461c-6.006 0-10.874 4.659-10.874 10.406 0 5.747 4.868 10.406 10.873 10.406.474 0 .94-.032 1.396-.088-5.345-.656-9.477-5.024-9.477-10.318z" fill="#C95E23"/><path d="M39.786 28.364c-.18 0-.364-.047-.546-.139l-2.96-1.49a.68.68 0 0 0-.279-.048.682.682 0 0 0-.278.049l-2.96 1.49a1.214 1.214 0 0 1-.546.138.899.899 0 0 1-.687-.3c-.189-.214-.26-.511-.202-.837l.565-3.154c.025-.139-.067-.409-.172-.507l-2.395-2.234c-.311-.29-.424-.651-.31-.989.115-.338.428-.566.859-.626l3.31-.46c.144-.02.384-.187.45-.313l1.48-2.87c.192-.374.515-.588.886-.588.372 0 .695.214.887.588l1.48 2.87c.066.126.305.293.45.313l3.31.46c.43.06.743.288.858.626.115.338.002.698-.31.99l-2.395 2.233c-.105.098-.196.368-.172.507l.566 3.154c.058.326-.014.623-.202.837a.9.9 0 0 1-.687.3z" fill="#FFD00D"/><path d="M33.753 26.926l.613-3.418c.027-.15-.072-.442-.186-.549l-2.595-2.42c-.319-.298-.443-.662-.352-1.01l-1.358.19c-.43.06-.744.287-.858.625-.115.338-.002.698.31.99l2.394 2.233c.105.098.197.368.172.506l-.565 3.155c-.058.325.013.623.202.837a.9.9 0 0 0 .687.3c.18 0 .363-.047.546-.139l1.098-.552a1.112 1.112 0 0 1-.108-.748z" fill="#FFAF10"/><path d="M55.175 4.781c0 .387-.33.703-.734.703H17.559c-.404 0-.735-.316-.735-.703V.703c0-.387.33-.703.735-.703H54.44c.404 0 .734.316.734.703v4.078z" fill="#FFD00D"/><path d="M21.306 4.781V.703c0-.387.33-.703.735-.703h-4.482c-.404 0-.735.316-.735.703v4.078c0 .387.33.703.735.703h4.482c-.404 0-.735-.316-.735-.703z" fill="#FFAF10"/><path d="M17.046 46.547a.44.44 0 0 1-.418-.287c-.846-2.398-1.479-3.004-3.984-3.813a.424.424 0 0 1-.3-.4c0-.181.12-.342.3-.4 2.505-.81 3.138-1.415 3.984-3.813a.44.44 0 0 1 .418-.287.44.44 0 0 1 .417.287c.846 2.398 1.479 3.004 3.985 3.813.179.058.3.219.3.4 0 .18-.121.342-.3.4-2.506.809-3.139 1.415-3.985 3.813a.44.44 0 0 1-.417.287z" fill="#FFD00D"/><path d="M53.56 41.906a.35.35 0 0 1-.334-.228c-.673-1.911-1.178-2.394-3.175-3.039a.338.338 0 0 1-.239-.319c0-.144.097-.272.24-.318 1.996-.645 2.5-1.128 3.175-3.039a.35.35 0 0 1 .332-.229.35.35 0 0 1 .333.229c.674 1.911 1.179 2.394 3.176 3.039a.338.338 0 0 1 .238.318.338.338 0 0 1-.238.319c-1.997.645-2.502 1.128-3.176 3.039a.35.35 0 0 1-.333.228zM39.965 58.922h-7.934c-.406 0-.735-.315-.735-.703 0-.389.329-.703.735-.703h7.934c.406 0 .735.315.735.703 0 .388-.329.703-.735.703zm-1.764 2.531h-4.409c-.405 0-.734-.315-.734-.703 0-.388.329-.703.734-.703h4.409c.405 0 .734.315.734.703 0 .388-.329.703-.734.703z" fill="#fff"/></svg>