<svg width="200" height="200" fill="none" xmlns="http://www.w3.org/2000/svg"><path d="M200 0H0v200h200V0z" fill="#312D2A"/><path d="M157.468 108.669c-16.279-21.35-75.77-22.653-75.77-22.653V60.858h31.956c9.145 0 15.074 10.324 10.853 17.14-4.22 6.816-11.656 9.02-11.656 9.02 9.345.803 29.041 7.618 29.041 7.618 8.341-3.007 20.601-18.142 13.566-38.49C148.324 35.8 112.147 36 112.147 36H49.24v49.114C38.89 84.413 0 87.821 0 87.821c18.892-1.203 49.14 4.31 49.14 4.31V165h77.679c31.051 0 46.929-34.981 30.649-56.331zm-44.718 32.476H82v-39.492l-2.914-6.215s45.823 8.019 50.948 23.956-6.029 21.751-17.284 21.751z" fill="#EA0023"/></svg>