<svg width="51" height="50" fill="none" xmlns="http://www.w3.org/2000/svg"><rect x="50" y="50" width="50" height="50" rx="25" transform="rotate(-180 50 50)" fill="url(#paint0_radial)"/><rect x="50" y="50" width="50" height="50" rx="25" transform="rotate(-180 50 50)" fill="#6C963C"/><path d="M49.271 11.054H.734v23.519h48.537V11.054z" fill="#A4E276"/><path d="M49.271 11.054H.734v23.519h48.537V11.054z" fill="#A4E276"/><path d="M8.059 28.31V17.317a2.845 2.845 0 0 0 2.845-2.845h36.01a2.845 2.845 0 0 0 2.845 2.845V28.31a2.845 2.845 0 0 0-2.845 2.845h-36.01a2.845 2.845 0 0 0-2.845-2.845z" fill="#64C37D"/><path d="M4.152 28.31V17.317a2.845 2.845 0 0 0 2.846-2.845h36.01a2.845 2.845 0 0 0 2.845 2.845V28.31a2.845 2.845 0 0 0-2.845 2.845H6.998a2.845 2.845 0 0 0-2.846-2.845z" fill="#DCF4CA"/><path d="M8.059 28.31V17.317a2.845 2.845 0 0 0 2.845-2.845H6.998a2.845 2.845 0 0 1-2.846 2.845V28.31a2.845 2.845 0 0 1 2.846 2.845h3.906a2.845 2.845 0 0 0-2.845-2.845zm20.848 2.845a8.34 8.34 0 1 0 0-16.682 8.34 8.34 0 0 0 0 16.682z" fill="#ADDFBB"/><path d="M25.001 31.155a8.341 8.341 0 1 0 0-16.682 8.341 8.341 0 0 0 0 16.682z" fill="#A4E276"/><path d="M31.071 17.786H29.05v-1.428h-2.174v1.428h-2.078V27.84h2.078v1.428h2.174V27.84h2.022V17.786zm-26.43-6.732H.734v23.519h3.907V11.054z" fill="#64C37D"/><path d="M20.567 22.813c0-3.933 2.724-7.23 6.388-8.109a8.341 8.341 0 1 0 0 16.218c-3.664-.88-6.388-4.175-6.388-8.109z" fill="#64C37D"/><path d="M28.137 17.786h-2.022v-1.428h-2.174v1.428h-2.078V27.84h2.078v1.428h2.174v-1.428h2.023V17.786z" fill="#DCF4CA"/><path d="M24.793 17.786h1.322v-1.428h-2.174v1.428h-2.078V27.84h2.078v1.428h2.174v-1.428h-1.322V17.786z" fill="#ADDFBB"/><path d="M37.038 43.336c-8.84 5.628-20.438 4.394-27.921-3.09l-1.726 1.727a24.921 24.921 0 0 0 17.601 7.295c4.823 0 9.563-1.4 13.597-4.028l1.085 1.331 2.076-5.46-5.767.931 1.055 1.294zM12.966 6.663c8.84-5.628 20.438-4.394 27.92 3.09l1.727-1.727A24.92 24.92 0 0 0 27.09.818 24.954 24.954 0 0 0 11.415 4.76L10.33 3.428 8.254 8.89l5.767-.932-1.055-1.294z" fill="#F5B955"/><path d="M25.984 46.82a22.357 22.357 0 0 0 13.008-3.484l-1.055-1.294 3.686-.596.128-.336-5.768.932 1.055 1.294a22.347 22.347 0 0 1-11.054 3.483zm13.25-.787l.439.538.39-1.03c-.273.17-.55.334-.829.492zm-14.366 3.148a24.922 24.922 0 0 1-15.524-7.208l.78-.78a22.866 22.866 0 0 1-1.007-.946l-1.726 1.726a24.921 24.921 0 0 0 17.601 7.294c.326 0 .652-.007.977-.02a25.08 25.08 0 0 1-1.1-.066zM11.892 4.457c-.16.1-.32.2-.477.303L10.33 3.428 8.254 8.889l2.08-.336 1.558-4.096zm1.478.302A24.93 24.93 0 0 1 25.99.751a24.97 24.97 0 0 0-13.267 3.215l.647.793zm12.603-1.58a22.44 22.44 0 0 1 14.913 6.573l.947-.946a22.435 22.435 0 0 0-15.86-5.627z" fill="#46C373"/><path d="M49.271 34.573H.734v4.372h48.537v-4.372z" fill="#64C37D"/><path d="M4.64 34.573H.735v4.372h3.907v-4.372z" fill="#3FA45A"/><path d="M46.777 13.544h-1.465v1.465h1.465v-1.465zm0 17.074h-1.465v1.465h1.465v-1.465zM4.687 13.544H3.224v1.465h1.465v-1.465zm0 17.074H3.224v1.465h1.465v-1.465zm4.481-8.537H7.703v1.465h1.465v-1.465zm4.883 0h-1.465v1.465h1.465v-1.465zm-2.442 0h-1.464v1.465h1.464v-1.465z" fill="#303344"/><path d="M41.352 10.322l2.296-2.296-.518-.518A25.654 25.654 0 0 0 27.149.088 25.777 25.777 0 0 0 11.57 3.793l-1.476-1.811-2.978 7.833 8.272-1.337-1.326-1.628c8.533-5 19.239-3.646 26.305 3.42l.051.052H0v24.983h50.001V10.322h-8.649zm-13.838-7.76a23.23 23.23 0 0 0-14.942 3.482l-.695.443.774.95-3.263.527 1.175-3.09.7.858.55-.36a24.294 24.294 0 0 1 15.214-3.824 24.19 24.19 0 0 1 14.541 6.485l-.69.691a23.304 23.304 0 0 0-13.364-6.161zM48.535 33.84H1.465V11.787h47.071V33.84zm1.465 2.187H8.106v1.465h40.43v.72H1.465v-1.686H0v3.152h8.65l-2.296 2.295.517.518a25.655 25.655 0 0 0 18.12 7.51c4.773 0 9.405-1.31 13.44-3.794l1.476 1.81 2.977-7.833-8.272 1.338 1.327 1.627c-8.533 5-19.24 3.646-26.305-3.42l-.052-.051h40.42L50 36.027zm-27.513 11.41c5.212.57 10.519-.667 14.941-3.483l.695-.442-.774-.95 3.263-.527-1.174 3.09-.7-.858-.551.36a24.109 24.109 0 0 1-13.197 3.908 24.19 24.19 0 0 1-16.558-6.57l.691-.69a23.303 23.303 0 0 0 13.364 6.161z" fill="#303344"/><path d="M7.129 36.026H5.664v1.465H7.13v-1.465zm-2.441 0H3.223v1.465h1.465v-1.465zm-1.27-19.441v12.457h.732c1.165 0 2.113.948 2.113 2.113v.732h37.475v-.732c0-1.165.948-2.113 2.113-2.113h.733V16.585h-.733a2.115 2.115 0 0 1-2.113-2.113v-.732H6.263v.732a2.115 2.115 0 0 1-2.113 2.113h-.732zm38.93-1.38a3.588 3.588 0 0 0 2.77 2.77v9.678a3.588 3.588 0 0 0-2.77 2.77h-12.41a9.074 9.074 0 0 0 4.136-7.61 9.074 9.074 0 0 0-4.136-7.608h12.41zM25 30.422c-4.195 0-7.608-3.413-7.608-7.609 0-4.195 3.413-7.608 7.608-7.608 4.196 0 7.61 3.413 7.61 7.608 0 4.196-3.414 7.61-7.61 7.61zM4.883 17.974a3.588 3.588 0 0 0 2.77-2.77h12.41a9.074 9.074 0 0 0-4.136 7.61 9.074 9.074 0 0 0 4.136 7.608H7.653a3.588 3.588 0 0 0-2.77-2.77v-9.678z" fill="#303344"/><path d="M26.85 15.626h-3.64v1.427h-2.077v11.52h2.078v1.428h3.639v-1.428h2.022v-11.52H26.85v-1.428zm.557 2.892v1.667h-3.049v1.465h3.049v5.459h-2.022v1.427h-.71V27.11h-2.077v-1.667h3.049v-1.465h-3.05v-5.459h2.078V17.09h.71v1.428h2.022zm11.04 3.563h-2.865v1.465h2.865v-1.465zm4.816 0h-2.865v1.465h2.865v-1.465z" fill="#303344"/><path d="M41.832 16.04h-1.465v1.465h1.465V16.04zm-4.883 0h-3.605v1.465h3.605v-1.464zm2.442 0h-1.465v1.465h1.465V16.04z" fill="#fff"/><path d="M13.024 27.808H8.53v1.465h4.492v-1.465z" fill="#303344"/><defs><radialGradient id="paint0_radial" cx="0" cy="0" r="1" gradientUnits="userSpaceOnUse" gradientTransform="rotate(135 39.645 45.71) scale(70.7107)"><stop stop-color="#9D2777"/><stop offset=".615" stop-color="#731A56"/></radialGradient></defs></svg>