<svg width="13" height="24" fill="none" xmlns="http://www.w3.org/2000/svg"><path d="M7.739 9.41a4.219 4.219 0 1 0-3.23-7.795 4.219 4.219 0 0 0 3.23 7.794zM6.12 24a.888.888 0 0 1-.794-.491L.094 13.045a.888.888 0 0 1 .794-1.285h10.464a.888.888 0 0 1 .794 1.285L6.914 23.51A.888.888 0 0 1 6.12 24z" fill="#3C9BE0"/><path d="M6.121 9.731V1.296a4.222 4.222 0 0 1 4.218 4.217A4.222 4.222 0 0 1 6.12 9.731zm5.988 2.45a.888.888 0 0 0-.756-.421H6.121V24c.337 0 .644-.19.794-.491l5.232-10.464a.888.888 0 0 0-.038-.864z" fill="#2988C9"/></svg>