<svg width="100" height="114" fill="none" xmlns="http://www.w3.org/2000/svg"><g clip-path="url(#clip0)"><path d="M47.144 107.124c22.246 0 40.28-18.155 40.28-40.55 0-22.396-18.034-40.551-40.28-40.551-22.247 0-40.28 18.155-40.28 40.55 0 22.396 18.033 40.551 40.28 40.551z" fill="#BFE6FF"/><path d="M47.146 113.118c15.13 0 28.686-7.017 37.618-17.983l-5.43-4.478c-7.635 9.379-19.229 15.374-32.188 15.374-12.96 0-24.554-5.995-32.19-15.41L9.527 95.1c8.897 11.001 22.452 18.018 37.619 18.018z" fill="#6ABCF8"/><path d="M46.652 69.43c-.035 0-.07 0-.14-.036l-7.426 36.884c.63.141 1.26.247 1.891.353l5.675-37.201zm-2.136-1.657c-.035-.036-.035-.07-.07-.141L9.805 81.807c.245.6.49 1.163.77 1.763l33.94-15.797zm-.138-.318c0-.035-.035-.07-.035-.106L8.23 77.046c.176.635.35 1.234.526 1.834l35.622-11.425zm-.107-.67v-.141l-37.408.564c0 .635.035 1.27.07 1.904l37.338-2.327zm.038-.776c0-.035 0-.07.035-.14l-36.427-8.57c-.14.636-.28 1.235-.386 1.87l36.778 6.84zm-.037.353v-.176l-37.163-3.95c-.07.635-.105 1.27-.14 1.904l37.303 2.222zm1.75 2.891c-.035 0-.07-.035-.105-.07l-16.183 33.921c.56.282 1.156.529 1.752.776l14.536-34.627zm-1.366-1.199c-.035-.035-.035-.07-.07-.106L11.94 86.25c.316.564.63 1.093.981 1.657l31.734-19.852zm1.682 1.305c-.035 0-.07-.035-.14-.035l-11.874 35.684c.596.212 1.226.388 1.822.565l10.192-36.214zm-.628-.246c-.035-.036-.07-.036-.105-.071l-20.21 31.629c.525.353 1.085.67 1.646.988L45.71 69.112zm-.284-.212c-.035-.036-.07-.07-.14-.106L21.398 97.709c.49.423.981.811 1.507 1.2L45.426 68.9zm-.558-.53c-.035-.034-.07-.07-.07-.105L14.641 90.481c.385.529.77 1.022 1.155 1.516l29.072-23.625zm-.564-1.233c0-.036 0-.07-.035-.141L7.246 72.18c.105.635.175 1.27.315 1.904l36.743-6.946zm2.037-3.35c.035 0 .07-.036.14-.036L37.934 27.08c-.63.141-1.225.318-1.856.494l10.263 36.213zm.419-.106l-3.958-37.448c-.63.07-1.261.141-1.892.247l5.745 37.2c.035.036.07.036.105 0zm-2.384 2.01c0-.035.035-.07.035-.106L9.349 52.54c-.21.599-.42 1.198-.63 1.833l35.657 11.32zm5.64.81V66.962l3.923-.035 33.45 1.586c.035-.634.035-1.269.035-1.939v-.07H50.016zm-.735 2.011l-.105.106 26.41 26.622c.455-.458.875-.916 1.33-1.375L49.282 68.513zm-3.257-4.62c.035 0 .07-.035.105-.035L33.134 28.526c-.596.212-1.19.459-1.786.706l14.676 34.662zm-.984 4.655L17.824 94.324c.42.459.876.917 1.331 1.376l25.99-27.01a.486.486 0 0 0-.105-.142zm-.526-3.173c0-.036.036-.07.07-.106L11.38 47.956c-.28.564-.56 1.128-.84 1.727l33.974 15.692zm.141-.318c.035-.035.035-.07.07-.106L13.902 43.654c-.35.528-.7 1.057-1.05 1.622l31.803 19.781zm1.053-1.022c.035-.035.07-.035.105-.07L28.615 30.571c-.56.282-1.121.6-1.681.917l18.774 32.546zm-.843.74l.105-.106-28.021-24.93c-.42.494-.841.953-1.226 1.482l29.142 23.554zm.284-.282l.105-.106-24.763-28.209c-.49.423-.946.847-1.401 1.305l26.06 27.01zm.279-.247c.035-.035.07-.07.105-.07l-21.156-31.03c-.525.352-1.05.74-1.541 1.128l22.592 29.972zm2.978 4.937c-.035 0-.07.035-.105.035l15.096 34.415a25.784 25.784 0 0 0 1.716-.811l-16.707-33.64zm-.316.141c-.036 0-.07.035-.106.035l10.718 36.037a36.863 36.863 0 0 0 1.822-.599L48.09 69.324zm.628-.318c-.035.036-.07.07-.14.07l19.194 32.3c.56-.317 1.086-.67 1.612-1.022L48.718 69.006zm.282-.211c-.035.035-.07.07-.105.07l22.942 29.69c.49-.387.98-.81 1.47-1.198L49 68.795zm-1.575.67h-.14l1.681 37.589c.63-.036 1.261-.071 1.892-.141l-3.433-37.448zm.348-.07c-.035 0-.07 0-.105.035l6.235 37.095c.63-.106 1.26-.247 1.891-.353l-8.021-36.778zm1.719-1.164c-.035.035-.07.07-.105.141l29.457 23.167c.385-.494.77-1.023 1.156-1.552L49.492 68.231zm-2.07-4.549h.14l5.114-37.306c-.63-.07-1.261-.177-1.892-.212l-3.362 37.518zm2.488 3.632c0 .036-.035.07-.035.106l35.797 10.896c.175-.6.35-1.234.525-1.87L49.91 67.315zm.07-.353c0 .036 0 .106-.035.142l36.848 6.347c.105-.635.21-1.27.28-1.905L49.98 66.961zm-.14.67c0 .036-.035.071-.07.142l34.185 15.233c.245-.6.49-1.164.736-1.763L49.84 67.632zm-.141.282c-.035.036-.035.07-.07.106l32.049 19.394c.315-.564.63-1.093.946-1.657L49.699 67.913zm0-2.68c.035.036.035.071.07.106l33.696-16.326c-.28-.564-.56-1.128-.876-1.692l-32.89 17.913zm-1.926-1.48c.035 0 .07.034.14.034l9.633-36.39a35.67 35.67 0 0 0-1.857-.458l-7.916 36.813zm39.51-.353a34.975 34.975 0 0 0-.175-1.904L49.98 66.151v.14l37.304-2.89zm-40.247 6.065h-.14l-2.873 37.518 1.892.106 1.12-37.624zm2.804-3.914c0 .035.035.07.035.106l35.446-11.99c-.21-.599-.42-1.198-.665-1.798L49.84 65.551zm.07.282c0 .035.035.106.035.141L86.618 58.5c-.14-.635-.28-1.27-.42-1.87L49.91 65.834zm-2.17-39.81h-.596c-.456 0-.876 0-1.296.035l1.19 37.66h.176l.525-37.695zm1.752 38.893c.035.036.035.07.07.106l31.454-20.346a42.46 42.46 0 0 0-1.086-1.586L49.492 64.916zm-1.402-1.094c.035 0 .07.035.105.035L62.24 28.95c-.595-.247-1.19-.459-1.786-.67L48.09 63.822zm.312.142c.035.035.07.035.105.07l18.214-32.898c-.56-.317-1.12-.6-1.681-.882l-16.638 33.71zm.285.177c.035.035.07.07.106.07l22.066-30.395c-.525-.388-1.05-.74-1.576-1.093L48.687 64.14zm.313.21l.105.107L74.71 37.024c-.455-.423-.945-.881-1.436-1.27L49 64.353zm.246.283l.105.106 28.757-24.084c-.42-.493-.84-.987-1.261-1.445l-27.6 25.423z" fill="#fff"/><path d="M47.145 114C21.155 114 0 92.738 0 66.574c0-26.2 21.156-47.462 47.145-47.462 25.99 0 47.146 21.298 47.146 47.462C94.29 92.738 73.135 114 47.145 114zm0-89.493c-23.047 0-41.786 18.865-41.786 42.067s18.74 42.066 41.786 42.066c23.048 0 41.787-18.864 41.787-42.066-.035-23.202-18.774-42.067-41.787-42.067z" fill="#2278B8"/><path d="M46.127 107.935l2.031-3.491s.49-.74 1.226-.635c.736.071 1.927 3.668 1.927 3.668l-.386.176c4.764-.564 9.458-1.869 13.8-3.914l-4.412-8.85s-.526-4.514-.631-5.396c-.105-.881-1.997-6.453-1.997-6.453l1.367 2.504c.21-1.058 1.295-6.911 1.47-7.617.21-.775 1.507-5.57 1.787-6.84.28-1.27.49-3.597.105-4.937-.245-.917-1.961-3.879-2.942-4.408-.63-.352-2.662-.564-3.468-.528-.805.035-7.215 1.022-7.215 1.022l-3.468.53c.28.634.526 1.656.49 2.08-.07.528-.07 2.115-.07 2.115s-.28-2.891-.77-3.737c-.49-.882-1.296-2.08-1.996-2.222-.701-.176-2.663.282-2.663.282s1.402 2.398 1.367 3.597c-.07 1.199-2.312 3.596-2.172 3.984.175.388 3.292 1.587 3.678 1.693.385.106.315-3.914.315-3.914l-.07-1.375s.49 1.198.595 2.68a25.65 25.65 0 0 1 0 2.891c.736.247 1.892.564 3.083.882 2.066.493 5.149.176 6.83.07 1.716-.07 5.149-1.234 5.149-1.234l-2.557 1.34s-1.436.247-3.293.388c-.245 1.093-1.506 6.664-1.786 8.498-.315 2.08-2.102 1.692-3.082 2.327-.981.635-1.577 5.818-1.577 5.818s-2.416 2.891-3.397 4.549c-.806 1.41-4.168 10.896-5.184 13.752 2.662.458 5.289.705 7.916.705z" fill="#6ABCF8"/><path d="M57.652 83.04l1.016 5.537.035 6.77s2.592 9.979 2.767 9.908c.14-.035 3.713-1.692 3.713-1.692l-3.012-5.184-1.752-3.95-.56-5.041-.7-2.821-1.507-3.526z" fill="#2A75AC"/><path d="M47.144 111.109c-24.413 0-44.273-19.994-44.273-44.57 0-24.578 19.86-44.571 44.273-44.571 24.414 0 44.274 19.993 44.274 44.57-.036 24.577-19.86 44.571-44.274 44.571zm0-85.086c-22.206 0-40.28 18.195-40.28 40.55 0 22.356 18.074 40.551 40.28 40.551 22.207 0 40.28-18.195 40.28-40.55 0-22.356-18.073-40.551-40.28-40.551z" fill="#fff"/><path d="M49.424 51.129s-.84-.458-1.296-.458c-.386 0-1.471.775-1.857 1.022l-.035 2.045 3.608 5.148 4.133-.317s.14-.881.28-2.045.035-2.927.035-3.526c0-.459.105-1.552.14-2.433-.14-.07-.56-.282-.77-.282-.245 0-.876.317-1.05.634 1.015-.176 1.645.388 1.645.388s-.525-.105-.84-.14c.105.14.14.352-.035.563-.21.282-.666.212-.806-.105a.678.678 0 0 1 0-.459c-.21.035-.35.07-.35.07l-.175.741-.14-1.27s.105-.175.385-.316c.28-.142 1.296-.635 1.296-.635l.876.388c0-.177 0-.318-.036-.424-.07-.81-.875-1.727-.98-2.15-.07-.424.56-.953.63-1.129.07-.176-.105-.388-.42-.74-.315-.353-.315-.53-.666-.882-.35-.352-2.451.106-2.451.106s-.456-.388-1.401-.529c-.946-.141-2.522.176-2.522.176s-.77.776-1.401 1.552c-.876 1.058-1.612 2.15-1.612 2.15l3.993-2.22 1.822-.071 1.996 1.551-1.016-.035-2.346-.705-2.767 1.622 1.05 1.41-.035 1.34c.456-.423 1.401-1.199 1.857-1.199.665 0 2.732.811 2.732.811l-.49.353s.7 2.504.805 2.539c.105.035 1.296-.282 1.296-.282s.28.317.28.423c0 .106-.035.07-.14.14-.105.071-.42.389-.42.389s-.28-.035-.876 0c-.595.035-1.19.14-1.296.105-.105-.035-.105-2.89-.35-3.032-.245-.141-.63-.035-.63-.035s.14.81-.49.776c-.631-.036-.491-.635-.491-.635s-.105 0-.35.106c-.28.105-.981.6-.981.6s.805-.812 1.19-1.023c.456-.212 1.472-.071 1.472-.071zm2.557 5.96a2.424 2.424 0 0 1-1.086-.283s.7.07 1.12 0c.421-.07.806-.176.806-.176s-.245.423-.84.458zm-.736-1.623c.385 0 .596.176.596.176s.42-.282.805-.246c.385.07.63.387.63.387l-.105.071s-.665-.247-1.75-.035c-.911.176-1.472.458-1.472.458l-.07-.106c.035 0 .98-.74 1.366-.705zm2.168 3.49l-2.276 2.47c1.751-.248 3.362-.46 3.958-.565l-1.682-1.904z" fill="#6ABCF8"/><path d="M89.736 48.943c3.608-1.093 7.881-3.315 9.212-4.02-.14-1.129-.7-2.997-.7-2.997l-6.83-23.379s-2.558 1.517-6.235 2.68a35.384 35.384 0 0 1-5.36 1.234c1.752 4.373 3.293 8.322 3.854 9.98 1.05 3.173 2.031 5.817 2.416 7.58h.035v.071c.14.776.175 1.375.07 1.798-.42 1.41-2.311 1.552-6.2 2.433-4.798 1.093-7.775 3.245-6.269 4.796 1.471 1.516 11.699 1.128 16.007-.176z" fill="#1883CC"/><path d="M47.005 44.888l3.222.705 2.242-.212.98 1.094-.665 1.551 1.05 1.975c.491.247.14.14.14.14l.456.036c0-.176 0-.317-.035-.423-.07-.811-.876-1.728-.98-2.151-.07-.423.56-.952.63-1.128.07-.177-.105-.388-.42-.74-.316-.353-.316-.53-.666-.882-.35-.353-2.452.105-2.452.105s-.455-.387-1.4-.529c-.947-.14-2.523.177-2.523.177s-.77.776-1.4 1.551c-.456.53-.841 1.058-1.157 1.446l2.978-2.715zm7.214 11.636c.14-1.163.035-2.927.035-3.526 0-.458.105-1.551.14-2.433 0 0-.035 0-.035-.035l-.806 2.539.35 2.926-.735 2.645.77-.07c.036 0 .176-.882.28-2.046z" fill="#2A75AC"/><path d="M78.775 20.804c-1.296-3.385-6.13-15.127-6.13-15.127S65.43.669 55.937 1.163c-9.807.494-24.448 5.395-28.511 6.7-3.082.987-9.842 3.032-14.15 3.385-2.943.212-5.5-.035-6.83-.212l14.36 34.733c2.732.211 9.772.14 21.05-4.126 11.945-4.513 24.099-6.735 31.98-5.853 6.13.67 10.122 2.891 11.594 3.843-1.016-4.795-5.605-16.008-6.655-18.83z" fill="#1883CC"/><path d="M51.805 55.642s-.175-.176-.595-.176c-.385 0-1.331.705-1.331.705l.07.105s.56-.282 1.471-.458c1.086-.176 1.751.035 1.751.035l.105-.07s-.245-.317-.63-.388c-.42-.07-.84.247-.84.247zm-.914 1.164s.49.282 1.085.282c.596 0 .841-.458.841-.458s-.385.14-.806.176c-.42.035-1.12 0-1.12 0z" fill="#1E212D"/><path d="M99.999 44.746s-2.942-10.049-4.133-13.928c-1.191-3.843-3.958-13.47-3.958-13.47s-2.312 1.27-5.955 2.716c-3.152 1.269-5.429 1.198-6.06 1.234-3.047-7.581-6.69-16.82-6.69-16.82S70.227 1.622 60.07.211c-10.158-1.41-25.815 4.69-37.794 8.146C13.134 11 8.055 10.367 6.198 9.908l-.945-1.974-1.401.352 20.175 48.626c-.736.282-1.506.529-1.892 1.022-.735.988.77 1.693.77 1.693s-.63.352-.384 1.022c.28.74 1.155.811 1.155.811s-.63.706-.245 1.305c.386.6 1.191.529 1.191.529s-.28.635-.105 1.128c.175.494.77.635 1.401.53.245-.036.666-.248 1.296-.46l6.2 14.916a2.38 2.38 0 0 1-.28.106c-1.016.282-2.417.847-2.137 1.657.28.811 1.086.706 1.086.706s-.736.388-.42 1.022c.35.706 1.12.424 1.12.424s-.595.282-.35.952c.245.634 1.19.634 1.19.634s-.56.423-.174.987c.28.459 1.26.212 1.821-.035.28-.106.42-.14.7-.282l2.943 7.053c-.28 1.445-.455 2.22-.525 2.362-.21.494-5.78 11.918-5.78 11.918l5.464 1.093s4.484-12.87 5.464-14.563c.981-1.692 3.398-4.548 3.398-4.548s.595-5.148 1.576-5.818c.98-.635 2.767-.282 3.082-2.328.28-1.869 1.541-7.44 1.787-8.498 1.856-.176 3.292-.388 3.292-.388l2.557-1.34s-3.433 1.129-5.149 1.235c-1.716.07-4.763.423-6.83-.07a37.15 37.15 0 0 1-3.082-.882 25.65 25.65 0 0 0 0-2.892c-.105-1.48-.596-2.68-.596-2.68l.07 1.376s.07 4.02-.315 3.914c-.385-.106-3.502-1.305-3.678-1.693-.175-.388 2.102-2.786 2.172-3.984.07-1.2-1.366-3.597-1.366-3.597s1.926-.423 2.662-.282c.7.176 1.506 1.375 1.996 2.221.49.882.771 3.738.771 3.738s0-1.587.07-2.116c.035-.423-.21-1.41-.49-2.08l3.467-.53s6.41-.986 7.216-1.022c.805-.035 2.837.177 3.467.53.981.528 2.697 3.49 2.943 4.407.385 1.34.175 3.667-.105 4.937-.28 1.269-1.577 6.064-1.787 6.84-.175.705-1.26 6.559-1.47 7.617l-1.367-2.504s1.892 5.607 1.997 6.453c.105.882.63 5.395.63 5.395l4.764 9.521.63-.318-4.588-9.274-.771-5.536-.84-2.715v-.564s.63-3.95.945-4.901c.315-.988 2.977-11.249 2.942-13.54-.035-2.293-1.61-4.197-2.802-5.607-1.12-1.34-3.467-1.41-5.044-1.234l-1.716-1.728.42-.106s.28-1.869.35-2.75c.07-.882-.034-2.328.036-2.892.07-.529.105-2.82.07-3.314-.035-.494-.14-1.763-.245-2.398-.105-.635.105-.952.175-1.164.07-.176-.28-.881-.56-1.163-.28-.282-.876-.988-1.157-.988-.28 0-2.241.282-2.346.247-.105-.07-.876-.494-1.576-.529-.666-.035-2.627.035-2.627.035s-.841.67-1.857 1.94a21.507 21.507 0 0 0-1.716 2.503s.28 1.764.49 2.575c.21.81.526 1.798.526 1.798s-1.261-.176-1.051.776c.21.952 1.05 2.644 1.576 2.785.525.177.806-.176.806-.176l.42 5.994c-.245.036-.455.07-.596.07-.385-.458-1.12-1.586-1.926-1.903-.806-.318-3.362.776-3.362.776L29.56 59.767s-1.471-4.02-1.927-4.196c-.49-.177-2.416.282-2.416.282a.4.4 0 0 0 .035.352L21.54 47.25c.7.035 1.646.07 2.767 0 2.382-.106 7.88-.81 13.835-2.997 5.5-2.01 18.634-7.017 30.718-7.37l3.538 11.777c0 .212.07.388.14.565.63 1.41 5.814 2.292 13.135 1.304 8.511-1.199 14.431-5.712 14.431-5.712l-.316.176c-.07 0 .21-.247.21-.247zM55.13 60.861c-.595.106-2.207.317-3.958.564l2.277-2.468 1.681 1.904zm-9.877-12.412l2.767-1.622 2.346.705 1.016.035-1.996-1.551-1.822.07-3.993 2.222s.736-1.093 1.612-2.151c.665-.776 1.4-1.551 1.4-1.551s1.577-.318 2.523-.177c.945.141 1.4.53 1.4.53s2.102-.495 2.452-.107c.35.388.35.53.666.882.315.352.49.529.42.74-.07.177-.7.706-.63 1.129.07.423.875 1.34.98 2.15 0 .106 0 .283.035.424l-.875-.388s-1.016.494-1.296.635c-.28.14-.385.317-.385.317l.14 1.27.175-.741s.14-.035.35-.07a.667.667 0 0 0 0 .458c.14.317.56.388.806.105.175-.211.105-.423.035-.564.315.036.84.141.84.141s-.63-.564-1.646-.388c.175-.352.806-.67 1.05-.634.211 0 .666.211.772.282-.036.881-.14 1.974-.14 2.433 0 .6.104 2.362-.036 3.526-.14 1.164-.28 2.045-.28 2.045l-4.133.318-3.573-5.184.035-2.045c.386-.282 1.471-1.058 1.857-1.023.455 0 1.296.459 1.296.459s-.981-.141-1.471.106c-.386.211-1.191 1.022-1.191 1.022s.7-.493.98-.6c.28-.105.35-.105.35-.105s-.14.6.491.635c.63.035.49-.776.49-.776s.386-.106.63.035c.246.141.246 3.033.351 3.033.105.035.7-.106 1.296-.106h.876s.28-.317.42-.388c.105-.07.175-.07.14-.141 0-.106-.28-.423-.28-.423s-1.19.352-1.296.282c-.105-.035-.806-2.539-.806-2.539l.49-.352s-2.066-.847-2.731-.811c-.49 0-1.401.775-1.857 1.198l.035-1.34-1.085-1.41zm-5.955 41.89l-2.137-5.148 2.873 1.129c-.21 1.199-.49 2.644-.736 4.02zm-9.807-26.551l9.667 5.324s.175.106.42.247c0 .705-.035 3.95-.035 5.36 0 1.234.316 4.196.49 5.747l-3.747-.246s-1.05-1.587-1.576-1.834c-.105-.035-.175.035-.245.176L28.51 64.176c.525-.212.98-.388.98-.388zm12.4-22.18c-11.314 4.267-18.355 4.337-21.052 4.126L6.48 11c1.33.177 3.852.459 6.83.212 4.308-.317 11.068-2.363 14.15-3.385 4.063-1.305 18.704-6.17 28.512-6.7 9.492-.493 16.672 4.514 16.672 4.514s4.834 11.777 6.13 15.127c1.086 2.82 5.639 13.998 6.725 18.759-1.471-.952-5.5-3.174-11.594-3.844-7.916-.81-20.035 1.41-32.014 5.924zm34.01 3.385c-.771.388-1.401.811-1.857 1.27.456-.494 1.086-.917 1.857-1.27zm5.779-1.551c-.385.07-.806.14-1.261.247.455-.07.876-.141 1.26-.247zm2.136-.494c-.315.106-.63.176-.98.282.315-.105.665-.176.98-.282zm-10.788 4.69c.07-.141.14-.317.246-.458-.106.14-.175.317-.246.458zm16.708 1.305c-4.308 1.304-14.536 1.692-16.042.176-1.506-1.516 1.471-3.703 6.27-4.796 3.923-.881 5.884-1.057 6.55-2.68.07-.211 0-.599-.105-.846-.106-.247-1.332-5.43-2.382-8.603-.56-1.658-2.102-5.607-3.853-9.98.735-.105 2.522-.211 5.009-.987 3.677-1.163 6.234-2.68 6.234-2.68l6.83 23.379s.56 1.868.7 2.997c-1.33.705-5.603 2.926-9.211 4.02z" fill="#1E212D"/><path d="M49.386 103.774c-.736-.071-1.226.635-1.226.635l-2.101 3.596.805-.246s1.296-2.927 1.857-3.103l.56-.177 1.296 3.244.736-.317c0 .07-1.191-3.526-1.927-3.632z" fill="#1E212D"/><path d="M43.505 66.538l-.07-1.375s-.21 1.516-.42 2.539c-.21 1.058-1.087 1.516-1.087 1.516l-2.451-.493s-.035.14 1.716.916c.876.353 1.751.706 1.926.74.456.212.386-3.843.386-3.843zm10.575 2.398c-2.172.458-6.305-.317-6.97-.529-.56-.176-1.121-2.292-1.331-3.068-.035.67-.035 1.587-.035 1.587v-.035l.07 2.82s-.876.424-1.051.353c-.105-.035-.455-.352-.666-.528 0 .528-.035.951-.035 1.163.736.247 1.892.564 3.083.882 2.066.493 5.149.176 6.83.07 1.716-.07 5.149-1.234 5.149-1.234l-.7-1.27c.034.036-2.172-.67-4.344-.211z" fill="#2E87C8"/><path d="M51.801 55.642s-.175-.176-.595-.176c-.385 0-1.331.705-1.331.705l.07.106s.56-.282 1.471-.459c1.086-.176 1.752.036 1.752.036l.105-.07s-.246-.318-.63-.389c-.421-.07-.842.247-.842.247zm-.907 1.164s.49.282 1.086.282c.596 0 .841-.458.841-.458s-.385.14-.806.176c-.42.035-1.12 0-1.12 0z" fill="#1E212D"/><path d="M50.402 51.13s.7 2.503.806 2.538c.035 0 .28-.035.525-.106l-.385-2.01v-.317l.49-.529-.98.07-.456.353zm3.083-.636l.14-.176-.35.07c-.28.106-.596.318-.7.564.104-.035.244-.035.35-.035.245-.247.56-.423.56-.423zm-5.324-.493c.35 0 1.156.247 1.822.458l-.56-.952-.281-1.481 1.26-.494-2.346-.705-2.767 1.622 1.05 1.41-.034 1.34c.455-.423 1.366-1.198 1.856-1.198z" fill="#2E87C8"/><path d="M49.071 54.76l-.56-2.326h-1.016l-.77-.177s.805-.81 1.19-1.022c.49-.247 1.472-.106 1.472-.106s-.841-.459-1.296-.459c-.386 0-1.471.776-1.857 1.023l-.035 2.045 3.608 5.148.735-.07 1.682-.141-.14-.67-1.962-.177-1.05-3.067z" fill="#2E87C8"/><path d="M49.422 51.34c.07.036.175.036.245.07-.07-.07-.14-.07-.245-.07z" fill="#2E87C8"/><path d="M49.386 103.774c-.736-.07-1.226.635-1.226.635l-2.101 3.597.805-.247s1.296-2.927 1.857-3.103l.56-.177 1.296 3.245.736-.318c0 .071-1.191-3.526-1.927-3.632z" fill="#1E212D"/><path d="M45.71 64c1.4-.283 10.332-2.151 11.768-2.01 1.542.14 2.767 1.48 3.433 2.785.666 1.27 1.576 1.904 1.226 3.95-.21 1.234-1.086 6.276-1.751 10.049.07-.423.14-.74.175-.846.21-.776 1.506-5.572 1.786-6.841.28-1.27.49-3.597.105-4.937-.245-.916-1.961-3.878-2.942-4.407-.63-.353-2.662-.565-3.468-.53-.805.036-7.215 1.023-7.215 1.023l-3.468.53c.105.352.246.81.35 1.233zm-5.358-2.786s.105.211.28.493c.7-.211 2.171-.564 2.697-.317.315.14.665.423.98.705-.42-.564-.875-1.058-1.33-1.163-.701-.141-2.627.282-2.627.282zM54.187 61c.42-.07.736-.106.946-.14l-1.716-1.904-.35.352c.385.564.735 1.128 1.12 1.692z" fill="#2A75AC"/><path d="M53.1 51.164c-.175 0-.175.247 0 .247.175.035.175-.247 0-.247zm-4.309.177c-.175 0-.175.246 0 .246.176.035.176-.246 0-.246zm-1.645 61.777c15.13 0 28.686-7.017 37.618-17.983l-5.43-4.478c-7.635 9.379-19.229 15.374-32.188 15.374-12.96 0-24.554-5.995-32.19-15.41L9.527 95.1c8.897 11.001 22.452 18.018 37.619 18.018z" fill="#fff"/><path d="M47.146 113.083c-14.15 0-27.426-6.946-36.533-17.842l4.239-3.491c8.09 9.591 19.824 15.444 32.294 15.444 12.469 0 24.203-5.853 32.294-15.444l4.238 3.526c-9.142 10.861-22.417 17.807-36.532 17.807z" fill="#fff"/><path d="M23.922 58.217l-.07.952s.7.176.945.705c.21.564-.21 1.34-.21 1.34s.666 0 .876.458c.21.459.105 1.34.105 1.34s.665 0 .77.564c.105.564.105.776.105.776l2.768-1.093h.98c.456.317 4.414 2.785 5.5 3.209 1.085.458 3.187 1.657 3.187 1.657s1.541-1.34 1.751-2.222c.21-.881-.21-2.221-.21-2.221s0 1.869-.77 2.116c-.771.176-8.127-3.033-8.127-3.033s-.105-.317-.21-.776c-.105-.458-.56-.987-.56-.987l-.105 1.234-.981-.211-.455-.987c-.456-.212 0 .317-.21.775-.21.459-1.086.564-1.086.564s-1.436-1.093-1.436-2.433l-.105-1.445h-1.086a7.686 7.686 0 0 1-1.366-.282zm28.652 1.657l-2.592.211-1.156-.458-.525.106c.035.775.21 1.163.525 1.868l2.347-.176 1.226-.177-.14-.88.315-.494zm-3.188 43.9c.35.036.841.917 1.226 1.799 0 0 .035.176.035.317a38.3 38.3 0 0 0 3.503-.458c-.49-.776-.946-1.975-1.296-2.821-.14-.318-.245-.67-.245-1.023 0-.282.07-.529.14-.776.385-1.41.946-2.785 1.611-4.055.876-1.34 1.646-2.115 1.646-2.115s-3.678.916-6.655 1.375c.14 1.199 1.156 2.221 1.156 3.42-.035 1.27-1.05 3.879-1.226 4.302.035.071.07.035.105.035zm-6.724-15.585s-.245 1.622-.665 2.891c-.42 1.27-1.086 3.738-1.086 3.738l-3.958 9.979a37.95 37.95 0 0 0 3.363.705c.385-.952 3.152-8.075 3.712-9.662.596-1.692 4.554-6.7 4.554-6.7s1.016-4.83 1.086-5.253c.07-.424 3.047-.776 3.467-2.222.42-1.446 1.506-9.59 1.506-9.59l-1.33.175s-3.538.565-5.15.494c-1.61-.07-3.887-.776-3.887-.776s-.771.423-1.261.494c-.49.07-.666-.6-.666-.917 0-.352-.595-.423-.595-.423s-.666 2.962-.49 4.584c.175 1.622.42 5.677.77 5.96.35.246 2.942 1.092 3.538 1.092.595 0 3.362-1.022 3.362-1.022l1.681-1.023s-2.942 3.244-4.308 3.914c-1.366.67-3.117.353-3.117.353s1.086 1.375 1.506 1.445c.42.071 1.786 0 1.786 0l-1.506 1.27-2.312.494z" fill="#2E87C8"/><path d="M55.679 9.389c-.518.122-.823.644-.7 1.196.06.245.212.43.395.583-1.28 1.687-2.803 2.976-4.693 3.804-2.773-1.718-3.962-3.436-4.48-4.571.335-.215.488-.644.396-1.043-.122-.522-.64-.829-1.188-.706-.518.123-.823.644-.701 1.197.091.399.457.675.823.736.06 1.166-.153 3.068-1.524 5.584-.092.184-.213.368-.305.552-2.042.184-4.023-.245-5.912-1.135a.945.945 0 0 0 .091-.706c-.122-.521-.64-.828-1.188-.705-.518.122-.823.644-.701 1.196.122.522.64.829 1.188.706.092-.03.183-.062.275-.123 1.37 1.688 2.498 3.682 3.352 5.952 1.463-1.626 3.779-3.13 6.948-3.927 3.17-.798 5.913-.552 7.954.215a22.168 22.168 0 0 1 .183-6.842c.092 0 .183 0 .305-.03.518-.123.823-.645.701-1.197a1.025 1.025 0 0 0-1.219-.736z" fill="#fff"/><path d="M40.929 23.041c-.305 1.473.03 2.486.03 2.486a4.17 4.17 0 0 0 5.06 3.068c2.163-.552 3.504-2.7 3.108-4.878.64 3.221-.67 6.381-3.109 8.283l4.876-1.227 4.877-1.227a8.322 8.322 0 0 1-6.583-5.86c.64 2.117 2.834 3.405 4.998 2.853 2.255-.552 3.596-2.853 3.047-5.093 0 0-.182-1.043-1.127-2.209-2.164-.859-4.998-1.166-8.137-.399-3.2.829-5.517 2.424-7.04 4.203z" fill="#fff"/></g><defs><clipPath id="clip0"><path fill="#fff" d="M0 0H100V114H0z"/></clipPath></defs></svg>