<svg viewBox="0 0 200 200" xmlns="http://www.w3.org/2000/svg"><path d="m0 0h200v200h-200z" fill="#232323"/><g fill="#fff"><path d="m118.61 87.96h8.53c-1.07 3.06-2.08 5.93-3.1 8.8-1.49 4.2-3.02 8.38-4.45 12.6-.41 1.22-1.06 1.71-2.33 1.64-1.47-.08-2.95-.02-4.64-.02l-3.66-11.84c-1.29 4.23-2.4 7.91-3.55 11.69h-6.43c-3.36-9.5-6.73-19.04-10.18-28.79h8.11c1.87 5.67 3.76 11.36 5.64 17.05.12.02.25.03.37.05 1.09-3.69 2.18-7.37 3.3-11.17h5.56c1.05 3.52 2.15 7.19 3.24 10.87 1.61-3.45 2.4-7.16 3.59-10.88zm-91.61 21.54v-29.99h8.23v8.05l2.86-.26c6.66-.59 11.31 2.97 12.07 9.55.25 2.16.07 4.5-.51 6.6-1.24 4.5-4.57 6.91-9.07 7.73-4.17.75-9.06.15-13.58-1.68zm8.42-4.52c4.34.59 6.31-.94 6.6-4.87.06-.82.03-1.65-.09-2.47-.5-3.51-3.02-4.9-6.51-3.54zm113.71 8.65c.45.05.62.04.78.09 3.67 1.09 4.38.69 5.76-2.81.44-1.12.03-1.92-.36-2.8-2.57-5.81-5.16-11.62-7.73-17.43-.36-.82-.68-1.66-1.11-2.7h9.01c1.43 4.07 2.89 8.24 4.55 13 1.64-4.69 3.09-8.82 4.57-13.03h8.41c-.14.52-.21.97-.38 1.38-3.52 8.37-7.06 16.73-10.58 25.1-.85 2.01-1.82 3.95-3.9 4.93-3.68 1.75-7.31 1.37-11.01-.39.67-1.85 1.31-3.53 1.99-5.34zm-74.71-12.67h-14.82c-.11 1.83.58 3.02 2.01 3.73 2.7 1.34 4.93.24 7.09-1.66 1.65 1.28 3.26 2.53 5.07 3.93-.8.76-1.39 1.42-2.08 1.96-4.13 3.17-11.39 3.46-15.65.5-4.5-3.12-5.44-7.73-4.61-12.74.76-4.59 3.38-7.92 8.08-9.02 7.53-1.76 13.58 1.63 14.63 9.75.14 1.05.17 2.12.28 3.55zm-14.66-4.73h6.55c-.46-2.47-1.61-3.73-3.3-3.7-1.71.04-2.96 1.43-3.25 3.7z"/><path d="m147.1 110.97c-2.13 0-4.02.1-5.88-.05-.68-.06-1.31-.72-2.17-1.24-1.83 1.1-4.13 1.87-6.7 1.62-3.39-.32-5.99-2.42-6.58-5.4-.69-3.48.64-6.53 4.03-7.88 2.33-.93 4.93-1.16 7.42-1.68.47-.1.97-.06 1.44-.09.09-2.33-.78-3.4-2.91-3.13-1.59.2-3.11.92-5.02 1.52-.9-1-2.03-2.26-3.26-3.62.67-1.33 1.93-1.86 3.06-2.39 3.49-1.65 7.14-1.86 10.84-.8 3.47.99 5.58 3.34 5.7 6.94.16 5.25.03 10.52.03 16.2zm-8.31-10.53c-1.4.26-2.61.37-3.75.73-1.01.33-1.66 1.24-1.46 2.3.13.71.6 1.6 1.19 1.93 1.99 1.12 4.17-.26 4.17-2.52 0-.72-.08-1.43-.15-2.44zm-46.44 8.68c-3.44 2.29-6.86 2.79-10.45 1.96-2.8-.64-4.32-2.78-4.45-6.1-.11-2.88-.03-5.77-.04-8.66v-2.49c-1.19-.17-2.14-.3-3.19-.44v-5.37c.99-.12 1.93-.24 3.12-.39v-5.54h8.29v5.54c1.35.12 2.46.22 3.74.33.59 1.74 1.19 3.49 1.89 5.52-1.92.09-3.54.16-5.51.25-.01 1.99-.02 3.94-.02 5.88 0 1.24-.06 2.48.07 3.71.19 1.84.94 2.29 2.65 1.7.53-.18 1.03-.48 1.8-.85.69 1.65 1.35 3.19 2.1 4.95z"/></g></svg>