<svg width="30" height="30" fill="none" xmlns="http://www.w3.org/2000/svg">
  <g clip-path="url(#paysafe-color-30px__clip0)">
    <path d="M28 0H2a2 2 0 00-2 2v26a2 2 0 002 2h26a2 2 0 002-2V2a2 2 0 00-2-2z" fill="#008AC9"/>
    <path d="M13.325 11c-.006-.186-.093-.282-.263-.288h-.907c-.214.013-.325.13-.33.352v1.631c.005.229.127.346.366.352h.83a.273.273 0 00.216-.097.234.234 0 00.088-.19V11zm-2.665-.232c.006-.408.097-.719.273-.93a1.17 1.17 0 01.349-.225c.146-.066.287-.097.425-.097h1.664c.734.006 1.108.407 1.12 1.205v2.455c-.006.284-.117.53-.331.735a1.064 1.064 0 01-.761.333h-1.574v1.77H10.66v-5.246zm5.932 2.042c0 .069.031.122.093.163a.306.306 0 00.211.074h.895c.202 0 .307-.078.313-.237v-.334c0-.182-.107-.274-.322-.274h-.886c-.116 0-.197.02-.242.056-.041.043-.062.129-.062.255v.297zm1.512-1.84c.006-.179-.099-.264-.314-.258h-2.345V9.516h2.64c.77.012 1.16.384 1.173 1.117v2.503a1.16 1.16 0 01-.291.785.985.985 0 01-.761.323H16.61c-.777-.007-1.17-.362-1.183-1.067v-.965c.006-.737.383-1.111 1.128-1.124h1.549v-.118zm4.424 3.847a.377.377 0 00.237-.098.25.25 0 00.094-.192v-.283h-1.49c-.195 0-.35-.025-.467-.075a1.075 1.075 0 01-.367-.247 1.2 1.2 0 01-.251-.396 1.25 1.25 0 01-.08-.479V9.516h1.164v3.152c0 .253.103.38.312.38h.822a.362.362 0 00.254-.098.248.248 0 00.103-.199V9.516h1.155v5.21c-.007.385-.106.694-.296.928-.194.234-.459.354-.796.36h-2.718v-1.197h2.324zM10.66 21.848h2.075c.19-.007.288-.083.294-.228v-.108a.238.238 0 00-.027-.103c-.047-.09-.104-.135-.171-.135h-1.029a1.148 1.148 0 01-.785-.314.901.901 0 01-.341-.689v-.892c.012-.696.39-1.05 1.135-1.063h2.406v1.197h-2.039c-.239 0-.36.073-.36.22v.115c0 .152.124.228.37.228h1.025c.273.006.506.11.7.315.196.205.298.45.304.734v.872c-.006.245-.12.49-.338.734a.938.938 0 01-.324.249 1.33 1.33 0 01-.46.064H10.66v-1.196zm5.549-.237c0 .068.031.122.094.163a.303.303 0 00.21.074h.896c.203 0 .307-.078.313-.237v-.334c0-.182-.108-.274-.322-.274h-.887c-.116 0-.196.02-.24.056-.042.043-.064.128-.064.255v.297zm1.513-1.84c.005-.179-.1-.264-.315-.259h-2.344v-1.196h2.641c.768.013 1.159.385 1.171 1.118v2.502a1.164 1.164 0 01-.29.785.98.98 0 01-.76.323h-1.598c-.777-.006-1.17-.36-1.182-1.066v-.966c.006-.736.382-1.11 1.127-1.124h1.55v-.117zm2.1-2.139a.99.99 0 01.36-.777c.226-.197.523-.299.89-.304h.74v1.155h-.448c-.246.006-.371.124-.377.351v.254h.825v1.197h-.825v3.53h-1.165v-5.406zm5.301 2.117v-.028a.186.186 0 00-.075-.152.341.341 0 00-.2-.056h-.81a.357.357 0 00-.253.088.253.253 0 00-.122.218v.48l1.46-.55zm-1.441 1.69v.075a.32.32 0 00.075.227c.037.07.086.107.151.107H26.3v1.196h-2.543c-.232 0-.413-.021-.54-.065a.98.98 0 01-.375-.226.996.996 0 01-.26-.388 1.723 1.723 0 01-.071-.55l-.01-2.395c.013-.723.39-1.091 1.133-1.104h1.57c.725.013 1.092.394 1.104 1.145v.946l-2.626 1.033z" fill="#fff"/>
    <path d="M4.192 9.337c.091-.04.183-.072.274-.091a1.769 1.769 0 013.462 0c.262.05.478.156.647.313.007-.154 0-.302-.018-.442a2.375 2.375 0 00-2.364-2.164A2.376 2.376 0 003.824 9.23c-.007.11-.01.223-.006.342.108-.09.23-.172.374-.234z" fill="#E3001B"/>
    <path d="M7.582 9.516H4.74c-.137 0-.28.031-.425.097a1.19 1.19 0 00-.35.224c-.175.213-.266.523-.272.93v2.224c.006.409.096.719.273.93.092.09.208.164.349.226.146.064.288.097.425.097h2.843c.735-.007 1.109-.41 1.12-1.207v-2.316c-.011-.798-.385-1.2-1.12-1.205z" fill="#E3001B"/>
  </g>
  <defs>
    <clipPath id="paysafe-color-30px__clip0">
      <path fill="#fff" d="M0 0h30v30H0z"/>
    </clipPath>
  </defs>
</svg>
