<svg viewBox="0 0 200 200" fill="none" xmlns="http://www.w3.org/2000/svg"><path d="M100 200C44.8 200 0 155.2 0 100S44.8 0 100 0s100 44.8 100 100-44.8 100-100 100z" fill="#BBB"/><path d="M21.832 117.002h7.44c9.9 0 15.42-4.68 15.42-13.08 0-4.44-1.32-7.32-4.44-9.66 2.64-2.16 3.66-4.44 3.66-8.22 0-3.72-1.44-6.96-4.02-8.94-2.52-1.92-5.34-2.58-10.62-2.58h-7.44v42.48zm8.82-34.08h.54c2.58 0 3.96 1.56 3.96 4.62s-1.32 4.56-4.08 4.56h-.42v-9.18zm0 16.38c3.66 0 5.04 1.26 5.04 4.68s-1.38 4.74-5.04 4.74v-9.42zm42.998-16.38l-8.04.96c-1.98-.72-3.24-.96-4.8-.96-7.74 0-12.72 7.02-12.72 17.94 0 10.14 4.38 17.1 10.8 17.1 2.22 0 4.02-.72 6.36-2.58l.48 2.58 8.34-.96c-.3-2.88-.42-5.52-.42-10.92v-23.16zm-8.82 24.9c-1.62 1.44-2.7 1.98-4.02 1.98-2.82 0-4.32-3.12-4.32-9 0-6.48 1.74-9.78 5.04-9.78 1.14 0 1.92.3 3.3 1.2v15.6zm38.937-34.26l-8.82.96v9.36c-1.74-.72-2.82-.96-4.32-.96-7.44 0-12.42 7.2-12.42 17.94 0 10.14 4.38 17.1 10.8 17.1 2.22 0 4.02-.72 6.36-2.58l.48 2.58 8.34-.96c-.3-2.88-.42-5.52-.42-10.92v-32.52zm-8.82 34.26c-1.62 1.44-2.7 1.98-4.02 1.98-2.82 0-4.32-3.12-4.32-9 0-6.48 1.74-9.78 5.04-9.78 1.14 0 1.92.3 3.3 1.2v15.6zm30.533-23.94v16.02c0 3.66-.24 6.06-.78 7.14-.78 1.68-2.28 2.82-3.78 2.82-1.98 0-2.64-1.32-2.64-5.34v-21.6l-8.4.96v22.44c0 8.04 2.28 11.64 7.26 11.64 3.12 0 5.22-1.2 8.34-4.68v4.68l8.4-.96v-34.08l-8.4.96zm30.122 34.44c0 5.4-1.14 6.9-5.16 6.9-3.3 0-6-1.02-9.84-3.78l.06 8.64c3.96 2.1 7.14 2.94 10.8 2.94 3.96 0 7.5-1.68 9.78-4.62 2.04-2.7 2.76-5.94 2.76-12.48v-33l-8.04.96c-1.98-.72-3.24-.96-4.8-.96-7.74 0-12.72 7.02-12.72 17.94 0 10.14 4.38 17.1 10.8 17.1 2.22 0 4.02-.72 6.36-2.58v2.94zm-.42-10.5c-1.62 1.44-2.7 1.98-4.02 1.98-2.82 0-4.32-3.12-4.32-9 0-6.48 1.74-9.78 5.04-9.78 1.14 0 1.92.3 3.3 1.2v15.6zm23.457 9.18v-34.08l-8.4.96v33.12h8.4zm-4.2-46.74c-2.64 0-4.74 2.1-4.74 4.74 0 2.58 2.16 4.74 4.74 4.74 2.64 0 4.74-2.1 4.74-4.8 0-2.64-2.1-4.68-4.74-4.68z" fill="#fff"/></svg>