<svg width="200" height="200" viewBox="0 0 200 200" fill="none" xmlns="http://www.w3.org/2000/svg">
<path d="M100 200C44.8 200 0 155.2 0 100C0 44.8 44.8 0 100 0C155.2 0 200 44.8 200 100C200 155.2 155.2 200 100 200Z" fill="#BBBBBB"/>
<path d="M39.8336 130H53.6036V109.93C65.8436 109.48 73.3136 101.11 73.3136 87.97C73.3136 74.02 65.2136 66.28 50.5436 66.28H39.8336V130ZM53.6036 78.88C57.8336 79.15 59.9036 82.21 59.9036 88.06C59.9036 93.91 57.8336 96.88 53.6036 97.24V78.88ZM79.9117 130H110.152V117.4H93.6817V66.28H79.9117V130ZM137.915 64.57C124.055 64.57 112.895 79.42 112.895 97.69C112.895 116.95 123.785 131.71 137.915 131.71C151.775 131.71 162.845 116.86 162.845 98.14C162.845 79.42 151.865 64.57 137.915 64.57ZM137.825 78.07C144.215 78.07 148.445 86.26 148.445 98.41C148.445 110.56 144.215 118.75 137.915 118.75C131.525 118.75 127.295 110.65 127.295 98.14C127.295 86.26 131.615 78.07 137.825 78.07Z" fill="white"/>
</svg>
