<svg width="200" height="200" fill="none" xmlns="http://www.w3.org/2000/svg"><path d="M200 0H0v200h200V0z" fill="url(#paint0_radial)"/><path d="M98.501 152.002c-1.496-6.267-2.916-12.236-4.337-18.229-.1 0-.2.025-.299.025v17.01c-1.495-.274-3.564.572-3.938-1.243-.274-4.328-.324-8.605-.673-12.932-3.19-.323-1.745 6.217-6.057 9.873-7.053 6.54-14.157-2.711-15.054-9.674-1.246-5.695-1.495-11.39.449-17.035.324-.97 0-2.188-.224-3.258-.175-.796.074-1.194.648-1.666 3.663-2.86 8.723-2.686 12.511.472 6.306 4.974 6.331 12.882 6.356 20.194 2.717-4.327.35-17.881.723-23.899-.324-2.561 3.54-2.014 5.284-2.91v15.518l.3.075c1.295-4.601 2.591-9.201 3.962-14.026 7.452 11.539 6.356 6.491-2.243 18.03-.623.746-.598 1.268-.075 2.089 2.717 4.128 5.359 8.281 8.051 12.409.373.597.523 1.045.049 1.666-1.769 2.388-3.489 4.825-5.433 7.511zm-16.2-18.577c-.4-3.581-.5-14.847-5.235-15.07-6.206.82-3.44 11.539-3.614 15.891.897 12.707 9.496 11.688 8.848-.821zm-27.791-5.971c1.346 7.56 2.642 14.996 4.013 22.68-2.792-.597-5.26-1.467-7.976-2.139-.673-.174-.922-.472-.947-1.193-.648-10.545-.898-20.989-1.87-31.534-.623.324-1.071.547-1.595.821-1.221-2.537-1.595-5.471-2.417-8.182-.075-.348.074-.994.324-1.119 2.866-1.492 5.633-3.282 8.673-4.252 14.506-3.88 19.142 16.388 8.05 23.55-1.744 1.268-2.766 1.443-6.255 1.368zm1.919-18.676c-2.418.82-6.007 1.666-5.01 4.973 1.022 2.587.549 8.157 4.661 7.386 2.966-.771 5.683-4.426 5.733-7.684.174-3.183-2.867-3.88-5.384-4.675zm69.813 8.085c-.748.497-1.271.845-2.093 1.367-.3-2.337-.574-4.476-.773-6.615-.025-.199.473-.572.773-.646 5.807-1.99 13.384-2.338 15.502 4.799 1.546 5.098.948 11.39-3.539 14.897-.673.472-.797.92-.548 1.666 4.337 12.882 10.044 4.924 4.935 15.567-5.359-2.76-7.951-7.361-9.596-12.757-.075 4.029.199 8.057.449 12.086.174 2.288-3.091.945-4.487 1.442-1.022.1-1.395-.223-1.346-1.293.225-10.196.798-20.317.723-30.513zm4.138 4.551c0 1.293.049 2.561-.025 3.854-.1 1.467-.05 1.592 1.395 1.368 2.393-.522 3.839-2.959 4.013-5.247.175-2.288-1.445-4.352-3.539-4.775-2.841-.597-1.595 3.183-1.844 4.8z" fill="#F6001D"/><path d="M74.2 75.305c.374-4.054 2.393-7.908 1.62-11.862-.249-.821-.074-1.319.673-1.866 4.611-3.506 10.493-1.74 13.883 2.388 5.733 6.988 5.583 16.985 2.468 25.067-1.52 4.551-7.129 8.132-11.49 4.825-6.032-4.178-5.733-12.086-7.154-18.552zm15.528 4.924c-.25-4.551-.598-9.028-2.418-13.255-.897-2.636-4.96-2.984-6.106-.398-2.243 4.626-.847 9.848-.723 14.747-.124 4.178 3.789 13.155 7.976 6.665 1.047-2.412.847-5.173 1.271-7.76z" fill="#79BF00"/><path d="M118.84 111.488c.249 7.585.125 5.073-7.826 6.093-2.069.149-2.119.174-2.019 2.188.125 2.114.299 4.228.349 6.342.025 1.194.523 1.368 1.57 1.169 1.795-.348 3.589-.597 5.409-.821 1.645.299.922 3.034 1.346 4.277.124.821-.249 1.12-1.022 1.169-8.599.572-6.904-1.094-7.029 7.436 0 .771.274 1.119 1.072 1.194 3.888.398 7.751.92 11.64 1.268 1.121.099 1.37.472 1.246 1.542-.249 2.064-.399 4.128-.524 6.192-.074 1.069-.398 1.442-1.545 1.119a677.9 677.9 0 0 0-13.958-3.581c-.872-.224-1.096-.547-1.096-1.393-.025-8.529-.1-17.084-.15-25.614.075-3.755-2.417.746-2.143-6.267-.249-1.766 12.312-1.79 14.68-2.313z" fill="#F6001D"/><path d="M106.053 95.748c-1.744-.498-3.24-.946-4.735-1.368-1.994-.547-1.944-.547-2.044-2.611-.35-7.536-.922-15.046-1.222-22.556-.05-1.393-.224-1.517-1.744-1.045-2.542-8.58-2.817-6.018 5.359-10.096 11.066-2.86 14.78 12.036 6.679 18.104-2.068 2.338-5.957.075-5.284 2.736 1.047 5.694 2.069 11.09 2.991 16.835zm3.066-29.32c-.548-3.432-5.284-4.601-7.801-2.313-2.169 1.84-.075 4.8.199 7.087 2.119 5.198 7.776-.82 7.602-4.775zm38.758 30.885c-4.985-1.22-9.646-2.463-14.531-3.706-1.047-.249-1.471-.77-1.471-1.89.025-5.67 0-11.34-.049-17.035-.025-2.91-.125-5.794-.15-8.704 0-.82-.249-1.318-1.146-1.492-1.371-.696-.823-2.785-.923-4.054 0-.248.399-.696.648-.72 4.113-.473 8.25-.871 12.363-1.319 1.047-.174 1.321.547 1.296 1.443-.1 4.352.922 3.456-3.564 3.904-1.371.448-6.879-.298-6.381 1.641 1.271 10.147-2.443 9.475 8.125 7.734.2 1.567.424 3.034.599 4.477.099.72-.399.796-.948.796-1.769.422-7.527-1.02-7.203 1.64.349 1.617-.997 7.56 1.222 7.312 4.062.448 8.175.771 12.213 1.443 1.42.298-.2 6.863-.1 8.53z" fill="#79BF00"/><path d="M130.18 87.617a879.087 879.087 0 0 0-.698 8.405c-5.409-1.318-10.543-3.158-15.852-4.775-1.147-.522-1.072-2.064-1.171-3.158-.424-2.586 2.268-.77 1.669-3.805-.249-8.405-.448-16.786-.722-25.191-.05-1.244.374-1.542 1.52-1.244 1.321.448 3.714.125 4.063 1.865-.15 5.67-.399 11.34-.574 16.986-.099 2.76-.149 5.545-.224 8.306-.025.97.723.92 1.371 1.02 3.539.571 7.153.72 10.618 1.59zm31.23-3.879c4.412 19.074 13.609-8.505 6.206-5.943a85.15 85.15 0 0 1-6.056 1.367c-6.68-.05-5.534-13.901-2.916-17.93 2.317-4.6 9.595-1.417 11.515 2.437.772 1.642-1.596 3.084-2.244 4.352-6.206-6.018-8.474-.945-7.626 5.521.697 3.457 5.259.572 7.552.622 11.041-.124 2.342 28.201-6.73 18.651-1.72-1.79-3.091-3.755-3.614-6.267-.523-1.99 2.866-2.039 3.913-2.81zM156.2 48c-.249 1.442.748 5.52-.847 5.794-.872.1-1.196.498-1.246 1.368-.1 1.045-.249 2.189-.524 3.158a296.031 296.031 0 0 1-4.436 3.383l-.449-.448c1.77-2.189 2.592-3.581 2.642-6.416.025-.323-.274-.87-.548-.97-.872-.373-.997-1.02-.922-1.815-.449-5.87 1.769-3.283 6.33-4.054zM74.001 88.756c-3.863-.497-7.727-.995-11.615-1.392-1.146-.125-1.47-.597-1.445-1.667-.05-9.475-.748-6.863 8.175-7.236-.748-7.66-.2-4.95-7.154-4.278-.822.15-1.196-.124-1.246-.92-.15-2.561-.324-5.123-.498-7.684-.05-.895.2-1.368 1.221-1.418 1.944-.1 3.888-.248 5.832-.472 3.49-.423 2.842.373 2.892-3.059-.075-.945.324-2.537-1.147-2.238-3.988.497-8 .895-11.989 1.243-.672.05-1.22-.074-1.296-.945-1.445-10.395-12.885-11.962-20.288-6.341-2.791 1.392-2.791 1.392-1.969 4.426.523 1.915 1.047 3.805 1.595 5.77.648-.348 1.147-.597 1.77-.92 1.171 10.17 1.171 20.417 1.87 30.638.074 1.268.323 2.238 1.868 2.387 2.269.622 4.238 1.318 6.68 1.89A1836.262 1836.262 0 0 0 43.47 75.03c-.2-1.02.075-1.368 1.146-1.194 5.832.697 9.297-5.347 10.917-10.121 1.097 1.193 2.542.621 2.418 2.536.1 8.456.249 16.91.299 25.366 0 1.293.498 1.74 1.57 2.014 4.885 1.294 9.372 2.462 14.406 3.631.25-2.685.499-5.247.673-7.833 0-.2-.573-.622-.897-.672zm-28.588-20.89c-4.387 1.294-3.938-4.301-5.035-6.962-1.57-5.024 5.359-6.616 8.55-4.502 4.56 2.736 1.021 10.122-3.515 11.465z" fill="#79BF00"/><defs><radialGradient id="paint0_radial" cx="0" cy="0" r="1" gradientUnits="userSpaceOnUse" gradientTransform="rotate(45) scale(282.843)"><stop stop-color="#525252"/><stop offset="1"/></radialGradient></defs></svg>