<svg width="95" height="20" fill="none" xmlns="http://www.w3.org/2000/svg"><path d="M32.162 4.594h-.517c-.505 0-.726.151-1.059.718L27.828 9.89l-1.145-4.526c-.135-.542-.283-.757-.862-.757h-.43c-.567 0-.924.34-1.035.946l-1.28 7.363c-.099.555.147.844.615.844h.197c.493 0 .714-.252.8-.794l1.035-5.95.997 3.983c.086.404.16.669.911.669.628 0 .776-.227.998-.593l2.438-4.097-1.035 5.95c-.098.568.148.845.604.845h.209c.492 0 .714-.265.8-.794l1.268-7.413c.111-.593-.172-.971-.75-.971zm7.696 5.265c-.062-1.79-1.244-3.101-3.238-3.101-2.278 0-3.67 1.904-3.608 3.984.074 1.903 1.355 3.126 3.238 3.126 2.34-.012 3.67-1.928 3.608-4.009zm-3.595 2.698c-1.072 0-1.749-.794-1.786-1.878-.049-1.4.85-2.635 2.13-2.635.986 0 1.761.794 1.798 1.89.037 1.476-.862 2.623-2.142 2.623zm8.68-5.8c-.948 0-1.699.48-2.204 1.287.05-.92-.443-1.185-.948-1.185-.234 0-.418.063-.43.088l-1.035 5.988c-.099.618.234.795.677.795h.185c.48 0 .677-.202.776-.795l.615-3.593c.443-.794.936-1.172 1.7-1.172.763 0 1.218.466 1.23 1.235.013.202-.036.454-.073.757l-.48 2.773c-.099.618.246.795.677.795h.184c.48 0 .678-.202.776-.795l.53-3.063c.061-.34.098-.643.086-.92-.037-1.286-.875-2.194-2.266-2.194zm29.132 0c-.776 0-1.355.455-1.749 1.287.062-.92-.43-1.185-.935-1.185-.247 0-.419.063-.431.088l-1.047 5.988c-.098.618.296.795.739.795h.185c.418 0 .615-.202.726-.795l.345-2.004c.258-1.563.825-2.648 1.736-2.648.443 0 .726.19.911.404.025.025.714-.252.69-1.084-.037-.517-.542-.845-1.17-.845zm7.954.106c-.64 0-.998.316-1.207 1.148-.406-.782-1.244-1.261-2.216-1.261-2.069 0-3.51 1.891-3.51 4.034 0 1.765 1.06 3.077 2.734 3.077 1.022 0 1.81-.429 2.315-1.299-.074.908.098 1.185.739 1.185.566 0 .75-.214.812-.857.074-1.185.468-3.114.924-5.825 0-.05-.259-.202-.591-.202zm-3.842 5.7c-1.01 0-1.588-.657-1.588-1.816 0-1.362.775-2.724 2.216-2.724 1.17 0 1.662.883 1.662 1.854 0 1.223-.812 2.685-2.29 2.685zm13.667-5.805c-1.133 0-1.884.592-2.414 1.462-.258-.92-1.034-1.462-2.019-1.462-.862 0-1.613.416-2.13 1.21.025-.845-.456-1.097-.948-1.097-.246 0-.419.063-.431.089l-1.034 5.988c-.099.618.234.794.677.794h.185c.418 0 .677-.176.775-.794l.64-3.72c.468-.743.912-1.058 1.601-1.058.677 0 1.096.517 1.096 1.298 0 .127-.012.265-.037.416l-.517 3.064c-.099.618.246.794.677.794h.172c.42 0 .69-.189.788-.794l.64-3.72c.469-.743.912-1.058 1.601-1.058.653 0 1.133.403 1.133 1.235 0 .202-.037.454-.086.757l-.48 2.773c-.099.618.234.795.677.795h.185c.48 0 .677-.202.775-.795l.53-3.063a5.14 5.14 0 0 0 .086-.92c.012-1.35-.874-2.194-2.142-2.194zM54.682 9.76c0-.933-.185-1.55-.59-2.093-.444-.58-1.27-.933-2.23-.933-2.905 0-3.952 2.194-3.952 4.098 0 1.815 1.28 3.026 3.25 3.026s3.079-.896 3.079-1.614c0-.48-.333-.643-.714-.68-.517.68-1.232 1.008-2.204 1.008-.862 0-1.884-.34-1.958-1.917h4.47c.48.013.85-.264.85-.895zm-1.44-.214H49.51c.357-.97 1.182-1.576 2.228-1.576.53 0 .936.151 1.207.454.234.277.32.655.296 1.122zm15.316-.706h-2.66c-.32 0-.467.075-.566.176-.16.177-.246.58-.246.757.012.277.246.44.677.44h1.884c-.258 1.35-1.096 2.283-2.536 2.283-1.515 0-2.524-.984-2.586-2.66-.074-2.106 1.293-3.846 3.226-3.846 1.133 0 2.02.618 2.376 1.438.05.063 1.096.063 1.06-.858-.013-.327-.198-.718-.543-1.046-.554-.567-1.6-1.06-2.992-1.06-1.945 0-3.484 1.098-4.284 2.686 0-.012-.013-.012-.013-.012a.833.833 0 0 0-.677-.316c-.43 0-.714.14-1.133.896l-2.068 3.719-.776-3.707c-.148-.693-.394-.908-.825-.908-.505 0-.91.379-.898.467l1.477 5.989-1.527 2.572c-.16.277-.172.643.407.643h.32c.603 0 .8-.379 1.096-.896l4.161-7.211a5.702 5.702 0 0 0-.16 1.601c.074 2.42 1.675 3.883 4.014 3.883 1.108 0 1.995-.429 2.487-1.084-.037.706.333.983.825.983.27 0 .468-.088.468-.139l.677-3.883c.11-.605-.11-.907-.665-.907z" fill="#fff"/><path d="M19.616 9.998c0 5.522-4.371 9.998-9.764 9.998-5.393 0-9.764-4.476-9.764-9.998 0-1.526.332-2.963.923-4.249a8.35 8.35 0 0 0-.578 2.988c0 4.526 3.57 5.182 5.085 5.17 2.314-.026 5.01-1.186 7.289-3.33 0 0-.296 1.69-.382 2.207-.086.504.234.946.726.946h.197c.505 0 .875-.429.96-.946l.826-4.715c.098-.53-.234-.946-.751-.946H9.778c-.517 0-.985.278-1.071.807 0 .025-.037.177-.037.214-.074.505.27.883.763.883h2.401l-.11.113c-1.663 1.602-3.72 2.484-5.418 2.484-1.687 0-3.583-1.097-3.583-3.555C2.723 2.963 7.402 0 9.852 0c5.38 0 9.764 4.476 9.764 9.998z" fill="#B0B0B0"/></svg>