<svg width="20" height="20" fill="none" xmlns="http://www.w3.org/2000/svg"><path d="M10.43 11.44a.586.586 0 0 0-.871.009l-3.335 3.789a.586.586 0 0 0 0 .774l3.335 3.79c.23.26.636.265.872.008l3.466-3.79a.586.586 0 0 0 0-.79l-3.466-3.79zm-.423 7.097l-2.562-2.912 2.562-2.912 2.664 2.912-2.664 2.912zM8.242 0C6.885 0 5.898 1.133 5.898 2.512c0 1.75 1.616 2.83 3.716 4.667.221.194.55.193.772 0 2.1-1.837 3.716-2.918 3.716-4.667 0-1.379-.987-2.512-2.344-2.512-.693 0-1.298.304-1.758.883C9.54.304 8.935 0 8.242 0zm2.322 2.282c.013-.045.328-1.11 1.194-1.11.76 0 1.172.69 1.172 1.34 0 1.078-1.18 1.944-2.93 3.45-1.784-1.535-2.93-2.381-2.93-3.45 0-.65.411-1.34 1.172-1.34.863 0 1.178 1.057 1.194 1.11.16.573.972.569 1.128 0zM5.86 11.875a2.346 2.346 0 0 0 2.344-2.344c0-1.09-.749-2.01-1.759-2.27a2.346 2.346 0 0 0-2.342-2.417A2.346 2.346 0 0 0 1.759 7.26 2.348 2.348 0 0 0 0 9.531a2.346 2.346 0 0 0 2.344 2.344c.426 0 .827-.115 1.172-.315v1.487H2.93a.586.586 0 1 0 0 1.172h2.343a.586.586 0 0 0 0-1.172h-.585V11.56c.345.2.745.315 1.171.315zm-3.515-1.172a1.173 1.173 0 0 1-1.172-1.172c0-.64.516-1.162 1.154-1.172h.002c.523.073.82-.383.678-.774a1.165 1.165 0 0 1 1.096-1.57c.779 0 1.386.77 1.096 1.57-.14.385.146.849.678.775a1.173 1.173 0 0 1-.017 2.343 1.173 1.173 0 0 1-1.171-1.172.586.586 0 0 0-1.172 0c0 .646-.526 1.172-1.172 1.172zm13.94-5.86a.586.586 0 0 0-.771 0c-2.1 1.837-3.716 2.917-3.716 4.666 0 1.38.986 2.512 2.344 2.512.429 0 .823-.117 1.171-.343v1.369h-.585a.586.586 0 0 0 0 1.172h2.343a.586.586 0 1 0 0-1.172h-.586v-1.369c.348.226.743.343 1.172.343 1.358 0 2.344-1.133 2.344-2.512 0-1.749-1.616-2.83-3.716-4.667zm1.372 6.007c-.755 0-1.09-.81-1.172-1.045-.019-.757-1.152-.756-1.17 0-.084.238-.42 1.045-1.173 1.045-.761 0-1.172-.691-1.172-1.341 0-1.078 1.179-1.943 2.93-3.45 1.783 1.535 2.93 2.382 2.93 3.45 0 .65-.412 1.34-1.173 1.34z" opacity=".7"/></svg>