<svg viewBox="0 0 200 200" xmlns="http://www.w3.org/2000/svg"><path d="m0 0h200v200h-200z"/><path d="m63.06 103.58c-.85-2.6-1.68-5.11-2.5-7.63-2.6-7.92-5.13-15.87-7.83-23.76-1.11-3.24 1.12-6.24 3.73-7.16 1.91-.68 3.91-1.07 5.8-1.83.53-.22.9-.48 1-1.03.23-1.32 1.25-1.9 2.33-2.34 2.44-1.02 5.05-1.44 7.61-1.97 7.14-1.48 14.31-2.86 21.47-4.26 1.54-.3 3.1-.53 4.65-.78 1.7-.27 3.91 1.24 4.34 3.04.15.61.38.76.98.68 1.5-.22 3.01-.36 4.52-.55 1.75-.22 3.32.15 4.66 1.34.45.39.66.93.9 1.43.27.56.63.81 1.24.83 1.14.04 2.27.17 3.41.18 1.07.01 2.08.25 3.08.53 1.01.29 1.68 1.08 2.17 1.95.24.42.5.65.92.8 1.8.66 3.6 1.35 5.4 2.01 2.37.87 3.96 2.47 4.6 4.94.11.41.41.48.68.6 1.69.79 3.41 1.52 5.09 2.33 1.52.73 2.3 2.04 2.71 3.63.66 2.59-.35 4.9-1.18 7.25-2.22 6.31-4.42 12.62-6.62 18.93-.04.1-.06.21-.1.31-.21.52-.13.7.52.78 2 .25 4 .61 5.99.96.45.08.61.04.65-.46.17-1.78.43-3.55.59-5.32.05-.57.2-.76.78-.65 5.17.96 10.33 1.91 15.5 2.86 5.48 1.01 10.97 2.01 16.45 3.02.34.06.69.14 1.14.24-.48.62-.87 1.24-1.37 1.75-1.5 1.53-2.17 3.36-2.55 5.46-2.09 11.39-4.29 22.76-6.45 34.14-.28 1.47-.29 1.46-1.81 1.25-5.95-.84-11.91-1.65-17.87-2.5-4.67-.67-9.33-1.36-14.01-1.88-6.33-.7-12.66-1.34-19.02-1.75-4.96-.32-9.92-.5-14.88-.41-6.23.12-12.46.36-18.67 1.08-5.03.59-10.09 1-15.12 1.54-3.88.42-7.75.92-11.62 1.39-4.14.5-8.28 1-12.42 1.51-2.98.37-5.97.73-8.95 1.12-.68.09-.93-.05-.85-.78.2-1.75.25-3.51.54-5.24.29-1.75-.11-3.39-.42-5.06-1.49-8.03-3.04-16.06-4.47-24.11-.25-1.39-1.1-2.25-1.91-3.2-1.07-1.26-2.19-2.48-3.28-3.72-.48-.55-.42-.71.32-.83 3.66-.61 7.32-1.2 10.98-1.81 4.14-.68 8.28-1.36 12.41-2.06 2.05-.35 4.06-.31 5.89.77 1.11.65 1.96 1.61 2.54 2.78.28.57.64.75 1.28.65 2.3-.35 4.63-.65 7.03-.99zm38.65-45.73c.08-2.15-1.03-3.19-3.17-2.89-1.47.21-2.94.49-4.4.79-7.05 1.44-14.1 2.9-21.14 4.36-1.99.41-3.96.86-5.94 1.31-1.08.25-1.99 1.01-1.86 2.29.04.45-.27.55-.57.66-1.29.49-2.58.96-3.87 1.47-1.38.55-2.87.82-4.2 1.5-1.73.89-2.37 2.33-1.87 4.2.14.52.38 1.01.55 1.53 1.39 4.27 2.77 8.54 4.16 12.81 2.11 6.48 4.22 12.96 6.36 19.43.19.57.15.79-.51.88-3.24.45-6.49.92-9.72 1.44-.79.13-1.27.05-1.46-.82-.08-.39-.31-.75-.48-1.12-1.23-2.55-4.07-3.97-6.89-3.48-3.73.64-7.47 1.24-11.21 1.87-2.91.49-5.82.99-8.73 1.5-.95.17-.96.19-.35.91.65.76 1.33 1.5 1.99 2.26.65.75 1.31 1.46 1.45 2.55.25 1.99.64 3.96.97 5.93 1.11 6.54 2.22 13.08 3.35 19.62.38 2.19.85 4.35.34 6.59-.36 1.56-.3 1.57 1.31 1.34 4.98-.73 9.96-1.49 14.96-2.16 4.64-.62 9.29-1.23 13.94-1.76 4.98-.57 9.97-1.08 14.97-1.51 4.73-.41 9.46-.72 14.2-.95 5.67-.27 11.34-.26 17 .08 5.36.33 10.7.82 16.04 1.38 6.22.65 12.44 1.37 18.64 2.2 6.39.85 12.76 1.78 19.14 2.72.76.11 1-.07 1.14-.8.59-3.28 1.24-6.54 1.87-9.81 1.33-6.91 2.62-13.83 4.01-20.73.51-2.53.46-5.28 2.42-7.35.36-.38.04-.49-.3-.55-1.2-.21-2.4-.43-3.6-.63l-17.61-3.03c-2-.34-4-.7-6-1.03-.34-.06-.82-.23-.79.44.08 1.81-.5 3.53-.82 5.28-.24 1.32-.04 1.09-1.33.87-3.25-.57-6.53-1.02-9.81-1.37-1.17-.12-1.17-.08-.79-1.14 1.74-4.81 3.51-9.61 5.19-14.44 1.2-3.42 2.55-6.79 3.51-10.3.85-3.15-.05-4.94-2.99-6.28a39.39 39.39 0 0 0 -5.02-1.88c-.36-.11-.55-.18-.48-.64.24-1.68-.4-2.86-1.88-3.7-2.4-1.37-5.02-2.14-7.66-2.87-.6-.17-.94-.43-.93-1.08.01-.64-.36-1.05-.93-1.3a6.53 6.53 0 0 0 -1.94-.55c-1.97-.23-3.95-.33-5.93-.27-.5.02-.7-.13-.8-.64-.39-2.1-1.54-3.04-3.67-2.99-2.25.05-4.46.51-6.68.87-1.23.2-1.22.24-1.18-1.01z" fill="#f25f53"/><path d="m101.71 57.85c-.05 1.25-.05 1.21 1.2 1 2.22-.36 4.42-.82 6.68-.87 2.13-.05 3.28.89 3.67 2.99.09.51.29.65.8.64 1.98-.06 3.96.04 5.93.27.68.08 1.32.27 1.94.55.57.25.94.66.93 1.3-.01.65.33.91.93 1.08 2.64.72 5.26 1.5 7.66 2.87 1.48.85 2.12 2.03 1.88 3.7-.07.46.12.53.48.64 1.71.52 3.39 1.13 5.02 1.88 2.93 1.35 3.84 3.13 2.99 6.28-.95 3.5-2.31 6.87-3.51 10.3-1.69 4.83-3.46 9.63-5.19 14.44-.38 1.06-.38 1.02.79 1.14 3.28.34 6.56.79 9.81 1.37 1.29.23 1.09.45 1.33-.87.32-1.75.89-3.47.82-5.28-.03-.67.45-.49.79-.44 2 .33 4 .69 6 1.03l17.61 3.03 3.6.63c.34.06.66.17.3.55-1.96 2.07-1.91 4.82-2.42 7.35-1.39 6.9-2.68 13.82-4.01 20.73-.63 3.27-1.28 6.54-1.87 9.81-.13.73-.38.91-1.14.8-6.38-.94-12.75-1.87-19.14-2.72-6.2-.83-12.42-1.54-18.64-2.2-5.34-.56-10.68-1.05-16.04-1.38-5.66-.34-11.33-.35-17-.08-4.74.22-9.47.54-14.2.95-5 .43-9.98.94-14.97 1.51-4.65.53-9.3 1.14-13.94 1.76-4.99.66-9.97 1.43-14.96 2.16-1.6.24-1.66.22-1.31-1.34.51-2.24.04-4.4-.34-6.59-1.13-6.54-2.24-13.08-3.35-19.62-.34-1.98-.72-3.95-.97-5.93-.14-1.09-.8-1.8-1.45-2.55-.66-.76-1.34-1.49-1.99-2.26-.61-.71-.6-.74.35-.91 2.91-.51 5.82-1.01 8.73-1.5 3.74-.63 7.48-1.23 11.21-1.87 2.82-.48 5.66.93 6.89 3.48.18.37.4.73.48 1.12.18.87.66.95 1.46.82 3.23-.53 6.47-.99 9.72-1.44.66-.09.69-.31.51-.88-2.13-6.47-4.24-12.95-6.36-19.43-1.39-4.27-2.77-8.54-4.16-12.81-.17-.51-.41-1.01-.55-1.53-.5-1.86.14-3.31 1.87-4.2 1.33-.68 2.81-.96 4.2-1.5 1.28-.51 2.58-.98 3.87-1.47.3-.11.61-.21.57-.66-.13-1.28.78-2.05 1.86-2.29 1.98-.45 3.96-.9 5.94-1.31 7.05-1.46 14.09-2.92 21.14-4.36 1.46-.3 2.92-.58 4.4-.79 2.12-.3 3.23.75 3.15 2.9zm12.68 5.54c-.35-.09-.69-.09-1.07.05.39.07.73.14 1.07.2 2.27.57 4.45 1.32 6.27 2.86.11.09.25.32.37.1.31-.61.79-1.21.53-1.97-.24-.7-.78-1.03-1.49-1.05-1.89-.08-3.78-.13-5.68-.19zm11.55 58.42c.05-.48.13-.97.16-1.45.2-2.81.4-5.63.57-8.44.03-.54.18-.77.77-.64.79.17 1.62.14 2.4.41.42.15.57-.02.58-.44.02-.62.04-1.25.14-1.86.09-.52-.09-.66-.57-.69-1.57-.09-3.14-.23-4.71-.32-2.46-.15-4.93-.26-7.39-.41-.47-.03-.7.05-.68.59.03.65-.01 1.3-.06 1.95-.04.43.11.48.5.44.78-.09 1.56-.15 2.35-.12.6.02.82.18.77.84-.21 3.11-.36 6.23-.52 9.34-.29 1.43-.2 2.9-.32 4.34-.26 3.21-.14 6.45-.72 9.63-.12.63.32.45.58.47 1.7.12 3.41.2 5.11.32.48.03.65-.11.55-.59-.28-1.34-.13-2.69-.05-4.05.15-3.11.51-6.21.54-9.32zm-32.55-49.17c.12-.01.15-.07.11-.18 1.59-3.34 3.17-6.68 4.77-10.02.15-.31.09-.43-.19-.53-1.2-.41-2.33-1-3.58-1.28-3.17-.71-5.42.55-6.12 3.46-1.27 5.23-2.51 10.46-3.77 15.69-.06.21-.14.41-.19.62-1.81 7.78-3.63 15.56-5.44 23.34-.06.26-.27.67.07.73.37.07.89.14 1.12-.39.07-.17.12-.36.19-.53 3.49-8.9 7.2-17.71 11.07-26.45.66-1.47 1.42-2.91 1.96-4.46zm-29.91 16.75c1.64 5.3 3.29 10.59 4.94 15.89.04.14.01.4.21.39.51-.02 1.07 0 1.51-.2.28-.13.11-.65.07-.98-.2-1.72-.41-3.43-.61-5.15l-.87-7.49c-.31-2.68-.6-5.37-.94-8.04-.16-1.28-.18-2.59-.51-3.85-.04-.51-.08-1.02-.13-1.53-.44-4.04-.88-8.07-1.33-12.11-.31-.05-.54.12-.78.21-1.85.67-3.69 1.37-5.55 2.01-1.49.52-1.84 1.02-1.6 2.58.05.34.16.68.26 1.02 1.78 5.75 3.55 11.5 5.33 17.25zm35.25 31.76c.01-.6-.02-1.19.03-1.79.03-.45-.12-.57-.54-.48-.96.22-1.94.13-2.92.16-.28.01-.52.03-.52-.39-.03-2.77-.07-5.53-.12-8.3 0-.29.04-.45.39-.44 1.43.05 2.86-.1 4.33.1 0-.7-.01-1.4 0-2.1.01-.33-.13-.41-.44-.41-3.44.06-6.89.12-10.33.16-.44.01-.38.2-.32.51.15.71.33 1.44.36 2.16.14 3.17.23 6.34.34 9.51-.21.8-.02 1.61-.03 2.42-.02 4.09.46 8.18.15 12.28-.05.62.32.48.65.48 3.2-.04 6.4-.09 9.6-.14.13 0 .27.02.35-.13.34-.88.1-1.79.13-2.69.01-.27-.29-.12-.45-.14-.58-.11-1.1.17-1.64.27-.72.14-1.42-.27-2.15-.13-.52.1-.62-.13-.63-.62-.03-1.26.1-2.54-.13-3.79l-.03-6.02c1.06-.19 2.13-.17 3.18.03.55.13.74 0 .74-.51zm-14.02-47.22c1.1-4.37 2.21-8.74 3.29-13.03-2.13 0-4.22-.02-6.3.01-1.77.02-2.58.85-2.82 2.59-.59 4.27-1.12 8.55-1.55 12.83-.26 2.56-.47 5.13-.7 7.69-.38 2.32-.44 4.68-.66 7.02-.24 2.53-.41 5.07-.6 7.61-.14 1.89-.27 3.78-.38 5.67-.01.19-.13.45.12.58.52.28 1.64-.23 1.8-.81 1.51-5.71 3.03-11.41 4.51-17.13 1.12-4.34 2.2-8.69 3.29-13.03zm-14.74 11.88c0 .22-.02.43 0 .65l.93 8.78c.33 3.14.65 6.29.97 9.43.03.26-.11.7.41.56.39-.11 1.03.3 1.09-.56.14-2.16.31-4.32.49-6.47.26-3.21.53-6.41.8-9.62.19-2.21.44-4.41.58-6.62.11-1.75.43-3.49.37-5.26.47-4.74.94-9.48 1.43-14.22.04-.41-.17-.36-.44-.33-1.91.2-3.82.43-5.7.81-2.47.49-2.96 1.17-2.72 3.69.58 6.39 1.19 12.78 1.79 19.16zm60.73 36.32c-.33.69-.19 1.44-.25 2.15-.27 2.88-.52 5.77-.72 8.66-.14 1.97.54 2.89 2.45 3.45 1.41.41 2.87.56 4.32.69 1.64.15 3.29.37 4.94.05 1.2-.23 1.97-.88 2.29-2.09.21-.79.29-1.59.39-2.39.32-2.68.61-5.36.92-8.05.47-3.82.98-7.63 1.39-11.45.17-1.56-.53-2.48-2.01-3.04-1.15-.44-2.36-.61-3.57-.75-2.12-.24-4.25-.58-6.4-.31-2.02.26-2.78 1.08-2.94 3.11-.28 3.33-.54 6.65-.81 9.97zm-61.34-.98c-.25-3.02-.49-6.05-.74-9.07-.16-1.92-.94-2.71-2.87-3.01-1.39-.22-2.76-.06-4.13.07-2.02.18-4.06.3-5.97 1.05-1.57.61-2.1 1.57-1.91 3.24.38 3.22.76 6.45 1.13 9.67-.15.13-.08.3-.06.45.22 1.83.43 3.66.66 5.48.25 1.96.48 3.92.79 5.87.21 1.32 1.01 2.1 2.37 2.28 1.74.24 3.46.05 5.19-.14 1.56-.17 3.12-.32 4.6-.9 1.21-.47 1.87-1.3 1.9-2.63.02-1.25-.11-2.49-.22-3.73-.24-2.86-.49-5.74-.74-8.63zm31.67-1.29c-.27.21-.11.51-.12.75-.12 4.6.18 9.21-.22 13.81-.03.37.08.46.43.46 1.79.01 3.58.05 5.37.08.54.01.64-.17.46-.69-.3-.9-.36-1.85-.33-2.81.04-1.65.17-3.3.08-4.95.01-1.02.01-2.05.02-3.07v-.5c.01-.21.01-.43.02-.64.32-.02.65-.06.97-.04 1.2.06 1.78.61 1.89 1.79.03.32.01.65 0 .98-.08 3.12-.17 6.24-.25 9.35-.01.3-.12.64.43.64 1.74.02 3.47.1 5.2.17.57.02.64-.2.47-.69-.3-.86-.32-1.75-.28-2.65.12-2.56.21-5.12.31-7.69.06-1.53-.43-2.3-1.85-2.87-.37-.15-.75-.25-1.13-.38.14-.32.58-.13.73-.42 1.3-.4 2.34-1.09 2.43-2.58.15-2.33.26-4.66.3-6.98.03-1.67-.74-2.55-2.35-2.94-.39-.09-.8-.17-1.2-.2-3.73-.26-7.48-.15-11.22-.24-.52-.01-.6.18-.5.61.23.98.34 1.97.33 2.98.01 2.92.01 5.82.01 8.72zm-23.9.64c-.1-1.76-.22-3.51-.28-5.27-.08-2.16-.46-4.32-.14-6.49.06-.39-.08-.47-.42-.44-1.92.14-3.84.27-5.76.39-.5.03-.49.22-.35.62.18.51.34 1.04.39 1.57.29 3.37.55 6.75.81 10.12-.12.06-.11.16-.1.27.28 4.76.96 9.49.9 14.27 0 .39.14.44.47.42 1.68-.13 3.35-.27 5.03-.35.73-.04.89-.3.61-.96-.14-.32-.18-.68-.22-1.03-.36-3.04-.41-6.11-.64-9.16-.03-.45 0-.91 0-1.57.41.96.76 1.72 1.06 2.49 1.23 3.17 2.71 6.25 3.5 9.58.07.31.21.39.5.38 1.9-.08 3.79-.16 5.69-.23.56-.02.56-.25.32-.67-.28-.49-.56-.99-.77-1.51-1.72-4.21-3.44-8.43-5.32-12.58-1.14-1.63-.97-3.22.17-4.78.06-.09.1-.19.15-.29 1.27-2.46 2.54-4.93 3.83-7.43-.52 0-.97.04-1.42-.01-1.53-.18-2.57.3-2.86 1.94-.01.05-.06.09-.08.14-1.55 3.47-3.09 6.95-4.64 10.42-.16.03-.17.41-.43.16zm-24.25 2.98c.26-.76.28-1.54.19-2.32-.13-1.1-.26-2.21-.4-3.31-.38-3.01-.73-6.02-1.15-9.03-.28-2-1.43-3.01-3.44-3.1-.7-.03-1.42-.02-2.11.06-4.41.56-8.79 1.29-13.17 2.02-.49.08-.49.23-.33.61.62 1.42.99 2.91 1.24 4.44.79 4.72 1.6 9.44 2.4 14.16-.08.27-.01.53.03.8.59 4.01 1.62 7.96 1.83 12.03.02.44.25.39.53.34 2.19-.36 4.38-.74 6.57-1.08.52-.08.64-.23.42-.72-.44-.96-.8-1.95-.97-2.99-.43-2.62-.82-5.24-1.26-7.85-.08-.47.02-.65.53-.72 2.09-.28 4.18-.58 6.26-.94 1.38-.25 2.52-.86 2.83-2.4zm111.16 5.98c.38-2.19.73-4.38 1.16-6.55.96-4.85 1.4-9.8 2.78-14.57.09-.31.14-.48-.28-.53a53.45 53.45 0 0 1 -3.36-.55c-.38-.07-.47.02-.47.37 0 .65.03 1.31-.07 1.95-.88 5.81-1.78 11.61-2.68 17.41-.03.19.02.44-.24.52-.41-2.87-.79-5.74-1.22-8.61-.61-4.04-1.25-8.08-1.86-12.12-.07-.47-.27-.59-.72-.65-2.07-.26-4.13-.55-6.2-.85-1.55-.23-1.54-.24-1.49 1.29.11 3.03-.57 5.98-.89 8.96-.32 2.96-.71 5.91-1.08 8.87-.02.02-.05.03-.05.05 0 .04.02.08.03.12-.03.16-.07.33-.1.49-.3.63-.25 1.32-.35 1.98-.51 3.4-.7 6.84-1.46 10.21-.08.37-.03.51.39.56 1.05.11 2.09.26 3.14.43.55.09.71-.1.69-.65-.04-1.3.12-2.6.27-3.89.29-2.5.57-5 .85-7.5.43-3.21.85-6.41 1.28-9.62.38 1.41.62 2.79.81 4.19.27 1.98.67 3.93.81 5.93-.02.05-.06.1-.06.14.53 3.95 1.07 7.89 1.59 11.84.04.32.16.49.48.54 1.98.32 3.95.64 5.93.97.42.07.57-.08.63-.5.1-.72.26-1.43.38-2.15.46-2.7.91-5.39 1.36-8.08zm-49.1-25.08c.2.06.3.12.4.12 4.71.26 9.41.65 14.11 1.07.45.04.55-.21.66-.53.42-1.17.85-2.34 1.29-3.5 2.26-5.99 4.36-12.03 6.92-17.9.59-1.35.92-2.76.82-4.26-.14-1.98-1.34-3.74-3.01-4.33-9.19-3.24-18.37-6.51-27.5-9.93-1.89-.71-3.67-1.72-5.67-2.16-2.06-.45-3.14.01-4.05 1.87-.41.82-.76 1.67-1.12 2.52l-14.16 34.29c-.34.83-.67 1.66-1.02 2.55 1.34-.1 2.55-.2 3.77-.29 5.26-.36 10.52-.33 15.78-.06.28.01.53.04.71-.24.4-.64.82-1.26 1.25-1.91-2.63-.45-4.2-2.38-4.26-4.99-.06-2.46 1.24-4.06 3.15-5.32 3.03-2 6.4-3.24 9.81-4.41.63-.22.84.01 1.08.52 1.7 3.79 2.47 7.78 2.52 11.9.02 1.76-.27 3.47-1.48 4.99zm8.11-37.9c.99.61 1.84 1.13 2.67 1.66 1.61 1.04 3.21 2.1 4.82 3.15.19.12.36.43.64.1 1-1.18.7-2.43-.72-2.97a35.04 35.04 0 0 0 -7.41-1.94zm-20.37-5.52c2.58.57 5.16 1.14 7.53 2.4.13.07.31.26.41.05.3-.62.8-1.19.56-1.96-.21-.68-.72-1.05-1.38-1.07-2.39-.04-4.75.19-7.12.58zm-9.54-2.76c.23.08.38.15.53.18 2.07.42 4.11.92 5.98 1.93.31.17.36.01.46-.19.26-.53.63-1.04.28-1.67-.37-.67-1.01-.76-1.68-.73-1.84.07-3.66.22-5.57.48z" fill="#0b0822"/><path d="m114.94 104.38c1.21-1.52 1.49-3.22 1.47-4.97-.05-4.13-.82-8.12-2.52-11.9-.23-.51-.44-.74-1.08-.52-3.41 1.17-6.78 2.42-9.81 4.41-1.91 1.26-3.21 2.85-3.15 5.32.06 2.61 1.63 4.54 4.26 4.99-.43.65-.85 1.27-1.25 1.91-.18.29-.43.26-.71.24-5.26-.27-10.52-.29-15.78.06-1.22.08-2.43.18-3.77.29.36-.89.68-1.72 1.02-2.55l14.16-34.29c.35-.85.71-1.7 1.12-2.52.92-1.86 1.99-2.33 4.05-1.87 2 .44 3.77 1.45 5.67 2.16 9.13 3.41 18.31 6.69 27.5 9.93 1.67.59 2.87 2.35 3.01 4.33.1 1.5-.23 2.91-.82 4.26-2.56 5.87-4.66 11.91-6.92 17.9-.44 1.16-.86 2.33-1.29 3.5-.12.32-.21.57-.66.53-4.7-.42-9.4-.81-14.11-1.07-.09-.03-.19-.08-.39-.14zm16.87-23.97-.02.03.04-.02c.41.41.75.63 1.14-.07.17-.32.43-.69 1.04-.43.63.27.85.61.69 1.22-.18.7.22.82.75.95-.15-1.58.03-3.07.02-4.76-1.03.99-1.9 1.84-2.78 2.67-.24.24-.45.59-.88.41zm1.65 4.11c.02-.48-.18-1.13-.38-1.77-.08-.25-.19-.46-.52-.34-.76.28-1.54.53-2.15 1.1-.54.51-.54 1.31.08 1.68.45.27.3.43.11.72-.09.14-.34.32-.17.48.21.19.51.34.79.39.2.03.19-.27.26-.44.08-.17-.07-.53.39-.4 1.28.36 1.62.08 1.59-1.42zm-32.56-11.93c.03-.55-.16-1.2-.37-1.84-.08-.22-.14-.49-.5-.36-.73.28-1.48.53-2.09 1.04-.59.5-.63 1.28-.02 1.74.36.27.38.46.11.75-.33.35-.15.51.2.68.39.2.65.23.7-.31.02-.25.09-.44.47-.32 1.19.36 1.54.05 1.5-1.38zm1.97-2.56v-4.57c-1.31.94-2.16 2.34-3.51 3.08.39.34.77.4 1.1-.25.27-.53.69-.45 1.21-.26.7.25.52.76.46 1.19-.06.51.09.74.74.81z" fill="#fdfdfd"/><path d="m147.31 125.06c.03-.16.07-.33.1-.49.01-.06.01-.11.02-.17.36-2.96.76-5.91 1.08-8.87.32-2.98.99-5.94.89-8.96-.05-1.53-.06-1.52 1.49-1.29 2.06.3 4.13.59 6.2.85.44.06.64.18.72.65.61 4.04 1.26 8.08 1.86 12.12.43 2.86.82 5.73 1.22 8.61.26-.08.21-.33.24-.52.9-5.8 1.8-11.61 2.68-17.41.1-.64.07-1.3.07-1.95 0-.36.09-.45.47-.37 1.11.22 2.24.4 3.36.55.42.06.37.22.28.53-1.38 4.77-1.82 9.72-2.78 14.57-.43 2.18-.78 4.37-1.16 6.55-1.35-.15-2.59-.72-3.9-1.06-2.14-.56-4.22-1.34-6.41-1.7-.14-1.99-.54-3.95-.81-5.93-.19-1.39-.43-2.77-.81-4.19-.43 3.21-.85 6.41-1.28 9.62-.29-.46-.79-.51-1.25-.62-.76-.19-1.52-.35-2.28-.52z" fill="#fbfbfa"/><path d="m36.11 127.01c-.8-4.72-1.62-9.44-2.4-14.16-.25-1.53-.62-3.02-1.24-4.44-.17-.39-.16-.53.33-.61 4.38-.73 8.76-1.46 13.17-2.02.7-.09 1.41-.1 2.11-.06 2.02.09 3.17 1.11 3.44 3.1.42 3.01.77 6.02 1.15 9.03.14 1.1.27 2.2.4 3.31.09.78.07 1.56-.19 2.32-.08 0-.17-.03-.24-.01-4.21.8-8.42 1.65-12.58 2.67-1.32.32-2.59.81-3.95.87zm9.87-5.84c-.01-.11-.05-.38-.09-.65-.4-2.76-.82-5.52-1.19-8.28-.35-2.62-.92-3.05-3.5-2.59-.56.1-.68.31-.59.84.24 1.33.44 2.67.64 4.01.45 2.94.89 5.89 1.36 8.83.03.22-.07.56.37.6 1.95.18 3.01-.73 3-2.76z" fill="#fdfdfd"/><path d="m82.4 120.34c1.88 4.15 3.6 8.36 5.32 12.58.21.52.49 1.02.77 1.51.24.41.24.65-.32.67-1.9.07-3.79.15-5.69.23-.29.01-.42-.07-.5-.38-.79-3.33-2.27-6.41-3.5-9.58-.3-.77-.65-1.53-1.06-2.49 0 .66-.03 1.12 0 1.57.23 3.05.28 6.12.64 9.16.04.35.09.71.22 1.03.28.66.12.92-.61.96-1.68.09-3.35.22-5.03.35-.33.03-.48-.03-.47-.42.05-4.78-.62-9.51-.9-14.27-.01-.11-.02-.21.1-.27 1.9-.34 3.82-.45 5.75-.5.26.25.27-.13.42-.16.75-.01 1.49-.02 2.23-.1.87-.09 1.77-.2 2.63.11zm24.29 6.18c.09 1.65-.04 3.3-.08 4.95-.02.96.03 1.9.33 2.81.17.52.08.7-.46.69-1.79-.04-3.58-.07-5.37-.08-.35 0-.46-.09-.43-.46.4-4.6.1-9.21.22-13.81.01-.25-.15-.54.12-.75 1.92-.02 3.83.02 5.74.15 1.72.11 3.45.12 5.17.2.44.02.91.04 1.3.3-.16.29-.59.1-.73.42.38.13.76.23 1.13.38 1.42.57 1.91 1.34 1.85 2.87-.1 2.56-.2 5.12-.31 7.69-.04.9-.02 1.79.28 2.65.17.49.09.71-.47.69-1.73-.07-3.47-.15-5.2-.17-.56-.01-.44-.34-.43-.64.08-3.12.17-6.24.25-9.35.01-.33.03-.65 0-.98-.11-1.18-.69-1.73-1.89-1.79-.32-.02-.64.03-.97.04-.23.21-.21.42-.02.64v.5c-.25 1-.19 2.03-.03 3.05zm-37.33-5.37c.25 2.88.5 5.77.74 8.65.1 1.24.23 2.48.22 3.73-.02 1.33-.69 2.16-1.9 2.63-1.48.57-3.05.73-4.6.9-1.72.19-3.45.38-5.19.14-1.36-.19-2.16-.97-2.37-2.28-.31-1.95-.54-3.91-.79-5.87-.23-1.83-.44-3.65-.66-5.48-.02-.15-.09-.32.06-.45 1.66-.27 3.32-.52 4.98-.82.6-.11.59.38.8.66.05.18.12.36.14.54l.99 9.38c.12 1.14.61 1.58 1.67 1.5.95-.07 1.19-.38 1.09-1.66-.16-2-.41-3.99-.57-5.99-.13-1.64-.47-3.26-.38-4.92 1.92-.29 3.84-.52 5.77-.66z" fill="#d1bfc1"/><path d="m130.7 122.13c.27-3.32.53-6.64.81-9.97.17-2.03.92-2.85 2.94-3.11 2.15-.27 4.27.07 6.4.31 1.21.13 2.42.31 3.57.75 1.49.56 2.18 1.49 2.01 3.04-.42 3.82-.92 7.63-1.39 11.45-.16-.03-.32-.06-.48-.08-1.74-.27-3.42-.9-5.21-.92.37-3.44.75-6.88 1.09-10.32.1-1.04-.34-1.48-1.38-1.57-1.15-.09-1.56.21-1.69 1.33-.14 1.26-.23 2.53-.36 3.79-.21 2.04-.43 4.08-.64 6.13-.27-.03-.54-.05-.8-.09-1.62-.24-3.25-.49-4.87-.74z" fill="#fbfbfa"/><path d="m130.7 122.13c1.62.25 3.25.49 4.88.73.27.04.54.06.8.09-.07 2.19-.38 4.37-.57 6.55-.09 1.13-.23 2.27-.27 3.4-.03.96.43 1.4 1.35 1.46.96.06 1.25-.19 1.4-1.25.09-.64.12-1.29.2-1.94.3-2.53.44-5.07.86-7.58 1.79.02 3.47.66 5.21.92.16.02.32.05.48.08-.3 2.68-.6 5.37-.92 8.05-.09.8-.18 1.6-.39 2.39-.32 1.21-1.1 1.86-2.29 2.09-1.65.32-3.3.09-4.94-.05-1.45-.13-2.91-.28-4.32-.69-1.91-.56-2.59-1.48-2.45-3.45.2-2.89.45-5.77.72-8.66.06-.7-.08-1.45.25-2.14z" fill="#d1bfc1"/><path d="m60.65 122.96c-.21-.29-.2-.77-.8-.66-1.65.3-3.32.55-4.98.82-.38-3.22-.75-6.45-1.13-9.67-.2-1.67.34-2.63 1.91-3.24 1.91-.75 3.95-.87 5.97-1.05 1.37-.13 2.75-.29 4.13-.07 1.93.3 2.71 1.09 2.87 3.01.25 3.02.49 6.05.74 9.07-1.93.14-3.85.36-5.76.66-.28-2.96-.56-5.93-.85-8.89-.08-.84-.5-1.19-1.33-1.21-1.39-.03-1.86.5-1.71 1.88.32 3.1.63 6.23.94 9.35zm52.59-2.45c-.4-.26-.86-.28-1.3-.3-1.72-.08-3.45-.09-5.17-.2-1.91-.12-3.83-.17-5.74-.15.01-2.9 0-5.8.02-8.7 0-1.01-.11-2-.33-2.98-.1-.44-.02-.63.5-.61 3.74.09 7.48-.01 11.22.24.4.03.81.1 1.2.2 1.61.39 2.37 1.26 2.35 2.94-.04 2.33-.15 4.66-.3 6.98-.11 1.48-1.15 2.17-2.45 2.58zm-6.26-5.64h-.13v4.15c0 .26-.08.5.36.56 1.65.22 2.55-.38 2.65-2.02.13-1.95.13-3.9.14-5.85 0-.82-.54-1.34-1.37-1.44-.35-.04-.71 0-1.06-.03-.44-.04-.62.07-.61.57.04 1.35.02 2.71.02 4.06zm-37.01-29.06c-.6-6.39-1.21-12.78-1.8-19.17-.23-2.52.25-3.2 2.72-3.69 1.88-.38 3.79-.61 5.7-.81.26-.03.48-.08.44.33-.48 4.74-.95 9.48-1.43 14.22-.48.01-.57.47-.78.75-1.23 1.65-2.4 3.32-2.67 5.46-.16 1.36-1.03 2.26-2.18 2.91zm1.46-10.78c1.01.07 1.03.06.96-.7-.04-.44.24-.32.45-.35.93-.13 1.18-.53.84-1.39-.32-.82-.9-1.47-1.54-2.07-.2-.19-.35-.2-.54.01-.53.61-1.12 1.17-1.39 1.97-.22.66.05 1.33.6 1.36 1.02.09.66.65.62 1.17zm1.31-9.6c-.35-.24-.65-.11-.93-.11-.18.01-.39.17-.23.29.74.53.34 1.33.54 1.99.14.45.15.97-.45 1.11-.56.13-.77-.23-.81-.74-.01-.15-.09-.26-.26-.22-.19.04-.13.19-.12.32.04.61.53 1.12 1.11 1.05.61-.07.99-.43.96-1.08-.02-.54-.12-1.07-.16-1.61-.03-.36-.2-.79.35-1z" fill="#fbfbfa"/><path d="m84.71 73.93c-1.1 4.34-2.17 8.69-3.3 13.03-1.48 5.71-3.01 11.42-4.51 17.13-.15.58-1.27 1.09-1.8.81-.26-.14-.13-.39-.12-.58.12-1.89.24-3.78.38-5.67.19-2.54.36-5.07.6-7.61.22-2.34.28-4.69.66-7.02 1.12-1.66 2.11-3.38 2.59-5.36.22-.93.27-1.88 1.12-2.6 1.3-1.08 2.78-1.72 4.38-2.13zm-48.6 53.08c1.36-.06 2.64-.55 3.94-.88 4.17-1.02 8.37-1.87 12.58-2.67.08-.01.16.01.24.01-.31 1.54-1.44 2.16-2.82 2.4-2.08.36-4.17.66-6.26.94-.51.07-.61.25-.53.72.43 2.61.83 5.23 1.26 7.85.17 1.04.53 2.04.97 2.99.22.49.1.64-.42.72-2.19.34-4.38.71-6.57 1.08-.28.05-.51.1-.53-.34-.21-4.07-1.24-8.02-1.83-12.03-.04-.26-.12-.52-.03-.79z" fill="#d1bfc1"/><path d="m84.71 73.93c-1.6.42-3.08 1.05-4.38 2.14-.85.71-.9 1.67-1.12 2.6-.48 1.97-1.47 3.69-2.59 5.36.23-2.56.44-5.13.7-7.69.43-4.29.96-8.56 1.55-12.83.24-1.74 1.05-2.57 2.82-2.59 2.09-.03 4.17-.01 6.3-.01-1.07 4.28-2.17 8.65-3.28 13.02zm-2.72-3.26c1.47.31 1.96-.23 1.55-1.6-.18-.62-.44-1.22-.8-1.75-.13-.19-.24-.43-.56-.22-.65.44-1.33.84-1.81 1.47-.43.57-.33 1.45.3 1.65.63.21.47.49.3.86-.09.2-.17.31.16.45.96.4.86-.26.86-.86zm2.17-6.36c-.02-.75-.17-1.32-.92-1.52-.63-.16-1.08.15-1.33.66-.25.5-.48.86-1.1.77-.12-.02-.28.05-.28.23s.15.23.28.2c.59-.12.7.24.77.71.03.22.17.47.34.62.6.54 1.4.18 2.08.42.15.05.2-.31.06-.35-.66-.16-.24-.48-.13-.74.14-.34.23-.7.23-1z" fill="#fbfbfa"/><path d="m93.39 72.64c-.54 1.54-1.3 2.99-1.96 4.47-3.88 8.74-7.58 17.55-11.07 26.45-.07.17-.11.36-.19.53-.23.53-.75.47-1.12.39-.34-.07-.13-.47-.07-.73 1.81-7.78 3.62-15.56 5.44-23.34.05-.21.12-.41.19-.62.25.01.31-.19.39-.35.7-1.37 1.74-2.45 2.85-3.48.68-.63 1.45-1.16 2.36-1.33.69-.13 1.22-.5 1.8-.83.56-.31.66-1.1 1.38-1.16zm1.47 55.03c.23 1.26.11 2.53.13 3.79.01.49.11.72.63.62.73-.14 1.43.27 2.15.13.55-.11 1.06-.38 1.64-.27.26.18.34.43.33.75-.02.69-.01 1.38-.01 2.07-.08.15-.22.12-.35.13-3.2.05-6.4.09-9.6.14-.33 0-.7.14-.65-.48.31-4.1-.17-8.18-.15-12.28 0-.8-.19-1.61.03-2.42.73 0 1.46-.03 2.19 0 2.02.1 4.03-.16 6.05-.1 1.24.04 1.38.51 1.49 1.4 0 .51-.2.64-.72.53a8.501 8.501 0 0 0 -3.18-.03c-.17.14-.14.34-.14.52 0 1.66 0 3.33.01 4.99-.01.19-.03.38.15.51z" fill="#d1bfc1"/><path d="m63.48 89.39c-1.78-5.75-3.55-11.5-5.32-17.25-.1-.33-.21-.67-.26-1.02-.24-1.56.11-2.07 1.6-2.58 1.86-.65 3.7-1.35 5.55-2.01.25-.09.47-.27.78-.21.44 4.04.89 8.07 1.33 12.11.06.51.09 1.02.13 1.53-1.4.39-3.06 3.14-2.24 5.37.63 1.71.03 3.16-1.57 4.06zm1.21-9.96c-.36-.76-.36-.76.36-1.22.57-.36.53-.84.19-1.32-.55-.76-1.3-1.28-2.13-1.7-.29-.15-.38-.03-.49.17-.33.65-.68 1.3-.81 2.02-.16.87.4 1.5 1.28 1.41.26-.03.42-.06.44.23.04 1.19.67.53 1.16.41zm-1.89-5.63c.61-.01 1.14-.51 1.03-1.1-.14-.71-.34-1.41-.61-2.08-.23-.56-.98-.75-1.44-.4-.99.75-.26 1.62-.11 2.44.1.61.36 1.15 1.13 1.14zm-2.43-3.2c-.27.09-.14.27-.09.45.28.95.55 1.91.83 2.86.05.16.01.44.31.33.22-.08.08-.29.05-.42-.26-.96-.54-1.91-.81-2.86-.05-.16-.08-.33-.29-.36zm33.02 2.04c-.72.06-.82.85-1.37 1.15-.59.32-1.11.69-1.8.83-.91.18-1.68.7-2.36 1.33-1.11 1.03-2.15 2.12-2.85 3.48-.08.16-.14.36-.39.35 1.25-5.23 2.5-10.47 3.77-15.69.71-2.91 2.96-4.16 6.12-3.46 1.25.28 2.38.87 3.58 1.28.29.1.34.22.19.53-1.6 3.33-3.18 6.68-4.77 10.02-.1.03-.15.09-.12.18zm-2.56-1.29c1.47.21 1.88-.21 1.55-1.56-.01-.05-.03-.1-.05-.15-.26-.7-.43-1.76-1.06-1.88-.71-.13-1.38.7-1.93 1.28-.69.73-.54 1.51.37 1.94.3.14.27.25.18.47-.08.21-.15.42-.23.63 1.06.28 1.06.28 1.17-.73zm2.96-4.31c-2-2.12-1.93-2.72.39-3.78-1.12-.55-1.48.9-2.43.9.06-.5.14-.99.5-1.44-.34.04-.58-.24-.82-.15-.27 1.23-.5 2.41-.99 3.57.22.19.57.17.92.29-.15-.65-.08-1.01.31-1.7.63.82.62 2.21 2.12 2.31z" fill="#fbfbfa"/><path d="m153.73 126.69c2.19.37 4.27 1.14 6.41 1.7 1.3.34 2.54.91 3.9 1.06-.45 2.69-.91 5.38-1.36 8.07-.12.72-.29 1.43-.38 2.15-.05.42-.21.57-.63.5-1.98-.33-3.95-.65-5.93-.97-.32-.05-.43-.22-.48-.54-.52-3.95-1.06-7.89-1.59-11.84 0-.03.04-.08.06-.13z" fill="#d1bfc1"/><path d="m120.24 121c.17-3.11.32-6.23.52-9.34.04-.66-.17-.82-.77-.84-.79-.02-1.57.03-2.35.12-.39.05-.54-.01-.5-.44.06-.65.09-1.3.06-1.95-.02-.54.21-.62.68-.59 2.46.15 4.93.27 7.39.41 1.57.09 3.14.23 4.71.32.48.03.66.16.57.69-.11.61-.12 1.24-.14 1.86-.01.42-.16.59-.58.44-.78-.27-1.6-.25-2.4-.41-.59-.13-.74.1-.77.64-.17 2.81-.37 5.63-.57 8.44-.03.49-.11.97-.16 1.45-.17-.28-.45-.35-.75-.38-1.64-.15-3.27-.44-4.94-.42zm-21.51.15c-.1-.88-.25-1.36-1.49-1.4-2.03-.06-4.03.2-6.05.1-.73-.04-1.46 0-2.19 0-.11-3.17-.2-6.34-.34-9.51-.03-.72-.21-1.44-.36-2.16-.06-.31-.12-.5.32-.51 3.44-.04 6.89-.1 10.33-.16.3-.01.44.08.44.41-.02.7 0 1.4 0 2.1-1.47-.2-2.9-.04-4.33-.1-.35-.01-.39.15-.39.44.05 2.77.09 5.53.12 8.3 0 .42.24.39.52.39.97-.03 1.95.06 2.92-.16.41-.09.57.03.54.48-.06.59-.03 1.19-.04 1.78z" fill="#fbfbfa"/><path d="m69.97 85.81c1.15-.65 2.02-1.56 2.19-2.91.27-2.14 1.44-3.81 2.67-5.46.21-.28.29-.74.78-.75.05 1.76-.26 3.5-.37 5.26-.14 2.21-.39 4.41-.58 6.62-.27 3.21-.54 6.41-.8 9.62-.17 2.16-.35 4.31-.49 6.47-.05.86-.7.45-1.09.56-.51.14-.38-.3-.41-.56-.33-3.14-.65-6.29-.97-9.43l-.93-8.78c-.02-.2 0-.42 0-.64zm50.27 35.19c1.66-.02 3.3.27 4.94.43.3.03.58.1.75.38-.02 3.11-.39 6.21-.56 9.32-.07 1.35-.23 2.7.05 4.05.1.48-.06.63-.55.59-1.7-.12-3.41-.2-5.11-.32-.25-.02-.69.16-.58-.47.58-3.18.46-6.42.72-9.63.14-1.45.06-2.92.34-4.35zm-56.76-31.61c1.6-.9 2.2-2.35 1.57-4.06-.82-2.23.85-4.98 2.24-5.37.33 1.26.34 2.56.51 3.85.34 2.68.63 5.36.94 8.04l.87 7.49c.2 1.72.41 3.43.61 5.15.04.34.21.86-.07.98-.44.2-1 .18-1.51.2-.2.01-.17-.25-.21-.39-1.66-5.3-3.31-10.59-4.95-15.89z" fill="#d1bfc1"/><path d="m77.13 120.5c-1.93.05-3.85.16-5.75.5-.27-3.38-.52-6.75-.81-10.12-.05-.53-.21-1.06-.39-1.57-.14-.4-.15-.59.35-.62 1.92-.12 3.84-.25 5.76-.39.34-.02.48.05.42.44-.32 2.17.05 4.33.14 6.49.07 1.76.19 3.51.28 5.27z" fill="#fbfbfa"/><path d="m147.31 125.06c.76.17 1.52.33 2.27.51.46.11.96.16 1.25.62-.28 2.5-.56 5-.85 7.5-.15 1.29-.31 2.59-.27 3.89.02.55-.15.74-.69.65-1.04-.16-2.09-.32-3.14-.43-.42-.04-.47-.19-.39-.56.76-3.36.95-6.81 1.46-10.21.11-.65.06-1.34.36-1.97z" fill="#d1bfc1"/><path d="m82.4 120.34c-.86-.31-1.76-.2-2.62-.11-.75.08-1.49.09-2.23.1 1.55-3.47 3.09-6.95 4.64-10.42.02-.05.07-.09.08-.14.29-1.63 1.34-2.12 2.86-1.94.44.05.9.01 1.42.01-1.29 2.5-2.56 4.97-3.83 7.43-.05.1-.09.2-.15.29-1.14 1.56-1.31 3.15-.17 4.78zm40.65-53.86c2.66.41 5.07 1.04 7.41 1.94 1.42.54 1.72 1.79.72 2.97-.28.33-.46.02-.64-.1-1.61-1.04-3.21-2.1-4.82-3.15-.84-.54-1.69-1.05-2.67-1.66zm-20.37-5.52c2.37-.39 4.73-.62 7.12-.58.66.01 1.17.38 1.38 1.07.24.78-.26 1.35-.56 1.96-.1.21-.28.02-.41-.05-2.37-1.26-4.95-1.83-7.53-2.4zm11.71 2.43c1.89.06 3.79.1 5.68.18.7.03 1.25.36 1.49 1.05.26.76-.21 1.36-.53 1.97-.12.23-.26-.01-.37-.1-1.83-1.54-4.01-2.29-6.27-2.86zm-21.25-5.19c1.91-.26 3.73-.41 5.57-.48.68-.03 1.31.06 1.68.73.35.63-.01 1.14-.28 1.67-.1.2-.14.36-.46.19-1.87-1-3.92-1.51-5.98-1.93-.16-.02-.3-.1-.53-.18zm1.72 69.47c-.17-.13-.16-.33-.16-.51 0-1.66-.01-3.33-.01-4.99 0-.18-.03-.38.14-.52zm4.88 7.09c0-.69-.02-1.38.01-2.07.01-.32-.07-.57-.33-.75.17.01.46-.14.45.14-.03.89.2 1.8-.13 2.68zm6.95-8.24c-.17-1.03-.23-2.05.02-3.07 0 1.02-.01 2.05-.02 3.07z" fill="#fbfbfa"/><path d="m114.39 63.39v.25c-.34-.06-.68-.13-1.07-.2.38-.14.73-.13 1.07-.05z" fill="#d1bfc1"/><path d="m106.72 122.95c-.18-.22-.2-.43.02-.64-.01.21-.02.42-.02.64z" fill="#fbfbfa"/><path d="m93.39 72.64c-.02-.1.02-.15.11-.18.04.11 0 .17-.11.18zm54.04 51.76c-.01.06-.01.11-.02.17-.01-.04-.03-.08-.03-.12 0-.02.03-.03.05-.05z" fill="#d1bfc1"/><g fill="#0b0822"><path d="m133.46 84.52c.03 1.5-.32 1.77-1.59 1.41-.46-.13-.31.23-.39.4-.08.16-.07.47-.26.44-.28-.04-.58-.19-.79-.39-.17-.15.08-.34.17-.48.2-.29.35-.44-.11-.72-.62-.37-.61-1.17-.08-1.68.61-.57 1.38-.83 2.15-1.1.33-.12.44.1.52.34.21.66.41 1.31.38 1.78zm-32.56-11.93c.04 1.42-.32 1.73-1.5 1.37-.38-.12-.45.07-.47.32-.05.55-.31.51-.7.31-.34-.17-.52-.33-.2-.68.27-.29.25-.47-.11-.75-.61-.46-.57-1.24.02-1.74.61-.51 1.36-.76 2.09-1.04.35-.14.42.14.5.36.22.65.4 1.3.37 1.85zm30.91 7.82c.44.18.64-.17.88-.4.88-.83 1.75-1.68 2.78-2.67.02 1.69-.17 3.18-.02 4.76-.53-.13-.93-.25-.75-.95.16-.6-.06-.95-.69-1.22-.61-.26-.87.11-1.04.43-.39.71-.73.48-1.14.07zm2.94-.46c.02-.48.04-.89.07-1.3-.42.28-.79.5-.99.92.27.12.54.23.92.38zm-31.88-9.92c-.64-.06-.8-.29-.73-.81.06-.43.24-.94-.46-1.19-.53-.19-.95-.27-1.21.26-.33.65-.71.59-1.1.25 1.35-.74 2.2-2.14 3.51-3.08-.01 1.54-.01 3.03-.01 4.57zm-1.71-2.53c.39.19.79.55.95.35.28-.34.21-.86.19-1.49-.44.45-.76.76-1.14 1.14z"/><path d="m131.83 80.43-.04.01.02-.03z"/><path d="m45.98 121.17c.01 2.03-1.05 2.94-3 2.76-.44-.04-.33-.38-.37-.6-.47-2.94-.91-5.89-1.36-8.83-.21-1.34-.4-2.68-.64-4.01-.1-.53.03-.74.59-.84 2.58-.45 3.15-.02 3.5 2.59.37 2.77.79 5.52 1.19 8.28.05.27.08.54.09.65zm14.67 1.79c-.32-3.12-.63-6.24-.95-9.36-.14-1.38.32-1.91 1.71-1.88.84.02 1.25.36 1.33 1.21.3 2.96.57 5.92.85 8.89-.09 1.66.24 3.28.38 4.92.16 2 .41 3.99.57 5.99.1 1.28-.14 1.59-1.09 1.66-1.06.08-1.55-.36-1.67-1.5l-.99-9.38c-.01-.2-.09-.37-.14-.55zm78.7.64c-.42 2.51-.56 5.06-.86 7.58-.08.65-.11 1.3-.2 1.94-.14 1.06-.43 1.31-1.4 1.25-.93-.05-1.39-.5-1.35-1.46.04-1.14.18-2.27.27-3.4.18-2.18.5-4.36.57-6.55.21-2.04.43-4.08.64-6.13.13-1.26.22-2.53.36-3.79.13-1.12.53-1.42 1.69-1.33 1.04.09 1.48.53 1.38 1.57-.35 3.44-.73 6.88-1.1 10.32zm-32.37-8.73c0-1.35.02-2.71-.01-4.06-.01-.5.17-.61.61-.57.35.03.71-.01 1.06.03.83.09 1.37.62 1.37 1.44-.01 1.95-.02 3.9-.14 5.85-.11 1.65-1.01 2.25-2.65 2.02-.43-.06-.36-.3-.36-.56v-4.15zm-35.55-39.84c.04-.53.39-1.09-.61-1.15-.56-.04-.82-.71-.6-1.36.27-.8.86-1.36 1.39-1.97.19-.21.34-.2.54-.01.64.6 1.21 1.24 1.54 2.07.34.86.09 1.26-.84 1.39-.22.03-.5-.09-.45.35.07.75.04.75-.97.68zm1.31-9.6c-.56.21-.38.64-.36 1.01.04.54.13 1.07.16 1.61.03.65-.35 1.01-.96 1.08-.58.06-1.07-.44-1.11-1.05-.01-.13-.07-.28.12-.32.17-.04.25.08.26.22.04.5.25.87.81.74.61-.14.59-.66.45-1.11-.2-.65.2-1.46-.54-1.99-.16-.12.05-.28.23-.29.29-.01.59-.14.94.1zm9.25 5.24c0 .6.1 1.26-.86.87-.33-.14-.25-.24-.16-.45.17-.38.33-.66-.3-.86s-.73-1.08-.3-1.65c.48-.64 1.16-1.03 1.81-1.47.32-.22.44.03.56.22.37.54.62 1.13.8 1.75.41 1.36-.08 1.9-1.55 1.59zm2.17-6.36c0 .29-.09.65-.24 1.01-.1.26-.52.58.13.74.14.03.09.4-.06.35-.68-.24-1.48.12-2.08-.42-.17-.15-.31-.4-.34-.62-.07-.47-.18-.83-.77-.71-.13.03-.28-.02-.28-.2 0-.17.16-.24.28-.23.63.09.86-.28 1.1-.77.25-.5.7-.82 1.33-.66.77.19.91.77.93 1.51zm-.52-.09c-.01-.1-.01-.23-.02-.36-.04-.38-.19-.72-.57-.78-.41-.07-.56.28-.77.58-.42.62.12.9.38 1.29.16.24.19.71.5.66.38-.06.3-.56.43-.86.05-.16.03-.34.05-.53zm-18.95 15.21c-.49.13-1.11.78-1.17-.4-.01-.29-.17-.26-.44-.23-.88.09-1.44-.54-1.28-1.41.13-.72.48-1.37.81-2.02.11-.21.2-.32.49-.17.83.42 1.58.94 2.13 1.7.34.47.38.95-.19 1.32-.71.45-.71.45-.35 1.21zm-1.89-5.63c-.76.01-1.03-.54-1.14-1.14-.15-.81-.88-1.69.11-2.44.46-.35 1.21-.16 1.44.4.27.67.48 1.37.61 2.08.12.59-.42 1.09-1.02 1.1zm.67-1.08c-.2-.64-.36-1.3-.6-1.92-.12-.32-.45-.38-.76-.28-.32.1-.52.36-.44.68.15.63.34 1.25.56 1.86.11.3.4.46.73.34.28-.1.51-.3.51-.68zm-3.1-2.12c.22.03.24.2.29.36.27.95.55 1.91.81 2.86.04.13.17.34-.05.42-.3.11-.26-.16-.31-.33-.28-.95-.55-1.91-.83-2.86-.05-.18-.18-.36.09-.45zm30.46.75c-.11 1.01-.11 1.01-1.17.73.08-.21.15-.43.23-.63.09-.22.12-.32-.18-.47-.91-.43-1.05-1.21-.37-1.94.55-.58 1.22-1.41 1.93-1.28.63.12.8 1.18 1.06 1.88.02.05.03.1.05.15.33 1.36-.09 1.77-1.55 1.56zm2.96-4.31c-1.5-.1-1.49-1.49-2.11-2.31-.39.69-.46 1.05-.31 1.7-.35-.11-.7-.1-.92-.29.49-1.16.72-2.34.99-3.57.24-.09.48.19.82.15-.36.45-.44.94-.5 1.44.95 0 1.31-1.45 2.43-.9-2.33 1.06-2.4 1.65-.4 3.78z"/></g><path d="m134.75 79.95c-.37-.16-.64-.27-.92-.38.19-.41.56-.64.99-.92-.03.41-.05.82-.07 1.3z" fill="#fbfbfa"/><path d="m101.16 67.5c.38-.38.7-.7 1.14-1.13.02.62.09 1.15-.19 1.49-.16.19-.56-.17-.95-.36z" fill="#d1bfc1"/><path d="m83.64 64.22c-.02.2 0 .37-.06.52-.13.3-.05.8-.43.86-.31.05-.34-.42-.5-.66-.26-.39-.8-.67-.38-1.29.2-.3.36-.65.77-.58.38.07.54.41.57.78.02.13.03.27.03.37zm-20.17 8.5c0 .38-.22.58-.51.68-.33.12-.62-.04-.73-.34-.22-.61-.41-1.23-.56-1.86-.08-.32.13-.58.44-.68s.64-.04.76.28c.23.63.4 1.28.6 1.92z" fill="#fbfbfa"/></svg>