<svg width="200" height="200" fill="none" xmlns="http://www.w3.org/2000/svg"><path d="M200 0H0v200h200V0z" fill="#000"/><path fill-rule="evenodd" clip-rule="evenodd" d="M126.767 34.45s2.442 0 2.442 8.13c0 7.319-6.511 10.572-10.581 10.572-4.07 0-10.581-2.44-10.581-10.571 0-5.692 4.883-9.758 4.883-9.758L99.093 19 85.256 32.823s4.883 4.066 4.883 10.57c0 8.945-6.511 10.572-10.58 10.572-4.07 0-10.582-4.066-10.582-10.571 0-8.131 2.442-8.131 2.442-8.131L47 19.813l21.977 52.854h60.232l21.977-52.854-24.419 14.637z" fill="#fff"/><path d="M151.998 113.312c0-21.141-16.279-30.085-26.861-30.085H72.231l25.232 31.712h4.884s-5.698-1.627-5.698-8.945c0-8.944 8.954-8.944 9.768-8.944 7.325 0 17.906 8.131 26.046 17.889l-20.349 17.889 37.442 47.161v-31.712l-11.395-12.197c.814.813 13.837-7.318 13.837-22.768z" fill="#fff"/></svg>