<svg fill="none" height="60" viewBox="0 0 60 60" width="60" xmlns="http://www.w3.org/2000/svg" xmlns:xlink="http://www.w3.org/1999/xlink"><linearGradient id="a"><stop offset="0" stop-color="#e4f2ff"/><stop offset="1" stop-color="#b2cbff"/></linearGradient><linearGradient id="b" gradientUnits="userSpaceOnUse" x1="49.922" x2="49.922" xlink:href="#a" y1="45.7291" y2="51.2204"/><linearGradient id="c"><stop offset="0" stop-color="#3f3ced" stop-opacity="0"/><stop offset=".2796" stop-color="#3c3de4" stop-opacity=".28"/><stop offset=".7305" stop-color="#3541cc" stop-opacity=".731"/><stop offset="1" stop-color="#2f43bb"/></linearGradient><linearGradient id="d" gradientUnits="userSpaceOnUse" x1="49.9236" x2="49.9236" xlink:href="#c" y1="45.8087" y2="55.0438"/><linearGradient id="e" gradientUnits="userSpaceOnUse" x1="49.9255" x2="49.9255" xlink:href="#c" y1="45.8087" y2="55.0438"/><linearGradient id="f"><stop offset="0" stop-color="#fff" stop-opacity="0"/><stop offset="1" stop-color="#fff"/></linearGradient><linearGradient id="g" gradientUnits="userSpaceOnUse" x1="49.8982" x2="47.7404" xlink:href="#f" y1="47.2885" y2="41.9622"/><linearGradient id="h" gradientUnits="userSpaceOnUse" x1="49.922" x2="49.922" xlink:href="#a" y1="41.4937" y2="46.985"/><linearGradient id="i" gradientUnits="userSpaceOnUse" x1="49.9236" x2="49.9236" xlink:href="#c" y1="41.5734" y2="50.8084"/><linearGradient id="j" gradientUnits="userSpaceOnUse" x1="49.9255" x2="49.9255" xlink:href="#c" y1="41.5734" y2="50.8084"/><linearGradient id="k" gradientUnits="userSpaceOnUse" x1="49.8982" x2="47.7404" xlink:href="#f" y1="43.0565" y2="37.7302"/><linearGradient id="l" gradientUnits="userSpaceOnUse" x1="49.922" x2="49.922" xlink:href="#a" y1="37.2583" y2="42.7496"/><linearGradient id="m" gradientUnits="userSpaceOnUse" x1="49.9236" x2="49.9236" xlink:href="#c" y1="37.338" y2="46.573"/><linearGradient id="n" gradientUnits="userSpaceOnUse" x1="49.9255" x2="49.9255" xlink:href="#c" y1="37.338" y2="46.573"/><linearGradient id="o" gradientUnits="userSpaceOnUse" x1="49.8982" x2="47.7404" xlink:href="#f" y1="38.8177" y2="33.4914"/><linearGradient id="p" gradientUnits="userSpaceOnUse" x1="49.922" x2="49.922" xlink:href="#a" y1="33.0263" y2="38.5175"/><linearGradient id="q" gradientUnits="userSpaceOnUse" x1="49.9236" x2="49.9236" xlink:href="#c" y1="33.1059" y2="42.341"/><linearGradient id="r" gradientUnits="userSpaceOnUse" x1="49.9255" x2="49.9255" xlink:href="#c" y1="33.1059" y2="42.341"/><linearGradient id="s" gradientUnits="userSpaceOnUse" x1="49.8982" x2="47.7404" xlink:href="#f" y1="34.579" y2="29.2528"/><linearGradient id="t" gradientUnits="userSpaceOnUse" x1="49.922" x2="49.922" xlink:href="#a" y1="28.7909" y2="34.2821"/><linearGradient id="u" gradientUnits="userSpaceOnUse" x1="49.9236" x2="49.9236" xlink:href="#c" y1="28.8705" y2="38.1056"/><linearGradient id="v" gradientUnits="userSpaceOnUse" x1="49.9255" x2="49.9255" xlink:href="#c" y1="28.8705" y2="38.1056"/><linearGradient id="w" gradientUnits="userSpaceOnUse" x1="49.8982" x2="47.7404" xlink:href="#f" y1="30.3503" y2="25.0241"/><linearGradient id="x" gradientUnits="userSpaceOnUse" x1="49.922" x2="49.922" xlink:href="#a" y1="24.5522" y2="30.0435"/><linearGradient id="y" gradientUnits="userSpaceOnUse" x1="49.9236" x2="49.9236" xlink:href="#c" y1="24.6318" y2="33.867"/><linearGradient id="z" gradientUnits="userSpaceOnUse" x1="49.9255" x2="49.9255" xlink:href="#c" y1="24.6318" y2="33.867"/><linearGradient id="A" gradientUnits="userSpaceOnUse" x1="49.8982" x2="47.7404" xlink:href="#f" y1="26.1115" y2="20.7853"/><linearGradient id="B" gradientUnits="userSpaceOnUse" x1="49.922" x2="49.922" xlink:href="#a" y1="20.3168" y2="25.808"/><linearGradient id="C" gradientUnits="userSpaceOnUse" x1="49.9236" x2="49.9236" xlink:href="#c" y1="20.3964" y2="29.6315"/><linearGradient id="D" gradientUnits="userSpaceOnUse" x1="49.9255" x2="49.9255" xlink:href="#c" y1="20.3963" y2="29.6314"/><linearGradient id="E" gradientUnits="userSpaceOnUse" x1="49.8982" x2="47.7404" xlink:href="#f" y1="21.8729" y2="16.5466"/><linearGradient id="F" gradientUnits="userSpaceOnUse" x1="49.922" x2="49.922" xlink:href="#a" y1="16.0847" y2="21.5759"/><linearGradient id="G" gradientUnits="userSpaceOnUse" x1="49.9236" x2="49.9236" xlink:href="#c" y1="16.1643" y2="25.3994"/><linearGradient id="H" gradientUnits="userSpaceOnUse" x1="49.9255" x2="49.9255" xlink:href="#c" y1="16.1643" y2="25.3994"/><linearGradient id="I" gradientUnits="userSpaceOnUse" x1="49.8982" x2="47.7404" xlink:href="#f" y1="17.6441" y2="12.3178"/><linearGradient id="J" gradientUnits="userSpaceOnUse" x1="24.5119" x2="64.6294" y1="3.20116" y2="32.4229"><stop offset="0" stop-color="#4ab272"/><stop offset="1" stop-color="#077565"/></linearGradient><linearGradient id="K"><stop offset="0" stop-color="#005a01" stop-opacity="0"/><stop offset="1" stop-color="#005a01"/></linearGradient><linearGradient id="L" gradientUnits="userSpaceOnUse" x1="15.5499" x2="14.3035" xlink:href="#K" y1="42.7372" y2="82.3926"/><linearGradient id="M" gradientUnits="userSpaceOnUse" x1="27.3739" x2="32.9283" xlink:href="#K" y1="50.5454" y2="72.1848"/><linearGradient id="N" gradientUnits="userSpaceOnUse" x1="45.2267" x2="43.195" xlink:href="#K" y1="50.1264" y2="76.7115"/><linearGradient id="O"><stop offset="0" stop-color="#91f27f" stop-opacity="0"/><stop offset="1" stop-color="#ffed82"/></linearGradient><linearGradient id="P" gradientUnits="userSpaceOnUse" x1="27.6235" x2="1.33324" xlink:href="#O" y1="34.6027" y2="-13.3598"/><linearGradient id="Q" gradientUnits="userSpaceOnUse" x1="46.549" x2="12.5161" xlink:href="#K" y1="43.7998" y2="24.1433"/><linearGradient id="R"><stop offset="0" stop-color="#ffc738"/><stop offset=".1876" stop-color="#fdbf3c"/><stop offset=".4837" stop-color="#f7a848"/><stop offset=".8493" stop-color="#ed835b"/><stop offset="1" stop-color="#e97264"/></linearGradient><linearGradient id="S" gradientUnits="userSpaceOnUse" x1="26.5006" x2="45.0011" xlink:href="#R" y1="28.8895" y2="45.1693"/><linearGradient id="T" gradientUnits="userSpaceOnUse" x1="28.269" x2="34.4082" y1="-1.78546" y2="11.46"><stop offset="0" stop-color="#4ab272"/><stop offset=".3386" stop-color="#47b071"/><stop offset=".5502" stop-color="#3fa870"/><stop offset=".727" stop-color="#309b6d"/><stop offset=".8837" stop-color="#1c8869"/><stop offset="1" stop-color="#077565"/></linearGradient><linearGradient id="U" gradientUnits="userSpaceOnUse" x1="30.3575" x2="38.6735" xlink:href="#K" y1="5.15484" y2="18.317"/><linearGradient id="V" gradientUnits="userSpaceOnUse" x1="30.7754" x2="31.1911" xlink:href="#K" y1=".438651" y2="4.61088"/><linearGradient id="W" gradientUnits="userSpaceOnUse" x1="28.896" x2="12.5169" xlink:href="#O" y1="5.57096" y2="5.2764"/><linearGradient id="X" gradientUnits="userSpaceOnUse" x1="30.4366" x2="30.4366" xlink:href="#R" y1="10.3139" y2="12.3132"/><linearGradient id="Y" gradientUnits="userSpaceOnUse" x1="28.8512" x2="16.1557" xlink:href="#K" y1="47.4212" y2="46.3413"/><linearGradient id="Z"><stop offset="0" stop-color="#ffd945"/><stop offset=".3043" stop-color="#ffcd3e"/><stop offset=".8558" stop-color="#ffad2b"/><stop offset="1" stop-color="#ffa325"/></linearGradient><linearGradient id="aa" gradientUnits="userSpaceOnUse" x1="10.0783" x2="10.0783" xlink:href="#Z" y1="55.8506" y2="61.3418"/><linearGradient id="ab"><stop offset="0" stop-color="#e87264" stop-opacity="0"/><stop offset="1" stop-color="#ff7044"/></linearGradient><linearGradient id="ac" gradientUnits="userSpaceOnUse" x1="10.0798" x2="10.0798" xlink:href="#ab" y1="55.9302" y2="65.1652"/><linearGradient id="ad"><stop offset="0" stop-color="#ffd945" stop-opacity="0"/><stop offset="1" stop-color="#fbed21"/></linearGradient><linearGradient id="ae" gradientUnits="userSpaceOnUse" x1="10.0525" x2="7.89482" xlink:href="#ad" y1="57.4099" y2="52.0836"/><linearGradient id="af" gradientUnits="userSpaceOnUse" x1="10.0783" x2="10.0783" xlink:href="#Z" y1="51.6185" y2="57.1097"/><linearGradient id="ag" gradientUnits="userSpaceOnUse" x1="10.0798" x2="10.0798" xlink:href="#ab" y1="51.6983" y2="60.9333"/><linearGradient id="ah" gradientUnits="userSpaceOnUse" x1="10.0798" x2="10.0798" xlink:href="#ab" y1="51.6981" y2="60.9332"/><linearGradient id="ai" gradientUnits="userSpaceOnUse" x1="10.0525" x2="7.89479" xlink:href="#ad" y1="53.1779" y2="47.8517"/><linearGradient id="aj" gradientUnits="userSpaceOnUse" x1="10.0783" x2="10.0783" xlink:href="#Z" y1="47.3798" y2="52.871"/><linearGradient id="ak" gradientUnits="userSpaceOnUse" x1="10.0798" x2="10.0798" xlink:href="#ab" y1="47.4594" y2="56.6944"/><linearGradient id="al" gradientUnits="userSpaceOnUse" x1="10.0525" x2="7.89479" xlink:href="#ad" y1="48.9425" y2="43.6163"/><linearGradient id="am" gradientUnits="userSpaceOnUse" x1="10.0783" x2="10.0783" xlink:href="#Z" y1="43.1477" y2="48.6391"/><linearGradient id="an" gradientUnits="userSpaceOnUse" x1="10.0798" x2="10.0798" xlink:href="#ab" y1="43.2275" y2="52.4627"/><linearGradient id="ao" gradientUnits="userSpaceOnUse" x1="10.0798" x2="10.0798" xlink:href="#ab" y1="43.2274" y2="52.4625"/><linearGradient id="ap" gradientUnits="userSpaceOnUse" x1="10.0525" x2="7.89479" xlink:href="#ad" y1="44.7071" y2="39.3809"/><linearGradient id="aq" gradientUnits="userSpaceOnUse" x1="10.0783" x2="10.0783" xlink:href="#Z" y1="38.9123" y2="44.4035"/><linearGradient id="ar" gradientUnits="userSpaceOnUse" x1="10.0798" x2="10.0798" xlink:href="#ab" y1="38.9918" y2="48.227"/><linearGradient id="as" gradientUnits="userSpaceOnUse" x1="10.0525" x2="7.89479" xlink:href="#ad" y1="40.4718" y2="35.1455"/><linearGradient id="at" gradientUnits="userSpaceOnUse" x1="10.0783" x2="10.0783" xlink:href="#Z" y1="34.6769" y2="40.1682"/><linearGradient id="au" gradientUnits="userSpaceOnUse" x1="10.0798" x2="10.0798" xlink:href="#ab" y1="34.7566" y2="43.9917"/><linearGradient id="av" gradientUnits="userSpaceOnUse" x1="10.0798" x2="10.0798" xlink:href="#ab" y1="34.7565" y2="43.9916"/><linearGradient id="aw" gradientUnits="userSpaceOnUse" x1="10.0525" x2="7.89479" xlink:href="#ad" y1="36.2363" y2="30.91"/><linearGradient id="ax" gradientUnits="userSpaceOnUse" x1="45.424" x2="45.424" xlink:href="#Z" y1="55.8506" y2="61.3418"/><linearGradient id="ay" gradientUnits="userSpaceOnUse" x1="45.4275" x2="45.4275" xlink:href="#ab" y1="55.9302" y2="65.1652"/><linearGradient id="az" gradientUnits="userSpaceOnUse" x1="45.4314" x2="45.4314" xlink:href="#ab" y1="55.9302" y2="65.1652"/><linearGradient id="aA" gradientUnits="userSpaceOnUse" x1="45.408" x2="43.2503" xlink:href="#ad" y1="57.4099" y2="52.0836"/><linearGradient id="aB" gradientUnits="userSpaceOnUse" x1="45.424" x2="45.424" xlink:href="#Z" y1="51.6185" y2="57.1097"/><linearGradient id="aC" gradientUnits="userSpaceOnUse" x1="45.4275" x2="45.4275" xlink:href="#ab" y1="51.6983" y2="60.9333"/><linearGradient id="aD" gradientUnits="userSpaceOnUse" x1="45.4314" x2="45.4314" xlink:href="#ab" y1="51.6981" y2="60.9332"/><linearGradient id="aE" gradientUnits="userSpaceOnUse" x1="45.408" x2="43.2503" xlink:href="#ad" y1="53.1779" y2="47.8517"/><g opacity=".7"><path d="m59.3478 49.8772h-18.8516c-.3603 0-.6524-.2862-.6524-.6392v-2.957c0-.3531.292-.6392.6524-.6392h18.8516c.3603 0 .6525.2861.6525.6392v2.957c0 .3529-.2921.6392-.6525.6392z" fill="url(#b)"/><path d="m56.9563 49.8772h-14.0655c-.3128 0-.5666-.2485-.5666-.5551v-3.1252c0-.3066.2536-.5551.5666-.5551h14.0655c.3128 0 .5666.2485.5666.5551v3.1252c0 .3065-.2536.5551-.5666.5551z" fill="url(#d)"/><path d="m52.3473 49.8772h-4.8435c-.1887 0-.3417-.1499-.3417-.3347v-3.566c0-.1848.153-.3347.3417-.3347h4.8435c.1886 0 .3416.1499.3416.3347v3.566c0 .1848-.153.3347-.3416.3347z" fill="url(#e)"/><path d="m41.0646 46.1574c-.3603 0-.6525.2862-.6525.6392v2.957c0 .0411.0043.0811.0119.1199.0235.0025.0474.004.0717.004h18.8515c.3603 0 .6525-.2861.6525-.6392v-2.957c0-.041-.0044-.081-.0119-.1199-.0236-.0024-.0475-.004-.0717-.004z" fill="url(#g)"/><path d="m59.3478 45.6418h-18.8516c-.3603 0-.6524-.2862-.6524-.6392v-2.957c0-.353.292-.6392.6524-.6392h18.8516c.3603 0 .6525.2862.6525.6392v2.957c0 .3529-.2921.6392-.6525.6392z" fill="url(#h)"/><path d="m56.9563 45.6418h-14.0655c-.3128 0-.5666-.2485-.5666-.5551v-3.1252c0-.3065.2536-.5551.5666-.5551h14.0655c.3128 0 .5666.2485.5666.5551v3.1253c0 .3065-.2536.555-.5666.555z" fill="url(#i)"/><path d="m52.3473 45.6418h-4.8435c-.1887 0-.3417-.1499-.3417-.3347v-3.566c0-.1848.153-.3347.3417-.3347h4.8435c.1886 0 .3416.1499.3416.3347v3.566c0 .1848-.153.3347-.3416.3347z" fill="url(#j)"/><path d="m41.0646 41.9254c-.3603 0-.6525.2861-.6525.6392v2.957c0 .041.0043.0809.0119.1198.0235.0026.0474.004.0717.004h18.8515c.3603 0 .6525-.2861.6525-.6391v-2.957c0-.0411-.0044-.081-.0119-.1199-.0236-.0026-.0475-.004-.0717-.004z" fill="url(#k)"/><path d="m59.3478 41.4064h-18.8516c-.3603 0-.6524-.2861-.6524-.6392v-2.957c0-.353.292-.6392.6524-.6392h18.8516c.3603 0 .6525.2862.6525.6392v2.957c0 .3531-.2921.6392-.6525.6392z" fill="url(#l)"/><path d="m56.9563 41.4064h-14.0655c-.3128 0-.5666-.2485-.5666-.5551v-3.1252c0-.3065.2536-.5551.5666-.5551h14.0655c.3128 0 .5666.2485.5666.5551v3.1252c0 .3066-.2536.5551-.5666.5551z" fill="url(#m)"/><path d="m52.3473 41.4064h-4.8435c-.1887 0-.3417-.1499-.3417-.3347v-3.566c0-.1848.153-.3347.3417-.3347h4.8435c.1886 0 .3416.1499.3416.3347v3.566c0 .1848-.153.3347-.3416.3347z" fill="url(#n)"/><path d="m41.0646 37.6866c-.3603 0-.6525.2862-.6525.6392v2.957c0 .0411.0043.0811.0119.1199.0235.0025.0474.004.0717.004h18.8515c.3603 0 .6525-.2861.6525-.6392v-2.957c0-.041-.0044-.081-.0119-.1199-.0236-.0024-.0475-.004-.0717-.004z" fill="url(#o)"/><path d="m59.3478 37.1743h-18.8516c-.3603 0-.6524-.2861-.6524-.6392v-2.9569c0-.3531.292-.6392.6524-.6392h18.8516c.3603 0 .6525.2861.6525.6392v2.9569c0 .3531-.2921.6392-.6525.6392z" fill="url(#p)"/><path d="m56.9563 37.1743h-14.0655c-.3128 0-.5666-.2484-.5666-.555v-3.1252c0-.3065.2536-.5551.5666-.5551h14.0655c.3128 0 .5666.2485.5666.5551v3.1253c0 .3065-.2536.5549-.5666.5549z" fill="url(#q)"/><path d="m52.3473 37.1743h-4.8435c-.1887 0-.3417-.1499-.3417-.3347v-3.5659c0-.1848.153-.3347.3417-.3347h4.8435c.1886 0 .3416.1499.3416.3347v3.5659c0 .1848-.153.3347-.3416.3347z" fill="url(#r)"/><path d="m41.0646 33.4479c-.3603 0-.6525.2861-.6525.6392v2.957c0 .041.0043.081.0119.1199.0235.0025.0474.004.0717.004h18.8515c.3603 0 .6525-.2862.6525-.6392v-2.957c0-.0411-.0044-.081-.0119-.1199-.0236-.0026-.0475-.004-.0717-.004z" fill="url(#s)"/><path d="m59.3478 32.9389h-18.8516c-.3603 0-.6524-.2861-.6524-.6391v-2.957c0-.3531.292-.6392.6524-.6392h18.8516c.3603 0 .6525.2861.6525.6392v2.957c0 .353-.2921.6391-.6525.6391z" fill="url(#t)"/><path d="m56.9563 32.9389h-14.0655c-.3128 0-.5666-.2484-.5666-.555v-3.1252c0-.3066.2536-.5551.5666-.5551h14.0655c.3128 0 .5666.2485.5666.5551v3.1252c0 .3066-.2536.555-.5666.555z" fill="url(#u)"/><path d="m52.3473 32.9389h-4.8435c-.1887 0-.3417-.1498-.3417-.3347v-3.5659c0-.1848.153-.3347.3417-.3347h4.8435c.1886 0 .3416.1499.3416.3347v3.5659c0 .185-.153.3347-.3416.3347z" fill="url(#v)"/><path d="m41.0646 29.2192c-.3603 0-.6525.2861-.6525.6392v2.957c0 .041.0043.081.0119.1198.0235.0025.0474.004.0717.004h18.8515c.3603 0 .6525-.2861.6525-.6391v-2.957c0-.0411-.0044-.0811-.0119-.1199-.0236-.0025-.0475-.004-.0717-.004z" fill="url(#w)"/><path d="m59.3478 28.7002h-18.8516c-.3603 0-.6524-.2861-.6524-.6392v-2.957c0-.353.292-.6391.6524-.6391h18.8516c.3603 0 .6525.2861.6525.6391v2.957c0 .3531-.2921.6392-.6525.6392z" fill="url(#x)"/><path d="m56.9563 28.7002h-14.0655c-.3128 0-.5666-.2485-.5666-.5551v-3.1252c0-.3065.2536-.555.5666-.555h14.0655c.3128 0 .5666.2484.5666.555v3.1252c0 .3066-.2536.5551-.5666.5551z" fill="url(#y)"/><path d="m52.3473 28.7002h-4.8435c-.1887 0-.3417-.1499-.3417-.3347v-3.5659c0-.1849.153-.3347.3417-.3347h4.8435c.1886 0 .3416.1498.3416.3347v3.5659c0 .1849-.153.3347-.3416.3347z" fill="url(#z)"/><path d="m41.0646 24.9805c-.3603 0-.6525.2861-.6525.6391v2.957c0 .0411.0043.081.0119.1199.0235.0025.0474.004.0717.004h18.8515c.3603 0 .6525-.2861.6525-.6392v-2.9569c0-.0411-.0044-.081-.0119-.1199-.0236-.0025-.0475-.004-.0717-.004z" fill="url(#A)"/><path d="m59.3478 24.4648h-18.8516c-.3603 0-.6524-.2861-.6524-.6392v-2.957c0-.353.292-.6391.6524-.6391h18.8516c.3603 0 .6525.2861.6525.6391v2.957c0 .353-.2921.6392-.6525.6392z" fill="url(#B)"/><path d="m56.9563 24.4649h-14.0655c-.3128 0-.5666-.2485-.5666-.5551v-3.1253c0-.3064.2536-.555.5666-.555h14.0655c.3128 0 .5666.2484.5666.555v3.1252c0 .3066-.2536.5552-.5666.5552z" fill="url(#C)"/><path d="m52.3473 24.4648h-4.8435c-.1887 0-.3417-.1499-.3417-.3347v-3.5659c0-.1849.153-.3347.3417-.3347h4.8435c.1886 0 .3416.1498.3416.3347v3.5659c0 .1848-.153.3347-.3416.3347z" fill="url(#D)"/><path d="m41.0646 20.7417c-.3603 0-.6525.2861-.6525.6392v2.957c0 .041.0043.081.0119.1199.0235.0024.0474.004.0717.004h18.8515c.3603 0 .6525-.2862.6525-.6392v-2.957c0-.041-.0044-.081-.0119-.1199-.0236-.0024-.0475-.004-.0717-.004z" fill="url(#E)"/><path d="m59.3478 20.2327h-18.8516c-.3603 0-.6524-.2861-.6524-.6391v-2.957c0-.3531.292-.6392.6524-.6392h18.8516c.3603 0 .6525.2861.6525.6392v2.957c0 .3529-.2921.6391-.6525.6391z" fill="url(#F)"/><path d="m56.9563 20.2327h-14.0655c-.3128 0-.5666-.2484-.5666-.555v-3.1252c0-.3065.2536-.5551.5666-.5551h14.0655c.3128 0 .5666.2485.5666.5551v3.1252c0 .3066-.2536.555-.5666.555z" fill="url(#G)"/><path d="m52.3473 20.2327h-4.8435c-.1887 0-.3417-.1498-.3417-.3347v-3.5659c0-.1848.153-.3347.3417-.3347h4.8435c.1886 0 .3416.1499.3416.3347v3.5659c0 .1849-.153.3347-.3416.3347z" fill="url(#H)"/><path d="m41.0646 16.513c-.3603 0-.6525.2861-.6525.6392v2.957c0 .041.0043.0809.0119.1198.0235.0025.0474.004.0717.004h18.8515c.3603 0 .6525-.2861.6525-.6391v-2.957c0-.0411-.0044-.0811-.0119-.1199-.0236-.0025-.0475-.004-.0717-.004z" fill="url(#I)"/><path d="m49.5431 31.4947-1.7324-8.9005c-1.2922-6.6389-7.2176-11.4416-14.1165-11.4416h-6.4998c-6.8988 0-12.8242 4.8027-14.1164 11.4416l-.9822 5.0462c-.944 4.8495-2.45278 9.5938-4.70928 14.0081-.65978 1.2906-1.00625 2.7614-.94128 4.3174.18771 4.5018 4.23196 8.3755 8.83026 8.4636.0338.0006.0674.0011.101.0014 2.0862.0177 4.0949.8142 5.5579 2.2712 1.6352 1.6285 3.9097 2.6385 6.426 2.6385 3.0538 0 5.7522-1.4873 7.3835-3.7625.5252-.7325 1.3865-1.1487 2.3003-1.1469h.0158c.3926 0 .7783-.0285 1.1553-.0833.7109-.1032 1.4301.0746 2.017.4812 1.5873 1.0998 3.5527 1.7104 5.6684 1.6055 4.5279-.2245 8.2215-3.7753 8.5291-8.2065.1108-1.5944-.2112-3.1056-.8619-4.4329-1.9097-3.8958-3.1986-8.0554-4.0248-12.3005z" fill="url(#J)"/><path d="m15.4562 54.4331c4.9809 0 9.0187-3.9557 9.0187-8.8353 0-4.8795-4.0378-8.8352-9.0187-8.8352s-9.0187 3.9557-9.0187 8.8352c0 4.8796 4.0378 8.8353 9.0187 8.8353z" fill="url(#L)"/><path d="m27.3625 59.3381c4.9809 0 9.0187-3.9557 9.0187-8.8353 0-4.8795-4.0378-8.8352-9.0187-8.8352s-9.0187 3.9557-9.0187 8.8352c0 4.8796 4.0378 8.8353 9.0187 8.8353z" fill="url(#M)"/><path d="m45.4269 56.4487c4.9809 0 9.0187-3.9557 9.0187-8.8353s-4.0378-8.8352-9.0187-8.8352-9.0187 3.9556-9.0187 8.8352 4.0378 8.8353 9.0187 8.8353z" fill="url(#N)"/><path d="m54.4253 48.2273c.1107-1.5944-.2113-3.1056-.8619-4.4329-1.9097-3.8958-3.1985-8.0554-4.0248-12.3006l-1.7324-8.9005c-.4688-2.409-1.5501-4.5741-3.0641-6.3579-2.5058-2.0326-5.7134-3.2346-9.1649-3.2346h-6.4999c-6.8987 0-12.8242 4.8027-14.1164 11.4415l-.9822 5.0463c-.9439 4.8495-2.4528 9.5938-4.70928 14.0079-.65978 1.2906-1.00624 2.7615-.94139 4.3175.07386 1.7712.74648 3.4438 1.81317 4.8281 1.4678 1.0831 3.2524 1.7504 5.1298 1.7864.0337.0006.0673.0011.101.0014 2.0862.0177 4.0949.8141 5.558 2.2712 1.6352 1.6285 3.9097 2.6385 6.4259 2.6385 3.0538 0 5.7523-1.4873 7.3836-3.7625.5251-.7325 1.3864-1.1487 2.3002-1.147h.0159c.3925 0 .7783-.0284 1.1552-.0832.711-.1032 1.4302.0745 2.0171.4811 1.5872 1.0999 3.5526 1.7105 5.6684 1.6056 4.5278-.2243 8.2214-3.7751 8.529-8.2063z" fill="url(#P)"/><path d="m35.6801 21.5509c-.6529-.1978-1.2733-.3403-1.8609-.4282-.2835-.0425-.5698-.0768-.8583-.1039-.0024-.0013-.0047-.0026-.007-.0039l-1.3221-1.3414c-.2611-.1669-.5442-.2509-.8488-.2509-.3485 0-.6422.0795-.8814.2374-.2397.1583-.3591.3463-.3591.5632v.8304c-1.8935.2609-3.4553.946-4.6846 2.0549-1.23 1.1088-1.8445 2.6305-1.8445 4.5654 0 .7891.1413 1.5087.4243 2.1589.2827.6506.6092 1.1833.9795 1.599l5.1254 5.0257v2.9858c-.8488-.1489-1.7741-.5702-2.7748-1.2633-1.0015-.6926-1.7089-1.0394-2.1221-1.0394-.5876 0-1.1048.2988-1.5508.8955-.4462.5972-.6691 1.1944-.6691 1.7911 0 .7777.3894 1.496 1.167 2.1554l12.7808 12.5209c.2162-.0496.4398-.0751.6668-.0746h.0158c.3926 0 .7783-.0285 1.1553-.0833.7109-.1032 1.4301.0746 2.017.4812 1.5873 1.0999 3.5527 1.7105 5.6684 1.6055 4.5279-.2245 8.2215-3.7753 8.5291-8.2065.1108-1.5944-.2112-3.1056-.8619-4.4329-1.329-2.7113-2.3566-5.5506-3.1377-8.4575l-13.163-12.8949c-.4031-.3953-.9304-.6917-1.5833-.8896z" fill="url(#Q)"/><path d="m38.0469 34.6142c-.2726-.6821-.5988-1.2474-.9794-1.695-.3812-.4478-.8871-.8741-1.5182-1.2794-.6314-.4048-1.1971-.714-1.6976-.9274-.5008-.2129-1.1099-.4582-1.828-.7356v-4.6695c.7833.064 1.5394.2773 2.2688.6397.729.3628 1.2457.5437 1.5508.5437.6309 0 1.1263-.3034 1.4854-.91.359-.6067.5386-1.1923.5386-1.756 0-.5272-.2014-.9883-.604-1.3842-.403-.3953-.9303-.6916-1.5832-.8896-.653-.1978-1.2733-.3403-1.861-.4282-.5876-.088-1.1864-.1429-1.7954-.1649v-.7382c0-.1969-.1307-.3788-.3919-.5462-.2611-.167-.5442-.2508-.8488-.2508-.3485 0-.6422.0795-.8815.2374-.2397.1583-.359.3463-.359.5632v.8304c-1.8935.2609-3.4553.946-4.6846 2.0549-1.23 1.1088-1.8445 2.6305-1.8445 4.5654 0 .7891.1412 1.5087.4243 2.1589.2827.6506.6092 1.1833.9795 1.599.3698.4158.8922.8211 1.567 1.2154.6743.3948 1.2406.6876 1.6976.8794.4571.1919 1.0773.4373 1.8608.7356v5.1811c-.8488-.1489-1.7741-.5702-2.7748-1.2633-1.0015-.6926-1.7089-1.0394-2.1221-1.0394-.5876 0-1.1048.2988-1.5508.8955-.4462.5972-.6691 1.1944-.6691 1.7911 0 1.045.7019 1.9829 2.1057 2.8145s3.0738 1.2793 5.0111 1.3432v.7995c0 .2344.1195.4367.3591.6077.2392.1703.5329.2559.8814.2559.3045 0 .5878-.091.8488-.2719.2614-.1814.3919-.3788.3919-.5917v-.9275c1.9588-.3198 3.5201-1.0764 4.6846-2.2707 1.1642-1.1939 1.7466-2.761 1.7466-4.7015-.0001-.8314-.1362-1.588-.4081-2.2705zm-8.1779-5.4051c-1.393-.5756-2.0895-1.2473-2.0895-2.0148 0-.9165.6963-1.5137 2.0895-1.7911zm1.8281 10.2024v-4.2856c1.3273.6186 1.9915 1.3752 1.9915 2.2707 0 1.0448-.6642 1.7165-1.9915 2.0149z" fill="url(#S)"/><path d="m34.8715 11.1491h-8.8593l-4.0304-7.56945c-.5951-1.11742.0843-2.48002 1.3497-2.707318l2.6394-.474122c2.9561-.530947 5.986-.530947 8.9419 0l2.6394.474122c1.2654.227298 1.9448 1.589778 1.3498 2.707318z" fill="url(#T)"/><path d="m31.918 11.1491h-2.9464l-1.3405-7.56945c-.1979-1.11742.0281-2.48002.4489-2.707318l.8779-.474122c.983-.530947 1.9907-.530947 2.9739 0l.8779.474122c.4209.227298.6468 1.589778.4489 2.707318z" fill="url(#U)"/><path d="m38.7701 1.63372c.1727.24071.0858.57612-.1822.70918-1.257.62624-2.7433.62624-4.0002 0l-1.1112-.55271c-1.2569-.62624-2.7433-.62624-4.0002 0l-1.1098.55271c-1.257.62624-2.7433.62624-4.0003 0l-1.1624-.57918c-.4072-.20294-.3313-.806358.1177-.888947.0039-.000706.0076-.001412.0114-.002118l2.6395-.475063c2.9554-.530123 5.9859-.530123 8.9415 0l2.6395.475063c.5211.09306.9423.378705 1.2167.761065z" fill="url(#V)"/><path d="m38.9278 2.69505c.0593-.14106.1023-.28576.1339-.43165-.1735-.6793-.7295-1.25095-1.5092-1.391068l-2.6395-.474122c-2.956-.530947-5.9859-.530947-8.9418 0l-1.9687.35365c-.2466.57895-.2781 1.29707-.0062 1.94319l3.5567 8.45405h7.3187l2.3793-4.46836z" fill="url(#W)"/><path d="m30.4366 11.9982c-1.9203 0-3.738-.1215-5.2276-.3461-.4906-.074-.8197-.5322-.7207-1.0086.092-.4431.5217-.73804.9779-.66957 1.3991.21017 3.159.32777 4.9704.32777s3.5713-.1176 4.9705-.32777c.4562-.06847.8859.22637.9779.66957.0989.4764-.2301.9347-.7207 1.0086-1.4896.2246-3.3073.3461-5.2277.3461z" fill="url(#X)"/><path d="m20.1324 35.08c-.0688-.2808-.3241-.4904-.6318-.4904h-2.393-4.611-2.2035c-.79065 2.4191-1.75354 4.7817-2.91626 7.0562-.65978 1.2906-1.00624 2.7614-.94139 4.3175.1877 4.5018 4.23215 8.3755 8.83045 8.4636.0337.0006.0673.001.1009.0014 2.0863.0176 4.095.8141 5.5581 2.2712 1.6351 1.6285 3.9097 2.6385 6.4259 2.6385 3.0538 0 5.7523-1.4873 7.3836-3.7625.5251-.7325 1.3864-1.1487 2.3002-1.147h.0158c.3926 0 .7784-.0285 1.1553-.0833.711-.1032 1.4302.0746 2.0171.4812.0673.0467.1363.0913.2051.1361z" fill="url(#Y)"/><path d="m19.5041 59.9986h-18.851646c-.360273 0-.652454-.2861-.652454-.6392v-2.957c0-.353.292061-.6391.652454-.6391h18.851646c.3602 0 .6524.2861.6524.6391v2.957c0 .3531-.2922.6392-.6524.6392z" fill="url(#aa)"/><path d="m17.1126 59.9986h-14.06554c-.31296 0-.56659-.2485-.56659-.5551v-3.1252c0-.3065.25363-.555.56659-.555h14.06554c.3128 0 .5666.2484.5666.555v3.1252c0 .3066-.2537.5551-.5666.5551z" fill="url(#ac)"/><path d="m12.5016 59.9986h-4.84354c-.18866 0-.34165-.1499-.34165-.3347v-3.5659c0-.1849.15299-.3347.34165-.3347h4.84354c.1886 0 .3416.1498.3416.3347v3.5659c0 .1848-.153.3347-.3416.3347z" fill="url(#ac)"/><path d="m1.21886 56.2789c-.360393 0-.652454.2861-.652454.6391v2.957c0 .0411.004324.0811.011889.1199.023538.0025.047436.004.071694.004h18.851611c.3604 0 .6525-.2861.6525-.6392v-2.9569c0-.0411-.0044-.0811-.0119-.1199-.0236-.0025-.0475-.004-.0717-.004z" fill="url(#ae)"/><path d="m19.5041 55.7665h-18.851646c-.360273 0-.652454-.2861-.652454-.6391v-2.957c0-.3531.292061-.6392.652454-.6392h18.851646c.3602 0 .6524.2861.6524.6392v2.957c0 .353-.2922.6391-.6524.6391z" fill="url(#af)"/><path d="m17.1126 55.7667h-14.06554c-.31296 0-.56659-.2485-.56659-.5551v-3.1253c0-.3065.25363-.5551.56659-.5551h14.06554c.3128 0 .5666.2485.5666.5551v3.1253c0 .3066-.2537.5551-.5666.5551z" fill="url(#ag)"/><path d="m12.5016 55.7665h-4.84354c-.18866 0-.34165-.1498-.34165-.3347v-3.5659c0-.1848.15299-.3347.34165-.3347h4.84354c.1886 0 .3416.1499.3416.3347v3.5659c0 .1849-.153.3347-.3416.3347z" fill="url(#ah)"/><path d="m1.21886 52.0468c-.360393 0-.652454.2861-.652454.6392v2.957c0 .041.004324.0809.011889.1199.023538.0025.047436.004.071694.004h18.851611c.3604 0 .6525-.2862.6525-.6392v-2.957c0-.0411-.0044-.0811-.0119-.1199-.0236-.0026-.0475-.004-.0717-.004z" fill="url(#ai)"/><path d="m19.5041 51.5278h-18.851646c-.360273 0-.652454-.2861-.652454-.6392v-2.957c0-.3529.292061-.6391.652454-.6391h18.851646c.3602 0 .6524.2861.6524.6391v2.957c0 .3531-.2922.6392-.6524.6392z" fill="url(#aj)"/><path d="m17.1126 51.5278h-14.06554c-.31296 0-.56659-.2485-.56659-.5551v-3.1252c0-.3066.25363-.555.56659-.555h14.06554c.3128 0 .5666.2484.5666.555v3.1252c0 .3066-.2537.5551-.5666.5551z" fill="url(#ak)"/><path d="m12.5016 51.5278h-4.84354c-.18866 0-.34165-.1499-.34165-.3347v-3.5659c0-.1849.15299-.3347.34165-.3347h4.84354c.1886 0 .3416.1498.3416.3347v3.5659c0 .1849-.153.3347-.3416.3347z" fill="url(#ak)"/><path d="m1.21886 47.8114c-.360393 0-.652454.2862-.652454.6392v2.957c0 .041.004324.081.011889.1199.023538.0024.047436.004.071694.004h18.851611c.3604 0 .6525-.2861.6525-.6392v-2.957c0-.041-.0044-.0809-.0119-.1199-.0236-.0024-.0475-.004-.0717-.004z" fill="url(#al)"/><path d="m19.5041 47.2958h-18.851646c-.360273 0-.652454-.2862-.652454-.6392v-2.957c0-.3531.292061-.6392.652454-.6392h18.851646c.3602 0 .6524.2861.6524.6392v2.957c0 .353-.2922.6392-.6524.6392z" fill="url(#am)"/><path d="m17.1126 47.2959h-14.06554c-.31296 0-.56659-.2485-.56659-.5551v-3.1253c0-.3065.25363-.5551.56659-.5551h14.06554c.3128 0 .5666.2485.5666.5551v3.1253c0 .3066-.2537.5551-.5666.5551z" fill="url(#an)"/><path d="m12.5016 47.2958h-4.84354c-.18866 0-.34165-.1499-.34165-.3347v-3.566c0-.1848.15299-.3347.34165-.3347h4.84354c.1886 0 .3416.1499.3416.3347v3.566c0 .1849-.153.3347-.3416.3347z" fill="url(#ao)"/><path d="m1.21886 43.576c-.360393 0-.652454.2862-.652454.6392v2.957c0 .0411.004324.0809.011889.1199.023538.0026.047436.004.071694.004h18.851611c.3604 0 .6525-.2861.6525-.6392v-2.957c0-.041-.0044-.0809-.0119-.1199-.0236-.0026-.0475-.004-.0717-.004z" fill="url(#ap)"/><path d="m19.5041 43.0603h-18.851646c-.360273 0-.652454-.2861-.652454-.6391v-2.957c0-.353.292061-.6392.652454-.6392h18.851646c.3602 0 .6524.2861.6524.6392v2.957c0 .3529-.2922.6391-.6524.6391z" fill="url(#aq)"/><path d="m17.1126 43.0603h-14.06554c-.31296 0-.56659-.2484-.56659-.555v-3.1252c0-.3065.25363-.5551.56659-.5551h14.06554c.3128 0 .5666.2485.5666.5551v3.1252c0 .3065-.2537.555-.5666.555z" fill="url(#ar)"/><path d="m12.5016 43.0603h-4.84354c-.18866 0-.34165-.1498-.34165-.3347v-3.5659c0-.1848.15299-.3347.34165-.3347h4.84354c.1886 0 .3416.1499.3416.3347v3.5659c0 .1849-.153.3347-.3416.3347z" fill="url(#ar)"/><path d="m1.21886 39.3406c-.360393 0-.652454.2862-.652454.6392v2.957c0 .0411.004324.0811.011889.1199.023538.0024.047436.004.071694.004h18.851611c.3604 0 .6525-.2861.6525-.6392v-2.957c0-.041-.0044-.0809-.0119-.1199-.0236-.0024-.0475-.004-.0717-.004z" fill="url(#as)"/><path d="m19.5041 38.825h-18.851646c-.360273 0-.652454-.2862-.652454-.6392v-2.957c0-.3531.292061-.6392.652454-.6392h18.851646c.3602 0 .6524.2861.6524.6392v2.957c0 .3529-.2922.6392-.6524.6392z" fill="url(#at)"/><path d="m17.1126 38.8251h-14.06554c-.31296 0-.56659-.2485-.56659-.5551v-3.1253c0-.3065.25363-.5551.56659-.5551h14.06554c.3128 0 .5666.2485.5666.5551v3.1253c0 .3066-.2537.5551-.5666.5551z" fill="url(#au)"/><path d="m12.5016 38.825h-4.84354c-.18866 0-.34165-.1499-.34165-.3347v-3.566c0-.1848.15299-.3347.34165-.3347h4.84354c.1886 0 .3416.1499.3416.3347v3.566c0 .1848-.153.3347-.3416.3347z" fill="url(#av)"/><path d="m1.21886 35.1052c-.360393 0-.652454.2862-.652454.6392v2.957c0 .0411.004324.0809.011889.1199.023538.0025.047436.004.071694.004h18.851611c.3604 0 .6525-.2861.6525-.6392v-2.957c0-.041-.0044-.0809-.0119-.1199-.0236-.0024-.0475-.004-.0717-.004z" fill="url(#aw)"/><path d="m54.8498 59.9986h-18.8516c-.3604 0-.6525-.2861-.6525-.6392v-2.957c0-.353.2921-.6391.6525-.6391h18.8516c.3603 0 .6524.2861.6524.6391v2.957c0 .3531-.2921.6392-.6524.6392z" fill="url(#ax)"/><path d="m52.4602 59.9986h-14.0655c-.3128 0-.5666-.2485-.5666-.5551v-3.1252c0-.3065.2537-.555.5666-.555h14.0655c.3129 0 .5666.2484.5666.555v3.1252c0 .3066-.2537.5551-.5666.5551z" fill="url(#ay)"/><path d="m47.8531 59.9986h-4.8435c-.1886 0-.3416-.1499-.3416-.3347v-3.5659c0-.1849.153-.3347.3416-.3347h4.8435c.1887 0 .3417.1498.3417.3347v3.5659c0 .1848-.153.3347-.3417.3347z" fill="url(#az)"/><path d="m36.5743 56.2789c-.3602 0-.6524.2861-.6524.6391v2.957c0 .0411.0043.0811.0119.1199.0235.0025.0474.004.0717.004h18.8516c.3603 0 .6524-.2861.6524-.6392v-2.9569c0-.0411-.0043-.0811-.0119-.1199-.0235-.0025-.0474-.004-.0716-.004z" fill="url(#aA)"/><path d="m54.8498 55.7665h-18.8516c-.3604 0-.6525-.2861-.6525-.6391v-2.957c0-.3531.2921-.6392.6525-.6392h18.8516c.3603 0 .6524.2861.6524.6392v2.957c0 .353-.2921.6391-.6524.6391z" fill="url(#aB)"/><path d="m52.4602 55.7667h-14.0655c-.3128 0-.5666-.2485-.5666-.5551v-3.1253c0-.3065.2537-.5551.5666-.5551h14.0655c.3129 0 .5666.2485.5666.5551v3.1253c0 .3066-.2537.5551-.5666.5551z" fill="url(#aC)"/><path d="m47.8531 55.7665h-4.8435c-.1886 0-.3416-.1498-.3416-.3347v-3.5659c0-.1848.153-.3347.3416-.3347h4.8435c.1887 0 .3417.1499.3417.3347v3.5659c0 .1849-.153.3347-.3417.3347z" fill="url(#aD)"/><path d="m36.5743 52.0468c-.3602 0-.6524.2861-.6524.6392v2.957c0 .041.0043.0809.0119.1199.0235.0025.0474.004.0717.004h18.8516c.3603 0 .6524-.2862.6524-.6392v-2.957c0-.0411-.0043-.0811-.0119-.1199-.0235-.0026-.0474-.004-.0716-.004z" fill="url(#aE)"/></g></svg>