<svg width="30" height="30" fill="none" xmlns="http://www.w3.org/2000/svg">
  <g clip-path="url(#muchbetter-color-30px__clip0)">
    <path d="M28 0H2a2 2 0 00-2 2v26a2 2 0 002 2h26a2 2 0 002-2V2a2 2 0 00-2-2z" fill="#606060"/>
    <path d="M12.11 21.229c-.401 0-.803-.224-1.026-.581l-5.003-8.62a1.234 1.234 0 01.447-1.653 1.234 1.234 0 011.652.447l5.003 8.575a1.233 1.233 0 01-.447 1.653 1.116 1.116 0 01-.625.179z" fill="#F69220"/>
    <path d="M24.706 16.543c0-.625-.223-1.206-.58-1.831-.537-.983-1.162-1.608-2.01-2.01-.715-.358-1.52-.536-2.323-.447.268-.58.447-1.161.491-1.787.09-.893-.223-1.697-.76-2.68A4.486 4.486 0 0018.23 6.36c-.537-.313-1.073-.536-1.698-.58-.625-.045-1.25 0-1.92.133-.224.045-.447.134-.67.18-.09.044-.18.088-.268.133-.402.134-1.43.715-1.787.938L10.145 8.19H10.1a1.422 1.422 0 00-.491 1.876 1.346 1.346 0 001.831.492h.045l2.814-1.608c.268-.134.536-.224.804-.268.268-.045.536 0 .804.044.268.09.491.224.76.402.223.18.401.402.58.67.134.268.268.536.313.849.044.313.044.58 0 .849a1.468 1.468 0 01-.313.714c-.134.224-.357.402-.58.536l-1.698 1.028-.715.402-.446.268c-.626.357-.804 1.116-.447 1.742.223.402.67.625 1.117.625.223 0 .446-.045.625-.179l.938-.536 2.412-1.295c.268-.134.491-.223.76-.223.267 0 .535.044.758.134.268.089.492.223.715.402.224.178.402.402.58.67.135.268.224.536.269.804.044.268.044.58-.045.848-.045.268-.179.492-.357.76a2.851 2.851 0 01-.67.58l-4.154 2.367h-.223l-.76.447-1.474.804c-.625.358-.893 1.162-.536 1.787.224.446.67.714 1.162.714.223 0 .446-.044.625-.178l3.573-1.92 2.903-1.564a8.12 8.12 0 001.698-1.296 4.897 4.897 0 001.072-1.563c.268-.625.402-1.206.357-1.831z" fill="#fff"/>
  </g>
  <defs>
    <clipPath id="muchbetter-color-30px__clip0">
      <path fill="#fff" d="M0 0h30v30H0z"/>
    </clipPath>
  </defs>
</svg>
