<svg width="200" height="200" viewBox="0 0 200 200" fill="none" xmlns="http://www.w3.org/2000/svg">
<path d="M100 200C44.8 200 0 155.2 0 100C0 44.8 44.8 0 100 0C155.2 0 200 44.8 200 100C200 155.2 155.2 200 100 200Z" fill="#BBBBBB"/>
<path d="M54.5553 130H68.3253V103H81.7353V130H95.5053V66.28H81.7353V90.4H68.3253V66.28H54.5553V130ZM105.873 66.28V103.54C105.873 114.52 107.043 119.47 110.643 124.24C114.063 128.83 120.093 131.71 126.303 131.71C132.693 131.71 138.453 128.74 141.783 123.79C144.933 119.02 145.923 114.16 145.923 103.45V66.28H132.693V106.33C132.693 115.51 130.983 118.75 126.213 118.75C121.263 118.75 119.643 115.6 119.643 106.06V66.28H105.873Z" fill="white"/>
</svg>
