<svg width="200" height="200" viewBox="0 0 200 200" fill="none" xmlns="http://www.w3.org/2000/svg">
<path d="M100 200C44.8 200 0 155.2 0 100C0 44.8 44.8 0 100 0C155.2 0 200 44.8 200 100C200 155.2 155.2 200 100 200Z" fill="#BBBBBB"/>
<path d="M31.8703 122H44.1103V98H56.0303V122H68.2703V65.36H56.0303V86.8H44.1103V65.36H31.8703V122ZM88.4459 122V76.56L77.2459 77.84V122H88.4459ZM82.8459 59.68C79.3259 59.68 76.5259 62.48 76.5259 66C76.5259 69.44 79.4059 72.32 82.8459 72.32C86.3659 72.32 89.1659 69.52 89.1659 65.92C89.1659 62.4 86.3659 59.68 82.8459 59.68ZM117.417 123.76C117.417 130.96 115.897 132.96 110.537 132.96C106.137 132.96 102.537 131.6 97.4172 127.92L97.4972 139.44C102.777 142.24 107.017 143.36 111.897 143.36C117.177 143.36 121.897 141.12 124.937 137.2C127.657 133.6 128.617 129.28 128.617 120.56V76.56L117.897 77.84C115.257 76.88 113.577 76.56 111.497 76.56C101.177 76.56 94.5372 85.92 94.5372 100.48C94.5372 114 100.377 123.28 108.937 123.28C111.897 123.28 114.297 122.32 117.417 119.84V123.76ZM116.857 109.76C114.697 111.68 113.257 112.4 111.497 112.4C107.737 112.4 105.737 108.24 105.737 100.4C105.737 91.76 108.057 87.36 112.457 87.36C113.977 87.36 115.017 87.76 116.857 88.96V109.76ZM148.373 122V100.64C148.373 95.68 148.693 92.56 149.413 91.12C150.453 88.88 152.453 87.36 154.453 87.36C157.093 87.36 157.973 89.12 157.973 94.48V122H169.173V92.08C169.173 81.36 166.213 76.56 159.493 76.56C155.333 76.56 152.533 78.16 148.373 82.8V64.08L137.173 65.36V122H148.373Z" fill="#FFFFFF"/>
</svg>
