<svg width="65" height="20" fill="none" xmlns="http://www.w3.org/2000/svg"><g clip-path="url(#clip0)"><path fill-rule="evenodd" clip-rule="evenodd" d="M5.143 16.56A6.784 6.784 0 1 0 8.427 3.396a6.784 6.784 0 0 0-3.284 13.166zm3.142-9.258c.94.324 1.627.81 1.492 1.712-.098.661-.464.981-.95 1.094.668.347 1.007.88.684 1.805-.402 1.149-1.357 1.245-2.627 1.005l-.308 1.235-.744-.185.304-1.219c-.193-.048-.39-.099-.594-.154l-.305 1.224-.743-.185.308-1.237-.21-.055-.321-.082-.969-.242.37-.852s.548.146.54.135c.212.052.305-.085.342-.177l.487-1.952.053.013.026.006a.616.616 0 0 0-.078-.024l.348-1.394c.009-.158-.046-.358-.347-.433a9.92 9.92 0 0 0-.541-.134L4.7 6.41l1.027.257-.001.004c.154.038.313.074.475.111l.306-1.222.744.185-.3 1.199c.2.046.401.092.597.14l.297-1.19.745.185-.305 1.223zM5.93 11.737c.607.16 1.935.511 2.146-.337.216-.867-1.071-1.156-1.7-1.297l-.183-.043-.409 1.64.146.037zm.572-2.395c.507.135 1.612.43 1.804-.341.197-.789-.877-1.026-1.401-1.142a6.385 6.385 0 0 1-.154-.036l-.37 1.487.121.032z" fill="#B0B0B0"/><path d="M19.886 7.3c.55 0 1.026.098 1.425.291.402.196.733.46.999.79.262.334.457.723.583 1.169.125.447.188.928.188 1.442 0 .79-.145 1.538-.438 2.242a5.616 5.616 0 0 1-2.98 3.074 5.452 5.452 0 0 1-2.231.455c-.104 0-.286-.003-.543-.008a7.942 7.942 0 0 1-.883-.077 10.396 10.396 0 0 1-1.057-.207 5.302 5.302 0 0 1-1.056-.378l2.971-12.485 2.662-.413-1.064 4.431c.227-.103.457-.182.686-.24.229-.057.475-.087.738-.087zm-2.232 7.352c.4 0 .778-.099 1.133-.292.356-.194.663-.456.92-.782.257-.327.46-.696.61-1.108.148-.412.223-.842.223-1.29 0-.549-.092-.977-.275-1.287-.183-.309-.522-.464-1.014-.464-.16 0-.368.03-.626.086-.258.058-.49.18-.696.361l-1.133 4.706c.068.012.128.023.18.034a1.86 1.86 0 0 0 .369.036h.309zm8.187 1.871h-2.542l2.147-9.033h2.559l-2.164 9.033zM27.078 6.39c-.355 0-.677-.105-.962-.317-.288-.21-.43-.534-.43-.97 0-.24.048-.466.145-.679a1.814 1.814 0 0 1 .945-.919c.213-.091.439-.137.68-.137.354 0 .674.106.96.317.286.213.43.537.43.971 0 .241-.049.467-.146.68a1.788 1.788 0 0 1-.944.918 1.674 1.674 0 0 1-.678.136zm3.155-1.152l2.662-.413-.654 2.663h2.852l-.515 2.095h-2.834l-.755 3.16c-.07.263-.11.509-.12.737-.013.23.016.427.085.593a.746.746 0 0 0 .37.386c.176.092.43.139.763.139.274 0 .542-.026.8-.078.257-.051.517-.122.78-.215l.19 1.96a9.134 9.134 0 0 1-1.116.325 6.426 6.426 0 0 1-1.426.137c-.79 0-1.402-.118-1.838-.351-.436-.235-.744-.557-.928-.963-.182-.406-.263-.873-.24-1.4a9.053 9.053 0 0 1 .24-1.665l1.684-7.11zm4.748 7.678c0-.778.126-1.512.378-2.199a5.408 5.408 0 0 1 1.083-1.805 5.07 5.07 0 0 1 1.71-1.218c.668-.297 1.416-.447 2.24-.447.516 0 .977.049 1.382.147.407.098.776.226 1.109.386l-.877 1.993a8.2 8.2 0 0 0-.712-.249 3.1 3.1 0 0 0-.902-.112c-.848 0-1.52.292-2.018.875-.498.584-.748 1.369-.748 2.354 0 .584.126 1.056.379 1.417.251.361.716.54 1.39.54.333 0 .655-.034.962-.102a4.74 4.74 0 0 0 .825-.257l.19 2.043a9.199 9.199 0 0 1-1.065.336c-.39.095-.854.145-1.392.145-.71 0-1.311-.104-1.803-.309a3.436 3.436 0 0 1-1.219-.833 3.141 3.141 0 0 1-.696-1.229 5.042 5.042 0 0 1-.216-1.476zm11.293 3.847c-.607 0-1.134-.093-1.58-.276a2.918 2.918 0 0 1-1.108-.773 3.338 3.338 0 0 1-.66-1.176 4.75 4.75 0 0 1-.223-1.501c0-.688.11-1.376.334-2.062a5.839 5.839 0 0 1 .988-1.855c.433-.55.968-.999 1.597-1.35.628-.348 1.35-.523 2.162-.523.596 0 1.12.093 1.574.276a2.94 2.94 0 0 1 1.116.773c.29.332.511.723.66 1.176.15.452.223.954.223 1.503 0 .686-.11 1.374-.325 2.062a5.953 5.953 0 0 1-.962 1.854c-.424.55-.953.998-1.589 1.348-.635.349-1.37.524-2.207.524zm1.27-7.35c-.376 0-.71.108-.995.325a2.806 2.806 0 0 0-.72.825 4.072 4.072 0 0 0-.44 1.09c-.097.396-.145.77-.145 1.125 0 .573.093 1.02.275 1.34.184.32.515.481.996.481.378 0 .71-.109.996-.327.285-.217.526-.492.721-.824.195-.331.341-.695.44-1.09.096-.395.145-.771.145-1.125 0-.572-.093-1.02-.276-1.34-.183-.32-.516-.48-.996-.48zm6.582 7.111h-2.544l2.147-9.033h2.56l-2.163 9.033zM55.361 6.39c-.354 0-.676-.105-.96-.317-.287-.21-.43-.534-.43-.97 0-.24.049-.466.145-.679a1.79 1.79 0 0 1 .387-.55c.16-.153.348-.276.558-.369.212-.091.438-.137.678-.137.355 0 .676.106.962.317.286.213.43.537.43.971 0 .241-.05.467-.147.68a1.783 1.783 0 0 1-.943.918 1.68 1.68 0 0 1-.68.136zM58.122 7.9c.193-.056.409-.124.643-.198a9.474 9.474 0 0 1 1.77-.36c.36-.04.77-.06 1.227-.06 1.34 0 2.265.39 2.775 1.168.51.779.598 1.844.267 3.195l-1.17 4.877h-2.558l1.133-4.775c.07-.298.124-.586.164-.868.04-.279.038-.525-.01-.738a.884.884 0 0 0-.316-.516c-.168-.131-.421-.197-.765-.197-.332 0-.669.036-1.013.104l-1.666 6.99h-2.56l2.08-8.622z" fill="#fff"/></g></svg>