<svg width="16" height="16" fill="none" xmlns="http://www.w3.org/2000/svg"><path d="M3.12 3.772c0 .082.122.175.286.175h9.188c.165 0 .287-.093.287-.175v-1.73l-1.985 1.421a.972.972 0 01-1.177-.056L8 1.87 6.28 3.408a.972.972 0 01-1.177.056L3.12 2.042v1.73zM5.4 7.51l1.907-1.872H3.146L5.4 7.51zM8 5.753L6.11 7.61h3.76L8 5.753zM11.343 7.61H16a.294.294 0 00-.086-.094l-2.409-1.703-2.162 1.796zM12.83 5.638H8.688l1.887 1.87 2.253-1.87zM8.46 16l7.296-7.828h-4.981L8.459 16zM5.798 8.172l2.19 7.401 2.188-7.4H5.798zM.245 8.172l7.259 7.788-2.303-7.788H.245zM2.481 5.823L.086 7.516A.294.294 0 000 7.61h4.632l-2.15-1.787zM3.693.846a.854.854 0 01-.861.845.853.853 0 01-.861-.845c0-.467.385-.846.861-.846s.861.379.861.846zM8.862.846A.854.854 0 018 1.69a.853.853 0 01-.86-.845C7.14.379 7.524 0 8 0c.476 0 .862.379.862.846zM14.03.846a.853.853 0 01-.861.845.854.854 0 01-.862-.845c0-.467.386-.846.862-.846.475 0 .86.379.86.846z" fill="#C6C7CA"/></svg>