<svg width="27" height="20" fill="none" xmlns="http://www.w3.org/2000/svg"><g clip-path="url(#clip0)"><path d="M4.777 19.957v-1.328c0-.509-.315-.84-.856-.84-.27 0-.563.088-.766.376-.158-.244-.383-.376-.721-.376a.733.733 0 0 0-.631.31v-.266H1.33v2.124h.473v-1.173c0-.376.203-.553.518-.553s.473.2.473.553v1.173h.473v-1.173c0-.376.226-.553.519-.553.315 0 .473.2.473.553v1.173h.518zm7.008-2.124h-.766v-.642h-.474v.642h-.428v.42h.428v.974c0 .486.203.774.744.774.203 0 .428-.066.586-.155l-.135-.398a.753.753 0 0 1-.406.11c-.225 0-.315-.132-.315-.354v-.95h.766v-.421zm4.01-.044c-.27 0-.45.132-.563.31v-.266h-.473v2.124h.473v-1.195c0-.354.158-.553.45-.553.091 0 .204.022.294.044l.135-.442c-.09-.022-.225-.022-.316-.022zm-6.06.22c-.226-.154-.542-.22-.88-.22-.54 0-.9.265-.9.685 0 .354.27.553.743.62l.225.022c.248.044.383.11.383.221 0 .155-.18.266-.496.266a1.26 1.26 0 0 1-.72-.222l-.226.354c.248.177.586.266.924.266.63 0 .991-.288.991-.686 0-.376-.293-.575-.743-.642l-.226-.022c-.202-.022-.36-.066-.36-.199 0-.155.158-.243.405-.243.27 0 .541.11.676.177l.203-.376zm12.572-.22c-.27 0-.45.132-.563.31v-.266h-.473v2.124h.473v-1.195c0-.354.158-.553.45-.553.09 0 .204.022.294.044l.135-.442c-.09-.022-.226-.022-.316-.022zm-6.038 1.106c0 .641.45 1.106 1.149 1.106.315 0 .54-.066.766-.243l-.225-.377c-.18.133-.36.2-.564.2-.383 0-.653-.266-.653-.686 0-.398.27-.664.653-.686a.92.92 0 0 1 .564.2l.225-.377c-.225-.177-.45-.243-.766-.243-.699 0-1.15.464-1.15 1.106zm4.371 0v-1.062h-.473v.265a.82.82 0 0 0-.676-.31c-.608 0-1.082.465-1.082 1.107 0 .641.474 1.106 1.082 1.106.315 0 .54-.11.676-.31v.266h.473v-1.062zm-1.735 0c0-.376.248-.686.653-.686.384 0 .654.288.654.686 0 .376-.27.686-.654.686-.405-.023-.653-.31-.653-.686zm-5.656-1.106c-.63 0-1.081.442-1.081 1.106 0 .663.45 1.106 1.104 1.106.315 0 .63-.089.879-.288l-.226-.332a1.09 1.09 0 0 1-.63.222c-.293 0-.586-.133-.654-.51h1.6v-.176c.022-.686-.383-1.128-.992-1.128zm0 .398c.293 0 .496.177.541.509h-1.126c.045-.288.247-.51.585-.51zm11.74.708v-1.903h-.473v1.106a.82.82 0 0 0-.676-.31c-.609 0-1.082.465-1.082 1.107 0 .641.473 1.106 1.082 1.106.315 0 .54-.11.676-.31v.266h.473v-1.062zm-1.735 0c0-.376.248-.686.653-.686.383 0 .654.288.654.686 0 .376-.27.686-.654.686-.405-.023-.653-.31-.653-.686zm-15.818 0v-1.062h-.473v.265a.82.82 0 0 0-.676-.31c-.609 0-1.082.465-1.082 1.107 0 .641.473 1.106 1.082 1.106.315 0 .54-.11.676-.31v.266h.473v-1.062zm-1.758 0c0-.376.248-.686.654-.686.383 0 .653.288.653.686 0 .376-.27.686-.653.686-.406-.023-.654-.31-.654-.686z" fill="#fff"/><path d="M16.673 1.7H9.576v12.52h7.097V1.7z" fill="#E5E5E5"/><path d="M10.027 7.964c0-2.544 1.217-4.8 3.087-6.26A8.157 8.157 0 0 0 8.112 0C3.628 0 0 3.562 0 7.964c0 4.403 3.628 7.965 8.112 7.965a8.157 8.157 0 0 0 5.002-1.704 7.9 7.9 0 0 1-3.087-6.26z" fill="#B0B0B0"/><path d="M26.25 7.964c0 4.403-3.628 7.965-8.111 7.965a8.157 8.157 0 0 1-5.003-1.704 7.868 7.868 0 0 0 3.087-6.26c0-2.545-1.217-4.801-3.087-6.262A8.157 8.157 0 0 1 18.14 0c4.483 0 8.111 3.584 8.111 7.964z" fill="#fff"/></g></svg>