<svg width="13" height="24" fill="none" xmlns="http://www.w3.org/2000/svg"><path d="M7.74 9.407a4.218 4.218 0 1 0-3.23-7.792 4.218 4.218 0 0 0 3.23 7.792z" fill="#FF7038"/><path d="M6.12 9.734V1.301a4.221 4.221 0 0 1 4.216 4.217 4.221 4.221 0 0 1-4.217 4.216zm-.001 2.029a.888.888 0 0 0-.794.49L.094 22.715A.888.888 0 0 0 .888 24h10.461a.888.888 0 0 0 .794-1.285l-5.23-10.461a.888.888 0 0 0-.794-.491z" fill="#FF3838"/><path d="M12.105 23.579a.888.888 0 0 1-.755.421H6.12V11.763c.335 0 .643.19.793.49l5.231 10.462a.888.888 0 0 1-.039.864z" fill="#C30047"/></svg>