<svg width="50" height="50" fill="none" xmlns="http://www.w3.org/2000/svg"><rect x="50" y="50" width="50" height="50" rx="25" transform="rotate(-180 50 50)" fill="url(#paint0_radial)"/><rect x="50" y="50" width="50" height="50" rx="25" transform="rotate(-180 50 50)" fill="#0D508F"/><path d="M35.98.742H10.672s0 23.817 9.907 29.33a3.692 3.692 0 0 1 1.877 3.232h5.087c0-1.336.709-2.583 1.877-3.232 1.073-.598 2.03-1.41 2.884-2.384 5.019-5.725 6.45-17.03 6.86-23.015.163-2.389.163-3.93.163-3.93H35.98z" fill="#EA915E"/><path d="M.744 9.548C.85.467 10.834 4.674 10.834 4.674c.063.915.15 1.956.27 3.082-2.627-.946-8.238-2.339-7.45 3.396.799 5.82 3.337 9.844 6.716 12.014 1.882 1.208 3.96 1.38 5.162 1.355.634 1.17 1.351 2.242 2.162 3.168 0 0-4.246.791-8.476-1.755C5.28 23.564.64 18.474.744 9.548z" fill="#E9864F"/><path d="M27.544 36.712h-5.087v4.511h5.087v-4.511z" fill="#EA915E"/><path d="M27.544 36.712H22.37v1.769h5.173v-1.77z" fill="#D06F38"/><path d="M35.524 44.476H14.473v4.782h21.05v-4.782z" fill="#E9844B"/><path d="M35.524 47.416H14.473v1.841h21.05v-1.84zm-3.96-6.193H18.441v3.252h13.123v-3.252z" fill="#E9844B"/><path d="M31.564 42.85H18.441v1.625h13.123V42.85z" fill="#072F55"/><path d="M27.627 36.712h-5.255a1.704 1.704 0 0 1 0-3.408h5.255a1.704 1.704 0 0 1 0 3.408z" fill="#E9844B"/><path d="M35.98.743s0 1.542-.164 3.93c-.409 5.986-1.84 17.29-6.86 23.016-.853.973-1.81 1.786-2.884 2.383a3.692 3.692 0 0 0-1.877 3.233h3.347c0-1.337.71-2.583 1.877-3.233 1.074-.597 2.03-1.41 2.884-2.383 5.02-5.726 6.451-17.03 6.86-23.015.163-2.39.163-3.931.163-3.931H35.98z" fill="#D06F38"/><path d="M23.019 30.072C13.112 24.56 13.112.742 13.112.742h-2.44s0 23.817 9.907 29.33a3.692 3.692 0 0 1 1.877 3.233h1.74c0-.555.124-1.093.35-1.58a3.635 3.635 0 0 0-1.527-1.653z" fill="#F8AE84"/><path d="M49.251 9.548c-.106-9.081-10.09-4.874-10.09-4.874-.063.915-.15 1.956-.27 3.082 2.628-.946 8.238-2.34 7.45 3.396-.799 5.82-3.337 9.844-6.716 12.014-1.882 1.208-3.96 1.379-5.162 1.355-.634 1.17-1.351 2.242-2.162 3.168 0 0 4.246.79 8.476-1.755 3.939-2.37 8.579-7.46 8.474-16.386z" fill="#E9864F"/><path d="M9.119 7.166c.736.168 1.429.389 1.986.59a82.586 82.586 0 0 1-.268-3.083s-.982-.413-2.333-.7c.243 1.057.473 2.118.615 3.193zm6.413 17.355a10.382 10.382 0 0 1-2.352-.222c.09.247.18.494.274.74.435.93.968 1.832 1.51 2.72 1.634.133 2.73-.07 2.73-.07-.81-.926-1.528-1.998-2.162-3.168zm25.35-17.355c-.737.168-1.43.389-1.987.59.12-1.126.206-2.167.268-3.083 0 0 .982-.413 2.333-.7-.243 1.057-.473 2.118-.615 3.193zM34.467 24.52c.606.012 1.436-.026 2.351-.222-.09.247-.18.494-.274.74-.435.93-.968 1.832-1.51 2.72-1.633.133-2.73-.07-2.73-.07.81-.926 1.528-1.998 2.163-3.168z" fill="#E9844B"/><path d="M28.288 41.966h-6.573V35.97h6.573v5.996zM23.2 40.481h3.602v-3.026H23.2v3.026z" fill="#072F55"/><path d="M27.628 37.454h-5.256a2.449 2.449 0 0 1-2.446-2.446 2.45 2.45 0 0 1 2.446-2.447h5.256a2.45 2.45 0 0 1 2.446 2.447 2.45 2.45 0 0 1-2.446 2.446zm-5.256-3.407a.962.962 0 0 0 0 1.922h5.256a.962.962 0 0 0 0-1.922h-5.256zm9.93 11.172H17.696V40.48h14.608v4.737zM19.18 43.733h11.637v-1.767H19.18v1.767z" fill="#072F55"/><path d="M36.267 50H13.73v-6.267h22.537V50zm-21.052-1.485h19.567v-3.297H15.216v3.297zm13.07-14.468h-6.571v-.742c0-1.08-.573-2.07-1.496-2.584-2.4-1.335-4.432-3.773-6.04-7.245-1.258-2.717-2.267-6.082-2.997-10C9.944 6.842 9.93.803 9.93.743V0h30.14v.743c0 .064-.002 1.594-.166 3.981-.426 6.245-1.908 17.598-7.042 23.454-.94 1.073-1.977 1.929-3.08 2.543a2.948 2.948 0 0 0-1.496 2.584v.742zm-5.148-1.485h3.725a4.416 4.416 0 0 1 2.197-3.139c.955-.531 1.859-1.28 2.687-2.224 4.846-5.528 6.264-16.518 6.677-22.576.093-1.37.133-2.465.15-3.138H11.427c.106 4.03 1.06 23.234 9.512 27.938a4.417 4.417 0 0 1 2.197 3.139z" fill="#072F55"/><path d="M33.937 28.548c-1.064 0-1.74-.124-1.768-.129l-1.282-.239.86-.98c.738-.843 1.434-1.863 2.068-3.033l.216-.397.452.009.192.002c1.197 0 2.958-.215 4.553-1.24 3.397-2.181 5.664-6.262 6.382-11.49.172-1.255.02-2.166-.453-2.708-.411-.472-1.116-.712-2.096-.712-1.345 0-2.87.448-3.914.824l-1.115.401.126-1.178c.107-1.012.197-2.04.266-3.054l.031-.457.421-.177c.1-.042 2.477-1.032 5.007-1.032 3.893 0 6.065 2.338 6.115 6.582.049 4.175-.903 7.892-2.83 11.047a17.871 17.871 0 0 1-6.004 5.984c-2.715 1.634-5.429 1.977-7.227 1.977zm-.185-1.487l.185.002c1.61 0 4.038-.306 6.46-1.765 2.479-1.491 8.23-6.01 8.116-15.74-.04-3.442-1.555-5.114-4.63-5.114-1.645 0-3.269.495-4.012.757-.037.498-.078.997-.124 1.495 1.01-.296 2.198-.55 3.314-.55 1.428 0 2.51.41 3.215 1.22.768.88 1.038 2.188.805 3.887-.4 2.91-1.235 5.483-2.483 7.646-1.192 2.065-2.729 3.71-4.568 4.892-1.796 1.154-3.74 1.444-5.125 1.472a19.315 19.315 0 0 1-1.153 1.798zm-17.69 1.486c-1.798 0-4.511-.343-7.226-1.977a17.873 17.873 0 0 1-6.004-5.984C.905 17.431-.048 13.715.002 9.54c.05-4.244 2.221-6.581 6.115-6.581 2.53 0 4.906.989 5.006 1.031l.421.178.031.456c.07 1.018.16 2.045.267 3.054l.125 1.179-1.115-.402c-1.043-.376-2.569-.823-3.914-.823-.979 0-1.684.239-2.096.71-.473.543-.625 1.455-.453 2.71.719 5.227 2.985 9.308 6.382 11.49 1.595 1.024 3.357 1.239 4.553 1.239.067 0 .131 0 .193-.002l.452-.01.216.399c.634 1.17 1.33 2.19 2.068 3.032l.184.21v.28c0 .192-.073.653-.748.752-.109.016-.229.03-.357.044-.399.041-.826.062-1.27.062zM6.118 4.443c-3.075 0-4.59 1.673-4.63 5.114-.115 9.73 5.637 14.25 8.115 15.74 2.423 1.459 4.85 1.765 6.46 1.765.064 0 .125 0 .185-.002a19.285 19.285 0 0 1-1.152-1.797c-1.386-.028-3.33-.319-5.126-1.473-1.839-1.18-3.376-2.827-4.567-4.891-1.248-2.163-2.084-4.736-2.484-7.646-.233-1.7.038-3.007.805-3.887.706-.81 1.788-1.22 3.216-1.22 1.115 0 2.304.253 3.313.55a84.968 84.968 0 0 1-.124-1.496c-.742-.261-2.367-.757-4.011-.757z" fill="#072F55"/><path d="M39.263 2.498H10.672v1.485h28.59V2.498z" fill="#072F55"/><path d="M18.896 26.6c-.474-.51-.93-1.093-1.353-1.736l1.24-.817a11.74 11.74 0 0 0 1.2 1.54L18.896 26.6zm-1.922-2.669c-1.163-2.046-2.113-4.667-2.826-7.789l1.448-.33c.68 2.98 1.578 5.465 2.67 7.386l-1.292.733z" fill="#FDC4A3"/><path d="M42.073 33.824l-.003-3.993-1.485.001.003 3.993h1.485z" fill="#EA915E"/><path d="M43.325 32.57v-1.486l-3.994.003.001 1.485 3.993-.002zM9.954 37.71H8.469v3.59h1.485v-3.59z" fill="#EA915E"/><path d="M11.007 38.762H7.418v1.485h3.59v-1.485zM6.171 28.141H4.77v1.485h1.4v-1.485zm9.003 4.394h-1.4v1.485h1.4v-1.485zm22.579 4.468h-1.401v1.485h1.4v-1.485z" fill="#EA915E"/><defs><radialGradient id="paint0_radial" cx="0" cy="0" r="1" gradientUnits="userSpaceOnUse" gradientTransform="rotate(135 39.645 45.71) scale(70.7107)"><stop stop-color="#9D2777"/><stop offset=".615" stop-color="#731A56"/></radialGradient></defs></svg>