<svg width="40" height="20" fill="none" xmlns="http://www.w3.org/2000/svg"><g clip-path="url(#clip0)"><path d="M39.654 4.184h-1.77a.343.343 0 0 1-.346-.347V2.034c0-.194.152-.346.346-.346h1.77c.194 0 .346.152.346.346v1.803a.343.343 0 0 1-.346.347zM37.29 1.692h-1.203a.243.243 0 0 1-.235-.236V.236c0-.125.11-.236.235-.236h1.203c.125 0 .235.11.235.236v1.22c.014.139-.097.236-.235.236zM4.564 4.996H1.992C.609 4.996 0 5.606 0 6.993v8.862c0 .527.166.708.705.708h.18c.526 0 .706-.167.706-.708v-3.453h2.973c2.656 0 3.887-1.179 3.887-3.703S7.206 4.996 4.564 4.996zm0 5.936H1.577v-3.73c0-.514.193-.708.705-.708h2.282c1.467 0 2.31.36 2.31 2.205 0 1.442-.373 2.233-2.31 2.233zm7.192-3.397c-1.024 0-1.66.125-1.895.18-.43.098-.609.208-.609.708v.138c0 .195.028.32.083.417.07.11.18.166.332.166.07 0 .166-.014.263-.042a9.583 9.583 0 0 1 1.88-.194c1.536 0 2.172.43 2.172 1.47v.93h-1.936c-2.49 0-3.651.845-3.651 2.662 0 1.762 1.203 2.732 3.374 2.732 2.587 0 3.749-.887 3.749-2.87v-3.44c0-1.928-1.231-2.857-3.762-2.857zm2.24 6.255c0 .985-.36 1.567-2.24 1.567-1.231 0-1.84-.444-1.84-1.373 0-1.012.609-1.4 2.144-1.4h1.922v1.206h.014zm10.1-5.285L22.09 16.52c-.581 2.357-1.59 3.356-3.458 3.48h-.139c-.4 0-.525-.221-.608-.582l-.028-.152c-.027-.167-.055-.347.042-.472s.263-.166.511-.18c1.26-.125 1.674-.707 2.09-2.025-.195.07-.43.097-.692.097-1.37 0-1.743-.957-2.061-2.122L16.1 8.505c-.056-.208-.097-.416.014-.555.11-.139.318-.167.525-.167h.138c.526 0 .72.153.858.652l1.632 6.02c.208.748.429.873.954.873.43 0 .692-.139.872-.874l1.438-6.019c.111-.499.319-.665.844-.665h.152c.208 0 .415.013.526.152.11.167.083.375.041.583zM35.85 6.16V12.25c0 .984-.221 1.802-.65 2.468-.816 1.29-2.407 1.983-4.675 1.983h-.014-.014c-2.268 0-3.859-.693-4.675-1.983-.429-.666-.65-1.498-.65-2.469V6.161c0-.985.401-1.165 1.48-1.165h.332c1.079 0 1.48.18 1.48 1.165v6.088c0 .389.069.708.235.944.29.457.871.651 1.798.665.927 0 1.508-.208 1.798-.665.152-.25.235-.555.235-.944V9.032 6.16c0-.985.401-1.165 1.48-1.165h.332c1.107 0 1.508.18 1.508 1.165z" fill="#fff"/><path d="M37.054 7.555h-2.379a.467.467 0 0 1-.47-.471V4.67c0-.264.208-.472.47-.472h2.38c.262 0 .47.208.47.472v2.413c.014.263-.208.471-.47.471z" fill="#fff"/><path d="M34.371 4.996h-.166v2.08c0 .264.208.472.47.472h1.176V6.16c0-.985-.401-1.165-1.48-1.165z" fill="#BBB"/></g></svg>