<svg fill="none" height="50" width="50" xmlns="http://www.w3.org/2000/svg" xmlns:xlink="http://www.w3.org/1999/xlink"><mask id="a" height="50" maskUnits="userSpaceOnUse" width="50" x="0" y="0"><path clip-rule="evenodd" d="m0 50h50v-50h-50z" fill="#fff" fill-rule="evenodd"/></mask><g fill="#008be2"><rect fill-opacity=".1" height="50" rx="25" transform="matrix(-1 0 0 -1 100 100)" width="50" x="50" y="50"/><g clip-rule="evenodd" fill-rule="evenodd"><path d="m38.937 48.349h-3.274v-4.086h-1.638v4.086h-5.831l-.706-6.333.884-1.305.982.584 3.435-5.137 1.707.392a5.697 5.697 0 0 1 4.44 5.574v6.241-.016zm-12.395-.001h-3.088l.753-6.743-1.172-1.767 1.965-1.176 1.965 1.176-1.172 1.753.75 6.757zm-4.732 0h-5.827v-4.085h-1.637v4.086h-3.276v-6.225a5.7 5.7 0 0 1 4.449-5.574l1.705-.392 3.436 5.137.982-.584.885 1.305-.717 6.333zm-1.112-13.01 2.87 2.285-2.418 1.447-2.224-3.328zm-1.436-9.058v-3.813c1.887.396 3.813.579 5.74.545a25.726 25.726 0 0 0 5.739-.545v3.813c-.185 3.157-2.902 5.565-6.067 5.38a5.732 5.732 0 0 1 -5.396-5.38zm-1.64-6.143v3.135c-1.945-4.07-.214-8.941 3.868-10.882 3.996-1.9 8.782-.289 10.805 3.636l.23.444h.5c.543 0 .983.439.983.98v3.122a7.374 7.374 0 0 1 -1.638 4.61v-5.029l-1.132.468c-.02 0-1.881.754-6.223.754-4.343 0-6.224-.745-6.224-.751l-1.168-.486zm7.38 16.537-3.275-2.612v-1.199a7.31 7.31 0 0 0 6.55 0v1.199l-3.276 2.612zm6.07-.928-2.223 3.328-2.416-1.447 2.87-2.285 1.77.404zm3.784-.806-4.935-1.137v-2.057a7.335 7.335 0 0 0 2.335-4.17 9.02 9.02 0 0 0 3.403-7.004v-3.112a2.632 2.632 0 0 0 -2.12-2.574 9.869 9.869 0 0 0 -10.1-4.833 9.166 9.166 0 0 0 -1.719.441v-6.744l3.274-1.869 3.277 1.869v5.365h1.637v-4.43l.413.236.812-1.42-6.133-3.501-6.146 3.501.816 1.42.412-.236v6.577c-4.688 2.677-6.312 8.637-3.627 13.31.333.58.724 1.123 1.167 1.623v.084-.001c0 2.09.894 4.077 2.459 5.467v2.057l-4.938 1.138a7.324 7.324 0 0 0 -5.718 7.183v7.876h31.153v-7.876a7.331 7.331 0 0 0 -5.723-7.183z"/><g mask="url(#a)"><path d="m9.426 36.906h1.64v-1.636h-1.64z"/><path d="m9.426 3.749v29.888h1.637v-28.95l.413.235.815-1.42-6.147-3.502-6.144 3.501.812 1.42.417-.235v45.298h1.636v-46.235l3.279-1.868z"/><path d="m5.324 43.443h1.641v-39.234h-1.64v39.234zm41.813 6.54h1.642v-1.635h-1.642v1.636zm-8.2-14.71h1.643v-1.636h-1.642v1.636z"/><path d="m43.858 8.992-6.147 3.501.815 1.418.413-.236v18.325h1.638v-19.26l3.281-1.867 3.278 1.868v33.973h1.642v-33.039l.412.236.812-1.418-6.144-3.5z"/><path d="m24.18 8.298h1.64v-4.089h-1.64zm18.855 35.148h1.642v-30.246h-1.642v30.245zm-37.71 3.27h1.64v-1.636h-1.64zm0 3.268h1.64v-1.636h-1.64zm37.714.001h1.642v-4.905h-1.641v4.905z"/></g></g></g></svg>