<svg width="200" height="200" viewBox="0 0 200 200" fill="none" xmlns="http://www.w3.org/2000/svg">
<g clip-path="url(#clip0)">
<path d="M100 200C44.8 200 0 155.2 0 100C0 44.8 44.8 0 100 0C155.2 0 200 44.8 200 100C200 155.2 155.2 200 100 200Z" fill="white"/>
<path d="M100 0C88.4 0 76.4 2.1 65.7 6L70.2 18.2C79.7 14.8 89.7 13 100 13V0ZM35.6 23.5C26.7 31 19.1 40.1 13.3 50.2L24.6 56.7C29.7 47.9 36.2 40 44 33.4L35.6 23.5ZM1.4 83C0.5 88.6 0 94.3 0 100C0 106 0.5 112 1.6 117.8L14.4 115.5C12.6 105.6 12.6 95.1 14.3 85.2L1.4 83ZM24.9 143.9L13.7 150.5C19.6 160.6 27.3 169.6 36.3 177L44.6 167C36.7 160.5 30 152.7 24.9 143.9ZM70.8 182L66.4 194.2C77.4 198.1 89.1 200.1 100.7 200L100.6 187C90.5 187.1 80.4 185.4 70.8 182ZM156.6 166.1C148.8 172.8 140.1 178 130.5 181.5L135.1 193.7C146.1 189.6 156.2 183.6 165.1 176L156.6 166.1ZM185.9 114.1C184.3 124.2 180.9 133.8 175.9 142.7L187.2 149.1C192.8 139.1 196.8 128 198.7 116.2L185.9 114.1ZM185.9 48.8L174.7 55.5C179.9 64.3 183.6 73.8 185.4 83.8L198.2 81.4C196.1 69.7 191.9 58.9 185.9 48.8ZM132.7 5.5L128.4 17.8C138 21.1 146.9 26.1 154.8 32.6L163 22.5C154.1 15.1 143.8 9.3 132.7 5.5Z" fill="#69B057"/>
<path d="M100 188C51.4483 188 12 148.552 12 100C12 51.4483 51.4483 12 100 12C148.552 12 188 51.4483 188 100C188 148.552 148.552 188 100 188Z" fill="url(#paint0_radial)"/>
<path d="M54.5787 117H76.4187V107.9H64.5237V70.98H54.5787V117ZM93.5873 80.08C85.2673 80.08 78.9623 88.27 78.9623 99.125C78.9623 109.85 85.2673 118.04 93.5223 118.04C101.842 118.04 108.212 109.785 108.212 99.06C108.212 88.27 101.907 80.08 93.5873 80.08ZM93.5223 88.855C97.0323 88.855 99.0473 92.625 99.0473 99.06C99.0473 105.365 96.9673 109.2 93.5873 109.2C90.0773 109.2 88.0623 105.43 88.0623 98.865C88.0623 92.69 90.1423 88.855 93.5223 88.855ZM122.419 118.625L129.309 100.555L136.134 118.625L149.654 81.12H140.554L135.744 96.655L129.179 79.495L122.939 96.655L117.609 81.12H108.054L122.419 118.625Z" fill="white"/>
</g>
<defs>
<radialGradient id="paint0_radial" cx="0" cy="0" r="1" gradientUnits="userSpaceOnUse" gradientTransform="translate(12 12) rotate(45) scale(248.902)">
<stop stop-color="#84D56F"/>
<stop offset="1" stop-color="#60A34E"/>
</radialGradient>
<clipPath id="clip0">
<rect width="200" height="200" fill="white"/>
</clipPath>
</defs>
</svg>
