<svg width="200" height="200" viewBox="0 0 200 200" fill="none" xmlns="http://www.w3.org/2000/svg">
<path d="M100 200C44.8 200 0 155.2 0 100C0 44.8 44.8 0 100 0C155.2 0 200 44.8 200 100C200 155.2 155.2 200 100 200Z" fill="#BBBBBB"/>
<path d="M62.2744 68.16C57.8744 65.12 54.2744 63.84 50.1944 63.84C37.4744 63.84 27.6344 76.88 27.6344 93.76C27.6344 110.4 37.4744 123.52 49.9544 123.52C53.7944 123.52 57.3144 122.4 61.2344 119.84L62.6744 106.48C57.7944 110.88 55.6344 112 51.7944 112C44.8344 112 40.4344 104.88 40.4344 93.6C40.4344 82.72 44.5944 75.84 51.2344 75.84C54.3544 75.84 56.9944 77.28 60.8344 80.96L62.2744 68.16ZM99.9844 76.56L89.2644 77.84C86.6244 76.88 84.9444 76.56 82.8644 76.56C72.5444 76.56 65.9044 85.92 65.9044 100.48C65.9044 114 71.7444 123.28 80.3044 123.28C83.2644 123.28 85.6644 122.32 88.7844 119.84L89.4244 123.28L100.544 122C100.144 118.16 99.9844 114.64 99.9844 107.44V76.56ZM88.2244 109.76C86.0644 111.68 84.6244 112.4 82.8644 112.4C79.1044 112.4 77.1044 108.24 77.1044 100.4C77.1044 91.76 79.4244 87.36 83.8244 87.36C85.3444 87.36 86.3844 87.76 88.2244 88.96V109.76ZM107.901 119.76C111.581 122.4 115.021 123.52 119.101 123.52C126.941 123.52 132.381 117.6 132.381 109.2C132.381 103.68 130.301 100.24 124.941 96.8L122.141 95.04C119.341 93.2 118.781 92.48 118.781 90.64C118.781 88.4 120.301 86.88 122.541 86.88C124.381 86.88 126.141 87.6 129.021 89.52V78.88C125.421 76.96 123.421 76.32 120.621 76.32C113.021 76.32 107.581 82.16 107.581 90.24C107.581 95.36 109.421 98.48 114.221 101.52L117.741 103.76C120.381 105.44 121.181 106.56 121.181 108.72C121.181 111.28 119.581 112.96 117.021 112.96C114.461 112.96 111.741 111.6 107.341 108.16L107.901 119.76ZM150.209 122V100.64C150.209 95.68 150.529 92.56 151.249 91.12C152.289 88.88 154.289 87.36 156.289 87.36C158.929 87.36 159.809 89.12 159.809 94.48V122H171.009V92.08C171.009 81.36 168.049 76.56 161.329 76.56C157.169 76.56 154.369 78.16 150.209 82.8V64.08L139.009 65.36V122H150.209Z" fill="#FFFFFF"/>
</svg>
