<svg fill="none" height="200" viewBox="0 0 200 200" width="200" xmlns="http://www.w3.org/2000/svg" xmlns:xlink="http://www.w3.org/1999/xlink"><radialGradient id="a" cx="0" cy="0" gradientTransform="matrix(200.00020331 200.00020331 -200.00020331 200.00020331 0 0)" gradientUnits="userSpaceOnUse" r="1"><stop offset="0" stop-color="#575757"/><stop offset="1"/></radialGradient><linearGradient id="b" gradientUnits="userSpaceOnUse" x1="78.6537" x2="134.035" y1="46.8556" y2="106.244"><stop offset=".00120812" stop-color="#e1b482"/><stop offset="1" stop-color="#8c704d"/></linearGradient><linearGradient id="c"><stop offset=".00120812" stop-color="#e1b482"/><stop offset=".1937" stop-color="#d7ac7c"/><stop offset=".5208" stop-color="#bc966a"/><stop offset=".9405" stop-color="#91724e"/><stop offset="1" stop-color="#8a6c4a"/></linearGradient><linearGradient id="d" gradientUnits="userSpaceOnUse" x1="42.8209" x2="42.8209" xlink:href="#c" y1="123.055" y2="150.996"/><linearGradient id="e" gradientUnits="userSpaceOnUse" x1="72.0797" x2="72.0797" xlink:href="#c" y1="123.408" y2="150.768"/><linearGradient id="f" gradientUnits="userSpaceOnUse" x1="99.4779" x2="99.4779" xlink:href="#c" y1="123.055" y2="150.996"/><linearGradient id="g" gradientUnits="userSpaceOnUse" x1="129.192" x2="129.192" xlink:href="#c" y1="123.292" y2="150.884"/><linearGradient id="h" gradientUnits="userSpaceOnUse" x1="157.749" x2="157.749" xlink:href="#c" y1="124.105" y2="150.999"/><path d="m200 0h-200v200h200z" fill="url(#a)"/><path d="m137.035 72.9651c0-18.8451-15.339-33.9651-33.965-33.9651-18.8456 0-33.9655 15.12-33.9655 33.9651 0 18.8452 15.1199 33.9649 33.9655 33.9649 7.45 0 14.243-2.41 19.94-6.355l14.025 6.355-4.821-16.6536c3.068-5.04 4.821-10.9565 4.821-17.3113zm-33.965 10.2991s3.506 8.7652 8.107 10.2991h-8.107-8.1082c4.6017-1.5339 8.1082-10.2991 8.1082-10.2991-3.7256 4.6018-20.3795 7.2313-18.4073-9.2034 1.5339-12.0522 18.4073-20.8174 18.4073-20.8174s17.311 8.9844 18.407 20.8174c1.314 16.4347-14.682 13.586-18.407 9.2034z" fill="url(#b)"/><path d="m29.1477 127.329v-2.279h11.9233v-1.929h3.1561v1.929h12.274v2.279h-12.0986v1.754h8.9425v14.553h3.8575v2.28h-28.7562v-2.28h3.8575v-14.553h8.9425v-1.754zm1.4027 23.672c-.526-1.052-1.0521-1.929-1.2274-2.455 4.0329-.702 7.3644-1.578 10.1699-2.63l1.2274 2.104c-3.3315 1.227-6.663 2.104-10.1699 2.981zm4.9096-19.814v1.753h14.7288v-1.753zm0 3.507v1.928h14.7288v-1.928zm0 3.682v1.753h14.7288v-1.753zm0 3.507v1.753h14.7288v-1.753zm19.8137 9.118c-2.4548-.877-5.9616-1.929-10.3452-2.981l1.0521-1.929c3.3315.701 6.8383 1.403 10.3452 2.279z" fill="url(#d)"/><path d="m84.0309 150.479c-6.663-3.507-10.6959-8.592-11.9233-15.08-1.2274 6.488-5.2603 11.748-12.0987 15.431-.7013-1.052-1.4027-1.929-2.2794-2.981 7.5397-3.858 11.748-9.644 12.274-17.535.1753-1.928.1753-4.208.1753-7.013h3.5069c0 .175-.1754.876-.1754 2.104 0 .877-.1753 1.578-.1753 2.104.7014 10.17 4.9096 16.658 12.8 19.989-.7014 1.052-1.5781 2.104-2.1041 2.981z" fill="url(#e)"/><path d="m88.5884 151.001v-11.047c-.8767.877-1.7534 1.753-2.8054 2.63-.1754-1.052-.3507-2.104-.8768-3.156 2.4548-2.279 4.559-5.085 6.4877-8.416l2.4548 1.578c-.1753.175-.3507.35-.526.876-.8767 1.403-1.4027 2.455-2.1041 2.981v14.554zm-1.7534-18.236c-.526-1.403-.8767-2.28-1.2274-2.981 2.1041-1.753 4.0329-3.857 5.7863-6.663l2.4548 1.754c-1.9287 2.98-4.2082 5.61-7.0137 7.89zm7.7151 16.307c-.8767-.351-1.5781-.702-2.4548-.877.8767-1.753 1.7534-3.507 2.4548-5.085l2.4548.702c0 .175-.1753.35-.3507.701-.526 1.403-1.2274 2.981-2.1041 4.559zm-1.2274-7.54v-2.279h20.3393v2.279h-9.819c.877 1.227 1.578 2.28 2.104 3.156l-2.454 1.228c-.702-1.228-1.403-2.63-2.28-4.033l1.228-.526h-9.1183zm.526-13.501v-2.28h7.8903v-2.63h2.981v2.63h8.416v2.28h-8.416v1.928h7.54v7.365h-18.0606v-7.365h7.5396v-1.928zm3.1562 4.033v3.156h2.8055v-3.156zm4.2081 18.411c-2.4547 0-3.5067-1.053-3.5067-2.981v-4.384h2.8057v3.332c0 1.227.526 1.753 1.929 1.578h2.104c1.227 0 1.928-.351 2.104-1.052.175-.702.35-1.578.526-2.28 1.227.351 2.104.702 2.63.877-.175 1.052-.526 1.929-.701 2.63-.526 1.578-1.754 2.28-3.858 2.28zm.701-18.411v3.156h2.806v-3.156zm7.891 0h-2.806v3.156h2.806zm1.753 16.482c-.701-1.403-1.578-2.981-2.805-4.91l2.279-.877c1.052 1.579 2.104 3.332 2.806 4.91z" fill="url(#f)"/><path d="m115.592 131.717v-2.981h4.559v-5.435h3.332v5.611h4.208v2.981h-4.208v5.085c.526 0 1.227-.176 2.104-.527 1.052-.35 1.929-.526 2.455-.526 0 1.403 0 2.455.175 2.981l-4.559 1.228v7.013c0 2.28-1.052 3.507-3.507 3.683-.876 0-2.104 0-3.682 0 0-.176-.175-.702-.351-1.228-.175-.877-.35-1.403-.35-1.753h2.805c1.228 0 1.929-.351 1.754-1.578v-5.261c-1.578.351-3.332.877-4.735 1.228l-.526-3.332 5.261-1.227v-5.786h-4.735zm25.425 9.118c-1.052-1.403-2.981-3.682-5.611-6.663-.526-.526-.877-.877-1.052-1.227v17.885h-3.331v-27.529h3.331v9.118l2.104-1.578c2.455 2.454 4.91 5.084 7.189 7.715z" fill="url(#g)"/><path d="m144.697 151.003v-26.827h26.302v26.827h-2.981v-1.227h-20.34v1.227zm21.743-10.17c-1.578-.701-2.981-1.402-4.033-2.279l-.175 1.929c-.176 1.402-1.053 2.104-2.631 2.279-.876 0-1.928 0-2.98 0 0 0 0-.175-.176-.175 0-.351-.175-.702-.35-1.403 1.052 0 1.928.175 2.63.175.701 0 1.052-.35 1.052-.876 0-.351.175-.526.175-.877h-5.786v2.981c0 1.227.526 1.753 1.578 1.578h5.26c1.228 0 1.929-.351 2.104-1.228.176-.526.351-1.227.526-1.928.877.35 1.578.526 2.28.876 0 .176 0 .351-.176.526-.175.702-.35 1.228-.526 1.579-.35 1.402-1.578 2.279-3.682 2.279h-6.663c-2.279 0-3.331-1.052-3.331-3.156v-3.156c-.351.175-.877.35-1.403.876-.701.351-1.052.526-1.403.702-.175-.702-.701-1.403-1.227-2.104v8.241h20.339v-21.217h-20.164v12.625c2.455-1.052 4.384-2.104 5.611-3.332h-4.559v-1.928h5.962c.35-.526.526-1.052.877-1.578h-6.137v-1.929h2.98c-.175-.351-.526-.877-1.052-1.403-.35-.351-.526-.701-.701-.877l2.279-.526c.702.702 1.228 1.578 1.754 2.455l-1.228.351h2.631c.175-1.052.35-2.104.526-3.156h2.805c0 .35-.175.876-.175 1.578-.176.701-.351 1.227-.351 1.578h3.156l-1.052-.526c.526-.526 1.052-1.228 1.929-2.455l2.279.526c-.526.701-1.227 1.403-1.928 2.279h2.805v1.929h-7.89c0 .351-.176.702-.526 1.228 0 .175-.176.35-.176.35h9.469v1.929h-4.559c1.227 1.227 2.981 2.104 5.26 2.63-.175.176-.351.702-.526 1.228-.351.701-.701 1.052-.701 1.402zm-9.995-4.909c-.526.701-1.052 1.402-1.929 1.929h6.839c-.526-.527-1.228-1.228-1.754-1.929z" fill="url(#h)"/></svg>