<svg width="200" height="200" fill="none" xmlns="http://www.w3.org/2000/svg"><path d="M200 0H0v200h200V0z" fill="#000"/><path d="M169.197 88.101H153.25L165.303 34h-27.034l-11.057 54.101h-6.541L109.365 34H88.248l-2.71 13.065c.031.094.094.219.125.312 1.246 2.557 1.152 5.02 1.214 7.827.063 2.12.187 4.272.218 6.299 0 .904 0 1.465-.404 2.339-.219.467-.623.935-.81 1.403a2.64 2.64 0 0 1-.125.53c0-.187.062-.343.125-.53.249-1.341.03-3.306-.312-4.428-.311-1.06-1.121-1.684-.685-2.869.374-1.029.685-.904.53-1.965-.125-.779-.468-2.182-1.028-3.305l-7.32 35.423H65.45l-7.911-45.058h-26.63L40.594 88.1h-8.503l-1.993 6.143c.125.437.25.904.436 1.372.685 1.809 1.806 3.15 2.647 4.771.748 1.403 1.838 2.588 2.025 4.241.249 2.276.218 5.02.093 7.328-.965-.312-1.059.187-1.214-1.029-.187-1.466-.499-2.495-.873-3.898-.31-1.185-.28-3.056-1.027-4.116-.312-.437-.966-.561-1.402-.998-.343.53-.872.904-1.152 1.497-.405.842-.405 1.933-.748 2.837-.592 1.653-1.34 3.119-1.557 4.896-.125 1.123.498 4.522-.841 5.114-.779-1.06-1.838-1.247-3.084-1.528l-1.432 4.366c.155 1.652-.094 3.492.373 5.051.437-.156.841-.499 1.277-.748 1.153-.593 1.527-.406 2.648-.125 1.402.343 2.274-.281 3.55-.592.966-.219 1.932-.188 2.897-.531 1.121-.374 2.585-.592 3.8-.498 1.152.093 1.557.935 2.523 1.403 1.121.53 2.305.405 3.457.717 1.06.281 2.616.561 3.675 1.216h2.367l11.4 52.979h22.986l10.091-52.948h11.836l7.942 43.032h22.674l9.562-43.032h16.757l.561-1.933c0-.437-.032-.873-.063-1.247-.093-1.715-.187-3.462-.716-5.083-.405-1.216-1.308-2.245-1.713-3.337-.343-.935.342-1.621.124-2.463-.155-.624-.716-1.185-.903-1.84-.156-.592-.249-1.122-.56-1.652-.654-1.123-2.056-2.37-1.745-3.961.218-1.029 1.246-1.153 1.682-1.871.436-.717.156-1.496.81-.374.436.78.467 2.058.841 2.869.405.967.436 2.027.81 3.025.187.53.498.873.747 1.341.374.686.592 2.058 1.153 2.494 1.931 1.528 2.46-2.276 2.336-3.43-.063-.436-.249-.873-.218-1.31.093-.717.623-1.247.716-1.995.125-.78.125-1.746.094-2.495-.032-1.964-.686-4.958.591-6.704 1.215 1.123 1.931 1.185 3.489 1.31.093 0 .187.03.249.03l1.869-6.36c-.779-.842-1.745-1.435-2.741-1.934z" fill="#C10000"/><path d="M44.705 120.252l-3.582-26.256h4.298c.592 5.675 1.402 14.375 1.62 19.333h.062c.592-5.55 1.682-13.564 2.43-19.333h3.924c.779 5.956 1.869 13.346 2.398 19.146h.094c.311-5.114 1.09-13.19 1.681-19.146h4.08l-3.861 26.256h-4.112c-.747-5.894-1.775-12.879-2.336-18.273h-.062c-.623 5.519-1.744 12.629-2.523 18.273h-4.111zm23.951-26.256v26.256h-4.049V93.996h4.05zm4.205 26.256V93.996h4.672c1.06 3.71 4.174 16.651 4.454 18.055h.031c-.187-3.243-.187-6.923-.187-11.226v-6.829h3.738v26.256h-4.516c-.841-3.15-4.33-17.525-4.579-18.647h-.03c.186 3.18.186 6.735.186 11.444v7.171h-3.769v.032zm20.4-7.016l-.904 7.016h-4.11l4.235-26.256h5.7l4.391 26.256h-4.235l-1.028-7.016h-4.05zm3.55-3.742c-.592-4.459-1.183-8.7-1.464-11.662h-.155c-.125 2.151-.903 7.795-1.433 11.662h3.052zm21.711.998c0-4.46.062-10.01.124-13.035h-.031a1680.029 1680.029 0 0 1-3.177 22.795h-3.799c-.841-6.829-2.305-18.024-2.897-22.826h-.093c.093 3.056.186 9.012.186 13.502v9.324h-3.675V93.996h6.011c1.028 6.673 2.087 14.157 2.43 17.836h.031c.436-3.71 1.838-11.537 2.897-17.836h5.824v26.256h-3.831v-9.76zm11.305 2.744l-.903 7.016h-4.112l4.236-26.256h5.7l4.392 26.256h-4.236l-1.028-7.016h-4.049zm3.582-3.742c-.592-4.459-1.184-8.7-1.464-11.662h-.156c-.124 2.151-.903 7.795-1.432 11.662h3.052zm16.227 10.758l-2.585-9.48h-.031l-2.772 9.48h-4.174l4.641-13.346-4.423-12.91h4.454l2.43 8.7h.031l2.398-8.7h4.236l-4.423 12.286 4.703 13.938h-4.485v.032z" fill="#fff"/></svg>