<svg width="200" height="200" fill="none" xmlns="http://www.w3.org/2000/svg"><path d="M200 0H0v200h200V0z" fill="#17171C"/><path d="M128.88 132.014c-.105 6.503-1.692 11.579-4.811 17.871-2.379 4.758-6.028 8.354-8.618 10.945-4.6 4.652-16.02 15.967-16.02 15.967l-28.288-28.181c-.053-.053-.053-.106-.106-.159-5.234-9.57-16.972-35.319-9.146-55.04 1.903-3.807 4.388-7.508 7.508-10.998l12.53-12.478c8.989 10.628 24.956 21.572 34.791 32.253.052.053.105.105.158.211l.053.053c1.48 1.586 4.706 5.076 7.402 10.416 2.644 4.759 4.706 11.209 4.547 19.14z" fill="url(#paint0_linear)"/><path d="M127.242 133.124c-.423 5.816-2.01 11.315-5.341 17.501-2.22 4.124-4.494 6.186-7.825 9.993-4.177 4.811-9.252 10.257-14.857 16.179l-28.287-28.234c-4.97-9.094-16.179-33.363-10.046-52.873a50.676 50.676 0 0 1 8.989-13.8l11.949-11.949c8.988 10.628 24.903 21.52 34.737 32.2l.318.317c2.855 3.225 11.579 14.17 10.363 30.666z" fill="url(#paint1_linear)"/><path opacity=".15" d="M124.545 112.822c-23.74 10.205-53.031 35.319-53.031 35.319 3.436-10.363 45.523-45.735 45.523-45.735l.053.053a43.473 43.473 0 0 1 7.455 10.363z" fill="#000"/><path d="M131.101 88.234l-14.064 14.064-.158.158-45.735 45.894-.159.158C57.45 135.343 52.797 114.194 60.94 95.636l1.11-2.38c1.904-3.806 4.39-7.508 7.509-10.997.105-.159.264-.264.37-.423l11.949-11.95 46.951-47.003s4.97 4.917 7.402 9.411c16.179 29.873-1.216 51.287-5.129 55.94z" fill="#FEDD80"/><path d="M131.101 88.234l-16.76 16.813s-15.122 13.588-19.88 18.347c-6.186 6.239-23.582 25.114-23.582 25.114-16.073-16.232-18.77-45.1.106-65.932l36.112-38.068 21.625-21.625s4.97 4.917 7.402 9.411c16.285 29.873-1.11 51.287-5.023 55.94z" fill="url(#paint2_linear)"/><path d="M70.88 143.22s-1.11-26.595 14.54-55.517c15.704-28.921 33.522-49.806 42.193-58.266-15.122 15.016-51.868 51.71-54.565 54.618-2.696 2.908-13.324 16.02-12.478 30.032.952 14.011 3.437 19.933 10.31 29.133z" fill="url(#paint3_linear)"/><defs><linearGradient id="paint0_linear" x1="108.605" y1="105.006" x2="71.422" y2="143.317" gradientUnits="userSpaceOnUse"><stop stop-color="#BA0555"/><stop offset="1" stop-color="#BC4610"/></linearGradient><linearGradient id="paint1_linear" x1="108.285" y1="104.96" x2="71.103" y2="143.271" gradientUnits="userSpaceOnUse"><stop stop-color="#FA1366"/><stop offset="1" stop-color="#FD6E06"/></linearGradient><linearGradient id="paint2_linear" x1="149.506" y1="65.296" x2="80.975" y2="93.46" gradientUnits="userSpaceOnUse"><stop stop-color="#F80300"/><stop offset=".083" stop-color="#F81A00"/><stop offset=".323" stop-color="#FA5600"/><stop offset=".543" stop-color="#FB8500"/><stop offset=".736" stop-color="#FBA800"/><stop offset=".895" stop-color="#FCBC00"/><stop offset="1" stop-color="#FCC400"/></linearGradient><linearGradient id="paint3_linear" x1="84.258" y1="99.521" x2="137.526" y2="38.301" gradientUnits="userSpaceOnUse"><stop stop-color="#FDD959"/><stop offset="1" stop-color="#FB7D59"/></linearGradient></defs></svg>