<svg width="20" height="20" fill="none" xmlns="http://www.w3.org/2000/svg"><path opacity=".7" d="M17.5 5V0H15a5.625 5.625 0 0 0-5 3.063A5.625 5.625 0 0 0 5 0H2.5v5H0v5h1.25v10h17.5V10H20V5h-2.5zm-6.448-1.25H15V2.5h-3.053c.814-.8 1.91-1.25 3.053-1.25h1.25V5h-5.58a4.34 4.34 0 0 1 .382-1.25zM3.75 1.25H5c1.142 0 2.239.45 3.053 1.25H5v1.25h3.948c.19.395.319.816.383 1.25H3.75V1.25zm-2.5 5H7.5v2.5H1.25v-2.5zm10 12.5h-2.5V15H7.5v3.75h-5V10h5v1.25h1.25V10h2.5v8.75zm0-10h-2.5v-2.5h2.5v2.5zm6.25 10h-5V10h5v8.75zm1.25-10H12.5v-2.5h6.25v2.5z" fill="#008BE2"/><path opacity=".7" d="M8.75 12.5H7.5v1.25h1.25V12.5z" fill="#008BE2"/></svg>