<svg width="20" height="20" fill="none" xmlns="http://www.w3.org/2000/svg"><g opacity=".7"><path d="M4.298 5.496l-2.63 4.576L9.998 20l8.332-9.928-2.63-4.576H4.298zm7.443 5.141l-1.742 6.228-1.742-6.228h3.484zM8.603 9.362l1.396-2.13 1.396 2.13H8.603zm2.533-2.592h3.02L12.56 8.943 11.136 6.77zM7.439 8.943L5.841 6.77h3.02L7.44 8.943zm-1.192.42h-2.79l1.224-2.13 1.566 2.13zm.785 1.274l1.651 5.905-4.954-5.905h3.303zm5.934 0h3.303l-4.955 5.905 1.652-5.905zm.785-1.275l1.566-2.129 1.223 2.13h-2.79zM9.414 0h1.172v3.465H9.414V0zm6.727 4.08l2.012-2.735.915.797-2.012 2.735-.915-.797zm-3.16-1.895h1.171v1.28h-1.171v-1.28zm5.843 4.13H20V7.59h-1.176V6.316zM.941 2.144l.916-.797L3.869 4.08l-.915.797L.94 2.143zm4.907.042H7.02v1.28H5.848v-1.28zM0 6.315h1.176V7.59H0V6.316z"/></g></svg>