<svg width="20" height="20" fill="none" xmlns="http://www.w3.org/2000/svg"><path d="M5.036 8.261a.606.606 0 0 0 .146.61l1.97 1.98-.453 2.781a.603.603 0 0 0 .233.582c.18.133.418.15.615.047L10 12.96l2.454 1.3a.576.576 0 0 0 .614-.047.603.603 0 0 0 .234-.582l-.453-2.782 1.97-1.978a.606.606 0 0 0 .146-.61.59.59 0 0 0-.47-.407l-2.734-.42-1.237-2.523a.585.585 0 0 0-.524-.33.585.585 0 0 0-.524.33L8.24 7.435l-2.733.42a.59.59 0 0 0-.47.406zm3.679.31a.587.587 0 0 0 .437-.324L10 6.516l.849 1.731a.587.587 0 0 0 .437.324l1.875.288-1.351 1.357a.605.605 0 0 0-.167.524l.31 1.91-1.683-.892a.577.577 0 0 0-.54 0l-1.683.891.31-1.909a.605.605 0 0 0-.166-.524L6.839 8.86l1.876-.288z" fill="#999"/><path d="M19.563 11.509c-.054-.015-1.046-.274-2.09-.066.092-.457.143-.918.153-1.377.587-.263 1.591-.835 2.065-1.82.678-1.408.027-3.088-.001-3.16a.583.583 0 0 0-.717-.346c-.066.021-1.455.472-2.239 1.549a7.908 7.908 0 0 0-.809-1.236c.247-.573.594-1.658.27-2.713C15.731.843 14.124.085 14.055.053a.58.58 0 0 0-.746.24c-.038.065-.931 1.626-.47 3.123.409 1.323 1.712 2.069 2.057 2.246 3.575 4.25.595 10.847-4.897 10.847-5.507 0-8.5-6.63-4.862-10.887.42-.223 1.612-.95 2.005-2.2.471-1.494-.413-3.06-.45-3.126a.58.58 0 0 0-.745-.244C5.88.083 4.268.83 3.796 2.325c-.337 1.07.021 2.178.265 2.744a7.97 7.97 0 0 0-.798 1.219c-.79-1.073-2.19-1.468-2.256-1.486a.583.583 0 0 0-.696.352c-.028.071-.68 1.751-.003 3.16.472.982 1.469 1.522 2.062 1.769.012.46.064.918.156 1.37-1.042-.211-2.031.04-2.086.055a.598.598 0 0 0-.427.705c.017.077.416 1.9 1.726 2.706.573.352 1.217.453 1.769.453.38 0 .715-.048.953-.095.268.293.557.562.863.807-.275.086-.549.21-.804.388C3.248 17.355 3 19.145 2.99 19.22c-.04.302.15.586.44.66.036.009.474.116 1.061.116.603 0 1.363-.113 2.006-.56.777-.54 1.171-1.417 1.363-2.036.68.2 1.399.304 2.139.304a7.6 7.6 0 0 0 2.11-.296c.195.618.6 1.515 1.398 2.056.629.425 1.362.536 1.955.536.616 0 1.08-.12 1.118-.13a.598.598 0 0 0 .432-.664c-.01-.075-.278-1.861-1.56-2.73a2.937 2.937 0 0 0-.801-.376c.32-.253.62-.533.899-.84.245.05.578.098.952.098.544 0 1.173-.101 1.742-.446 1.316-.797 1.724-2.619 1.741-2.696a.598.598 0 0 0-.423-.707zM5.84 18.448c-.475.33-1.094.373-1.542.348.142-.434.409-1.007.882-1.336.475-.33 1.095-.373 1.542-.349-.142.435-.409 1.008-.882 1.337zM4.912 2.69c.176-.559.639-.981 1.007-1.242.15.43.285 1.05.109 1.607-.176.558-.638.98-1.006 1.242-.15-.432-.285-1.051-.11-1.607zM1.36 7.788c-.255-.531-.206-1.17-.118-1.618.424.203.982.557 1.24 1.092.08.168.136.36.164.571-.088.318-.156.641-.202.969-.424-.229-.87-.569-1.084-1.014zm.984 6.107c-.493-.303-.806-.876-.986-1.32.464-.034 1.1-.005 1.59.297.002 0 .004.002.005.003a8.134 8.134 0 0 0 .667 1.3c-.404.015-.882-.038-1.276-.28zm13.359 4.902c-.448.03-1.07-.006-1.546-.33-.48-.323-.752-.892-.899-1.324.449-.03 1.07.006 1.547.33.478.323.751.892.898 1.324zm1.815-11.536c.26-.54.817-.915 1.244-1.137.085.45.128 1.076-.123 1.596-.216.45-.665.807-1.093 1.053a7.707 7.707 0 0 0-.195-.928c.028-.216.084-.412.167-.584zm-3.56-4.204c-.172-.56-.034-1.177.119-1.607.367.264.827.69 1 1.249.172.56.033 1.177-.12 1.607-.366-.264-.826-.69-.999-1.249zm3.689 10.828c-.391.236-.86.289-1.26.274a8.158 8.158 0 0 0 .663-1.303c.494-.299 1.127-.324 1.589-.287-.183.444-.5 1.017-.992 1.316z" fill="#999"/></svg>