<svg width="91" height="86" fill="none" xmlns="http://www.w3.org/2000/svg"><g opacity=".5" fill="#2988C9"><path d="M54.883 65.947c10.057-3.904 16.383-13.401 16.83-23.613l-1.93.75c-.702 9.168-6.507 17.559-15.578 21.08-9.072 3.522-18.907 1.204-25.553-5.113l-1.93.749c7.107 7.28 18.104 10.051 28.161 6.147z"/><path d="M73.91 41.433c-.127 11.42-7.05 22.195-18.256 26.545-11.207 4.35-23.48 1.075-31.167-7.359l-6.075 2.359s.016.041-.025.057c-.038 2.87 3.287 2.197 5.639 2.188 2.352-.01 2.772 2.207 3.122 4.735.35 2.528 2.131 3.121 4.566 1.843 2.418-1.32 3.39-.745 3.39-.745 2.568 1.667 2.346 4.798 4.547 5.133 2.2.335 3.385-2.741 5.892-3.334 2.507-.593 4.913 4.61 7.114 3.09 2.2-1.52 1.636-4.488 4.203-5.295 2.567-.806 5.367 2.96 7.072.632 1.721-2.285.51-5.097 2.177-6.41 1.667-1.314 5.579-.073 6.782-1.492 1.187-1.46-.473-4.336-.217-6.386s4.69-2.534 5.734-3.748c1.046-1.215.133-2.621-1.37-5.083-1.445-2.436-.008-3.612 1.337-4.657 1.386-1.062 1.97-2.002 1.97-2.002.667-.973.367-1.76-.334-2.487l-6.116 2.374.015.042zM5.011 56l2.053-.797-.79-2.073c-.157-.414-.366-.714-.583-.915-.26-.185-.553-.213-.963-.054a1.027 1.027 0 0 0-.638.676c-.07.312-.041.634.085.966l.22.58-1.682.654-.19-.498a4.161 4.161 0 0 1-.252-1.282c.006-.478.044-.873.196-1.218.151-.344.36-.663.64-.914.291-.351.588-.561.958-.705.37-.143.77-.204 1.187-.223.376-.003.783.077 1.083.246.34.153.616.38.906.647.25.284.474.625.616.998l2.414 6.342c.205.538.297 1.026.29 1.505a2.445 2.445 0 0 1-.309 1.166 2.682 2.682 0 0 1-.688.79 3.541 3.541 0 0 1-.964.565c-.369.144-.77.204-1.146.207-.391-.038-.742-.092-1.098-.287-.341-.153-.616-.38-.907-.647-.29-.268-.416-.6-.558-.973l-.284-.746 1.683-.653.22.58c.095.249.2.399.304.549a.64.64 0 0 0 .388.277c.155.035.31.07.448.064.14-.007.262-.054.386-.102.369-.143.609-.38.678-.692.07-.312.042-.634-.085-.966l-.915-2.404-2.053.797-.568-1.492-.082.032zm9.383-7.642c-.165.064-.288.112-.354.185a1.35 1.35 0 0 0-.209.32.568.568 0 0 0-.022.436c.007.14.07.306.108.53l.356 1.43c.047.125.07.307.117.431.006.14.038.223.044.364.006.14.038.223.029.322a3.94 3.94 0 0 1-.089.51c-.035.156-.085.27-.177.401l4.013 5.341-1.642.638-3.482-4.69-.945.366 2.005 5.264-1.683.653-4.498-11.813 1.683-.653 1.925 5.057.575-.223a1.64 1.64 0 0 0 .461-.275c.107-.089.158-.204.193-.36.05-.115.044-.255.038-.395-.007-.14-.054-.265-.076-.446l-.373-1.473c-.015-.042-.006-.14-.069-.307-.047-.124-.07-.306-.091-.487-.023-.182-.02-.421-.041-.603.003-.239.022-.437.082-.65.11-.329.278-.632.559-.883.24-.236.593-.421 1.004-.58l.6 1.575-.042.015zm8.559 4.529l.284.746c.142.373.186.736.19 1.116.002.38-.092.75-.244 1.093-.152.345-.36.663-.625.957-.266.293-.578.462-.948.605a4.301 4.301 0 0 1-1.032.258c-.36.045-.71-.01-1.077-.105a2.566 2.566 0 0 1-.988-.615c-.29-.268-.546-.692-.751-1.231l-2.478-6.507a3.365 3.365 0 0 1-.205-1.158c-.003-.38.091-.749.243-1.093.152-.345.376-.622.641-.915a3.353 3.353 0 0 1 1.03-.638c.78-.303 1.53-.309 2.229.039.34.153.615.38.921.689.25.283.49.666.632 1.039l.252.663-1.683.654-.22-.58c-.127-.332-.32-.59-.62-.76-.3-.169-.593-.197-.88-.086-.41.16-.65.396-.68.692-.028.297.017.66.174 1.074l2.32 6.093c.127.332.32.59.537.791.218.201.537.172.906.029.123-.048.247-.096.354-.185a.905.905 0 0 0 .29-.35c.05-.115.086-.272.105-.47.019-.197-.044-.363-.14-.611l-.22-.58 1.683-.654zm4.292-9.517c-.164.064-.287.112-.354.185a1.349 1.349 0 0 0-.208.319.568.568 0 0 0-.022.437c.006.14.07.306.107.53l.357 1.43c.047.125.07.307.117.431.006.14.037.223.044.363.006.14.038.224.028.322a3.938 3.938 0 0 1-.088.51 1.041 1.041 0 0 1-.177.402l4.012 5.341-1.724.67-3.482-4.691-.944.367 2.004 5.264-1.683.653-4.498-11.813 1.683-.653 1.926 5.056.575-.223a1.64 1.64 0 0 0 .46-.274c.108-.09.158-.204.193-.36.05-.115.044-.255.038-.395-.006-.14-.054-.265-.076-.447l-.372-1.473c-.016-.041-.006-.14-.07-.306-.047-.124-.069-.306-.091-.488-.022-.181-.019-.42-.04-.602.002-.24.021-.437.081-.65.11-.329.278-.632.56-.884.24-.236.593-.42 1.003-.58l.6 1.575.041-.016z"/><path d="M30.29 42.094l1.31 3.44.347.912c.158.415.306.928.454 1.441.148.513.256 1.043.363 1.572.107.53.142.991.104 1.387-.025.676-.237 1.234-.48 1.709-.284.49-.714.848-1.288 1.07l-.083.032-.647-1.699c.313-.169.528-.347.67-.593.142-.245.17-.542.199-.838-.013-.28-.025-.561-.07-.925-.085-.347-.145-.752-.287-1.125-.1-.39-.243-.762-.36-1.193l-.441-1.16-1.878-4.933 4.843-1.88 4.498 11.813-1.683.653-3.93-10.32-1.642.637zm9.488 2.124l-1.273.494 2.004 5.264-1.683.653-4.498-11.813 1.683-.653 1.926 5.057 1.272-.494-.868-2.28c-.173-.456-.265-.944-.227-1.339.022-.437.117-.806.31-1.167.151-.344.417-.637.657-.873.24-.236.593-.42.922-.548.697-.271 1.408-.262 2.156-.029.341.153.698.348 1.004.657.306.31.546.692.72 1.148l2.367 6.217c.19.498.265.944.243 1.38-.022.438-.117.807-.325 1.126-.193.36-.417.638-.698.89-.281.251-.594.42-.922.548a2.93 2.93 0 0 1-1.048.216 2.49 2.49 0 0 1-1.068-.204 2.865 2.865 0 0 1-.988-.615c-.306-.31-.546-.692-.735-1.19l-.931-2.445zm2.573 1.808c.157.414.391.657.675.784.284.128.603.1.89-.012.288-.112.544-.306.67-.593s.14-.625-.019-1.04L42.2 38.949c-.158-.414-.392-.657-.676-.784-.284-.128-.603-.099-.89.012-.287.112-.543.306-.67.593-.126.287-.139.625.02 1.04l2.367 6.217zm2.551-7.89c-.126-.332-.186-.737-.22-1.199a2.75 2.75 0 0 1 .205-1.317c.151-.344.36-.663.625-.956.266-.293.603-.52 1.014-.68.492-.19.934-.267 1.367-.244.433.022.815.16 1.13.37.357.194.648.462.929.829.28.366.48.765.637 1.18l.253.663c.079.207.132.471.13.71-.004.24-.032.536-.093.75-.085.27-.227.516-.492.81.334.012.644.082.871.184.243.144.445.303.581.536.177.217.313.45.423.74l.332.87c.189.498.322.97.372 1.473.035.463.012.9-.123 1.285a2.76 2.76 0 0 1-.635 1.055c-.306.31-.71.61-1.244.816-.41.16-.812.22-1.228.24a2.42 2.42 0 0 1-1.125-.23 2.49 2.49 0 0 1-.953-.772c-.281-.367-.505-.708-.663-1.122l-.174-.456 1.683-.654.174.456c.063.166.11.29.215.44.104.15.192.259.363.335.13.093.284.128.439.163.154.035.375-.003.58-.083.493-.191.758-.485.812-.839.038-.395-.038-.841-.243-1.38-.11-.29-.22-.58-.372-.855-.152-.274-.272-.465-.401-.557-.332-.252-.723-.29-1.175-.115l-.657.255-.568-1.493.698-.27c.205-.08.395-.201.528-.348.132-.146.208-.319.252-.574.02-.197-.019-.42-.072-.685-.095-.249-.133-.472-.212-.68-.079-.207-.158-.414-.262-.564-.12-.191-.224-.34-.353-.433-.13-.093-.3-.17-.496-.188a1.267 1.267 0 0 0-.622.098c-.205.08-.354.185-.486.332-.092.13-.184.261-.218.417a1.497 1.497 0 0 0-.016.578c.038.223.075.446.154.653l.095.249-1.683.653-.158-.414.082-.032zm14.14 4.596l-2.904-7.627-.041.016.703 8.529-1.642.637-4.498-11.813 1.683-.653 2.92 7.668.04-.016-.702-8.528 1.683-.654 4.498 11.813-1.724.67-.016-.042zm2.917-1.132l-4.482-11.771 2.463-.957c.533-.207 1.016-.3 1.449-.277.432.023.84.102 1.196.297.357.195.632.42.897.746.265.325.448.682.59 1.055l.158.415c.126.331.18.596.234.86.038.224.034.463.016.66-.095.37-.231.756-.563 1.123.49.048.872.185 1.178.494.347.294.619.76.856 1.38l.252.664c.394 1.036.448 1.92.176 2.69-.287.73-.998 1.34-2.065 1.754l-2.34.908-.015-.041zm-2.2-10.85l1.231 3.233.74-.287c.574-.223.896-.49.95-.844.094-.37.019-.816-.186-1.355-.206-.54-.47-.864-.786-1.075-.3-.169-.774-.175-1.308.032l-.657.255.016.041zm1.8 4.725l1.436 3.772.739-.287c.328-.127.6-.28.716-.468.174-.163.234-.376.294-.59a1.484 1.484 0 0 0-.073-.685c-.053-.265-.148-.514-.258-.804-.11-.29-.206-.539-.341-.771-.12-.192-.24-.383-.426-.501-.187-.118-.341-.153-.578-.156a2.114 2.114 0 0 0-.786.162l-.74.287.017.041zm7.048 3.543l-4.482-11.77 1.683-.654 1.925 5.056 2.053-.796-1.925-5.057 1.682-.654 4.498 11.813-1.642.638-2.004-5.264-2.052.797 2.004 5.264-1.724.669-.016-.042zM70.82 24.65l1.683-.653 1.847 4.85.616-.24c.574-.223 1.098-.33 1.531-.309.433.023.84.102 1.197.297.356.195.647.462.871.804.224.34.407.698.565 1.112l.252.663c.395 1.037.449 1.92.177 2.691-.287.73-.998 1.34-2.065 1.754l-2.135.828-4.498-11.812-.04.015zm4.082 5.647l1.436 3.772.575-.223c.329-.128.6-.28.717-.469.174-.162.234-.376.294-.59a1.484 1.484 0 0 0-.073-.685c-.054-.264-.148-.513-.259-.803-.11-.29-.205-.54-.325-.73-.12-.192-.224-.342-.41-.46-.187-.118-.357-.194-.594-.197a2.114 2.114 0 0 0-.786.162l-.575.223zm6.517 3.75l-4.482-11.771 1.683-.653 4.498 11.812-1.683.654-.016-.042zm6.853-2.661l-2.904-7.627-.041.017.703 8.528-1.683.653-4.498-11.813 1.683-.653 2.92 7.668.04-.016-.702-8.528 1.683-.654 4.498 11.813-1.683.654-.016-.042zm-7.41-13.395c.032.083.105.15.137.233.031.083.12.192.233.243.073.067.228.102.341.153.155.035.32-.029.524-.109.206-.08.354-.184.461-.274a.757.757 0 0 0 .152-.344c.01-.099.003-.24.013-.338-.032-.083-.022-.182-.054-.265l1.396-.542c.17.696.154 1.273-.105 1.706-.259.434-.73.807-1.468 1.094-.739.286-1.336.328-1.816.181-.48-.147-.874-.564-1.209-1.196l1.396-.541zM51.366 55.847l1.323 1.247 1.794-.364-.733 1.665.877 1.562-1.761-.173-1.235 1.336-.385-1.753-1.648-.74 1.572-.944.196-1.836zm-7.678 1.124l1.349 1.19 1.752-.348-.733 1.665.878 1.562-1.762-.172-1.235 1.335-.385-1.753-1.607-.756 1.532-.928.212-1.795zm13.917-5.402l1.307 1.205 1.793-.363-.733 1.664.878 1.562-1.762-.172-1.235 1.336-.385-1.754-1.648-.74 1.573-.943.212-1.795zm20.059-33.193L5.99 46.2a.88.88 0 0 1-1.136-.51.893.893 0 0 1 .505-1.148l71.713-27.84a.88.88 0 0 1 1.136.51c.174.457-.095.99-.546 1.164zm7.48 19.647L13.472 65.847a.88.88 0 0 1-1.137-.51.893.893 0 0 1 .505-1.148l71.713-27.84a.88.88 0 0 1 1.137.51c.173.456-.095.989-.547 1.164zM41.04 3.797c-.51.198-.759.776-.559 1.3.093.245.275.416.478.538-1.052 1.853-2.4 3.339-4.186 4.393-2.949-1.383-4.382-2.993-5.026-4.068a.99.99 0 0 0 .246-1.098.986.986 0 0 0-1.278-.587c-.51.198-.76.776-.56 1.3.147.385.518.642.912.65.208 1.163.248 3.113-.797 5.806-.083.193-.153.42-.235.613-2.026.425-4.013.234-6.024-.43.07-.228.092-.477 0-.722a.986.986 0 0 0-1.28-.587c-.51.198-.758.776-.559 1.3.2.525.768.786 1.279.588.102-.04.157-.101.259-.141 1.57 1.558 2.933 3.395 4.084 5.597 1.228-1.801 3.346-3.626 6.374-4.802 3.029-1.176 5.812-1.253 7.919-.747-.606-2.413-.813-4.7-.681-6.918a.784.784 0 0 0 .285-.07c.51-.199.76-.777.56-1.301-.166-.538-.734-.799-1.21-.614z"/><path d="M28.772 19.672c-.099 1.545.393 2.535.393 2.535.85 2.236 3.249 3.422 5.376 2.596 2.028-.787 3.042-3.135 2.33-5.303 1.07 3.21.255 6.58-1.879 8.794l4.555-1.768 4.554-1.768c-3.02-.213-5.86-2.164-7.23-5.258.911 2.09 3.222 3.148 5.25 2.361 2.094-.813 3.133-3.293 2.268-5.564 0 0-.325-1.055-1.39-2.148-2.228-.642-5.02-.658-7.978.49-2.959 1.15-5.02 3.05-6.25 5.033zm43.351-1.857c-2.194-2.05-5.967.414-7.214-1.624-1.247-2.037-.672-4.116-1.714-5.614-1.058-1.54-2.668-.82-5.181.251-2.555 1.087-2.943.19-5.033-2.947-2.049-3.153-2.829-2.232-5.696.261-.389.341-.767.584-1.105.81.107.53.198 1.017.306 1.546a12.29 12.29 0 0 1 1.566 2.009 28.433 28.433 0 0 1 18.457 9.248l6.24-2.422c-.026-.561-.174-1.075-.626-1.518zm-48.32 4.63a10.556 10.556 0 0 1-.304-3.023 25.995 25.995 0 0 0-.934-1.588c-.973.045-2.059.038-3.262.22-3.454.58-.869 5.142-1.087 6.797-.218 1.655-2.952 2.764-4.462 3.254-1.509.491-1.727 1.527-1.727 1.527-.306 2.784 2.49 4.314 2.415 6.342-.12 2.901-4.661 3.475-4.301 5.904.097.628.369 1.093.764 1.511l6.075-2.358a29.01 29.01 0 0 1 6.822-18.586zm2.17 3.863c-.452-.443-.853-1.001-1.213-1.575-3.407 4.415-5.407 9.806-5.587 15.395l1.929-.749a24.962 24.962 0 0 1 4.87-13.07z"/><path d="M48.944 14.869c.154.654.268 1.323.243 1.999 4.922.8 9.506 3.065 13.102 6.57l1.93-.75a25.773 25.773 0 0 0-15.275-7.82z"/></g></svg>