<svg width="30" height="30" fill="none" xmlns="http://www.w3.org/2000/svg">
  <g clip-path="url(#bitcoin-color-30px__clip0)">
    <path d="M28 0H2a2 2 0 00-2 2v26a2 2 0 002 2h26a2 2 0 002-2V2a2 2 0 00-2-2z" fill="#4D4D4D"/>
    <path d="M24.52 17.373c-1.31 5.258-6.636 8.458-11.895 7.147-5.257-1.311-8.457-6.637-7.145-11.895 1.31-5.258 6.636-8.459 11.893-7.148 5.258 1.311 8.458 6.638 7.147 11.896z" fill="#FFB546"/>
    <path d="M19.327 13.606c.196-1.306-.799-2.008-2.158-2.476l.44-1.77-1.076-.268-.43 1.723c-.283-.07-.574-.137-.863-.203l.433-1.734-1.076-.269-.442 1.769a36.29 36.29 0 01-.687-.162v-.005l-1.484-.371-.287 1.15s.8.183.783.195c.436.108.514.397.501.626l-.502 2.015c.03.008.069.02.112.036l-.114-.028-.704 2.823c-.054.133-.189.332-.494.256.011.016-.783-.195-.783-.195l-.534 1.233 1.401.349c.261.065.517.134.768.198l-.446 1.79 1.076.268.441-1.77c.294.08.58.153.859.222l-.44 1.762 1.077.268.445-1.785c1.837.347 3.217.207 3.799-1.454.468-1.337-.024-2.109-.99-2.612.704-.162 1.234-.625 1.375-1.58zm-2.46 3.45c-.333 1.338-2.585.615-3.315.433l.592-2.37c.73.182 3.07.543 2.723 1.937zm.333-3.47c-.304 1.217-2.178.6-2.786.448l.536-2.15c.608.151 2.566.434 2.25 1.703z" fill="#fff"/>
  </g>
  <defs>
    <clipPath id="bitcoin-color-30px__clip0">
      <path fill="#fff" d="M0 0h30v30H0z"/>
    </clipPath>
  </defs>
</svg>
