<svg fill="none" height="200" viewBox="0 0 200 200" width="200" xmlns="http://www.w3.org/2000/svg" xmlns:xlink="http://www.w3.org/1999/xlink"><radialGradient id="a" cx="0" cy="0" gradientTransform="matrix(200.00020331 200.00020331 -200.00020331 200.00020331 0 0)" gradientUnits="userSpaceOnUse" r="1"><stop offset="0" stop-color="#4f4f4f"/><stop offset="1"/></radialGradient><linearGradient id="b"><stop offset=".00120812" stop-color="#9e9e9e"/><stop offset="1" stop-color="#fff"/></linearGradient><linearGradient id="c" gradientUnits="userSpaceOnUse" x1="38.5438" x2="38.5438" xlink:href="#b" y1="130.13" y2="113.535"/><linearGradient id="d" gradientUnits="userSpaceOnUse" x1="53.5502" x2="53.5502" xlink:href="#b" y1="130.048" y2="113.691"/><linearGradient id="e" gradientUnits="userSpaceOnUse" x1="69.0331" x2="69.0331" xlink:href="#b" y1="130.129" y2="113.613"/><linearGradient id="f" gradientUnits="userSpaceOnUse" x1="85.51" x2="85.51" xlink:href="#b" y1="130.129" y2="113.613"/><linearGradient id="g" gradientUnits="userSpaceOnUse" x1="101.032" x2="101.032" xlink:href="#b" y1="130.048" y2="113.691"/><linearGradient id="h" gradientUnits="userSpaceOnUse" x1="116.515" x2="116.515" xlink:href="#b" y1="130.13" y2="113.535"/><linearGradient id="i" gradientUnits="userSpaceOnUse" x1="132.079" x2="132.079" xlink:href="#b" y1="130.134" y2="113.777"/><linearGradient id="j" gradientUnits="userSpaceOnUse" x1="146.767" x2="146.767" xlink:href="#b" y1="130.129" y2="113.613"/><linearGradient id="k" gradientUnits="userSpaceOnUse" x1="161.535" x2="161.535" xlink:href="#b" y1="130.13" y2="113.535"/><linearGradient id="l" gradientUnits="userSpaceOnUse" x1="99.9969" x2="99.9969" xlink:href="#b" y1="108.853" y2="45.332"/><path d="m200 0h-200v200h200z" fill="url(#a)"/><path d="m46.802 128.542c0 .397-.1588.794-.4764 1.111-.3176.318-.7146.477-1.191.477-.6352 0-1.0322-.318-1.3499-.874l-1.7468-3.573h-6.9872l-1.7469 3.573c-.3176.556-.7146.874-1.3498.874-.397 0-.794-.159-1.191-.477-.3176-.317-.4764-.635-.4764-1.111 0-.238.0794-.477.1588-.794l6.5109-13.022c.397-.794.8734-1.191 1.5086-1.191s1.191.397 1.588 1.191l6.5109 13.022c.1588.317.2382.556.2382.794zm-6.4315-6.035-1.9056-3.731-1.9056 3.731z" fill="url(#c)"/><path d="m60.7761 126.554c0 .556-.397 1.112-1.191 1.747-1.5086 1.191-3.2554 1.747-5.0816 1.747-2.3026 0-4.2083-.794-5.7963-2.382s-2.382-3.573-2.382-5.796c0-2.303.794-4.209 2.382-5.797s3.5731-2.382 5.7963-2.382c1.9056 0 3.573.556 5.0816 1.747.794.635 1.191 1.191 1.191 1.747 0 .397-.1588.794-.4764 1.112-.3176.317-.7146.476-1.1116.476-.3176 0-.7146-.159-1.1116-.476-.0794-.08-.2382-.239-.4764-.397-.8734-.715-1.9056-1.033-3.0966-1.033-1.4292 0-2.6203.477-3.5731 1.509s-1.5086 2.223-1.5086 3.573c0 1.429.4764 2.62 1.5086 3.573s2.2233 1.509 3.5731 1.509c1.191 0 2.2232-.318 3.0966-1.032.0794-.08.2382-.239.4764-.397.397-.318.7146-.477 1.1116-.477s.794.159 1.1116.477c.3176.317.4764.555.4764.952z" fill="url(#d)"/><path d="m77.2912 121.871c0 2.303-.794 4.208-2.382 5.876-1.588 1.588-3.573 2.382-5.8756 2.382-2.3027 0-4.2083-.794-5.8757-2.382-1.588-1.588-2.382-3.573-2.382-5.876s.794-4.208 2.382-5.876c1.588-1.588 3.573-2.382 5.8757-2.382 2.3026 0 4.2082.794 5.8756 2.382s2.382 3.573 2.382 5.876zm-3.176 0c0-1.429-.4764-2.62-1.5086-3.573-.9528-1.032-2.2232-1.509-3.573-1.509-1.3499 0-2.6203.477-3.5731 1.509s-1.5086 2.223-1.5086 3.573c0 1.429.4764 2.62 1.5086 3.573s2.2232 1.509 3.5731 1.509c1.3498 0 2.6202-.477 3.573-1.509 1.0322-.953 1.5086-2.144 1.5086-3.573z" fill="url(#e)"/><path d="m92.2198 128.541c0 .476-.1588.794-.4764 1.111-.3176.318-.7146.477-1.1116.477-.4764 0-.9528-.318-1.3498-.874l-7.3843-9.528v8.734c0 .477-.1588.874-.4764 1.112-.3176.317-.6352.476-1.1116.476s-.8734-.159-1.1116-.476c-.3176-.318-.4764-.635-.4764-1.112v-13.26c0-.476.1588-.794.4764-1.111.3176-.318.7146-.477 1.191-.477s.9528.238 1.3498.794l7.3843 9.528v-8.734c0-.476.1588-.873.4764-1.111.3176-.318.6352-.477 1.1116-.477s.8734.159 1.1116.477c.2382.317.4764.635.4764 1.111v13.34z" fill="url(#f)"/><path d="m108.258 126.554c0 .556-.397 1.112-1.191 1.747-1.509 1.191-3.255 1.747-5.082 1.747-2.3022 0-4.2078-.794-5.7958-2.382-1.5881-1.588-2.3821-3.573-2.3821-5.796 0-2.303.794-4.209 2.3821-5.797 1.588-1.588 3.573-2.382 5.7958-2.382 1.906 0 3.573.556 5.082 1.747.794.635 1.191 1.191 1.191 1.747 0 .397-.159.794-.476 1.112-.318.317-.715.476-1.112.476-.318 0-.715-.159-1.112-.476-.079-.08-.238-.239-.476-.397-.873-.715-1.906-1.033-3.097-1.033-1.429 0-2.6198.477-3.5726 1.509-.9528.953-1.5086 2.223-1.5086 3.573 0 1.429.4764 2.62 1.5086 3.573.9528.953 2.2236 1.509 3.5726 1.509 1.191 0 2.224-.318 3.097-1.032.079-.08.238-.239.476-.397.397-.318.715-.477 1.112-.477s.794.159 1.112.477c.317.317.476.555.476.952z" fill="url(#g)"/><path d="m124.773 128.542c0 .397-.159.794-.476 1.111-.318.318-.715.477-1.191.477-.635 0-1.032-.318-1.35-.874l-1.747-3.573h-6.908l-1.826 3.573c-.318.556-.715.874-1.35.874-.397 0-.794-.159-1.191-.477-.317-.317-.476-.635-.476-1.111 0-.238.079-.477.159-.794l6.51-13.022c.397-.794.874-1.191 1.509-1.191s1.191.397 1.588 1.191l6.511 13.022c.159.317.238.556.238.794zm-6.431-6.035-1.906-3.731-1.906 3.731z" fill="url(#h)"/><path d="m139.304 117.112c0 .397-.158.794-.476 1.112-.318.317-.715.476-1.112.476-.317 0-.714-.159-1.111-.476-.08-.08-.238-.238-.477-.397-.873-.715-1.905-1.032-3.096-1.032-1.429 0-2.62.476-3.573 1.508s-1.509 2.223-1.509 3.573c0 1.429.477 2.62 1.509 3.573s2.223 1.509 3.573 1.509c1.191 0 2.223-.397 3.096-1.112v-3.97c0-.476.159-.873.477-1.111.317-.318.635-.477 1.111-.477.477 0 .874.159 1.112.477.238.317.476.635.476 1.111v4.764c0 .556-.397 1.112-1.191 1.747-1.508 1.191-3.255 1.747-5.081 1.747-2.303 0-4.208-.794-5.796-2.382s-2.382-3.573-2.382-5.796c0-2.303.794-4.209 2.382-5.797s3.573-2.382 5.796-2.382c1.905 0 3.573.556 5.081 1.747.794.477 1.191 1.112 1.191 1.588z" fill="url(#i)"/><path d="m152.801 124.094c0 1.668-.555 3.097-1.746 4.288s-2.621 1.747-4.288 1.747c-1.668 0-3.097-.556-4.288-1.747s-1.747-2.62-1.747-4.288v-8.893c0-.476.159-.873.477-1.111.317-.239.635-.477 1.111-.477.477 0 .874.159 1.112.477.238.317.476.635.476 1.111v8.893c0 .794.239 1.509.794 2.065.556.555 1.271.794 2.065.794s1.508-.239 2.064-.794c.556-.556.794-1.271.794-2.065v-8.893c0-.476.159-.873.477-1.111.317-.239.635-.477 1.111-.477.477 0 .874.159 1.112.477.238.317.476.635.476 1.111z" fill="url(#j)"/><path d="m169.793 128.542c0 .397-.159.794-.477 1.111-.317.318-.714.477-1.191.477-.635 0-1.032-.318-1.35-.874l-1.746-3.573h-6.908l-1.826 3.573c-.318.556-.715.874-1.35.874-.397 0-.794-.159-1.191-.477-.318-.317-.477-.635-.477-1.111 0-.238.08-.477.159-.794l6.511-13.022c.397-.794.873-1.191 1.509-1.191.635 0 1.191.397 1.588 1.191l6.51 13.022c.159.317.239.556.239.794zm-6.432-6.035-1.905-3.731-1.906 3.731z" fill="url(#k)"/><g fill="#fff"><path d="m75.2271 141.789c0-.397.3176-.715.7146-.715h3.8906c2.779 0 4.6052 1.429 4.6052 3.891 0 2.62-2.2232 3.97-4.764 3.97h-2.9378v3.732c0 .397-.3176.714-.7146.714s-.7146-.317-.7146-.714v-10.878zm4.367 5.875c2.0644 0 3.3348-1.111 3.3348-2.699 0-1.747-1.2704-2.62-3.2554-2.62h-3.0966v5.399h3.0172z"/><path d="m84.9927 147.192c0-3.414 2.5408-6.352 6.2726-6.352 3.7319 0 6.1933 2.938 6.1933 6.273 0 3.334-2.5408 6.352-6.2727 6.352-3.7318 0-6.1932-2.859-6.1932-6.273zm11.0367 0c0-2.779-2.0644-5.082-4.8435-5.082-2.779 0-4.764 2.223-4.764 5.003 0 2.779 2.0644 5.081 4.8434 5.081 2.7791 0 4.7641-2.223 4.7641-5.002z"/><path d="m98.9686 141.633c0-.397.3176-.715.7146-.715.3968 0 .7148.318.7148.715v6.669l6.987-7.146c.159-.159.318-.238.556-.238.397 0 .635.318.635.715 0 .158-.079.317-.238.476l-4.367 4.288 4.605 5.716c.159.159.159.318.159.477 0 .397-.318.714-.715.714-.238 0-.397-.158-.556-.317l-4.525-5.638-2.621 2.621v2.62c0 .397-.317.714-.7142.714-.397 0-.7146-.317-.7146-.714v-10.957z"/><path d="m109.846 152.587v-10.798c0-.397.318-.715.715-.715h7.622c.318 0 .635.318.635.635 0 .318-.317.636-.635.636h-6.908v4.208h6.114c.318 0 .635.317.635.635s-.317.635-.635.635h-6.114v4.288h6.988c.317 0 .635.318.635.635 0 .318-.318.635-.635.635h-7.702c-.397-.079-.715-.397-.715-.794z"/><path d="m119.929 141.789c0-.397.318-.715.715-.715h4.605c1.509 0 2.7.477 3.494 1.191.556.556.953 1.429.953 2.382 0 1.985-1.35 3.176-3.256 3.573l3.017 3.891c.159.159.239.318.239.476 0 .397-.318.715-.715.715-.318 0-.477-.159-.635-.397l-3.415-4.447h-3.493v4.129c0 .397-.318.715-.715.715s-.714-.318-.714-.715v-10.798zm5.082 5.478c1.826 0 3.176-.952 3.176-2.54 0-1.509-1.191-2.382-3.097-2.382h-3.732v4.922z"/></g><path d="m54.8999 108.853 45.2581-63.521 44.941 63.521-45.0995-44.2266z" fill="url(#l)"/><path d="m100.055 78.8158-12.9691 12.9694 12.9691 12.9688 12.97-12.9688z" fill="#dc2e33"/><path d="m169.873 136.001h-139.7455c-.4764 0-.794-.266-.794-.666s.3176-.667.794-.667h139.7455c.476 0 .794.267.794.667s-.318.666-.794.666z" fill="#fff"/></svg>