<svg width="20" height="20" fill="none" xmlns="http://www.w3.org/2000/svg"><g opacity=".7" fill="#999"><path d="M2.887 2.474h1.412v1.237H2.887V2.474zm7.745 6.67c.09-1.425-2.63-3.89-3.729-4.732C5.8 5.26 3.085 7.717 3.174 9.144c-.026 1.35 1.568 2.367 3.023 1.934v.798H7.61v-.8c1.451.434 3.049-.568 3.024-1.932zm-1.886.7c-.438.206-.986.061-1.22-.322l-.624-1.016-.621 1.016c-.156.256-.459.415-.79.416-.5 0-.905-.357-.905-.794 0-.683 1.232-2.049 2.317-3.02 1.086.971 2.318 2.337 2.318 3.022 0 .292-.181.56-.475.698zm.774 3.104h1.411v1.238H9.52v-1.238z"/><path d="M13.804 3.34V0H0v16.66h6.196V20H20V3.34h-6.196zm0 7.047a.945.945 0 0 1 .705-.304c.5 0 .906.357.906.794 0 .537-.76 1.494-1.611 2.35v-2.84zM1.412 1.237h10.98v14.186H1.412V1.237zm17.176 17.526H7.608V16.66h6.196v-1.634c1.16-.967 3.117-3 3.023-4.149.027-1.349-1.567-2.366-3.023-1.933V4.577h4.784v14.186z"/><path d="M15.719 16.289h1.412v1.237h-1.412v-1.237z"/></g></svg>