<svg width="20" height="20" viewBox="0 0 20 20" xmlns="http://www.w3.org/2000/svg">
<path d="M19.4893 10.7363C19.8067 10.3577 20 9.85796 20 9.31116C20 8.13254 19.1027 7.1734 18 7.1734H14.1182C14.5027 5.92637 14.6667 4.27173 14.6667 3.56247V2.85036C14.6667 1.27886 13.4702 0 12 0H11.3333C11.0276 0 10.7609 0.222328 10.6867 0.539667L10.3236 2.09264C9.81467 4.26746 8.19911 6.66698 6.52711 7.10309C6.23422 6.31069 5.51111 5.74822 4.66667 5.74822H0.666667C0.298667 5.74822 0 6.06746 0 6.46081V19.2874C0 19.6808 0.298667 20 0.666667 20H4.66667C5.46178 20 6.14978 19.5017 6.472 18.7815L8.76267 19.5976C9.51156 19.8646 10.292 20 11.0818 20H16.6667C17.7693 20 18.6667 19.0409 18.6667 17.8622C18.6667 17.5843 18.6169 17.3183 18.5262 17.0746C19.3742 16.8271 20 15.9962 20 15.0119C20 14.4651 19.8067 13.9653 19.4893 13.5867C19.8067 13.2081 20 12.7083 20 12.1615C20 11.6147 19.8067 11.115 19.4893 10.7363ZM5.33333 17.8622C5.33333 18.2551 5.03422 18.5748 4.66667 18.5748H1.33333V7.1734H4.66667C5.03422 7.1734 5.33333 7.49311 5.33333 7.88599V17.8622ZM16.6667 11.4489H18C18.3676 11.4489 18.6667 11.7686 18.6667 12.1615C18.6667 12.5544 18.3676 12.8741 18 12.8741H16.6667C16.2987 12.8741 16 13.1933 16 13.5867C16 13.98 16.2987 14.2993 16.6667 14.2993H18C18.3676 14.2993 18.6667 14.619 18.6667 15.0119C18.6667 15.4048 18.3676 15.7245 18 15.7245H16.6667C16.2987 15.7245 16 16.0437 16 16.4371C16 16.8304 16.2987 17.1496 16.6667 17.1496C17.0342 17.1496 17.3333 17.4694 17.3333 17.8622C17.3333 18.2551 17.0342 18.5748 16.6667 18.5748H11.0818C10.4356 18.5748 9.79689 18.4641 9.184 18.2456L6.66667 17.3487V8.53112C7.71244 8.31876 8.736 7.61093 9.66 6.45226C10.5622 5.32067 11.2938 3.82043 11.6169 2.43848L11.8538 1.42518H12C12.7351 1.42518 13.3333 2.06461 13.3333 2.85036V3.56247C13.3333 4.51924 13.0533 6.35439 12.6951 7.1734H11.3333C10.9653 7.1734 10.6667 7.49264 10.6667 7.88599C10.6667 8.27933 10.9653 8.59857 11.3333 8.59857H18C18.3676 8.59857 18.6667 8.91829 18.6667 9.31116C18.6667 9.70404 18.3676 10.0238 18 10.0238H16.6667C16.2987 10.0238 16 10.343 16 10.7363C16 11.1297 16.2987 11.4489 16.6667 11.4489Z" />
<path d="M3.33317 17.1478C3.70136 17.1478 3.99984 16.8288 3.99984 16.4352C3.99984 16.0417 3.70136 15.7227 3.33317 15.7227C2.96498 15.7227 2.6665 16.0417 2.6665 16.4352C2.6665 16.8288 2.96498 17.1478 3.33317 17.1478Z" />
</svg>
