<svg width="200" height="200" viewBox="0 0 200 200" fill="none" xmlns="http://www.w3.org/2000/svg">
<g clip-path="url(#clip0)">
<path d="M100 200C44.8 200 0 155.2 0 100C0 44.8 44.8 0 100 0C155.2 0 200 44.8 200 100C200 155.2 155.2 200 100 200Z" fill="white"/>
<path d="M100 0C88.4 0 76.4 2.1 65.7 6L70.2 18.2C79.7 14.8 89.7 13 100 13V0ZM35.6 23.5C26.7 31 19.1 40.1 13.3 50.2L24.6 56.7C29.7 47.9 36.2 40 44 33.4L35.6 23.5ZM1.4 83C0.5 88.6 0 94.3 0 100C0 106 0.5 112 1.6 117.8L14.4 115.5C12.6 105.6 12.6 95.1 14.3 85.2L1.4 83ZM24.9 143.9L13.7 150.5C19.6 160.6 27.3 169.6 36.3 177L44.6 167C36.7 160.5 30 152.7 24.9 143.9ZM70.8 182L66.4 194.2C77.4 198.1 89.1 200.1 100.7 200L100.6 187C90.5 187.1 80.4 185.4 70.8 182ZM156.6 166.1C148.8 172.8 140.1 178 130.5 181.5L135.1 193.7C146.1 189.6 156.2 183.6 165.1 176L156.6 166.1ZM185.9 114.1C184.3 124.2 180.9 133.8 175.9 142.7L187.2 149.1C192.8 139.1 196.8 128 198.7 116.2L185.9 114.1ZM185.9 48.8L174.7 55.5C179.9 64.3 183.6 73.8 185.4 83.8L198.2 81.4C196.1 69.7 191.9 58.9 185.9 48.8ZM132.7 5.5L128.4 17.8C138 21.1 146.9 26.1 154.8 32.6L163 22.5C154.1 15.1 143.8 9.3 132.7 5.5Z" fill="#3E7081"/>
<path d="M100 188C51.4483 188 12 148.552 12 100C12 51.4483 51.4483 12 100 12C148.552 12 188 51.4483 188 100C188 148.552 148.552 188 100 188Z" fill="url(#paint0_radial)"/>
<path d="M101.221 37.98C99.531 40.125 96.736 44.22 94.006 48.445C88.481 57.22 86.856 61.575 86.856 67.815C86.856 77.76 92.511 85.235 99.986 85.235C107.461 85.235 113.181 78.085 113.181 68.66C113.181 60.08 107.916 53.19 101.416 53.19C101.156 53.19 100.831 53.19 100.376 53.255C103.171 48.12 107.201 42.205 110.776 37.98H101.221ZM99.986 61.315C102.326 61.315 103.626 63.98 103.626 68.79C103.626 73.6 102.326 76.33 100.051 76.33C97.711 76.33 96.411 73.665 96.411 68.66C96.411 63.98 97.711 61.315 99.986 61.315ZM44.1196 144H53.6746L56.2746 126.645L64.2696 145.755L72.2646 126.645L75.5146 144H85.0696L75.0596 96.355L64.5946 124.045L54.1296 96.355L44.1196 144ZM122.089 144L103.694 96.355L84.9091 144H94.8541L97.2591 136.85H109.154L111.624 144H122.089ZM107.009 129.245H99.6641L103.304 118.195L107.009 129.245ZM131.043 144L138.648 128.985L146.253 144H156.653L143.718 119.43L155.353 97.98H145.343L139.103 110.525L132.798 97.98H122.398L133.903 119.95L121.098 144H131.043Z" fill="white"/>
</g>
<defs>
<radialGradient id="paint0_radial" cx="0" cy="0" r="1" gradientUnits="userSpaceOnUse" gradientTransform="translate(12 12) rotate(45) scale(248.902)">
<stop stop-color="#489BB7"/>
<stop offset="1" stop-color="#356272"/>
</radialGradient>
<clipPath id="clip0">
<rect width="200" height="200" fill="white"/>
</clipPath>
</defs>
</svg>
