<svg width="200" height="200" fill="none" xmlns="http://www.w3.org/2000/svg"><path d="M200 0H0v200h200V0z" fill="url(#paint0_radial)"/><path d="M114.489 150.191h-2.688c-3.606 0-6.557-3.01-6.557-6.765V95.601c0-3.721 2.918-6.765 6.557-6.765h2.688c3.606 0 6.557 3.01 6.557 6.765v47.859c0 3.721-2.951 6.731-6.557 6.731zm.785-67.04h-3.77c-4.491 0-8.13-3.754-8.13-8.388v-3.855c0-4.634 3.639-8.389 8.13-8.389h3.77c4.491 0 8.13 3.755 8.13 8.389v3.855c0 4.634-3.639 8.389-8.13 8.389z" fill="#ED0000"/><path d="M154.835 61.264c-12.491-18.636-47.142-16.235-77.434 5.378-30.29 21.58-44.715 54.185-32.225 72.821 9.77 14.612 33.176 16.269 57.436 5.919V125.19c-22.948 13.563-45.667 15.863-53.568 4.397-9.048-13.09 4.655-39.167 30.62-58.277 25.931-19.077 54.321-23.947 63.369-10.892 7.638 11.027-.918 31.32-19.375 48.875v24.014c29.538-21.579 43.503-53.643 31.177-72.043z" fill="#000"/><defs><radialGradient id="paint0_radial" cx="0" cy="0" r="1" gradientUnits="userSpaceOnUse" gradientTransform="rotate(45) scale(282.843)"><stop offset=".25" stop-color="#E3E3E3"/><stop offset="1" stop-color="#9A9A9A"/></radialGradient></defs></svg>