<svg width="30" height="30" fill="none" xmlns="http://www.w3.org/2000/svg">
  <g clip-path="url(#skrill-color-30px__clip0)">
    <path d="M28 0H2a2 2 0 00-2 2v26a2 2 0 002 2h26a2 2 0 002-2V2a2 2 0 00-2-2z" fill="#792A60"/>
    <path fill-rule="evenodd" clip-rule="evenodd" d="M20.31 12.861a.997.997 0 00.998-.995.997.997 0 00-.998-.995.997.997 0 00-.998.995c0 .55.447.995.997.995zm-7.65.537c-.045.113-.37 1.027-1.154 1.973v-4.047l-2.09.412v7.335h2.09v-2.267c.606.905.905 2.267.905 2.267h2.503c-.247-1.026-1.33-2.918-1.33-2.918a9.128 9.128 0 001.467-2.755h-2.39zm5.495-.076c-1.872.06-2.822.897-2.822 2.561v3.188h2.042v-2.6c0-.996.131-1.423 1.318-1.464v-1.656c-.2-.042-.538-.03-.538-.03zm-12.244.884c-.256-.017-.85-.055-.85-.587 0-.641.854-.641 1.174-.641.563 0 1.292.165 1.813.32 0 0 .29.103.537.207l.023.006v-1.757l-.032-.01c-.614-.214-1.328-.42-2.653-.42-2.283 0-3.092 1.326-3.092 2.462 0 .654.282 2.195 2.897 2.373.221.014.81.047.81.597 0 .454-.482.721-1.292.721a6.376 6.376 0 01-2.272-.44v1.81c.783.205 1.666.308 2.7.308 2.233 0 3.233-1.255 3.233-2.498 0-1.41-1.12-2.325-2.996-2.45zm13.386 4.865h2.026v-5.666h-2.026v5.666zm5.84-7.386v7.386h2.027v-7.747l-2.026.361zm-2.956 0l2.024-.361v7.747h-2.024v-7.386z" fill="#fff"/>
  </g>
  <defs>
    <clipPath id="skrill-color-30px__clip0">
      <path fill="#fff" d="M0 0h30v30H0z"/>
    </clipPath>
  </defs>
</svg>
