<svg width="200" height="200" fill="none" xmlns="http://www.w3.org/2000/svg"><path d="M200 0H0v200h200V0z" fill="#681743"/><path d="M116.457 163.435c-9.845 2.414-20.066 1.244-30.099 1.508v-15.614c8.023.245 24.575-3.451 26.416-12.579.639-4.827-.864-8.844-4.997-11.692-8.962-5.563-19.653-7.694-28.107-14.256-20.254-12.843-21.7-40.96-1.635-54.67 2.593 9.882 9.732 14.22 19.145 15.992-10.521 5.902-8.755 15.124 1.24 20.253 10.897 5.564 22.997 9.184 32.109 17.727 19.671 17.349 12.137 48.333-14.072 53.331zm27.487-97.836c-5.299 1.603-6.238-5.582-13.659-3.64-1.936.472-3.1-.207-4.134-1.829-.92-1.433-2.01-2.81-3.231-3.998-2.274-2.206-5.543-2.13-7.872-.019-1.485 1.415-2.574 3.112-4.341.943-8.323-10.164-12.888 3.093-19.746-4.695-2.536 12.238 7.703 17.085 18.112 17.311 2.668.472 5.016 1.64 6.519 3.998.94 1.528 1.616 4.073-.582 4.884-1.071.566-2.612 0-2.668-1.282 0-.245.432-.471.733-.754.469 2.282 2.931 1.188 2.536-.585-1.259-3.338-5.035-1.17-5.768 1.358-.413.943-.92 1.622-2.16 1.395.601 1.207 1.597 1.434 2.668 1.528-.827 2.282-7.365 1.603-5.656-1.622.376.132.733.528 1.109.472.169-2.395-3.344-1.415-2.875.584.94 3.998 6.369 4.847 9.826 4.413 2.293-.302 4.246-1.282 5.336-3.508.019-.056.15-.056.301-.094l-.113 2.357c2.217 1.094 4.453 1.735 7.121.208-2.555-.359-3.175-1.98-3.213-4.055-.658-8.693-8.586-14.256-16.928-14.068-4.19-.019-7.929-2.093-10.202-5.62.056-.075.113-.15.188-.226 2.254.622 4.246-.038 6.219-1.056 3.476-2.338 5.016 1.584 7.609 3.262 3.044 1.867 5.298 1.717 7.139-.886 1.654-2.395 4.81-1.81 5.393 1.056 1.747 6.525 6.2 5.413 11.535 5.224 2.931.264 3.382 3.206 1.766 5.224 3.796-1 6.764-2.904 9.038-6.28zM87.091 135.09c-.658-3.112-2.48-5.375-5.599-6.223-3.682-1.037-6.125 1.772-7.966 4.582-1.015-4.808-8.23-3.451-7.74 1.207.225 1.264 1.089 1.301 2.066.717.15-.076.094-.509.15-.792-.263 0-.545-.038-.808 0-.488.49-1.146.716-1.09-.245.264-1.622 3.646-2.546 3.702-.057.038 3.527.038 7.374 3.325 9.58.038.019.02.113.057.453-.752-.227-1.39-.415-2.105-.642 1.316 4.036 3.12 7.6 7.985 8.656-.544.377-.92.623-1.296.887 1.766 1.603 3.87 2.545 6.162 3.187-3.682 3.488-8.229-1.434-10.258-4.507-.601.66-1.202 1.32-1.841 1.999 3.42 3.356 7.421 5.864 12.532 6.694 0-3.734 0-7.298-.02-10.862 0-.189-.281-.453-.488-.547-4.828-1.773-8.323-8.807-4.095-12.842 1.54-1.245 2.386-1.415 3.87.094 1.578-2.678-2.818-4.187-4.622-2.584-7.346 5.526-2.612 15.313 4.753 18.048-.657.848-1.315.867-2.029.282-4.415-3.073-8.905-7.373-7.553-13.313.752-5.922 8.286-10.372 11.123-3.527.864 1.943-2.48 5.94-2.93 2.339-.696.546-.677 1.15-.414 1.753.47 1.132 1.841 1.452 3.043.755 1.748-1.019 2.574-2.791 2.086-5.092zm62.677-97.1c-.996.037-1.522-.359-1.672-1.207-.301-1.679 2.273-2.056 2.705-.415.996 9.335-7.008 20.857-15.632 24.025 1.222.792 2.556 1.584 3.796 2.49 2.818 2.45 8.022.64 8.605-2.81l-2.142-.114c4.415-4.28 7.177-9.278 8.755-14.954-.921.056-1.71.113-2.499.15-.019-.075-.019-.169-.037-.244 4.715-2.773 4.471-9.335 3.156-13.974-.883-2.395.395-4.262 2.198-5.846-3.682.697-6.538 2.244-7.59 6.393-.226-.774-.376-1.283-.545-1.848-11.498 6.864.188 14.671.902 8.354zm-40.601 15.708c4.81-12.597-15.237-17.877-22.809-10.164-9.939 8.524-2.968 21.706 8.21 25.119 1.56.528 3.063.585 4.002.283-9.112-2.64-17.378-14.238-9.394-22.272 4.434-5.016 18.131-3.224 16.158 5.243 1.259.584 2.499 1.15 3.833 1.791zm25.138-13.558c1.672.49 3.777-2.018 2.18-3.263-.639 0-1.165.15-1.428-.038-.789-.905.15-1.735 1.052-1.678 3.382 1.377 4.528 5.695 2.687 8.9-.639 1.189-1.56 2.245-2.199 3.15.207 1.81.395 3.489.583 5.167 16.345-14.747-5.298-22.29-1.823-32.379-3.795 2.64-5.035 7.11-3.081 11.296-.902-.434-1.616-.792-2.386-1.17-1.484 3.829-.094 9.166 4.415 10.015zM79.933 160.663c-4.528-2.207-9.357-4.564-11.856-9.222-1.014-1.622.32-2.64 1.748-2.037.263.095.357.641.507.981-.376.17-.751.321-1.278.566-.169.396.15.716.696.924 4.584.679 2.442-8.279-4.679-5.771.132 1.056.902 1.584 2.105 1.924-1.147.565-1.672.452-2.424-.547-2.837-3.131-7.929-.019-7.816 4.375-.207 1.678 2.837 3.583 3.025.98-2.78.472-1.221-4.431 2.198-2.074 3.1 1.961 6.257 7.826 10.052 7.279-.526.283-1.052.547-1.56.83 2.274 2.546 7.403 4.847 13.622 6.016v-4.074c-2.142.736-2.198.849-4.34-.15zm-39.173-26.27c.094.095.188.189.281.302-.47.66-.92 1.339-1.39 1.98 3.776.49 6.839-5.582 2.067-5.469 5.166-9.259 16.834-8.033 23.804-1.527.602.509 1.09.641 1.672.094-2.029-4.451-9.75-9.203-13.865-8.58.376.641.77 1.282 1.146 1.923-3.006-2.206-7.12-2.037-10.747.434.526.452 1.071.924 1.635 1.395-.057.076-.113.132-.17.208-3.982-1.226-5.899 3.545-7.327 6.449-1.165 2.622-3.269 2.867-5.918 2.678 2.743 1.867 6.613 3.357 8.812.113zm7.045 1.037c2.142-2.621 4.866-3.583 8.192-2.904 1.972.396 3.682 1.32 5.373 2.376.244.151.677.283.883.189.827-.415 1.578-.943 2.537-1.546-8.399-5.526-18.15-5.149-22.039 5.242-1.954 5.13 1.635 8.995-3.889 12.918 3.645-.358 8.285-1.924 7.12-6.506 1.09.66 1.072 1.716 1.203 2.904 1.597-1.735 3.4-3.413 2.893-5.903-.281-1.169-1.728-3.526-2.93-1.866-.226.377-.226 1.018-.057 1.414.113.226.77.207 1.221.32-.507 2.094-3.344-.15-2.649-2.206a10.368 10.368 0 0 1 2.142-4.432zm84.772-93.875c-1.24 3.45-4.979 3.13-7.609 4.865-.357-.32-.865-.792-1.503-1.395-.207 3.13-4.923 2.244-5.111 7.845.808.075 1.541.15 2.274.226 4.884-9.825 17.04 1.528 7.158 6.846.47.83.92 1.15 1.616 1.018 4.039-.849 6.707-4.64 6.312-8.486-.732.283-1.503.584-2.254.867-.038-.094-.075-.17-.113-.264 3.833-3.036 1.466-8.071-.77-11.522zm-16.158 1.904c1.541.02 2.612-1.942 1.109-2.753-.357.038-1.09.811-1.522 1.037-.188-.264-.564-.603-.508-.773.526-2.187 3.476-1.923 4.077.095 1.053 4.922-6.275 4.752-7.665.942-1.071 1.094-2.386 1.264-3.908 1.15 5.768 6.092 12.644 6.827 15.669-2.055h-2.593c-.056-.056-.112-.132-.169-.188.62-.283 1.203-.642 1.86-.83 1.785-.547 3.251-3.32 2.65-5.11-2.894 3.582-9.188.056-11.518 4.525-.995 1.924.357 4.036 2.518 3.96zm-86.18 100.552c-1.166-1.622-2.781-1.528-4.322-1.509.113-3.526 6.181-5.676 8.436-2.282 0-3.055-3.795-4.846-6.407-3.734-.639.283-1.315.491-2.01.755.206.962.996 1.244 1.973 1.358-1.26.32-2.574-.943-3.514.264-1.202.886-1.334 3.809-3.119 3.092.677 1.132 1.24 1.32 2.762 1.056-1.277 4.187-5.054-3.413-7.853 1-.32.452-.808.773-1.203 1.131 1.992 1.528 2.894-2.489 4.284-.188-.45.301-.902.603-1.334.905.752.302 1.484.396 1.898.811 1.653 1.716 4.622 1.622 6.482-.34 1.09-1.112 2.16-2.206 3.926-2.319zm28.895-.566c-1.578 1.678-3.006-.811-1.258-1.81.3-.151.676-.264.995-.208 1.635.302 3.213.264 4.829-.113.808-.188 1.728.094 2.386.698-1.052.17-2.048.32-3.063.471.733.717.996 1.792 1.992 1.886 1.653-.207 3.119-.075 4.829.094-1.147-2.093-1.316-4.318-1.654-6.543-.845-1.377-3.945-1.999-5.41-1.094 1.577 1.018 1.709 1.207 1.37 2.074-3.287-3.036-8.097-1.414-8.548 3.112-.056.698.207 1.49.545 2.131.658 1.226 2.95.886 2.987-.698zm89.882-102.248c-1.428.509-2.762.452-3.983-.66-.582 5.695-3.457 10.503-7.853 14.049-1.184 1-1.297 2.942-1.86 4.205 6.5-2.395 13.377-11.956 13.696-17.594zM40.421 142.803c-5.918 7.468-8.417.792-11.61 2.734-.921.906-1.673 1.962-2.48 2.942 1.728-.283 3.118-.679 4.452.83 1.691 1.886 3.852 1.188 5.618-.207-.207.452-.451.942-.695 1.47 3.175-.678 5.974-3.564 4.715-7.769zm3.326-12.522c1.052.811 1.973.868 2.912-.075 5.918-3.923 12.588-.887 18.243 2.018.113-.17.3-.472.507-.83-6.387-5.318-15.48-8.43-21.662-1.113zm63.466-88.463c3.138 1.131 5.899-1.886 4.772-4.809-.77-1.83 1.935-1.131 1.578-2.772-1.503.867-3.513.641-3.814 2.753-1.089 5.13-9.018-2.866-14.899 1.66 4.603-1.038 8.399 1.433 12.363 3.168zm-70.624 99.118c-.677.83-2.762 2.244-3.232.566-.376-2.772-3.87-2.282-5.26-.585 1.765.792 1.916.924 3.006 2.584 3.757 4.752 8.755-1.547 10.07-5.224-.977-.151-1.785-.283-2.499-.396-.695 1.075-1.296 2.131-2.085 3.055zM92.765 38.952c.564-.32 1.24-.867 1.371-1.433.226-1.395.64-2.81 1.109-4.073-3.194 1.226-2.16 3.093-4.152 4.092-7.44 2.565-13.565 10.183-10.503 18.33-.977-9.354 3.89-14.03 12.175-16.916zm35.34 32.323c1.804.226 1.654-1.98 2.161-3.168-3.983.453-7.234-.81-9.3-4.507-.714.603-1.372 1.15-2.198 1.83 2.724 2.545 5.448 5.411 9.337 5.845zm-5.279 6.751c.789-.414 1.522-.792 2.405-1.263-.846-4.432-3.683-7.883-7.215-10.485-.827-.453-1.71.15-2.668.245 4.359 2.716 6.651 6.676 7.478 11.503zm3.494-20.517c.282.377.545.735.808 1.093 4.19-1.131 3.175-7.241-.826-7.6-2.123-.226-3.758.812-4.359 2.773.432.264.883.547 1.39.849 2.161-3.15 6.106.17 2.987 2.885zm-.751 24.383c2.555.17 4.96-2.3 5.073-5.355-1.259 1.244-2.593 1.546-4.153 1.263-3.832-.547-4.283 3.62-.92 4.092zm-6.407-17.896c1.184-1.037 2.33-3.32.301-4.205-.752-.378-1.447-.17-1.935.415-1.466 2.225-2.443 4.431-5.355 5.035 2.555.528 4.96.433 6.989-1.245zm15.031 4.054c-1.222-.999-2.612-.622-3.213 1.113-.564 1.603-1.297 2.96-3.025 3.583.037.094.094.189.131.283.827.057 1.673.207 2.499.15 2.443.17 5.768-2.96 3.608-5.129zm-19.878-12.767c.789-.754 1.691-1.376 2.555-2.055.056.056.113.132.188.189-.019-.397-.057-.774-.075-1.094a15.276 15.276 0 0 1-5.637-.377c-.413.924-.826 1.829-1.315 2.885 1.729 1.49 2.349 2.546 4.284.452zm-10.653 2.791c-2.161.321-2.424 2.848-5.298 2.886l-.057.377c1.222.302 2.405.773 3.645.886 2.8.585 5.261-3.394 1.71-4.148zm8.267-7.279c1.522.49 3.1.755 4.697.396 1.033-.301 1.052-1.433 1.54-2.338-2.931.943-5.279-.283-7.552-1.98.413 1.131.375 3.432 1.315 3.922zm1.127 12.824c-2.63-.34-4.509-1.075-6.576-2.603-.714 1.188-1.822 1.98-3.269 2.339 3.232.64 6.426 1.64 9.845.264z" fill="url(#paint0_linear)"/><defs><linearGradient id="paint0_linear" x1="86.002" y1="165.009" x2="86.002" y2="20" gradientUnits="userSpaceOnUse"><stop stop-color="#FE5500"/><stop offset="1" stop-color="#FFCB00"/></linearGradient></defs></svg>