<svg width="200" height="200" fill="none" xmlns="http://www.w3.org/2000/svg"><path d="M200 0H0v200h200V0z" fill="#252525"/><path d="M60.342 114.176c3.249 0 5.883-3.056 5.883-6.825 0-3.768-2.634-6.824-5.883-6.824-3.25 0-5.883 3.056-5.883 6.824 0 3.769 2.634 6.825 5.883 6.825z" fill="url(#paint0_linear)"/><path d="M81.287 149.246c3.25 0 5.883-3.055 5.883-6.824 0-3.769-2.634-6.824-5.883-6.824s-5.883 3.055-5.883 6.824c0 3.769 2.634 6.824 5.883 6.824z" fill="url(#paint1_linear)"/><path d="M154.001 90.419c0-8.471-1.412-11.766-9.648-16.707h-.236l-.235-.236C121.763 60.77 101.525 46.18 118.703 9c0 0-17.648 9.883-18.825 39.768 0 17.413 3.53 20.708 3.295 26.12-.236 3.53-3.059 6.118-6.59 5.883-3.529.235-6.588-2.353-6.823-5.883v-.47c0-5.648 3.294-6.59 3.765-23.532.47-8-2.353-16.001-7.766-22.12 4.707 14.825 0 26.591-9.177 33.18 3.53-6.824 2.353-15.06-2.588-20.943 1.176 9.883-3.53 19.766-12.237 24.943L49.05 73.241c-2.118 1.647-3.294 3.294-3.294 4.706 0 1.412 1.176 3.06 3.294 4.236l37.886 21.884c3.059 1.647 6.353 2.353 9.883 2.353 3.53 0 6.824-.706 9.883-2.353l33.65-16.001-31.061 20.237c-5.883 3.765-9.413 10.118-9.883 17.178l-.236 43.298c-.235 1.647.236 3.294 1.412 4.471.471.47 1.412.941 2.118.941 1.412 0 2.588-.471 3.765-1.177l37.415-21.884c5.883-3.765 9.413-10.118 9.883-17.178l.236-43.063v-.47zm-38.827 65.888c-3.765-.471-6.354-4-5.883-7.53a6.99 6.99 0 0 1 5.883-5.883c3.765.471 6.353 4 5.883 7.53-.236 3.059-2.824 5.412-5.883 5.883zm11.53-21.414c-3.765-.47-6.353-4-5.883-7.53a6.99 6.99 0 0 1 5.883-5.883c3.765.471 6.354 4.001 5.883 7.53a6.988 6.988 0 0 1-5.883 5.883zm11.295-21.413c-3.765.47-7.059-2.118-7.53-5.883-.47-3.765 2.118-7.06 5.883-7.53 3.765-.47 7.059 2.118 7.53 5.883v.941c.235 3.294-2.353 6.353-5.883 6.589 0-.236 0-.236 0 0z" fill="url(#paint2_linear)"/><defs><linearGradient id="paint0_linear" x1="37.752" y1="24.305" x2="93.004" y2="227.428" gradientUnits="userSpaceOnUse"><stop stop-color="#FF6900"/><stop offset="1" stop-color="red"/></linearGradient><linearGradient id="paint1_linear" x1="48.361" y1="21.425" x2="103.636" y2="224.548" gradientUnits="userSpaceOnUse"><stop stop-color="#FF6900"/><stop offset="1" stop-color="red"/></linearGradient><linearGradient id="paint2_linear" x1="80.958" y1="12.588" x2="136.233" y2="215.664" gradientUnits="userSpaceOnUse"><stop stop-color="#FF6900"/><stop offset="1" stop-color="red"/></linearGradient></defs></svg>