<svg width="16" height="16" fill="none" xmlns="http://www.w3.org/2000/svg"><path d="M11.355 12.823L7.595 1.616a.695.695 0 00-.34-.394.65.65 0 00-.509-.031L.448 3.453a.675.675 0 00-.381.35.711.711 0 00-.03.527l3.76 11.207c.058.172.18.314.34.394.158.08.341.091.508.031l6.299-2.261a.662.662 0 00.381-.351.71.71 0 00.03-.527zM5.441 2.596a.304.304 0 01.171-.158.29.29 0 01.23.014l.408.205.198-.423a.31.31 0 01.172-.158.29.29 0 01.323.087.313.313 0 01.075.224.319.319 0 01-.03.118l-.46.981-.948-.476a.301.301 0 01-.153-.177.32.32 0 01.014-.237zm.336 11.44l-.46.982-.95-.476a.301.301 0 01-.152-.178.32.32 0 01.084-.333.298.298 0 01.217-.078c.04.002.078.013.114.03l.408.205.199-.423a.31.31 0 01.171-.158.292.292 0 01.323.087.312.312 0 01.075.225.32.32 0 01-.03.117zM7.12 7.68L6.132 9.88 4.04 8.786a.916.916 0 01-.424-.513.953.953 0 01.026-.675.812.812 0 01.186-.27.78.78 0 01.594-.213c.108.008.213.04.308.093l.598.276.305-.6c.391-.895 1.11-.38 1.088-.391.2.11.351.292.425.513a.953.953 0 01-.026.674zM14.485 3.377l-5.039-1.81-.651 1.942 2.822 8.413 2.868-8.545z" fill="#C6C7CA"/><path d="M15.552 2.3L9.253.038a.646.646 0 00-.51.031.682.682 0 00-.338.395l-.316.942.01.03.413 1.232.518-1.542a.273.273 0 01.135-.158.259.259 0 01.204-.012l5.543 1.99a.27.27 0 01.152.14c.03.066.035.142.012.21l-3.18 9.479c.065.297.022.61-.122.877-.143.267-.376.47-.655.57l-.7.251.935.336a.646.646 0 00.717-.193.696.696 0 00.132-.232l3.76-11.207a.712.712 0 00-.187-.741.662.662 0 00-.224-.136z" fill="#C6C7CA"/></svg>