<svg width="200" height="200" fill="none" xmlns="http://www.w3.org/2000/svg"><path d="M200 0H0v200h200V0z" fill="#000"/><path d="M88.12 82.168c0-2.837.276-5.599.778-8.286H68.735L56.457 89.776h19.51s.627.025 1.28.126c3.641.427 6.504 3.54 6.504 7.281 0 3.717-2.788 6.805-6.504 7.257H65.672c-12.53 0-22.698-9.818-22.698-22.347 0-1.657.175-3.264.527-4.846.251-1.105 1.23-4.695 3.189-7.759 3.967-6.202 11.023-10.219 18.932-10.219h13.057s0-.025.025-.025h9.29l12.303-16.22H64.894C43.45 42.997 26 60.498 26 82.017c0 21.518 17.45 39.019 38.919 39.019H91.283c4.495 0 8.135-3.566 8.135-8.06v-1.406c-7.03-7.834-11.299-18.154-11.299-29.403z" fill="#fff"/><path d="M157.822 59.195L170.1 43H132.663c-12.957 0-24.431 6.378-31.512 16.195h56.671z" fill="#CD181F"/><path d="M159.077 73.909h-23.276l-12.278 15.894h20.213s.627.025 1.28.126c3.641.426 6.503 3.54 6.503 7.281 0 3.716-2.787 6.805-6.503 7.257h-11.575c-12.529 0-22.699-9.818-22.699-22.347 0-1.658.176-3.264.528-4.846.125-.628.502-2.01 1.13-3.641H94.698a38.72 38.72 0 0 0-.904 8.411c0 21.519 17.451 39.02 38.919 39.02H159.077c4.495 0 8.135-3.566 8.135-8.06v-30.91c0-4.494-3.64-8.185-8.135-8.185zm-52.546 62.2v4.769c-2.26 0-4.468-.026-6.702 0-2.207.026-3.89 1.027-5.125 3.082h11.774v4.743h-11.59c.21 2.002 3.049 3.424 4.941 3.372 2.129-.027 4.284.026 6.413.026.026 0 .079.026.21.079v4.821c-3.206-.184-6.491.027-9.593-.632-5.124-1.133-8.147-6.217-7.41-11.539.656-4.821 4.966-8.615 9.986-8.721 2.365-.052 4.652 0 7.096 0zm-58.16 20.707h-4.284v-16.44h-9.803v16.44H30v-20.628h18.37v20.628zm91.09.156c-5.913-.132-10.433-4.874-10.328-10.802.105-5.638 4.888-10.248 10.591-10.169a10.513 10.513 0 0 1 10.407 10.749c-.131 5.717-4.94 10.327-10.67 10.222zm6.544-10.485c0-3.557-2.864-6.429-6.386-6.429-3.522 0-6.413 2.898-6.413 6.429 0 3.53 2.891 6.428 6.413 6.428 3.548 0 6.386-2.872 6.386-6.428zm-84.783 10.485c-5.887-.132-10.486-4.927-10.328-10.828.157-5.664 4.94-10.222 10.617-10.143 5.887.105 10.486 4.848 10.381 10.775-.105 5.691-4.94 10.328-10.67 10.196zm-6.229-10.644c-.078 3.557 2.707 6.508 6.23 6.587a6.426 6.426 0 0 0 6.57-6.244c.105-3.53-2.708-6.507-6.23-6.586a6.425 6.425 0 0 0-6.57 6.243zm58.87-6.034v16.466h-4.31v-20.549c.263-.027.552-.106.841-.106 3.207 0 6.387-.026 9.593 0 4.231.053 7.516 3.452 7.49 7.667-.052 4.373-3.206 7.535-7.543 7.561h-3.889v-4.057c1.209 0 2.365.026 3.548 0 2.207-.026 3.758-1.528 3.705-3.557-.052-2.002-1.55-3.398-3.679-3.425h-5.756z" fill="#fff"/><path d="M90.92 156.708c-1.787 0-3.337.053-4.888-.027-.341-.026-.736-.421-.972-.737-1.42-2.055-2.839-4.084-4.153-6.218-.578-.922-1.209-1.317-2.391-.896v7.931h-4.31v-20.629h4.23v7.93c1.105.448 1.683.105 2.261-.764a131.024 131.024 0 0 1 4.389-6.376c.315-.421.999-.764 1.55-.816 1.341-.106 2.708-.027 4.232-.027-.29.474-.447.791-.657 1.107-1.708 2.424-3.47 4.821-5.125 7.297-1.55 2.293-1.577 1.529-.026 3.794 1.63 2.424 3.364 4.795 5.046 7.193.21.316.447.685.815 1.238zm65.624-7.903V156.788h-4.205v-20.576h4.205v7.904c1.052.395 1.656.105 2.208-.738 1.445-2.187 2.917-4.373 4.442-6.481.289-.395.946-.738 1.445-.764 1.367-.105 2.76-.026 4.389-.026-1.656 2.344-3.18 4.478-4.652 6.612-.841 1.212-2.207 2.477-2.234 3.715-.026 1.186 1.367 2.424 2.208 3.609a634.61 634.61 0 0 0 4.704 6.666c-1.839 0-3.443.053-5.046-.027-.315-.026-.683-.474-.92-.816-1.393-2.029-2.733-4.057-4.099-6.086-.789-1.159-.789-1.159-2.445-.975z" fill="#fff"/></svg>