<svg width="20" height="20" viewBox="0 0 20 20" xmlns="http://www.w3.org/2000/svg">
<path d="M9.44843 14.4007L5.06145 14.0097C4.19666 13.9246 3.37102 14.4063 3.0959 15.1561C2.86032 15.7984 3.06728 16.5037 3.62316 16.9532C4.35393 17.5443 5.96744 18.5861 8.56253 18.923L9.1557 19L10 16.6985L9.26913 16.0668L9.44843 14.4007ZM4.45808 15.5687C4.51609 15.4106 4.68141 15.3047 4.86186 15.3047C4.87722 15.3047 7.87962 15.5719 7.87962 15.5719L7.77178 16.5734L8.3492 17.0725L8.17824 17.5385C6.30177 17.187 5.13214 16.427 4.57774 15.9787C4.45124 15.8763 4.40424 15.7155 4.45808 15.5687V15.5687Z" />
<path d="M17.4983 11.0437C17.303 10.6919 16.5672 9.58008 14.8711 9.16403C14.6416 9.10774 14.4108 9.0444 14.1862 8.98839C13.2706 8.76014 12.2329 8.50149 11.9807 8.04268C11.4359 7.05106 11.0853 6.74085 10.5045 6.22693C10.3775 6.11454 10.2335 5.98722 10.0718 5.83877C9.80117 5.59025 9.81395 5.5013 9.8676 5.12679C9.9065 4.85504 9.95605 4.50905 9.87601 4.06972L11.5444 3.2346L11.2919 0.950762L11.0604 0.797539C10.9706 0.738041 8.8386 -0.647969 7.09549 0.375774C6.68285 0.618146 6.42358 0.894081 6.2153 1.11576C5.94841 1.39983 5.81447 1.54241 5.45586 1.60109C4.84752 1.70057 4.56174 1.61028 4.23066 1.50572C3.94373 1.41509 3.61864 1.31217 3.15469 1.33247C2.5723 1.35774 2.052 1.60535 1.68966 2.0297C1.27571 2.51448 1.11485 3.18386 1.23661 3.91454C1.27944 4.17142 1.21489 4.42842 1.14014 4.72599C0.965049 5.4233 0.725248 6.37827 2.01626 7.5119L2.33197 7.78909L5.04777 6.45706C5.39405 7.24257 6.12743 8.59678 7.45853 9.81205C8.56331 10.8207 9.48833 11.3631 10.4677 11.9374C10.7251 12.0883 10.9914 12.2445 11.2671 12.4127C12.3064 13.0466 12.9357 13.51 12.8614 13.8608C12.8214 14.0501 12.5643 14.9658 12.4983 15.3316C12.4246 15.74 12.5212 16.2015 12.7636 16.5976C13.0389 17.0476 13.4753 17.3869 14.0257 17.5786L14.4403 17.723L16.9504 14.7324L16.9771 14.5827C17.1337 13.7069 16.8215 12.9574 16.5674 12.5207L16.9111 12.1043L18.2128 13.1398L19 12.2383L17.4983 11.0437ZM13.71 15.5308C13.7665 15.2178 14.019 14.3183 14.0667 14.0931C14.1798 13.5586 14.0055 13.0653 13.5339 12.585C13.1747 12.2192 12.6572 11.8699 11.9932 11.463V9.53024C12.5495 9.79307 13.2184 9.96003 13.8754 10.1238C14.094 10.1783 14.32 10.2346 14.5356 10.293C15.3165 10.5044 15.823 10.9106 16.098 11.1931L15.0117 12.4909L15.3353 12.8566C15.3408 12.8631 15.8499 13.4808 15.7837 14.2454L14.0765 16.2795C13.775 16.0478 13.6736 15.7325 13.71 15.5308V15.5308ZM2.45086 3.73014C2.38484 3.33396 2.453 2.99332 2.64279 2.77106C2.78095 2.60923 2.98256 2.51468 3.21055 2.50478C3.44773 2.49446 3.61409 2.54707 3.84438 2.61979C4.14386 2.71441 4.4978 2.82598 5.03052 2.81729V5.14611L2.55607 6.35977C2.1193 5.86196 2.20573 5.51761 2.33586 4.9995C2.42783 4.63305 2.53214 4.21774 2.45086 3.73014V3.73014ZM6.26001 2.5822C6.65736 2.40261 6.9047 2.1397 7.13065 1.8992C7.30984 1.70851 7.4791 1.52837 7.7398 1.37519C8.55335 0.897367 9.65838 1.37875 10.1306 1.63L10.234 2.56534L8.40007 3.48331L8.57843 3.96289C8.73352 4.38 8.69266 4.66552 8.64934 4.96781C8.58204 5.43762 8.49827 6.0223 9.21935 6.68441C9.38923 6.84037 9.5376 6.97165 9.6685 7.08747C10.1627 7.52473 10.3963 7.73162 10.7636 8.3609V10.7329C9.94338 10.2476 9.19492 9.77332 8.30838 8.96394C7.22725 7.97689 6.58871 6.86865 6.25997 6.17017V2.5822H6.26001Z" />
</svg>
