<svg width="200" height="200" fill="none" xmlns="http://www.w3.org/2000/svg"><path d="M200 0H0v200h200V0z" fill="#1E1E1E"/><path d="M69.908 81l2.55 38h14.805l9.541-20.727L97.956 119h15.299l18.835-38h-15.957l-8.801 20.645L106.263 81H94.748l-9.788 20.481L84.138 81h-14.23z" fill="#fff"/><path d="M21.875 81l2.632 38H39.23l9.623-20.727L49.923 119H65.22L84.14 81H68.1l-8.718 20.645L58.23 81H46.797l-9.87 20.481L36.104 81H21.875z" fill="red"/><path d="M122.961 119l5.675-22.043h13.572L136.779 119h-13.818zm48.036-27.39c-4.853 0-8.801 2.714-10.857 4.523l.987-4.195h-13.571L140.646 119h13.819l3.125-12.831c2.385-6.91 5.018-5.758 6.005-4.606.987 1.151-3.126 17.437-3.126 17.437h13.983s3.536-16.121 4.03-19.411c.493-3.29-.329-7.979-7.485-7.979z" fill="#fff"/><path d="M138.184 93.557c3.661-.364 6.367-3.297 6.044-6.552-.324-3.255-3.554-5.598-7.216-5.234-3.661.364-6.367 3.297-6.043 6.552.323 3.254 3.553 5.598 7.215 5.234z" fill="red"/></svg>