<svg width="20" height="20" viewBox="0 0 20 20" xmlns="http://www.w3.org/2000/svg">
<path d="M18.2422 16.4844H18.0469V14.7266C18.0469 14.5873 17.9972 14.4525 17.9069 14.3465L15.8571 11.941C15.983 11.6988 16.0547 11.4241 16.0547 11.1328V9.73836L17.9188 6.75586C18.0408 6.56059 18.0371 6.31191 17.9094 6.12027L15.4802 2.47645C14.9356 1.65957 14.0243 1.17188 13.0425 1.17188H11.7578V0.585938C11.7578 0.262344 11.4955 0 11.1719 0H8.82812C8.50453 0 8.24219 0.262344 8.24219 0.585938V1.17188H6.95746C5.9757 1.17188 5.06445 1.65957 4.5198 2.47645L2.09059 6.12031C1.96285 6.31191 1.95918 6.56059 2.08125 6.7559L3.94531 9.73836V11.1328C3.94531 11.4241 4.01695 11.6988 4.14289 11.941L2.09309 14.3465C2.00273 14.4525 1.95312 14.5873 1.95312 14.7266V16.4844H1.75781C0.788555 16.4844 0 17.2729 0 18.2422V19.4141C0 19.7377 0.262344 20 0.585938 20H5.27344C5.59703 20 5.85938 19.7377 5.85938 19.4141V18.8281H14.1406V19.4141C14.1406 19.7377 14.403 20 14.7266 20H19.4141C19.7377 20 20 19.7377 20 19.4141V18.2422C20 17.2729 19.2114 16.4844 18.2422 16.4844V16.4844ZM16.7245 6.45559L14.9719 9.25977C14.9137 9.35289 14.8828 9.46051 14.8828 9.57031V11.1328C14.8828 11.4559 14.62 11.7188 14.2969 11.7188H13.7109V5.48559L15.0259 3.90766L16.7245 6.45559ZM10 10.1562C8.59996 10.1562 7.46094 9.01723 7.46094 7.61719V5.85938H12.5391V7.61719C12.5391 9.01723 11.4 10.1562 10 10.1562ZM13.0425 2.34375C13.538 2.34375 14.003 2.55137 14.3328 2.90879L12.8505 4.6875H11.7578V2.34375H13.0425ZM9.41406 1.17188H10.5859V4.6875H9.41406V1.17188ZM6.95746 2.34375H8.24219V4.6875H7.14945L5.66719 2.90879C5.99703 2.55137 6.46199 2.34375 6.95746 2.34375V2.34375ZM3.27551 6.45559L4.9741 3.90766L6.28906 5.48559V11.7188H5.70312C5.38004 11.7188 5.11719 11.4559 5.11719 11.1328V9.57031C5.11719 9.46047 5.08633 9.35289 5.02813 9.25977L3.27551 6.45559ZM3.125 15.3125H5.66406C5.98766 15.3125 6.25 15.0502 6.25 14.7266C6.25 14.403 5.98766 14.1406 5.66406 14.1406H3.80816L4.9991 12.743C5.2148 12.8377 5.45285 12.8906 5.70312 12.8906H6.875C7.19859 12.8906 7.46094 12.6283 7.46094 12.3047V10.3209C7.99027 10.8183 8.66516 11.1624 9.41406 11.2817V12.3047C9.41406 12.6283 9.67641 12.8906 10 12.8906C10.3236 12.8906 10.5859 12.6283 10.5859 12.3047V11.2817C11.3348 11.1624 12.0097 10.8183 12.5391 10.3209V12.3047C12.5391 12.6283 12.8014 12.8906 13.125 12.8906H14.2969C14.5471 12.8906 14.7852 12.8377 15.0009 12.743L16.1918 14.1406H14.3359C14.0123 14.1406 13.75 14.403 13.75 14.7266C13.75 15.0502 14.0123 15.3125 14.3359 15.3125H16.875V16.4844H15.8984C15.1346 16.4844 14.4833 16.9743 14.2414 17.6562H12.1484V14.7266C12.1484 14.403 11.8861 14.1406 11.5625 14.1406H8.4375C8.11391 14.1406 7.85156 14.403 7.85156 14.7266V17.6562H5.75859C5.51672 16.9743 4.86543 16.4844 4.10156 16.4844H3.125V15.3125ZM4.6875 18.8281H1.17188V18.2422C1.17188 17.9191 1.43473 17.6562 1.75781 17.6562H4.10156C4.42465 17.6562 4.6875 17.9191 4.6875 18.2422V18.8281ZM9.02344 17.6562V15.3125H10.9766V17.6562H9.02344ZM18.8281 18.8281H15.3125V18.2422C15.3125 17.9191 15.5754 17.6562 15.8984 17.6562H18.2422C18.5653 17.6562 18.8281 17.9191 18.8281 18.2422V18.8281Z" />
</svg>
