<svg width="200" height="200" fill="none" xmlns="http://www.w3.org/2000/svg"><path d="M200 0H0v200h200V0z" fill="#C00"/><path d="M138.161 113.299H53.696v-18.2h84.275c4.735 0 7.954 2.44 7.954 9.194.19 6.567-3.219 9.006-7.764 9.006zM53.696 61.513h82.192c4.735 0 7.954 2.44 7.954 9.194 0 6.755-3.409 9.194-7.954 9.194H53.696V61.513zM158.803 87.22c5.114-5.254 5.114-11.07 5.114-16.887 0-16.324-4.167-28.332-28.786-28.332H34.189L34 133h101.32c24.241 0 30.68-11.633 30.68-28.144-.189-8.256-3.409-15.198-7.197-17.637zM75.278 149.39c0-2.077-.768-2.134-1.593-2.276H63.643c-1.11 0-1.735.284-1.735 1.991v3.784c-.029 1.394.483 2.02 1.593 2.077l10.241.028c.825 0 1.565-.711 1.565-2.105v-3.499h-.029zm2.988 4.409c0 2.674-1.736 4.182-4.353 4.182H63.33c-2.56 0-4.38-1.621-4.38-4.182v-5.661c.198-2.247 1.877-3.983 4.38-3.983h10.555c2.873 0 4.352 1.821 4.352 4.381v5.263h.029zm49.499 1.167h12.006c.825 0 1.422-.882 1.422-1.565v-4.694c0-.853-.825-1.593-1.536-1.593h-11.863v7.852h-.029zm-2.987-10.811h14.964c2.56 0 4.381 1.593 4.381 4.182v5.661c-.171 2.248-1.877 3.983-4.381 3.983h-14.964v-13.826zm-16.585 7.512l1.878-3.528s.512-1.052.91-1.052c.399 0 .911 1.024.911 1.024l1.849 3.527h-5.548v.029zm6.686-4.324c-.882-1.736-1.963-3.215-3.898-3.215-2.02 0-2.93 1.451-3.869 3.215l-5.633 10.696h3.386s.996-1.877 2.133-4.04h7.938l2.219 4.04h3.271l-5.547-10.696zm-23.955 6.827s.456.911.854.911c.398 0 .825-.911.825-.911l5.291-10.014h3.386l-5.633 10.697c-.939 1.792-1.82 3.243-3.84 3.243-1.935 0-2.96-1.451-3.841-3.186l-5.661-10.782h3.385l5.234 10.042zm-41.277.796H36.959v-2.76h12.66c.71 0 1.194.37 1.194 1.394.028.996-.484 1.366-1.166 1.366zm-12.688-7.852h12.346c.711 0 1.195.37 1.195 1.394s-.512 1.394-1.195 1.394H36.96v-2.788zm15.788 3.897c.769-.796.769-1.678.769-2.56 0-2.475-.626-4.296-4.325-4.296H34.028L34 157.954h15.22c3.641 0 4.608-1.764 4.608-4.268-.028-1.251-.512-2.304-1.08-2.674zm101.02.656l1.877-3.528s.512-1.052.91-1.052c.399 0 .911 1.024.911 1.024l1.877 3.527h-5.575v.029zm6.685-4.324c-.882-1.736-1.963-3.215-3.898-3.215-2.019 0-2.93 1.451-3.869 3.215l-5.632 10.696h3.385s.996-1.877 2.134-4.04h7.937l2.219 4.04h3.271l-5.547-10.696z" fill="#fff"/></svg>