<svg width="200" height="200" fill="none" xmlns="http://www.w3.org/2000/svg"><path d="M200 0H0v200h200V0z" fill="#192E4B"/><path d="M49.563 95.014H32.457V44.94c7.05-.052 14.1 0 21.149 0 .259 0 .518-.052.674.311 3.628 8.553 7.723 16.95 10.574 25.814.156.363.311.518.726.363-1.348-8.76-1.037-17.624-1.089-26.488h17.002v50.073h-18.66c-.311 0-.519-.052-.674-.363-4.458-10.16-9.486-20.112-12.96-30.738-.155-.363-.258-.622-.725-.415 1.555 10.47.933 20.941 1.089 31.516zm79.8-12.85a741.982 741.982 0 0 1-1.607 10.574c-.052.156-.207.415-.363.466-9.797 3.007-20.578 4.925-30.634 1.815C86.029 91.7 83.748 79.83 84.525 69.93c.156-2.436.57-4.872 1.348-7.205 2.592-8.138 11.041-10.833 18.816-11.144 21.046-1.14 28.199 6.324 25.814 27.265h-28.82c1.296 10.419 21.097 5.184 27.68 3.318zm-12.855-12.44c-.104-3.163-1.348-5.858-4.51-6.584-5.132-1.244-10.678.466-10.522 6.583h15.032zm15.503-2.492c-.052-2.851 0-5.65 0-8.501 0-.208.104-.519.311-.674 4.717-4.25 9.279-8.708 13.529-13.477.26-.26.467-.415.83-.363h9.33v8.501h12.337V67.18h-12.285c-.104 4.302.104 8.605-.052 12.855-.104 3.473 1.97 4.354 4.302 4.354a60.39 60.39 0 0 0 7.465-.622c0 3.473-.311 6.843-.415 10.316 0 .414-.104.622-.57.725-5.287 1.089-10.575 1.763-15.965 1.71-5.962 0-11.974-1.71-12.7-8.552-.518-6.894-.104-13.84-.259-20.786-2.022.052-3.888.052-5.858.052z" fill="#fff"/><path d="M32.457 103.366c11.87-.103 23.689 0 35.56 0 2.28 0 4.509.208 6.738.778 3.94.985 6.375 3.369 7.05 7.464.466 2.747.518 5.443-.053 8.19-1.244 6.065-5.909 7.775-11.403 8.657 5.494.57 10.989 2.177 12.13 8.345 1.191 6.22-.156 13.374-6.947 15.447-2.747.933-5.598 1.244-8.5 1.244-11.508 0-23.016.052-34.523 0-.052-16.743-.052-33.434-.052-50.125zm18.453 30.272v8.087c3.318.103 6.635 0 9.953 0 2.954-.156 4.976-1.193 4.769-4.51 0-2.747-2.644-3.525-4.925-3.577-3.265 0-6.531-.052-9.797 0zm.052-17.52v7.879h8.864c3.318.104 5.391-1.555 4.976-4.873-.103-1.918-1.503-2.747-3.265-2.902-3.525-.104-6.998-.104-10.575-.104zm79.541 21.197h-28.82c1.296 10.367 21.097 5.132 27.68 3.265a643.982 643.982 0 0 1-1.607 10.575c-.052.207-.207.415-.415.466-9.796 3.007-20.578 4.873-30.582 1.815-10.73-3.318-13.011-15.188-12.234-25.037.156-2.436.57-4.872 1.348-7.205 2.592-8.138 11.093-10.834 18.868-11.145 21.045-1.14 28.199 6.324 25.762 27.266zm-28.976-9.175h15.033c-.104-3.369-1.555-6.168-5.028-6.687-5.08-.881-10.108.622-10.005 6.687zm36.261-2.487h-5.754c-.103-2.851 0-5.65 0-8.501 0-.26.156-.571.311-.726 4.666-4.199 9.123-8.605 13.322-13.27.363-.415.726-.57 1.244-.57 3.007.052 6.013 0 9.071 0v8.501h12.337v14.462h-12.285c-.104 4.302.104 8.605-.052 12.855-.103 3.525 1.97 4.354 4.303 4.354a60.394 60.394 0 0 0 7.516-.622c-.156 3.473-.311 6.843-.467 10.316 0 .414-.103.622-.57.725-5.287 1.141-10.574 1.763-15.965 1.711-5.961 0-11.974-1.711-12.7-8.553-.622-6.79-.207-13.736-.311-20.682z" fill="#D70D19"/></svg>