<svg width="200" height="200" fill="none" xmlns="http://www.w3.org/2000/svg"><path d="M200 0H0v200h200V0z" fill="#000"/><path d="M93.839 24.478a14.065 14.065 0 0 1 4.545-1.339c.56-.065 1.218-.127 1.464-.136.892-.036 3.075.283 4.204.613 4.873 1.427 8.46 5.137 9.831 10.17.238.873.287 1.437.287 3.313 0 2.006-.039 2.412-.353 3.592a14.056 14.056 0 0 1-13.004 10.482c-2.795.128-4.98-.335-7.328-1.553-3.507-1.82-6.179-5.126-7.186-8.89-.44-1.644-.513-4.635-.155-6.371.9-4.381 3.673-7.94 7.695-9.881z" fill="#D70926"/><path d="M79.163 81.306c0-.123-25.358-44.595-26.789-46.982-.215-.357-.352-.65-.305-.65.18 0 43.046 24.19 43.02 24.277-.016.05-2.105 2.11-4.642 4.578-7.848 7.634-8.511 8.302-7.963 8.017.275-.142 15.118-8.497 32.984-18.566C133.334 41.91 147.974 33.695 148 33.72c.026.027-6.066 10.74-13.539 23.808l-13.587 23.759.382.687c.211.379 6.322 11.075 13.581 23.771 7.259 12.696 13.175 23.106 13.148 23.133-.027.028-10.813-6.012-23.968-13.422-13.156-7.41-23.97-13.457-24.031-13.438-.132.041-46.908 26.382-47.588 26.798-.256.156-.432.226-.392.155l13.614-23.821c7.449-13.03 13.543-23.76 13.543-23.845z" fill="#D70926"/><path fill-rule="evenodd" clip-rule="evenodd" d="M137.503 141.023c-2.737.15-4.453 1.06-5.284 2.802-.192.403-.33.826-.463 1.425l-.099.444-.013 10.413-.014 10.412 2.683-.012 2.684-.013.011-7.344.012-7.345H139.691V147.588h-2.684l.025-.707c.038-1.101.218-1.542.737-1.806.386-.197.832-.237 2.014-.184.57.025 1.052.037 1.071.027.019-.011.034-.868.034-1.904v-1.884l-.449-.03a52.11 52.11 0 0 0-1.117-.055 51.191 51.191 0 0 1-.921-.042c-.139-.008-.543 0-.898.02zM41 153.962c0 6.88.016 12.509.035 12.509.019 0 1.199-.467 2.622-1.036l2.588-1.036.406.359c1.356 1.204 2.753 1.756 4.662 1.839 2.26.099 4.316-.592 5.987-2.013 1.81-1.539 2.961-3.596 3.343-5.973.102-.639.139-1.97.071-2.639-.246-2.454-1.332-4.602-3.204-6.337-1.73-1.603-3.924-2.422-6.217-2.32-1.855.082-3.207.652-4.34 1.829l-.473.49V141.453H41v12.509zm42.306-2.576c-.031 10.072-.025 10.567.136 11.387.343 1.75 1.301 2.966 2.828 3.593 1.246.511 2.642.67 4.881.557l1.347-.068c.02 0 .035-.865.035-1.921 0-1.806-.005-1.919-.08-1.897-.206.06-2.167.085-2.453.032-.853-.161-1.19-.566-1.29-1.551-.025-.25-.044-2.435-.045-5.076v-4.637h2.718l-.012-2.121-.012-2.12-1.347-.013-1.347-.013v-6.085h-5.328l-.03 9.933zm-12.508-4.322a9.914 9.914 0 0 0-3.922 1.35c-1.58.969-3.023 2.556-3.805 4.184-1.1 2.287-1.277 5.001-.491 7.498.486 1.544 1.276 2.841 2.469 4.054 1.19 1.211 2.315 1.914 3.813 2.385.99.311 1.567.388 2.924.389 1.182.002 1.509-.026 2.326-.197 2.45-.512 4.422-1.918 5.856-4.178.285-.45.822-1.436.822-1.511 0-.017-1.348-.031-2.994-.031h-2.993l-.286.219c-.855.655-1.923.919-3.187.788-1.73-.178-2.796-.908-3.379-2.312a3.34 3.34 0 0 1-.18-.539l-.026-.169h13.92v-.613c0-1.671-.278-3.434-.761-4.836-.217-.629-.733-1.713-1.069-2.243-1.462-2.312-3.701-3.744-6.527-4.173-.582-.089-1.997-.125-2.51-.065zm29.518-.02c-.952.095-1.794.277-2.432.526-2.016.789-3.332 2.346-3.74 4.429-.183.938-.166 1.983.047 2.851.46 1.869 1.833 3.164 4.247 4.004.303.105 1.02.319 1.595.475 1.52.412 1.863.553 2.18.895.24.258.321.492.323.923.001.446-.058.686-.242.974-.264.415-.722.64-1.403.691-1.171.087-2.07-.586-2.168-1.623l-.03-.326h-5.134l.02.132c.275 1.829.8 3.029 1.766 4.034 1.45 1.51 3.853 2.214 6.468 1.896 3.312-.403 5.572-2.351 6.133-5.286.111-.582.111-1.805-.001-2.351-.197-.966-.551-1.658-1.18-2.307-.977-1.007-2.137-1.562-5.005-2.393-1.547-.449-2.132-.805-2.346-1.429-.085-.248-.08-.811.008-1.082.106-.324.417-.66.765-.827.264-.127.334-.139.797-.139.417 0 .543.018.717.101.425.204.709.639.855 1.312l.072.335h4.918v-.183c0-.495-.262-1.602-.525-2.222-.571-1.342-1.702-2.403-3.155-2.961-.951-.365-2.47-.557-3.55-.449zm49.069-.004c-.076.011-.335.044-.576.073-1.565.188-3.274.936-4.657 2.039-1.85 1.476-3.089 3.515-3.565 5.864-.165.814-.21 2.407-.092 3.281.096.715.333 1.689.556 2.282.969 2.573 3.073 4.777 5.465 5.727 1.118.445 2.245.644 3.639.644 3.934 0 6.879-1.834 8.715-5.428l.263-.515h-6.024l-.25.196c-1.002.784-2.351 1.03-3.887.709-1.106-.232-1.957-.823-2.466-1.715-.163-.285-.46-1.032-.46-1.156 0-.03 2.494-.047 6.977-.047H160l-.001-.3a25.795 25.795 0 0 0-.182-2.611c-.583-4.145-2.769-7.163-6.104-8.424-.528-.2-1.427-.431-2.049-.526-.468-.072-1.998-.134-2.279-.093zm-32.122.31c-1.687.213-3.162.852-4.498 1.947a13.165 13.165 0 0 0-1.592 1.642c-1.644 2.121-2.326 4.768-1.94 7.528.304 2.174 1.213 4.005 2.76 5.555 1.053 1.056 2.109 1.727 3.392 2.154 1.706.569 3.856.573 5.473.01a6.724 6.724 0 0 0 2.342-1.398c.185-.168.361-.325.39-.347.034-.026 1.024.347 2.64.994 1.421.57 2.607 1.036 2.635 1.036.035 0 .049-2.691.049-9.442v-9.441h-5.48v2.038l-.472-.485c-.901-.928-1.944-1.478-3.258-1.72-.514-.095-1.93-.136-2.441-.071zm-44.026 4.899c1.27.348 2.139 1.077 2.713 2.273.103.216.188.427.188.468 0 .066-.443.074-4.288.074h-4.288l.031-.18c.017-.098.122-.375.233-.615.421-.909 1.305-1.649 2.346-1.962.585-.177.904-.212 1.775-.195.73.014.915.034 1.29.137zm78.289-.014c.539.146 1.248.507 1.644.837.182.152.454.437.605.635.244.321.59.962.674 1.249l.031.108h-4.309c-2.37 0-4.309-.007-4.309-.015 0-.009.033-.133.074-.276.377-1.32 1.554-2.302 3.126-2.606.568-.11 1.948-.072 2.464.068zm-100.301.051c2.186.278 3.832 1.983 4.046 4.191.221 2.271-1.155 4.292-3.334 4.898-.416.116-.54.128-1.312.131-.754.004-.893-.008-1.21-.104-.804-.242-1.405-.624-1.98-1.258a4.399 4.399 0 0 1-1.102-2.195c-.12-.601-.097-1.653.048-2.221.583-2.291 2.604-3.727 4.844-3.442zm68.422-.003c.566.067.951.179 1.432.413 1.197.583 2.048 1.629 2.398 2.944.522 1.958-.175 4.044-1.715 5.137-.706.501-1.332.71-2.228.744-1.017.039-1.724-.109-2.524-.526-.491-.256-.721-.424-1.099-.8a4.611 4.611 0 0 1-1.189-2.088c-.087-.326-.102-.504-.101-1.198.001-.746.011-.85.124-1.236.559-1.904 2.092-3.212 3.992-3.405.327-.033.539-.03.91.015z" fill="#fff"/></svg>