<svg width="200" height="200" fill="none" xmlns="http://www.w3.org/2000/svg"><path d="M200 0H0v200h200V0z" fill="url(#paint0_radial)"/><path d="M130.187 65.954c0 11.352-7.612 20.894-17.873 24.02-5.296 1.973-12.247 2.467-17.708.657-5.462-1.81-13.902-8.719-23.832-9.048C60.348 81.254 51.742 88 51.742 88l-3.144 2.303v-47.38c0-4.112 3.31-7.402 7.447-7.402h20.522s-7.613 10.693-6.455 25.334C71.271 75.496 85.67 82.57 85.67 82.57c-3.972-4.442-6.454-10.364-6.454-16.78 0-13.82 11.419-25.006 25.486-25.006s25.486 11.187 25.486 25.17zm2.648 27.31c-6.951-.823-13.405.987-18.37 4.77 0 0-.165 0-.165.165-9.93 7.074-10.096 14.642-15.226 23.032-5.13 8.225-8.606 13.654-21.846 17.932-13.57 4.277-28.465-5.594-28.465-5.594v23.361c0 4.113 3.31 7.403 7.448 7.403h52.296c-10.426-17.603-4.965-36.028-4.965-36.028 4.8 7.896 11.254 10.693 11.254 10.693 4.138 2.961 9.268 4.935 14.895 4.935 14.895 0 26.81-12.832 25.155-27.967-1.324-11.845-10.591-21.222-22.011-22.703z" fill="url(#paint1_radial)" stroke="#151515"/><path d="M151.041 42.924V97.05s-9.93-8.884-22.839-7.239c-12.908 1.48-16.549 5.594-22.342 12.01-5.792 6.416-10.591 21.715-16.715 26.651-5.461 5.593-13.405 8.883-22.01 7.732-9.6-1.316-17.875-8.226-20.688-17.438-5.296-16.781 7.778-34.22 24.328-33.067 5.461.329 9.433 1.81 14.398 4.441 0 0 14.895 9.542 31.114 1.975 16.218-7.568 17.377-19.249 18.039-24.677.662-6.416-2.979-23.032-18.701-27.968-15.723-4.77-26.81 2.633-30.286 5.758-3.641 3.29-10.427 14.148-9.103 23.032 0 0-8.77-13.16 7.779-32.573h59.909c3.807-.165 7.117 3.125 7.117 7.238zm-35.582 121.082h28.3c4.137 0 7.447-3.291 7.447-7.404v-18.096s-7.944 8.884-23.335 8.226c-13.901-.658-22.342-11.516-22.342-11.516-2.482 16.122 9.93 28.79 9.93 28.79z" fill="url(#paint2_radial)" stroke="#151515"/><defs><radialGradient id="paint0_radial" cx="0" cy="0" r="1" gradientUnits="userSpaceOnUse" gradientTransform="rotate(45) scale(282.843)"><stop stop-color="#525252"/><stop offset="1"/></radialGradient><radialGradient id="paint1_radial" cx="0" cy="0" r="1" gradientUnits="userSpaceOnUse" gradientTransform="matrix(-118.32944 -149.70746 181.17094 -143.19831 154.35 147.388)"><stop stop-color="#C97125"/><stop offset=".388" stop-color="#E3B05A"/><stop offset=".565" stop-color="#EFCE73"/><stop offset=".864" stop-color="#F6E08A"/><stop offset=".923" stop-color="#F8DC94"/><stop offset="1" stop-color="#F9D99D"/></radialGradient><radialGradient id="paint2_radial" cx="0" cy="0" r="1" gradientUnits="userSpaceOnUse" gradientTransform="matrix(80.26545 78.14337 -78.13221 80.25398 70.776 88.986)"><stop stop-color="#E4E4E4"/><stop offset=".387" stop-color="#DADADA"/><stop offset=".698" stop-color="#C0C0BF"/><stop offset=".999" stop-color="#A1A19F"/></radialGradient></defs></svg>