<svg viewBox="0 0 200 200" xmlns="http://www.w3.org/2000/svg"><path d="M0 0h200v200H0z" fill="#c8354f"/><g fill="#fff"><path d="M101.18 116.46c-6.26 6.1-10.56 10.72-15.31 14.82-11.64 10.08-24.92 12.53-39.07 6.33-13.49-5.91-20.9-16.72-21.57-31.4-.7-15.43 6.41-26.92 20.08-33.89 5.04-2.57 10.99-3.34 17.45-5.2.5-2.49 1.01-6.06 1.95-9.52 3.85-14.22 13.1-23.47 27.45-26.53 13.94-2.98 26.17 1.07 35.65 12.04 1.53 1.77 2.94 3.78 3.87 5.9 1.86 4.25.43 8.73-3.17 11.15-3.78 2.53-8.1 2.14-11.57-1.18-1.13-1.08-1.92-2.5-2.96-3.69-6.8-7.75-17.02-9.03-24.84-3.15-7.62 5.72-9.19 16.43-3.6 24.68.74 1.09 1.72 2.02 2.41 3.13 2.63 4.24 2.4 8.42-.56 11.61-3.03 3.26-7.82 3.67-12.3.96-1.35-.82-2.51-1.95-3.85-2.77-7.82-4.82-18.09-3.23-23.66 3.61-5.69 6.97-5.19 17.31 1.15 23.73 6.48 6.56 17.03 6.99 24.46.89 2.03-1.67 3.83-3.62 5.7-5.48 11.22-11.14 22.25-22.47 33.7-33.38 15.94-15.19 39.5-14.16 53.53 1.99 12.22 14.06 11.5 35.37-1.64 48.78-13.14 13.4-34.71 14.83-48.89 2.65-5.16-4.43-9.17-10.16-14.41-16.08zm11.01-11.7c5.59 5.1 9.89 9.31 14.5 13.17 7.36 6.18 17.93 5.73 24.43-.8 6.58-6.61 6.91-17.32.76-24.29-6.27-7.11-17.24-8.04-24.96-1.74-4.67 3.8-8.86 8.18-14.73 13.66zm-12.47 65.11c-8.23.22-15.6-2.31-22.02-7.32-4.91-3.83-5.82-8.76-2.83-13.07 2.94-4.23 8.04-5.31 13.25-1.9 8.02 5.25 15.5 5.23 23.49-.06 5.14-3.4 10.34-2.22 13.2 2.07 2.87 4.32 1.86 9.31-3.02 13.07-6.46 4.98-13.84 7.47-22.07 7.21z"/><path d="M99.91 75.33c-5.13.04-9.29-3.87-9.31-8.75-.02-4.86 4.16-9.1 9.04-9.15 4.9-.05 9.24 4.09 9.31 8.89.07 4.94-3.97 8.97-9.04 9.01z"/></g></svg>