<svg width="30" height="30" fill="none" xmlns="http://www.w3.org/2000/svg">
  <g clip-path="url(#cashfree-color-30px__clip0)">
    <path d="M28 0H2a2 2 0 00-2 2v26a2 2 0 002 2h26a2 2 0 002-2V2a2 2 0 00-2-2z" fill="#6E5397"/>
    <path d="M10.44 12.016l9.27.983s-.401 3.097-3.56 2.801c-3.157-.296-7.06-.753-7.06-.753l1.35-3.031z" fill="url(#cashfree-color-30px__paint0_linear)"/>
    <path d="M17.19 6.098l9.527 1.01s-.412 3.183-3.655 2.882a375.864 375.864 0 01-7.264-.77l1.392-3.122z" fill="url(#cashfree-color-30px__paint1_linear)"/>
    <path d="M10.942 12.103s-.631-.048-.776 1.468c-.144 1.516-.755 8.278-.755 8.278s-.22 3.15-3.356 3.032l1.05-10.853s.486-2.64 3.837-1.925z" fill="#F4C02F"/>
    <path d="M17.703 6.188s-.648-.049-.803 1.505c-.15 1.559-.777 8.515-.777 8.515s-.224 3.242-3.452 3.112l1.076-11.16c.005.006.514-2.703 3.956-1.972z" fill="#5BE8C9"/>
  </g>
  <defs>
    <linearGradient id="cashfree-color-30px__paint0_linear" x1="9.09" y1="13.919" x2="19.708" y2="13.919" gradientUnits="userSpaceOnUse">
      <stop stop-color="#F38A1D"/>
      <stop offset=".358" stop-color="#F4C02F"/>
    </linearGradient>
    <linearGradient id="cashfree-color-30px__paint1_linear" x1="15.798" y1="8.055" x2="26.715" y2="8.055" gradientUnits="userSpaceOnUse">
      <stop stop-color="#00A99D"/>
      <stop offset=".497" stop-color="#48E5C2"/>
    </linearGradient>
    <clipPath id="cashfree-color-30px__clip0">
      <path fill="#fff" d="M0 0h30v30H0z"/>
    </clipPath>
  </defs>
</svg>
