<svg width="200" height="200" fill="none" xmlns="http://www.w3.org/2000/svg"><path d="M200 0H0v200h200V0z" fill="#ADADAD"/><path d="M99.5 166c36.727 0 66.5-29.773 66.5-66.5C166 62.773 136.227 33 99.5 33 62.773 33 33 62.773 33 99.5c0 36.727 29.773 66.5 66.5 66.5z" fill="#393939"/><path d="M99.5 149.883c27.824 0 50.379-22.556 50.379-50.38 0-27.823-22.555-50.378-50.379-50.378-27.823 0-50.378 22.555-50.378 50.379 0 27.823 22.555 50.379 50.378 50.379z" fill="#fff"/><path d="M99.5 136.013c20.167 0 36.515-16.348 36.515-36.514 0-20.166-16.348-36.515-36.515-36.515-20.166 0-36.514 16.348-36.514 36.515 0 20.166 16.348 36.514 36.514 36.514z" fill="#393939"/><path d="M99.5 121.832c12.331 0 22.327-9.997 22.327-22.328 0-12.332-9.996-22.328-22.328-22.328-12.331 0-22.328 9.996-22.328 22.328 0 12.331 9.997 22.328 22.328 22.328z" fill="#D9001F"/></svg>