<svg width="200" height="200" viewBox="0 0 200 200" fill="none" xmlns="http://www.w3.org/2000/svg">
<path d="M100 200C44.8 200 0 155.2 0 100C0 44.8 44.8 0 100 0C155.2 0 200 44.8 200 100C200 155.2 155.2 200 100 200Z" fill="#BBBBBB"/>
<path d="M101.409 28.9C99.4589 31.375 96.2339 36.1 93.0839 40.975C86.7089 51.1 84.8339 56.125 84.8339 63.325C84.8339 74.8 91.3589 83.425 99.9839 83.425C108.609 83.425 115.209 75.175 115.209 64.3C115.209 54.4 109.134 46.45 101.634 46.45C101.334 46.45 100.959 46.45 100.434 46.525C103.659 40.6 108.309 33.775 112.434 28.9H101.409ZM99.9839 55.825C102.684 55.825 104.184 58.9 104.184 64.45C104.184 70 102.684 73.15 100.059 73.15C97.3589 73.15 95.8589 70.075 95.8589 64.3C95.8589 58.9 97.3589 55.825 99.9839 55.825ZM35.5226 152H46.5476L49.5476 131.975L58.7726 154.025L67.9976 131.975L71.7476 152H82.7726L71.2226 97.025L59.1476 128.975L47.0726 97.025L35.5226 152ZM125.487 152L104.262 97.025L82.5874 152H94.0624L96.8374 143.75H110.562L113.412 152H125.487ZM108.087 134.975H99.6124L103.812 122.225L108.087 134.975ZM135.819 152L144.594 134.675L153.369 152H165.369L150.444 123.65L163.869 98.9H152.319L145.119 113.375L137.844 98.9H125.844L139.119 124.25L124.344 152H135.819Z" fill="#FFFFFF"/>
</svg>
