<svg width="12" height="12" fill="none" xmlns="http://www.w3.org/2000/svg"><path d="M5.333 9.333c0 .367.3.667.667.667.367 0 .667-.3.667-.667 0-.366-.3-.666-.667-.666-.367 0-.667.3-.667.666zm0-9.333v2.667h1.334v-1.28A4.664 4.664 0 016 10.667 4.663 4.663 0 011.333 6c0-1.12.394-2.147 1.054-2.947L6 6.667l.94-.94-4.533-4.534v.014A5.969 5.969 0 000 6c0 3.313 2.68 6 6 6A6 6 0 106 0h-.667zM10 6c0-.367-.3-.667-.667-.667-.366 0-.666.3-.666.667 0 .367.3.667.666.667.367 0 .667-.3.667-.667zM2 6c0 .367.3.667.667.667.366 0 .666-.3.666-.667 0-.367-.3-.667-.666-.667C2.3 5.333 2 5.633 2 6z" fill="#BBB"/></svg>