<svg width="200" height="200" viewBox="0 0 200 200" fill="none" xmlns="http://www.w3.org/2000/svg">
<path d="M100 200C44.8 200 0 155.2 0 100C0 44.8 44.8 0 100 0C155.2 0 200 44.8 200 100C200 155.2 155.2 200 100 200Z" fill="#BBBBBB"/>
<path d="M49.8613 91H61.3363V74.275C71.5363 73.9 77.7613 66.925 77.7613 55.975C77.7613 44.35 71.0113 37.9 58.7863 37.9H49.8613V91ZM61.3363 48.4C64.8613 48.625 66.5863 51.175 66.5863 56.05C66.5863 60.925 64.8613 63.4 61.3363 63.7V48.4ZM83.2598 91H108.46V80.5H94.7348V37.9H83.2598V91ZM131.596 36.475C120.046 36.475 110.746 48.85 110.746 64.075C110.746 80.125 119.821 92.425 131.596 92.425C143.146 92.425 152.371 80.05 152.371 64.45C152.371 48.85 143.221 36.475 131.596 36.475ZM131.521 47.725C136.846 47.725 140.371 54.55 140.371 64.675C140.371 74.8 136.846 81.625 131.596 81.625C126.271 81.625 122.746 74.875 122.746 64.45C122.746 54.55 126.346 47.725 131.521 47.725ZM56.0503 161H67.5253V138.5H78.7003V161H90.1753V107.9H78.7003V128H67.5253V107.9H56.0503V161ZM107.44 107.9L94.9149 161H104.89L117.415 107.9H107.44ZM122.115 161H147.315V150.5H133.59V107.9H122.115V161Z" fill="#FFFFFF"/>
</svg>
