<svg enable-background="new 0 0 200 200" viewBox="0 0 200 200" xmlns="http://www.w3.org/2000/svg"><path d="m50.27 24.11h97.23c7.44 0 13.45 6.01 13.45 13.45v97.23c0 7.44-6.01 13.45-13.45 13.45h-97.23c-7.44 0-13.45-6.01-13.45-13.45v-97.23c.01-7.44 6.02-13.45 13.45-13.45z" fill="#00532c"/><path d="m137.91 123.35c-3.93-5.84 5.87-20.47 2.47-26.65-6.81-12.47-6.08-27.59-13.34-39.93-6.05-10.29-18.17-15.05-29.02-18.76-5.98-2.05-12.34-.66-15.22-.38-4.66.42-9.31.03-13.83-1.11-2.26-.59-8.24-2.64-10.32-1.04-1.01.76-1.98 4.27-2.19 5.53-.38 1.95.49 4.07 1.11 5.91 2.81 7.89 7.78 14.87 14.39 20.08 2.64 2.05 5 3.61 6.92 6.53 2.68 4.07 4.34 7.3 4.55 12.13.21 4.17 0 7.85-.07 12.02-.07 2.64-1.39 12.61-2.92 22.24l5.66 14.7-.28 13.66h61.61c7.44 0 13.45-6.01 13.45-13.45v-5.53c-2.75-5.11-19.7-1.12-22.97-5.95z" fill="#231f20"/><path d="m141.42 101.29c-.49-.31-.69-4.14-1.08-4.8-1.01-1.88-1.88-3.82-2.61-5.8-10.46 12.2-27.9 20.19-47.68 20.19-.59 0-6.95 0-7.51 0-1.46 17.17-10.11 31.45-21.89 37.39h86.87c7.44 0 13.45-6.01 13.45-13.45v-17.52c-4.75-.1-16.94-1.04-19.55-16.01z" fill="#231f20"/><path d="m42.77 140.93c-6.98 0-13.52-1.88-16.64-3.58l-.63-.35 3.09-12.51 1.04.52c4.31 2.19 9.07 3.37 13.9 3.44 5.18 0 8.13-1.91 8.13-5.25 0-2.99-2.26-4.76-8.97-7.16-10.81-3.75-16.3-9.73-16.3-17.72 0-10.84 9.07-18.14 22.55-18.14 5.14-.07 10.25.94 14.94 2.99l.76.31-3.41 12.23-1.01-.49c-3.61-1.74-7.54-2.64-11.54-2.61-4.48 0-7.37 1.81-7.37 4.55 0 2.88 2.5 4.34 9.97 7.16 10.53 3.89 15.43 9.59 15.43 17.9.07 5.07-2.12 9.87-5.98 13.17-4.17 3.63-10.39 5.54-17.96 5.54z" fill="#ecbe24"/><path d="m48.95 81.13c5-.1 9.97.9 14.56 2.88l-2.88 10.42c-3.72-1.81-7.82-2.75-11.95-2.71-5.59 0-8.3 2.54-8.3 5.49 0 3.65 3.23 5.25 10.6 8.06 10.08 3.75 14.84 8.97 14.84 17.03 0 9.56-7.37 17.69-23.04 17.69-6.53 0-12.96-1.7-16.19-3.47l2.64-10.67c4.45 2.26 9.35 3.47 14.35 3.58 5.94 0 9.07-2.47 9.07-6.19 0-3.54-2.71-5.59-9.56-8.06-9.49-3.3-15.71-8.55-15.71-16.85-.04-9.73 8.09-17.2 21.57-17.2m-.03-1.88c-6.92 0-12.79 1.88-17.03 5.39-4.1 3.37-6.46 8.37-6.43 13.69 0 8.44 5.7 14.7 16.92 18.63 6.98 2.5 8.3 4.14 8.3 6.29 0 1.29-.69 4.31-7.19 4.31-4.69-.1-9.28-1.25-13.45-3.34l-2.08-1.08-.56 2.29-2.64 10.67-.35 1.39 1.25.69c3.23 1.77 9.94 3.75 17.1 3.75 15.15 0 24.91-7.68 24.91-19.56 0-8.76-5.11-14.73-16.05-18.76-7.51-2.85-9.38-4.1-9.38-6.29s2.54-3.65 6.43-3.65c3.86 0 7.68.87 11.12 2.54l2.02.97.59-2.15 2.88-10.42.42-1.53-1.49-.66c-4.83-2.08-10.08-3.13-15.32-3.06z" fill="#231f20"/><path d="m102.64 140-3.61-13.97c-.56-2.26-1.01-4.41-1.49-6.81-.45 2.33-.94 4.52-1.6 6.81l-3.86 13.97h-12.1l-11.15-39.61h13.34l3.06 16.33c.42 2.15.9 4.73 1.36 7.54.59-2.68 1.22-5.25 1.74-7.47l4.07-16.4h10.42l3.82 15.91c.59 2.54 1.18 5.14 1.7 7.75.45-2.78.94-5.42 1.39-7.78l3.3-15.12h13.07l-11.54 38.88h-11.92z" fill="#ecbe24"/><path d="m124.88 101.63-11.19 37.63h-10.77l-3.41-13.1c-.9-3.65-1.53-7.02-2.29-11.57h-.14c-.52 3.93-1.29 7.78-2.29 11.61l-3.65 13.1h-10.77l-10.49-37.42h11.54l2.88 15.32c.73 3.89 1.49 8.06 2.08 12.34h.21c.73-4.31 1.77-8.58 2.68-12.27l3.86-15.39h8.93l3.65 14.94c.97 4.2 1.91 8.44 2.68 12.72h.21c.52-4.31 1.25-8.51 2.08-12.79l3.13-14.87h11.29m2.49-2.99h-15.36l-.31 2.22-3.13 14.94c-.17.97-.38 2.02-.59 3.09-.24-1.01-.45-2.05-.69-3.06l-3.65-15.05-.35-1.42h-11.95l-.35 1.39-3.86 15.39c-.24.94-.45 1.95-.73 2.99-.21-1.04-.38-2.05-.56-2.99l-2.88-15.29-.28-1.49h-15.46l.66 2.36 10.53 37.42.38 1.36h13.52l.38-1.11 3.65-13.24c.24-.87.45-1.7.66-2.54.17.8.38 1.63.59 2.47l3.44 13.27.38 1.88h13.31l.42-1.39 11.5-38.71.76-2.47z" fill="#231f20"/><path d="m158.07 140.93c-19.01 0-30.82-11.29-30.82-29.47 0-18.69 12.89-31.27 32.11-31.27 6.92 0 12.13 1.42 14.49 2.64l.66.35-3.09 12.02-1.01-.42c-3.34-1.36-6.88-2.05-10.46-2.05-10.81 0-17.27 6.74-17.27 17.93 0 11.08 6.5 17.69 17.37 17.69 3.54 0 7.05-.63 10.42-1.81l1.04-.42 2.29 11.88-.63.31c-2.39 1.23-7.77 2.62-15.1 2.62z" fill="#ecbe24"/><path d="m159.32 81.13c6.74 0 11.78 1.36 14.07 2.54l-2.64 10.25c-3.44-1.42-7.12-2.15-10.84-2.12-10.25 0-18.21 6.19-18.21 18.9 0 11.43 6.78 18.63 18.31 18.63 3.68 0 7.3-.63 10.77-1.88l1.95 10.08c-2.36 1.18-7.71 2.47-14.66 2.47-19.74 0-29.92-12.27-29.92-28.53 0-19.5 13.9-30.37 31.17-30.34m0-1.88c-9.14 0-17.44 2.99-23.32 8.34-6.36 5.8-9.73 14.04-9.73 23.84 0 8.79 2.78 16.3 8.1 21.68 5.59 5.7 13.8 8.72 23.7 8.72 7.51 0 13.03-1.42 15.5-2.64l1.29-.63-.28-1.39-1.95-10.08-.42-2.26-2.08.83c-3.23 1.15-6.64 1.74-10.08 1.74-10.29 0-16.44-6.25-16.44-16.75 0-10.67 6.12-17.03 16.33-17.03 3.47-.03 6.92.66 10.11 1.98l1.98.83.52-2.08 2.64-10.25.38-1.42-1.31-.68c-2.43-1.29-7.82-2.75-14.94-2.75z" fill="#231f20"/><path d="m36.62 174.88v-21.54l.76-.14c1.95-.28 3.89-.42 5.84-.42h.56c3.02 0 5.25.59 6.81 1.81 1.67 1.32 2.57 3.3 2.54 5.39.07 1.98-.73 3.96-2.15 5.42-1.67 1.56-4.17 2.4-7.3 2.4-.21 0-.45 0-.66 0v7.09h-6.4zm6.43-12.51h.45.17c1.91 0 2.99-.87 2.99-2.36 0-1.36-.87-2.02-2.64-2.02h-.14c-.28 0-.56 0-.83.03z" fill="#ecbe24"/><path d="m43.26 153.3h.56c2.92 0 5.04.56 6.46 1.7 1.49 1.22 2.36 3.02 2.33 4.93.07 1.88-.66 3.72-1.98 5.04-1.56 1.46-3.96 2.22-6.88 2.22-.45 0-.83 0-1.18-.03v7.16h-5.39v-20.54l.31-.07c1.91-.27 3.82-.41 5.77-.41m-.73 9.56c.35.03.69.07 1.01.07h.17c2.22 0 3.51-1.08 3.51-2.88 0-1.67-1.11-2.57-3.16-2.57-.03 0-.1 0-.14 0-.45 0-.94.03-1.39.1zm.73-10.63c-1.98 0-3.96.14-5.91.45l-.35.07-.9.14v.9 20.54 1.08h1.08 5.35 1.08v-1.08-6.01h.1c3.23 0 5.87-.87 7.64-2.5 1.53-1.53 2.36-3.65 2.29-5.8.03-2.26-.97-4.34-2.75-5.77-1.67-1.32-4-1.95-7.16-1.95-.13-.07-.3-.07-.47-.07zm.34 6.32h.31.14c2.12 0 2.12 1.04 2.12 1.49 0 1.49-1.32 1.81-2.43 1.81h-.1v-3.3z"/><path d="m72.17 175.34c-6.22 0-10.39-4.48-10.39-11.15 0-6.64 4.52-11.47 10.7-11.47 7.23 0 10.49 5.56 10.49 11.08-.03 7.02-4.27 11.54-10.8 11.54zm.2-17.27c-2.4 0-3.93 2.33-3.93 5.91s1.53 5.8 3.96 5.8c2.4 0 3.93-2.26 3.93-5.91-.03-2.82-1.24-5.8-3.96-5.8z" fill="#ecbe24"/><path d="m72.48 153.27c6.88 0 9.94 5.32 9.94 10.56 0 6.67-4.03 10.98-10.29 10.98-5.87 0-9.83-4.27-9.83-10.6.03-6.35 4.2-10.94 10.18-10.94m-.07 17.03c2.75 0 4.45-2.54 4.45-6.46 0-3.06-1.39-6.32-4.48-6.32-2.71 0-4.48 2.54-4.48 6.46s1.76 6.32 4.51 6.32m.07-18.11c-6.53 0-11.26 5.04-11.26 11.99 0 6.98 4.38 11.71 10.91 11.71 6.88 0 11.33-4.73 11.36-12.06 0-3.06-.94-5.87-2.64-7.92-1.98-2.43-4.86-3.72-8.37-3.72zm-.07 17.03c-2.54 0-3.44-2.71-3.44-5.25 0-3.27 1.32-5.35 3.41-5.35 2.33 0 3.41 2.71 3.41 5.25-.01 2.57-.91 5.35-3.38 5.35z"/><path d="m104.93 174.88-4.58-7.92-.7.83v7.09h-6.43v-21.75h6.43v6.74l4.69-6.74h8.03l-7.51 9.45 7.65 12.3z" fill="#ecbe24"/><path d="m111.26 153.69-7.05 8.86 7.3 11.78h-6.29l-4.8-8.3-1.32 1.56v6.74h-5.35v-20.64h5.35v7.99l.76-1.18 4.73-6.81zm2.26-1.08h-2.22-6.67-.56l-.31.45-3.54 5.11v-4.48-1.08h-1.08-5.35-1.09v1.08 20.64 1.08h1.08 5.35 1.08v-1.08-6.36l.07-.07 4.03 6.95.31.56h.63 6.29 1.95l-1.04-1.67-6.92-11.12 6.57-8.27z"/><path d="m119.98 174.88v-21.75h14.07v5.7h-7.64v1.98h7.64v5.66h-7.64v2.75h8.41v5.66z" fill="#ecbe24"/><path d="m133.53 153.69v4.59h-7.64v3.06h7.64v4.59h-7.64v3.82h8.41v4.59h-13.76v-20.64zm1.08-1.08h-1.08-13-1.08v1.08 20.64 1.08h1.08 13.76 1.08v-1.08-4.59-1.08h-1.08-7.33v-1.66h6.57 1.08v-1.08-4.59-1.08h-1.08-6.57v-.9h6.57 1.08v-1.08-4.59z"/><path d="m155.77 174.88-.24-.45c-.66-1.56-1.15-3.16-1.46-4.8-.49-2.26-1.11-2.36-2.26-2.4h-.14v7.64h-6.43v-20.85l.76-.14c1.91-.28 3.82-.42 5.73-.42h.28c3.23 0 5.35.52 6.85 1.74 1.42 1.18 2.22 2.95 2.12 4.8 0 1.98-1.01 3.79-2.64 4.9.76.73 1.36 1.84 1.77 3.34l.49 1.84c.28 1.22.63 2.4 1.04 3.51l.63 1.25h-6.5zm-3.23-12.54c.8 0 2.68-.21 2.68-1.98 0-.8-.24-1.84-2.43-1.88h-.14c-.35 0-.66 0-1.01.03v3.82h.9z" fill="#ecbe24"/><path d="m151.71 154h.28c3.09 0 5.11.49 6.53 1.6 1.29 1.08 2.02 2.68 1.95 4.34-.03 2.05-1.18 3.93-3.02 4.86 1.01.66 1.7 1.81 2.22 3.54.17.59.35 1.22.49 1.84.28 1.22.63 2.4 1.08 3.58l.28.52h-5.35l-.1-.17c-.63-1.49-1.08-3.06-1.39-4.62-.52-2.4-1.29-2.81-2.78-2.85h-.69v7.64h-5.35v-19.88l.31-.03c1.78-.23 3.66-.37 5.54-.37m-.59 8.86h1.39c2.02 0 3.23-.94 3.23-2.5s-1.01-2.4-2.95-2.43c-.03 0-.1 0-.14 0-.52 0-1.04.03-1.53.1zm.59-9.94c-1.95 0-3.89.14-5.77.42l-.35.07-.9.14v.9 19.88 1.08h1.08 5.35 1.08v-1.08-6.57c.66.03 1.01.31 1.36 1.98.31 1.63.8 3.27 1.46 4.83l.03.07.03.07.1.17.31.56h.63 5.35 1.74l-.8-1.56-.24-.49c-.42-1.11-.73-2.26-1.01-3.37v-.03-.03c-.17-.59-.35-1.25-.49-1.84-.38-1.32-.87-2.36-1.49-3.13 1.46-1.22 2.33-3.02 2.36-4.97.1-2.02-.76-3.96-2.33-5.21-1.63-1.29-3.82-1.84-7.19-1.84zm.48 6.08h.45.14c1.88.03 1.88.87 1.88 1.36 0 1.18-1.18 1.42-2.15 1.42h-.31z"/></svg>