<svg width="60" height="60" fill="none" xmlns="http://www.w3.org/2000/svg"><g opacity=".7"><path d="M30 60c16.569 0 30-13.431 30-30C60 13.431 46.569 0 30 0 13.431 0 0 13.431 0 30c0 16.569 13.431 30 30 30z" fill="url(#paint0_linear)"/><path d="M30 60c16.569 0 30-13.431 30-30C60 13.431 46.569 0 30 0 13.431 0 0 13.431 0 30c0 16.569 13.431 30 30 30z" fill="#FAC37E"/><path d="M30 56c14.36 0 26-11.64 26-26S44.36 4 30 4 4 15.64 4 30s11.64 26 26 26z" fill="url(#paint1_linear)"/><path d="M22.785 44.434c2.719 0 4.969-2.25 4.969-4.968v-4.407h4.687v4.407c0 2.718 2.25 4.968 4.97 4.968H22.784z" fill="url(#paint2_linear)"/><path d="M22.785 44.435H37.41v2.625H22.785v-2.625z" fill="url(#paint3_linear)"/><path d="M22.029 32.249L28.497 5.53c.282-.937 1.22-1.594 2.25-1.312l17.625 4.218c.938.282 1.594 1.219 1.313 2.25l-6.469 26.719c-.281.938-1.219 1.594-2.25 1.313l-17.625-4.22c-.937-.28-1.594-1.312-1.312-2.25z" fill="#FC9A13"/><path d="M38.06 32.249L31.59 5.436c-.281-.937-1.219-1.593-2.25-1.312L11.81 8.343c-.938.28-1.594 1.218-1.313 2.25l6.375 26.718c.282.938 1.22 1.594 2.25 1.313l17.625-4.219c.938-.188 1.594-1.219 1.313-2.156z" fill="#FC9A13"/><path opacity=".1" d="M43.687 7.22v27.844l-.562 2.157c0 .093 0 .093-.094.187-.187.563-.562.938-1.031 1.125-.375.188-.75.188-1.125.094L23.25 34.408c-1.031-.281-1.594-1.219-1.313-2.156l6.47-26.719c.28-1.031 1.218-1.594 2.25-1.312l13.03 3z" fill="#000"/><path opacity=".1" d="M36.748 34.405l-17.625 4.219c-.375.093-.844.093-1.125-.094-.469-.188-.844-.563-1.031-1.125 0-.094 0-.094-.094-.188l-.563-2.156V7.218l13.032-3.094c.937-.281 1.969.375 2.25 1.312l6.468 26.719c.282 1.031-.375 2.063-1.312 2.25z" fill="#000"/><path d="M18.28 35.438V5.625c0-1.125.843-1.969 1.968-1.969h19.594c1.125 0 1.968.844 1.968 1.969v29.813c0 1.124-.843 1.968-1.968 1.968H20.248c-1.125 0-1.969-.843-1.969-1.968z" fill="url(#paint4_linear)"/><path d="M30.454 24.104c.375.844 1.312 1.406 2.25 1.5.937.094 1.875-.375 2.437-1.125.75-1.125.563-2.719-.187-3.938-.657-1.218-1.782-2.062-2.719-3.093-.938-.938-1.875-2.063-2.156-3.469-.282 1.313-1.219 2.438-2.157 3.469-.937.937-2.062 1.875-2.718 3.093-.657 1.22-.938 2.813-.188 3.938.563.75 1.5 1.219 2.438 1.125a2.922 2.922 0 0 0 2.25-1.5h.75z" fill="#EA581F"/><path d="M30.174 23.073c.094.937.469 1.875 1.125 2.531.187.188.375.375.562.656.094.281.188.656-.093.75-.375.188-3 .188-3.375 0-.282-.094-.188-.469-.094-.75s.375-.469.562-.656c.657-.656 1.032-1.594 1.125-2.531h.188zm7.775-16.96h.657l.656 3.75h-.563l-.093-.657h-.657l-.093.656h-.563l.656-3.75zm.563 2.624l-.282-1.875-.28 1.875h.562zM22.105 35.071h-.656l-.656-3.75h.563l.093.656h.656l.094-.656h.563l-.657 3.75zm-.562-2.719l.281 1.875.281-1.875h-.562z" fill="#EA581F"/><path d="M40.219 49.031v9.188C37.03 59.344 33.562 60 30 60c-3.563 0-6.938-.656-10.125-1.781v-9.282c0-1.03.844-1.968 1.875-1.968h16.406c1.125.093 2.063.937 2.063 2.062z" fill="url(#paint5_linear)"/></g><defs><linearGradient id="paint0_linear" x1="30" x2="30" y2="60" gradientUnits="userSpaceOnUse"><stop stop-color="#0BD3E3"/><stop offset="1" stop-color="#BADE58"/></linearGradient><linearGradient id="paint1_linear" x1="23.575" y1="-4.581" x2="66.914" y2="27.102" gradientUnits="userSpaceOnUse"><stop stop-color="#4AB272"/><stop offset="1" stop-color="#077565"/></linearGradient><linearGradient id="paint2_linear" x1="30.041" y1="35.057" x2="30.041" y2="44.466" gradientUnits="userSpaceOnUse"><stop offset="0" stop-color="#FECC2B"/><stop offset="1" stop-color="#FC9A13"/></linearGradient><linearGradient id="paint3_linear" x1="30.041" y1="44.467" x2="30.041" y2="47.078" gradientUnits="userSpaceOnUse"><stop offset="0" stop-color="#FECC2B"/><stop offset="1" stop-color="#FC9A13"/></linearGradient><linearGradient id="paint4_linear" x1="30.035" y1="4.873" x2="30.035" y2="37.56" gradientUnits="userSpaceOnUse"><stop offset="0" stop-color="#FDD897"/><stop offset="1" stop-color="#FC9A13"/></linearGradient><linearGradient id="paint5_linear" x1="30.039" y1="43.266" x2="30.039" y2="60.1" gradientUnits="userSpaceOnUse"><stop stop-color="#0BD3E3"/><stop offset="1" stop-color="#017CCC"/></linearGradient></defs></svg>