<svg width="20" height="20" viewBox="0 0 20 20" xmlns="http://www.w3.org/2000/svg">
<path d="M9.6875 8.75H11.25C11.5952 8.75 11.875 8.47015 11.875 8.125C11.875 7.77984 11.5952 7.5 11.25 7.5H9.6875C8.82594 7.5 8.125 8.20094 8.125 9.0625C8.125 9.92406 8.82594 10.625 9.6875 10.625H10.3125C10.4848 10.625 10.625 10.7652 10.625 10.9375C10.625 11.1098 10.4848 11.25 10.3125 11.25H8.75C8.40484 11.25 8.125 11.5298 8.125 11.875C8.125 12.2201 8.40484 12.5 8.75 12.5H10.3125C11.1741 12.5 11.875 11.7991 11.875 10.9375C11.875 10.0759 11.1741 9.375 10.3125 9.375C10.0939 9.375 9.90609 9.375 9.6875 9.375C9.51519 9.375 9.375 9.2348 9.375 9.0625C9.375 8.89019 9.51519 8.75 9.6875 8.75Z" />
<path d="M15 7.5C13.9661 7.5 13.125 8.34113 13.125 9.375V11.875C13.125 12.2201 13.4048 12.5 13.75 12.5C14.0952 12.5 14.375 12.2201 14.375 11.875V11.25H15.625V11.875C15.625 12.2201 15.9048 12.5 16.25 12.5C16.5952 12.5 16.875 12.2201 16.875 11.875V9.375C16.875 8.34113 16.0339 7.5 15 7.5ZM14.375 9.99999V9.375C14.375 9.03039 14.6554 8.75 15 8.75C15.3446 8.75 15.625 9.03039 15.625 9.375V9.99999H14.375Z" />
<path d="M6.24999 7.5C5.90484 7.5 5.625 7.77984 5.625 8.125V10.625C5.625 10.9696 5.34461 11.25 5 11.25C4.65539 11.25 4.375 10.9696 4.375 10.625V8.125C4.375 7.77984 4.09515 7.5 3.75 7.5C3.40484 7.5 3.125 7.77984 3.125 8.125V10.625C3.125 11.6589 3.96613 12.5 5 12.5C6.03386 12.5 6.87499 11.6589 6.87499 10.625V8.125C6.87499 7.77984 6.59519 7.5 6.24999 7.5Z" />
<path d="M19.9846 9.43393C19.6956 4.18538 15.3402 0 10.0001 0C4.30481 0 -0.30354 4.76999 0.015639 10.5661C0.30599 15.8388 4.67926 20 10.0001 20C15.7062 20 20.3034 15.2223 19.9846 9.43393ZM18.0488 13.4375C17.5327 13.4375 2.25466 13.4375 1.95142 13.4375C0.983957 11.1786 1.04892 8.67018 1.95138 6.56249H18.0488C18.9728 8.72182 18.9963 11.2232 18.0488 13.4375ZM14.0626 17.7516C13.4799 18.0575 12.865 18.2991 12.202 18.4707C12.1805 18.4763 12.1876 18.7672 12.1876 14.6875H14.0626V17.7516ZM7.81262 18.4743C7.18082 18.3125 6.55223 18.0736 5.95102 17.7588C5.93149 17.7485 5.93762 17.981 5.93762 14.6875H7.81262V18.4743ZM10.0001 1.25C12.997 1.25 15.7969 2.81617 17.3892 5.31249H2.6111C4.20352 2.81609 7.00328 1.25 10.0001 1.25ZM2.60915 14.6875H4.68762V16.9543C3.86501 16.3266 3.16313 15.5613 2.60915 14.6875ZM9.06261 18.6998V14.6875H10.9376V18.6998C10.3161 18.7656 9.68398 18.7656 9.06261 18.6998ZM15.3126 16.9543V14.6875H17.391C16.837 15.5613 16.1352 16.3266 15.3126 16.9543V16.9543Z" />
<path d="M13.4375 4.37501C13.7827 4.37501 14.0625 4.09519 14.0625 3.75001C14.0625 3.40482 13.7827 3.125 13.4375 3.125C13.0923 3.125 12.8125 3.40482 12.8125 3.75001C12.8125 4.09519 13.0923 4.37501 13.4375 4.37501Z" />
<path d="M10 3.75001C10.3452 3.75001 10.625 3.47019 10.625 3.12501C10.625 2.77982 10.3452 2.5 10 2.5C9.65482 2.5 9.375 2.77982 9.375 3.12501C9.375 3.47019 9.65482 3.75001 10 3.75001Z" />
<path d="M6.56251 4.37501C6.90769 4.37501 7.18751 4.09519 7.18751 3.75001C7.18751 3.40482 6.90769 3.125 6.56251 3.125C6.21732 3.125 5.9375 3.40482 5.9375 3.75001C5.9375 4.09519 6.21732 4.37501 6.56251 4.37501Z" />
</svg>
