<svg width="17" height="16" viewBox="0 0 17 16" fill="none" xmlns="http://www.w3.org/2000/svg">
<path d="M2.35306 8.49023L0.00390625 8.49914C0.071125 9.59842 0.359281 10.6554 0.847625 11.6182L2.88194 10.4346C2.59625 9.83652 2.41259 9.18089 2.35306 8.49023Z" fill="#FF8366"/>
<path d="M7.99981 3.26855C5.39153 3.26855 3.26953 5.39055 3.26953 7.99884C3.26953 10.6071 5.39153 12.7291 7.99981 12.7291C10.6081 12.7291 12.7301 10.6071 12.7301 7.99884C12.7301 5.39055 10.6081 3.26855 7.99981 3.26855ZM10.2033 9.27827C9.90534 9.76487 9.44194 10.0351 8.89847 10.0391C8.75328 10.0404 8.60925 10.0221 8.46934 9.98559V10.5341H7.53034V9.98543C7.39428 10.0208 7.25431 10.0392 7.11344 10.0392C7.10938 10.0392 7.10534 10.0392 7.10125 10.0391C6.55772 10.0351 6.09431 9.7649 5.79641 9.27831C5.49347 8.78349 5.48378 8.17512 5.77044 7.65087C5.97459 7.27755 6.284 6.98646 6.55694 6.72962C6.60188 6.68737 6.64638 6.64549 6.68981 6.6038C6.85819 6.44215 7.02716 6.28762 7.19063 6.13818C7.34991 5.99259 7.51459 5.84199 7.67469 5.68827L7.99991 5.37602L8.32512 5.68827C8.48519 5.84202 8.64991 5.99255 8.80919 6.13818C8.97263 6.28762 9.14163 6.44212 9.31 6.6038C9.35344 6.64552 9.39797 6.6874 9.44287 6.72965C9.71584 6.98646 10.0252 7.27755 10.2293 7.65084H10.2293C10.5159 8.17509 10.5062 8.78346 10.2033 9.27827Z" fill="#FF8366"/>
<path d="M10.4293 13.1211C9.83097 13.406 9.17513 13.5889 8.48438 13.6476L8.49031 15.9967C9.58981 15.9308 10.6472 15.6441 11.6105 15.157L10.4293 13.1211Z" fill="#FF8366"/>
<path d="M9.40555 8.10107C9.27309 7.85882 9.03237 7.63229 8.79952 7.41323C8.75227 7.36876 8.70543 7.3247 8.65974 7.2808C8.49965 7.12705 8.33493 6.97651 8.17565 6.83086C8.11771 6.77789 8.05906 6.7243 8.00003 6.66992C7.94096 6.72427 7.88231 6.77786 7.8244 6.83086C7.66512 6.97645 7.50043 7.12705 7.34034 7.2808C7.29465 7.32464 7.24784 7.3687 7.20059 7.41317C6.96775 7.63226 6.727 7.85879 6.59447 8.10111C6.4675 8.33332 6.46856 8.57713 6.5974 8.78767C6.72681 8.99901 6.88918 9.0982 7.10843 9.09985C7.24862 9.10101 7.38778 9.05982 7.51259 8.9811L8.00003 8.67573L8.48627 8.98032C8.61221 9.05979 8.75171 9.10088 8.89165 9.09982C9.11087 9.0982 9.27324 8.99898 9.40265 8.78763C9.53152 8.57717 9.53255 8.33332 9.40555 8.10107Z" fill="#FF8366"/>
<path d="M7.54422 13.6497C6.85291 13.5945 6.19628 13.4146 5.59663 13.1328L4.42578 15.1747C5.39125 15.6566 6.44994 15.9383 7.55016 15.9987L7.54422 13.6497Z" fill="#FF8366"/>
<path d="M8.46875 0V2.34909C9.15978 2.40603 9.816 2.58741 10.415 2.87078L11.5911 0.831781C10.6267 0.347219 9.56866 0.063125 8.46875 0Z" fill="#FF8366"/>
<path d="M0.820219 4.43457C0.339563 5.40051 0.0590625 6.45951 0 7.55991L2.34903 7.55101C2.40334 6.85957 2.58247 6.20276 2.86347 5.60279L0.820219 4.43457Z" fill="#FF8366"/>
<path d="M3.56362 1.32471C3.12697 1.61639 2.71581 1.95327 2.33606 2.33296C1.93922 2.7298 1.58963 3.16124 1.28906 3.62002L3.33216 4.78814C3.71613 4.23143 4.19684 3.74643 4.75 3.35768L3.56362 1.32471Z" fill="#FF8366"/>
<path d="M3.35475 11.2451L1.32031 12.4289C1.61328 12.8687 1.95194 13.2828 2.33412 13.6649C2.72853 14.0593 3.15706 14.4071 3.61266 14.7064L4.78341 12.6647C4.22719 12.2801 3.74281 11.7987 3.35475 11.2451Z" fill="#FF8366"/>
<path d="M12.6597 11.2217C12.2743 11.7774 11.7924 12.2611 11.2383 12.6485L12.4194 14.6844C12.8624 14.3901 13.2794 14.0497 13.664 13.6651C14.0559 13.2731 14.4018 12.8474 14.6999 12.395L12.6597 11.2217Z" fill="#FF8366"/>
<path d="M4.37109 0.85025L5.55728 2.88291C6.16328 2.59247 6.82859 2.40684 7.52956 2.34909V0C6.41594 0.0639063 5.34519 0.354594 4.37109 0.85025Z" fill="#FF8366"/>
<path d="M15.1626 4.39795L13.125 5.57664C13.4091 6.17536 13.5913 6.83139 13.6491 7.52229L15.9982 7.51932C15.9337 6.41964 15.6483 5.36182 15.1626 4.39795Z" fill="#FF8366"/>
<path d="M13.6521 8.46098C13.596 9.15213 13.4154 9.80857 13.1328 10.4079L15.1733 11.5814C15.6564 10.6164 15.9393 9.55807 16.0011 8.45801L13.6521 8.46098Z" fill="#FF8366"/>
<path d="M13.668 2.33317C13.2784 1.94364 12.8557 1.59958 12.4064 1.30273L11.2305 3.34152C11.7857 3.72755 12.2688 4.21008 12.6555 4.76477L14.6929 3.58623C14.3973 3.14011 14.055 2.72023 13.668 2.33317Z" fill="#FF8366"/>
</svg>
