<svg width="200" height="200" viewBox="0 0 200 200" fill="none" xmlns="http://www.w3.org/2000/svg">
<g clip-path="url(#clip0)">
<path d="M100 200C44.8 200 0 155.2 0 100C0 44.8 44.8 0 100 0C155.2 0 200 44.8 200 100C200 155.2 155.2 200 100 200Z" fill="white"/>
<path d="M100 0C88.4 0 76.4 2.1 65.7 6L70.2 18.2C79.7 14.8 89.7 13 100 13V0ZM35.6 23.5C26.7 31 19.1 40.1 13.3 50.2L24.6 56.7C29.7 47.9 36.2 40 44 33.4L35.6 23.5ZM1.4 83C0.5 88.6 0 94.3 0 100C0 106 0.5 112 1.6 117.8L14.4 115.5C12.6 105.6 12.6 95.1 14.3 85.2L1.4 83ZM24.9 143.9L13.7 150.5C19.6 160.6 27.3 169.6 36.3 177L44.6 167C36.7 160.5 30 152.7 24.9 143.9ZM70.8 182L66.4 194.2C77.4 198.1 89.1 200.1 100.7 200L100.6 187C90.5 187.1 80.4 185.4 70.8 182ZM156.6 166.1C148.8 172.8 140.1 178 130.5 181.5L135.1 193.7C146.1 189.6 156.2 183.6 165.1 176L156.6 166.1ZM185.9 114.1C184.3 124.2 180.9 133.8 175.9 142.7L187.2 149.1C192.8 139.1 196.8 128 198.7 116.2L185.9 114.1ZM185.9 48.8L174.7 55.5C179.9 64.3 183.6 73.8 185.4 83.8L198.2 81.4C196.1 69.7 191.9 58.9 185.9 48.8ZM132.7 5.5L128.4 17.8C138 21.1 146.9 26.1 154.8 32.6L163 22.5C154.1 15.1 143.8 9.3 132.7 5.5Z" fill="#358BC3"/>
<path d="M100 188C51.4483 188 12 148.552 12 100C12 51.4483 51.4483 12 100 12C148.552 12 188 51.4483 188 100C188 148.552 148.552 188 100 188Z" fill="url(#paint0_radial)"/>
<path d="M56.5465 93H66.4915V78.505C75.3315 78.18 80.7265 72.135 80.7265 62.645C80.7265 52.57 74.8765 46.98 64.2815 46.98H56.5465V93ZM66.4915 56.08C69.5465 56.275 71.0415 58.485 71.0415 62.71C71.0415 66.935 69.5465 69.08 66.4915 69.34V56.08ZM85.4918 93H107.332V83.9H95.4368V46.98H85.4918V93ZM127.383 45.745C117.373 45.745 109.313 56.47 109.313 69.665C109.313 83.575 117.178 94.235 127.383 94.235C137.393 94.235 145.388 83.51 145.388 69.99C145.388 56.47 137.458 45.745 127.383 45.745ZM127.318 55.495C131.933 55.495 134.988 61.41 134.988 70.185C134.988 78.96 131.933 84.875 127.383 84.875C122.768 84.875 119.713 79.025 119.713 69.99C119.713 61.41 122.833 55.495 127.318 55.495ZM61.9103 153H71.8553V133.5H81.5403V153H91.4853V106.98H81.5403V124.4H71.8553V106.98H61.9103V153ZM106.448 106.98L95.5929 153H104.238L115.093 106.98H106.448ZM119.166 153H141.006V143.9H129.111V106.98H119.166V153Z" fill="white"/>
</g>
<defs>
<radialGradient id="paint0_radial" cx="0" cy="0" r="1" gradientUnits="userSpaceOnUse" gradientTransform="translate(12 12) rotate(45) scale(248.902)">
<stop stop-color="#6CBBF0"/>
<stop offset="1" stop-color="#2980B9"/>
</radialGradient>
<clipPath id="clip0">
<rect width="200" height="200" fill="white"/>
</clipPath>
</defs>
</svg>
