<svg width="20" height="20" fill="none" xmlns="http://www.w3.org/2000/svg"><path d="M19.61 6.118a.586.586 0 0 0-.001-1.104l-9.414-3.322a.586.586 0 0 0-.39 0L.391 5.014A.586.586 0 0 0 .39 6.118l3.729 1.326v3.822c0 .631.658 1.165 1.956 1.586 1.131.367 2.525.57 3.925.57s2.794-.203 3.925-.57c1.298-.421 1.956-.955 1.956-1.586V7.444l1.54-.547v5.296a1.765 1.765 0 0 0-1.177 1.662c0 .767.492 1.42 1.177 1.662v2.238a.586.586 0 1 0 1.172 0v-2.237a1.765 1.765 0 0 0 1.177-1.663c0-.766-.492-1.42-1.177-1.662V6.48l1.017-.362zm-1.603 8.328a.592.592 0 1 1 .001-1.183.592.592 0 0 1-.001 1.183zM10 2.866l7.659 2.703L10 8.29 2.341 5.568 10 2.866zm4.71 8.312c-.113.113-.515.384-1.423.643-.968.276-2.135.428-3.287.428-1.152 0-2.32-.152-3.287-.428-.908-.259-1.31-.53-1.422-.643V7.861l4.513 1.604a.586.586 0 0 0 .392 0l4.513-1.604v3.317z" opacity=".7"/></svg>