<svg width="200" height="200" fill="none" xmlns="http://www.w3.org/2000/svg"><path d="M200 0H0v200h200V0z" fill="#C42126"/><path d="M86.793 130.896C66.122 130.896 49 116.729 49 98.5V36.52c0-3.333 3.132-5.52 6.264-5.52 8.874 0 17.017 6.458 17.017 14.583v23.334c5.742-3.334 12.737-5.105 17.853-5.105h23.282c20.462 0 37.584 14.376 37.584 32.605v1.979C151 116.625 133.878 131 113.416 131H86.793v-.104zm25.057-48.333H91.805c-12.32 0-19.315 6.77-19.315 15.104v.937c0 7.5 6.682 13.958 15.87 13.958h23.594c9.187 0 15.869-6.25 15.869-13.958v-1.979c-.104-7.813-6.682-14.063-15.973-14.063zm-59.44 79.714c-4.595 0-8.41-3.159-8.41-7.221v-13.825c0-.739.697-1.231 1.395-1.231 1.97 0 3.774 1.436 3.774 3.241v5.21c1.272-.738 2.831-1.148 3.98-1.148h5.169c4.554 0 8.37 3.2 8.37 7.261v.451c0 4.062-3.816 7.262-8.37 7.262H52.41zm5.58-10.79h-4.472c-2.749 0-4.308 1.518-4.308 3.364v.205c0 1.682 1.477 3.118 3.528 3.118h5.252c2.051 0 3.528-1.395 3.528-3.118v-.451c0-1.723-1.477-3.118-3.528-3.118z" fill="#fff"/><path d="M74.687 162.275c-4.595 0-8.41-3.077-8.41-7.056v-.452c0-3.938 3.815-7.056 8.41-7.056h5.907c4.554 0 8.37 3.077 8.37 7.056v.452c0 3.938-3.816 7.056-8.37 7.056h-5.907zm5.58-10.462h-5.293c-2.093 0-3.528 1.354-3.528 2.995v.452c0 1.641 1.477 2.994 3.528 2.994h5.251c2.051 0 3.528-1.353 3.528-2.994v-.452c.041-1.641-1.477-2.995-3.487-2.995z" fill="#fff"/><path d="M96.923 162.277c-4.595 0-8.41-3.2-8.41-7.262v-.41c0-4.061 3.815-7.261 8.41-7.261h5.169c1.149 0 2.708.41 3.939 1.148v-5.251c0-1.805 1.805-3.241 3.815-3.241.697 0 1.354.492 1.354 1.231v13.825c0 4.062-3.816 7.262-8.369 7.262h-5.908v-.041zm4.759-10.79h-4.43c-2.093 0-3.53 1.395-3.53 3.118v.451c0 1.682 1.478 3.118 3.53 3.118h5.25c2.052 0 3.529-1.395 3.529-3.118v-.205c0-1.846-1.559-3.364-4.349-3.364z" fill="#fff"/><path d="M119.486 162.275c-4.594 0-8.41-3.077-8.41-7.056v-.452c0-3.938 3.816-7.056 8.41-7.056h5.908c4.554 0 8.369 3.077 8.369 7.056v.452c0 3.938-3.815 7.056-8.369 7.056h-5.908zm5.58-10.462h-5.251c-2.093 0-3.529 1.354-3.529 2.995v.452c0 1.641 1.477 2.994 3.529 2.994h5.251c2.051 0 3.528-1.353 3.528-2.994v-.452c0-1.641-1.477-2.995-3.528-2.995z" fill="#fff"/><path d="M146.892 162.646h-5.169c-4.595 0-8.411-3.2-8.411-7.22v-.452c0-4.02 3.816-7.22 8.411-7.22h5.907c4.554 0 8.37 3.2 8.37 7.22v5.949c0 4.021-3.816 7.221-8.37 7.221h-7.261c-1.682 0-3.528-1.436-3.528-2.913 0-.739.656-1.231 1.354-1.231h9.066c1.764 0 3.118-1.067 3.446-2.462-1.189.698-2.707 1.108-3.815 1.108zm.41-10.749h-5.251c-2.092 0-3.528 1.395-3.528 3.077v.452c0 1.682 1.477 3.077 3.528 3.077h4.431c2.789 0 4.348-1.518 4.348-3.323v-.206c0-1.682-1.477-3.077-3.528-3.077z" fill="#fff"/></svg>