<svg fill="none" height="60" viewBox="0 0 66 60" width="66" xmlns="http://www.w3.org/2000/svg" xmlns:xlink="http://www.w3.org/1999/xlink"><linearGradient id="a"><stop offset="0" stop-color="#e4f2ff"/><stop offset="1" stop-color="#b2cbff"/></linearGradient><linearGradient id="b" gradientUnits="userSpaceOnUse" x1="24.3923" x2="78.0167" xlink:href="#a" y1="25.3862" y2="79.1378"/><linearGradient id="c"><stop offset="0" stop-color="#3f3ced" stop-opacity="0"/><stop offset=".2796" stop-color="#3c3de4" stop-opacity=".28"/><stop offset=".7305" stop-color="#3541cc" stop-opacity=".731"/><stop offset="1" stop-color="#2f43bb"/></linearGradient><linearGradient id="d" gradientUnits="userSpaceOnUse" x1="30.8337" x2="-3.63875" xlink:href="#c" y1="42.3652" y2="116.475"/><linearGradient id="e"><stop offset="0" stop-color="#fff" stop-opacity="0"/><stop offset="1" stop-color="#fff"/></linearGradient><linearGradient id="f" gradientUnits="userSpaceOnUse" x1="30.0976" x2="4.37483" xlink:href="#e" y1="31.1494" y2="-4.86609"/><linearGradient id="g" gradientUnits="userSpaceOnUse" x1="28.9176" x2="28.9176" y1="17.8333" y2="34.1982"><stop offset="0" stop-color="#8a7889"/><stop offset="1" stop-color="#6e566e"/></linearGradient><linearGradient id="h" gradientUnits="userSpaceOnUse" x1="18.1498" x2="-11.8711" y1="17.4613" y2="6.42762"><stop offset="0" stop-color="#bdc2d1" stop-opacity="0"/><stop offset=".3183" stop-color="#c1c6d4" stop-opacity=".318"/><stop offset=".6082" stop-color="#ccd0dd" stop-opacity=".608"/><stop offset=".8861" stop-color="#dee2ec" stop-opacity=".886"/><stop offset="1" stop-color="#e8ecf4"/></linearGradient><linearGradient id="i" gradientUnits="userSpaceOnUse" x1="41.8615" x2="35.4839" xlink:href="#c" y1="43.3719" y2="38.6549"/><linearGradient id="j"><stop offset="0" stop-color="#00adfb"/><stop offset="1" stop-color="#3f3ced"/></linearGradient><linearGradient id="k" gradientUnits="userSpaceOnUse" x1="52.5248" x2="52.5248" xlink:href="#j" y1="49.7266" y2="56.7595"/><linearGradient id="l" gradientUnits="userSpaceOnUse" x1="52.5243" x2="52.5243" xlink:href="#a" y1="49.8285" y2="61.6564"/><linearGradient id="m" gradientUnits="userSpaceOnUse" x1="52.5243" x2="52.5243" xlink:href="#j" y1="49.8284" y2="61.6562"/><linearGradient id="n"><stop offset="0" stop-color="#00adfb" stop-opacity="0"/><stop offset=".3408" stop-color="#04b3fb" stop-opacity=".341"/><stop offset=".8014" stop-color="#11c4fb" stop-opacity=".801"/><stop offset="1" stop-color="#18cefb"/></linearGradient><linearGradient id="o" gradientUnits="userSpaceOnUse" x1="52.4968" x2="49.6972" xlink:href="#n" y1="51.7242" y2="44.9381"/><linearGradient id="p" gradientUnits="userSpaceOnUse" x1="52.5248" x2="52.5248" xlink:href="#j" y1="44.3026" y2="51.3355"/><linearGradient id="q" gradientUnits="userSpaceOnUse" x1="52.5243" x2="52.5243" xlink:href="#a" y1="44.4046" y2="56.2324"/><linearGradient id="r" gradientUnits="userSpaceOnUse" x1="52.5243" x2="52.5243" xlink:href="#j" y1="44.4046" y2="56.2324"/><linearGradient id="s" gradientUnits="userSpaceOnUse" x1="52.4968" x2="49.6972" xlink:href="#n" y1="46.2992" y2="39.513"/><linearGradient id="t" gradientUnits="userSpaceOnUse" x1="52.5248" x2="52.5248" xlink:href="#j" y1="38.8787" y2="45.9116"/><linearGradient id="u" gradientUnits="userSpaceOnUse" x1="52.5243" x2="52.5243" xlink:href="#a" y1="38.9806" y2="50.8085"/><linearGradient id="v" gradientUnits="userSpaceOnUse" x1="52.5243" x2="52.5243" xlink:href="#j" y1="38.9805" y2="50.8083"/><linearGradient id="w" gradientUnits="userSpaceOnUse" x1="52.4968" x2="49.6972" xlink:href="#n" y1="40.8752" y2="34.0891"/><linearGradient id="x" gradientUnits="userSpaceOnUse" x1="52.5248" x2="52.5248" xlink:href="#j" y1="33.4535" y2="40.4864"/><linearGradient id="y" gradientUnits="userSpaceOnUse" x1="52.5243" x2="52.5243" xlink:href="#a" y1="33.5555" y2="45.3833"/><linearGradient id="z" gradientUnits="userSpaceOnUse" x1="52.5243" x2="52.5243" xlink:href="#j" y1="33.5555" y2="45.3833"/><linearGradient id="A" gradientUnits="userSpaceOnUse" x1="52.4968" x2="49.6972" xlink:href="#n" y1="35.4514" y2="28.6651"/><linearGradient id="B" gradientUnits="userSpaceOnUse" x1="52.5248" x2="52.5248" xlink:href="#j" y1="28.0297" y2="35.0625"/><linearGradient id="C" gradientUnits="userSpaceOnUse" x1="52.5243" x2="52.5243" xlink:href="#a" y1="28.1315" y2="39.9593"/><linearGradient id="D" gradientUnits="userSpaceOnUse" x1="52.5243" x2="52.5243" xlink:href="#j" y1="28.1314" y2="39.9592"/><linearGradient id="E" gradientUnits="userSpaceOnUse" x1="52.4968" x2="49.6972" xlink:href="#n" y1="30.0265" y2="23.2402"/><linearGradient id="F" gradientUnits="userSpaceOnUse" x1="52.5248" x2="52.5248" xlink:href="#j" y1="22.6046" y2="29.6375"/><linearGradient id="G" gradientUnits="userSpaceOnUse" x1="52.5243" x2="52.5243" xlink:href="#a" y1="22.7066" y2="34.5344"/><linearGradient id="H" gradientUnits="userSpaceOnUse" x1="52.5243" x2="52.5243" xlink:href="#j" y1="22.7065" y2="34.5343"/><linearGradient id="I" gradientUnits="userSpaceOnUse" x1="52.4968" x2="49.6972" xlink:href="#n" y1="24.6023" y2="17.8161"/><linearGradient id="J"><stop offset="0" stop-color="#ff7044"/><stop offset="1" stop-color="#f82814"/></linearGradient><linearGradient id="K" gradientUnits="userSpaceOnUse" x1="26.7739" x2="34.4131" xlink:href="#J" y1="40.7499" y2="46.4833"/><linearGradient id="L" gradientUnits="userSpaceOnUse" x1="29.0788" x2="21.0807" y1="42.562" y2="40.5099"><stop offset="0" stop-color="#ff7044" stop-opacity="0"/><stop offset="1" stop-color="#ffa325"/></linearGradient><linearGradient id="M" gradientUnits="userSpaceOnUse" x1="26.8858" x2="39.7331" xlink:href="#a" y1="40.8329" y2="50.4751"/><linearGradient id="N" gradientUnits="userSpaceOnUse" x1="27.0035" x2="33.1542" xlink:href="#J" y1="44.1245" y2="41.1312"/><linearGradient id="O" gradientUnits="userSpaceOnUse" x1="29.8018" x2="23.2001" xlink:href="#e" y1="42.8414" y2="39.7985"/><linearGradient id="P" gradientUnits="userSpaceOnUse" x1="65.4743" x2="42.1842" xlink:href="#c" y1="55.5582" y2="47.5567"/><linearGradient id="Q"><stop offset="0" stop-color="#ffd945"/><stop offset=".3043" stop-color="#ffcd3e"/><stop offset=".8558" stop-color="#ffad2b"/><stop offset="1" stop-color="#ffa325"/></linearGradient><linearGradient id="R" gradientUnits="userSpaceOnUse" x1="42.308" x2="42.308" xlink:href="#Q" y1="54.6877" y2="61.7207"/><linearGradient id="S" gradientUnits="userSpaceOnUse" x1="42.3075" x2="42.3075" xlink:href="#a" y1="54.7897" y2="66.6175"/><linearGradient id="T" gradientUnits="userSpaceOnUse" x1="42.3074" x2="42.3074" xlink:href="#Q" y1="54.7896" y2="66.6174"/><linearGradient id="U"><stop offset="0" stop-color="#ffd945" stop-opacity="0"/><stop offset="1" stop-color="#fbed21"/></linearGradient><linearGradient id="V" gradientUnits="userSpaceOnUse" x1="42.2781" x2="39.4784" xlink:href="#U" y1="56.6845" y2="49.8983"/><linearGradient id="W" gradientUnits="userSpaceOnUse" x1="42.308" x2="42.308" xlink:href="#Q" y1="49.2628" y2="56.2958"/><linearGradient id="X" gradientUnits="userSpaceOnUse" x1="42.3075" x2="42.3075" xlink:href="#a" y1="49.3647" y2="61.1926"/><linearGradient id="Y" gradientUnits="userSpaceOnUse" x1="42.3074" x2="42.3074" xlink:href="#Q" y1="49.3647" y2="61.1926"/><linearGradient id="Z" gradientUnits="userSpaceOnUse" x1="42.2781" x2="39.4784" xlink:href="#U" y1="51.2595" y2="44.4732"/><linearGradient id="aa" gradientUnits="userSpaceOnUse" x1="42.308" x2="42.308" xlink:href="#Q" y1="43.8389" y2="50.8718"/><linearGradient id="ab" gradientUnits="userSpaceOnUse" x1="42.3075" x2="42.3075" xlink:href="#a" y1="43.9409" y2="55.7685"/><linearGradient id="ac" gradientUnits="userSpaceOnUse" x1="42.3074" x2="42.3074" xlink:href="#Q" y1="43.9407" y2="55.7684"/><linearGradient id="ad" gradientUnits="userSpaceOnUse" x1="42.2781" x2="39.4784" xlink:href="#U" y1="45.8354" y2="39.0493"/><linearGradient id="ae" gradientUnits="userSpaceOnUse" x1="57.0556" x2="64.1685" xlink:href="#Q" y1="9.72475" y2="19.2708"/><linearGradient id="af" gradientUnits="userSpaceOnUse" x1="48.1188" x2="53.1487" xlink:href="#Q" y1="2.73106" y2="9.48173"/><linearGradient id="ag" gradientUnits="userSpaceOnUse" x1="28.3588" x2="33.3888" xlink:href="#Q" y1="23.465" y2="30.2155"/><g opacity=".7"><path d="m57.8351 46.5781v-33.3548c0-1.4207-1.1545-2.5724-2.5786-2.5724h-52.67809c-1.42405 0-2.57841 1.1517-2.57841 2.5724v33.3548c0 1.4207 1.15449 2.5724 2.57854 2.5724h52.67796c1.4241 0 2.5786-1.1517 2.5786-2.5724z" fill="url(#b)"/><path d="m0 46.5352v-.7213h51.8691c1.4478 0 2.6216-1.1709 2.6216-2.6153v-32.5477h.7229c1.4478 0 2.6215 1.1708 2.6215 2.6153v33.269c0 1.4443-1.1737 2.6153-2.6215 2.6153h-52.59222c-1.44774 0-2.62138-1.1708-2.62138-2.6153z" fill="url(#d)"/><g fill="#c1aeed"><path d="m26.2001 34.2384h-12.4678c-.3419 0-.619-.2764-.619-.6175v-1.7575c0-.3411.2771-.6176.619-.6176h12.4678c.3419 0 .619.2765.619.6176v1.7575c0 .3411-.2771.6175-.619.6175z"/><path d="m26.2001 37.9926h-12.4678c-.3419 0-.619-.2765-.619-.6176v-1.7575c0-.3411.2771-.6175.619-.6175h12.4678c.3419 0 .619.2764.619.6175v1.7575c0 .3411-.2771.6176-.619.6176z"/><path d="m26.2001 41.7467h-12.4678c-.3419 0-.619-.2764-.619-.6175v-1.7575c0-.3411.2771-.6175.619-.6175h12.4678c.3419 0 .619.2764.619.6175v1.7575c0 .3411-.2771.6175-.619.6175z"/></g><path d="m10.0871 34.2385h-6.02281c-.34191 0-.61898-.2764-.61898-.6175v-1.7575c0-.3411.27707-.6175.61898-.6175h6.02281c.3418 0 .619.2764.619.6175v1.7575c0 .3411-.2772.6175-.619.6175z" fill="#a596a4"/><path d="m10.0871 37.9927h-6.02281c-.34191 0-.61898-.2764-.61898-.6175v-1.7576c0-.3411.27707-.6175.61898-.6175h6.02281c.3418 0 .619.2764.619.6175v1.7576c0 .3411-.2772.6175-.619.6175z" fill="#a596a4"/><path d="m10.0871 41.7468h-6.02281c-.34191 0-.61898-.2764-.61898-.6175v-1.7575c0-.3411.27707-.6175.61898-.6175h6.02281c.3418 0 .619.2764.619.6175v1.7575c0 .3411-.2772.6175-.619.6175z" fill="#a596a4"/><path d="m2.00195 15.2639c0-1.4444 1.17364-2.6152 2.62151-2.6152h52.59214c.192 0 .3786.0218.5588.0609.0393.1799.0611.366.0611.5575v33.269c0 1.4444-1.1736 2.6153-2.6215 2.6153h-52.59216c-.19192 0-.37866-.0218-.5588-.0609-.03922-.1798-.06109-.366-.06109-.5575z" fill="url(#f)"/><path d="m0 17.2779h57.8351v8.9771h-57.8351z" fill="url(#g)"/><path d="m16.0868 22.9926h-12.46782c-.34191 0-.61898-.2765-.61898-.6176v-1.7575c0-.3411.27707-.6175.61898-.6175h12.46782c.3419 0 .619.2764.619.6175v1.7575c0 .3411-.2771.6176-.619.6176z" fill="#e7f2ff"/><path d="m2.00195 17.2778h55.83355v8.9772h-55.83355z" fill="url(#h)"/><path d="m40.3822 34.51-7.6322 9.9275h7.6322z" fill="url(#i)"/><path d="m64.3794 55.0392h-23.7092c-.4532 0-.8206-.3666-.8206-.8187v-3.7871c0-.4521.3674-.8187.8206-.8187h23.7093c.4532 0 .8206.3666.8206.8187v3.7871c-.0001.4521-.3675.8187-.8207.8187z" fill="url(#k)"/><path d="m61.3692 55.0392h-17.6899c-.3935 0-.7125-.3183-.7125-.7109v-4.0027c0-.3926.319-.7109.7125-.7109h17.6899c.3936 0 .7126.3183.7126.7109v4.0027c0 .3926-.319.7109-.7126.7109z" fill="url(#l)"/><path d="m55.57 55.039h-6.0915c-.2374 0-.4297-.192-.4297-.4286v-4.567c0-.2368.1925-.4287.4297-.4287h6.0915c.2374 0 .4297.192.4297.4287v4.567c.0001.2368-.1923.4286-.4297.4286z" fill="url(#m)"/><path d="m41.387 50.2756c-.4532 0-.8206.3666-.8206.8187v3.7872c0 .0525.0054.1038.0149.1535.0296.0032.0596.0052.0901.0052h23.7091c.4532 0 .8206-.3666.8206-.8187v-3.7871c0-.0525-.0054-.1036-.0149-.1535-.0296-.0032-.0596-.0051-.0901-.0051h-23.7091z" fill="url(#o)"/><path d="m64.3794 49.6152h-23.7092c-.4532 0-.8206-.3665-.8206-.8187v-3.787c0-.4522.3674-.8187.8206-.8187h23.7093c.4532 0 .8206.3665.8206.8187v3.787c-.0001.4522-.3675.8187-.8207.8187z" fill="url(#p)"/><path d="m61.3692 49.6152h-17.6899c-.3935 0-.7125-.3182-.7125-.7109v-4.0026c0-.3927.319-.7109.7125-.7109h17.6899c.3936 0 .7126.3182.7126.7109v4.0026c0 .3927-.319.7109-.7126.7109z" fill="url(#q)"/><path d="m55.57 49.6152h-6.0915c-.2374 0-.4297-.192-.4297-.4286v-4.5672c0-.2368.1925-.4286.4297-.4286h6.0915c.2374 0 .4297.1918.4297.4286v4.5672c.0001.2367-.1923.4286-.4297.4286z" fill="url(#r)"/><path d="m41.387 44.8506c-.4532 0-.8206.3665-.8206.8186v3.7871c0 .0526.0054.1037.0149.1535.0296.0033.0596.0052.0901.0052h23.7091c.4532 0 .8206-.3665.8206-.8187v-3.787c0-.0526-.0054-.1037-.0149-.1536-.0296-.0032-.0596-.0051-.0901-.0051z" fill="url(#s)"/><path d="m64.3794 44.1912h-23.7092c-.4532 0-.8206-.3665-.8206-.8186v-3.7871c0-.4521.3674-.8187.8206-.8187h23.7093c.4532 0 .8206.3666.8206.8187v3.7871c-.0001.4522-.3675.8186-.8207.8186z" fill="url(#t)"/><path d="m61.3692 44.1912h-17.6899c-.3935 0-.7125-.3182-.7125-.7108v-4.0027c0-.3926.319-.7109.7125-.7109h17.6899c.3936 0 .7126.3183.7126.7109v4.0027c0 .3926-.319.7108-.7126.7108z" fill="url(#u)"/><path d="m55.57 44.1911h-6.0915c-.2374 0-.4297-.192-.4297-.4286v-4.567c0-.2368.1925-.4287.4297-.4287h6.0915c.2374 0 .4297.1919.4297.4287v4.567c.0001.2368-.1923.4286-.4297.4286z" fill="url(#v)"/><path d="m41.387 39.4266c-.4532 0-.8206.3666-.8206.8187v3.7871c0 .0525.0054.1037.0149.1535.0296.0032.0596.0051.0901.0051h23.7091c.4532 0 .8206-.3665.8206-.8186v-3.7871c0-.0525-.0054-.1038-.0149-.1535-.0296-.0032-.0596-.0052-.0901-.0052z" fill="url(#w)"/><path d="m64.3794 38.7662h-23.7092c-.4532 0-.8206-.3665-.8206-.8187v-3.787c0-.4522.3674-.8187.8206-.8187h23.7093c.4532 0 .8206.3665.8206.8187v3.787c-.0001.4522-.3675.8187-.8207.8187z" fill="url(#x)"/><path d="m61.3692 38.7662h-17.6899c-.3935 0-.7125-.3182-.7125-.7109v-4.0026c0-.3927.319-.7109.7125-.7109h17.6899c.3936 0 .7126.3182.7126.7109v4.0026c0 .3925-.319.7109-.7126.7109z" fill="url(#y)"/><path d="m55.57 38.7662h-6.0915c-.2374 0-.4297-.192-.4297-.4286v-4.5672c0-.2368.1925-.4286.4297-.4286h6.0915c.2374 0 .4297.1918.4297.4286v4.5672c.0001.2366-.1923.4286-.4297.4286z" fill="url(#z)"/><path d="m41.387 34.0027c-.4532 0-.8206.3665-.8206.8186v3.7871c0 .0526.0054.1038.0149.1535.0296.0033.0596.0052.0901.0052h23.7091c.4532 0 .8206-.3665.8206-.8187v-3.787c0-.0526-.0054-.1037-.0149-.1535-.0296-.0033-.0596-.0052-.0901-.0052z" fill="url(#A)"/><path d="m64.3794 33.3423h-23.7092c-.4532 0-.8206-.3666-.8206-.8187v-3.7871c0-.4521.3674-.8187.8206-.8187h23.7093c.4532 0 .8206.3666.8206.8187v3.7871c-.0001.4521-.3675.8187-.8207.8187z" fill="url(#B)"/><path d="m61.3692 33.3423h-17.6899c-.3935 0-.7125-.3183-.7125-.7109v-4.0027c0-.3926.319-.7109.7125-.7109h17.6899c.3936 0 .7126.3183.7126.7109v4.0027c0 .3926-.319.7109-.7126.7109z" fill="url(#C)"/><path d="m55.57 33.3421h-6.0915c-.2374 0-.4297-.192-.4297-.4286v-4.567c0-.2368.1925-.4287.4297-.4287h6.0915c.2374 0 .4297.192.4297.4287v4.567c.0001.2366-.1923.4286-.4297.4286z" fill="url(#D)"/><path d="m41.387 28.5778c-.4532 0-.8206.3665-.8206.8186v3.7871c0 .0526.0054.1038.0149.1535.0296.0032.0596.0052.0901.0052h23.7091c.4532 0 .8206-.3666.8206-.8187v-3.7872c0-.0525-.0054-.1037-.0149-.1535-.0296-.0032-.0596-.0052-.0901-.0052h-23.7091z" fill="url(#E)"/><path d="m64.3794 27.9172h-23.7092c-.4532 0-.8206-.3665-.8206-.8187v-3.787c0-.4522.3674-.8187.8206-.8187h23.7093c.4532 0 .8206.3665.8206.8187v3.787c-.0001.4522-.3675.8187-.8207.8187z" fill="url(#F)"/><path d="m61.3692 27.9172h-17.6899c-.3935 0-.7125-.3182-.7125-.7109v-4.0026c0-.3927.319-.7109.7125-.7109h17.6899c.3936 0 .7126.3182.7126.7109v4.0026c0 .3927-.319.7109-.7126.7109z" fill="url(#G)"/><path d="m55.57 27.9171h-6.0915c-.2374 0-.4297-.1919-.4297-.4287v-4.567c0-.2368.1925-.4286.4297-.4286h6.0915c.2374 0 .4297.192.4297.4286v4.567c.0001.2367-.1923.4287-.4297.4287z" fill="url(#H)"/><path d="m41.387 23.1537c-.4532 0-.8206.3665-.8206.8187v3.787c0 .0526.0054.1038.0149.1535.0296.0033.0596.0052.0901.0052h23.7091c.4532 0 .8206-.3665.8206-.8187v-3.787c0-.0526-.0054-.1037-.0149-.1535-.0296-.0033-.0596-.0052-.0901-.0052z" fill="url(#I)"/><path d="m39.69 35.7214-14.2126 18.9342c-.3182.4239-.9205.5102-1.3453.1928l-4.3662-3.2619c-.4248-.3173-.5114-.9183-.1932-1.3422l14.2126-18.9342c.3182-.4239.9205-.5103 1.3454-.1928l4.3661 3.2619c.4249.3173.5113.9183.1932 1.3422z" fill="url(#K)"/><path d="m20.6471 50.3084c-.2746.3659-.0983.9607.3938 1.3283l4.1226 3.0798c.0572.0427.1162.0799.1761.1128.0215-.0213.0418-.0439.0602-.0685l14.3701-19.1441c.2746-.3658.0983-.9606-.3938-1.3282l-4.1226-3.0798c-.0572-.0428-.1162-.08-.1761-.1129-.0215.0213-.0418.0439-.0603.0686z" fill="url(#L)"/><path d="m37.8771 38.1378-10.5851 14.1015c-.2763.3681-.7994.443-1.1682.1673l-4.5688-3.4131c-.3689-.2757-.444-.7975-.1677-1.1655l10.5851-14.1015c.2763-.3681.7993-.443 1.1682-.1673l4.5687 3.4132c.369.2755.4441.7973.1678 1.1654z" fill="url(#M)"/><path d="m34.3902 42.7838-3.6096 4.8087c-.1665.222-.482.2672-.7045.101l-5.0991-3.8094c-.2224-.1662-.2677-.4809-.1012-.7029l3.6096-4.8087c.1665-.2219.482-.2671.7045-.1009l5.0991 3.8094c.2225.1663.2679.4809.1012.7028z" fill="url(#N)"/><path d="m21.6055 49.031 4.5184 3.3756c.369.2756.8919.2007 1.1682-.1673l10.585-14.1017c.2762-.3681.2011-.8898-.1678-1.1654l-4.5184-3.3756z" fill="url(#O)"/><path d="m43.6797 55.04h5.7992 6.0916 5.7992 3.0096c.17 0 .3278-.0515.4588-.1398.0436-.0295.0844-.0629.1215-.1.1072-.1069.1841-.2433.219-.3958l-10.33-10.3055c-.1465-.2238-.3992-.3718-.687-.3718h-3.0096-5.7993-5.4187c.1203.248.3596.4277.646.4589h.0001c.0297.0033.0596.0052.0901.0052-.4532 0-.8206.3665-.8206.8186v3.7871c0 .4522.3674.8187.8206.8187-.4532 0-.8206.3665-.8206.8187v3.787c0 .4217.3198.7686.7304.8135h.0001c.0297.0033.0596.0052.0901.0052z" fill="url(#P)"/><path d="m54.1627 60.0005h-23.7093c-.4532 0-.8206-.3666-.8206-.8187v-3.7871c0-.4521.3674-.8187.8206-.8187h23.7093c.4532 0 .8206.3666.8206.8187v3.7871c-.0001.4521-.3675.8187-.8206.8187z" fill="url(#R)"/><path d="m51.1524 60.0005h-17.6899c-.3935 0-.7125-.3183-.7125-.7109v-4.0027c0-.3926.319-.7109.7125-.7109h17.6899c.3936 0 .7126.3183.7126.7109v4.0027c0 .3925-.319.7109-.7126.7109z" fill="url(#S)"/><path d="m45.3533 60.0003h-6.0916c-.2374 0-.4297-.1918-.4297-.4286v-4.567c0-.2368.1925-.4287.4297-.4287h6.0916c.2373 0 .4296.192.4296.4287v4.567c0 .2366-.1924.4286-.4296.4286z" fill="url(#T)"/><path d="m31.1683 55.2358c-.4532 0-.8206.3666-.8206.8187v3.7871c0 .0525.0054.1037.0148.1535.0297.0032.0597.0052.0901.0052h23.7093c.4532 0 .8206-.3666.8206-.8187v-3.7871c0-.0525-.0055-.1038-.0149-.1535-.0296-.0032-.0597-.0052-.0901-.0052z" fill="url(#V)"/><path d="m54.1627 54.5754h-23.7093c-.4532 0-.8206-.3665-.8206-.8187v-3.787c0-.4522.3674-.8187.8206-.8187h23.7093c.4532 0 .8206.3665.8206.8187v3.787c-.0001.4522-.3675.8187-.8206.8187z" fill="url(#W)"/><path d="m51.1524 54.5754h-17.6899c-.3935 0-.7125-.3182-.7125-.7109v-4.0026c0-.3927.319-.7109.7125-.7109h17.6899c.3936 0 .7126.3182.7126.7109v4.0026c0 .3927-.319.7109-.7126.7109z" fill="url(#X)"/><path d="m45.3533 54.5754h-6.0916c-.2374 0-.4297-.1918-.4297-.4286v-4.5672c0-.2367.1925-.4286.4297-.4286h6.0916c.2373 0 .4296.192.4296.4286v4.5672c0 .2366-.1924.4286-.4296.4286z" fill="url(#Y)"/><path d="m31.1683 49.8108c-.4532 0-.8206.3665-.8206.8187v3.787c0 .0526.0054.1037.0148.1535.0297.0033.0597.0052.0901.0052h23.7093c.4532 0 .8206-.3665.8206-.8187v-3.787c0-.0526-.0055-.1037-.0149-.1535-.0296-.0033-.0597-.0052-.0901-.0052z" fill="url(#Z)"/><path d="m54.1627 49.1515h-23.7093c-.4532 0-.8206-.3666-.8206-.8187v-3.7871c0-.4521.3674-.8186.8206-.8186h23.7093c.4532 0 .8206.3665.8206.8186v3.7871c-.0001.4521-.3675.8187-.8206.8187z" fill="url(#aa)"/><path d="m51.1524 49.1515h-17.6899c-.3935 0-.7125-.3183-.7125-.7109v-4.0027c0-.3926.319-.7108.7125-.7108h17.6899c.3936 0 .7126.3182.7126.7108v4.0027c0 .3926-.319.7109-.7126.7109z" fill="url(#ab)"/><path d="m45.3533 49.1513h-6.0916c-.2374 0-.4297-.192-.4297-.4286v-4.567c0-.2368.1925-.4286.4297-.4286h6.0916c.2373 0 .4296.1919.4296.4286v4.567c0 .2366-.1924.4286-.4296.4286z" fill="url(#ac)"/><path d="m31.1683 44.3868c-.4532 0-.8206.3666-.8206.8187v3.7871c0 .0525.0054.1037.0148.1535.0297.0032.0597.0052.0901.0052h23.7093c.4532 0 .8206-.3666.8206-.8187v-3.7871c0-.0525-.0055-.1037-.0149-.1535-.0296-.0032-.0597-.0052-.0901-.0052z" fill="url(#ad)"/><path d="m65.6213 13.3625c-2.2676 1.4742-4.2024 3.416-5.6676 5.6878-.3295.5108-1.0899.5094-1.4175-.0026-1.4568-2.2769-3.3845-4.2258-5.6467-5.7083-.5022-.3291-.5009-1.0773.0025-1.4046 2.2677-1.4742 4.2025-3.416 5.6675-5.68763.3295-.51087 1.0899-.50945 1.4176.00258 1.4569 2.27692 3.3847 4.22575 5.6468 5.70835.502.3289.5007 1.0771-.0026 1.4044z" fill="url(#ae)"/><path d="m54.1755 5.30203c-1.6036 1.04253-2.9719 2.41571-4.008 4.02218-.2329.36124-.7707.36021-1.0024-.00181-1.0302-1.61021-2.3933-2.98829-3.9931-4.03664-.3551-.23265-.3541-.76186.0018-.99321 1.6035-1.04254 2.9718-2.41571 4.0079-4.022184.2329-.3612398.7708-.3603361 1.0024.001807 1.0303 1.610217 2.3935 2.988297 3.9933 4.036637.355.23265.3539.76173-.0019.99322z" fill="url(#af)"/><path d="m34.4196 26.0398c-1.6036 1.0425-2.9718 2.4157-4.0079 4.0222-.233.3612-.7708.3602-1.0024-.0019-1.0303-1.6102-2.3934-2.9883-3.9932-4.0366-.3551-.2326-.3541-.7618.0018-.9932 1.6036-1.0425 2.9718-2.4157 4.0079-4.0222.233-.3612.7708-.3602 1.0025.0018 1.0302 1.6102 2.3934 2.9883 3.9932 4.0367.355.2326.3541.7618-.0019.9932z" fill="url(#ag)"/></g></svg>