<svg width="50" height="50" fill="none" xmlns="http://www.w3.org/2000/svg"><rect x="50" y="50" width="50" height="50" rx="25" transform="rotate(-180 50 50)" fill="url(#paint0_radial)"/><rect x="50" y="50" width="50" height="50" rx="25" transform="rotate(-180 50 50)" fill="#993679"/><path d="M22.676 32.936l2.579 1.698a6.49 6.49 0 0 0 5.089.89l13.5 13.5 5.178-13.689-8.351-8.351c0-1.548-.188-3.077-.55-4.557L22.677 32.936z" fill="#FFBF9E"/><path d="M42.364 16.873a2.342 2.342 0 0 0-3.313 0 2.342 2.342 0 0 0-3.312-3.312 2.342 2.342 0 1 0-3.312-3.313 2.342 2.342 0 0 0-3.313-3.312l-4.056 4.057L12.673 25.22 1 36.892l4.63 12.08 15.097-15.097c.849-.849 2-1.325 3.2-1.325a14.66 14.66 0 0 0 10.365-4.294l8.072-8.072a2.342 2.342 0 0 0 0-3.312z" fill="#FFD4BE"/><path d="M9.137 28.758l8.355 8.355 3.237-3.237c.1-.1.206-.196.315-.286l-8.37-8.37-3.537 3.538z" fill="#91DEF5"/><path d="M31.992 37.177l9.432-9.432 3.537 3.537-9.432 9.432-3.537-3.537z" fill="#F6838D"/><path d="M15.984 21.908l-3.517-3.517a2.342 2.342 0 1 1 3.313-3.312l3.516 3.517a2.342 2.342 0 1 1-3.312 3.312zm3.313-3.312l-3.517-3.517a2.342 2.342 0 1 1 3.312-3.312l3.517 3.516a2.342 2.342 0 1 1-3.312 3.313zm3.312-3.313l-3.517-3.516a2.342 2.342 0 1 1 3.313-3.313l3.516 3.517a2.342 2.342 0 1 1-3.312 3.313z" fill="#FFBF9E"/><path d="M12.673 25.22L10.6 23.149a2.342 2.342 0 1 1 3.312-3.313l2.073 2.073a2.342 2.342 0 1 1-3.312 3.313z" fill="#FFBF9E"/><path d="M42.478 27.41a10.741 10.741 0 0 0-1.15-4.808l1.726-1.726a3.323 3.323 0 0 0 0-4.694 3.308 3.308 0 0 0-2.34-.97 3.297 3.297 0 0 0-.972-2.342 3.308 3.308 0 0 0-2.342-.97 3.308 3.308 0 0 0-.97-2.342 3.297 3.297 0 0 0-2.34-.972 3.298 3.298 0 0 0-.973-2.34 3.297 3.297 0 0 0-2.346-.973 3.3 3.3 0 0 0-2.347.972L25 9.67l-1.904-1.905a3.297 3.297 0 0 0-2.347-.972c-.887 0-1.72.345-2.347.972a3.297 3.297 0 0 0-.972 2.342 3.308 3.308 0 0 0-2.34.97 3.297 3.297 0 0 0-.972 2.34 3.297 3.297 0 0 0-2.34.973 3.324 3.324 0 0 0-.558 3.951c-.48.157-.93.425-1.31.805a3.323 3.323 0 0 0 0 4.694l1.381 1.382L.31 36.203a.977.977 0 0 0 1.381 1.38l7.445-7.444 6.974 6.974-11.17 11.17a.977.977 0 0 0 1.38 1.381l15.099-15.097a3.55 3.55 0 0 1 .937-.673l2.363 1.556a7.495 7.495 0 0 0 5.305 1.134l13.13 13.13a.974.974 0 0 0 1.381 0 .977.977 0 0 0 0-1.381l-7.618-7.618.92-.921a.977.977 0 0 0-1.38-1.381l-.922.92-2.156-2.156 8.053-8.052 2.156 2.156-.919.919a.977.977 0 0 0 1.381 1.381l.919-.919 3.364 3.364a.974.974 0 0 0 1.38 0 .977.977 0 0 0 0-1.381l-7.234-7.235zM29.805 7.627c.258-.258.6-.4.965-.4s.708.142.966.4c.258.257.4.6.4.965s-.142.708-.4.966l-2.146 2.146a.977.977 0 1 0 1.381 1.38l2.146-2.145c.258-.258.601-.4.966-.4s.708.142.965.4a1.367 1.367 0 0 1 0 1.931l-3.276 3.277a.977.977 0 0 0 1.38 1.381l3.278-3.277c.258-.258.6-.4.965-.4s.708.142.966.4.4.601.4.966-.142.708-.4.966l-3.277 3.276a.977.977 0 0 0 1.381 1.382l3.277-3.277a1.367 1.367 0 0 1 1.931 0 1.367 1.367 0 0 1 0 1.931l-8.072 8.072a13.593 13.593 0 0 1-9.675 4.007c-.99 0-1.94.261-2.771.748l-5.653-5.652a3.31 3.31 0 0 0 1.173-.759c.626-.626.97-1.457.972-2.342a3.308 3.308 0 0 0 2.34-.97 3.307 3.307 0 0 0 .97-2.34 3.297 3.297 0 0 0 2.343-.973 3.308 3.308 0 0 0 .97-2.34 3.296 3.296 0 0 0 2.342-.972c.627-.627.972-1.46.972-2.347 0-.886-.345-1.72-.972-2.346l-.23-.231 3.423-3.423zM19.783 9.145c.258-.258.601-.4.966-.4s.708.142.966.4l3.517 3.517a1.361 1.361 0 0 1 0 1.931c-.258.258-.601.4-.966.4s-.707-.142-.965-.4l-3.518-3.517c-.258-.258-.4-.6-.4-.966 0-.364.142-.707.4-.965zm-3.312 3.312c.266-.266.616-.399.966-.399s.7.133.965.4l3.517 3.516a1.367 1.367 0 0 1-.966 2.331 1.357 1.357 0 0 1-.965-.4L16.47 14.39c-.258-.258-.4-.601-.4-.966s.142-.708.4-.966zm-3.312 3.313c.257-.258.6-.4.965-.4s.708.142.966.4l3.517 3.517a1.367 1.367 0 0 1 0 1.93 1.367 1.367 0 0 1-1.932 0l-3.517-3.516a1.367 1.367 0 0 1 0-1.931zm-1.869 4.756a1.365 1.365 0 0 1 1.93 0l2.074 2.073c.258.258.4.6.4.965s-.142.708-.4.966-.6.4-.965.4-.708-.142-.966-.4l-2.073-2.073a1.367 1.367 0 0 1 0-1.931zm-.774 8.232l2.157-2.156 6.973 6.974-2.156 2.156-6.974-6.974zm20.519 6.075a.975.975 0 0 0-.92-.258 5.533 5.533 0 0 1-4.323-.756l-.529-.349a15.518 15.518 0 0 0 9.72-4.522l4.873-4.874a8.791 8.791 0 0 1 .666 3.197l-8.525 8.525-.962-.963z" fill="#6B2254"/><path d="M39.56 35.307a.982.982 0 0 0-.287.69c0 .258.105.51.287.691a.984.984 0 0 0 .69.286.982.982 0 0 0 .977-.976.982.982 0 0 0-.287-.69.984.984 0 0 0-.69-.287.984.984 0 0 0-.69.286zM6.598 7.978a.973.973 0 0 0 1.38 0 .977.977 0 0 0 0-1.38L3.383 2a.977.977 0 0 0-1.381 1.38l4.597 4.597zm5.316-2.654c.54 0 .977-.437.977-.977V.977a.977.977 0 1 0-1.954 0v3.37c0 .54.438.977.977.977zM.977 12.89h3.37a.977.977 0 1 0 0-1.953H.977a.977.977 0 1 0 0 1.953zM42.71 8.264c.25 0 .5-.095.69-.286l4.597-4.596A.977.977 0 0 0 46.618 2L42.02 6.597a.977.977 0 0 0 .691 1.667zm-4.625-2.94c.54 0 .977-.437.977-.977V.977a.977.977 0 1 0-1.954 0v3.37c0 .54.438.977.977.977zm6.59 6.59c0 .54.437.976.976.976h3.371a.977.977 0 0 0 0-1.953h-3.37a.977.977 0 0 0-.977.977z" fill="#6B2254"/><defs><radialGradient id="paint0_radial" cx="0" cy="0" r="1" gradientUnits="userSpaceOnUse" gradientTransform="rotate(135 39.645 45.71) scale(70.7107)"><stop stop-color="#9D2777"/><stop offset=".615" stop-color="#731A56"/></radialGradient></defs></svg>