<svg enable-background="new 0 0 200 200" viewBox="0 0 200 200" xmlns="http://www.w3.org/2000/svg"><path d="m0 0h200v200h-200z" fill="#de1f2f"/><path d="m132.4 31.83c-4.48 0-6.78.11-11.26.08-15.98-.13-31.97-.06-47.96-.04-1.6 0-3.21.19-5.09.31-7.99 45.33-15.91 90.26-23.96 135.94 13.6 0 26.06.12 38.52-.04 10.15-.13 20.34 0 30.41-1.02 18.26-1.85 30.42-13.25 34.31-31.14.81-3.73 1.32-7.53 2.07-11.28 2.63-13.17-2.17-22.77-12.94-27.06-.18-.07-.19-.54-.35-1.05 10.04-4.42 16.56-11.46 18.06-22.48.54-3.95 1.14-8.39 1.46-12.37 1.96-24.13-11.69-29.85-23.27-29.85zm-13.79 88.61c-.36 4.6-1.08 9.26-2.35 13.68-1.29 4.51-4.94 7.29-9.53 7.7-8.72.77-17.48 1.01-27.11 1.51 1.96-11.08 3.72-20.99 5.52-31.12 9.1 0 17.88-.28 26.64.12 4.69.21 7.19 3.39 6.83 8.11zm-3.22-47.37c.73 5.29 1.42 10.32 2.26 16.38-4.43-3.62-8.12-6.62-12.15-9.9-4.83 3.06-11.35 7.31-16.15 10.35-.21-.17 5.86-11.45 8.42-16.67-3.63-3.12-7.22-6.22-11.69-10.07h16.71c2.81-5.47 5.44-10.57 8.54-16.6.95 5.98 1.74 10.94 2.6 16.39h17.49c.09.33-11.19 6.99-16.03 10.12z" fill="#fff"/></svg>