<svg width="20" height="20" viewBox="0 0 20 20" fill="none" xmlns="http://www.w3.org/2000/svg">
<path d="M5.13673 18.4376H2.37082C2.0373 18.4376 1.83609 18.2514 1.74586 18.1405C1.59007 17.9488 1.52972 17.6994 1.58039 17.4561C2.39168 13.5592 5.83075 10.7133 9.80093 10.6209C9.86706 10.6234 9.93335 10.625 10 10.625C10.0673 10.625 10.1342 10.6234 10.2009 10.6209C11.1717 10.643 12.12 10.8255 13.0226 11.1645C13.4265 11.3163 13.877 11.1117 14.0286 10.7077C14.1803 10.3038 13.9758 9.8534 13.5719 9.70172C13.4425 9.65312 13.3123 9.60765 13.1814 9.56453C14.4745 8.5946 15.3125 7.0496 15.3125 5.31252C15.3125 2.38321 12.9294 0 10 0C7.07068 0 4.68751 2.38321 4.68751 5.31252C4.68751 7.05116 5.52704 8.59738 6.82201 9.56715C5.63564 9.95769 4.52235 10.565 3.54805 11.3665C1.76164 12.8359 0.519562 14.8854 0.0506931 17.1377C-0.0962606 17.8434 0.0797557 18.5682 0.533625 19.1263C0.985189 19.6816 1.65484 20.0001 2.37082 20.0001H5.13673C5.56821 20.0001 5.91798 19.6503 5.91798 19.2188C5.91798 18.7873 5.56821 18.4376 5.13673 18.4376ZM6.25001 5.31252C6.25001 3.24474 7.93225 1.56251 10 1.56251C12.0678 1.56251 13.75 3.24474 13.75 5.31252C13.75 7.31905 12.1659 8.96246 10.1826 9.05804C10.1218 9.05695 10.061 9.05601 10 9.05601C9.93894 9.05601 9.87788 9.05691 9.81686 9.058C7.83385 8.96214 6.25001 7.31886 6.25001 5.31252Z" fill="white"/>
<path d="M19.402 13.4612C19.0676 12.7132 18.3143 12.2285 17.481 12.2266H15.0446C15.0429 12.2266 15.0412 12.2266 15.0394 12.2266C14.1605 12.2266 13.3937 12.7445 13.0852 13.5472C13.0441 13.654 12.9939 13.7885 12.9415 13.9453H7.82643C7.61522 13.9453 7.41303 14.0308 7.26588 14.1824L5.92385 15.5647C5.62826 15.8692 5.62974 16.3539 5.92717 16.6565L7.29436 18.0476C7.44124 18.1971 7.64202 18.2812 7.85155 18.2812H10.3906C10.8221 18.2812 11.1719 17.9315 11.1719 17.5C11.1719 17.0685 10.8221 16.7187 10.3906 16.7187H8.17913L7.57647 16.1055L8.15682 15.5078H13.5276C13.8875 15.5078 14.2008 15.2619 14.2864 14.9124C14.3496 14.6543 14.4289 14.4061 14.5436 14.1078C14.6192 13.9111 14.8092 13.7891 15.0413 13.7891C15.0418 13.7891 15.0423 13.7891 15.0428 13.7891H17.4792C17.7001 13.7896 17.8903 13.9083 17.9755 14.0989C18.1852 14.5681 18.4357 15.2945 18.4375 16.0906C18.4394 16.8925 18.1892 17.6355 17.979 18.1177C17.8942 18.3121 17.7024 18.4375 17.4883 18.4375C17.4879 18.4375 17.4875 18.4375 17.4871 18.4375H15.0212C14.8051 18.437 14.6026 18.298 14.5175 18.0915C14.4261 17.87 14.3469 17.6171 14.2754 17.3182C14.175 16.8986 13.7533 16.6398 13.3338 16.7402C12.9141 16.8406 12.6554 17.2622 12.7558 17.6819C12.8465 18.0607 12.9503 18.3896 13.0731 18.6873C13.4011 19.4827 14.1644 19.998 15.0194 20H17.4853C17.4869 20 17.4885 20 17.4902 20C18.3242 20 19.078 19.5066 19.4113 18.7421C19.6813 18.123 20.0026 17.1597 20 16.0869C19.9975 15.017 19.6734 14.0685 19.402 13.4612Z" fill="white"/>
<path d="M16.8359 16.875C17.2674 16.875 17.6172 16.5252 17.6172 16.0938C17.6172 15.6623 17.2674 15.3125 16.8359 15.3125C16.4045 15.3125 16.0547 15.6623 16.0547 16.0938C16.0547 16.5252 16.4045 16.875 16.8359 16.875Z" fill="white"/>
</svg>
