<svg width="20" height="20" fill="none" xmlns="http://www.w3.org/2000/svg"><path d="M12.255 20h-4.51a.641.641 0 0 1-.638-.576l-.241-2.382a7.795 7.795 0 0 1-1.482-.844l-2.228.99a.641.641 0 0 1-.813-.261L.088 13.08a.64.64 0 0 1 .183-.847l1.976-1.4a7.643 7.643 0 0 1 0-1.669L.271 7.766a.641.641 0 0 1-.183-.847l2.255-3.845a.641.641 0 0 1 .813-.262l2.228.99a7.797 7.797 0 0 1 1.482-.844L7.107.576A.641.641 0 0 1 7.745 0h4.51c.329 0 .604.249.637.576l.242 2.382a7.8 7.8 0 0 1 1.482.844l2.228-.99a.64.64 0 0 1 .813.262l2.255 3.845a.641.641 0 0 1-.183.847l-1.976 1.4c.06.554.06 1.114 0 1.669l1.976 1.399c.272.192.351.56.183.847l-2.255 3.845a.64.64 0 0 1-.813.262l-2.228-.99a7.799 7.799 0 0 1-1.482.844l-.242 2.382a.641.641 0 0 1-.637.576zm-3.93-1.282h3.35l.223-2.19a.64.64 0 0 1 .414-.536 6.523 6.523 0 0 0 1.815-1.034.641.641 0 0 1 .662-.086l2.052.912 1.667-2.844-1.813-1.284a.641.641 0 0 1-.262-.627 6.36 6.36 0 0 0 0-2.058.641.641 0 0 1 .262-.627l1.813-1.284-1.667-2.844-2.052.912a.64.64 0 0 1-.662-.086 6.525 6.525 0 0 0-1.815-1.034.641.641 0 0 1-.414-.535l-.222-2.191H8.325l-.223 2.19a.641.641 0 0 1-.414.536 6.523 6.523 0 0 0-1.814 1.034.64.64 0 0 1-.663.086L3.16 4.216 1.492 7.06l1.813 1.284c.2.141.302.385.262.627a6.365 6.365 0 0 0 0 2.058.641.641 0 0 1-.262.627L1.492 12.94l1.667 2.844 2.052-.912a.641.641 0 0 1 .662.087c.547.44 1.157.787 1.815 1.033a.641.641 0 0 1 .414.535l.222 2.191z" fill="#999"/><path d="M12.478 7.751a3.344 3.344 0 0 0-1.09-.796l.534-1.166c.575.263 1.081.633 1.505 1.1l-.949.862zM7.644 13.98a4.63 4.63 0 0 1-1.227-1.053l.992-.813c.25.305.549.561.888.762l-.653 1.104zm-.96-4.422c.234-1.796 1.925-3.103 3.721-2.884L10.56 5.4C8.106 5.102 5.786 6.86 5.422 9.31l-.471-.394-.822.985 1.533 1.279c.21.174.515.196.747.053l1.689-1.04L7.425 9.1l-.742.457zm9.187.53L14.337 8.81a.641.641 0 0 0-.746-.054l-1.689 1.041.673 1.092.742-.458c-.242 1.858-2.038 3.178-3.883 2.861l-.217 1.264c2.521.433 4.984-1.343 5.36-3.876l.473.393.82-.985z" fill="#999"/></svg>