<svg width="200" height="200" viewBox="0 0 200 200" fill="none" xmlns="http://www.w3.org/2000/svg">
<g clip-path="url(#clip0)">
<path d="M100 200C44.8 200 0 155.2 0 100C0 44.8 44.8 0 100 0C155.2 0 200 44.8 200 100C200 155.2 155.2 200 100 200Z" fill="white"/>
<path d="M100 0C88.4 0 76.4 2.1 65.7 6L70.2 18.2C79.7 14.8 89.7 13 100 13V0ZM35.6 23.5C26.7 31 19.1 40.1 13.3 50.2L24.6 56.7C29.7 47.9 36.2 40 44 33.4L35.6 23.5ZM1.4 83C0.5 88.6 0 94.3 0 100C0 106 0.5 112 1.6 117.8L14.4 115.5C12.6 105.6 12.6 95.1 14.3 85.2L1.4 83ZM24.9 143.9L13.7 150.5C19.6 160.6 27.3 169.6 36.3 177L44.6 167C36.7 160.5 30 152.7 24.9 143.9ZM70.8 182L66.4 194.2C77.4 198.1 89.1 200.1 100.7 200L100.6 187C90.5 187.1 80.4 185.4 70.8 182ZM156.6 166.1C148.8 172.8 140.1 178 130.5 181.5L135.1 193.7C146.1 189.6 156.2 183.6 165.1 176L156.6 166.1ZM185.9 114.1C184.3 124.2 180.9 133.8 175.9 142.7L187.2 149.1C192.8 139.1 196.8 128 198.7 116.2L185.9 114.1ZM185.9 48.8L174.7 55.5C179.9 64.3 183.6 73.8 185.4 83.8L198.2 81.4C196.1 69.7 191.9 58.9 185.9 48.8ZM132.7 5.5L128.4 17.8C138 21.1 146.9 26.1 154.8 32.6L163 22.5C154.1 15.1 143.8 9.3 132.7 5.5Z" fill="#D8B91A"/>
<path d="M100 188C51.4483 188 12 148.552 12 100C12 51.4483 51.4483 12 100 12C148.552 12 188 51.4483 188 100C188 148.552 148.552 188 100 188Z" fill="url(#paint0_radial)"/>
<path d="M55.1645 117H64.7195L67.3195 99.645L75.3145 118.755L83.3095 99.645L86.5595 117H96.1145L86.1045 69.355L75.6395 97.045L65.1745 69.355L55.1645 117ZM109.084 117V80.08L99.984 81.12V117H109.084ZM104.534 66.365C101.674 66.365 99.399 68.64 99.399 71.5C99.399 74.295 101.739 76.635 104.534 76.635C107.394 76.635 109.669 74.36 109.669 71.435C109.669 68.575 107.394 66.365 104.534 66.365ZM141.723 69.94L132.168 70.98V81.12C130.283 80.34 129.113 80.08 127.488 80.08C119.428 80.08 114.033 87.88 114.033 99.515C114.033 110.5 118.778 118.04 125.733 118.04C128.138 118.04 130.088 117.26 132.623 115.245L133.143 118.04L142.178 117C141.853 113.88 141.723 111.02 141.723 105.17V69.94ZM132.168 107.055C130.413 108.615 129.243 109.2 127.813 109.2C124.758 109.2 123.133 105.82 123.133 99.45C123.133 92.43 125.018 88.855 128.593 88.855C129.828 88.855 130.673 89.18 132.168 90.155V107.055Z" fill="white"/>
</g>
<defs>
<radialGradient id="paint0_radial" cx="0" cy="0" r="1" gradientUnits="userSpaceOnUse" gradientTransform="translate(12 12) rotate(45) scale(248.902)">
<stop stop-color="#FFE142"/>
<stop offset="1" stop-color="#CCAE0E"/>
</radialGradient>
<clipPath id="clip0">
<rect width="200" height="200" fill="white"/>
</clipPath>
</defs>
</svg>
