<svg width="16" height="16" fill="none" xmlns="http://www.w3.org/2000/svg"><path d="M7.996 3.269a4.734 4.734 0 0 0-4.726 4.73 4.734 4.734 0 0 0 4.726 4.731A4.734 4.734 0 0 0 12.723 8a4.734 4.734 0 0 0-4.727-4.731z" fill="#AAA"/><path d="M8.002 9.045L9.357 10.4l1.045-1.045L9.047 8l1.355-1.355L9.357 5.6 8.002 6.955 6.647 5.6 5.602 6.645 6.957 8 5.602 9.355 6.647 10.4l1.355-1.355z" fill="#fff"/><path d="M4.371.85l1.185 2.034a5.614 5.614 0 0 1 1.971-.534V0a7.935 7.935 0 0 0-3.156.85zM8.465 0v2.35c.69.056 1.346.238 1.945.52L11.585.833A7.946 7.946 0 0 0 8.465 0zm5.193 2.333a8.087 8.087 0 0 0-1.26-1.03l-1.175 2.039a5.709 5.709 0 0 1 1.424 1.423l2.035-1.179a8.086 8.086 0 0 0-1.024-1.253zm-10.1-1.008A8.094 8.094 0 0 0 1.285 3.62l2.042 1.168a5.713 5.713 0 0 1 1.416-1.43L3.558 1.325zM.82 4.435A7.956 7.956 0 0 0 0 7.56l2.347-.008a5.63 5.63 0 0 1 .514-1.949L.82 4.435zm1.53 4.056l-2.347.008c.067 1.1.355 2.157.843 3.12l2.033-1.184a5.618 5.618 0 0 1-.529-1.944zm.998 2.755L1.316 12.43a8.091 8.091 0 0 0 2.29 2.277l1.17-2.041a5.723 5.723 0 0 1-1.427-1.42zm4.193 2.405a5.613 5.613 0 0 1-1.947-.517l-1.17 2.042A7.933 7.933 0 0 0 7.549 16l-.006-2.349zm2.882-.53a5.609 5.609 0 0 1-1.944.527l.006 2.35a7.94 7.94 0 0 0 3.118-.84l-1.18-2.036zm2.227-1.899a5.712 5.712 0 0 1-1.42 1.427l1.18 2.036a8.11 8.11 0 0 0 2.279-2.29l-2.039-1.173zm1.237-2.234a1.03 1.03 0 0 1 .202-.226 3.251 3.251 0 0 1 .407-.301h.004a3.61 3.61 0 0 1 .196-.121l.285-.16c.102-.057.208-.12.317-.192.11-.072.21-.158.304-.255a1.265 1.265 0 0 0 .23-.335 1.15 1.15 0 0 0-.01-.91 1.05 1.05 0 0 0-.294-.377 1.392 1.392 0 0 0-.47-.244 2.132 2.132 0 0 0-.634-.087c-.21 0-.406.023-.59.067-.183.044-.35.1-.5.167-.152.067-.283.14-.395.216a1.564 1.564 0 0 0-.257.213l.599.69c.056-.07.117-.136.185-.199a1.41 1.41 0 0 1 .223-.17c.08-.052.168-.092.26-.122a.983.983 0 0 1 .307-.046c.21 0 .37.05.481.15.112.1.168.22.168.36a.376.376 0 0 1-.077.233.87.87 0 0 1-.2.183l-1.438.87a1.58 1.58 0 0 0-.33.401 1.543 1.543 0 0 0-.172.47c-.032.17-.048.36-.048.57H16v-.845h-2.112z" fill="#AAA"/></svg>