<svg width="72" height="72" fill="none" xmlns="http://www.w3.org/2000/svg"><path d="M72 37.657C72 56.624 55.882 72 36 72S0 56.624 0 37.657C0 18.689 16.118 3.313 36 3.313S72 18.69 72 37.657z" fill="#56679C"/><path d="M27.38 60.644c-.423-2.06-2.402-2.666-2.402-2.666s-5.38-1.514-5.584-1.57l-1.398 3.737c-.148.397-.657.545-1.013.294l-1.546-1.094h-2.95l-.012-.009.004.009-1.546 1.094c-.355.251-.864.103-1.013-.294l-1.398-3.738-2.245.63c5.28 7.355 13.481 12.65 23.01 14.364-.857-4.852-1.87-10.583-1.907-10.757z" fill="#F6E6CB"/><path d="M6.143 42.845V41.76c0-.469.62-.505.62-.505v-.001c4.133-.157 8.823-1.8 10.664-2.48.472-.175 1.004-.11 1.461.23l2.548 2.01s.341.29.341.839v1.026c.686-.057 1.466.154 1.901.52v-3.09c0-5.112-4.36-9.27-9.718-9.27s-9.718 4.158-9.718 9.27v3.078c.434-.371 1.215-.59 1.901-.542z" fill="#B36F42"/><path d="M7.953 41.17v-.861c0-4.507 3.389-8.27 7.862-9.1-.6-.111-1.22-.17-1.855-.17-5.358 0-9.718 4.158-9.718 9.27v3.078c.434-.371 1.215-.59 1.901-.542V41.76c0-.469.62-.505.62-.505v-.001c.393-.015.79-.044 1.19-.083z" fill="#B36F42"/><path d="M6.067 42.402c-1.297-.094-2.446.815-2.446 1.923 0 1.103 1.143 2.017 2.446 1.922v-3.845zm15.792.035v3.775c1.3.115 2.446-.791 2.446-1.887 0-1.1-1.153-2.002-2.446-1.888z" fill="#F59D6B"/><path d="M3.86 43.477c-.15.258-.239.544-.239.848 0 1.103 1.143 2.017 2.446 1.922v-1.693c-.946.068-1.805-.396-2.206-1.077zm18 1.04v1.694c1.298.116 2.445-.79 2.445-1.886 0-.304-.09-.592-.245-.848-.403.672-1.26 1.124-2.2 1.04z" fill="#F28B51"/><path d="M17.315 55.065l-1.878 4.28 1.547 1.093c.355.252.864.104 1.013-.294l1.398-3.738-2.08-1.341z" fill="#EDD4B0"/><path d="M14.344 53.795a8.152 8.152 0 0 1-3.753-.723v1.992c.194.438-.705-1.585 1.9 4.28h2.95l1.876-4.28V53.1a8.245 8.245 0 0 1-2.973.695z" fill="#F59D6B"/><path d="M12.453 54.508v-.848a8.088 8.088 0 0 1-1.862-.588v1.992c.194.438-.705-1.585 1.9 4.28h1.863c-.007-.015-1.68-3.784-1.674-3.767a2.641 2.641 0 0 1-.227-1.07z" fill="#F28B51"/><path d="M12.486 59.345l-.755.528 1.14 1.871h2.135l1.15-1.89-.72-.51h-2.95zm.073 4.376a35.995 35.995 0 0 0 3.115 2.283l-.666-4.26h-2.136l-.313 1.977z" fill="#E74242"/><path d="M21.596 40.788l-2.705-2.01c-.456-.338-.99-.404-1.461-.23-1.841.68-6.688 2.324-10.822 2.48l.001.002s-.62.035-.62.504v4.778c0 4.36 3.787 7.91 8.352 7.707 4.228-.188 7.596-3.518 7.596-7.598v-4.793c0-.549-.341-.84-.341-.84z" fill="#F9AE85"/><path d="M7.953 46.313V40.93c-.453.047-.903.082-1.345.099h.001s-.62.037-.62.506v4.778c0 4.36 3.787 7.91 8.352 7.707.206-.01.41-.028.611-.052-3.936-.471-6.999-3.735-6.999-7.655z" fill="#F59D6B"/><path d="M10.6 55.065l1.877 4.28-1.546 1.093c-.356.252-.865.104-1.013-.294L8.52 56.407l2.08-1.341z" fill="#E0C096"/><path d="M14.348 59.345h-1.862l-.755.528 1.14 1.871h1.692c-1.147-.356-1.287-1.859-.215-2.4z" fill="#CE3232"/><path d="M16.354 57.256l-.916 2.088 1.546 1.094c.355.251.864.104 1.013-.294l.792-2.118c-.832.802-2.27.347-2.435-.77z" fill="#E0C096"/><path d="M65.727 57.028l-2.207-.622c-.27.725-.947 2.533-1.398 3.738-.149.398-.658.545-1.013.294l-1.546-1.094h-2.95l-.012-.009.004.01-1.546 1.093c-.355.251-.864.104-1.013-.294l-1.399-3.738-5.598 1.571c-.726.259-2.044.955-2.402 2.667l-1.956 10.76c9.541-1.71 17.753-7.011 23.036-14.376z" fill="#F6E6CB"/><path d="M44.647 60.644l-1.956 10.76a37.302 37.302 0 0 0 2.028-.421l1.892-11.006c.266-1.269 1.059-1.978 1.748-2.367l-1.31.368c-.726.258-2.044.954-2.402 2.666z" fill="#EDD4B0"/><path d="M50.272 42.845V41.76c0-.469.62-.505.62-.505v-.001c4.134-.157 8.823-1.8 10.664-2.48.472-.175 1.005-.11 1.462.23l2.547 2.01s.341.29.341.839v1.026c.686-.057 1.466.154 1.901.52v-3.09c0-5.112-4.36-9.27-9.718-9.27s-9.718 4.158-9.718 9.27v3.078c.435-.371 1.215-.59 1.901-.542z" fill="#B36F42"/><path d="M52.082 41.17v-.861c0-4.507 3.388-8.27 7.862-9.1a10.161 10.161 0 0 0-1.855-.17c-5.358 0-9.718 4.158-9.718 9.27v3.078c.434-.371 1.215-.59 1.9-.542V41.76c0-.469.621-.505.621-.505v-.001c.392-.015.79-.044 1.19-.083z" fill="#B36F42"/><path d="M50.196 42.402c-1.297-.094-2.446.815-2.446 1.923 0 1.103 1.143 2.017 2.446 1.922v-3.845zm15.788.035v3.775c1.3.115 2.446-.791 2.446-1.887 0-1.1-1.153-2.002-2.446-1.888z" fill="#F59D6B"/><path d="M47.99 43.477c-.151.258-.24.544-.24.848 0 1.103 1.142 2.017 2.446 1.922v-1.693c-.946.068-1.805-.396-2.206-1.077zm17.994 1.04v1.694c1.3.116 2.446-.79 2.446-1.886 0-.304-.09-.592-.244-.848-.404.672-1.261 1.124-2.202 1.04z" fill="#F28B51"/><path d="M61.444 55.065l-1.878 4.28 1.546 1.093c.356.252.865.104 1.013-.294l1.399-3.738-2.08-1.341z" fill="#EDD4B0"/><path d="M58.468 53.795a8.155 8.155 0 0 1-3.753-.723v1.993l1.9 4.28h2.95l1.878-4.28V53.1a8.248 8.248 0 0 1-2.975.695z" fill="#F59D6B"/><path d="M56.578 54.508v-.848a8.106 8.106 0 0 1-1.863-.588v1.992l1.9 4.28h1.863l-1.673-3.767a2.632 2.632 0 0 1-.227-1.07z" fill="#F28B51"/><path d="M56.614 59.345l-.754.528L57 61.744h2.135l1.15-1.89-.72-.51h-2.95zm-.29 6.66a35.806 35.806 0 0 0 3.121-2.287l-.309-1.974h-2.135l-.677 4.262z" fill="#E74242"/><path d="M65.72 40.788l-2.704-2.01c-.457-.338-.99-.404-1.462-.23-1.84.68-6.687 2.324-10.821 2.48v.002s-.62.035-.62.504v4.778c0 4.36 3.788 7.91 8.352 7.707 4.23-.188 7.597-3.518 7.597-7.598v-4.793c0-.549-.341-.84-.341-.84z" fill="#F9AE85"/><path d="M52.078 46.313V40.93c-.454.047-.904.082-1.345.1 0 0-.62.036-.62.505v4.778c0 4.36 3.788 7.91 8.352 7.707a8.28 8.28 0 0 0 .611-.052c-3.935-.471-6.998-3.735-6.998-7.655z" fill="#F59D6B"/><path d="M54.729 55.065l1.877 4.28-1.546 1.093c-.355.252-.864.104-1.013-.294l-1.399-3.738 2.08-1.341z" fill="#E0C096"/><path d="M58.477 59.345h-1.863l-.754.528L57 61.744h1.692c-1.148-.356-1.287-1.859-.215-2.4z" fill="#CE3232"/><path d="M60.483 57.256l-.917 2.088 1.546 1.094c.356.251.865.104 1.013-.294l.793-2.118c-.832.802-2.271.347-2.435-.77z" fill="#E0C096"/><path d="M35.968 48.547c-.628 0-1.136-.486-1.136-1.084V33.784c0-.598.508-1.083 1.136-1.083.628 0 1.136.485 1.136 1.083v13.679c0 .598-.509 1.084-1.136 1.084z" fill="#FFB456"/><path d="M22.57 54.844c-.314-.519-.127-1.181.416-1.48l12.417-6.84c.544-.299 1.239-.121 1.552.397.314.518.128 1.18-.416 1.48L24.122 55.24c-.541.298-1.237.124-1.552-.396z" fill="#FC974D"/><path d="M47.817 55.24L35.4 48.4c-.543-.298-.73-.961-.416-1.479.314-.519 1.009-.696 1.552-.397l12.417 6.84c.543.299.73.961.416 1.48-.315.52-1.01.695-1.552.396z" fill="#FFDC67"/><path d="M49.527 63.906c-.597 0-1.082.462-1.082 1.032v4.955a36.805 36.805 0 0 0 2.164-.84v-4.115c0-.57-.485-1.032-1.082-1.032zm-27.11 0c-.597 0-1.081.462-1.081 1.032v4.092c.71.302 1.43.583 2.163.842v-4.934c0-.57-.484-1.032-1.082-1.032z" fill="#EDD4B0"/><path d="M46.61 23.427c-.334-1.63-1.9-2.11-1.9-2.11l-4.419-1.243-1.106 2.958c-.118.315-.52.431-.802.233l-1.223-.866h-2.334l-.01-.007.003.007-1.224.866c-.28.198-.684.082-.801-.233l-1.107-2.958-4.43 1.244c-.574.204-1.617.755-1.9 2.11L24.3 29.435c-.146.834.528 1.593 1.415 1.593h20.51c.885 0 1.558-.754 1.416-1.586-.37-2.178-.997-5.848-1.031-6.016z" fill="#F6E6CB"/><path d="M26.421 29.71l1.055-6.968c.21-1.005.839-1.567 1.384-1.874l-1.602.45c-.576.204-1.618.755-1.902 2.11l-1.055 6.008c-.146.834.528 1.593 1.414 1.593h1.26a1.336 1.336 0 0 1-.554-1.319z" fill="#EDD4B0"/><path d="M36.295 18.008a6.448 6.448 0 0 1-2.97-.572v1.577l1.503 3.387h2.334l1.486-3.387v-1.555a6.528 6.528 0 0 1-2.353.55z" fill="#F59D6B"/><path d="M35.078 19.59a2.964 2.964 0 0 1-.256-1.204v-.48a6.387 6.387 0 0 1-1.497-.47v1.577l1.503 3.387h1.497c-1.71-3.85-1.12-2.522-1.247-2.81z" fill="#F28B51"/><path d="M34.824 22.4l-.597.417.902 1.48h1.69l.91-1.494-.57-.404h-2.335z" fill="#E74242"/><path d="M36.817 24.298h-1.69l-1.068 6.732h3.81l-1.052-6.732z" fill="#FF5252"/><path d="M44.149 31.03v-3.182c0-.556-.472-1.006-1.055-1.006s-1.055.45-1.055 1.006v3.182h2.11zm-14.203 0v-3.182c0-.556-.472-1.006-1.055-1.006s-1.055.45-1.055 1.006v3.182h2.11z" fill="#EDD4B0"/><path d="M37.266 27.143l-.445-2.845h-1.69l-.436 2.749c.513.985 1.967 1.055 2.57.096z" fill="#E74242"/><path d="M36.323 22.4h-1.499l-.597.417.902 1.48h1.191a1.148 1.148 0 0 1 .003-1.898z" fill="#CE3232"/><path d="M38.646 19.013l-1.486 3.386 1.223.866c.282.199.685.082.802-.232l1.106-2.959-1.645-1.061z" fill="#EDD4B0"/><path d="M33.322 19.013l1.497 3.386-1.223.866c-.281.199-.684.082-.802-.232l-1.106-2.959 1.634-1.061zm4.713 1.391L37.16 22.4l1.223.866c.282.199.684.082.802-.233l.744-1.987c-.69.514-1.7.165-1.894-.642z" fill="#E0C096"/><path d="M29.805 9.343v-.858c0-.372.491-.4.491-.4v-.001c3.27-.124 6.982-1.425 8.438-1.962a1.206 1.206 0 0 1 1.156.182l2.016 1.59s.27.23.27.664v.812c.543-.046 1.16.122 1.505.412V7.336C43.68 3.291 40.23 0 35.99 0S28.3 3.291 28.3 7.336v2.436c.344-.294.96-.466 1.504-.43z" fill="#B36F42"/><path d="M31.171 8.024v-.688c0-3.577 2.699-6.563 6.255-7.206A8.011 8.011 0 0 0 35.99 0c-4.24 0-7.69 3.291-7.69 7.336v2.436c.344-.294.96-.466 1.504-.43v-.857c0-.372.491-.4.491-.4v-.001c.288-.011.581-.032.875-.06z" fill="#B36F42"/><path d="M29.747 8.993c-1.026-.075-1.934.644-1.934 1.521 0 .874.904 1.597 1.934 1.522V8.993zm12.495.028v2.987c1.028.091 1.936-.626 1.936-1.493 0-.872-.913-1.584-1.936-1.494z" fill="#F59D6B"/><path d="M28.05 9.764c-.15.222-.238.479-.238.75 0 .873.904 1.597 1.935 1.522v-1.502c-.71.052-1.361-.275-1.696-.77zm14.192.742v1.502c1.028.09 1.936-.627 1.936-1.493 0-.273-.09-.53-.243-.751-.338.486-.987.805-1.693.742z" fill="#F28B51"/><path d="M42.034 7.716l-2.141-1.59a1.206 1.206 0 0 0-1.156-.182c-1.457.538-5.292 1.839-8.563 1.962v.001s-.49.029-.49.4v3.78c0 3.45 2.997 6.26 6.609 6.099 3.346-.149 6.01-2.783 6.01-6.013V8.38c0-.433-.27-.664-.27-.664z" fill="#F9AE85"/><path d="M31.175 12.087V7.834c-.337.034-.672.06-1 .071v.001s-.491.03-.491.4v3.78c0 3.45 2.997 6.26 6.61 6.1.15-.007.3-.02.449-.038-3.129-.36-5.568-2.95-5.568-6.061z" fill="#F59D6B"/></svg>