<svg width="20" height="20" viewBox="0 0 20 20" xmlns="http://www.w3.org/2000/svg">
<path d="M19.4141 0C19.0904 0 18.8281 0.262299 18.8281 0.585938V1.17188H17.3958V0.585938C17.3958 0.262299 17.1335 0 16.8099 0C16.4862 0 16.2239 0.262299 16.2239 0.585938V1.17188H14.7917V0.585938C14.7917 0.262299 14.5293 0 14.2058 0C13.8822 0 13.6199 0.262299 13.6199 0.585938V1.17188H12.1875V0.585938C12.1875 0.262299 11.9252 0 11.6016 0C11.2779 0 11.0156 0.262299 11.0156 0.585938V3.71094L9.79387 3.05954C9.46824 2.88574 9.04741 2.88589 8.72178 3.05954L7.25236 3.84308L5.6891 2.78214C5.2144 2.46002 4.55141 2.46002 4.07655 2.78214L0.256972 5.3746C-0.0108199 5.55634 -0.0805525 5.92072 0.10118 6.18835C0.282912 6.45615 0.647292 6.52588 0.915083 6.34415L4.73466 3.75183C4.81508 3.69736 4.95073 3.69736 5.03099 3.75183L6.89149 5.0145C6.8921 5.01495 6.89287 5.01541 6.89363 5.01602L8.85072 6.34415C8.95143 6.41266 9.06602 6.44547 9.17924 6.44547C9.36693 6.44531 9.55125 6.35544 9.66463 6.18851C9.84636 5.92072 9.77663 5.55634 9.50883 5.3746L8.34825 4.58679L9.25798 4.10172L11.0158 5.03906V9.10156C11.0158 9.4252 11.2781 9.6875 11.6016 9.6875H13.5019C13.2243 11.2398 11.8652 12.4219 10.2345 12.4219H9.76579V9.25781C9.76579 8.93417 9.50334 8.67188 9.17985 8.67188C8.85621 8.67188 8.59392 8.93417 8.59392 9.25781V9.84375H6.90111V9.33594C6.90111 9.0123 6.63881 8.75 6.31517 8.75C5.99168 8.75 5.72923 9.0123 5.72923 9.33594V9.84375H4.03657V9.33594C4.03657 9.0123 3.77428 8.75 3.45064 8.75C3.127 8.75 2.8647 9.0123 2.8647 9.33594V9.84375H1.17189V9.33594C1.17189 9.0123 0.90959 8.75 0.585951 8.75C0.262312 8.75 1.38668e-05 9.0123 1.38668e-05 9.33594V19.4141C1.38668e-05 19.7377 0.262312 20 0.585951 20H16.875C17.1987 20 17.461 19.7377 17.461 19.4141V9.6875H19.4141C19.7377 9.6875 20 9.4252 20 9.10156V0.585938C20 0.262299 19.7377 0 19.4141 0ZM6.0547 18.8281H3.71095V14.6875H6.0547V18.8281ZM8.59376 13.0078V18.8281H7.22658V14.1016C7.22658 13.7779 6.96428 13.5156 6.64064 13.5156H3.12501C2.80138 13.5156 2.53908 13.7779 2.53908 14.1016V18.8281H1.17189V11.0156H8.59376V13.0078ZM16.2891 18.8281H9.76564V17.1027C12.5256 16.9962 14.9318 15.4866 16.2891 13.2681V18.8281ZM16.2891 9.10156C16.2891 12.7661 13.3907 15.7666 9.76564 15.9303V13.5938H10.2344C12.7113 13.5938 14.7266 11.5785 14.7266 9.10156V7.89062H16.2891V9.10156ZM16.2891 6.71875H14.7266V5.9375H16.2891V6.71875ZM18.8281 8.51562H17.461V5.35156C17.461 5.02792 17.1987 4.76562 16.875 4.76562H14.1406C13.817 4.76562 13.5547 5.02792 13.5547 5.35156V8.51562H12.1875V2.34375H18.8281V8.51562Z" />
</svg>
