<svg width="20" height="20" xmlns="http://www.w3.org/2000/svg"><path d="M13.884 10.577H9.041c.077-.055.159-.105.243-.15l1.867-1.008h2.733a.625.625 0 0 0 0-1.25H12.53a2.575 2.575 0 0 0-4.23-2.876.625.625 0 0 0 .946.816 1.329 1.329 0 0 1 2.333.87 1.347 1.347 0 0 1-.742 1.189H5.65a.625.625 0 0 0 0 1.25h2.893c-.48.282-.88.68-1.167 1.158H5.651a.625.625 0 1 0 0 1.25h1.286a3.345 3.345 0 0 0 5.685 2.818.626.626 0 0 0-.445-1.066.625.625 0 0 0-.441.184 2.087 2.087 0 0 1-3.525-1.937h5.673a.625.625 0 0 0 0-1.25v.002z"/><path d="M9.999 20a10 10 0 1 1 5.88-18.09.626.626 0 0 1-.736 1.01A8.738 8.738 0 1 0 17.7 5.844a.625.625 0 0 1 1.1-.593A10.004 10.004 0 0 1 9.998 20z"/><path d="M17.133 4.542a.625.625 0 0 1-.476-.218l-.112-.13a.625.625 0 1 1 .934-.83l.128.147a.626.626 0 0 1-.474 1.031z"/></svg>