<svg width="200" height="200" fill="none" xmlns="http://www.w3.org/2000/svg"><path d="M200 0H0v200h200V0z" fill="url(#paint0_radial)"/><path d="M28.572 74.223c-.492-7.566 1.266-11.173-2.04-12.234-.422-.282-2.391.283-2.532-.495 1.688-1.06 6.33 0 7.456-.282 3.868-.495 14.278.141 14.911 2.475 5.768 6.081-.422 17.042-8.792 16.335-1.266.283-2.462-.92-.21-.92 2.531 0 6.048-2.828 6.048-7.495.704-2.97-3.024-9.123-7.174-8.557-1.055.142-2.11-.283-2.11 1.06.07 5.8-.211 22.913.21 27.792-.07 2.475 2.11 2.688 4.08 2.617 1.126 0 .844.92-.14.849-5.98-.071-7.316-.142-12.661 0-.563 0-.915-.142-.915-.425 1.618-1.131 3.377.637 3.658-3.04.352-3.324.14-13.225.211-17.68zm22.578 6.508c-1.547-17.962 32.988-21.64 32.848-.707.352 21.215-33.762 20.154-32.848.707zm26.94.707c.703-15.416-20.75-20.72-21.102-1.91-1.196 14.144 20.328 22.771 21.102 1.91zm17.795-2.406h.21c1.337-1.414 7.105-7.142 8.3-8.485 1.759-1.98 2.814-2.9.915-4.031 0-.283.211-.354.633-.354 2.532.07 6.049.07 8.722 0 2.321.637-1.548.92-2.181 1.202-3.728 1.415-9.425 8.062-12.59 11.032 4.994 5.304 12.028 15.063 19.061 16.477 0 .283-.211.424-.914.424-1.618 0-4.783.071-6.19-.07-5.767-.425-12.45-11.174-15.685-14.568h-.211c0 3.394 0 9.617.07 11.739-.07 2.05 1.9 2.192 3.376 2.121 2.603 1.485-6.752.495-6.26.708-.914-.283-4.712.777-5.767-.283 1.055-1.203 3.095.495 3.165-2.546.281-2.758.14-11.173.211-14.992-.633-7.425 1.9-10.254-3.376-10.466-3.025-1.343 6.26-.566 5.767-.707 1.126.212 4.924-.636 5.909.283-.915 1.131-3.165-.354-3.165 2.616-.07 1.202-.07 2.334-.07 8.133v1.767h.07z" fill="#fff"/><path d="M123.809 77.336c-.422-6.647 1.266-9.122-1.758-10.254-7.034-1.06 3.939-.92 4.361-.848 2.884-.071 10.832.353 13.083-.425.562-.283-.352 4.385-.282 5.375-.773 1.838-.703-.495-1.055-1.273-.633-2.192-6.823-1.344-8.792-1.556-.211 0-.281.141-.281.354v9.475c0 .213.07.425.281.425 2.321-.212 7.807.707 9.425-1.202.774.636.071.848 0 3.182-.351 1.273.282 2.9-.563 3.465-.703-.141-.281-1.132-.492-1.697-.633-2.475-6.26-1.344-8.44-1.697-.493 0-.141 3.182-.211 3.465.351 4.455-1.9 9.546 5.345 8.91 2.392 0 5.205-.07 5.416-3.324.071-.424.211-.565.422-.565.915.848-.07 4.03-.211 5.162-.281.99-.633.99-2.11.99-1.688-.354-21.242.495-17.022-.92 4.432 0 2.111-5.869 2.744-10.395.14.142.14-6.647.14-6.647zm24.548.001c-.422-6.647 1.266-9.122-1.759-10.254-.351-.282-2.11.213-2.25-.565 1.336-.92 5.627 0 6.33-.283 1.336 0 4.924-.071 6.19-.071 9.988-.99 14.56 8.698 4.783 15.416 4.642 5.233 8.018 11.456 12.942 12.73.422.07.633.07.914.07.774.07.563.92-.281.848-6.541.425-9.496-.212-13.505-6.435-3.798-4.809-2.391-5.87-8.018-5.586-.422-.071-.282.565-.282.848.493 4.243-1.196 9.123 1.759 10.254.562.07 1.406.142 1.969.142.844.14.563.919-.281.848-5.276-.07-6.331-.141-11.043 0-.915.07-1.126-.778-.141-.849 4.431 0 2.11-5.869 2.743-10.395-.07.07-.07-6.718-.07-6.718zm5.064 2.97c9.566 6.011 12.45-12.234 2.673-12.163-1.266.141-2.532-.354-2.673.707v11.456z" fill="#fff"/><path d="M50.588 119.199h.21c1.548-1.697 8.09-8.415 9.426-9.971 1.9-2.404 3.306-3.394 1.055-4.737 0-.283.211-.425.703-.425 2.884.142 6.894.142 9.918 0 2.603.707-1.758.92-2.532 1.344-4.361 1.697-10.832 9.688-14.56 13.153 5.838 6.152 13.716 17.679 22.016 19.306 0 .282-.211.424-1.055.424-1.83 0-5.416.071-7.034-.071-6.471-.848-14.208-13.365-17.866-17.184h-.21c0 4.031-.071 11.385.14 13.79-.07 2.475 2.04 2.687 3.798 2.616 2.814 1.485-7.385.495-6.752.707-1.055-.282-5.346.849-6.542-.282 1.618-1.132 3.376.636 3.658-3.041.352-3.182.21-13.153.21-17.609-.562-8.344 1.97-12.375-3.797-12.304-3.517-1.415 7.315-.566 6.541-.707 1.196.283 5.275-.778 6.4.283-1.195 1.202-3.516-.495-3.587 3.111-.14.071-.21 6.718-.14 11.597z" fill="#FE1C24"/><path d="M86.671 127.118c.352 8.345-1.336 8.769 6.12 8.91 4.853.071 4.43-.777 6.049-3.96.914.778 0 3.607-.211 5.304-.282.849-.422 1.061-2.532 1.061-1.407-.354-21.876.495-17.515-.92 4.502 0 2.11-5.869 2.744-10.395v-6.789c-.422-6.647 1.266-9.122-1.759-10.253-.352-.283-1.899.141-1.97-.566 0-.283.282-.354.845-.354 4.36.071 6.893.071 11.183 0 .563 0 .844.071.844.354-.14.707-1.688.283-2.25.566-2.884-.213-1.055 12.941-1.548 17.042zm23.915 1.485c-.211 0-.281.071-.352.283-.492 1.414-2.813 6.152-2.673 7.496-.14 1.768 2.532.495 2.744 1.485-.915 1.061-3.728 0-5.065.283-.422 0-2.532.141-4.572.141-.492 0-.703-.07-.703-.424 0-.212.141-.424.422-.424 2.321.141 3.587-.99 4.431-3.465 14.701-29.63 7.034-37.621 22.79-.849 1.547 3.465 2.672 3.96 3.376 4.102.703.283 1.829-.213 2.04.565 1.477.566-13.083.849-9.988-.424 1.477 0-2.814-8.132-2.673-8.627-.071-.212-.211-.283-.422-.283h-9.355v.141zm8.44-2.121c.211 0 .211-.071.211-.212l-3.727-9.759c-.071-.495-.352-.425-.423 0l-3.798 9.759c-.562.565 7.737 0 7.737.212zm17.233 11.316c-.633-.282-.774-.424-.774-1.343 0-1.91.071-8.062 1.126-5.445 1.196 11.809 20.609 3.253 8.229-4.526-4.572-2.263-9.073-6.153-8.511-10.113-.492-7.071 10.41-8.91 15.615-7.071 1.266.707.141 1.555.422 5.091.141 1.273-.844 1.768-.914.566-.281-2.192-1.758-4.314-5.416-4.314-7.878.566-6.612 7.355.422 10.113 15.263 8.627 2.392 22.417-10.199 17.042z" fill="#FE1C24"/><path d="M72.11 77.688c-1.828-1.202-4.923-5.02-4.712-4.88 0 0-1.688 2.405-3.868 4.243-1.548 1.344-3.517 2.405-3.447 4.526-.14 3.395 4.572 5.163 6.753 2.617-.985 5.303-4.361 3.536 3.024 3.819-.21.14-1.97-2.688-1.829-3.82 4.572 4.102 9.918-3.464 4.08-6.505z" fill="#fff"/><defs><radialGradient id="paint0_radial" cx="0" cy="0" r="1" gradientUnits="userSpaceOnUse" gradientTransform="rotate(45) scale(282.843)"><stop stop-color="#919191"/><stop offset="1"/></radialGradient></defs></svg>