<svg width="36" height="36" fill="none" xmlns="http://www.w3.org/2000/svg"><path fill-rule="evenodd" clip-rule="evenodd" d="M18 36c9.941 0 18-8.059 18-18S27.941 0 18 0 0 8.059 0 18s8.059 18 18 18z" fill="#fff"/><g opacity=".5"><path d="M31.685 25.184a7.193 7.193 0 0 0-.774-1.414c-1.55-2.29-3.94-3.805-6.634-4.175-.337-.034-.707.033-.977.235a8.113 8.113 0 0 1-4.849 1.583 8.113 8.113 0 0 1-4.849-1.583 1.264 1.264 0 0 0-.976-.235 9.516 9.516 0 0 0-6.634 4.175 8.287 8.287 0 0 0-.775 1.415c-.1.202-.067.437.034.64.27.47.606.942.91 1.346.47.64.976 1.213 1.548 1.751.472.472 1.01.91 1.55 1.347a15.256 15.256 0 0 0 9.159 3.031c3.3 0 6.499-1.044 9.159-3.03a14.8 14.8 0 0 0 1.55-1.348c.538-.538 1.077-1.11 1.548-1.75.337-.439.64-.876.91-1.348.168-.202.201-.438.1-.64zM18.452 3.6c-4.243 0-7.712 3.468-7.712 7.711s3.469 7.712 7.712 7.712 7.711-3.469 7.711-7.712S22.695 3.6 18.452 3.6z" fill="#AAA"/></g></svg>