<svg width="20" height="20" viewBox="0 0 20 20" xmlns="http://www.w3.org/2000/svg">
<path d="M13.3472 1.68367C12.7894 0.651641 11.7037 0 10.4997 0C9.29582 0 8.21023 0.651719 7.65266 1.68371C3.79709 2.87723 1 6.43004 1 10.6276C1 15.8038 5.25329 20 10.5 20C15.7467 20 20 15.8038 20 10.6276C20 6.43 17.2029 2.87715 13.3472 1.68367V1.68367ZM17.4554 8.11719V6.13855C17.9992 6.95414 18.3854 7.8466 18.6032 8.78645H17.3272C17.4096 8.57887 17.4554 8.35324 17.4554 8.11719ZM12.7832 5.43805C13.4318 4.7982 13.761 3.93859 13.7284 3.07074C14.6665 3.46344 15.5304 4.02848 16.2676 4.72813V8.11719C16.2676 8.48621 15.9632 8.78645 15.5892 8.78645H14.3169C14.1593 8.78645 14.0083 8.84816 13.8969 8.95809L12.2518 10.5811C11.9873 10.8421 11.557 10.842 11.2924 10.5811L10.1361 9.4402C9.28311 8.59832 7.90131 8.59711 7.04691 9.44008L6.07614 10.3978C5.78686 10.6832 5.24561 10.8026 4.89944 10.4611C4.61947 10.1849 4.61246 9.73348 4.89876 9.45102L6.92904 7.44797H10.4998C10.6518 7.44801 10.8039 7.39082 10.9199 7.27633L12.7832 5.43805ZM13.0434 11.4551L14.0067 12.4055C14.1387 12.5358 14.1778 12.73 14.1067 12.8998C14.0352 13.0698 13.8685 13.1797 13.682 13.1797H10.3905C10.2119 13.1797 10.0371 13.1083 9.911 12.9838L8.63868 11.7286C8.24606 11.3413 7.78004 11.0529 7.27169 10.8755L7.88678 10.2687C8.27611 9.88461 8.90633 9.88414 9.29598 10.2687L10.4525 11.4097C11.1666 12.1142 12.3143 12.1252 13.0434 11.4551V11.4551ZM8.61417 2.41496C8.9312 1.6598 9.67133 1.17188 10.5 1.17188C11.3283 1.17188 12.0686 1.65988 12.3858 2.41488C12.7028 3.17008 12.5291 4.03148 11.9433 4.60938L10.4999 6.0334C10.1612 5.6993 9.6454 5.19051 9.05636 4.60941C8.47056 4.03148 8.29694 3.17012 8.61417 2.41496V2.41496ZM2.18783 10.6276C2.18783 7.22644 4.28177 4.32215 7.27145 3.0707C7.23858 3.93855 7.56777 4.79809 8.21644 5.43805C8.52468 5.74215 8.81261 6.02621 9.0659 6.27605H6.68312C6.52557 6.27605 6.37452 6.33781 6.26318 6.4477L4.05889 8.62234C3.31337 9.35793 3.31895 10.5299 4.03276 11.2634C3.82703 11.3975 3.63329 11.5527 3.45492 11.7287L2.45984 12.7104C2.28258 12.045 2.18783 11.3471 2.18783 10.6276V10.6276ZM10.5 18.8281C7.1099 18.8281 4.18777 16.8152 2.89581 13.9375L4.29483 12.5573C5.26283 11.6023 6.82954 11.601 7.79884 12.5573L9.07112 13.8125C9.4184 14.1551 9.89932 14.3516 10.3906 14.3516H13.682C14.3505 14.3516 14.9479 13.9579 15.2041 13.3482C15.4596 12.7389 15.3194 12.0437 14.8469 11.5771L13.8845 10.6276L14.5629 9.95832H18.7851C18.803 10.1797 18.8122 10.4029 18.8122 10.6276C18.8122 15.1494 15.0833 18.8281 10.5 18.8281V18.8281Z" />
<path d="M10.5002 3.68359C10.8282 3.68359 11.0941 3.42126 11.0941 3.09766C11.0941 2.77405 10.8282 2.51172 10.5002 2.51172C10.1722 2.51172 9.90625 2.77405 9.90625 3.09766C9.90625 3.42126 10.1722 3.68359 10.5002 3.68359Z" />
</svg>
