<svg width="16" height="16" fill="none" xmlns="http://www.w3.org/2000/svg"><path d="M6.688 8.469v1.5h2.625v-1.5H6.687zM8 6.031c-.43 0-.781.35-.781.782v.718H8.78v-.718c0-.431-.35-.782-.781-.782z" fill="#C6C7CA"/><path d="M14.438 12.875c-.26 0-.506.064-.723.178l-1.09-1.09A6.067 6.067 0 0014.095 8a6.067 6.067 0 00-1.468-3.963l1.09-1.09A1.564 1.564 0 0016 1.562a1.564 1.564 0 10-2.947.722l-1.091 1.09A6.067 6.067 0 008 1.906a6.067 6.067 0 00-3.963 1.468l-1.09-1.09c.114-.216.178-.461.178-.721C3.125.7 2.425 0 1.562 0 .702 0 0 .7 0 1.563a1.564 1.564 0 002.285 1.384l1.09 1.09A6.067 6.067 0 001.905 8c0 1.512.554 2.896 1.468 3.963l-1.09 1.09A1.564 1.564 0 000 14.438a1.564 1.564 0 102.947-.722l1.091-1.09A6.067 6.067 0 008 14.094a6.067 6.067 0 003.963-1.468l1.09 1.09A1.564 1.564 0 0014.438 16a1.564 1.564 0 000-3.125zm-4.188-2.438c0 .26-.21.47-.469.47H6.22a.469.469 0 01-.469-.47V8c0-.259.21-.469.469-.469h.062v-.718A1.72 1.72 0 018 5.093a1.72 1.72 0 011.719 1.72v.718h.062c.26 0 .469.21.469.469v2.438z" fill="#C6C7CA"/></svg>