<svg width="200" height="200" fill="none" xmlns="http://www.w3.org/2000/svg"><path d="M200 0H0v200h200V0z" fill="#37055B"/><path d="M77.19 121.203c-2.503-2.762-5.339-5.43-7.661-8.502-8.204-10.83-5.369-25.073 4.011-33.14 8.747-7.51 18.912-10.117 30.102-9.465 7.45.435 14.357 2.545 20.571 6.858 5.459 3.786 9.712 8.657 11.431 15.36 1.9 7.478.03 14.305-4.253 20.449-1.689 2.42-3.891 4.437-5.881 6.578-.604.652-1.297 1.242-2.021 1.893 2.352 1.831 4.645 3.476 6.786 5.337 4.736 4.127 8.204 9.154 9.35 15.609 1.207 6.919-.543 13.156-4.645 18.742-4.403 5.989-10.405 9.619-17.162 11.947-13.693 4.654-27.206 4.313-40.266-2.328-6.304-3.196-11.371-7.974-14.387-14.646-4.132-9.154-2.293-19.146 5.037-26.655 2.805-2.979 6.032-5.461 8.988-8.037zm23.225 44.063c7.45.186 14.146-3.32 18.097-8.254 2.654-3.289 4.675-7.075 4.102-11.419-.875-6.672-4.162-12.009-9.984-15.36-8.626-4.996-21.596-4.468-29.317 4.22-5.49 6.206-6.213 15.422-1.176 22.063 4.645 6.113 10.948 8.595 18.278 8.75zm.241-48.966c4.736.031 9.2-1.086 13-4.065 9.109-7.168 10.738-18.09 1.146-26.624-4.766-4.22-10.436-5.678-16.65-4.996-6.816.745-12.275 3.91-16.076 9.837-1.598 2.514-2.835 5.43-2.352 8.44.633 3.972 2.02 7.727 4.826 10.799 4.373 4.779 9.893 6.578 16.106 6.609z" fill="url(#paint0_linear)"/><path d="M104.912 38.352h4.068v.607c0 3.982.041 7.975-.011 11.957-.041 3.695-1.7 6.464-4.985 8.03-4.985 2.384-10.96-.725-11.879-6.454a9.988 9.988 0 0 1-.104-1.48c-.01-2.662-.031-5.313-.01-7.975 0-.5-.157-.618-.616-.607-1.47.032-2.94.01-4.463.01v17.272h-4.078V42.44h-.605c-2.107 0-4.203-.01-6.31.011-.333 0-.531-.074-.656-.426-.47-1.214-.96-2.406-1.471-3.673h22.245v12.543c0 2.172 1.23 3.908 3.15 4.483 2.899.873 5.725-1.288 5.746-4.408.021-3.983 0-7.976 0-11.958-.021-.203-.021-.405-.021-.66zm14.32 12.79c5.132 4.62 10.179 9.178 15.289 13.789-.219.021-.365.042-.511.042-1.679 0-3.368-.01-5.047.011-.355 0-.605-.106-.876-.34-4.234-3.845-8.49-7.678-12.734-11.522-.063-.053-.136-.106-.271-.213v6.815h-4.068v-.554c0-6.75.011-13.491-.01-20.242 0-.5.146-.618.615-.607 2.618.021 5.246.01 7.864.01 3.233 0 5.976 2.471 6.288 5.665.334 3.387-1.866 6.41-5.141 7.028-.428.075-.855.075-1.398.117zm-1.731-8.7c-.678 0-1.356.01-2.033 0-.303-.01-.438.074-.428.415.021 1.235.01 2.481 0 3.716 0 .288.063.416.375.416 1.356-.011 2.712.032 4.057-.011 1.398-.043 2.263-1.033 2.222-2.45-.032-1.16-1.033-2.065-2.326-2.075-.615-.011-1.241-.011-1.867-.011zm-60.958-4.123v21.435c-.99 0-1.992.01-2.983-.01-.104 0-.218-.16-.291-.267-3.254-4.238-6.498-8.476-9.741-12.714-.094-.117-.198-.223-.386-.436v13.406h-4.015c-.01-.181-.032-.362-.032-.554 0-6.75 0-13.502-.01-20.253 0-.49.125-.65.605-.617a14.58 14.58 0 0 0 1.93 0c.479-.032.76.16 1.032.521 3.15 4.132 6.32 8.263 9.48 12.395.094.128.198.234.375.458.01-.288.031-.469.031-.65 0-4.025.01-8.04-.01-12.064 0-.565.167-.682.678-.66 1.095.042 2.2.01 3.337.01zm23.705 21.436c-1.429 0-2.764.011-4.099-.02-.177 0-.417-.214-.5-.395-1.93-4.45-3.838-8.912-5.757-13.374l-.292-.67c-.125.265-.23.457-.313.66-1.919 4.44-3.838 8.88-5.736 13.32-.156.373-.344.49-.73.48-1.262-.022-2.534-.011-3.88-.011.199-.49.376-.937.564-1.374 2.815-6.538 5.631-13.076 8.437-19.625.146-.35.344-.468.698-.447.626.032 1.252.032 1.878 0 .396-.021.573.139.73.49 2.294 5.367 4.599 10.733 6.904 16.09.688 1.608 1.376 3.205 2.096 4.877z" fill="#fff"/><path d="M145.68 59.757c-1.419 0-2.785.01-4.151-.021-.146 0-.344-.213-.407-.373-1.512-3.503-3.014-7.007-4.526-10.51-.501-1.16-1.001-2.31-1.554-3.588-1.804 4.195-3.556 8.273-5.34 12.426a591.714 591.714 0 0 1-3.212-2.896c2.149-4.973 4.276-9.914 6.404-14.844.229-.532.344-1.267.751-1.523.427-.276 1.147-.031 1.72-.127.876-.139 1.241.255 1.575 1.043 2.806 6.623 5.674 13.215 8.51 19.817.084.191.146.362.23.596zm2.41-21.405h4.036v17.25h7.947c.427 1.416.844 2.768 1.251 4.12h-13.245c.011-7.113.011-14.215.011-21.37z" fill="#fff"/><path d="M147.839 34.007c.438.629.803 1.15 1.157 1.65h-3.869c.355-.5.73-1.021 1.179-1.66-.804.245-1.492.32-2.034-.192-.323-.309-.615-.735-.741-1.16-.302-1.023.365-1.928 1.586-2.322.156-1.587.824-2.364 1.981-2.321 1.137.042 1.763.809 1.836 2.236 1.449.553 2.023 1.395 1.72 2.545-.26 1.033-1.241 1.501-2.815 1.224z" fill="#A02864"/><path d="M156.777 29.759c.386-.586.835-1.022 1.575-1.076 1.418-.106 2.326 1.172 1.95 2.47-.187.65-.615 1.247-1.032 1.79-.355.468-.834.84-1.283 1.224-.448.394-.928.756-1.356 1.097-.709-.692-1.627-1.555-2.503-2.46-.573-.585-.959-1.288-.959-2.161 0-.937.417-1.566 1.241-1.874.761-.288 1.585-.032 2.138.66.073.106.146.213.229.33z" fill="#DA355D"/><path d="M129.047 34.154c.25.681.459 1.235.667 1.81h-1.971c.209-.564.407-1.129.615-1.693-.709.373-1.355.415-2.002-.021-.751-.5-1.022-1.63-.594-2.62a3.49 3.49 0 0 1 .625-.969c.668-.724 1.377-1.395 2.065-2.097.198-.213.365-.224.563-.011.71.724 1.45 1.427 2.138 2.172.501.543.814 1.214.751 1.97-.104 1.427-1.314 2.385-2.857 1.459z" fill="#932C8F"/><path d="M137.546 28.395c.959 1.277 1.919 2.555 2.868 3.822-.949 1.257-1.898 2.524-2.868 3.812-.949-1.256-1.919-2.545-2.9-3.844a660.23 660.23 0 0 0 2.9-3.79z" fill="#672D91"/><defs><linearGradient id="paint0_linear" x1="100.5" y1="70" x2="100.5" y2="176" gradientUnits="userSpaceOnUse"><stop stop-color="#818285"/><stop offset=".354" stop-color="#CACBCE"/><stop offset=".354" stop-color="#848589"/><stop offset=".552" stop-color="#9D9EA1"/><stop offset=".734" stop-color="#D0D1D3"/><stop offset="1" stop-color="#A2A4A7"/></linearGradient></defs></svg>