<svg width="16" height="16" viewBox="0 0 16 16" fill="none" xmlns="http://www.w3.org/2000/svg">
<path d="M0.8 3.2H9.6C9.6 3.62435 9.76857 4.03131 10.0686 4.33137C10.3687 4.63143 10.7757 4.8 11.2 4.8H12.8C13.2243 4.8 13.6313 4.63143 13.9314 4.33137C14.2314 4.03131 14.4 3.62435 14.4 3.2H15.2C15.4122 3.2 15.6157 3.11571 15.7657 2.96569C15.9157 2.81566 16 2.61217 16 2.4C16 2.18783 15.9157 1.98434 15.7657 1.83431C15.6157 1.68429 15.4122 1.6 15.2 1.6H14.4C14.4 1.17565 14.2314 0.768687 13.9314 0.468629C13.6313 0.168571 13.2243 0 12.8 0H11.2C10.7757 0 10.3687 0.168571 10.0686 0.468629C9.76857 0.768687 9.6 1.17565 9.6 1.6H0.8C0.587827 1.6 0.384344 1.68429 0.234315 1.83431C0.0842854 1.98434 0 2.18783 0 2.4C0 2.61217 0.0842854 2.81566 0.234315 2.96569C0.384344 3.11571 0.587827 3.2 0.8 3.2ZM11.2 1.6H12.8V2.4V3.2H11.2V1.6ZM15.2 7.2H8C8 6.77565 7.83143 6.36869 7.53137 6.06863C7.23131 5.76857 6.82435 5.6 6.4 5.6H4.8C4.37565 5.6 3.96869 5.76857 3.66863 6.06863C3.36857 6.36869 3.2 6.77565 3.2 7.2H0.8C0.587827 7.2 0.384344 7.28429 0.234315 7.43431C0.0842854 7.58434 0 7.78783 0 8C0 8.21217 0.0842854 8.41566 0.234315 8.56569C0.384344 8.71571 0.587827 8.8 0.8 8.8H3.2C3.2 9.22435 3.36857 9.63131 3.66863 9.93137C3.96869 10.2314 4.37565 10.4 4.8 10.4H6.4C6.82435 10.4 7.23131 10.2314 7.53137 9.93137C7.83143 9.63131 8 9.22435 8 8.8H15.2C15.4122 8.8 15.6157 8.71571 15.7657 8.56569C15.9157 8.41566 16 8.21217 16 8C16 7.78783 15.9157 7.58434 15.7657 7.43431C15.6157 7.28429 15.4122 7.2 15.2 7.2ZM4.8 8.8V7.2H6.4V8V8.8H4.8ZM15.2 12.8H12.8C12.8 12.3757 12.6314 11.9687 12.3314 11.6686C12.0313 11.3686 11.6243 11.2 11.2 11.2H9.6C9.17565 11.2 8.76869 11.3686 8.46863 11.6686C8.16857 11.9687 8 12.3757 8 12.8H0.8C0.587827 12.8 0.384344 12.8843 0.234315 13.0343C0.0842854 13.1843 0 13.3878 0 13.6C0 13.8122 0.0842854 14.0157 0.234315 14.1657C0.384344 14.3157 0.587827 14.4 0.8 14.4H8C8 14.8243 8.16857 15.2313 8.46863 15.5314C8.76869 15.8314 9.17565 16 9.6 16H11.2C11.6243 16 12.0313 15.8314 12.3314 15.5314C12.6314 15.2313 12.8 14.8243 12.8 14.4H15.2C15.4122 14.4 15.6157 14.3157 15.7657 14.1657C15.9157 14.0157 16 13.8122 16 13.6C16 13.3878 15.9157 13.1843 15.7657 13.0343C15.6157 12.8843 15.4122 12.8 15.2 12.8ZM9.6 14.4V12.8H11.2V13.6V14.4H9.6Z" fill="white"/>
</svg>
