<svg width="73" height="20" fill="none" xmlns="http://www.w3.org/2000/svg"><g clip-path="url(#clip0)"><path d="M70.985 4.514c-.921-.622-2.316-.936-4.144-.936h-4.787l-1.78 9.517h-6.27l.402-2.16h3.778l.448-2.424-3.776.005.404-2.15h3.892l.517-2.787h-7.902l-1.69 9.027h-2.9l1.701-9.028h-4.13l-1.69 9.028h-2.825l1.702-9.028h-4.128l-1.782 9.517h-6.317l.4-2.159H33.9l.448-2.411-3.79-.004.402-2.154h3.935l.515-2.789H10.785L9.384 11.12 6.593 3.578H2.307L0 15.886h4.093l1.396-7.75 2.709 7.75h14.669l1.784-9.52h2.294l-1.784 9.52H63.76l1.119-6.01 1.81 6.01h4.095l-1.876-4.91.43-.092c.945-.2 1.682-.628 2.195-1.27.513-.649.775-1.482.775-2.482 0-1.164-.433-2.02-1.323-2.62l.001.002zm-51.68 8.581H13.04l.405-2.16h3.93l.445-2.431h-3.892l.375-2.137h6.256l-1.255 6.728h.001zM67.611 8.95c-.412.283-1.009.421-1.825.421h-.81l.621-3.303h.596c.678 0 1.172.107 1.513.326.266.171.583.51.583 1.15-.001.775-.37 1.191-.68 1.405h.002z" fill="#fff"/></g></svg>