<svg width="200" height="200" fill="none" xmlns="http://www.w3.org/2000/svg"><path d="M200 0H0v200h200V0z" fill="url(#paint0_radial)"/><path d="M29.334 99.243c.091-.878.197-1.75.275-2.629.212-2.54.685-5.014 1.687-7.348 1.342-3.13 3.417-5.516 6.495-6.838 2.196-.945 4.498-1.166 6.856-.99 3.558.274 6.84 1.485 10.01 3.102 1.116.569 2.217 1.182 3.418 1.817-1.532 2.651-3.036 5.25-4.575 7.909-.276-.14-.523-.259-.763-.391-1.61-.872-3.233-1.714-4.97-2.26a15.278 15.278 0 0 0-2.683-.584c-1.652-.192-2.937.48-3.784 1.994-.543.968-.833 2.031-.995 3.131-.382 2.63-.374 5.244.197 7.843.205.916.53 1.78 1.073 2.548.713 1.019 1.674 1.551 2.888 1.573 1.51.037 2.944-.37 4.314-.96 1.348-.576 2.654-1.256 3.974-1.898.233-.111.46-.236.756-.384 1.518 2.629 3.021 5.228 4.553 7.865-.084.066-.14.118-.204.147-2.838 1.603-5.719 3.117-8.84 4.018-2.237.649-4.51.96-6.833.804-5.161-.339-8.79-2.99-10.901-7.909-.995-2.311-1.447-4.77-1.659-7.281-.078-.901-.184-1.802-.275-2.703-.014-.184-.014-.384-.014-.576zm108.074.246c.028-2.452.283-4.985 1.059-7.444 1.673-5.273 5.048-8.662 10.216-10.006 3.742-.975 7.512-.945 11.232.148 4.999 1.47 8.197 4.918 9.75 10.05.911 3.013 1.137 6.122.932 9.268-.127 1.972-.438 3.907-1.052 5.782-1.694 5.17-5.048 8.493-10.131 9.822-3.551.93-7.131.93-10.689.022-5.379-1.381-8.789-4.955-10.399-10.457-.664-2.304-.897-4.674-.918-7.185zm22.656.074c0-.495.028-.99-.008-1.477-.105-1.507-.345-2.983-.974-4.357-.783-1.706-2.033-2.828-3.855-3.11-.691-.102-1.411-.14-2.103-.05-1.871.22-3.248 1.247-4.06 3.027a10.09 10.09 0 0 0-.685 2.009c-.515 2.252-.529 4.534-.219 6.816.142 1.048.403 2.075.848 3.035.621 1.336 1.546 2.348 2.915 2.836 1.427.509 2.867.509 4.293-.023 1.631-.605 2.584-1.912 3.156-3.552.586-1.661.741-3.389.692-5.154zm-70.348 17.622H79.528c-.085-.76-.028-1.543-.035-2.319-.007-.76 0-1.528 0-2.289v-2.363-2.363-2.289-2.341c-.537-.163-7.258-.214-8.486-.067-.057.909-.022 1.832-.029 2.755-.007.938 0 1.868 0 2.806v8.455h-10.23V82.056c.495-.162 8.628-.229 10.202-.074.05.783.014 1.588.021 2.386.007.812 0 1.624 0 2.437v7.414h8.5V82.07c.572-.162 9.08-.214 10.245-.081v35.195zm47.329-30.764c-1.532 2.651-3.029 5.236-4.547 7.857-.381-.199-.713-.376-1.045-.553-1.616-.857-3.247-1.677-4.991-2.209-1.158-.354-2.323-.635-3.544-.443-.989.156-1.751.68-2.337 1.514-.671.953-1.024 2.046-1.214 3.198-.473 2.843-.48 5.679.197 8.492.212.886.565 1.721 1.116 2.445.685.893 1.574 1.373 2.676 1.417 1.489.06 2.901-.324 4.257-.9 1.327-.562 2.619-1.219 3.925-1.839.297-.141.586-.31.953-.51 1.518 2.629 3.029 5.229 4.533 7.828-.064.081-.099.148-.156.185-2.774 1.573-5.584 3.05-8.634 3.965-2.492.753-5.027 1.101-7.604.842-4.942-.495-8.38-3.198-10.385-7.924-1.031-2.437-1.511-5.021-1.666-7.658-.191-3.227-.092-6.447.664-9.607.663-2.762 1.751-5.295 3.685-7.363 1.991-2.127 4.441-3.264 7.236-3.626 3.643-.465 7.117.288 10.499 1.647 2.111.85 4.123 1.928 6.106 3.05.085.03.149.096.276.192zm-32.166-4.44v35.195H94.79c-.148-.517-.204-34.11-.049-35.195h10.138z" fill="#fff"/><defs><radialGradient id="paint0_radial" cx="0" cy="0" r="1" gradientUnits="userSpaceOnUse" gradientTransform="rotate(45) scale(282.843)"><stop stop-color="#48A8EC"/><stop offset="1" stop-color="#0771BB"/></radialGradient></defs></svg>