<svg width="200" height="200" fill="none" xmlns="http://www.w3.org/2000/svg"><path d="M200 0H0v200h200V0z" fill="#224C8C"/><path d="M50.041 114.903c9.463-7.491 24.445-17.348 41.398-14.194 12.617 2.366 18.925 3.155 28.388-.394-9.069-2.76-13.406-7.097-18.137-13.8 8.28-2.76 11.04-3.153 22.079-9.856-1.971-1.577-8.674-7.097-21.29-7.491-18.137 0-27.993 6.308-41.793 14.982l-10.645 30.753z" fill="#EF3E33"/><path d="M149 51.04c-4.337 4.336-12.223 11.827-29.57 4.73-17.348-6.702-30.753 1.972-34.696 3.943L75.272 88.1c10.645-6.308 22.473-12.222 35.089-7.096 12.617 4.73 18.531 4.336 29.176-1.578L149 51.04z" fill="#FFD520"/><path d="M63.443 74.696c13.8-9.069 24.05-15.377 41.793-14.983 15.376 0 25.233-1.577 38.638-19.713-13.011 7.097-21.29 7.885-35.484 3.548-14.194-4.337-24.445-1.97-36.273 4.337l-8.674 26.81z" fill="#62BB46"/><path d="M76.523 125.186c-4.585 0-16.002 1.301-18.715 14.032-1.498 7.156 3.275 10.873 12.445 10.78 4.492-.093 15.908-1.394 18.622-14.125 1.59-7.156-3.182-10.873-12.352-10.687zm5.053 11.523c-2.994 10.037-8.796 11.245-11.042 11.152-4.585-.186-6.457-3.81-4.866-9.479 2.994-10.037 8.796-11.245 11.042-11.152 4.585.186 6.457 3.81 4.866 9.479zM158.12 125l-.468 1.487c1.217.372 1.872 1.208 1.123 3.717-1.029 3.531-7.205 19.051-7.205 19.051h20.025l1.404-4.368h-12.071c1.684-4.182 7.018-19.887 7.018-19.887h-9.826zm-23.674 2.323c-1.03 1.208-16.283 21.839-16.283 21.839h6.644l5.708-7.713h8.89l2.059 7.713h7.112s-5.241-20.909-5.802-22.768c-.468-1.859-5.895-1.766-8.328.929zm4.304 11.895h-6.925c-.093 0-.187-.185-.093-.278.187-.279 3.93-5.483 5.708-7.807 0 0 .561 3.996 1.591 7.807 0 .185-.094.278-.281.278zm-99.19 7.714c-4.399-.279-5.241-3.718-4.118-9.108 2.152-9.386 7.767-9.85 9.919-9.664 2.526.185 3.181 1.301 3.743 3.159h7.112c-1.404-3.345-4.96-6.505-12.352-6.226-2.34 0-14.785 1.301-16.75 12.638-.655 3.625 1.216 11.989 13.1 11.71 1.778-.093 10.013-.279 12.914-6.041h-7.58c-1.59 3.16-4.585 3.625-5.989 3.532zm57.08 2.137s5.709-16.077 7.206-19.422c1.497-3.346 1.591-3.346 3.93-3.346 2.714 0 4.024 1.859 2.995 3.996-.936 2.045-2.433 5.018-9.171 7.156l-.187 1.115 4.679 10.501h8.328s-1.123-1.766-2.62-4.368c-1.871-3.345-2.433-4.832-3.556-7.341 3.93-1.115 8.609-2.788 9.639-7.156 1.31-5.39-6.364-5.111-8.984-5.111H96.455l-.468 1.487c1.871.372 1.497 1.394.748 3.81-2.152 6.226-3.275 8.921-4.96 13.103-1.684 4.182-2.151 5.576-2.151 5.576h7.018z" fill="#fff"/></svg>