<svg width="200" height="200" fill="none" xmlns="http://www.w3.org/2000/svg"><path d="M200 0H0v200h200V0z" fill="url(#paint0_radial)"/><path d="M58.56 96.72H37.024a9.314 9.314 0 0 1-9.333-9.333V76.332A9.314 9.314 0 0 1 37.024 67h8.04c1.148 0 2.153 1.005 2.153 2.154 0 1.148-.861 2.153-2.153 2.153h-8.04c-2.728 0-5.025 2.297-5.025 5.025v11.055c0 2.728 2.297 5.025 5.025 5.025H58.56c1.148 0 2.153 1.005 2.153 2.154s-1.005 2.154-2.153 2.154z" fill="#fff"/><path d="M58.56 85.092H29.845c-1.149 0-2.154-1.005-2.154-2.153 0-1.149 1.005-2.154 2.154-2.154H58.56c1.148 0 2.153 1.005 2.153 2.154 0 1.148-1.005 2.153-2.153 2.153zM93.16 96.72c-1.149 0-2.154-1.005-2.154-2.154V81.787c0-2.01-1.579-3.59-3.589-3.59h-15.65c-2.01 0-3.589 1.58-3.589 3.59v12.778c0 1.149-1.005 2.154-2.153 2.154-1.149 0-2.154-1.005-2.154-2.154V81.787c0-4.307 3.59-7.896 7.897-7.896h15.65c4.306 0 7.896 3.589 7.896 7.896v12.778c0 1.292-1.005 2.154-2.154 2.154zm20.962 0h-7.035a8.702 8.702 0 0 1-8.758-8.758v-6.174c0-4.307 3.589-7.896 7.897-7.896h16.367c4.307 0 7.896 3.589 7.896 7.896v3.59c0 1.148-1.005 2.153-2.153 2.153h-25.7v.43c0 2.442 2.01 4.452 4.451 4.452h7.035c1.149 0 2.154 1.005 2.154 2.153 0 1.149-1.005 2.154-2.154 2.154zm-11.486-13.496h23.546v-1.436c0-2.01-1.579-3.59-3.589-3.59h-16.511a3.554 3.554 0 0 0-3.589 3.59v1.436h.143zm36.755 13.497c-1.149 0-2.154-1.005-2.154-2.154V69.154c0-1.149 1.005-2.154 2.154-2.154 1.148 0 2.153 1.005 2.153 2.154v25.412c0 1.292-1.005 2.154-2.153 2.154z" fill="#fff"/><path d="M149.441 78.198h-15.075c-1.149 0-2.154-1.005-2.154-2.154 0-1.148 1.005-2.153 2.154-2.153h15.075c1.148 0 2.153 1.005 2.153 2.153 0 1.149-1.005 2.154-2.153 2.154z" fill="#fff"/><path d="M143.269 132.719h-7.035a8.702 8.702 0 0 1-8.758-8.758v-6.174c0-4.307 3.589-7.896 7.896-7.896h16.367c4.308 0 7.897 3.589 7.897 7.896v3.589c0 1.149-1.005 2.154-2.154 2.154h-25.843v.431c0 2.441 2.01 4.451 4.451 4.451h7.035c1.149 0 2.154 1.005 2.154 2.153 0 1.149-.862 2.154-2.01 2.154zm-11.63-13.64h23.546v-1.435c0-2.01-1.579-3.59-3.589-3.59h-16.367c-2.01 0-3.59 1.58-3.59 3.59v1.435zM87.706 132.71h-14.5c-4.308 0-7.897-3.446-7.897-7.897v-7.178c0-4.307 3.445-7.897 7.896-7.897h14.501c4.307 0 7.897 3.446 7.897 7.897v7.178c-.144 4.308-3.59 7.897-7.897 7.897zm-14.5-18.521a3.554 3.554 0 0 0-3.59 3.589v7.179c0 2.01 1.58 3.589 3.59 3.589h14.5c2.01 0 3.59-1.579 3.59-3.589v-7.179c0-2.01-1.58-3.589-3.59-3.589h-14.5zm-43.79 18.532c-1.15 0-2.154-1.005-2.154-2.154v-24.695c0-1.148 1.005-2.153 2.153-2.153H53.25c5.024 0 9.188 4.163 9.188 9.188v.431c0 5.025-4.163 9.189-9.188 9.189h-21.68v8.04c0 1.149-1.005 2.154-2.154 2.154zm2.153-14.501h21.68a4.842 4.842 0 0 0 4.88-4.882v-.431a4.841 4.841 0 0 0-4.88-4.881h-21.68v10.194zm70.064 14.501c-1.148 0-2.153-1.005-2.153-2.154v-24.695c0-1.148 1.005-2.153 2.153-2.153 1.149 0 2.154 1.005 2.154 2.153v24.551c0 1.293-1.005 2.298-2.154 2.298z" fill="#2FB5DF"/><path d="M123.168 132.724c-.287 0-.574 0-.861-.143l-21.536-9.189c-.862-.287-1.293-1.148-1.293-2.01 0-.861.575-1.579 1.293-2.01l21.536-9.189c1.148-.43 2.297 0 2.871 1.149.431 1.149 0 2.297-1.148 2.871l-16.942 7.323 16.942 7.322c1.148.431 1.579 1.723 1.148 2.871-.431.431-1.292 1.005-2.01 1.005zm41.35-.004c-1.149 0-2.154-1.005-2.154-2.154v-12.491c0-4.451 3.59-8.04 8.04-8.04h4.738c1.149 0 2.154 1.005 2.154 2.154 0 1.148-1.005 2.153-2.154 2.153h-4.738c-2.153 0-3.733 1.723-3.733 3.733v12.491c0 1.149-1.005 2.154-2.153 2.154z" fill="#2FB5DF"/><defs><radialGradient id="paint0_radial" cx="0" cy="0" r="1" gradientUnits="userSpaceOnUse" gradientTransform="rotate(45) scale(282.843)"><stop stop-color="#525252"/><stop offset="1"/></radialGradient></defs></svg>