<svg width="20" height="20" fill="none" xmlns="http://www.w3.org/2000/svg"><path d="M0 0v20h20V0H0zm1.172 1.327h14.14v2.655H1.172V1.327zM16.484 5.31v1.327h-4.726V5.31h4.726zm-15.312 0h9.414v2.013H5.293v3.34H1.172V5.31zm9.414 5.995v2.014h2.95v2.013H6.464v-4.027h4.12zM6.465 9.978V8.65h4.12v1.328h-4.12zM1.172 11.99h4.121v1.328H1.172V11.99zm7.07 6.682h-7.07v-4.027h4.121v2.013h2.95v2.014zm10.586 0H9.414v-2.014h5.293v-3.34h4.121v5.354zm0-6.682h-7.07V7.965h7.07v4.026zm0-5.354h-1.172V5.31h1.172v1.327zm0-2.655h-2.344V1.327h2.344v2.655z" fill="#999"/></svg>