<svg width="40" height="40" fill="none" xmlns="http://www.w3.org/2000/svg"><rect width="40" height="40" rx="4" fill="url(#ios_radial)"/><path d="M10.133 14.786c0 .757-.577 1.37-1.478 1.37-.865 0-1.442-.613-1.424-1.37-.018-.793.559-1.388 1.442-1.388.883 0 1.441.595 1.46 1.388zM7.303 26.05v-8.813h2.739v8.813h-2.74zm16.149-6.198c0 3.983-2.415 6.398-5.966 6.398-3.604 0-5.713-2.721-5.713-6.182 0-3.64 2.325-6.362 5.912-6.362 3.73 0 5.767 2.794 5.767 6.146zm-8.777.162c0 2.38 1.117 4.055 2.956 4.055 1.856 0 2.92-1.766 2.92-4.127 0-2.181-1.046-4.055-2.939-4.055-1.856 0-2.937 1.766-2.937 4.127zm10.668 3.208c.739.378 1.874.757 3.046.757 1.261 0 1.928-.523 1.928-1.316 0-.757-.577-1.19-2.037-1.712-2.018-.703-3.334-1.82-3.334-3.586 0-2.073 1.73-3.659 4.596-3.659 1.37 0 2.379.288 3.1.613l-.613 2.217a5.775 5.775 0 0 0-2.541-.577c-1.19 0-1.766.54-1.766 1.171 0 .775.684 1.118 2.252 1.712 2.146.794 3.155 1.911 3.155 3.623 0 2.037-1.568 3.767-4.903 3.767-1.387 0-2.757-.36-3.442-.74l.559-2.27z" fill="#fff"/><defs><radialGradient id="ios_radial" cx="0" cy="0" r="1" gradientUnits="userSpaceOnUse" gradientTransform="rotate(45) scale(56.5685)"><stop offset=".427" stop-color="#D36C5B"/><stop offset="1" stop-color="#822EAA"/></radialGradient></defs></svg>