<svg width="40" height="40" fill="none" xmlns="http://www.w3.org/2000/svg"><rect width="40" height="40" rx="4" fill="url(#macos_radial)"/><path d="M17.345 29.91c-3.336-.02-6.095-6.828-6.095-10.296 0-5.665 4.25-6.905 5.887-6.905.738 0 1.526.29 2.221.546.486.18.989.364 1.269.364.167 0 .561-.157.91-.295.742-.296 1.666-.663 2.742-.663h.006c.804 0 3.24.177 4.704 2.376l.343.515-.493.373c-.706.532-1.993 1.503-1.993 3.426 0 2.278 1.458 3.154 2.158 3.575.31.186.63.378.63.797 0 .274-2.186 6.153-5.36 6.153-.776 0-1.325-.233-1.81-.44-.489-.208-.912-.387-1.61-.387-.354 0-.801.167-1.275.345-.648.242-1.38.516-2.212.516h-.022zm7.27-22.41c.083 2.98-2.049 5.047-4.177 4.918-.351-2.378 2.128-4.918 4.177-4.918z" fill="#fff"/><defs><radialGradient id="macos_radial" cx="0" cy="0" r="1" gradientUnits="userSpaceOnUse" gradientTransform="rotate(45) scale(56.5685)"><stop stop-color="#B9B7B7"/><stop offset="1" stop-color="#262626"/></radialGradient></defs></svg>