<svg fill="none" height="60" viewBox="0 0 62 60" width="62" xmlns="http://www.w3.org/2000/svg" xmlns:xlink="http://www.w3.org/1999/xlink"><linearGradient id="a"><stop offset="0" stop-color="#ff7044"/><stop offset="1" stop-color="#f82814"/></linearGradient><linearGradient id="b" gradientUnits="userSpaceOnUse" x1="29.1522" x2="34.1907" xlink:href="#a" y1="26.3471" y2="38.5136"/><linearGradient id="c" gradientUnits="userSpaceOnUse" x1="25.7971" x2="39.7974" xlink:href="#a" y1="5.69008" y2="30.6105"/><linearGradient id="d"><stop offset="0" stop-color="#f82814" stop-opacity="0"/><stop offset="1" stop-color="#c0272d"/></linearGradient><linearGradient id="e" gradientUnits="userSpaceOnUse" x1="31.2937" x2="31.2937" xlink:href="#d" y1="22.254" y2="17.2952"/><linearGradient id="f" gradientUnits="userSpaceOnUse" x1="40.3308" x2="33.7995" xlink:href="#d" y1="18.3541" y2="18.3541"/><linearGradient id="g"><stop offset="0" stop-color="#ffd945"/><stop offset=".3043" stop-color="#ffcd3e"/><stop offset=".8558" stop-color="#ffad2b"/><stop offset="1" stop-color="#ffa325"/></linearGradient><linearGradient id="h" gradientUnits="userSpaceOnUse" x1="25.7514" x2="38.8058" xlink:href="#g" y1="17.5608" y2="19.5591"/><linearGradient id="i" gradientUnits="userSpaceOnUse" x1="30.193" x2="33.0541" xlink:href="#g" y1="9.3641" y2="22.1332"/><linearGradient id="j" gradientUnits="userSpaceOnUse" x1="29.83" x2="33.871" xlink:href="#g" y1="31.0622" y2="35.9119"/><linearGradient id="k"><stop offset="0" stop-color="#f35227" stop-opacity="0"/><stop offset="1" stop-color="#f35227"/></linearGradient><linearGradient id="l" gradientUnits="userSpaceOnUse" x1="31.7264" x2="22.4007" xlink:href="#k" y1="13.8165" y2="2.30263"/><linearGradient id="m" gradientUnits="userSpaceOnUse" x1="40.1057" x2="29.6668" xlink:href="#d" y1="23.8768" y2="12.497"/><linearGradient id="n" gradientUnits="userSpaceOnUse" x1="38.2" x2="36.4194" xlink:href="#g" y1="16.6628" y2="23.124"/><linearGradient id="o" gradientUnits="userSpaceOnUse" x1="22.7982" x2="27.1351" xlink:href="#g" y1="17.0488" y2="22.6013"/><linearGradient id="p" gradientUnits="userSpaceOnUse" x1="34.9613" x2="34.8131" xlink:href="#k" y1="18.3952" y2="12.7704"/><linearGradient id="q" gradientUnits="userSpaceOnUse" x1="39.3163" x2="43.4794" xlink:href="#g" y1="3.07964" y2="13.0166"/><linearGradient id="r" gradientUnits="userSpaceOnUse" x1="42.0815" x2="33.2315" xlink:href="#k" y1="11.5428" y2="7.18374"/><linearGradient id="s" gradientUnits="userSpaceOnUse" x1="20.9907" x2="20.25" xlink:href="#g" y1="2.88239" y2="13.608"/><linearGradient id="t" gradientUnits="userSpaceOnUse" x1="20.0489" x2="28.8989" xlink:href="#k" y1="11.5286" y2="7.1695"/><linearGradient id="u" gradientUnits="userSpaceOnUse" x1="29.5081" x2="33.4414" xlink:href="#g" y1="11.1824" y2="16.7682"/><linearGradient id="v" gradientUnits="userSpaceOnUse" x1="31.4488" x2="27.3447" y1="13.9542" y2="7.42237"><stop offset="0" stop-color="#ffd945" stop-opacity="0"/><stop offset="1" stop-color="#fbed21"/></linearGradient><linearGradient id="w" gradientUnits="userSpaceOnUse" x1="31.1928" x2="36.7992" xlink:href="#k" y1="14.7922" y2="3.86987"/><linearGradient id="x"><stop offset="0" stop-color="#ffdecf"/><stop offset="1" stop-color="#faa68e"/></linearGradient><linearGradient id="y" gradientUnits="userSpaceOnUse" x1="38.8748" x2="42.6733" xlink:href="#x" y1="42.9024" y2="44.7551"/><linearGradient id="z" gradientUnits="userSpaceOnUse" x1="41.8416" x2="44.8698" xlink:href="#x" y1="40.4856" y2="43.7681"/><linearGradient id="A" gradientUnits="userSpaceOnUse" x1="44.9592" x2="47.8138" xlink:href="#x" y1="39.6066" y2="44.5456"/><linearGradient id="B" gradientUnits="userSpaceOnUse" x1="32.0193" x2="29.2473" xlink:href="#x" y1="51.7888" y2="31.1117"/><linearGradient id="C"><stop offset="0" stop-color="#ffdecf" stop-opacity="0"/><stop offset="1" stop-color="#fff"/></linearGradient><linearGradient id="D" gradientUnits="userSpaceOnUse" x1="30.8412" x2="39.0728" xlink:href="#C" y1="47.3062" y2="68.2459"/><linearGradient id="E" gradientUnits="userSpaceOnUse" x1="19.4458" x2="8.17375" y1="55.0881" y2="50.0691"><stop offset="0" stop-color="#faa68e" stop-opacity="0"/><stop offset="1" stop-color="#faa68e"/></linearGradient><linearGradient id="F" gradientUnits="userSpaceOnUse" x1="28.4043" x2="31.7811" xlink:href="#C" y1="45.697" y2="54.6829"/><linearGradient id="G" gradientUnits="userSpaceOnUse" x1="6.26462" x2="6.26462" y1="38.9276" y2="79.8749"><stop offset="0" stop-color="#8a7889"/><stop offset="1" stop-color="#6e566e"/></linearGradient><g opacity=".7"><path d="m48.1519 28.309-17.0517-.2401-16.6647.2401v5.5968c0 1.5477 1.2706 2.8023 2.8377 2.8023h28.0409c1.5673 0 2.8376-1.2547 2.8376-2.8023v-5.5968z" fill="url(#b)"/><path d="m48.1519 28.309h-33.7164v-10.1937s.2505-16.62939.666-17.116811c.5206-.610595 1.3003-.998489 2.1717-.998489h28.0409c.869 0 1.6468.385734 2.1673.993327.4182.488143.6703 17.130273.6703 17.130273v10.1854z" fill="url(#c)"/><path d="m47.787 16.2044h-32.9867l-.3648 1.9055v10.1991h33.7162v-10.189z" fill="url(#e)"/><path d="m45.315.00012207h-10.2266l-2.8833.72032393v35.627554l2.8836.3602h10.2263c1.5673 0 2.8377-1.2547 2.8377-2.8023v-5.5968-10.2094s-.2512-16.61571-.668-17.10337c-.5205-.609274-1.2992-.99620793-2.1697-.99620793z" fill="url(#f)"/><path d="m27.041.00012207h8.0498v36.70807793h-8.0498z" fill="url(#h)"/><path d="m14.4355 10.1799h33.7164v7.9495h-33.7164z" fill="url(#i)"/><path d="m27.041 28.309h8.0498v8.3991h-8.0498z" fill="url(#j)"/><path d="m48.1513 18.1294v-7.9495h-13.0618v-5.45866c-.3066.4029-.5837.83246-.8252 1.28782l-1.738 3.27724c-.3057-.10997-.6276-.18621-.961-.22498l-4.5256-4.46421v5.58279h-13.1002c.3063.3823.6376.7419.9968 1.0704l6.5954 6.5179c-.184.1236-.3717.2433-.5612.3612h6.0692v13.4573l5.1861 5.1215h2.8637v-18.5788z" fill="url(#l)"/><path d="m48.1524 10.1797v23.7256c0 1.5479-1.2698 2.8034-2.8372 2.8034h-13.0878l-11.127-10.9883c-.2521-.0195-.4708-.2176-.4815-.489l-.0669-1.5809-2.9146-2.8528c-.4663-.1455-.4906-.7844-.0379-.9674 1.2257-.498 2.3406-1.0574 3.3733-1.7009h14.1175v-7.9497z" fill="url(#m)"/><path d="m44.5311 19.8298c-4.2294-1.7144-7.1605-4.1778-9.7637-8.1441l-4.4451 5.5819c2.7479 4.187 5.8611 6.6991 10.4814 8.4232.3331.1244.6933-.1085.7081-.4599l.1117-2.6509c.023-.5442.3892-1.0158.9156-1.1787l1.9532-.6045c.4663-.1443.4909-.7837.0388-.967z" fill="url(#n)"/><path d="m17.599 19.8298c4.2293-1.7144 7.1605-4.1778 9.7636-8.1441l4.4452 5.5819c-2.748 4.187-5.8612 6.6991-10.4814 8.4232-.3331.1244-.6933-.1085-.7082-.4599l-.1117-2.6509c-.023-.5442-.3891-1.0158-.9155-1.1787l-1.9533-.6045c-.4664-.1443-.491-.7837-.0387-.967z" fill="url(#o)"/><path d="m44.5324 19.8298c-4.2294-1.7144-7.1605-4.1778-9.7637-8.1441l-3.7026 4.6495-3.7026-4.6495c-.7472 1.1385-1.5217 2.1526-2.3459 3.0613v.0001l5.0024 4.9401c.3567-.4257.7051-.8717 1.0461-1.3426 2.5711 3.5498 5.5293 5.7753 9.7387 7.3462.3331.1244.6933-.1085.7082-.4599l.1118-2.6509c.023-.5442.3892-1.0158.9155-1.1787l1.9533-.6045c.4663-.1443.4909-.7837.0388-.967z" fill="url(#p)"/><path d="m31.3832 11.4418 2.8809-5.43273c1.6494-3.11024 4.9164-5.05367 8.4715-5.039264l6.4906.026172c2.1734.008762 3.477 2.387872 2.2953 4.189282l-2.8065 4.27897c-1.3669 2.08397-3.5133 3.54927-5.9705 4.07597l-8.3601 1.7919c-2.2665.4856-4.0772-1.8614-3.0012-3.8903z" fill="url(#q)"/><path d="m45.66 6.7252c-5.7494-.02317-10.9359 2.36903-14.5819 6.2074.1395 1.5116 1.591 2.767 3.3063 2.3993l8.3602-1.792c2.4571-.5266 4.6034-1.9919 5.9705-4.07591l1.4483-2.20815c-1.4469-.33735-2.9529-.52439-4.5034-.53064z" fill="url(#r)"/><path d="m30.7466 11.4418-2.881-5.43273c-1.6493-3.11024-4.9163-5.05367-8.4715-5.039264l-6.4905.026172c-2.1735.008642-3.477 2.387632-2.2955 4.189162l2.8066 4.27897c1.3669 2.08399 3.5133 3.54929 5.9704 4.07599l8.3602 1.7919c2.2666.4857 4.0773-1.8613 3.0013-3.8902z" fill="url(#s)"/><path d="m16.4702 6.7252c5.7494-.02317 10.9359 2.36903 14.5819 6.2074-.1394 1.5116-1.591 2.767-3.3063 2.3993l-8.3602-1.792c-2.4571-.5266-4.6034-1.9919-5.9704-4.07591l-1.4484-2.20815c1.4469-.33735 2.953-.52439 4.5034-.53064z" fill="url(#t)"/><path d="m35.3365 13.1897c.0337 2.3293-1.8515 4.2445-4.2106 4.2778-2.3592.0333-4.2989-1.8281-4.3325-4.1575-.0337-2.3293 1.8515-4.24448 4.2107-4.27773 2.3591-.03326 4.2988 1.82823 4.3324 4.15743z" fill="url(#u)"/><path d="m34.6304 13.1997c.028 1.944-1.5453 3.5424-3.5142 3.5702-1.9689.0277-3.5877-1.5257-3.6158-3.4697-.0281-1.9441 1.5452-3.54245 3.5142-3.57019 1.9689-.02785 3.5877 1.52569 3.6158 3.46969z" fill="url(#v)"/><path d="m32.9216 9.4502c.2963.5636.4679 1.2021.4778 1.8803.0337 2.3293-1.8515 4.2445-4.2107 4.2777-.6868.0098-1.3381-.1415-1.9172-.4179.7213 1.3723 2.1825 2.3006 3.8547 2.2771 2.3591-.0333 4.2443-1.9485 4.2106-4.2778-.0238-1.6509-1.0055-3.0666-2.4152-3.7394z" fill="url(#w)"/><path d="m42.1001 39.7207c-.4866.1967-.8652.5575-1.0186 1.0331l-1.2473 3.8621c-.4589 1.4197-1.3532 2.6719-2.5764 3.6498 2.3638.7109 4.829-.1442 5.6908-1.9855.2191-.4683.4112-.9492.5747-1.4415l1.0984-3.3083c.199-.5991-.008-1.2386-.4808-1.7142-.1231-.0593-.252-.11-.3883-.1502-.5807-.1739-1.1702-.14-1.6525.0547z" fill="url(#y)"/><path d="m49.5422 39.7381-2.8557 4.6157c-.4251.6867-.8816 1.3499-1.3675 1.9876-1.9102 2.5076-5.4415 3.1655-8.1569 1.536 1.9947-1.1439 3.6884-2.7736 4.898-4.7574l3.2889-5.397c.4047-.6645 1.0476-1.1046 1.7569-1.2756.7028-.1694 1.4726-.0748 2.1401.3245.1568.0928.2998.1992.4315.317.397.8184.3818 1.8133-.1353 2.6492z" fill="url(#z)"/><path d="m54.7578 40.6916-4.8859 4.9711c-.7272.7395-1.4869 1.4407-2.2761 2.1022-3.1026 2.6007-7.7021 2.4391-10.629-.353 2.8187-.8734 5.4001-2.4377 7.4777-4.5791l5.6502-5.8265c.6954-.7174 1.6242-1.0882 2.5592-1.1043.9263-.0158 1.861.3167 2.5809 1.0014.1695.1596.3175.3323.4486.5161.2623 1.133-.0408 2.3718-.9256 3.2721z" fill="url(#A)"/><path d="m60.9517 37.3078c-1.3713-1.3024-3.5588-1.2581-4.8747.0986l-5.3571 5.5229c-2.0848 2.1493-4.7014 3.6826-7.5568 4.4815-.0616-1.7106-1.5041-3.0644-3.252-3.0345l-2.1143.0361c-4.1896.0716-8.3053-1.0889-11.8194-3.3325-4.0391-2.5792-9.1412-2.9422-13.5167-.9619l-10.85523 4.9128.06394 3.6466.18771 10.7101 2.10678-.4931c7.2969-1.7077 14.7603-2.6337 22.2597-2.7618l8.6913-.1485c8.1176-.1387 15.8473-3.4423 21.4885-9.1839l4.6321-4.7147c1.3188-1.3423 1.2812-3.4814-.0838-4.7777z" fill="url(#B)"/><path d="m1.82429 57.5201-.21882-12.4888 10.85493-4.9136c1.7951-.8116 3.7117-1.2305 5.6272-1.2632 2.755-.047 5.5073.7034 7.8898 2.2248 3.5141 2.2436 7.6303 3.405 11.8199 3.3335l2.1135-.0361c.5823-.01 1.1314.133 1.6053.3929.3947.2143.7368.5094 1.0052.8616.383.4976.6175 1.1121.642 1.7797 2.8551-.7993 5.4721-2.3324 7.5564-4.4813l5.357-5.523c1.1229-1.1584 2.8812-1.3599 4.2245-.5828.5499 1.2199.3302 2.6968-.6704 3.7146l-4.6318 4.7157c-5.6413 5.7414-13.3712 9.0445-21.4885 9.1832l-8.6919.1485c-7.4988.1281-14.96312 1.0546-22.2593 2.7616z" fill="url(#D)"/><path d="m1.85699 59.3875 2.10691-.4931h.00012c7.29688-1.7076 14.76028-2.6337 22.25958-2.7618l1.859-.0318-15.6219-15.9829-10.85523 4.9129.06394 3.6465.18151 10.3578z" fill="url(#E)"/><path d="m43.1622 47.4108c-.0616-1.7106-1.504-3.0644-3.2519-3.0345l-2.1144.0361c-4.1896.0716-8.3053-1.0889-11.8193-3.3325-4.0392-2.5792-9.1413-2.9422-13.5168-.9619l-.4129.1869 8.4748 8.0844 4.2685.9938c4.2238.9834 8.5552 1.4433 12.8941 1.3691l2.2824-.039c1.7652-.0301 3.2275-1.4687 3.1969-3.212-.0002-.0196-.0014-.0904-.0014-.0904z" fill="url(#F)"/><path d="m10.5103 37.5379h-8.49141c-1.115028 0-2.01889.8926-2.01889 1.9936v18.4748c0 1.1011.903862 1.9937 2.01889 1.9937h8.49141c1.1151 0 2.0189-.8926 2.0189-1.9937v-18.4748c-.0001-1.101-.904-1.9936-2.0189-1.9936z" fill="url(#G)"/></g></svg>