<svg width="200" height="200" viewBox="0 0 200 200" fill="none" xmlns="http://www.w3.org/2000/svg">
<path d="M100 200C44.8 200 0 155.2 0 100C0 44.8 44.8 0 100 0C155.2 0 200 44.8 200 100C200 155.2 155.2 200 100 200Z" fill="#BBBBBB"/>
<path d="M80.8974 48.668C77.5434 52.925 71.9964 61.052 66.5784 69.437C55.6134 86.852 52.3884 95.495 52.3884 107.879C52.3884 127.616 63.6114 142.451 78.4464 142.451C93.2814 142.451 104.633 128.261 104.633 109.556C104.633 92.528 94.1844 78.854 81.2844 78.854C80.7684 78.854 80.1234 78.854 79.2204 78.983C84.7674 68.792 92.7654 57.053 99.8604 48.668H80.8974ZM78.4464 94.979C83.0904 94.979 85.6704 100.268 85.6704 109.814C85.6704 119.36 83.0904 124.778 78.5754 124.778C73.9314 124.778 71.3514 119.489 71.3514 109.556C71.3514 100.268 73.9314 94.979 78.4464 94.979ZM125.845 102.074V116.393H143.002V102.074H156.805V84.917H143.002V71.243H125.845V84.917H112.042V102.074H125.845Z" fill="#FFFFFF"/>
</svg>
