<svg width="73" height="72" fill="none" xmlns="http://www.w3.org/2000/svg"><circle cx="36" cy="36" r="36" fill="#56679C"/><path d="M69.272 36.002L14.72 46.533a2.78 2.78 0 0 1-3.255-2.193L5.683 14.318a2.794 2.794 0 0 1 2.204-3.26L62.451.526c1.488-.287 2.956.707 3.245 2.208l5.783 30.021a2.784 2.784 0 0 1-2.207 3.248z" fill="#0E9347"/><path d="M63.306 34.344l-43.652 8.418c-.58-3.002-3.502-4.98-6.503-4.402L9.466 19.245c3-.578 4.978-3.502 4.399-6.504l43.652-8.417c.58 3.002 3.502 4.98 6.502 4.402l3.684 19.103c-3 .578-4.976 3.513-4.397 6.515z" fill="#56AE61"/><path d="M40.947 35.819c6.027-1.164 9.854-7.604 8.548-14.385-1.306-6.781-7.25-11.335-13.278-10.172-6.026 1.163-9.854 7.604-8.547 14.385 1.306 6.781 7.25 11.335 13.277 10.172zm-18.206-6.391a2.783 2.783 0 0 0-1.053-5.465 2.783 2.783 0 0 0 1.053 5.465zm32.73-6.318a2.783 2.783 0 0 0-1.053-5.464 2.783 2.783 0 0 0 1.053 5.464z" fill="#0E9347"/><path d="M39.678 21.903l-2.73.527c-.82.158-1.466-.289-1.622-1.098-.158-.82.289-1.467 1.097-1.623l4.091-.79c.82-.158 1.253-.813 1.098-1.622-.159-.821-.813-1.254-1.622-1.098l-1.36.262c-.158-.82-.813-1.254-1.621-1.098-.82.159-1.254.814-1.098 1.623-2.32.448-3.75 2.56-3.302 4.883.447 2.322 2.558 3.75 4.879 3.303l2.73-.527c.821-.159 1.466.288 1.622 1.098.158.82-.289 1.466-1.097 1.622l-4.09.79c-.821.158-1.254.814-1.098 1.623.158.82.813 1.254 1.621 1.098l1.36-.263c.158.821.813 1.254 1.621 1.098.82-.158 1.254-.814 1.098-1.623 2.32-.448 3.75-2.56 3.302-4.882-.447-2.322-2.558-3.751-4.879-3.303z" fill="#56AE61"/><path d="M54.722 49.616c7.192 0 13.023-5.834 13.023-13.03 0-7.195-5.83-13.028-13.023-13.028-7.192 0-13.023 5.833-13.023 13.029 0 7.195 5.83 13.029 13.023 13.029z" fill="#93BF00"/><path d="M54.722 23.558c-7.257 0-13.023 5.768-13.023 13.029 0 7.26 5.766 13.029 13.023 13.029s13.023-5.77 13.023-13.03-5.78-13.028-13.023-13.028zm0 22.329c-5.203 0-9.296-4.094-9.296-9.3s4.093-9.3 9.296-9.3c5.203 0 9.296 4.094 9.296 9.3s-4.093 9.3-9.296 9.3z" fill="#B9DD39"/><path d="M54.723 49.418c7.256.183 13.022-5.768 13.022-12.832h-.183c-.928 0-1.673.746-1.856 1.675-.365 2.603-1.673 5.023-3.53 6.697-1.49 1.492-3.53 2.42-5.766 2.786-.942 0-1.687.746-1.687 1.674z" fill="#ADD228"/><path d="M49.168 42.975l2.067-10.947h3.29l.985 3.293a54.945 54.945 0 0 1 1.013 4.052h.042c.042-1.182.21-2.519.52-4.137l.605-3.194h2.587L58.196 42.99h-2.897l-1.11-3.574c-.45-1.548-.774-2.631-1.084-4.108h-.07c-.112 1.083-.408 2.842-.745 4.657l-.563 3.025h-2.559v-.014z" fill="#EFEFEF"/><path d="M46.718 37.895c0-5.206 4.092-9.3 9.296-9.3 2.236 0 4.275.745 5.949 2.237-1.857-2.237-4.276-3.532-7.257-3.532-5.203 0-9.296 4.095-9.296 9.3 0 2.984 1.308 5.39 3.347 7.064-1.294-1.492-2.039-3.546-2.039-5.769z" fill="#81A713"/><path d="M33.984 54.345c7.192 0 13.022-5.834 13.022-13.03 0-7.195-5.83-13.028-13.022-13.028-7.193 0-13.023 5.833-13.023 13.029 0 7.195 5.83 13.029 13.023 13.029z" fill="#960B80"/><path d="M33.984 28.287c-7.257 0-13.023 5.768-13.023 13.029 0 7.26 5.766 13.029 13.023 13.029 7.256 0 13.022-5.77 13.022-13.03s-5.78-13.028-13.022-13.028zm0 22.329c-5.204 0-9.296-4.094-9.296-9.3s4.092-9.3 9.296-9.3c5.203 0 9.295 4.094 9.295 9.3s-4.092 9.3-9.295 9.3z" fill="#AF0A8E"/><path d="M35.98 54.149c7.257.183 13.023-5.769 13.023-12.832h-.183c-.928 0-1.673.746-1.856 1.674-.366 2.603-1.674 5.023-3.53 6.698-1.49 1.491-3.53 2.42-5.766 2.785-.956 0-1.688.746-1.688 1.675z" fill="#F6B545"/><path d="M25.98 42.61c0-5.206 4.092-9.3 9.296-9.3 2.236 0 4.275.746 5.948 2.237-1.856-2.237-4.275-3.531-7.256-3.531-5.204 0-9.296 4.094-9.296 9.3 0 2.983 1.308 5.389 3.347 7.063-1.294-1.491-2.04-3.531-2.04-5.768z" fill="#7D0D73"/><path d="M41.552 47.07c-.183 0-.366 0-.563-.182-.366-.366-.366-.93 0-1.309 1.111-1.111 1.674-2.786 1.674-4.277 0-.563.365-.929.928-.929.562 0 .928.366.928.929 0 2.04-.746 4.094-2.04 5.586-.365.183-.745.182-.927.182z" fill="#FFCB5B"/><path d="M30.738 44.075c.73.38 1.926.746 3.121.746 1.111 0 1.646-.38 1.646-.985 0-.591-.535-.929-1.899-1.393-2.039-.718-3.375-1.843-3.375-3.63 0-2.125 1.786-3.771 4.824-3.771 1.448 0 2.46.267 3.262.62l-.675 2.574a6.166 6.166 0 0 0-2.63-.577c-.984 0-1.518.352-1.518.9 0 .606.647.859 2.165 1.436 2.166.788 3.15 1.941 3.15 3.63 0 2.068-1.63 3.855-5.146 3.855-1.449 0-2.855-.394-3.53-.746l.605-2.659z" fill="#EFEFEF"/><path d="M45.284 65.503c7.193 0 13.023-5.834 13.023-13.03 0-7.195-5.83-13.028-13.023-13.028-7.192 0-13.022 5.833-13.022 13.029s5.83 13.029 13.022 13.029z" fill="#F6B545"/><path d="M45.284 39.445c-7.256 0-13.022 5.769-13.022 13.029s5.766 13.029 13.022 13.029c7.257 0 13.023-5.769 13.023-13.03 0-7.26-5.78-13.028-13.023-13.028zm0 22.33c-5.203 0-9.295-4.095-9.295-9.301s4.092-9.3 9.295-9.3c5.204 0 9.296 4.094 9.296 9.3s-4.092 9.3-9.296 9.3z" fill="#FFCB5B"/><path d="M45.281 65.306c7.257.183 13.023-5.77 13.023-12.832h-.183c-.928 0-1.673.745-1.856 1.674-.366 2.603-1.674 5.023-3.53 6.697-1.49 1.492-3.53 2.42-5.766 2.786-.942 0-1.688.746-1.688 1.675z" fill="#FFBF50"/><path d="M37.273 53.768c0-5.206 4.092-9.3 9.296-9.3 2.236 0 4.275.745 5.948 2.237-1.856-2.237-4.275-3.532-7.256-3.532-5.204 0-9.296 4.095-9.296 9.3 0 2.984 1.308 5.39 3.347 7.064-1.294-1.477-2.04-3.532-2.04-5.769z" fill="#F19920"/><path d="M44.123 59.073v-1.407c0-.14 0-.14-.127-.14h-2.531c-.14 0-.14 0-.14-.141v-1.056c0-.126.013-.14.14-.14.183 0 .365 0 .548-.014.268-.028.394-.155.422-.408.014-.155.014-.31.014-.465v-5.05c0-.142-.014-.296-.014-.437-.014-.225-.169-.38-.408-.408-.197-.014-.393-.014-.576-.014-.085 0-.113-.028-.113-.113v-1.097c0-.099.042-.113.127-.113h2.531c.14 0 .14 0 .14-.14v-1.28c0-.1.029-.127.127-.127h1.097c.099 0 .127.042.127.126v1.294c0 .099.028.127.126.127h.577c.14 0 .14 0 .14-.127v-1.252c0-.169 0-.169.17-.169h1.026c.154 0 .154 0 .154.155v1.337c0 .098.043.14.127.14.619.071 1.181.282 1.645.704.225.197.394.45.507.718.253.633.224 1.238-.099 1.829-.239.422-.59.731-1.026.942-.127.07-.268.113-.394.183.154.057.323.099.478.155.352.127.675.296.928.577.338.338.534.746.605 1.224.126.943-.225 1.689-.943 2.266-.492.393-1.082.59-1.701.675-.098.014-.14.042-.14.155v1.491h-1.35v-.127-1.28c0-.098-.029-.127-.127-.127-.169.014-.338 0-.506 0-.211 0-.183-.028-.183.183v1.351h-1.378zm.675-4.545c.014 0 .014 0 0 0v.788c0 .155-.014.31.028.465.028.14.098.197.239.21.351.029.703.029 1.055.015.295 0 .59-.028.871-.099.914-.253 1.224-1.308.774-2.012-.211-.323-.535-.45-.9-.52-.211-.043-.436-.043-.647-.057-.45-.028-.9 0-1.35-.014-.056 0-.07.014-.07.085.014.365 0 .745 0 1.14zm.014-3.785v1.014c0 .098.028.126.126.126h.717c.38 0 .774-.014 1.154-.084.548-.099.9-.422.984-.929.07-.492-.127-.943-.605-1.125-.295-.113-.619-.127-.928-.141-.436-.014-.872 0-1.308 0-.098 0-.126.028-.126.127-.014.337-.014.675-.014 1.012z" fill="#EFEFEF"/><path d="M54.003 67.084c-16.5 5.506-32.957-.465-37.002-12.014l8.49-2.52-17.99-6.49L0 61.067l7.287-2.426c8.214 10.944 27.215 18.954 46.716 8.442zM20.001 3.8c12.834-4.25 25.634.358 28.78 9.273l-6.603 1.945 13.992 5.01 5.834-11.585-5.668 1.873C49.948 1.869 35.169-4.313 20 3.8z" fill="#F7C04A"/></svg>