<svg width="200" height="200" viewBox="0 0 200 200" fill="none" xmlns="http://www.w3.org/2000/svg">
<path d="M100 200C44.8 200 0 155.2 0 100C0 44.8 44.8 0 100 0C155.2 0 200 44.8 200 100C200 155.2 155.2 200 100 200Z" fill="#BBBBBB"/>
<path d="M45.8813 67.12C42.4413 64.96 39.0013 63.84 35.4013 63.84C26.9213 63.84 20.6813 70.72 20.6813 80.16C20.6813 86.88 22.9213 90.96 29.1613 95.84L33.0013 98.8C35.7213 100.88 37.2413 103.52 37.2413 106.32C37.2413 109.84 35.1613 112 31.7213 112C28.6813 112 25.2413 110.72 20.8413 107.84L22.2013 120.64C27.4813 122.8 30.3613 123.52 33.7213 123.52C43.0813 123.52 49.6413 116.48 49.6413 106.32C49.6413 99.04 47.1613 95.04 38.6813 88.32L35.5613 85.92C33.7213 84.48 32.8413 82.8 32.8413 80.72C32.8413 77.76 34.7613 75.84 37.8013 75.84C39.8813 75.84 42.3613 76.88 45.8813 79.36V67.12ZM55.7206 137.2L67.4806 136V122C69.8006 122.96 71.2406 123.28 73.1606 123.28C83.1606 123.28 89.8006 113.68 89.8006 99.44C89.8006 85.76 83.9606 76.56 75.3206 76.56C72.4406 76.56 70.1206 77.44 66.9206 79.92L66.2806 76.56L55.2406 77.84C55.5606 81.68 55.7206 85.2 55.7206 92.4V137.2ZM67.4806 90.08C69.6406 88.16 71.0806 87.44 72.8406 87.44C76.6006 87.44 78.6006 91.6 78.6006 99.44C78.6006 108.08 76.3606 112.48 71.8806 112.48C70.3606 112.48 69.3206 112.08 67.4806 110.88V90.08ZM107.157 122V76.56L95.9569 77.84V122H107.157ZM101.557 59.68C98.0369 59.68 95.2369 62.48 95.2369 66C95.2369 69.44 98.1169 72.32 101.557 72.32C105.077 72.32 107.877 69.52 107.877 65.92C107.877 62.4 105.077 59.68 101.557 59.68ZM126.688 122V100.64C126.688 95.68 127.008 92.56 127.728 91.12C128.768 88.88 130.768 87.36 132.768 87.36C135.408 87.36 136.288 89.12 136.288 94.48V122H147.488V92.08C147.488 81.36 144.528 76.56 137.808 76.56C133.648 76.56 130.768 78.16 126.688 82.8V76.56L115.488 77.84V122H126.688ZM155.01 119.76C158.69 122.4 162.13 123.52 166.21 123.52C174.05 123.52 179.49 117.6 179.49 109.2C179.49 103.68 177.41 100.24 172.05 96.8L169.25 95.04C166.45 93.2 165.89 92.48 165.89 90.64C165.89 88.4 167.41 86.88 169.65 86.88C171.49 86.88 173.25 87.6 176.13 89.52V78.88C172.53 76.96 170.53 76.32 167.73 76.32C160.13 76.32 154.69 82.16 154.69 90.24C154.69 95.36 156.53 98.48 161.33 101.52L164.85 103.76C167.49 105.44 168.29 106.56 168.29 108.72C168.29 111.28 166.69 112.96 164.13 112.96C161.57 112.96 158.85 111.6 154.45 108.16L155.01 119.76Z" fill="#FFFFFF"/>
</svg>
