<svg width="75" height="72" fill="none" xmlns="http://www.w3.org/2000/svg"><path d="M35.887 0a35.648 35.648 0 0 0-20.926 6.752v58.496A35.648 35.648 0 0 0 35.887 72c19.82 0 35.889-16.118 35.889-36S55.708 0 35.887 0z" fill="#56679C"/><path d="M45.845 7.88H13.483a36.159 36.159 0 0 0-4.503 4.308v47.623a36.173 36.173 0 0 0 4.503 4.308h32.362c15.482 0 28.032-12.59 28.032-28.119 0-15.53-12.55-28.12-28.032-28.12z" fill="#A05838"/><path d="M74.998 36c0-16.128-13.08-29.248-29.158-29.248H14.96a36.08 36.08 0 0 0-2.82 2.257h33.7c14.837 0 26.908 12.108 26.908 26.99 0 14.883-12.07 26.991-26.907 26.991h-33.7c.9.798 1.84 1.552 2.819 2.257h30.88c16.078 0 29.158-13.12 29.158-29.247z" fill="#934A2E"/><path d="M14.96 65.247H35.5a.884.884 0 0 0-.197-.33c-.46-.484-.388-.984-.211-1.353a.865.865 0 0 0 .058-.574h-23.01c.9.798 1.84 1.552 2.819 2.257zm6.706-58.495H14.96a36.083 36.083 0 0 0-2.82 2.257h9.669a.948.948 0 0 0-.17-.485c-.364-.521-.22-1.072-.056-1.418a.885.885 0 0 0 .083-.354z" fill="#934A2E"/><path d="M45.844 12.02H9.126a36.104 36.104 0 0 0-4.901 7.03l-1.142 2.338a35.808 35.808 0 0 0-1.802 5.063l.02 19.173a35.806 35.806 0 0 0 1.782 4.989l1.142 2.34a36.11 36.11 0 0 0 4.901 7.028h36.718c13.183 0 23.907-10.757 23.907-23.98 0-13.224-10.725-23.981-23.907-23.981z" fill="#38C674"/><path d="M4.225 19.05l-1.142 2.338a35.813 35.813 0 0 0-1.802 5.062l.02 19.174a35.8 35.8 0 0 0 1.782 4.989l1.142 2.34a36.106 36.106 0 0 0 4.901 7.028h25.688a1.346 1.346 0 0 0-.456-.642c-2.556-1.966-2.01-4.17-1.393-5.386.254-.5.184-1.09-.16-1.532a1.185 1.185 0 0 1-.256-.908c.063-.484-.103-.975-.48-1.283-1.823-1.488-1.322-3.457-1.015-4.25.097-.25.123-.52.068-.782l-3.806-18.122c-.08-.38-.32-.704-.65-.909-1.928-1.196-1.938-3.059-1.75-4.12.077-.44-.06-.896-.372-1.215a1.308 1.308 0 0 1-.37-1.126c.06-.47-.099-.943-.457-1.251-2.2-1.888-1.825-4.427-1.455-5.676.075-.253.073-.515.005-.76H9.127a36.11 36.11 0 0 0-4.902 7.03z" fill="#38C674"/><path d="M45.845 20.107H5.19c-.512 0-1.019.026-1.518.074l-.557 1.14a35.82 35.82 0 0 0-1.835 5.134l.02 19.162a35.82 35.82 0 0 0 1.816 5.063l.556 1.14c.5.048 1.006.073 1.518.073h40.654c8.736 0 15.843-7.13 15.843-15.893 0-8.763-7.107-15.893-15.843-15.893z" fill="#21B75D"/><path d="M3.673 20.18l-.557 1.14a35.816 35.816 0 0 0-1.835 5.135l.02 19.162a35.82 35.82 0 0 0 1.816 5.063l.556 1.14c.5.047 1.006.073 1.518.073h27.37a1.185 1.185 0 0 1-.012-.38c.064-.484-.102-.976-.48-1.284-1.823-1.488-1.322-3.457-1.014-4.25.096-.249.122-.52.067-.782l-3.806-18.121c-.08-.381-.32-.704-.65-.91-1.928-1.195-1.938-3.058-1.75-4.119.078-.44-.06-.896-.372-1.215a1.28 1.28 0 0 1-.367-.725H5.191c-.512 0-1.019.026-1.518.073z" fill="#21B75D"/><path d="M45.843 18.979H5.19c-.317 0-.631.01-.944.026a35.82 35.82 0 0 0-1.163 2.383c.689-.1 1.392-.152 2.107-.152h40.654c8.116 0 14.719 6.623 14.719 14.764 0 8.14-6.603 14.764-14.719 14.764H5.19c-.715 0-1.418-.052-2.107-.152.36.81.747 1.605 1.163 2.383.313.017.627.026.944.026h40.654c9.357 0 16.969-7.636 16.969-17.021 0-9.386-7.612-17.021-16.969-17.021z" fill="#36E47C"/><path d="M3.082 50.612c.36.81.747 1.605 1.163 2.383.313.017.627.026.944.026h27.893a1.483 1.483 0 0 0-.278-.6 1.185 1.185 0 0 1-.256-.908c.034-.258 0-.516-.093-.749H5.19c-.715 0-1.418-.052-2.107-.152zm1.163-31.607a35.92 35.92 0 0 0-1.163 2.383c.689-.1 1.392-.153 2.107-.153h19.627a1.364 1.364 0 0 0-.274-.403 1.308 1.308 0 0 1-.368-1.126c.031-.25 0-.5-.09-.727H5.189c-.317 0-.631.009-.944.026z" fill="#36E47C"/><path d="M37.375 26.448H27.298c-.609 0-1.103.495-1.103 1.106V44.52c0 .61.494 1.106 1.103 1.106h10.077c.608 0 1.102-.495 1.102-1.106V27.554c0-.61-.493-1.106-1.102-1.106zm-13.532 0H13.767c-.61 0-1.103.495-1.103 1.106V44.52c0 .61.494 1.106 1.103 1.106h10.076c.61 0 1.103-.495 1.103-1.106V27.554c0-.61-.494-1.106-1.103-1.106zm-13.385 0H1.28A36.134 36.134 0 0 0 0 36c0 3.334.454 6.562 1.3 9.626h9.158c.61 0 1.103-.495 1.103-1.106V27.554c0-.61-.494-1.106-1.103-1.106zm40.194-.074H40.575c-.609 0-1.102.495-1.102 1.106v16.966c0 .61.493 1.106 1.102 1.106h10.077c.609 0 1.103-.495 1.103-1.106V27.48c0-.61-.494-1.106-1.103-1.106z" fill="#FCF9F0"/><path d="M35.707 33.035c-.897-.831-2.304-.762-3.164.108a.286.286 0 0 1-.407 0c-.86-.87-2.267-.94-3.165-.108a2.264 2.264 0 0 0-.072 3.252c.773.78 2.813 2.844 2.951 2.984.27.272.709.272.978 0l2.95-2.984c.896-.905.87-2.38-.071-3.252zm13.176 2.563a6.206 6.206 0 0 1-1.704-1.213 6.22 6.22 0 0 1-1.209-1.709.404.404 0 0 0-.726 0 6.23 6.23 0 0 1-2.912 2.922.406.406 0 0 0 0 .728c.616.297 1.193.701 1.703 1.213a6.22 6.22 0 0 1 1.21 1.709.404.404 0 0 0 .726 0 6.224 6.224 0 0 1 1.209-1.709 6.201 6.201 0 0 1 1.703-1.213.406.406 0 0 0 0-.728z" fill="#FF4155"/><path d="M8.29 35.108L5.83 32.62a.573.573 0 0 0-.817 0l-2.46 2.488a1.888 1.888 0 0 0 .06 2.712c.61.566 1.504.63 2.202.24.065-.036.142.022.122.094-.128.46-.3.779-.448.987-.1.14.002.334.173.334H6.18a.212.212 0 0 0 .173-.334 3.16 3.16 0 0 1-.448-.987c-.02-.072.057-.13.122-.094.698.39 1.592.326 2.203-.24a1.888 1.888 0 0 0 .06-2.712zm14.435 1.304a1.51 1.51 0 0 0-1.335-1.41 1.5 1.5 0 0 0-1.478.772.67.67 0 0 1-.59.342h-.02a.12.12 0 0 1-.119-.12v-.13c0-.25.13-.477.341-.592a1.507 1.507 0 0 0-.636-2.821 1.486 1.486 0 0 0-1.116.409 1.505 1.505 0 0 0 .312 2.413.67.67 0 0 1 .339.592v.13a.12.12 0 0 1-.12.119c-.007-.002-.409.025-.61-.342a1.5 1.5 0 0 0-1.477-.773 1.51 1.51 0 0 0-1.335 1.412c-.023.418.122.815.408 1.118a1.499 1.499 0 0 0 2.405-.313c.115-.21.341-.34.59-.34.07 0 .126.06.12.13-.08 1.049-.381 1.668-.619 2.003a.295.295 0 0 0 .24.465h1.555c.239 0 .379-.27.24-.465-.237-.335-.537-.954-.618-2.003a.12.12 0 0 1 .12-.13c.249 0 .475.13.59.34a1.499 1.499 0 0 0 2.813-.806z" fill="#3C5082"/><path d="M2.688 27.757H1.514a.718.718 0 0 0 0 1.438h1.174a.718.718 0 0 0 0-1.438zm6.797 15.122H8.31a.718.718 0 0 0 0 1.438h1.175a.718.718 0 0 0 0-1.438zm6.434-15.122h-1.175a.718.718 0 0 0 0 1.438h1.175a.718.718 0 0 0 0-1.438zm6.949 15.122h-1.175a.718.718 0 0 0 0 1.438h1.175a.718.718 0 0 0 0-1.438z" fill="#2D3C6B"/><path d="M29.454 27.757h-1.175a.718.718 0 0 0 0 1.438h1.175a.718.718 0 0 0 0-1.438zm6.945 15.122h-1.174a.718.718 0 0 0 0 1.438h1.174a.718.718 0 0 0 0-1.438zm6.324-15.122H41.55a.718.718 0 0 0 0 1.438h1.174a.718.718 0 0 0 0-1.438zm6.95 15.122h-1.175a.718.718 0 0 0 0 1.438h1.175a.718.718 0 0 0 0-1.438z" fill="#E80054"/><path d="M6.027 38.06c.698.39 1.592.326 2.203-.24.152-.14.275-.3.37-.473-4.582.223-4.327-3.979-4.327-3.979l-1.72 1.74a1.888 1.888 0 0 0 .06 2.712c.61.566 1.504.63 2.202.24.065-.036.142.022.122.094-.128.46-.3.78-.448.987-.1.14.002.334.174.334H6.18a.212.212 0 0 0 .173-.334 3.16 3.16 0 0 1-.448-.987c-.02-.072.057-.13.122-.094zm13.175-1.052a.118.118 0 0 1 .04-.096h-.002c-.908 0-.852-.831-.852-.831a.119.119 0 0 1-.084.035c-.008-.002-.41.025-.61-.342a1.5 1.5 0 0 0-1.478-.772 1.51 1.51 0 0 0-1.335 1.41c-.023.419.122.816.408 1.12a1.499 1.499 0 0 0 2.405-.313c.115-.21.341-.34.591-.34.07 0 .125.06.12.13-.082 1.048-.382 1.667-.62 2.002a.295.295 0 0 0 .241.465h1.554c.239 0 .379-.27.24-.465-.237-.335-.537-.954-.618-2.003z" fill="#2D3C6B"/><path d="M30.226 32.466a2.19 2.19 0 0 0-1.255.569 2.264 2.264 0 0 0-.072 3.252c.773.78 2.813 2.844 2.951 2.984.27.272.709.272.978 0l2.015-2.037c-5.312-.353-4.631-4.68-4.617-4.768zm17.55 4.546c-3.971 0-3.179-3.274-3.179-3.274a6.258 6.258 0 0 1-2.265 1.86.406.406 0 0 0 0 .73c.616.296 1.193.7 1.703 1.212s.914 1.09 1.21 1.708a.404.404 0 0 0 .726 0 6.225 6.225 0 0 1 1.806-2.236z" fill="#E80054"/></svg>