<svg width="20" height="20" fill="none" xmlns="http://www.w3.org/2000/svg"><g opacity=".7" fill="#fff"><path d="M13.29 5.99c.286-.094.565-.208.835-.34a5.938 5.938 0 00-1.595-1.09c.313.443.568.923.76 1.43z"/><path d="M10 4c-.048 0-.097 0-.145.005C8.38 4.155 7.14 6.57 7.01 9.5h8.97a5.996 5.996 0 00-1.165-3.08c-.387.21-.792.385-1.21.525.09.32.164.643.22.97a.502.502 0 01-.604.586.5.5 0 01-.381-.416c-.055-.305-.12-.6-.195-.875-.868.195-1.755.292-2.645.29-.523 0-1.046-.034-1.565-.1a.5.5 0 01.13-.99 11.282 11.282 0 003.76-.155C11.76 4.87 10.905 4 10 4zM6.705 5.99c.19-.504.442-.983.75-1.425a5.96 5.96 0 00-1.58 1.085c.268.133.546.247.83.34zM6.71 14.01a6.612 6.612 0 00-.835.34c.465.444.998.81 1.58 1.085a6.577 6.577 0 01-.745-1.425z"/><path d="M10 16c.048 0 .097 0 .145-.005 1.475-.15 2.715-2.565 2.845-5.495H7.01c.02.474.07.947.15 1.415a.503.503 0 01-.405.58.503.503 0 01-.58-.41A12.394 12.394 0 016 10a11.75 11.75 0 01.39-3.06 7.797 7.797 0 01-1.205-.515A5.935 5.935 0 004.02 9.5H5a.5.5 0 110 1h-.98a5.995 5.995 0 001.165 3.08 7.763 7.763 0 011.755-.685c.998-.267 2.027-.4 3.06-.395.345 0 .695.015 1.04.04a.501.501 0 01-.08 1c-.32-.025-.64-.04-.96-.04-.78-.002-1.558.08-2.32.245C8.25 15.15 9.115 16 10 16zM13.295 14.01c-.19.504-.442.983-.75 1.425a5.963 5.963 0 001.58-1.085 6.249 6.249 0 00-.83-.34zM13.61 13.06c.415.137.819.31 1.205.515A5.935 5.935 0 0015.98 10.5h-1.99a11.311 11.311 0 01-.38 2.56z"/><path fill-rule="evenodd" clip-rule="evenodd" d="M20 10c0 5.523-4.477 10-10 10S0 15.523 0 10 4.477 0 10 0s10 4.477 10 10zm-4.72-4.59a.41.41 0 01.085.1 6.983 6.983 0 010 8.98.411.411 0 01-.085.1 6.985 6.985 0 01-5.1 2.405C10.12 17 10.06 17 10 17s-.12 0-.18-.005a6.981 6.981 0 01-5.1-2.405.335.335 0 01-.085-.1 6.983 6.983 0 010-8.98.56.56 0 01.085-.1A6.98 6.98 0 0110 3c.055 0 .11 0 .165.005A6.978 6.978 0 0115.28 5.41z"/></g></svg>