<svg width="200" height="200" fill="none" xmlns="http://www.w3.org/2000/svg"><path d="M200 0H0v200h200V0z" fill="url(#paint0_linear)"/><path d="M100 170.669c39.028 0 70.667-31.638 70.667-70.666 0-39.029-31.639-70.667-70.667-70.667-39.028 0-70.666 31.639-70.666 70.667 0 39.028 31.638 70.666 70.666 70.666z" fill="#fff"/><path d="M99.842 29.336c-38.995 0-70.508 31.7-70.508 70.994 0 6.975 1.056 13.951 3.168 20.574 1.32-1.855 2.553-3.621 3.697-5.652a787.651 787.651 0 0 0 14.437-21.986l3.52-5.652c1.145-1.854 2.29-3.708 3.346-5.65 2.288-3.71 4.577-7.506 6.602-11.303 1.056-1.943 2.112-3.709 3.257-5.74a119.702 119.702 0 0 0 3.168-5.74c1.057-2.03 2.113-3.885 2.993-5.739l2.817-5.828.264-.353c1.497-3.179 5.37-4.415 8.539-3.002 2.288 1.324 3.697 3.708 3.609 6.534 0 3.355-.704 6.888-.968 10.243-.264 3.355-.353 6.887-.705 10.42-.264 6.887-.352 13.95-.352 20.838 0 6.888.352 13.775 1.057 20.398.352 3.267.968 6.534 1.496 9.713.44 2.825 1.408 5.739 2.729 8.3.352.795.968 1.501 1.496 2.208.352.265.088.088.352.088h.264l.264-.088h.088l.353-.089c.088-.088.352-.265.44-.353 1.056-.795 1.936-1.678 2.817-2.737a69.538 69.538 0 0 0 5.721-7.682c1.849-2.738 3.521-5.74 5.106-8.654 3.345-6.004 6.514-12.097 9.418-18.366 1.409-3.18 2.993-6.181 4.402-9.448a989.437 989.437 0 0 1 4.225-9.449c1.32-3.267 5.017-4.768 8.274-3.532 2.113.795 3.521 2.561 3.874 4.769 0 .794.088 1.854.264 2.825l.352 3.002c.264 1.943.44 3.886.968 5.828.704 3.885 1.408 7.859 2.465 11.568 1.056 3.708 2.288 7.505 3.873 11.214 1.496 3.62 3.521 6.976 5.986 10.154.44.795.352 1.855-.264 2.296-.705.442-1.497.442-2.113 0-3.257-2.825-6.074-6.093-8.539-9.625-2.464-3.532-4.577-7.24-6.514-11.037-1.32-2.561-2.288-5.122-3.521-7.859-.792 1.501-1.408 3.179-2.2 4.592-3.169 6.357-6.162 12.715-9.771 19.073-1.849 3.355-3.609 6.534-5.722 9.624a89.845 89.845 0 0 1-6.866 9.272c-1.408 1.678-3.169 3.179-4.753 4.592-.44.353-1.056.794-1.673 1.059l-1.144.707-.704.265h-.088l-.352.088h.088l-.44.088c-.352.088-.704.265-1.057.265-.792.088-1.496.265-2.288.353-1.673.089-3.521-.088-5.018-.706-1.496-.53-2.993-1.413-4.313-2.473-1.937-1.677-3.61-3.708-4.753-6.092a40.721 40.721 0 0 1-3.874-11.568c-.792-3.62-1.32-7.417-1.672-11.037-.792-7.241-1.056-14.393-1.144-21.722V81.875c-1.32 2.472-2.553 4.945-3.873 7.24-1.057 1.943-2.113 3.886-3.257 5.828l-3.257 5.828c-4.402 7.859-8.979 15.453-13.732 23.135-2.993 4.945-6.074 9.801-9.243 14.746 21.302 32.76 65.139 41.855 97.796 20.398 32.658-21.457 41.725-65.343 20.334-98.102-13.203-19.603-35.298-31.612-59.24-31.612z" fill="url(#paint1_linear)"/><g opacity=".2" stroke="#C4C4C4"><path d="M100 199.5C45.048 199.5.5 154.952.5 100S45.048.5 100 .5s99.5 44.548 99.5 99.5-44.548 99.5-99.5 99.5z"/><path d="M29.834 170.169V29.836h140.333v140.333H29.834z"/></g><defs><linearGradient id="paint0_linear" x1="-15.591" y1="127.857" x2="791.255" y2="-65.914" gradientUnits="userSpaceOnUse"><stop stop-color="#21E418"/><stop offset=".3" stop-color="#31B6E9"/><stop offset=".976" stop-color="#21E418"/></linearGradient><linearGradient id="paint1_linear" x1="18.316" y1="119.688" x2="588.487" y2="-17.244" gradientUnits="userSpaceOnUse"><stop stop-color="#21E418"/><stop offset=".3" stop-color="#31B6E9"/><stop offset=".976" stop-color="#21E418"/></linearGradient></defs></svg>