<svg width="200" height="200" viewBox="0 0 200 200" fill="none" xmlns="http://www.w3.org/2000/svg">
<path d="M100 200C44.8 200 0 155.2 0 100C0 44.8 44.8 0 100 0C155.2 0 200 44.8 200 100C200 155.2 155.2 200 100 200Z" fill="#BBBBBB"/>
<path d="M41.2453 122H53.4853V100.32H67.0053V89.68H53.4853V76.56H68.1253V65.36H41.2453V122ZM105.727 76.56L95.0066 77.84C92.3666 76.88 90.6866 76.56 88.6066 76.56C78.2866 76.56 71.6466 85.92 71.6466 100.48C71.6466 114 77.4866 123.28 86.0466 123.28C89.0066 123.28 91.4066 122.32 94.5266 119.84L95.1666 123.28L106.287 122C105.887 118.16 105.727 114.64 105.727 107.44V76.56ZM93.9666 109.76C91.8066 111.68 90.3666 112.4 88.6066 112.4C84.8466 112.4 82.8466 108.24 82.8466 100.4C82.8466 91.76 85.1666 87.36 89.5666 87.36C91.0866 87.36 92.1266 87.76 93.9666 88.96V109.76ZM113.643 119.76C117.323 122.4 120.763 123.52 124.843 123.52C132.683 123.52 138.123 117.6 138.123 109.2C138.123 103.68 136.043 100.24 130.683 96.8L127.883 95.04C125.083 93.2 124.523 92.48 124.523 90.64C124.523 88.4 126.043 86.88 128.283 86.88C130.123 86.88 131.883 87.6 134.763 89.52V78.88C131.163 76.96 129.163 76.32 126.363 76.32C118.763 76.32 113.323 82.16 113.323 90.24C113.323 95.36 115.163 98.48 119.963 101.52L123.483 103.76C126.123 105.44 126.923 106.56 126.923 108.72C126.923 111.28 125.323 112.96 122.763 112.96C120.203 112.96 117.483 111.6 113.083 108.16L113.643 119.76ZM163.079 111.04C161.559 111.2 160.919 111.28 159.879 111.28C156.919 111.28 155.719 109.92 155.719 106.64V88.4H162.679V77.84H155.719V64.08L144.519 65.36V77.84H140.759V88.4H144.519V106C144.519 111.04 145.079 113.92 146.519 116.32C148.679 120 153.079 122.32 157.879 122.32C159.239 122.32 160.039 122.24 162.119 122L163.079 111.04Z" fill="#FFFFFF"/>
</svg>
