<svg enable-background="new 0 0 200 200" viewBox="0 0 200 200" xmlns="http://www.w3.org/2000/svg"><path d="m9.96-13.51h177.84c13.6 0 24.6 11 24.6 24.6v177.84c0 13.6-11 24.6-24.6 24.6h-177.84c-13.6 0-24.6-11-24.6-24.6v-177.85c0-13.6 10.99-24.59 24.6-24.59z" fill="#00532c"/><g fill="#231f20"><path d="m157.25 147.97c-4.96-7.37 7.42-25.85 3.12-33.66-8.6-15.75-7.68-34.84-16.85-50.42-7.64-12.99-22.95-19-36.64-23.7-7.55-2.59-15.58-.83-19.22-.48-5.88.53-11.76.04-17.46-1.4-2.85-.75-10.4-3.33-13.03-1.32-1.27.97-2.5 5.4-2.76 6.98-.48 2.46.61 5.13 1.4 7.46 3.55 9.96 9.83 18.78 18.17 25.36 3.33 2.59 6.32 4.56 8.73 8.25 3.38 5.13 5.49 9.21 5.75 15.31.26 5.27 0 9.92-.09 15.18-.09 3.33-1.76 15.93-3.69 28.08l7.15 18.56-.35 17.24h77.8c9.39 0 16.98-7.59 16.98-16.98v-6.98c-3.47-6.42-24.88-1.38-29.01-7.48z"/><path d="m161.69 120.11c-.61-.39-.88-5.22-1.36-6.06-1.27-2.37-2.37-4.83-3.29-7.33-13.21 15.4-35.24 25.49-60.2 25.49-.75 0-8.78 0-9.48 0-1.84 21.68-12.77 39.71-27.64 47.22h109.7c9.39 0 16.98-7.59 16.98-16.98v-22.12c-6.02-.12-21.42-1.31-24.71-20.22z"/><path d="m59.71 179.43c-9.54 6-17.06 20.57-17.06 20.57h157.35v-56.92l-16.52-2.9-77.69 33.28c-.01 0-39.98 2.14-46.08 5.97z"/></g><path d="m42.77 163.78c-6.98 0-13.52-1.88-16.64-3.58l-.63-.35 3.09-12.51 1.04.52c4.31 2.19 9.07 3.37 13.9 3.44 5.18 0 8.13-1.91 8.13-5.25 0-2.99-2.26-4.76-8.97-7.16-10.81-3.75-16.3-9.73-16.3-17.72 0-10.84 9.07-18.14 22.55-18.14 5.14-.07 10.25.94 14.94 2.99l.76.31-3.41 12.23-1.01-.49c-3.61-1.74-7.54-2.64-11.54-2.61-4.48 0-7.37 1.81-7.37 4.55 0 2.88 2.5 4.34 9.97 7.16 10.53 3.89 15.43 9.59 15.43 17.9.07 5.07-2.12 9.87-5.98 13.17-4.17 3.63-10.39 5.54-17.96 5.54z" fill="#ecbe24"/><path d="m102.64 162.84-3.61-13.97c-.56-2.26-1.01-4.41-1.49-6.81-.45 2.33-.94 4.52-1.6 6.81l-3.86 13.97h-12.1l-11.15-39.61h13.34l3.06 16.33c.42 2.15.9 4.73 1.36 7.54.59-2.68 1.22-5.25 1.74-7.47l4.07-16.4h10.42l3.82 15.91c.59 2.54 1.18 5.14 1.7 7.75.45-2.78.94-5.42 1.39-7.78l3.3-15.12h13.07l-11.54 38.88h-11.92z" fill="#ecbe24"/><path d="m158.07 163.78c-19.01 0-30.82-11.29-30.82-29.47 0-18.69 12.89-31.27 32.11-31.27 6.92 0 12.13 1.42 14.49 2.64l.66.35-3.09 12.02-1.01-.42c-3.34-1.36-6.88-2.05-10.46-2.05-10.81 0-17.27 6.74-17.27 17.93 0 11.08 6.5 17.69 17.37 17.69 3.54 0 7.05-.63 10.42-1.81l1.04-.42 2.29 11.88-.63.31c-2.39 1.23-7.77 2.62-15.1 2.62z" fill="#ecbe24"/><path d="m48.95 103.97c5-.1 9.97.9 14.56 2.88l-2.88 10.42c-3.72-1.81-7.82-2.75-11.95-2.71-5.59 0-8.3 2.54-8.3 5.49 0 3.65 3.23 5.25 10.6 8.06 10.08 3.75 14.84 8.97 14.84 17.03 0 9.56-7.37 17.69-23.04 17.69-6.53 0-12.96-1.7-16.19-3.47l2.64-10.67c4.45 2.26 9.35 3.47 14.35 3.58 5.94 0 9.07-2.47 9.07-6.19 0-3.54-2.71-5.59-9.56-8.06-9.49-3.3-15.71-8.55-15.71-16.85-.04-9.72 8.09-17.2 21.57-17.2m-.03-1.87c-6.92 0-12.79 1.88-17.03 5.39-4.1 3.37-6.46 8.37-6.43 13.69 0 8.44 5.7 14.7 16.92 18.63 6.98 2.5 8.3 4.14 8.3 6.29 0 1.29-.69 4.31-7.19 4.31-4.69-.1-9.28-1.25-13.45-3.34l-2.08-1.08-.56 2.29-2.64 10.67-.35 1.39 1.25.69c3.23 1.77 9.94 3.75 17.1 3.75 15.15 0 24.91-7.68 24.91-19.56 0-8.76-5.11-14.73-16.05-18.76-7.51-2.85-9.38-4.1-9.38-6.29s2.54-3.65 6.43-3.65c3.86 0 7.68.87 11.12 2.54l2.02.97.59-2.15 2.88-10.42.42-1.53-1.49-.66c-4.83-2.08-10.08-3.13-15.32-3.06z" fill="#231f20"/><path d="m124.88 124.48-11.19 37.63h-10.77l-3.41-13.1c-.9-3.65-1.53-7.02-2.29-11.57h-.14c-.52 3.93-1.29 7.78-2.29 11.61l-3.65 13.1h-10.77l-10.49-37.42h11.54l2.88 15.32c.73 3.89 1.49 8.06 2.08 12.34h.21c.73-4.31 1.77-8.58 2.68-12.27l3.86-15.39h8.93l3.65 14.94c.97 4.2 1.91 8.44 2.68 12.72h.21c.52-4.31 1.25-8.51 2.08-12.79l3.13-14.87h11.29m2.49-3h-15.36l-.31 2.22-3.13 14.94c-.17.97-.38 2.02-.59 3.09-.24-1.01-.45-2.05-.69-3.06l-3.65-15.05-.35-1.42h-11.95l-.35 1.39-3.86 15.39c-.24.94-.45 1.95-.73 2.99-.21-1.04-.38-2.05-.56-2.99l-2.88-15.29-.28-1.49h-15.46l.66 2.36 10.53 37.42.38 1.36h13.52l.38-1.11 3.65-13.24c.24-.87.45-1.7.66-2.54.17.8.38 1.63.59 2.47l3.44 13.27.38 1.88h13.31l.42-1.39 11.5-38.71.76-2.47z" fill="#231f20"/><path d="m159.32 103.97c6.74 0 11.78 1.36 14.07 2.54l-2.64 10.25c-3.44-1.42-7.12-2.15-10.84-2.12-10.25 0-18.21 6.19-18.21 18.9 0 11.43 6.78 18.63 18.31 18.63 3.68 0 7.3-.63 10.77-1.88l1.95 10.08c-2.36 1.18-7.71 2.47-14.66 2.47-19.74 0-29.92-12.27-29.92-28.53 0-19.49 13.9-30.37 31.17-30.34m0-1.87c-9.14 0-17.44 2.99-23.32 8.34-6.36 5.8-9.73 14.04-9.73 23.84 0 8.79 2.78 16.3 8.1 21.68 5.59 5.7 13.8 8.72 23.7 8.72 7.51 0 13.03-1.42 15.5-2.64l1.29-.63-.28-1.39-1.95-10.08-.42-2.26-2.08.83c-3.23 1.15-6.64 1.74-10.08 1.74-10.29 0-16.44-6.25-16.44-16.75 0-10.67 6.12-17.03 16.33-17.03 3.47-.03 6.92.66 10.11 1.98l1.98.83.52-2.08 2.64-10.25.38-1.42-1.32-.69c-2.42-1.28-7.81-2.74-14.93-2.74z" fill="#231f20"/></svg>