<svg width="94" height="20" fill="none" xmlns="http://www.w3.org/2000/svg"><g clip-path="url(#clip0)" fill="#fff"><path d="M24.301 12.328c.399.426.881.761 1.416.985a5.465 5.465 0 0 0 2.038.353c.397 0 .769-.05 1.074-.076.305-.04.604-.114.894-.219.273-.076.496-.203.72-.277a5.56 5.56 0 0 1 .546-.277l-.277-.592c-.149.077-.3.15-.473.219a5.085 5.085 0 0 1-.497.2c-.2.07-.41.112-.62.127a3.973 3.973 0 0 1-.822.05 2.621 2.621 0 0 1-1.416-.353 2.816 2.816 0 0 1-.894-.909 4.599 4.599 0 0 1-.43-1.362 12.377 12.377 0 0 1-.124-1.716c0-.48.05-.985.075-1.489.038-.457.158-.904.355-1.317.177-.384.44-.722.769-.984.416-.268.9-.408 1.392-.404.497-.007.984.146 1.39.437.398.277.622.731.72 1.338h.622V4.125a8.599 8.599 0 0 0-.621-.218 3.325 3.325 0 0 0-.72-.15c-.273-.05-.497-.05-.77-.077-.214 0-.472-.05-.644-.05a6.169 6.169 0 0 0-2.162.353 3.703 3.703 0 0 0-1.475 1.02 3.783 3.783 0 0 0-.835 1.6 7.236 7.236 0 0 0-.273 2.146 6.665 6.665 0 0 0 .273 2.046 3.58 3.58 0 0 0 .77 1.533zm37.69 1.015a3.272 3.272 0 0 0 1.268-.404 2.14 2.14 0 0 0 .894-.984 3.83 3.83 0 0 0 .348-1.767 3.632 3.632 0 0 0-.215-1.362 2.2 2.2 0 0 0-.72-.934 3.525 3.525 0 0 0-1.317-.505 8.998 8.998 0 0 0-1.962-.15h-.821V4.912a.614.614 0 0 1 .148-.48 1.27 1.27 0 0 1 .621-.077h1.167c.299-.012.598.005.894.05a1 1 0 0 1 .546.203c.156.126.276.292.348.48.113.27.205.548.273.832h.481V3.75h-7.092v.303c.05 0 .076.05.198.05.125.05.2.077.215.127.051.067.093.14.125.219 0 .126.05.218.05.404v7.47c.01.137-.006.275-.05.405 0 .126-.05.2-.125.218a.334.334 0 0 1-.215.127.424.424 0 0 1-.197.05v.303h3.578c.52 0 1.041-.028 1.56-.083zm-2.345-.707a.36.36 0 0 1-.124-.277c0-.127-.05-.278-.05-.48V7.814h.821c.72 0 1.268.201 1.59.581.323.38.473 1.009.473 1.869.013.459-.037.917-.148 1.362a1.93 1.93 0 0 1-.43.782c-.177.14-.368.258-.572.353-.228.05-.462.076-.696.077-.215-.05-.43-.05-.546-.077a.466.466 0 0 1-.318-.126zm-7.792.48c-.049 0-.075-.05-.197-.05-.125-.05-.2-.076-.215-.127-.015-.05-.075-.126-.125-.218 0-.127-.05-.218-.05-.404V9.632h.97a8.465 8.465 0 0 0 1.416-.127 3.35 3.35 0 0 0 1.193-.437c.358-.222.644-.547.82-.934.221-.508.323-1.06.3-1.616a3.869 3.869 0 0 0-.274-1.489 2.563 2.563 0 0 0-.773-.849 2.55 2.55 0 0 0-1.118-.354 10.92 10.92 0 0 0-1.317-.076H48.7v.304c.05 0 .075.05.2.05.124.05.197.076.215.126.05.067.093.14.124.219 0 .126.05.218.05.404V12.3a.996.996 0 0 1-.05.404c0 .126-.05.2-.124.218a.334.334 0 0 1-.215.127.425.425 0 0 1-.2.05v.277h3.13l.024-.277v.017zm-.522-8.279a.38.38 0 0 1 .05-.218.222.222 0 0 1 .075-.15.302.302 0 0 1 .215-.077c.124 0 .215-.05.43-.05.233.013.465.038.696.076.212.078.406.198.571.354.164.197.297.418.398.655.084.33.126.668.125 1.008 0 .832-.125 1.44-.349 1.87-.223.43-.644.654-1.242.654h-.969V4.837zm-3.874 6.36h-.622c-.053.307-.125.61-.215.908a.911.911 0 0 1-.298.505.731.731 0 0 1-.546.2c-.32.048-.645.065-.97.05a4.234 4.234 0 0 1-.893-.05 1.46 1.46 0 0 1-.497-.15.387.387 0 0 1-.197-.304 1.752 1.752 0 0 1-.05-.554V8.723h1.648c.149 0 .3.05.473.05.16.016.317.041.473.077.138.035.271.085.398.15V7.74a.94.94 0 0 1-.398.15 8.99 8.99 0 0 1-.943.127h-1.666v-3.21c0-.148.026-.296.075-.436.076-.076.2-.076.398-.076h1.044c.3-.012.599.005.894.05.197.016.385.085.546.2.156.126.276.292.348.481.114.27.205.549.273.834h.497V3.75H40.6v.303c.05 0 .075.05.198.05.124.05.197.077.215.127.051.067.093.14.124.219 0 .126.05.218.05.404V12.3a1 1 0 0 1-.05.404c0 .126-.05.2-.124.218a.334.334 0 0 1-.215.127.425.425 0 0 1-.198.05v.277h6.858v-2.179zm-10.486 2.146a3.27 3.27 0 0 0 1.268-.404c.396-.229.716-.571.92-.984a3.824 3.824 0 0 0 .348-1.767 3.628 3.628 0 0 0-.215-1.362 2.2 2.2 0 0 0-.72-.934 3.524 3.524 0 0 0-1.317-.505 8.992 8.992 0 0 0-1.962-.15h-.82V4.91a.617.617 0 0 1 .147-.48 1.27 1.27 0 0 1 .621-.076h1.167a4.75 4.75 0 0 1 .894.05c.197.017.386.087.546.203.156.126.276.292.348.48.114.27.205.548.273.832h.497V3.75h-7.113v.303c.049 0 .075.05.2.05.124.05.197.077.214.127a.92.92 0 0 1 .125.219c0 .126.05.218.05.404V12.3c.009.136-.008.273-.05.404 0 .126-.05.2-.125.218a.335.335 0 0 1-.215.127.425.425 0 0 1-.2.05v.353h3.579c.575-.032 1.042-.032 1.54-.109zm-2.336-.707a.362.362 0 0 1-.124-.277c0-.127-.05-.278-.05-.48V7.814h.821c.72 0 1.268.201 1.59.581.323.38.473 1.009.473 1.869.013.459-.037.917-.148 1.362a1.93 1.93 0 0 1-.43.782c-.176.14-.368.258-.571.353-.23.05-.463.076-.697.077-.215-.05-.397-.05-.545-.077a.425.425 0 0 1-.319-.126zm58.49 3.528H23.209v.934h69.917v-.934zM87.534 9.78c.2.277.348.504.546.732.148.218.348.48.496.707.15.247.315.484.497.707.183.249.349.51.496.782.148.218.273.504.398.731l3.223.05c-.348-.353-.645-.707-.993-1.06a16.046 16.046 0 0 0-.771-.859c-.299-.353-.572-.655-.819-.934-.247-.28-.496-.58-.72-.858a9.708 9.708 0 0 1-.644-.858c-.175-.277-.43-.631-.622-.935l.149-.2c.215-.304.496-.631.82-1.01.297-.4.62-.78.97-1.134.314-.37.648-.723 1-1.057.28-.264.58-.508.893-.731h-2.237c-.1.243-.217.48-.348.707-.157.314-.34.614-.546.897-.198.304-.43.655-.621 1.009-.191.354-.43.655-.645.985-.215.33-.43.63-.62.858-.199.277-.349.48-.474.655.174.26.372.539.572.816z"/><path d="M87.26 13.11c-.049 0-.074-.05-.199-.05-.125-.05-.198-.076-.215-.126a.912.912 0 0 1-.124-.219c0-.126-.05-.218-.05-.404V4.888a.995.995 0 0 1 .05-.404c0-.126.049-.2.124-.218a.891.891 0 0 1 .215-.127.424.424 0 0 1 .2-.05v-.327H84.13v.303c.05 0 .075.05.2.05.124.05.197.077.215.127.051.067.093.14.124.218 0 .127.05.219.05.404v7.447a.996.996 0 0 1-.05.404c0 .127-.05.201-.124.219a.331.331 0 0 1-.215.126.423.423 0 0 1-.2.05v.278h3.13v-.278zm-20.737-.86c.124-.555.348-1.339.645-2.323h3.055l.43 1.262c.18.458.323.93.43 1.412.104.276.17.565.198.858h2.434c-.124-.2-.215-.48-.397-.781a12.294 12.294 0 0 1-.546-1.363l-2.21-6.362a3.489 3.489 0 0 1-.199-.707c-.05-.2-.05-.354-.075-.48h-2.731v.303c.049 0 .075.05.197.05.125.05.198.077.215.127.052.066.093.14.125.218v.201a1.58 1.58 0 0 1-.125.631l-1.54 3.836c-.274.707-.547 1.338-.72 1.793-.175.454-.398.908-.497 1.211-.148.304-.273.581-.398.782-.1.163-.19.331-.272.504h1.738c.058-.395.139-.787.243-1.172zm2.188-6.917l1.25 3.913h-2.628l1.377-3.913zm8.635 7.783h-.078c-.05 0-.075-.05-.2-.05-.124-.05-.197-.076-.215-.127a.919.919 0 0 1-.124-.218c0-.127-.05-.218-.05-.404V8.606h3.703v3.685a.995.995 0 0 1-.05.404c0 .127-.049.2-.124.218a.334.334 0 0 1-.215.127.425.425 0 0 1-.198.05v.303h3.131v-.303c-.05 0-.075-.05-.197-.05-.125-.05-.2-.077-.215-.127a.893.893 0 0 1-.125-.218c0-.127-.05-.219-.05-.404V4.807a.995.995 0 0 1 .05-.404c0-.127.05-.201.125-.219a.894.894 0 0 1 .215-.126.424.424 0 0 1 .197-.05V3.75h-3.08v.303c.05 0 .076.05.199.05.124.05.2.077.215.127.05.067.093.14.124.219 0 .126.05.218.05.404v3.113h-3.658V4.837a1.004 1.004 0 0 1 .05-.404c0-.126.049-.2.124-.218a.884.884 0 0 1 .215-.127.37.37 0 0 1 .198-.05V3.75H74.24v.303c.05 0 .075.05.198.05.125.05.198.077.215.127.051.067.093.14.124.219 0 .126.05.218.05.404v7.47c.01.137-.007.274-.05.405 0 .126-.049.2-.124.218a.334.334 0 0 1-.215.127.425.425 0 0 1-.198.05v.303h3.131l-.025-.327v.017zM16.848 4.748c-.2-.277-.398-.554-.572-.834L5.592 10.15.434 7.144C.316 7.47.244 7.81.22 8.154l5.422 3.19 11.207-6.596z"/><path d="M5.591 12.5L.051 9.267a2.497 2.497 0 0 0-.049.605c0 2.47.966 4.84 2.685 6.586a9.096 9.096 0 0 0 6.484 2.729 9.096 9.096 0 0 0 6.483-2.729 9.39 9.39 0 0 0 2.685-6.586 9.263 9.263 0 0 0-.993-4.24L5.591 12.499z"/><path d="M15.53 3.137c-.26-.25-.534-.486-.82-.707L5.592 7.807l-4.397-2.55c-.148.277-.299.58-.473.908l4.82 2.828 9.989-5.856z"/><path d="M13.816 1.824a8.637 8.637 0 0 0-1.075-.554l-7.15 4.183-3.204-1.836c-.215.218-.43.504-.644.781l3.825 2.223 8.248-4.797z"/></g></svg>