<svg width="60" height="60" fill="none" xmlns="http://www.w3.org/2000/svg"><path d="M11 32.589c4.97 0 9-4.091 9-9.137 0-5.047-4.03-9.138-9-9.138s-9 4.091-9 9.137c0 5.047 4.03 9.138 9 9.138zm39 0c4.97 0 9-4.091 9-9.137 0-5.047-4.03-9.138-9-9.138s-9 4.091-9 9.137c0 5.047 4.03 9.138 9 9.138zM31 19.39c4.97 0 9-4.09 9-9.137 0-5.046-4.03-9.137-9-9.137s-9 4.091-9 9.137 4.03 9.137 9 9.137z" fill="#E2B454"/><path d="M53 37.665H19v21.32h34v-21.32z" fill="#FF4151"/><path d="M39 37.665h-5v21.32h5v-21.32zm-20 21.32H6V43.756l1-6.091h12v21.32z" fill="#FF4151"/><path d="M53 37.665l6 6.091H25l-6-6.091h34z" fill="#1983CB"/><path d="M15 37.665h-5v21.32h5v-21.32z" fill="#FF4151"/><path d="M7 37.665l-6 6.091h12l6-6.091H7z" fill="#1983CB"/><path d="M56 57.97h-2v-9.137h3v-2.03h-3v-2.031h5a.99.99 0 0 0 .556-.171 1.03 1.03 0 0 0 .151-1.562l-6-6.092A.993.993 0 0 0 53 36.65H7a.993.993 0 0 0-.707.297l-6 6.092a1.02 1.02 0 0 0-.217 1.106c.076.185.204.344.369.456a.99.99 0 0 0 .555.17h4V57.97H0V60h56v-2.03zm-4 0H40v-9.137h12v9.137zM18 41.726V57.97h-2V42.146l3-3.045 5.293 5.373c.188.19.442.298.707.298h8v2.03h-4v2.03h4v9.138H20V41.726h-2zm-5 3.046c.265 0 .52-.107.707-.298l.293-.297V57.97h-3V44.772h2zm25 0v2.03h-3v-2.03h3zm-3 4.06h3v9.138h-3v-9.137zm17-2.03H40v-2.03h12v2.03zm.586-8.122l4 4.061H25.414l-4-4.06h31.172zm-45.172 0h9.172l-4 4.061H3.414l4-4.06zM7 44.772h2V57.97H7V44.772z" fill="#373A4A"/><path d="M27 46.802h-2v2.03h2v-2.03zM60 57.97h-2V60h2v-2.03zM7.362 24.06c.374.382.846.65 1.362.774a2.799 2.799 0 0 0 1.559-.074l2.069-.7a.842.842 0 0 1 .996.367.878.878 0 0 1-.122 1.069l-.207.21a.848.848 0 0 1-1.208 0l-.1-.101-1.414 1.435.1.102a2.782 2.782 0 0 0 3.33.508l.81.822 1.414-1.436-.81-.822a2.925 2.925 0 0 0-.351-3.216 2.838 2.838 0 0 0-1.405-.91 2.802 2.802 0 0 0-1.666.046l-2.07.699a.842.842 0 0 1-.56-.007.857.857 0 0 1-.436-.36.878.878 0 0 1 .123-1.069l.207-.21a.848.848 0 0 1 1.208 0l.1.102 1.414-1.436-.1-.101a2.81 2.81 0 0 0-3.33-.508l-.81-.822-1.414 1.44.81.822a2.93 2.93 0 0 0 .5 3.377z" fill="#373A4A"/><path d="M1 23.451c0 2.008.587 3.971 1.685 5.64a10.035 10.035 0 0 0 4.488 3.74 9.862 9.862 0 0 0 5.778.577 9.954 9.954 0 0 0 5.12-2.778 10.162 10.162 0 0 0 2.186-3.294 10.288 10.288 0 0 0 .017-7.791 10.164 10.164 0 0 0-2.172-3.304 9.991 9.991 0 0 0-3.254-2.205 9.87 9.87 0 0 0-7.674.017 9.993 9.993 0 0 0-3.245 2.22c-.931.94-1.67 2.059-2.173 3.291A10.219 10.219 0 0 0 1 23.451zm10-8.122c1.85 0 3.644.652 5.075 1.844a8.145 8.145 0 0 1 2.771 4.694 8.23 8.23 0 0 1-.791 5.413 8.044 8.044 0 0 1-3.994 3.675 7.888 7.888 0 0 1-5.384.268 8.011 8.011 0 0 1-4.33-3.26 8.218 8.218 0 0 1 .996-10.255 7.94 7.94 0 0 1 2.594-1.764A7.843 7.843 0 0 1 11 15.329zm42.536 3.098l-.81.822a2.807 2.807 0 0 0-3.168.357c-.432.373-.744.87-.896 1.426a2.929 2.929 0 0 0 .045 1.691l.689 2.1a.88.88 0 0 1-.361 1.012.843.843 0 0 1-1.053-.124l-.207-.21a.875.875 0 0 1 0-1.227l.1-.101-1.414-1.436-.1.102c-.427.436-.705 1-.795 1.607-.09.608.014 1.23.295 1.774l-.81.822 1.414 1.435.81-.822a2.807 2.807 0 0 0 3.167-.356c.433-.374.745-.87.897-1.427a2.928 2.928 0 0 0-.045-1.69L50.6 22.08a.88.88 0 0 1 .007-.57.864.864 0 0 1 .354-.442.844.844 0 0 1 1.053.124l.207.21a.875.875 0 0 1 0 1.227l-.1.101 1.414 1.436.1-.102a2.931 2.931 0 0 0 .5-3.38l.81-.823-1.41-1.435z" fill="#373A4A"/><path d="M50 13.3a9.909 9.909 0 0 0-6.344 2.304 10.181 10.181 0 0 0-3.464 5.867 10.289 10.289 0 0 0 .989 6.767 10.056 10.056 0 0 0 4.992 4.594 9.86 9.86 0 0 0 6.73.335 10.014 10.014 0 0 0 5.412-4.075 10.272 10.272 0 0 0-1.244-12.819 9.928 9.928 0 0 0-3.242-2.205A9.806 9.806 0 0 0 50 13.3zm5.657 15.895a7.908 7.908 0 0 1-10.101 1.01 8.113 8.113 0 0 1-3.211-4.395 8.238 8.238 0 0 1 .264-5.465 8.08 8.08 0 0 1 3.62-4.055 7.895 7.895 0 0 1 5.332-.803 7.98 7.98 0 0 1 4.623 2.813A8.198 8.198 0 0 1 58 23.452a8.18 8.18 0 0 1-.605 3.11 8.08 8.08 0 0 1-1.738 2.633zM32 5.325V4.162h-2v1.163a2.843 2.843 0 0 0-1.376.953 2.923 2.923 0 0 0-.255 3.224c.28.502.7.908 1.209 1.165l1.949.989c.173.086.311.23.393.407a.879.879 0 0 1-.243 1.05.847.847 0 0 1-.531.186h-.292a.849.849 0 0 1-.604-.254.875.875 0 0 1-.25-.613v-.148h-2v.148c.002.615.197 1.213.557 1.707.36.495.865.86 1.443 1.043v1.163h2v-1.163a2.843 2.843 0 0 0 1.376-.953 2.923 2.923 0 0 0 .255-3.224c-.28-.503-.7-.908-1.209-1.165l-1.949-.989a.861.861 0 0 1-.393-.407.879.879 0 0 1 .243-1.05.846.846 0 0 1 .531-.186h.292c.226 0 .444.091.604.254.16.163.25.383.25.613v.148h2v-.148a2.922 2.922 0 0 0-.557-1.707A2.85 2.85 0 0 0 32 5.325z" fill="#373A4A"/><path d="M41 10.254c0-2.008-.587-3.97-1.685-5.64a10.034 10.034 0 0 0-4.488-3.74 9.86 9.86 0 0 0-5.778-.577 9.955 9.955 0 0 0-5.12 2.778 10.2 10.2 0 0 0-2.737 5.198c-.386 1.97-.188 4.01.57 5.866a10.122 10.122 0 0 0 3.682 4.556A9.894 9.894 0 0 0 31 20.406a9.935 9.935 0 0 0 7.068-2.977A10.242 10.242 0 0 0 41 10.254zm-10 8.122a7.915 7.915 0 0 1-4.445-1.37 8.097 8.097 0 0 1-2.946-3.644 8.237 8.237 0 0 1-.455-4.693 8.16 8.16 0 0 1 2.19-4.158 7.963 7.963 0 0 1 4.095-2.223 7.889 7.889 0 0 1 4.623.462 8.028 8.028 0 0 1 3.59 2.992 8.21 8.21 0 0 1-.998 10.252A7.948 7.948 0 0 1 31 18.376z" fill="#373A4A"/><path d="M31 22.436h-2V34.62h2V22.436zm2 12.183h2v-4.061c0-.538.21-1.055.586-1.436.375-.38.884-.595 1.414-.595v-2.03a3.97 3.97 0 0 0-2.828 1.19A4.092 4.092 0 0 0 33 30.557v4.06zm-6 0v-6.091c0-1.077-.421-2.11-1.172-2.872A3.97 3.97 0 0 0 23 24.466v2.031c.53 0 1.04.214 1.414.595.375.38.586.897.586 1.436v6.091h2zM21.308 0a14.102 14.102 0 0 0-3.195 4.676A14.282 14.282 0 0 0 17 10.254c0 .367.014.732.041 1.093l1.994-.156a12.393 12.393 0 0 1-.035-.937 12.24 12.24 0 0 1 .953-4.782 12.087 12.087 0 0 1 2.74-4.01L21.307 0zM4 2.132H2v2.03h2v-2.03zm7 5.076H9v2.03h2v-2.03zM3 34.619H1v2.03h2v-2.03zm57 0h-2v2.03h2v-2.03zM46 1.117h-2v2.03h2v-2.03zm10 7.107h-2v2.03h2v-2.03z" fill="#1983CB"/></svg>