<svg width="51" height="50" fill="none" xmlns="http://www.w3.org/2000/svg"><rect x="50" y="50" width="50" height="50" rx="25" transform="rotate(-180 50 50)" fill="url(#paint0_radial)"/><rect x="50" y="50" width="50" height="50" rx="25" transform="rotate(-180 50 50)" fill="#6C963C"/><path d="M37.95 5.212v44.01h-33l.01-4.61h28.626v-39.4h4.363z" fill="#96BDF2"/><path d="M33.77.784v44.01H.782V9.369L9.323.784H33.77z" fill="#CAE0FA"/><path d="M9.318.786v8.537H.78L9.318.786zM20.05 6.8a9.904 9.904 0 0 1-1.735-.963c-.544.378-1.125.7-1.734.962a8.304 8.304 0 0 1-2.405.5s.373 4.41.808 5.17a6.554 6.554 0 0 0 3.333 2.74 6.554 6.554 0 0 0 3.334-2.74c.435-.76.808-5.17.808-5.17a8.3 8.3 0 0 1-2.41-.499z" fill="#96BDF2"/><path d="M46.462 10.264a2.068 2.068 0 1 0-4.135 0l-.01 24.54 2.057 7.012 2.083-7.008.01-21.979-.005-2.565z" fill="#EB4F5E"/><path d="M42.316 18.264h4.137v16.54h-4.137v-16.54z" fill="#FB5968"/><path d="M37.95 5.212v44.01h-33l.01-4.61h28.626v-39.4h4.363z" fill="#96BDF2"/><path d="M33.77.784v44.01H.782V9.369L9.323.784H33.77z" fill="#CAE0FA"/><path d="M9.318.786v8.537H.78L9.318.786z" fill="#96BDF2"/><path d="M20.091 6.131a12.058 12.058 0 0 1-2.094-1.13c-.657.443-1.358.821-2.093 1.129-.933.334-1.912.532-2.904.587 0 0 .45 5.175.976 6.068A7.867 7.867 0 0 0 18 16a7.867 7.867 0 0 0 4.024-3.215c.526-.893.976-6.068.976-6.068a10.267 10.267 0 0 1-2.909-.586z" fill="#92E0C0"/><path d="M46.462 10.264a2.068 2.068 0 1 0-4.135 0l-.01 24.54 2.057 7.012 2.083-7.008.01-21.979-.005-2.565z" fill="#EB4F5E"/><path d="M42.316 18.264h4.137v16.54h-4.137v-16.54z" fill="#FB5968"/><path d="M34.555 44.795V.78A.781.781 0 0 0 33.774 0H9.318a.785.785 0 0 0-.554.23L.227 8.82a.781.781 0 0 0-.227.55v35.426a.781.781 0 0 0 .781.781h32.993a.781.781 0 0 0 .781-.781zm-1.562-.782H1.563V9.691l6.979-7.016v5.87H4.079a.781.781 0 1 0 0 1.562h5.239a.781.781 0 0 0 .781-.781v-7.76h22.894v42.448z" fill="#303344"/><path d="M8.543 21.426a.782.782 0 0 0 .781.781h17.993a.782.782 0 0 0 0-1.562H9.319a.782.782 0 0 0-.776.781zm18.772 3.604h-8.999a.781.781 0 1 0 0 1.563h9a.781.781 0 1 0 0-1.563zM9.316 26.593h6.223a.782.782 0 0 0 0-1.563H9.316a.781.781 0 1 0 0 1.563zm17.998 2.824H9.316a.781.781 0 0 0 0 1.562h17.998a.782.782 0 0 0 0-1.562zm.001 4.386h-2.842a.781.781 0 1 0 0 1.563h2.842a.781.781 0 1 0 0-1.563zM9.316 35.366h12.445a.781.781 0 1 0 0-1.563H9.316a.781.781 0 1 0 0 1.563zm17.998 2.822H9.316a.781.781 0 1 0 0 1.563h17.998a.782.782 0 0 0 0-1.563z" fill="#303344"/><path d="M37.945 4.434h-1.707a.781.781 0 1 0 0 1.563h.926V48.44H5.73v-1.042a.781.781 0 1 0-1.562 0v1.82a.781.781 0 0 0 .781.781h32.996a.782.782 0 0 0 .781-.781V5.21a.781.781 0 0 0-.781-.777zm10.153 6.829h-.844v-.998a2.853 2.853 0 0 0-2.846-2.852 2.852 2.852 0 0 0-2.847 2.848l-.022 24.543c0 .075.01.15.031.221l2.063 7.012a.78.78 0 0 0 1.498 0l2.074-7.008a.752.752 0 0 0 .033-.22l.019-21.98h.846a.338.338 0 0 1 .337.339v5.186a.781.781 0 1 0 1.563 0v-5.19a1.901 1.901 0 0 0-1.905-1.901zm-4.602-1.91a1.28 1.28 0 0 1 .91-.378 1.289 1.289 0 0 1 1.286 1.289v1.785l-.02 21.98H43.1l.012-14.979h1.285a.781.781 0 1 0 0-1.562h-1.285l.011-7.226a1.273 1.273 0 0 1 .373-.91zm.884 29.702l-1.02-3.468h2.047l-1.027 3.468zm-31.268-25.78a8.894 8.894 0 0 0 4.596 3.68c.19.06.394.06.584 0a8.895 8.895 0 0 0 4.596-3.68c.574-.976.966-4.891 1.109-6.529a.909.909 0 0 0-.236-.693.952.952 0 0 0-.676-.314 9.466 9.466 0 0 1-2.621-.53 11.261 11.261 0 0 1-1.915-1.04.972.972 0 0 0-1.098 0c-.602.407-1.243.756-1.915 1.04-.842.3-1.725.478-2.62.53a.973.973 0 0 0-.677.314.925.925 0 0 0-.236.693c.143 1.638.535 5.553 1.109 6.529zm3.13-6.34c.611-.247 1.2-.547 1.758-.893.56.348 1.15.648 1.764.896.725.27 1.48.458 2.248.563a26.346 26.346 0 0 1-.777 4.853 6.99 6.99 0 0 1-3.239 2.725 6.902 6.902 0 0 1-3.23-2.725 26.14 26.14 0 0 1-.78-4.857 10.541 10.541 0 0 0 2.256-.561z" fill="#303344"/><path d="M17.327 11.716a.952.952 0 0 0 .675.284.943.943 0 0 0 .676-.284L20.73 9.64a.974.974 0 0 0-.01-1.355.95.95 0 0 0-1.34-.013l-1.379 1.394-.347-.355a.956.956 0 0 0-.683-.307.946.946 0 0 0-.692.283.968.968 0 0 0-.28.7.978.978 0 0 0 .304.691l1.023 1.04z" fill="#303344"/><defs><radialGradient id="paint0_radial" cx="0" cy="0" r="1" gradientUnits="userSpaceOnUse" gradientTransform="rotate(135 39.645 45.71) scale(70.7107)"><stop stop-color="#9D2777"/><stop offset=".615" stop-color="#731A56"/></radialGradient></defs></svg>