<svg width="88" height="88" fill="none" xmlns="http://www.w3.org/2000/svg"><rect width="88" height="88" rx="44" fill="url(#paint0_radial)"/><path d="M38.14 64.342c-6.749-.039-12.33-13.814-12.33-20.83 0-11.46 8.596-13.969 11.91-13.969 1.492 0 3.087.587 4.493 1.105.983.362 2 .736 2.566.736.338 0 1.136-.318 1.84-.597 1.503-.598 3.372-1.341 5.549-1.341h.013c1.625 0 6.554.357 9.517 4.806l.694 1.043-1 .754c-1.426 1.077-4.03 3.04-4.03 6.931 0 4.608 2.949 6.38 4.365 7.233.626.376 1.273.764 1.273 1.612 0 .554-4.421 12.448-10.841 12.448-1.571 0-2.681-.472-3.661-.888-.991-.422-1.846-.785-3.259-.785-.716 0-1.621.339-2.58.698-1.31.489-2.793 1.044-4.475 1.044h-.044zM52.847 19c.167 6.029-4.144 10.211-8.45 9.949-.71-4.811 4.305-9.949 8.45-9.949z" fill="#fff"/><defs><radialGradient id="paint0_radial" cx="0" cy="0" r="1" gradientUnits="userSpaceOnUse" gradientTransform="rotate(45) scale(124.451)"><stop stop-color="#FFF171"/><stop offset=".427" stop-color="#D36C5B"/><stop offset="1" stop-color="#822EAA"/></radialGradient></defs></svg>