<svg width="78" height="20" fill="none" xmlns="http://www.w3.org/2000/svg"><g clip-path="url(#clip0)"><path fill-rule="evenodd" clip-rule="evenodd" d="M4.669 4.797C1.98 4.797 0 6.955 0 9.68c0 2.726 2.177 4.885 5.002 4.885a5.805 5.805 0 0 0 3.726-1.335c-.655-1.238-1.168-1.135-3.18-.86a4.07 4.07 0 0 1-.546.036c-1.471 0-2.433-1.059-2.61-1.883h6.945c.02-.353.02-.706.02-.882 0-2.865-2.139-4.845-4.688-4.845zm-2.276 4.02c.079-.823.764-1.882 2.276-1.882 1.548 0 2.294 1.078 2.334 1.882h-4.61zm37.487-4.02a4.885 4.885 0 1 0 4.962 4.885 4.878 4.878 0 0 0-4.962-4.884zm0 7.572c-1.59 0-2.57-1.236-2.57-2.687 0-1.452.98-2.688 2.57-2.688 1.589 0 2.57 1.236 2.57 2.688 0 1.451-.981 2.687-2.57 2.687zM15.776 4.797a3.212 3.212 0 0 0-2.785 1.589v-.088l-.004.002a1.36 1.36 0 0 0-1.365-1.266v-.002h-.829v9.297h2.354V8.19s.628-1.196 1.844-1.196c1.02 0 1.844.568 1.844 1.902v5.433h2.354V8.307c0-2.235-1.609-3.51-3.413-3.51zm17.874 0c-1.726 0-2.53 1.589-2.53 1.589v-.11l-.006.002a1.353 1.353 0 0 0-1.402-1.249v.003h-.828v9.297h2.353V8.25a2.46 2.46 0 0 1 2.08-1.255c.383-.008.765.065 1.118.216l.823-2.12a5.065 5.065 0 0 0-1.608-.293zm17.314 0a3.372 3.372 0 0 0-2.805 1.45v-.1c-.002.001 0 .031-.008-.029a1.196 1.196 0 0 0-1.183-1.082v-.004h-.987v13.809h2.353v-5.472a3.323 3.323 0 0 0 2.63 1.197c2.412 0 4.53-2.021 4.53-4.884 0-2.865-2.118-4.885-4.53-4.885zm-.412 7.572a2.577 2.577 0 0 1-2.218-1.295V8.29a2.577 2.577 0 0 1 2.218-1.295c1.588 0 2.55 1.158 2.55 2.688 0 1.53-.962 2.687-2.55 2.687zm13.114-6.12a3.332 3.332 0 0 0-2.804-1.452c-2.414 0-4.531 2.02-4.531 4.885 0 2.863 2.117 4.884 4.53 4.884a3.214 3.214 0 0 0 2.805-1.452v.051l.011-.012a1.362 1.362 0 0 0 1.32 1.173v.004h.847V5.032h-2.178v1.216zm-.177 4.826a2.602 2.602 0 0 1-2.196 1.294c-1.59 0-2.57-1.157-2.57-2.687 0-1.53.98-2.688 2.57-2.688a2.603 2.603 0 0 1 2.196 1.295v2.786zM74.97 5.03l-2.452 6.807-3.139-6.807h-2.608l4.53 9.514-.41 1.054h.003a4.376 4.376 0 0 1-1.095 1.493c-.079.071-.159.133-.238.196-.718.514-.985.993-.733 1.725l-.005.002.033.085v.002l.36.911c.968-.269 1.836-.82 2.492-1.582.586-.655 1.124-1.493 2.095-4.075L77.5 5.031h-2.53zm-49.522 7.337c-.628 0-1.217-.333-1.217-1.47V7.15h2.806V5.032H24.23V3.225v.203c0-1.028-.75-1.161-1.143-1.161l.142-.001h-1.352v2.766h-1.825V7.15h1.824v4.12c0 1.98 1.373 3.295 3.178 3.295a4.23 4.23 0 0 0 2.236-.609l-.863-1.921a1.864 1.864 0 0 1-.98.333z" fill="#fff"/></g></svg>