<svg width="30" height="30" fill="none" xmlns="http://www.w3.org/2000/svg">
  <g clip-path="url(#moneygram-color-30px__clip0)">
    <path d="M28 0H2a2 2 0 00-2 2v26a2 2 0 002 2h26a2 2 0 002-2V2a2 2 0 00-2-2z" fill="#8D0004"/>
    <path d="M15 25.07c5.434 0 9.839-4.51 9.839-10.074S20.434 4.922 15 4.922c-5.433 0-9.838 4.51-9.838 10.074S9.567 25.071 15 25.071z" fill="#fff"/>
    <path d="M24.839 14.996c0 5.565-4.404 10.075-9.839 10.075-5.434 0-9.838-4.51-9.838-10.075 0-1.537.335-2.985.93-4.281a8.413 8.413 0 00-.583 3.01c0 4.562 3.598 5.222 5.124 5.21 2.333-.026 5.05-1.195 7.345-3.354 0 0-.298 1.702-.385 2.223-.087.508.236.953.732.953h.199c.508 0 .88-.432.967-.953l.832-4.751c.1-.534-.236-.953-.757-.953h-4.64c-.521 0-.993.28-1.08.813 0 .025-.037.178-.037.216-.074.508.273.889.77.889h2.419l-.112.114c-1.675 1.614-3.747 2.503-5.459 2.503-1.7 0-3.61-1.105-3.61-3.583 0-5.145 4.714-8.13 7.183-8.13 5.422 0 9.839 4.51 9.839 10.074z" fill="#DF2127"/>
  </g>
  <defs>
    <clipPath id="moneygram-color-30px__clip0">
      <path fill="#fff" d="M0 0h30v30H0z"/>
    </clipPath>
  </defs>
</svg>
