<svg width="200" height="200" fill="none" xmlns="http://www.w3.org/2000/svg"><path d="M200 0H0v200h200V0z" fill="#191919"/><path d="M131.169 65.04c0 11.817-7.925 21.75-18.607 25.005-5.514 2.055-12.75 2.569-18.436.685-5.685-1.884-14.472-9.077-24.81-9.42-10.854-.342-19.813 6.68-19.813 6.68l-3.273 2.398V41.062c0-4.281 3.445-7.706 7.753-7.706h21.364s-7.926 11.132-6.72 26.375c1.206 15.242 16.196 22.607 16.196 22.607-4.135-4.624-6.72-10.79-6.72-17.47 0-14.386 11.889-26.032 26.533-26.032 14.645 0 26.533 11.646 26.533 26.204zm2.757 28.43c-7.236-.856-13.956 1.028-19.125 4.967 0 0-.172 0-.172.171-10.337 7.365-10.51 15.243-15.85 23.978-5.342 8.563-8.96 14.215-22.743 18.668-14.128 4.453-29.634-5.823-29.634-5.823v24.32c0 4.281 3.446 7.707 7.753 7.707h54.444c-10.854-18.326-5.169-37.508-5.169-37.508 4.997 8.221 11.716 11.133 11.716 11.133 4.307 3.082 9.648 5.138 15.506 5.138 15.506 0 27.911-13.359 26.188-29.116-1.378-12.331-11.026-22.093-22.914-23.635z" fill="url(#paint0_radial)" stroke="#151515"/><path d="M152.878 41.065v56.347s-10.337-9.248-23.776-7.536c-13.439 1.542-17.229 5.824-23.259 12.503-6.03 6.679-11.027 22.607-17.402 27.745-5.685 5.823-13.955 9.249-22.914 8.05-9.993-1.37-18.608-8.563-21.537-18.154-5.513-17.47 8.098-35.624 25.327-34.425 5.686.342 9.82 1.884 14.99 4.624 0 0 15.506 9.934 32.39 2.055 16.885-7.878 18.091-20.038 18.78-25.69.689-6.68-3.101-23.977-19.469-29.115-16.368-4.967-27.911 2.74-31.53 5.994-3.79 3.425-10.854 14.73-9.475 23.977 0 0-9.132-13.7 8.097-33.91h62.37c3.962-.172 7.408 3.254 7.408 7.535zm-37.042 126.053h29.461c4.308 0 7.754-3.425 7.754-7.707v-18.839s-8.27 9.248-24.293 8.563c-14.473-.685-23.26-11.989-23.26-11.989-2.584 16.784 10.338 29.972 10.338 29.972z" fill="url(#paint1_radial)" stroke="#151515"/><defs><radialGradient id="paint0_radial" cx="0" cy="0" r="1" gradientUnits="userSpaceOnUse" gradientTransform="rotate(-128.323 114.436 37.059) scale(198.659 240.411)"><stop stop-color="#C97125"/><stop offset=".388" stop-color="#E3B05A"/><stop offset=".565" stop-color="#EFCE73"/><stop offset=".864" stop-color="#F6E08A"/><stop offset=".923" stop-color="#F8DC94"/><stop offset="1" stop-color="#F9D99D"/></radialGradient><radialGradient id="paint1_radial" cx="0" cy="0" r="1" gradientUnits="userSpaceOnUse" gradientTransform="rotate(44.233 -74.865 129.794) scale(116.622 116.605)"><stop stop-color="#E4E4E4"/><stop offset=".387" stop-color="#DADADA"/><stop offset=".698" stop-color="#C0C0BF"/><stop offset=".999" stop-color="#A1A19F"/></radialGradient></defs></svg>