<svg fill="none" height="50" width="50" xmlns="http://www.w3.org/2000/svg" xmlns:xlink="http://www.w3.org/1999/xlink"><mask id="a" height="41" maskUnits="userSpaceOnUse" width="50" x="0" y="0"><path clip-rule="evenodd" d="m0 40.705h50v-40.705h-50z" fill="#fff" fill-rule="evenodd"/></mask><g fill="#af3185"><rect fill-opacity=".1" height="50" rx="25" transform="matrix(-1 0 0 -1 100 100)" width="50" x="50" y="50"/><g clip-rule="evenodd" fill-rule="evenodd"><path d="m45.443 36.498a2.525 2.525 0 0 1 -2.522 2.524h-38.713a2.527 2.527 0 0 1 -2.524-2.524v-21.889a2.528 2.528 0 0 1 2.524-2.521h38.713a2.525 2.525 0 0 1 2.522 2.525zm-2.523-26.086h-38.713a4.21 4.21 0 0 0 -4.207 4.204v21.889a4.214 4.214 0 0 0 4.207 4.2h38.713a4.214 4.214 0 0 0 4.207-4.207v-21.888a4.21 4.21 0 0 0 -4.207-4.198z"/><g mask="url(#a)"><path d="m5.879 21.35h6.742v-5.047h-6.741v5.047zm7.586-6.733h-8.414a.843.843 0 0 0 -.844.843v6.733c0 .463.377.839.84.84l.004-.001h8.414a.84.84 0 0 0 .84-.839v-6.733a.843.843 0 0 0 -.84-.843z"/><path d="m5.05 19.667h2.526v-1.683h-2.526zm5.891 0h2.525v-1.683h-2.525zm-6.734 10.098h5.05v-1.683h-5.05zm8.418 0h5.05v-1.683h-5.05zm8.414 0h5.051v-1.683h-5.05v1.683zm25.421-23.577-38.226-6.135a4.212 4.212 0 0 0 -4.819 3.493l-1.353 8.414 1.66.27 1.357-8.417a2.53 2.53 0 0 1 2.89-2.097l38.222 6.126a2.524 2.524 0 0 1 2.097 2.884l-2.838 18.043 1.666.261 2.833-18.036a4.215 4.215 0 0 0 -3.49-4.806zm-42.254 28.63h21.882v-1.683h-21.882z"/><path d="m30.297 18.824h1.682v-3.365h-1.682zm3.363 0h1.683v-3.365h-1.683zm3.367 0h1.683v-3.365h-1.683zm3.367 0h1.683v-3.365h-1.682v3.365zm-36.328-11.795.285-1.658 29.452 5.05-.285 1.658-29.452-5.05zm42.078 7.15.283-1.66 2.525.43-.283 1.659-2.524-.43z"/></g></g></g></svg>