<svg width="200" height="200" fill="none" xmlns="http://www.w3.org/2000/svg"><path d="M200 0H0v200h200V0z" fill="#353535"/><path d="M180 100.039c-2.985 105.902-157.498 105.324-159.356-.822C24.695-5.74 176.62-5.406 180 100.04zM69.62 73.176c.183 0 .305-.092.305-.305l-.03.03c.213 0 .365-.06.305-.334h-.031c8.711-5.026 16.965-5.117 24.427 2.314 9.412 9.442 18.823 18.854 28.235 28.326.822.822 1.248.914 2.101.031 2.254-2.407 4.66-4.66 6.945-7.036 2.345-2.437 5.177-3.808 8.528-4.234 6.975-.487 10.264 3.594 14.772 8.041 4.782 4.599 9.564 9.198 14.254 13.676 5.422-26.712-6.061-56.652-29.087-71.698C89.327 6.35 21.314 49.784 30.665 111.126c.152 1.005.579.731 1.066.244 12.336-12.762 25.25-24.945 37.433-37.86.213 0 .396-.09.457-.334zm67.8 44.529c6.64 7.127 13.858 13.676 20.529 20.772.852.914 1.157.609 1.705-.274 2.406-3.868 4.325-7.98 6.244-12.122 1.249-2.741.975-4.447-1.31-6.579-6.304-5.939-12.305-12.214-18.427-18.336-2.467-2.467-6.213-2.74-8.619-.487-2.772 2.589-5.391 5.361-8.102 8.041-.396.396-.487.64-.03 1.096 2.68 2.589 5.33 5.239 8.01 7.889zm-37.128 53.058c20.863-.031 39.869-8.955 53.484-24.641.7-.792.609-1.188-.122-1.919-21.381-21.412-42.732-42.854-64.083-64.296-5.056-5.087-11.483-5.056-16.508 0A16085.072 16085.072 0 0 1 33.68 119.44c-.7.701-.883 1.279-.578 2.224 9.259 29.117 36.58 49.098 67.19 49.098z" fill="#242829"/><path d="M100.292 170.764c-30.61 0-57.931-19.98-67.16-49.128-.304-.945-.122-1.523.579-2.224 13.158-13.158 26.255-26.346 39.382-39.534 5.025-5.056 11.452-5.056 16.508 0 21.351 21.442 42.702 42.885 64.083 64.296.731.731.792 1.127.122 1.919-13.645 15.717-32.651 24.61-53.514 24.671zm-6.64-16.417c.548-.091.792-.578 1.127-.913 6.152-6.092 12.122-12.336 18.457-18.245-.091-.121-.152-.243-.243-.365-4.782 1.279-9.899.761-14.437-1.157 10.599-.914 14.741-14.833 6.518-21.778-3.229-2.863-7.067-4.477-11.178-5.513-9.93-2.528-20.103-2.254-30.245-2.375-.823 0-.883.456-.853 1.066.03 1.766.03 3.533.03 5.33.244 12.366-.152 37.311 15.382 40.387 6.944.975 13.767-3.868 14.071-11.27 2.01 5.087 2.224 9.747 1.401 14.925h-.213l.092.183c.03-.122.06-.214.09-.275z" fill="#FEFEFE"/><path d="M59.508 42.414c5.848-4.325 12.214-7.584 19.22-9.655 1.735 5.422 3.502 10.874 5.207 16.326.275.852.58 1.035 1.462.761 9.716-2.924 19.463-2.985 29.209-.213.884.244 1.219.152 1.493-.731 1.645-5.452 3.32-10.904 4.995-16.386 6.883 2.07 13.615 5.117 19.249 9.533-3.198 4.63-6.365 9.26-9.594 13.858-.609.884-.518 1.249.335 1.858 8.102 5.909 14.011 13.554 17.666 22.874.396 1.036.792 1.249 1.858.822 5.238-1.98 10.538-3.898 15.807-5.817 2.985 7.858 4.447 15.99 4.295 24.366-5.148 0-10.325.031-15.473.031-4.508-4.447-7.797-8.528-14.772-8.041-5.848-32.59-49.007-44.865-70.236-19.402h.03c-.334-.122-.395.03-.304.335l.03-.03c-.334-.092-.395.06-.304.335l.03-.03c-.304-.092-.395.121-.456.334-8.559 9.046-17.422 17.788-26.285 26.499-4.356 0-8.68-.031-13.036-.031 0-8.132 1.218-16.051 4.142-23.666a3414.197 3414.197 0 0 1 16.142 5.788c.67.243 1.036.365 1.371-.488 3.686-9.655 9.594-17.635 17.91-23.787.609-.457.609-.762.213-1.31-3.503-4.752-6.854-9.442-10.204-14.133z" fill="#FEFEFE"/><path d="M70.17 72.566c21.23-25.463 64.418-13.158 70.236 19.401-3.351.396-6.183 1.797-8.528 4.234-2.285 2.376-4.691 4.629-6.945 7.036-.853.883-1.279.822-2.101-.031-9.381-9.472-18.793-18.884-28.235-28.326-7.432-7.431-15.716-7.37-24.427-2.314zM59.508 42.413c3.35 4.69 6.67 9.411 10.051 14.072.427.578.397.883-.213 1.31-8.315 6.152-14.224 14.162-17.909 23.787-.335.853-.7.73-1.37.487-5.361-1.95-10.752-3.868-16.143-5.787C38.584 62.7 47.69 50.546 59.508 42.414zm61.587-9.928c-1.675 5.452-3.35 10.904-4.995 16.386-.274.883-.609.975-1.492.731-9.747-2.772-19.493-2.71-29.21.213-.882.274-1.187.092-1.461-.761a1685.19 1685.19 0 0 0-5.209-16.326c13.585-4.66 28.753-4.63 42.367-.243zm45.288 43.125c-5.269 1.918-10.539 3.837-15.808 5.817-1.066.396-1.431.213-1.858-.822-3.655-9.32-9.564-16.965-17.665-22.874-.853-.61-.945-.975-.335-1.858 3.228-4.6 6.396-9.229 9.594-13.858 12.153 7.888 21.168 20.04 26.072 33.595z" fill="#E00219"/><path d="M137.42 117.704c-2.65-2.65-5.33-5.27-8.01-7.889-.457-.426-.366-.701.03-1.097 2.711-2.68 5.33-5.421 8.102-8.04 2.406-2.254 6.152-2.01 8.62.487 6.122 6.122 12.122 12.396 18.427 18.336 2.284 2.132 2.558 3.868 1.309 6.578-1.919 4.143-3.837 8.255-6.244 12.123-.548.852-.852 1.157-1.705.274-2.376-2.559-4.874-4.995-7.31-7.493 1.188-.183 3.503.579 3.442-1.31-.031-4.568.06-9.106-.092-13.675-.091-3.168-2.68-5.726-5.756-6.092-3.351-.396-6.701 1.371-7.249 4.569-.457 2.376-1.554 3.076-3.564 3.229z" fill="#FEFEFE"/><path d="M137.42 117.708c2.041-.153 3.137-.853 3.563-3.229.579-3.198 3.899-4.965 7.249-4.569 3.077.366 5.666 2.924 5.757 6.092.152 4.538.061 9.107.091 13.676.061 1.888-2.223 1.127-3.441 1.309a387.638 387.638 0 0 1-13.219-13.279zm17.787-17.701c5.147 0 10.325-.03 15.473-.03.213 4.721-.427 9.35-1.219 13.706-4.69-4.478-9.472-9.077-14.254-13.676zm-125.364-.03c4.356 0 8.68.03 13.036.03-3.716 3.777-7.431 7.584-11.147 11.361-.457.487-.914.761-1.066-.244-.518-3.716-.945-7.401-.823-11.147zm40.053-27.105c-.092-.304-.03-.426.304-.335.061.275-.091.335-.304.335z" fill="#E00219"/><path d="M69.59 73.174c-.061-.274 0-.426.304-.335.03.244-.091.335-.304.335z" fill="#E00219"/><path d="M69.133 73.51c.091-.214.152-.427.457-.336-.03.244-.214.335-.457.335z" fill="#E00219"/><path d="M93.683 154.376c.853-5.178.61-9.838-1.401-14.925-.304 7.432-7.158 12.244-14.072 11.27-15.533-3.076-15.137-27.991-15.38-40.387 0-1.767 0-3.533-.031-5.33 0-.61.03-1.066.853-1.066 10.142.121 20.315-.122 30.244 2.375 4.112 1.036 7.98 2.681 11.178 5.513 8.224 6.914 4.082 20.833-6.518 21.777 4.539 1.919 9.656 2.437 14.437 1.158.092.122.153.244.244.365-6.335 5.909-12.305 12.153-18.457 18.245-.335.335-.58.852-1.127.913l.03.092z" fill="#242829"/><path d="M93.653 154.348c-.03.091-.092.152-.122.243a30.82 30.82 0 0 0-.092-.182h.214c.03-.031 0-.061 0-.061z" fill="#242829"/></svg>