<svg width="74" height="20" fill="none" xmlns="http://www.w3.org/2000/svg"><g clip-path="url(#clip0)"><path d="M12.685 1.93C5.673 1.93 0 5.246 0 9.363c0 1.744 1.026 3.345 2.765 4.631-.855-1.058-1.34-2.23-1.34-3.488 0-4.26 5.559-7.719 12.4-7.719 4.419 0 8.295 1.43 10.49 3.603-1.966-2.63-6.442-4.46-11.63-4.46z" fill="#fff"/><path d="M11.57 11.469c.515 0 .93-.109 1.245-.326.365-.24.547-.587.547-1.044 0-.845-.277-1.627-.83-2.346a5.169 5.169 0 0 0-2.133-1.626c-.604-.251-1.277-.377-2.019-.377-1.497 0-2.727.485-3.69 1.455-.962.97-1.443 2.14-1.443 3.51 0 1.382.503 2.543 1.51 3.485 1.006.941 2.264 1.412 3.774 1.412.805 0 1.579-.114 2.321-.342.88-.263 1.522-.645 1.925-1.147.227-.274.34-.548.34-.822 0-.72-.403-1.079-1.208-1.079-.176 0-.63.152-1.359.454-.73.303-1.352.454-1.868.454-.617 0-1.139-.143-1.567-.429-.428-.285-.673-.696-.736-1.232h5.19zM7.04 8.464c.365-.303.818-.454 1.359-.454.528 0 .978.154 1.35.462.37.309.575.702.612 1.182h-4.02c.101-.49.334-.888.699-1.19zm8.02 5.705c.932.947 2.165 1.42 3.7 1.42.918 0 1.685-.136 2.302-.41.855-.388 1.284-.862 1.284-1.421 0-.331-.11-.614-.33-.848-.221-.234-.507-.35-.86-.35-.239 0-.54.068-.905.205a3.358 3.358 0 0 1-1.19.205c-.729 0-1.295-.228-1.698-.685-.352-.41-.528-.959-.528-1.643 0-.651.17-1.193.51-1.627.377-.48.912-.72 1.604-.72.427 0 .833.072 1.217.215.384.143.695.214.934.214.365 0 .667-.114.906-.343.239-.228.358-.508.358-.839 0-.639-.415-1.118-1.245-1.438-.617-.228-1.34-.342-2.17-.342-1.586 0-2.857.46-3.813 1.378-.956.92-1.434 2.104-1.434 3.553 0 1.404.453 2.562 1.359 3.476zm8.796.012c.981.97 2.233 1.455 3.755 1.455 1.535 0 2.787-.479 3.756-1.438.93-.936 1.396-2.106 1.396-3.51 0-1.415-.471-2.596-1.415-3.544-.944-.948-2.19-1.421-3.736-1.421-1.523 0-2.765.476-3.728 1.43-.962.953-1.444 2.131-1.444 3.535 0 1.393.472 2.557 1.416 3.493zm2.208-5.102c.364-.491.88-.737 1.547-.737.654 0 1.164.251 1.529.754.327.434.49.958.49 1.575 0 .64-.157 1.17-.471 1.592-.365.502-.881.754-1.548.754-.654 0-1.164-.251-1.529-.754-.327-.434-.49-.964-.49-1.592 0-.628.157-1.159.472-1.592z" fill="#B0B0B0"/><path d="M37.047 5.487h1.359c1.434 0 2.15.542 2.15 1.626 0 1.108-.716 1.661-2.15 1.661h-1.36V5.487zm0 8.004V11.36h2.114c1.484 0 2.654-.371 3.51-1.113.855-.742 1.283-1.786 1.283-3.134 0-1.358-.472-2.414-1.415-3.167-.894-.72-2.102-1.079-3.624-1.079h-2.83c-.819 0-1.385.148-1.7.445-.314.296-.47.815-.47 1.556v8.618c0 1.345.521 2.018 1.566 2.018 1.043 0 1.566-.671 1.566-2.013zm10.72-4.354c.363-.468.857-.702 1.484-.702.638 0 1.133.234 1.483.702.3.41.451.919.451 1.524s-.15 1.119-.45 1.54c-.351.48-.846.72-1.484.72-.64 0-1.14-.24-1.503-.72-.313-.421-.47-.935-.47-1.54 0-.593.163-1.102.489-1.524zm5.003 6.37c1.007 0 1.51-.675 1.51-2.024V7.907c0-1.338-.503-2.007-1.51-2.007-.616 0-1.1.291-1.453.873-.617-.662-1.434-.993-2.453-.993-1.397 0-2.548.514-3.454 1.541-.856.96-1.283 2.083-1.283 3.373 0 1.279.408 2.392 1.226 3.34.893 1.027 2.026 1.54 3.397 1.54 1.082 0 1.938-.348 2.567-1.044.302.65.786.976 1.453.976zm8.588-8.513l-1.869 4.418-1.736-4.178c-.189-.468-.359-.782-.51-.942-.252-.262-.598-.394-1.038-.394-.428 0-.783.132-1.066.394a1.276 1.276 0 0 0-.425.976c0 .274.057.53.17.77l3.075 6.522-1.257 2.48c-.168.352-.252.664-.252.937 0 .409.139.732.416.971.276.238.641.357 1.094.357.541 0 .988-.37 1.34-1.113l4.662-10.016c.163-.354.245-.673.245-.959 0-.879-.503-1.318-1.51-1.318-.578 0-1.025.365-1.34 1.095zm10.348 5.802h-3.014l4.05-4.723c.414-.48.62-.886.62-1.217 0-.366-.157-.597-.472-.695-.314-.097-.799-.145-1.453-.145H66.55c-1.296 0-1.944.416-1.944 1.25 0 .845.642 1.267 1.925 1.267h2.624l-4.19 4.914c-.302.354-.453.708-.453 1.061 0 .571.535.856 1.604.856h5.568c1.283 0 1.925-.422 1.925-1.267 0-.867-.634-1.301-1.902-1.301z" fill="#fff"/></g></svg>