<svg width="200" height="200" fill="none" xmlns="http://www.w3.org/2000/svg"><path d="M200 0H0v200h200V0z" fill="#AF0000"/><path d="M168.771 99.603c-3.02 22.97-8.306 37.467-23.784 48.388 15.856-13.557 27.37-37.656 20.386-58.932-2.454 28.054-17.743 51.212-40.772 61.003-34.353 16.192-86.073-9.226-84.374-48.2-1.51-44.434 46.434-73.43 87.395-56.86 14.345 5.648 25.859 15.815 36.996 30.5.378.754 1.51 0 1.133-.564C141.967 19.96 49.287 20.148 29.09 79.08c-16.422 47.07 25.671 92.257 73.238 89.81 32.844.376 73.804-28.054 66.443-69.287zm-.944 13.932c-2.454 34.644-38.318 54.413-65.688 54.413-36.808 2.448-76.258-27.865-75.314-65.898-.755 37.845 38.506 67.969 75.314 65.71 26.993 0 63.423-19.958 65.688-54.225zm-2.265-11.297s0 .189 0 0c0 .189 0 0 0 0zm-30.013 51.401s-.188 0 0 0c-.188 0 0-.188 0 0 14.346-9.414 27.37-26.171 29.635-44.811-2.076 18.64-15.1 35.585-29.635 44.811zm29.824-47.823c0 .941-.189 1.694-.189 2.636.189-.942.189-1.695.189-2.636zm-127.034-3.578c0-66.463 84.941-83.973 122.315-32.572-37.563-51.212-121.938-33.514-122.315 32.572zm51.72-66.463c-14.723 2.072-26.993 6.214-37.563 13.933 12.08-9.225 29.257-14.31 45.868-14.497a61.55 61.55 0 0 0-8.305.565zm69.085 97.906c-7.173 11.862-16.988 17.699-23.217 20.335 6.984-3.766 15.856-8.473 23.217-20.335zm6.04-20.146c1.699-7.154 1.133-15.25 0-23.723 1.699 8.473 1.51 16.38 0 23.723zm-124.58 1.695c6.04 23.723 34.354 40.668 60.214 40.857 23.783 0 46.623-15.816 57.382-37.845-10.57 22.217-33.599 38.033-57.571 38.221-30.956-.376-63.423-23.911-61.535-55.166 0 4.707.566 9.414 1.51 13.933zM29.467 79.268c21.708-60.814 113.444-56.484 135.151-3.954C138.192 13.747 26.636 23.537 26.07 100.732c.189-6.778 1.321-13.933 3.397-21.464zm130.243 59.309c6.607-9.603 9.816-23.159 9.061-38.41 1.132 16.004-2.643 28.619-9.061 38.41z" fill="#F5E72E"/><path d="M104.216 71.552l-17.932 6.401C67.597 97.536 60.235 121.07 59.29 132.179c-.943 4.895 4.342 6.967 7.55 7.72 26.238 4.33 52.098-1.13 74.183-23.724 14.534-17.51 20.574-48.388-10.76-56.672-33.976-9.414-76.069 29.937-83.053 42.928 10.57-9.226 29.824-28.619 58.137-34.644 15.29-3.954 38.318 2.636 35.487 22.97-8.494 28.619-38.318 41.61-64.178 38.598-8.494 2.071 11.514-43.116 27.559-57.802z" fill="#F5E72E"/><path d="M122.901 37.1c27.369 6.777 46.623 37.467 52.097 57.425-11.326-53.66-70.596-80.208-118.351-50.836 16.799-9.226 44.546-14.12 66.254-6.59z" fill="#F5E72E"/></svg>