<svg width="200" height="200" viewBox="0 0 200 200" fill="none" xmlns="http://www.w3.org/2000/svg">
<g clip-path="url(#clip0)">
<path d="M100 200C44.8 200 0 155.2 0 100C0 44.8 44.8 0 100 0C155.2 0 200 44.8 200 100C200 155.2 155.2 200 100 200Z" fill="white"/>
<path d="M100 0C88.4 0 76.4 2.1 65.7 6L70.2 18.2C79.7 14.8 89.7 13 100 13V0ZM35.6 23.5C26.7 31 19.1 40.1 13.3 50.2L24.6 56.7C29.7 47.9 36.2 40 44 33.4L35.6 23.5ZM1.4 83C0.5 88.6 0 94.3 0 100C0 106 0.5 112 1.6 117.8L14.4 115.5C12.6 105.6 12.6 95.1 14.3 85.2L1.4 83ZM24.9 143.9L13.7 150.5C19.6 160.6 27.3 169.6 36.3 177L44.6 167C36.7 160.5 30 152.7 24.9 143.9ZM70.8 182L66.4 194.2C77.4 198.1 89.1 200.1 100.7 200L100.6 187C90.5 187.1 80.4 185.4 70.8 182ZM156.6 166.1C148.8 172.8 140.1 178 130.5 181.5L135.1 193.7C146.1 189.6 156.2 183.6 165.1 176L156.6 166.1ZM185.9 114.1C184.3 124.2 180.9 133.8 175.9 142.7L187.2 149.1C192.8 139.1 196.8 128 198.7 116.2L185.9 114.1ZM185.9 48.8L174.7 55.5C179.9 64.3 183.6 73.8 185.4 83.8L198.2 81.4C196.1 69.7 191.9 58.9 185.9 48.8ZM132.7 5.5L128.4 17.8C138 21.1 146.9 26.1 154.8 32.6L163 22.5C154.1 15.1 143.8 9.3 132.7 5.5Z" fill="#DE5A60"/>
<path d="M100 188C51.4483 188 12 148.552 12 100C12 51.4483 51.4483 12 100 12C148.552 12 188 51.4483 188 100C188 148.552 148.552 188 100 188Z" fill="url(#paint0_radial)"/>
<path d="M68.7292 74.236C65.5472 72.238 62.3652 71.202 59.0352 71.202C51.1912 71.202 45.4192 77.566 45.4192 86.298C45.4192 92.514 47.4912 96.288 53.2632 100.802L56.8152 103.54C59.3312 105.464 60.7372 107.906 60.7372 110.496C60.7372 113.752 58.8132 115.75 55.6312 115.75C52.8192 115.75 49.6372 114.566 45.5672 111.902L46.8252 123.742C51.7092 125.74 54.3732 126.406 57.4812 126.406C66.1392 126.406 72.2072 119.894 72.2072 110.496C72.2072 103.762 69.9132 100.062 62.0692 93.846L59.1832 91.626C57.4812 90.294 56.6672 88.74 56.6672 86.816C56.6672 84.078 58.4432 82.302 61.2552 82.302C63.1792 82.302 65.4732 83.264 68.7292 85.558V74.236ZM78.4966 125H89.8186V100.802L112.167 126.998V72.608H100.845V96.806L78.4966 70.758V125ZM151.324 75.198C147.328 72.312 144.072 71.202 140.076 71.202C127.866 71.202 118.986 82.82 118.986 98.878C118.986 114.122 128.088 126.406 139.41 126.406C144.294 126.406 148.142 124.63 154.21 119.598V96.14H137.634V105.982H143.11V114.418C141.556 115.454 140.742 115.75 139.41 115.75C134.23 115.75 130.826 109.016 130.826 98.952C130.826 88.74 134.748 82.376 140.964 82.376C143.998 82.376 146.736 83.782 149.622 86.89L151.324 75.198Z" fill="white"/>
</g>
<defs>
<radialGradient id="paint0_radial" cx="0" cy="0" r="1" gradientUnits="userSpaceOnUse" gradientTransform="translate(12 12) rotate(45) scale(248.902)">
<stop stop-color="#EF717A"/>
<stop offset="1" stop-color="#D95459"/>
</radialGradient>
<clipPath id="clip0">
<rect width="200" height="200" fill="white"/>
</clipPath>
</defs>
</svg>
