<svg width="200" height="200" fill="none" xmlns="http://www.w3.org/2000/svg"><path d="M200 0H0v200h200V0z" fill="url(#paint0_radial)"/><path d="M90.628 88.49c0-2.646.26-5.221.734-7.726h-19.03L60.744 95.583h18.414s.592.023 1.208.117c3.437.398 6.138 3.3 6.138 6.789 0 3.465-2.63 6.344-6.138 6.766H69.441c-11.826 0-21.424-9.154-21.424-20.836 0-1.545.166-3.043.498-4.518.237-1.03 1.161-4.378 3.01-7.234 3.744-5.782 10.404-9.528 17.869-9.528h12.323s0-.023.024-.023h8.768l11.613-15.124H68.707c-20.24-.023-36.71 16.294-36.71 36.357s16.47 36.38 36.733 36.38h24.884c4.242 0 7.678-3.324 7.678-7.515v-1.311c-6.635-7.304-10.664-16.926-10.664-27.414z" fill="#fff"/><path d="M156.411 67.073l11.588-15.1h-35.335c-12.228 0-23.059 5.946-29.742 15.1h53.489z" fill="#CD181F"/><path d="M157.602 80.793h-21.969l-11.588 14.819h19.077s.593.023 1.209.117c3.436.398 6.138 3.3 6.138 6.789 0 3.465-2.631 6.344-6.138 6.765h-10.925c-11.826 0-21.424-9.153-21.424-20.835 0-1.545.166-3.043.498-4.518.118-.586.474-1.873 1.066-3.395H96.838a35.676 35.676 0 0 0-.853 7.843c0 20.063 16.471 36.38 36.733 36.38h24.884c4.242 0 7.679-3.324 7.679-7.515V88.424c0-4.19-3.437-7.631-7.679-7.631zm-96.43 61.943l-7.062-8.241c-.261-.351-.64-.561-1.067-.561l-1.28.046c-.758 0-1.398.633-1.398 1.382v10.464h2.773v-9.13l7.394 8.568c.26.351.687.562 1.114.562h.971c.759 0 1.257-.632 1.257-1.381v-10.511h-2.678v8.802h-.024zm3.51-2.856c0 3.277 2.701 5.946 5.995 5.946h7.205v-2.739h-7.205a3.262 3.262 0 0 1-2.962-1.873h10.167v-2.739H67.739a3.317 3.317 0 0 1 2.938-1.802h7.205v-2.739h-7.205c-3.317 0-5.995 2.668-5.995 5.946zm55.619-6.345c-3.673 0-6.659 2.95-6.659 6.579 0 3.628 2.986 6.578 6.659 6.578 3.673 0 6.659-2.95 6.659-6.578 0-3.629-2.986-6.579-6.659-6.579zm0 10.792c-2.346 0-4.266-1.896-4.266-4.213 0-2.318 1.92-4.214 4.266-4.214s4.266 1.896 4.266 4.214c.023 2.317-1.896 4.213-4.266 4.213zm-8.104-10.393l-5.001 8.779-1.73-3.114 3.507-5.665h-3.128l-1.777 3.113-1.73-3.113H99.21l3.436 5.642-1.777 3.043-4.882-8.685h-3.034l6.73 11.143c.238.421.712.656 1.209.726.498 0 .948-.281 1.185-.703l1.967-3.183 1.943 3.16c.237.421.688.632 1.185.726.498 0 .948-.305 1.185-.726l6.968-11.143h-3.128zm-33.372 2.739h5.356v9.13h2.772v-9.13h5.285v-2.739H78.825v2.739zm62.611 1.588c0-2.365-1.92-4.355-4.29-4.355h-9.337v11.893h2.512v-9.481h6.849c1.019 0 1.872.936 1.872 2.013s-.877 2.013-1.896 2.013h-4.147a.946.946 0 0 0-.521.187.907.907 0 0 0-.379.75c0 .304.118.561.379.749l5.545 3.792h4.053l-4.764-3.207c2.37 0 4.124-1.967 4.124-4.354zm4.457-4.472h-2.536v12.033h2.536v-12.033zm10.876 11.963H153l-5.948-4.823c-.332-.234-.545-.679-.545-1.17 0 0-.024-.703.545-1.218l5.877-4.752h3.816l-6.754 5.502a.648.648 0 0 0-.19.468c0 .187.071.328.19.445l6.778 5.548z" fill="#fff"/><defs><radialGradient id="paint0_radial" cx="0" cy="0" r="1" gradientUnits="userSpaceOnUse" gradientTransform="rotate(45) scale(282.843)"><stop stop-color="#747474"/><stop offset="1"/></radialGradient></defs></svg>