<svg width="200" height="200" viewBox="0 0 200 200" fill="none" xmlns="http://www.w3.org/2000/svg">
<path d="M200 0H0V200H200V0Z" fill="black"/>
<path d="M27.0131 99C25.5939 8.33333 174.409 8.33333 172.99 99C174.409 189.667 25.3912 189.667 27.0131 99Z" fill="#FFB700"/>
<path d="M116.791 94.4726C123.343 94.4726 133.991 57 99.7953 57C66.8286 57 76.2476 94.4726 82.8 94.4726C79.1143 94.4726 57 94.8777 57 115.538C57 136.401 81.1619 137.414 81.1619 137.414C81.1619 137.414 94.2667 137.212 94.881 150.58C95.2905 160.303 89.3524 164.759 85.2572 166.785C89.9667 167.595 94.881 168 100 168C105.119 168 110.033 167.595 114.743 166.785C110.648 164.759 104.71 160.303 105.119 150.58C105.733 137.414 118.838 137.414 118.838 137.414C118.838 137.414 143 136.401 143 115.538C142.59 95.0803 120.271 94.4726 116.791 94.4726Z" fill="black"/>
</svg>
