<svg fill="none" height="200" viewBox="0 0 200 200" width="200" xmlns="http://www.w3.org/2000/svg" xmlns:xlink="http://www.w3.org/1999/xlink"><linearGradient id="a"><stop offset="0" stop-color="#a00000"/><stop offset="1" stop-color="#df0000"/></linearGradient><linearGradient id="b" gradientUnits="userSpaceOnUse" x1="71.0675" x2="71.0675" xlink:href="#a" y1="57" y2="81.3899"/><linearGradient id="c" gradientUnits="userSpaceOnUse" x1="129.036" x2="129.036" xlink:href="#a" y1="57" y2="81.4026"/><linearGradient id="d" gradientUnits="userSpaceOnUse" x1="44.4158" x2="44.4158" xlink:href="#a" y1="60.6914" y2="83.9724"/><linearGradient id="e" gradientUnits="userSpaceOnUse" x1="155.622" x2="155.622" xlink:href="#a" y1="60.6914" y2="83.9724"/><linearGradient id="f" gradientUnits="userSpaceOnUse" x1="100.065" x2="100.065" xlink:href="#a" y1="57.8164" y2="83.7572"/><linearGradient id="g"><stop offset="0" stop-color="#df0000"/><stop offset="1" stop-color="#a00000"/></linearGradient><linearGradient id="h" gradientUnits="userSpaceOnUse" x1="139.639" x2="139.639" xlink:href="#g" y1="89.8125" y2="158.797"/><linearGradient id="i" gradientUnits="userSpaceOnUse" x1="60.4428" x2="60.4428" xlink:href="#g" y1="89.8125" y2="158.796"/><linearGradient id="j" gradientUnits="userSpaceOnUse" x1="100.032" x2="100.032" xlink:href="#g" y1="89.7461" y2="160.391"/><path d="m200 0h-200v200h200z" fill="#000"/><path d="m65.5139 80.3352c.8546 1.2517 2.6402 1.4178 3.7115.3449l22.333-22.3007c.5102-.5109.153-1.3794-.574-1.3794h-39.8702c-.625 0-.9948.6897-.6377 1.2006z" fill="url(#b)"/><path d="m130.893 80.6929c1.071 1.0728 2.844.9068 3.699-.3449l14.986-22.1474c.345-.5109-.025-1.2006-.638-1.2006h-39.768c-.714 0-1.084.8685-.574 1.3794z" fill="url(#c)"/><path d="m29.7635 83.9724h29.3096c.8163 0 1.301-.9196.8291-1.5966l-14.7569-21.1639c-.4846-.7025-1.5305-.6897-2.0024.0128l-14.2212 21.1767c-.4591.6769.0255 1.571.8418 1.571z" fill="url(#d)"/><path d="m141.007 83.9724h29.233c.803 0 1.288-.9068.841-1.571l-14.182-21.1767c-.472-.7025-1.505-.7153-2.003-.0128l-14.718 21.1767c-.472.6642.012 1.5838.829 1.5838z" fill="url(#e)"/><path d="m74.9521 83.7572h50.2269c.472 0 .701-.5748.37-.9068l-25.458-25.034-25.5088 25.034c-.3316.332-.102.9068.3699.9068z" fill="url(#f)"/><path d="m170.813 89.8125h-33.136c-1.186 0-2.257.728-2.704 1.8265l-27.09 67.106c.306 2.223 62.879-68.2811 63.364-67.949.331-.3832.076-.9835-.434-.9835z" fill="url(#h)"/><path d="m65.1309 91.639c-.4464-1.0985-1.5178-1.8265-2.7167-1.8265h-33.2252c-.5102 0-.778.6003-.4336.9707.5101-.3065 63.2235 70.1718 63.5296 67.9618.0128-.012-27.1541-67.106-27.1541-67.106z" fill="url(#i)"/><path d="m126.033 89.7463h-52.8665c-.7398-.0128-1.2627.7408-.9821 1.4177l27.9066 69.227 27.83-69.227c.281-.6769-1.148-1.4177-1.888-1.4177z" fill="url(#j)"/></svg>