<svg width="20" height="20" fill="none" xmlns="http://www.w3.org/2000/svg"><g clip-path="url(#clip0)" fill="#008BE2"><path opacity=".7" d="M19.406.555c-1.287-1.287-6-.26-9.48 2.295-.666-.542-1.752-.963-3.476-.619-1.883.377-2.768 2.408-3.192 4.275-.4 1.763-.405 3.42-.405 3.49 0 .347.3.62.65.583.01 0 .917-.097 1.812.054a19.42 19.42 0 0 0-.263 2.396c-.632.21-2.18.578-4.35.144a.585.585 0 0 0-.702.575c0 1.237.405 2.322 1.112 2.978a41.46 41.46 0 0 1 2.162 2.162C3.93 19.595 5.015 20 6.252 20c.37 0 .648-.339.575-.7-.434-2.172-.065-3.72.144-4.35.45-.023.972-.063 1.537-.134a8.55 8.55 0 0 0 .998 2.676.586.586 0 0 0 .637.264c.135-.032 3.31-.816 4.274-3.137.3-.722.476-1.473.515-2.19 4.01-3.15 6.196-10.152 4.474-11.874zM4.047 9.377C4.16 7.39 4.73 3.77 6.68 3.38c.948-.19 1.728-.109 2.293.232-.235.205-.468.422-.698.652-1.41 1.41-2.246 3.292-2.72 5.22a8.133 8.133 0 0 0-1.508-.108v.001zm1.504 9.394c-.602-.102-1.1-.338-1.418-.68a42.645 42.645 0 0 0-2.224-2.224c-.342-.318-.578-.816-.68-1.418 1.705.228 3.017.018 3.807-.193.005.185.005.36.177.531.176.177.364.172.53.177-.21.79-.42 2.103-.192 3.807zm7.784-4.602c-.556 1.338-2.24 2.05-3.038 2.318-.2-.41-.494-1.095-.63-1.854 1.364-.26 2.738-.694 3.96-1.356a5.935 5.935 0 0 1-.292.892zm.676-2.513c-2.102 1.516-5.206 2.127-7.807 2.14.016-2.96.788-6.59 2.9-8.702.8-.79 1.693-1.478 2.661-2.05.633 2.195 2.985 4.544 5.198 5.19-.983 1.64-2.123 2.823-2.952 3.422zm4.794-8.662c-.09 1.08-.482 2.59-1.265 4.18-1.94-.402-4.305-2.76-4.711-4.708 1.356-.667 3.21-1.295 4.706-1.295.652 0 .961.132 1.042.213.154.154.306.668.228 1.61z"/><path opacity=".7" d="M16.518 3.004a.587.587 0 0 0-1.159.107.586.586 0 1 0 1.16-.107z"/></g><defs><clipPath id="clip0"><path fill="#fff" d="M0 0h20v20H0z"/></clipPath></defs></svg>