<svg width="200" height="200" fill="none" xmlns="http://www.w3.org/2000/svg"><path d="M200 0H0v200h200V0z" fill="#898989"/><path d="M114.269 127.472c-1.005 4.691-4.02 8.711-9.716 8.711H47.597c-4.69 0-7.706-3.685-6.7-8.711l18.761-85.769c1.005-5.025 3.686-8.71 9.716-8.71h56.286c4.691 0 8.376 3.35 7.036 8.71l-18.427 85.769z" fill="#100F0D"/><path d="M140.07 158.285c-1.005 4.69-4.021 8.71-9.716 8.71H73.398c-4.69 0-7.706-3.685-6.7-8.71l18.426-85.77c1.005-5.025 3.686-8.71 9.716-8.71h56.286c4.691 0 8.376 3.35 7.036 8.71l-18.092 85.77z" fill="url(#paint0_linear)"/><defs><linearGradient id="paint0_linear" x1="112.686" y1="63.903" x2="112.686" y2="167.001" gradientUnits="userSpaceOnUse"><stop stop-color="#F5D806"/><stop offset="1" stop-color="#F4AC0D"/></linearGradient></defs></svg>