<svg width="20" height="20" fill="none" xmlns="http://www.w3.org/2000/svg"><path d="M14.729 9.994l5.1-5.106a.586.586 0 0 0-.002-.83L15.921.171a.586.586 0 0 0-.828.001L10 5.265 5.735 1a.585.585 0 0 0-.313-.163L.687.01a.586.586 0 0 0-.678.678l.829 4.734c.02.119.078.228.163.314l4.267 4.262-5.096 5.096a.586.586 0 0 0 0 .829l3.905 3.906a.586.586 0 0 0 .829 0l5.096-5.103 5.11 5.103c.11.11.259.172.414.172h.001a.586.586 0 0 0 .414-.173l3.887-3.907a.586.586 0 0 0 0-.827l-5.1-5.1zM12.03 4.892l1.243 1.243a.584.584 0 0 0 .829 0 .586.586 0 0 0 0-.828l-1.243-1.243 1.124-1.125 1.243 1.243a.584.584 0 0 0 .829 0 .586.586 0 0 0 0-.828L14.812 2.11l.696-.697 3.077 3.06L13.9 9.166l-3.071-3.071 1.201-1.202zM4.11 1.797L1.797 4.11l-.491-2.802 2.802.49zm.382 16.787l-3.077-3.076.696-.696 1.243 1.243a.584.584 0 0 0 .828 0 .586.586 0 0 0 0-.829L2.94 13.983l1.125-1.124 1.243 1.243a.584.584 0 0 0 .828 0 .586.586 0 0 0 0-.829L4.892 12.03l1.205-1.205 3.076 3.072-4.681 4.687zm11.033 0L2.244 5.32l1.124-1.124 13.27 13.27-1.113 1.118zm1.939-1.949L4.196 3.368l1.125-1.125 13.265 13.265-1.122 1.127z" fill="#999"/></svg>