<svg width="200" height="200" fill="none" xmlns="http://www.w3.org/2000/svg"><path d="M200 0H0v200h200V0z" fill="url(#paint0_radial)"/><path d="M150.379 47.702a5.199 5.199 0 0 0-5.221 5.22c0 1.354.58 2.514 1.353 3.481-8.701 6.961-18.176 11.602-29.005 13.342-11.988-12.375-15.856-22.623-17.209-29.198 1.933-.773 3.287-2.514 3.287-4.834 0-2.9-2.32-5.22-5.22-5.22a5.2 5.2 0 0 0-5.222 5.22c0 2.127 1.354 4.06 3.288 4.834-1.16 5.995-4.641 15.47-14.89 26.491-.773.774-1.547 1.74-2.32 2.514-10.829-1.74-20.303-6.381-29.005-13.342.774-.967 1.354-2.127 1.354-3.48a5.2 5.2 0 0 0-5.221-5.222c-2.32.194-4.641 2.514-4.641 5.415a5.2 5.2 0 0 0 5.22 5.22c.581 0 .968-.193 1.548-.193 4.834 10.442 8.121 21.85 9.668 34.612 9.475-6.38 23.397-11.215 40.607-11.215 17.209 0 31.132 4.835 40.607 11.216 1.547-12.763 4.834-24.171 9.668-34.613.58.194.967.194 1.547.194a5.2 5.2 0 0 0 5.221-5.221c-.194-2.9-2.514-5.221-5.414-5.221z" fill="#E5E5E5"/><path d="M57.176 100.598c-3.48 7.155-2.9 12.762-2.9 12.762 0 12.182 9.862 22.237 22.237 22.237 11.795 0 21.464-9.281 22.044-20.883-.774 17.209-11.409 31.712-26.491 38.286h52.982c-14.889-6.574-25.525-21.077-26.491-38.286.58 11.602 10.248 20.883 22.043 20.883 12.182 0 22.237-9.861 22.237-22.237 0 0 .387-5.607-2.9-12.762-10.055-7.154-24.171-12.375-41.38-12.375-17.21 0-31.326 5.22-41.38 12.375z" fill="#E5E5E5"/><defs><radialGradient id="paint0_radial" cx="0" cy="0" r="1" gradientUnits="userSpaceOnUse" gradientTransform="rotate(45) scale(282.843)"><stop stop-color="#6D738B"/><stop offset="1" stop-color="#2B2E3B"/></radialGradient></defs></svg>