<svg width="20" height="20" fill="none" xmlns="http://www.w3.org/2000/svg"><g opacity=".7"><path d="M16.667 13.477c-.92 0-1.667-.747-1.667-1.666 0-.92.748-1.667 1.667-1.667s1.666.747 1.666 1.667c0 .919-.747 1.666-1.666 1.666zm0-2.083a.417.417 0 1 0 0 .834.417.417 0 0 0 0-.834zm2.708 6.25a.625.625 0 0 1-.625-.625v-.417c0-.574-.468-1.041-1.042-1.041h-2.083a.625.625 0 0 1 0-1.25h2.083A2.294 2.294 0 0 1 20 16.602v.417c0 .345-.28.625-.625.625zm-16.04-4.167c-.92 0-1.667-.747-1.667-1.666 0-.92.747-1.667 1.667-1.667.919 0 1.666.747 1.666 1.667 0 .919-.747 1.666-1.666 1.666zm0-2.083a.417.417 0 1 0 0 .834.417.417 0 0 0 0-.834zm-2.71 6.25A.625.625 0 0 1 0 17.019v-.417a2.294 2.294 0 0 1 2.292-2.291h2.083a.625.625 0 0 1 0 1.25H2.292c-.574 0-1.042.467-1.042 1.041v.417c0 .345-.28.625-.625.625zM10 13.894a2.503 2.503 0 0 1-2.5-2.5c0-1.378 1.122-2.5 2.5-2.5s2.5 1.122 2.5 2.5-1.122 2.5-2.5 2.5zm0-3.75c-.69 0-1.25.56-1.25 1.25s.56 1.25 1.25 1.25 1.25-.56 1.25-1.25-.56-1.25-1.25-1.25zm3.96 9.167a.625.625 0 0 1-.625-.625v-1.25c0-.575-.468-1.042-1.042-1.042H7.71c-.575 0-1.042.467-1.042 1.042v1.25a.625.625 0 0 1-1.25 0v-1.25a2.294 2.294 0 0 1 2.292-2.292h4.583a2.294 2.294 0 0 1 2.292 2.292v1.25c0 .345-.28.625-.625.625zM12.888 7.644H7.11a.625.625 0 0 1-.615-.51l-.652-3.472a.624.624 0 0 1 .868-.686l1.4.621L9.46 1.288c.225-.384.855-.384 1.08 0l1.348 2.31 1.4-.622a.625.625 0 0 1 .868.686l-.652 3.473a.628.628 0 0 1-.616.509zm-5.26-1.25h4.742l.336-1.793-.824.365a.627.627 0 0 1-.793-.256l-1.09-1.868-1.091 1.869a.627.627 0 0 1-.793.256l-.825-.366.338 1.793z"/></g></svg>