<svg height="20" width="20" xmlns="http://www.w3.org/2000/svg"><path d="m2.71 9.893a.586.586 0 0 0 1.028-.102 2.581 2.581 0 0 1 2.38-1.596 3.744 3.744 0 0 0 2.95-1.444l.266.396-1.7 2.536a.586.586 0 0 0 .972.653l1.433-2.137 1.433 2.137a.586.586 0 1 0 .973-.653l-1.7-2.536.186-.278a3.744 3.744 0 0 0 2.951 1.443 2.578 2.578 0 0 1 2.38 1.596.586.586 0 0 0 1.028.102l2.61-3.893c.11-.163.13-.37.056-.55a3.745 3.745 0 0 0 -3.46-2.32 2.577 2.577 0 0 1 -2.38-1.596.586.586 0 0 0 -1.028-.102l-3.049 4.546-3.126-4.663a.586.586 0 0 0 -1.029.102 2.577 2.577 0 0 1 -2.38 1.596 3.745 3.745 0 0 0 -3.46 2.32.586.586 0 0 0 .056.55zm10.874-2.771.6-.895c.321.09.658.138 1.003.138.102 0 .203.007.302.019l-.6.895a3.77 3.77 0 0 0 -1.004-.139c-.102 0-.202-.006-.301-.018zm3.252 1.462a3.74 3.74 0 0 0 -.869-.809l.653-.973c.333.224.614.526.816.887zm1.905-2.842-.6.896a3.74 3.74 0 0 0 -.868-.81l.652-.972c.333.223.615.525.816.886zm-1.947-1.305-.6.895a3.77 3.77 0 0 0 -1.004-.138c-.101 0-.202-.007-.301-.019l.6-.895c.321.09.658.138 1.003.139.102 0 .203.007.302.018zm-3.252-1.462c.246.317.54.589.868.81l-.652.972a2.574 2.574 0 0 1 -.816-.887zm-1.305 1.947c.246.316.54.589.868.809l-.652.973a2.575 2.575 0 0 1 -.816-.887zm-9.073 3.545-.6-.895c.202-.362.483-.663.816-.887l.653.973c-.329.22-.623.492-.869.809zm2.95-1.444a3.77 3.77 0 0 0 -1.003.139l-.6-.895c.1-.012.2-.018.302-.019.345 0 .682-.049 1.003-.138l.6.894c-.099.012-.2.019-.301.02zm1.433-.437-.652-.972a3.74 3.74 0 0 0 .868-.81l.6.896a2.574 2.574 0 0 1 -.816.886zm-1.089-3.728.6.895a2.575 2.575 0 0 1 -.816.887l-.652-.973a3.74 3.74 0 0 0 .868-.809zm-2.95 1.444a3.77 3.77 0 0 0 1.003-.139l.6.895c-.099.012-.2.018-.301.018-.346.001-.683.05-1.004.14l-.6-.896c.1-.012.2-.018.301-.018zm-1.433.436.652.973a3.74 3.74 0 0 0 -.868.81l-.6-.896c.201-.361.483-.663.816-.887zm17.34 10.575h-5.313v-2.93a.586.586 0 0 0 -.586-.586h-7.032a.586.586 0 0 0 -.586.586v1.758h-5.312a.586.586 0 0 0 -.586.586v3.515c0 .324.262.586.586.586h18.828a.586.586 0 0 0 .586-.586v-2.344a.586.586 0 0 0 -.586-.585zm-18.243 0h4.726v2.343h-4.726zm5.898-2.344h5.86v4.687h-5.86v-4.686zm11.758 4.687h-4.726v-1.172h4.726z"/><path d="m10 14.14a.586.586 0 0 0 -.586.587v1.171a.586.586 0 0 0 1.172 0v-1.171a.586.586 0 0 0 -.586-.587z"/></svg>