<svg viewBox="0 0 200 200" xmlns="http://www.w3.org/2000/svg"><path d="M0 0h200v200H0z"/><path d="M93.16 165.74c-12.06-6.24-24.37-12.57-37.67-19.45 9.49-3.93 22.14-3.69 26.5-11.71-1.86.36-3.71.83-5.59 1.05-22.44 4.81-41.5-11.95-44.89-31.62-.67-3.89.88-8.51 2.49-12.34 1.43-3.4 4.09-6.44 6.7-9.17 5.57-5.85 6.76-6.74 8.65 1.53 1.47 6.43 6.48 12.21 11.38 16.6 17.1 15.36 37.87 25.27 59.47 32.99 4.18 1.5 8.69 2.27 13.12 2.86 4.35.58 8.17-.87 10.95-4.57 2.54-3.39.34-9.39-6.76-13.33-6.15-3.41-39.19-16.63-52.09-22.57-34.13-20.15-24.14-36.7-15.6-42.87 10.01-7.23 21.09-12.56 33-15.81 7.29-1.99 14.82-4.25 22.25-4.29 19.63-.1 30.19 8.47 37.99 25.97 6.98 15.65 5.87 31.14 4.86 31.53-.97.37-2.55-1.39-3.11-2.19-12.1-17.25-28.85-28.04-48.38-34.98-7.27-2.23-17.72-.07-21.37 4.8-3.81 5.09-4.15 10.16 1.34 13.43 7.49 4.46 15.94 7.3 23.87 10.96 9.62 4.44 19.81 7.73 29.06 12.88 13.81 7.7 17.86 19.68 17.76 27.21-.12 9.21-3.84 18.23-7.54 26.57-5.54 12.49-16.77 18.51-30.4 17.69-16.2-.98-27.45-8.97-35.67-22.45-.6-.98-1.75-3.79-2.61-4.61-2.99.64-1.28 17.09 2.29 25.89z" fill="#fcdb52"/></svg>