<svg width="20" height="20" viewBox="0 0 20 20" xmlns="http://www.w3.org/2000/svg">
<path d="M1.84113 4.9375H4.97914C5.99434 4.9375 6.82027 4.11156 6.82027 3.09637C6.82027 2.22187 6.2075 1.48785 5.38875 1.30113C5.05348 0.526836 4.27992 0 3.41016 0C2.54039 0 1.76684 0.526836 1.43152 1.30113C0.612773 1.48781 0 2.22184 0 3.09637C0 4.11156 0.825937 4.9375 1.84113 4.9375V4.9375ZM1.84082 2.42707C2.22812 2.43691 2.40746 2.15168 2.44672 1.95836C2.53926 1.50266 2.94445 1.17188 3.41016 1.17188C3.87586 1.17188 4.28105 1.50266 4.37359 1.95836C4.41242 2.14969 4.59367 2.43703 4.97918 2.42707C5.3482 2.42707 5.64844 2.7273 5.64844 3.09633C5.64844 3.46535 5.3482 3.76563 4.97918 3.76563H1.84113C1.47211 3.76563 1.17188 3.46539 1.17188 3.09637C1.17188 2.72734 1.47211 2.42707 1.84082 2.42707Z" />
<path d="M15.0208 6.82031H18.1588C19.174 6.82031 20 5.99437 20 4.97918C20 4.10477 19.3871 3.37074 18.5685 3.18395C18.2332 2.40965 17.4596 1.88281 16.5898 1.88281C15.72 1.88281 14.9465 2.40965 14.6112 3.18395C13.7924 3.37063 13.1797 4.10465 13.1797 4.97918C13.1796 5.99437 14.0056 6.82031 15.0208 6.82031V6.82031ZM15.0207 4.30988C15.4077 4.31961 15.5872 4.03402 15.6264 3.84113C15.7189 3.38543 16.1241 3.05469 16.5898 3.05469C17.0555 3.05469 17.4607 3.38543 17.5532 3.84113C17.592 4.03246 17.7717 4.31977 18.1588 4.30988C18.5278 4.30988 18.8281 4.61012 18.8281 4.97914C18.8281 5.34816 18.5278 5.6484 18.1588 5.6484H15.0208C14.6518 5.6484 14.3515 5.34816 14.3515 4.97914C14.3515 4.61012 14.6518 4.30988 15.0207 4.30988Z" />
<path d="M19.4141 18.8281H16.862V18.1589C16.862 18.0569 16.8354 17.9567 16.7848 17.8682L14.7753 14.3516H15.0208C15.3444 14.3516 15.6068 14.0892 15.6068 13.7656V11.2552C15.6068 10.9316 15.3444 10.6693 15.0208 10.6693H13.0186L12.4629 6.7791C12.4216 6.49043 12.1744 6.27602 11.8828 6.27602H11.7724L11.2868 2.39094C11.2318 1.95156 10.9594 1.58574 10.5859 1.39582V0.585938C10.5859 0.262344 10.3236 0 9.99996 0C9.67637 0 9.41402 0.262344 9.41402 0.585938V1.3957C9.04066 1.58559 8.76809 1.95152 8.71316 2.39102L8.2275 6.27602H8.11719C7.82559 6.27602 7.5784 6.49043 7.53715 6.7791L6.98141 10.6693H4.97918C4.65559 10.6693 4.39324 10.9316 4.39324 11.2552V13.7656C4.39324 14.0892 4.65559 14.3516 4.97918 14.3516H5.22473L3.21523 17.8682C3.16465 17.9567 3.13801 18.0569 3.13801 18.1589V18.8281H0.585938C0.262344 18.8281 0 19.0905 0 19.4141C0 19.7377 0.262344 20 0.585938 20H19.4141C19.7377 20 20 19.7377 20 19.4141C20 19.0905 19.7377 18.8281 19.4141 18.8281V18.8281ZM9.87602 2.53641C9.88379 2.4741 9.93691 2.42711 10.0004 2.42711C10.0631 2.42711 10.1162 2.47414 10.124 2.53641L10.5915 6.27605H9.40855L9.87602 2.53641ZM8.62535 7.44793H11.3746L11.8348 10.6693H8.16516L8.62535 7.44793ZM5.56512 11.8411H14.4349V13.1797H5.56512V11.8411ZM11.9245 18.8281H8.07555V18.7864C8.07555 17.7253 8.93887 16.862 10 16.862C11.0612 16.862 11.9245 17.7253 11.9245 18.7864V18.8281H11.9245ZM15.6901 18.8281H13.0964V18.7864C13.0964 17.0791 11.7073 15.6901 10 15.6901C8.29266 15.6901 6.90363 17.0791 6.90363 18.7864V18.8281H4.30988V18.3145L6.57441 14.3516H13.4256L15.6901 18.3145V18.8281Z" />
</svg>
