<svg width="200" height="200" viewBox="0 0 200 200" fill="none" xmlns="http://www.w3.org/2000/svg">
<path d="M100 200C44.8 200 0 155.2 0 100C0 44.8 44.8 0 100 0C155.2 0 200 44.8 200 100C200 155.2 155.2 200 100 200Z" fill="#BBBBBB"/>
<path d="M49.8613 97H61.3363V80.275C71.5363 79.9 77.7613 72.925 77.7613 61.975C77.7613 50.35 71.0113 43.9 58.7863 43.9H49.8613V97ZM61.3363 54.4C64.8613 54.625 66.5863 57.175 66.5863 62.05C66.5863 66.925 64.8613 69.4 61.3363 69.7V54.4ZM83.2598 97H108.46V86.5H94.7348V43.9H83.2598V97ZM131.596 42.475C120.046 42.475 110.746 54.85 110.746 70.075C110.746 86.125 119.821 98.425 131.596 98.425C143.146 98.425 152.371 86.05 152.371 70.45C152.371 54.85 143.221 42.475 131.596 42.475ZM131.521 53.725C136.846 53.725 140.371 60.55 140.371 70.675C140.371 80.8 136.846 87.625 131.596 87.625C126.271 87.625 122.746 80.875 122.746 70.45C122.746 60.55 126.346 53.725 131.521 53.725ZM101.409 113.9C99.4589 116.375 96.2339 121.1 93.0839 125.975C86.7089 136.1 84.8339 141.125 84.8339 148.325C84.8339 159.8 91.3589 168.425 99.9839 168.425C108.609 168.425 115.209 160.175 115.209 149.3C115.209 139.4 109.134 131.45 101.634 131.45C101.334 131.45 100.959 131.45 100.434 131.525C103.659 125.6 108.309 118.775 112.434 113.9H101.409ZM99.9839 140.825C102.684 140.825 104.184 143.9 104.184 149.45C104.184 155 102.684 158.15 100.059 158.15C97.3589 158.15 95.8589 155.075 95.8589 149.3C95.8589 143.9 97.3589 140.825 99.9839 140.825Z" fill="#FFFFFF"/>
</svg>
