<svg width="200" height="200" fill="none" xmlns="http://www.w3.org/2000/svg"><path d="M200 0H0v200h200V0z" fill="#B3B3B3"/><path d="M126.283 109.777c-.978.922-1.726 1.729-2.59 2.42-7.683 6.973-24.228 5.849-25.61-5.964-.575-6.742 1.64-11.207 7.281-13.253 5.323-1.786 11.107-2.391 16.66-3.198 2.475-.461 3.425-1.47 3.626-3.573.23-2.132-.719-3.774-2.849-4.638-3.654-1.47-8.575-1.412-12.431 2.449-2.158 2.391-4.863 4.437-7.913 2.362-4.143-2.91-.863-8.787 2.705-10.804 7.338-4.754 18.416-4.696 26.157-.98 3.712 1.988 5.582 5.1 5.582 9.306.029 6.598-.057 13.196.029 19.794.029 2.045.202 4.149.777 6.079 1.496 4.898-2.273 7.462-6.618 6.569-3.252-.634-4.403-3.313-4.806-6.569zm-.604-13.714c-4.662 1.123-9.237 1.873-13.755 3.37-2.071.75-2.791 2.594-2.647 4.783.201 4.063 4.69 4.553 7.856 4.437 4.489-.23 8.258-3.831 8.517-8.009.115-1.585.029-3.14.029-4.581zm-92.54-27.85c-4 0-7.885.029-11.74-.029-3.626.058-7.338-1.901-6.935-5.935.172-2.449 1.812-4.322 4.316-4.87 12.863-.777 25.869-.085 38.79-.287 3.884 0 7.423 1.757 6.934 6.338-.317 3.63-3.971 4.898-7.338 4.783-3.712.029-7.452 0-11.337 0v41.834c0 4.783-3.799 7.52-8.374 6.137-2.733-.836-4.259-3.169-4.259-6.54-.057-13.859-.057-27.515-.057-41.431zm120.078 10.968c1.496-1.412 2.791-2.824 4.259-4.005 8.546-6.886 23.711-2.334 23.682 9.565.23 8.846.172 17.691.144 26.536 0 1.988-.576 3.889-2.648 4.696-2.273.893-4.661.979-6.704-.49-1.813-1.296-1.899-3.457-1.899-5.474-.058-7.03 0-14.06-.029-21.09-.317-11.092-15.769-8.5-15.769 1.729-.086 6.655-.029 13.282-.029 19.937 0 5.042-4.115 7.578-8.69 5.33-1.698-.835-2.244-2.391-2.503-4.091a1790.624 1790.624 0 0 1 0-35.15c.287-2.967 2.244-4.725 5.122-4.696 4.287.087 4.978 3.4 5.064 7.203zm-67.653-6.083c3.367.03 8.46-.806 8.518 3.717.115 4.754-5.208 3.688-8.518 4.12-.172 7.635-.028 15.27-.057 22.876 0 2.651.777 3.4 3.424 3.429 2.36-.144 4.489.374 5.007 2.535.633 2.075-.058 4.293-1.813 5.302-.978.547-2.13 1.094-3.194 1.094-2.734.058-5.582.144-8.23-.403-4.172-.893-6.416-4.351-6.445-9.162-.058-8.586 0-17.114 0-25.7-2.015-.23-4.173.26-5.583-1.44-.547-.663-.805-1.758-.805-2.65-.058-2.767.92-3.343 6.388-3.89.259-5.36-1.813-13.686 6.417-13.052 2.848.23 4.719 2.276 4.805 5.273.086 2.737-.086 5.214.086 7.951z" fill="#000"/><path d="M52.273 85.832c0-2.016-.028-4.004 0-6.021.03-4.639 3.252-6.252 7.223-5.705 3.367.461 4.834 2.305 4.95 5.734.517 11.15-1.353 22.156-2.85 33.161-.316 1.931-1.294 2.507-3.539 2.421-1.87-.087-2.82-.836-3.021-2.565-.863-8.989-2.849-17.949-2.676-27.025h-.087zm5.9 48.199c-7.972-.173-8.375-12.879.258-13.254 8.46.605 8.287 13.167-.259 13.254zm42.686 10.952v8.397c-.026 1.438.301 1.281-1.41 1.255-.144 0-.327-.248-.432-.405-.039-8.345 0-16.716 0-25.073 0-.262.105-.72.196-.733a6.63 6.63 0 0 1 1.529.04c.065.013.117.34.117.523.013.811 0 1.635 0 2.616 2.874-4.8 10.059-4.957 13.089-.197 2.129 3.571 2.273 8.123.836 11.968-1.62 4.015-4.937 5.297-8.817 4.826-2.064-.248-3.736-1.203-4.86-3.008-.026-.039-.091-.065-.248-.209zm-.143-6.88c.561 3.989 1.071 8.018 5.878 8.41 7.302.798 8.896-9.025 5.8-13.982-1.32-2.38-3.54-3.126-6.166-2.759-4.415.562-4.898 4.787-5.512 8.331zm54.458.456c.105 2.498.705 4.721 2.443 6.487 2.416 2.433 7.877 2.08 9.666-2.093a8.21 8.21 0 0 0 .497-1.543c.078-.445.3-.549.705-.562 1.306-.027 1.306-.027 1.032 1.242-2.208 9.129-14.67 7.743-15.897-.745-1.098-5.01.587-11.994 6.257-13.25 4.65-.954 8.556 1.557 9.614 6.226.261 1.151.287 2.354.392 3.545.052.523-.209.719-.784.719-4.663-.039-9.288-.013-13.925-.026zm12.71-1.779c-.352-9.025-11.364-9.927-12.71 0h12.71zm-24.884.419c-1.254 1.112-2.442 2.158-3.605 3.231-.144.131-.17.431-.17.641a313.367 313.367 0 0 0 0 6.055c.013.55-.144.772-.731.759-1.163-.026-1.163 0-1.163-1.164 0-8.253 0-16.506.013-24.759 0-.314.092-.863.235-.903.471-.104.98-.052 1.476.014.079.013.157.405.157.627.013 5.533 0 10.778.013 16.376a712.228 712.228 0 0 0 10.385-9.365c.549-.497 1.124-.34 1.711-.353.327-.013.64.104.967.17-.196.261-.34.575-.575.798-2.39 2.171-4.807 4.25-7.184 6.435 2.678 3.766 5.382 7.494 8.06 11.261.143.196.195.457.3.68-1.332.431-2.247.261-3.044-.981a433.965 433.965 0 0 0-6.845-9.522zm-16.315-9.282c7.707.026 10.333 10.254 6.884 16.1-2.573 5.638-11.639 5.755-14.265.092-3.553-6.121-.901-16.388 7.381-16.192zm-7.028 9.966c-.013 2.25.549 4.277 1.555 5.807 2.56 3.911 8.138 3.872 10.502-.17 2.012-3.453 2.025-7.102.118-10.594-2.09-3.819-7.093-4.381-9.954-1.216-1.646 1.792-2.116 4.015-2.221 6.173zm54.576-6.4c.94-1.36 2.207-2.289 3.762-2.746.862-.249 1.776-.314 2.678-.445.483-.079.522.288.496.68.013 1.164.013 1.164-1.149 1.19-2.678.066-5.239 2.355-5.683 5.127a19.747 19.747 0 0 0-.248 2.904 510.05 510.05 0 0 0 0 8.92c.026 1.033-.588.693-1.293.745-.601.066-.575-.392-.562-.85 0-5.951 0-11.902.013-17.853 0-.274.105-.758.222-.772.484-.078.98-.026 1.476.027.066.013.118.34.131.523.013.811 0 1.635 0 2.459a.518.518 0 0 0 .157.091z" fill="#000"/></svg>