<svg width="63" height="20" fill="none" xmlns="http://www.w3.org/2000/svg"><g clip-path="url(#clip0)" fill="#fff"><path d="M1.801 11.704c-.169-.14-.394-.197-.675-.197H0v.676h.872c.254.028.225.028.254.112h.028-.028c-.057.113-.338.338-.338.704V17.586h.957V13.14v-.029c-.028-.253.31-.394.337-.844-.028-.225-.112-.422-.281-.563zm14.746 3.968l-.985-2.87h-.788l-.985 2.87-.76-2.87h-.957l1.267 4.784h.731l1.098-3.18 1.07 3.18h.73l1.295-4.784h-.957l-.76 2.87zm4.727-2.42c-.337-.366-.816-.535-1.407-.535-.45 0-.816.085-1.125.254l-.057.028-.028.028v1.013l.197-.112c.31-.198.62-.31.957-.31.338 0 .563.084.732.281.169.197.253.45.253.788v2.899h.929V14.49c0-.534-.17-.957-.45-1.238zm-15.14-.084a2.024 2.024 0 0 0-.59-.338 2.157 2.157 0 0 0-.76-.113c-.478 0-.9.141-1.295.423v-.338h-.928v4.784h.928V14.49c0-.253.113-.422.394-.619.282-.197.563-.281.873-.281.31 0 .563.084.731.253.17.169.254.366.254.647v3.096h.928v-3.18c0-.253-.056-.507-.14-.704-.085-.197-.225-.365-.394-.534zm5.404-.366h-.929v3.658c-.338.225-.703.31-1.097.31-.423 0-.732-.085-.957-.225-.225-.141-.31-.31-.31-.563 0-.113.028-.197.085-.282.056-.084.14-.168.225-.253a3.05 3.05 0 0 1 .31-.169c.112-.028.224-.056.365-.056h.62v-.872h-.704c-.591 0-.76-.141-.76-.366s.14-.338.619-.338c.056 0 .14 0 .253.028.113.028.282.056.45.085l.057.028.084.028v-.872l-.084-.029a2.585 2.585 0 0 0-.788-.14c-.225 0-.422.028-.62.084a1.71 1.71 0 0 0-.506.253c-.14.113-.253.226-.337.394a1.104 1.104 0 0 0-.113.507c0 .225.084.45.253.619a.88.88 0 0 0 .31.253c-.14.085-.253.197-.366.338-.197.253-.31.535-.31.816 0 .45.197.872.591 1.182.394.338.957.478 1.66.478.845 0 1.548-.253 1.999-.788v-.028h.028v-4.08h-.028zm14.154-1.604v.76h3.771v-.845h-3.77v.085zM37.85 16.46c-.337.225-.703.31-1.097.31-.422 0-.732-.085-.957-.225-.225-.141-.31-.31-.338-.563 0-.113.028-.197.085-.282.056-.084.14-.168.225-.253.084-.056.197-.112.31-.169.112-.028.224-.056.365-.056h.62v-.872h-.704c-.591 0-.76-.141-.76-.366s.14-.338.62-.338c.055 0 .14 0 .252.028.113.028.254.056.45.085l.057.028.084.028v-.872l-.084-.029a2.585 2.585 0 0 0-.788-.14c-.225 0-.422.028-.62.084a1.71 1.71 0 0 0-.506.253c-.14.113-.253.226-.337.394a1.104 1.104 0 0 0-.113.507c0 .225.084.422.253.619a.88.88 0 0 0 .31.253c-.14.085-.253.197-.366.338-.197.253-.31.507-.31.816 0 .478.197.872.591 1.182.394.338.957.478 1.66.478.845 0 1.549-.253 1.999-.788l.028-.056v-4.052h-.929v3.658zm.338-5.628c-.281 0-.478.056-.62.197-.14.14-.168.338-.168.563v.309h.929v-.225c.028-.14 0-.14.225-.169h.45V10.832h-.816zm-9.652 5.065c0 .254-.113.45-.338.62a1.232 1.232 0 0 1-.788.28c-.31 0-.506-.084-.675-.224-.141-.141-.226-.31-.226-.591v-1.604c0-.507-.225-.957-.619-1.238-.365-.282-.844-.423-1.435-.423-.872 0-1.547.338-2.026 1.042v3.827h1.604v-.873h-.675v-2.645c.253-.31.619-.45 1.125-.45.338 0 .62.084.817.225.197.14.309.338.309.647v1.52c0 .478.169.9.478 1.21.31.31.76.478 1.295.478.422 0 .844-.14 1.182-.394v.282h.928v-4.784h-.956v3.095zm4.53-2.026l.816-.731-.788-.423-1.772 1.52.253.056c1.154.197 1.632.648 1.632 1.407 0 .338-.113.591-.366.788-.253.197-.563.31-1.013.338h-.113c-.112 0-.196 0-.28-.028-.113-.028-.198-.028-.31-.056v-3.94h-.9v4.559l.084.028c.478.169.956.281 1.491.281h.056c.704 0 1.267-.197 1.717-.563.394-.337.59-.816.59-1.407v-.028c0-.816-.393-1.407-1.097-1.8z"/><path fill-rule="evenodd" clip-rule="evenodd" d="M42.576.137H62.5v19.726H42.576V.137zm15.535 7.32l2.11 8.246-3.968 1.886h-3.151v-2.814s5.853 3.095 4.305-3.856c-.506-2.364-3.349-5.544-4.868-6.275-.028.014-.05.028-.07.042a.614.614 0 0 1-.07.042c-1.52.873-4.222 3.912-4.729 6.22-1.52 6.922 4.334 3.826 4.334 3.826v2.815h-3.152l-3.996-1.886 2.111-8.245 5.572-5.065 5.572 5.065z"/><path d="M26.565 4.388l.168-.985s-.816-.31-1.913-.31c-1.098 0-2.448.31-2.448 1.858 0 1.379 1.576 1.604 1.941 1.717.366.084 1.464.31 1.464.9 0 .591-.816.788-1.323.788-1.126-.028-1.97-.535-1.97-.535l-.169 1.042s.845.478 2.111.478c1.266 0 2.505-.535 2.505-1.801 0-1.182-.704-1.604-1.83-1.857-1.294-.31-1.547-.507-1.547-.845 0-.365.365-.703 1.322-.703.816-.028 1.689.253 1.689.253zm5.965-.03l.141-1.013s-.732-.31-1.688-.31c-.985 0-3.18.197-3.18 3.18 0 2.955 2.251 3.124 3.123 3.124.873 0 1.773-.366 1.773-.366l-.14-.985s-.62.281-1.492.281c-.844 0-1.913-.14-1.913-2.082 0-1.97 1.069-2.083 1.941-2.083.647.029 1.435.254 1.435.254zm5.347 1.681v-.056s.9-.113.9-1.323c0-1.238-1.153-1.52-2.166-1.52h-2.73V9.22h2.87c1.351 0 2.336-.45 2.336-1.717-.028-1.21-1.04-1.407-1.21-1.463zm-2.814-1.885h1.604c.535 0 .957.169.957.76 0 .534-.281.76-.957.76h-1.604v-1.52zm1.717 4.052h-1.717v-1.66h1.773c.422 0 1.013.084 1.013.788-.028.788-.506.872-1.07.872z"/></g></svg>