<svg width="200" height="200" fill="none" xmlns="http://www.w3.org/2000/svg"><path d="M200 0H0v200h200V0z" fill="#FFD239"/><path d="M100.365 65.503l29.062-7.206c2.162-8.887 14.652-24.499 14.652-24.499l-18.014.96 3.122 6.486c.481 3.122-6.485 6.485-6.485 6.485-2.642-4.323-5.044-11.529-5.044-11.529-5.524 8.647-6.005 10.328-6.005 10.328-3.362-1.921-7.686-10.568-7.686-10.568 2.162 1.44 5.044-.72 5.044-.72-2.882-2.883-8.646-15.373-8.646-15.373S94.6 32.357 91.718 35c0 0 2.882 1.921 5.044.72 0 0-4.324 8.647-7.686 10.569 0 0-.48-1.681-6.005-10.328 0 0-2.402 7.205-5.044 11.529 0 0-6.965-3.123-6.485-6.485l3.123-6.485-18.015-.72S68.9 49.41 71.302 58.296l29.063 7.206z" fill="#1F1F1F"/><path d="M152.487 84.238a2431.211 2431.211 0 0 1-11.049-9.848c7.206 4.323 12.97 4.083 12.97 4.083-4.323-8.166-21.617-15.372-24.98-16.813l-29.303 9.127-29.302-9.127c-3.363 1.441-20.657 8.647-24.98 16.813 0 0 5.764.48 12.97-4.083 0 0-6.965 6.245-11.049 9.848-3.602 3.362-15.852 16.333-.96 40.351 0 0 5.764 0 8.406-7.686 0 0 4.084 9.608.72 19.456 0 0 7.687 10.328 14.893 16.092 0 0 3.602-5.044 7.205-5.044 0 0-.24 6.005.72 10.088.962 4.083 7.687 13.691 21.618 22.338 13.931-8.647 20.656-18.255 21.617-22.338.96-4.083.72-10.088.72-10.088 3.603 0 7.206 5.044 7.206 5.044 7.205-5.524 14.891-16.092 14.891-16.092-3.362-10.088.721-19.456.721-19.456 2.402 7.686 8.407 7.686 8.407 7.686 14.651-24.018 2.642-36.989-1.441-40.351z" fill="#1F1F1F"/><path d="M131.351 101.537c-4.083-7.686-11.529-2.642-15.372 2.642-4.083 1.441-3.363 10.808-7.446 8.887-.961-.721-.48-1.922-.48-3.123.72-3.843-3.123-5.044-5.044-7.686-2.162-4.803 4.803.721 6.244-1.441.961-.96 1.682-2.161 2.883-3.122 3.603-3.123 12.009-3.843 10.808-9.848-2.162-14.892-13.45-12.25-22.818-5.524-9.367-6.966-20.656-9.608-22.818 5.524-.96 7.446 10.569 6.966 13.451 12.97 1.441 1.201 2.882.24 4.564-.48 5.043-1.201-.24 4.083-1.922 5.044-2.882 1.921-.24 5.524-1.921 7.446-2.642 1.681-3.123-2.642-3.844-4.324-3.602-6.245-13.21-17.053-18.974-7.205-1.922 8.166 12.73 9.127 10.088 17.293-1.682 7.446-4.564 16.093 6.004 15.612 1.922 2.642 4.804 2.642 6.966.241 2.882-2.402 5.524-3.363 5.044-7.686-.72-2.883-5.284-2.642-7.206-4.804-5.524-4.324 3.843-2.642 5.524-.481 1.682.721 4.564.961 4.564 3.363 0-2.402 2.882-2.402 4.564-3.363 1.681-2.161 11.288-4.083 5.524.481-1.922 2.162-6.485 1.921-7.206 4.804-.48 4.323 2.162 5.284 5.044 7.686 2.162 2.401 5.044 2.642 6.966-.241 10.568.241 7.686-8.406 6.004-15.612-1.681-7.926 12.97-8.887 10.809-17.053z" fill="#fff"/><path d="M106.851 136.369c-4.564-1.201-6.725-4.083-6.485-8.646 1.201 9.367-10.088 6.965-12.01 13.45.961 8.887 11.77 6.245 17.774 6.725 6.726-1.681 8.407-10.087.721-11.529z" fill="#fff"/></svg>