<svg width="50" height="50" fill="none" xmlns="http://www.w3.org/2000/svg"><rect x="50" y="50" width="50" height="50" rx="25" transform="rotate(-180 50 50)" fill="url(#paint0_radial)"/><rect x="50" y="50" width="50" height="50" rx="25" transform="rotate(-180 50 50)" fill="#6C963C"/><path d="M12.305 37.938h-6.25v7.812h6.25v-7.813z" fill="#46C373"/><path d="M22.473 34.031h-6.25V45.75h6.25V34.031z" fill="#F5B955"/><path d="M32.637 28.562h-6.25V45.75h6.25V28.562z" fill="#4BB9F5"/><path d="M42.8 22.313h-6.25V45.75h6.25V22.312z" fill="#FF5A5A"/><path d="M49.714 45.06l-1.953-1.954a.977.977 0 0 0-1.381 1.381l.286.286h-2.887V33.201a.977.977 0 0 0-1.953 0v11.572h-4.297V23.29h4.297v2.979a.977.977 0 0 0 1.953 0v-3.956a.977.977 0 0 0-.977-.976h-6.25a.977.977 0 0 0-.976.977v22.46h-1.963v-16.21a.977.977 0 0 0-.977-.977h-6.25a.977.977 0 0 0-.976.977v16.21h-1.963V34.031a.977.977 0 0 0-.976-.976h-6.25a.977.977 0 0 0-.977.976v10.742h-1.963v-6.836a.977.977 0 0 0-.976-.976h-6.25a.977.977 0 0 0-.977.977v6.835H3.906V5.334l.286.286a.974.974 0 0 0 1.381 0 .977.977 0 0 0 0-1.38L3.62 2.285a.977.977 0 0 0-1.38 0L.285 4.239A.977.977 0 0 0 1.667 5.62l.286-.286V45.75c0 .54.437.977.977.977h43.736l-.286.286a.977.977 0 0 0 1.38 1.38l1.954-1.952a.976.976 0 0 0 0-1.382zm-42.683-.287v-5.859h4.297v5.86H7.031zm10.166 0v-9.765h4.297v9.765h-4.297zm10.166 0V29.54h4.297v15.234h-4.297z" fill="#303344"/><path d="M42.8 28.71a.98.98 0 0 0-.69 1.667.984.984 0 0 0 .69.285.985.985 0 0 0 .691-.286.984.984 0 0 0 .286-.69.984.984 0 0 0-.286-.69.984.984 0 0 0-.69-.287z" fill="#303344"/><path d="M9.1 27.59l-.031.003a.977.977 0 0 0 .222 1.94l.03-.003a.977.977 0 0 0-.222-1.94z" fill="#FF5A5A"/><path d="M11.66 28.199a.977.977 0 0 0 1.164.743c3.915-.863 7.807-2.426 11.57-4.645 2.997-1.768 5.919-3.955 8.684-6.5 3.558-3.273 5.908-6.257 6.891-7.59l1.454.98a.977.977 0 0 0 1.52-.741l.392-5.623a.977.977 0 0 0-1.403-.945L36.867 6.35a.976.976 0 0 0-.118 1.687l1.597 1.077c-.968 1.3-3.255 4.183-6.63 7.282-4.17 3.83-10.906 8.786-19.313 10.639a.977.977 0 0 0-.743 1.164zM41.268 6.375l-.156 2.248-1.869-1.26 2.025-.988z" fill="#F7BA61"/><path d="M10.352 19.797c-1.185 0-2.149-.834-2.149-1.859a.977.977 0 0 0-1.953 0c0 1.79 1.333 3.294 3.125 3.703v.28a.977.977 0 0 0 1.953 0v-.28c1.792-.409 3.125-1.914 3.125-3.703 0-2.102-1.84-3.813-4.101-3.813-1.185 0-2.149-.834-2.149-1.86 0-1.025.964-1.859 2.149-1.859 1.184 0 2.148.834 2.148 1.86a.977.977 0 1 0 1.953 0c0-1.79-1.333-3.294-3.125-3.703V8.25a.977.977 0 0 0-1.953 0v.313c-1.792.409-3.125 1.913-3.125 3.703 0 2.102 1.84 3.812 4.102 3.812 1.184 0 2.148.835 2.148 1.86 0 1.025-.964 1.86-2.148 1.86z" fill="#303344"/><defs><radialGradient id="paint0_radial" cx="0" cy="0" r="1" gradientUnits="userSpaceOnUse" gradientTransform="rotate(135 39.645 45.71) scale(70.7107)"><stop stop-color="#9D2777"/><stop offset=".615" stop-color="#731A56"/></radialGradient></defs></svg>