<svg fill="none" height="200" viewBox="0 0 200 200" width="200" xmlns="http://www.w3.org/2000/svg" xmlns:xlink="http://www.w3.org/1999/xlink"><radialGradient id="a" cx="0" cy="0" gradientTransform="matrix(200.00020331 200.00020331 -200.00020331 200.00020331 0 0)" gradientUnits="userSpaceOnUse" r="1"><stop offset="0" stop-color="#525252"/><stop offset="1"/></radialGradient><linearGradient id="b"><stop offset=".00120812" stop-color="#88878b"/><stop offset=".1634" stop-color="#929195"/><stop offset=".4391" stop-color="#adacaf"/><stop offset=".7925" stop-color="#d8d7d8"/><stop offset="1" stop-color="#f4f4f4"/></linearGradient><linearGradient id="c" gradientUnits="userSpaceOnUse" x1="42.0393" x2="42.0393" xlink:href="#b" y1="102.669" y2="53.2305"/><linearGradient id="d" gradientUnits="userSpaceOnUse" x1="79.0232" x2="79.0232" xlink:href="#b" y1="102.669" y2="53.2305"/><linearGradient id="e" gradientUnits="userSpaceOnUse" x1="138.035" x2="138.035" xlink:href="#b" y1="102.669" y2="53.2305"/><linearGradient id="f"><stop offset=".00120812" stop-color="#00627e"/><stop offset=".1601" stop-color="#006c87"/><stop offset=".4301" stop-color="#0087a0"/><stop offset=".7763" stop-color="#00b2c7"/><stop offset="1" stop-color="#00d2e4"/></linearGradient><linearGradient id="g" gradientUnits="userSpaceOnUse" x1="48.3041" x2="48.3041" xlink:href="#f" y1="141.454" y2="117.833"/><linearGradient id="h" gradientUnits="userSpaceOnUse" x1="103.136" x2="103.136" xlink:href="#f" y1="141.454" y2="117.833"/><linearGradient id="i" gradientUnits="userSpaceOnUse" x1="126.459" x2="126.459" xlink:href="#f" y1="141.454" y2="117.833"/><linearGradient id="j" gradientUnits="userSpaceOnUse" x1="152.055" x2="152.055" xlink:href="#f" y1="141.454" y2="117.833"/><linearGradient id="k" gradientUnits="userSpaceOnUse" x1="67.3174" x2="83.9487" y1="116.291" y2="116.291"><stop offset=".00241624" stop-color="#00c38e"/><stop offset=".2342" stop-color="#00c198"/><stop offset=".6267" stop-color="#00bab3"/><stop offset="1" stop-color="#00b3d2"/></linearGradient><linearGradient id="l" gradientUnits="userSpaceOnUse" x1="67.0846" x2="67.0846" y1="136.594" y2="118.764"><stop offset=".00241624" stop-color="#008ff3"/><stop offset=".2016" stop-color="#0088e9"/><stop offset=".5403" stop-color="#0075ce"/><stop offset=".9748" stop-color="#0056a3"/><stop offset="1" stop-color="#0054a0"/></linearGradient><linearGradient id="m" gradientUnits="userSpaceOnUse" x1="84.1401" x2="84.1401" y1="136.591" y2="118.762"><stop offset=".00241624" stop-color="#2f5dd0"/><stop offset=".1713" stop-color="#395ace"/><stop offset=".4583" stop-color="#5454c8"/><stop offset=".8264" stop-color="#7f49be"/><stop offset=".9988" stop-color="#9643b9"/></linearGradient><linearGradient id="n" gradientUnits="userSpaceOnUse" x1="68.5864" x2="68.5864" y1="141.448" y2="134.654"><stop offset=".00241624" stop-color="#8257c5"/><stop offset=".2392" stop-color="#7857c4"/><stop offset=".6402" stop-color="#5d57c3"/><stop offset=".9988" stop-color="#4057c1"/></linearGradient><linearGradient id="o" gradientUnits="userSpaceOnUse" x1="79.2049" x2="87.2492" y1="135.771" y2="140.19"><stop offset=".00120812" stop-color="#00b2dc"/><stop offset=".2234" stop-color="#00a8d6"/><stop offset=".601" stop-color="#008dc6"/><stop offset="1" stop-color="#006ab1"/></linearGradient><linearGradient id="p" gradientUnits="userSpaceOnUse" x1="64.2433" x2="87.0247" y1="139.884" y2="139.884"><stop offset=".00120812" stop-color="#00b1de"/><stop offset=".2258" stop-color="#00b4d4"/><stop offset=".6075" stop-color="#00bbb9"/><stop offset="1" stop-color="#00c497"/></linearGradient><path d="m200 0h-200v200h200z" fill="url(#a)"/><path d="m47.0595 53.2305h-10.0585v49.4335h10.0585z" fill="url(#c)"/><path d="m94.3264 53.2305h-42.6467v9.5426h2.8622v39.8909h38.9667c7.1144 0 12.8394-5.775 12.8394-12.8603v-24.4914c0-6.6757-5.398-12.0818-12.0216-12.0818zm1.6764 36.3684c0 2.0478-1.6355 3.686-3.68 3.686h-28.0086v-30.6756h28.0086c2.0445 0 3.68 1.6382 3.68 3.686z" fill="url(#d)"/><path d="m112.072 53.2305v49.4335h10.59v-32.1503l33.733 32.1503h7.606v-49.4335h-10.059v31.8633l-33.569-31.8633z" fill="url(#e)"/><path d="m75.6295 114.729c1.9818 0 3.3216.643 4.2427 1.985.7257 1.09.9211 2.237.949 2.404l.1396 1.79 1.7305.727c4.1868 1.789 4.1868 5.2 4.1589 5.731v.056.168c-.0279 2.04-.6699 3.606-1.9817 4.724-.9491.839-1.9539 1.175-2.1214 1.231l-4.5217.978 2.6795 3.774h-5.3033-5.3033l2.6238-3.662-4.466-1.118s-.9769-.28-1.9538-1.091c-1.3956-1.146-2.0934-2.74-2.1213-4.864v-.056l-.028-.14c0-.168 0-1.118.4466-2.237.642-1.537 1.8981-2.712 3.7124-3.494l1.7305-.671.1675-1.846c.0279-.167.2233-1.314.949-2.404.949-1.342 2.2888-1.985 4.2705-1.985zm0-3.131c-7.5362 0-8.3178 7.157-8.3178 7.157-6.6151 2.824-6.0569 8.89-6.0569 8.89.1396 7.381 6.4477 8.947 6.4477 8.947l-3.4611 4.865h11.3881 11.3882l-3.4611-4.865s6.336-1.566 6.4477-8.947c0 0 .5582-6.066-6.0569-8.89 0 0-.7816-7.157-8.3179-7.157z" fill="#00c0aa"/><path d="m54.6125 117.836h-17.6125v23.624h3.2378v-9.058h14.3468c2.7633 0 4.9963-2.237 4.9963-5.004v-4.53c.0279-2.795-2.2051-5.032-4.9684-5.032zm1.7585 8.974c0 1.398-1.1444 2.545-2.54 2.545h-13.5932v-8.751h13.6211c1.3956 0 2.54 1.146 2.54 2.544v3.662z" fill="url(#g)"/><path d="m91.7363 117.836v23.624h3.182v-7.464l3.4053-2.824 11.4444 10.288h4.382l-13.231-12.357 13.622-11.267h-4.829l-14.7937 12.134v-12.134z" fill="url(#h)"/><path d="m137.819 117.836v2.768h-16.915c-1.563 0-2.819 1.258-2.819 2.824v4.305h16.496v3.047h-16.496v5.033c0 1.565 1.256 2.824 2.819 2.824h16.915v2.795h-18.031c-2.596 0-4.689-2.096-4.689-4.697v-14.202c0-2.6 2.093-4.697 4.689-4.697z" fill="url(#i)"/><path d="m164 126.727v-5.061c0-2.125-1.702-3.83-3.824-3.83h-20.069v23.624h3.238v-9.897h15.296c1.089 0 1.982.895 1.982 1.985v7.912h3.377v-8.695c0-1.593-1.312-2.907-2.903-2.907v-.196c1.619-.028 2.903-1.314 2.903-2.935zm-3.349-.308c0 1.258-1.005 2.265-2.261 2.265h-15.073v-8.332h15.073c1.256 0 2.261 1.007 2.261 2.265z" fill="url(#j)"/><path d="m75.6303 111.598c-7.5363 0-8.3178 7.157-8.3178 7.157l2.9587 2.209.1675-1.846c.0279-.167.2233-1.314.949-2.404.9211-1.342 2.2888-1.985 4.2426-1.985 1.9539 0 3.3216.643 4.2427 1.985.7257 1.09.921 2.237.949 2.404l.1395 1.79 2.9587-2.153c.0279 0-.7536-7.157-8.2899-7.157z" fill="url(#k)"/><path d="m61.2549 127.648c.1396 7.381 6.4477 8.946 6.4477 8.946l5.2196-1.929-4.466-1.118s-.9769-.28-1.9538-1.09c-1.3956-1.147-2.0934-2.74-2.1214-4.865v-.056l-.0279-.14c0-.168 0-1.118.4466-2.236.642-1.538 1.8981-2.712 3.7123-3.495l1.7306-.671-2.9587-2.209c-6.5873 2.796-6.029 8.863-6.029 8.863z" fill="url(#l)"/><path d="m82.7198 121.634c4.1869 1.789 4.1869 5.2 4.159 5.732v.055.168c-.028 2.041-.6699 3.607-1.9818 4.725-.949.839-1.9539 1.174-2.1213 1.23l-4.5218.979 5.3033 2.041s6.3361-1.566 6.4477-8.947c0 0 .5583-6.067-6.0569-8.89l-2.9587 2.152z" fill="url(#m)"/><path d="m72.9238 134.66-5.2195 1.929-3.4611 4.865 6.0848-3.131z" fill="url(#n)"/><path d="m78.2539 134.547 2.7075 3.774 6.0569 3.131-3.4611-4.864z" fill="url(#o)"/><path d="m75.6313 138.324h-5.3033l-6.0848 3.131h11.3881 11.3882l-6.057-3.131z" fill="url(#p)"/></svg>