<svg width="30" height="30" fill="none" xmlns="http://www.w3.org/2000/svg">
  <g clip-path="url(#qiwi-color-30px__clip0)">
    <path d="M28 0H2a2 2 0 00-2 2v26a2 2 0 002 2h26a2 2 0 002-2V2a2 2 0 00-2-2z" fill="#2D3540"/>
    <path d="M21.732 19.573c-.025-.214-.151-.705-.479-.83-.164-.064-.302-.014-.365.1-.1.176-.025.516.164.818.189.302.365.453.491.453s.24-.15.189-.541zm-1.762.856c-.202-.176-.429-.264-.63-.264a.488.488 0 00-.403.176c-.227.276-.126.78.227 1.082a.898.898 0 00.591.215.663.663 0 00.516-.227c.202-.277.088-.655-.302-.982z" fill="#FF8C00"/>
    <path d="M6.272 15.142a8.66 8.66 0 008.662 8.66c1.272 0 2.53-.238 4.38-.251 1.65 0 3.463.579 5.452 2.342.201.176.465-.05.29-.265-1.952-2.48-3.765-2.945-5.578-3.348-2.215-.491-3.348-1.725-4.142-3.097-.15-.277-.226-.227-.239.126a7.735 7.735 0 00.114 1.548h-.265a5.733 5.733 0 01-5.728-5.728 5.733 5.733 0 015.728-5.728 5.733 5.733 0 015.69 6.395c-.428-.075-1.246-.088-1.825-.037-.214.025-.189.125-.025.15 1.888.353 3.185 1.524 3.487 3.651.013.05.076.063.101.026a8.715 8.715 0 001.22-4.444 8.661 8.661 0 00-8.66-8.662 8.66 8.66 0 00-8.662 8.662z" fill="#FF8C00"/>
  </g>
  <defs>
    <clipPath id="qiwi-color-30px__clip0">
      <path fill="#fff" d="M0 0h30v30H0z"/>
    </clipPath>
  </defs>
</svg>
