<svg width="86" height="75" fill="none" xmlns="http://www.w3.org/2000/svg"><path d="M85.022 55.928a3.358 3.358 0 0 0-4.365-1.877 3.365 3.365 0 0 0-1.875 4.37c.875 2.194.588 4.699-.767 6.7-1.355 2.004-3.526 3.153-5.954 3.153H13.953c-2.65 0-5.002-1.384-6.293-3.703-1.294-2.322-1.233-5.059.163-7.321L36.876 10.15a7.158 7.158 0 0 1 6.13-3.424 7.158 7.158 0 0 1 6.131 3.425l21.488 34.833a3.356 3.356 0 0 0 4.623 1.094 3.366 3.366 0 0 0 1.093-4.629L54.853 6.617C52.297 2.474 47.868 0 43.007 0c-4.862 0-9.29 2.474-11.846 6.617L2.107 53.715c-2.694 4.367-2.811 9.65-.314 14.133C4.288 72.326 8.833 75 13.953 75H72.06c4.692 0 8.89-2.225 11.516-6.105 2.606-3.851 3.146-8.699 1.445-12.967z" fill="#fff"/><path d="M43.008 61.716a3.361 3.361 0 0 0 3.36-3.364 3.361 3.361 0 0 0-3.36-3.363h-.001a3.36 3.36 0 0 0-3.359 3.364 3.362 3.362 0 0 0 3.36 3.363zm3.358-15.135v-24.72a3.361 3.361 0 0 0-3.358-3.363 3.361 3.361 0 0 0-3.36 3.363v24.72a3.361 3.361 0 0 0 3.36 3.363 3.361 3.361 0 0 0 3.358-3.363z" fill="#fff"/></svg>