<svg fill="none" height="16" width="16" xmlns="http://www.w3.org/2000/svg"><g fill="#aaa"><path d="M15.005 8.549v6.404H3.333V8.549zm.993-1.046H2.34v8.496h13.658z"/><path d="M12.273 7.503l1.399 1.472c-.011.054-.032.104-.032.162 0 .468.361.847.806.847.055 0 .102-.021.154-.032l1.399 1.472V7.503zm.931 5.098c.445 0 .806-.38.806-.848 0-.469-.36-.849-.806-.849-.445 0-.806.38-.806.849 0 .468.361.848.806.848zm-4.036 1.38c1.346 0 2.437-.998 2.437-2.23 0-1.233-1.09-2.231-2.437-2.231-1.346 0-2.438.998-2.438 2.23 0 1.233 1.092 2.232 2.438 2.232zM5.133 12.6c.445 0 .806-.38.806-.848s-.36-.848-.806-.848c-.444 0-.805.38-.805.848s.36.848.805.848zM2.34 11.424l1.398-1.472c.052.011.1.033.154.033.445 0 .805-.38.805-.848 0-.058-.02-.107-.03-.162l1.398-1.472H2.34zm2.358 2.942c0-.469-.36-.848-.806-.848-.055 0-.102.022-.153.032l-1.4-1.471v3.92h3.726l-1.398-1.471c.01-.054.03-.105.03-.162zm9.748-.848c-.445 0-.805.38-.805.848 0 .058.02.108.031.162L12.273 16H16v-3.92l-1.4 1.47c-.051-.01-.099-.032-.154-.032zm-2.977-7.53c.445 0 .806-.38.806-.847 0-.469-.361-.848-.806-.848-.444 0-.805.38-.805.848s.36.847.805.847z"/><path d="M1.41 7.506c0-.541.417-.98.931-.98h.51l.022-.084 7.188-4.144.55.169c.015.052.02.107.047.158a.785.785 0 0 0 1.094.336c.047-.027.08-.07.119-.106l.55.17 1.253 2.406-.161.58c-.05.015-.101.021-.15.048a.832.832 0 0 0-.366.466h2.378L13.77 3.44 11.98 0 8.712 1.883l-5.444 3.14L0 6.905l1.41 2.71v-2.11z"/><path d="M6.91 5.221c-.54.311-.93.783-1.148 1.303h4.49a2.01 2.01 0 0 0-.185-.578C9.504 4.865 8.09 4.54 6.91 5.22z"/></g></svg>