<svg width="55" height="20" fill="none" xmlns="http://www.w3.org/2000/svg"><path d="M14.988 4.464c-.084.066-.093.159-.119.238-.498 1.358-1 2.71-1.49 4.073-.061.167-.136.22-.313.216a14.707 14.707 0 0 0-1.08 0c-.18.008-.264-.049-.33-.225-.498-1.389-1.01-2.768-1.52-4.152-.027-.07-.032-.159-.12-.22v2.225c0 .728-.004 1.455.005 2.178 0 .154-.04.198-.194.194-.45-.01-.895-.01-1.345 0-.15.004-.185-.049-.185-.19.005-2.054.005-4.108 0-6.162 0-.132.031-.176.172-.176.807.004 1.613.009 2.424 0 .155 0 .181.08.22.185.437 1.208.878 2.415 1.314 3.619.031.088.066.176.115.3.277-.776.546-1.517.815-2.257.203-.56.406-1.115.604-1.68.04-.119.088-.171.23-.171.784.008 1.568.008 2.357 0 .155 0 .199.044.194.198-.004 2.045-.004 4.095 0 6.14 0 .163-.062.19-.203.19a31.99 31.99 0 0 0-1.3 0c-.167.004-.22-.04-.22-.217.009-1.357.004-2.715.004-4.072-.009-.071.014-.155-.035-.234zm37.139 1.904c-.044-.062-.093-.128-.137-.194-.789-1.181-1.578-2.367-2.367-3.552-.062-.093-.11-.172-.251-.168-.63.009-1.26.009-1.891 0-.119 0-.163.027-.163.159.004 2.067.004 4.134 0 6.206 0 .145.053.167.176.163.454-.005.908-.009 1.367 0 .158.004.194-.049.19-.199-.01-.77-.005-1.538-.005-2.31V4.866c.08.11.123.172.167.238.82 1.234 1.64 2.468 2.455 3.702.066.102.124.181.273.177a59.99 59.99 0 0 1 1.781 0c.141 0 .172-.044.172-.177a1448.51 1448.51 0 0 1 0-6.183c0-.141-.044-.172-.176-.168-.428.009-.85.013-1.278 0-.216-.009-.282.04-.278.269.013 1.208.004 2.42.004 3.627a.155.155 0 0 1-.04.018zm-18.252 8.569c1.644-.534 1.79-2.42.974-3.341-.432-.494-1.005-.714-1.644-.723-1.27-.018-2.54-.01-3.808-.014-.128 0-.177.027-.177.168.005 2.063.005 4.121 0 6.184 0 .14.049.172.177.167.462-.004.925-.009 1.388 0 .163.005.194-.053.19-.202-.01-.64-.005-1.279 0-1.913 0-.058-.04-.133.052-.168.19-.07.6.027.736.185a762.7 762.7 0 0 1 1.706 1.962c.062.07.115.14.234.136.66-.009 1.322-.004 1.983-.009.009 0 .013-.021.027-.04-.697-.757-1.398-1.52-2.12-2.309.114-.03.198-.053.282-.083zm-2.768-1.287c-.102 0-.141-.027-.141-.137.004-.344.004-.688 0-1.032-.005-.119.044-.145.154-.145.55.004 1.102-.004 1.648.004.265.005.516.058.684.287a.615.615 0 0 1 .061.648c-.119.251-.343.357-.604.366-.3.013-.599.004-.903.004v.005c-.296-.005-.6-.005-.9 0zm-1.79-6.753c-.053-.057-.106-.119-.163-.18-.057-.062-.044-.102.035-.12.049-.013.102-.022.15-.04.763-.255 1.278-.749 1.428-1.55.141-.75-.013-1.433-.604-1.967-.476-.432-1.066-.568-1.692-.573-1.195-.009-2.393 0-3.588-.004-.132 0-.176.03-.172.172.005 2.063.005 4.12 0 6.184 0 .136.036.176.172.172.45-.01.895-.018 1.344.004.208.009.238-.062.238-.247-.013-.617-.004-1.234-.004-1.847 0-.061-.026-.136.044-.18.115-.07.6.013.692.119.578.665 1.155 1.33 1.732 1.992.062.07.106.159.22.159.675-.005 1.345 0 2.081 0a276.413 276.413 0 0 0-1.913-2.094zM26.62 5.271c-.128.004-.168-.04-.163-.164.004-.33.004-.66 0-.991-.005-.12.03-.168.158-.168.582.01 1.16.005 1.741.01.238.003.45.078.595.281.282.388.066.904-.414.996-.357.066-.718.014-1.014.031-.348 0-.626-.004-.903.005zM8.297 17.18c0 .119-.004.203.168.203 1.732-.005 3.464-.005 5.196 0 .146 0 .172-.053.168-.181-.009-.278-.005-.555-.005-.837 0-.472 0-.472-.462-.472-1.04 0-2.085-.005-3.125.004-.16 0-.203-.044-.194-.194a4.1 4.1 0 0 0 0-.617c-.014-.18.04-.233.224-.233 1.072.009 2.143 0 3.214.009.211.004.26-.067.25-.26a10.65 10.65 0 0 1 0-.992c.01-.194-.043-.243-.242-.243-1.08.01-2.155 0-3.235.01-.18 0-.225-.054-.211-.221a3.813 3.813 0 0 0 0-.595c-.014-.18.035-.234.224-.234 1.116.009 2.23 0 3.346.009.159 0 .22-.027.211-.203a14.727 14.727 0 0 1 0-1.08c.01-.176-.057-.202-.216-.202-1.7.004-3.407.004-5.108 0-.185 0-.212.066-.212.224.005 1.014.005 2.024.005 3.037.009 1.027.009 2.05.004 3.068zm9.763-8.401c0 .159.027.212.203.212 1.71-.01 3.42-.01 5.13 0 .163 0 .194-.053.19-.199a16.882 16.882 0 0 1 0-1.058c.009-.19-.053-.224-.234-.224-1.102.008-2.2 0-3.301.008-.185 0-.269-.03-.251-.238.017-.202.017-.41 0-.617-.014-.172.053-.202.211-.202 1.08.008 2.156 0 3.236.008.18 0 .26-.026.246-.233a9.038 9.038 0 0 1 0-1.036c.01-.185-.044-.23-.229-.23-1.08.01-2.155 0-3.235.01-.185 0-.242-.053-.225-.234.018-.19.018-.383 0-.573-.017-.185.049-.23.23-.23 1.114.01 2.23 0 3.345.01.167 0 .211-.044.207-.207a14.618 14.618 0 0 1 0-1.08c.004-.159-.031-.212-.203-.212a493.12 493.12 0 0 1-5.108 0c-.185 0-.212.062-.212.225.005 1.014.005 2.023.005 3.037 0 1.022.004 2.045-.005 3.063zm18.186 8.405c0 .106-.013.199.15.194 1.74-.004 3.477-.004 5.218 0 .115 0 .155-.035.15-.15-.004-.361-.013-.718.005-1.08.009-.207-.04-.268-.26-.268-1.107.013-2.217 0-3.324.008-.167 0-.216-.043-.202-.207a3.56 3.56 0 0 0 0-.573c-.022-.216.053-.269.264-.264 1.071.013 2.142 0 3.213.009.176 0 .225-.053.216-.22a13.45 13.45 0 0 1 0-1.036c.009-.181-.04-.234-.225-.234-1.07.009-2.142 0-3.213.009-.19 0-.282-.031-.255-.247.022-.18.017-.366 0-.551-.018-.198.044-.256.25-.256 1.107.01 2.218.005 3.324.01.154 0 .22-.027.212-.204a14.727 14.727 0 0 1 0-1.08c.009-.176-.058-.202-.212-.198-1.701.005-3.407.005-5.108 0-.172 0-.203.049-.203.212.009 1.014.004 2.023.004 3.037-.004 1.035-.004 2.062-.004 3.09zM3.004 2.463c-.12-.005-.181.035-.23.15-.229.533-.467 1.062-.7 1.59C1.404 5.72.734 7.246.059 8.767c-.097.216-.092.22.146.22.507 0 1.014-.004 1.52.005.124 0 .181-.036.225-.15.132-.34.282-.675.419-1.018.044-.106.088-.16.22-.16.904.01 1.803.005 2.707 0 .127 0 .176.054.22.16.137.339.29.674.423 1.013.044.115.102.155.225.155a64.855 64.855 0 0 1 1.604 0c.146 0 .203-.014.128-.177C6.98 6.743 6.063 4.671 5.15 2.6c-.048-.106-.11-.133-.216-.133-.322.005-.643.005-.97.005-.312-.01-.639 0-.96-.01zm.846 1.811c.026-.061.057-.119.097-.202.304.731.604 1.437.903 2.16H3.03l.82-1.958zM40.78 8.986c.12 0 .146-.066.181-.15.137-.335.278-.66.41-.996.048-.123.11-.18.256-.18.886.008 1.776.008 2.662 0 .132 0 .198.04.242.163.137.339.287.674.423 1.013.044.115.106.15.23.15a48.967 48.967 0 0 1 1.608 0c.194.005.177-.062.115-.194-.908-2.05-1.816-4.103-2.72-6.157-.061-.141-.136-.176-.282-.172-.608.009-1.216.013-1.829 0-.18-.005-.251.062-.317.216-.7 1.6-1.406 3.195-2.111 4.791-.22.494-.437.992-.67 1.516.626 0 1.212-.004 1.802 0zm3.024-2.904c.048.11.04.158-.097.154a87.586 87.586 0 0 0-1.52 0c-.093 0-.146-.018-.098-.124.283-.665.56-1.335.864-2.058.3.714.573 1.37.851 2.028zm7.074 4.804c-1.075.04-1.807.727-1.961 1.714-.168 1.076.41 1.94 1.468 2.182.246.057.493.066.744.07.52.005 1.04 0 1.565.014.207.004.37.101.454.295.08.181.066.362-.057.52-.128.168-.309.212-.507.212-1.093 0-2.186.004-3.28-.005-.154 0-.202.04-.198.194.01.375.005.75 0 1.124 0 .11.01.177.15.177 1.173-.005 2.35.017 3.522-.014 1.212-.035 1.983-.692 2.133-1.785.106-.758-.07-1.436-.762-1.882-.401-.26-.86-.321-1.331-.326-.498-.004-1 0-1.499 0a.906.906 0 0 1-.344-.053.484.484 0 0 1-.33-.493.488.488 0 0 1 .374-.459c.12-.026.247-.035.37-.035.851-.004 1.702 0 2.557 0 .093 0 .185.022.238-.101.198-.45.405-.89.621-1.358-1.33 0-2.63-.035-3.927.009zm-4.504-.013c-.609 0-1.217-.018-1.825.004-1.199.044-1.988.816-2.054 1.98-.049.84.379 1.52 1.16 1.833.33.132.682.163 1.035.167.538.005 1.071-.004 1.604.013a.488.488 0 0 1 .494.512c-.004.277-.212.485-.507.507-.066.004-.132.004-.198.004-1.062 0-2.13.004-3.191-.005-.15 0-.203.031-.199.19.014.38.01.763 0 1.146 0 .106.022.159.146.159 1.181-.005 2.362.022 3.543-.014 1.305-.044 2.09-.802 2.147-2.031.03-.688-.19-1.274-.807-1.649-.4-.242-.85-.304-1.309-.308-.498-.005-.996 0-1.498 0a.916.916 0 0 1-.326-.049c-.23-.084-.362-.273-.349-.502a.487.487 0 0 1 .401-.459c.115-.022.234-.03.349-.03.815-.005 1.63-.01 2.441.004.22.004.344-.049.424-.265.132-.343.29-.67.454-1 .083-.168.075-.22-.133-.216-.599.013-1.203.004-1.807.004.005-.004.005 0 .005.005zm-30.28 6.51c.15 0 .242-.049.334-.159.494-.582.996-1.155 1.49-1.741.12-.141.176-.163.304-.009.432.52.895 1.01 1.31 1.543.224.286.462.383.815.366.573-.031 1.15-.01 1.74-.01-.039-.118-.118-.175-.18-.246-.864-.978-1.728-1.961-2.596-2.935-.102-.115-.12-.177-.009-.305.846-.938 1.684-1.882 2.521-2.825.049-.057.128-.101.132-.207-.656 0-1.309.004-1.96-.004a.404.404 0 0 0-.34.15c-.472.56-.961 1.11-1.433 1.67-.106.128-.154.11-.255-.004-.48-.565-.97-1.124-1.45-1.684a.335.335 0 0 0-.283-.132c-.639.004-1.278 0-1.917.004-.044 0-.106-.026-.145.053.079.088.158.18.238.273.815.917 1.626 1.834 2.446 2.742.11.123.101.185-.005.304-.595.657-1.18 1.327-1.771 1.988-.331.37-.657.745-1.023 1.154.727.01 1.38.005 2.036.014zm6.232-.207c0 .163.04.211.207.207.445-.014.895-.01 1.344 0 .159.004.194-.053.194-.199-.009-.577 0-1.159-.004-1.736-.005-.159.048-.199.202-.194.587.009 1.173.004 1.76.004.25 0 .497-.009.74-.07.797-.194 1.388-.64 1.608-1.455.225-.828.115-1.604-.52-2.239-.48-.485-1.093-.626-1.754-.621-1.19 0-2.376.004-3.566-.005-.185 0-.211.062-.211.225.008 1.014.004 2.023.004 3.037 0 1.005.005 2.027-.004 3.046zm1.89-3.403c-.11.004-.154-.027-.154-.146.01-.379.005-.762 0-1.141 0-.115.036-.15.15-.15.578.004 1.16-.004 1.737.004.4.01.657.194.745.503.136.49-.159.903-.68.925-.308.014-.616.005-.925.005-.286 0-.581-.005-.872 0zM39.584 4c.1 0 .163-.009.158-.136-.009-.424-.004-.851 0-1.279 0-.097-.035-.127-.128-.123-.85.018-1.705-.057-2.552.048-1.18.15-2.05.745-2.45 1.891-.3.855-.291 1.732-.031 2.596.264.86.833 1.45 1.675 1.772.59.225 1.207.22 1.825.216.096 0 .123-.066.154-.132.185-.392.361-.785.55-1.172.071-.142.036-.172-.11-.172-.374.004-.749.017-1.119-.027-.621-.075-1.08-.366-1.291-.974a2.392 2.392 0 0 1-.07-1.283c.14-.696.576-1.097 1.282-1.203.379-.057.762-.017 1.08-.026.379.004.705 0 1.027.004zm-6.1-1.34c0-.145-.031-.207-.19-.203-.454.01-.908.014-1.366 0-.177-.004-.203.058-.203.212.004 2.036.004 4.077 0 6.113 0 .15.03.203.19.203a28.25 28.25 0 0 1 1.366 0c.172.005.202-.057.202-.211-.008-1.019-.004-2.037-.004-3.06 0-1.017 0-2.036.004-3.054z" fill="#fff"/></svg>