<svg width="200" height="200" fill="none" xmlns="http://www.w3.org/2000/svg"><path d="M200 0H0v200h200V0z" fill="url(#paint0_radial)"/><path d="M153.984 70.152v21.264c0 4.01-1.276 5.286-5.225 5.286h-39.188c-3.645 0-4.982-1.215-4.982-4.86 0-14.704 0-29.346.061-44.049 0-3.828 1.336-5.103 5.164-5.103 12.941-.061 25.882-.061 38.884-.061 3.828 0 5.286 1.458 5.286 5.346.061 7.413 0 14.764 0 22.177z" fill="red"/><path d="M97.905 75.318c-.85.972-1.701 2.612-3.038 3.28a2833.778 2833.778 0 0 1-36.514 17.013c-2.613 1.215-4.8.06-6.258-3.038-4.678-10.025-9.357-20.11-14.035-30.196-1.519-3.281-3.099-6.562-4.496-9.904-1.215-2.916-.486-4.86 2.37-6.197 11.908-5.65 23.938-11.24 35.907-16.83 2.734-1.275 4.982-.546 6.258 2.249 6.379 13.488 12.698 27.097 19.016 40.646.365.668.426 1.519.79 2.977z" fill="#CEAB5A"/><path d="M68.499 66.629c1.337.85 2.066 1.458 2.855 1.823 3.16 1.336 6.44 2.308 9.478-.061 3.16-2.43 3.22-5.833 2.31-9.357-.305-1.032-.73-2.126-1.277-3.037-3.16-5.59-7.655-5.772-11.24-.486-.06.06-.303.06-.486.06.304-5.954-1.033-9.113-4.192-10.024-3.888-1.094-10.875 2.005-12.334 5.832-.546 1.52-.425 3.585.122 5.165.608 1.7 2.005 3.159 2.552 3.949-4.314.121-6.38 1.58-6.805 5.468-.425 4.435 3.22 9.72 7.534 10.936 2.916.79 5.407-.182 6.926-2.491 1.337-2.066 2.005-4.557 2.916-6.866.243-.06.547-.06.79-.121.486 3.828.972 7.655 1.58 12.03 2.248-1.033 5.043-2.248 8.506-3.828-5.59-2.552-7.291-4.253-9.235-8.992z" fill="#040004"/><path d="M97.723 130.609v21.264c0 4.01-1.276 5.286-5.225 5.286H53.31c-3.645 0-4.982-1.215-4.982-4.86 0-14.703 0-29.346.06-44.049 0-3.827 1.337-5.103 5.165-5.103 12.941-.061 25.882-.061 38.884-.061 3.828 0 5.286 1.458 5.286 5.347.06 7.412 0 14.763 0 22.176z" fill="red"/><path d="M153.984 130.609v21.264c0 4.01-1.276 5.286-5.225 5.286h-39.188c-3.645 0-4.982-1.215-4.982-4.86 0-14.703 0-29.346.061-44.049 0-3.827 1.336-5.103 5.164-5.103 12.941-.061 25.882-.061 38.884-.061 3.828 0 5.286 1.458 5.286 5.347.061 7.412 0 14.763 0 22.176z" fill="#CEAB5A"/><path d="M129.925 139.358c.303-.182.607-.365.85-.547.304.365.608.729.972 1.094 4.922 4.8 11.909 3.463 14.643-2.856 2.187-5.043 1.032-9.356-3.585-12.819-4.618-3.463-9.296-6.866-13.427-9.964-3.22 2.43-6.805 5.164-10.39 7.837-1.701 1.276-3.584 2.37-5.042 3.828-3.767 3.828-3.22 10.875.972 14.764 3.706 3.402 8.749 2.855 12.576-1.276.183-.243.486-.365 1.276-.912-.486 2.066-.607 3.585-1.215 4.922-.607 1.397-1.701 2.551-2.916 4.253h9.478c-1.458-2.917-2.856-5.651-4.192-8.324z" fill="#040004"/><path d="M129.376 59.583c1.215-1.519 2.127-2.855 3.281-4.01 4.131-4.07 9.903-3.28 12.759 1.762 3.524 6.076 2.248 13.306-3.16 17.802-2.248 1.883-4.799 3.402-6.926 5.407-2.126 1.944-3.949 4.314-5.407 5.954-4.496-3.706-8.931-7.412-13.367-11.118-5.285-4.435-6.561-12.212-2.977-18.166 3.281-5.347 9.357-5.833 13.367-1.033.911.972 1.519 2.126 2.43 3.402zm-38.52 70.965c-.546.729-.91 1.458-1.457 2.004-4.74 4.739-9.478 9.357-14.217 14.157-1.64 1.701-3.038 1.519-4.618-.061a2966.45 2966.45 0 0 0-14.034-13.792c-1.64-1.579-1.762-2.916-.061-4.556 4.86-4.739 9.66-9.478 14.46-14.278 1.215-1.215 2.37-1.398 3.706-.122 5.043 4.982 10.085 9.904 15.128 14.886.426.364.669 1.032 1.094 1.762z" fill="#fff"/><defs><radialGradient id="paint0_radial" cx="0" cy="0" r="1" gradientUnits="userSpaceOnUse" gradientTransform="rotate(45) scale(282.843)"><stop stop-color="#525252"/><stop offset="1"/></radialGradient></defs></svg>