<svg width="200" height="200" fill="none" xmlns="http://www.w3.org/2000/svg"><path d="M200 0H0v200h200V0z" fill="url(#paint0_radial)"/><path d="M82.154 79.403c-.447.284-.772.73-.975 1.299l-16.077 40.072h2.03c.528 0 1.015-.162 1.502-.446.487-.325.853-.772 1.096-1.381l15.997-39.99h-1.99c-.609 0-1.137.121-1.583.446zm69.426-40.235H48.537c-5.156 0-9.379 4.222-9.379 9.379v103.002c0 5.197 4.223 9.379 9.42 9.379H151.58c5.197 0 9.419-4.222 9.419-9.379V48.547c-.04-5.157-4.263-9.379-9.419-9.379zm4.71 109.864a7.26 7.26 0 0 1-7.268 7.268H51.095a7.26 7.26 0 0 1-7.268-7.268V51.104a7.26 7.26 0 0 1 7.268-7.267h97.887a7.26 7.26 0 0 1 7.267 7.267v97.928h.041zm-38.976-49.695a15.53 15.53 0 0 0 3.288-1.624c.893-.608 1.665-1.34 2.233-2.11.569-.772 1.015-1.584 1.259-2.477.284-.894.406-1.787.406-2.761 0-1.746-.284-3.33-.893-4.71-.609-1.42-1.543-2.598-2.842-3.613-1.3-.975-2.964-1.746-5.035-2.274-2.03-.528-4.547-.812-7.43-.812H92.75v42.224h16.89c2.517 0 4.791-.324 6.74-.974 1.989-.65 3.613-1.543 4.994-2.68a11.4 11.4 0 0 0 3.045-4.06c.69-1.542 1.055-3.207 1.055-5.034 0-2.395-.649-4.344-1.989-5.846-1.34-1.503-3.411-2.599-6.171-3.248zm-14.738-13.073h5.765c1.096 0 2.071.081 2.842.244.812.162 1.462.446 1.989.852.528.406.894.934 1.178 1.624.243.65.365 1.503.365 2.518s-.162 1.867-.487 2.558c-.325.69-.771 1.218-1.38 1.583-.609.406-1.34.65-2.233.812a16.38 16.38 0 0 1-2.924.243h-5.115V86.264zm12.951 23.995a4.07 4.07 0 0 1-.974 1.786c-.487.528-1.096.934-1.949 1.259-.812.325-1.868.487-3.167.487h-6.902v-10.515h6.862c1.258 0 2.273.122 3.085.365.812.244 1.462.569 1.949.975.487.406.853.933 1.056 1.583.203.609.324 1.299.324 2.071 0 .649-.121 1.339-.284 1.989z" fill="#fff"/><defs><radialGradient id="paint0_radial" cx="0" cy="0" r="1" gradientUnits="userSpaceOnUse" gradientTransform="rotate(45) scale(282.843)"><stop stop-color="#C83855"/><stop offset=".531" stop-color="#B43C62"/><stop offset="1" stop-color="#544FA4"/></radialGradient></defs></svg>