<svg width="20" height="20" fill="none" xmlns="http://www.w3.org/2000/svg"><g clip-path="url(#clip0)"><path opacity=".7" fill-rule="evenodd" clip-rule="evenodd" d="M10 20c5.523 0 10-4.477 10-10S15.523 0 10 0C4.479 0 0 4.477 0 10s4.478 10 10 10zM9.298 9.651H4.352A.35.35 0 014 9.303V6.279a.35.35 0 01.323-.347l4.945-.407a.352.352 0 01.38.347v3.43a.35.35 0 01-.35.35zm1.407 0h4.945A.35.35 0 0016 9.302V5.35A.352.352 0 0015.62 5l-4.945.407a.35.35 0 00-.323.348v3.546a.35.35 0 00.352.35zM15.649 15l-.03-.001-4.944-.407a.35.35 0 01-.323-.348v-3.546a.35.35 0 01.352-.35h4.945a.35.35 0 01.351.35v3.953a.348.348 0 01-.351.349zm-6.38-.524a.354.354 0 00.266-.091.347.347 0 00.114-.257v-3.43a.35.35 0 00-.352-.349H4.352a.35.35 0 00-.352.349v3.023c0 .182.14.333.323.348l4.945.407z" fill="#fff"/></g><defs><clipPath id="clip0"><path fill="#fff" d="M0 0h20v20H0z"/></clipPath></defs></svg>