<svg width="20" height="20" fill="none" xmlns="http://www.w3.org/2000/svg"><g opacity=".7" fill="#fff" clip-path="url(#clip0)"><path d="M8.818 11.917c-.83 0-1.335-.757-1.335-1.832 0-1.066.489-1.864 1.327-1.864.855 0 1.327.847 1.327 1.832 0 1.066-.48 1.864-1.319 1.864z"/><path fill-rule="evenodd" clip-rule="evenodd" d="M20 10c0 5.523-4.477 10-10 10-5.522 0-10-4.477-10-10S4.478 0 10 0c5.523 0 10 4.477 10 10zM8.753 12.902c1.604 0 2.695-1.09 2.695-2.89 0-1.514-.92-2.776-2.605-2.776-1.62 0-2.67 1.23-2.67 2.874 0 1.563.952 2.792 2.58 2.792zm3.55-1.368c.333.171.846.342 1.375.342.57 0 .87-.236.87-.594 0-.342-.26-.537-.92-.773-.91-.318-1.505-.823-1.505-1.62 0-.936.781-1.653 2.076-1.653.618 0 1.074.13 1.4.277l-.277 1.001c-.22-.105-.61-.26-1.148-.26-.537 0-.797.244-.797.529 0 .35.309.505 1.017.773.969.359 1.425.863 1.425 1.637 0 .92-.709 1.7-2.215 1.7-.626 0-1.245-.162-1.554-.333l.252-1.026zm-7.538-3.19c.407 0 .667-.277.667-.62-.008-.357-.26-.626-.66-.626-.398 0-.659.269-.65.627-.008.342.252.619.643.619zm-.611.488v3.98H5.39v-3.98H4.154z"/></g><defs><clipPath id="clip0"><path fill="#fff" d="M0 0h20v20H0z"/></clipPath></defs></svg>