<svg width="20" height="20" fill="none" xmlns="http://www.w3.org/2000/svg"><path d="M10 0C4.473 0 0 4.473 0 10s4.473 10 10 10 10-4.473 10-10S15.527 0 10 0zm0 18.438A8.433 8.433 0 0 1 1.562 10 8.433 8.433 0 0 1 10 1.562 8.433 8.433 0 0 1 18.438 10 8.433 8.433 0 0 1 10 18.438zm5.22-7.342l-.931.932.931.932a.781.781 0 0 1-1.104 1.105l-.932-.932-.932.932a.781.781 0 1 1-1.105-1.105l.932-.932-.932-.932a.781.781 0 1 1 1.105-1.105l.932.932.931-.932a.781.781 0 1 1 1.105 1.105zm1.401-3.437c0 .432-.35.782-.781.782H9.93L8.118 14.14c-.215.677-1.15.738-1.452.095L4.893 10.45H4.16a.781.781 0 1 1 0-1.562h1.23c.303 0 .578.175.707.45l1.137 2.425 1.38-4.341a.781.781 0 0 1 .744-.545h6.482c.431 0 .781.35.781.781z" fill="#999"/></svg>