<svg width="62" height="20" fill="none" xmlns="http://www.w3.org/2000/svg"><path d="M46.829 8.819c-.189 1.238-1.134 1.238-2.048 1.238h-.52l.364-2.312a.287.287 0 0 1 .284-.242h.239c.622 0 1.21 0 1.513.354.181.213.236.527.168.962zm-.398-3.23h-3.449a.48.48 0 0 0-.474.405l-1.393 8.842a.288.288 0 0 0 .283.332h1.77c.165 0 .306-.12.331-.283l.396-2.508a.48.48 0 0 1 .473-.404h1.091c2.272 0 3.583-1.099 3.925-3.278.155-.952.007-1.701-.44-2.225-.49-.576-1.36-.881-2.513-.881" fill="#fff"/><path d="M22.232 8.821c-.188 1.238-1.134 1.238-2.048 1.238h-.52l.364-2.311a.287.287 0 0 1 .284-.242h.239c.622 0 1.21 0 1.513.354.182.212.236.527.168.961zm-.398-3.23h-3.448a.48.48 0 0 0-.474.405l-1.394 8.842a.288.288 0 0 0 .284.332h1.647a.48.48 0 0 0 .473-.404l.376-2.386a.479.479 0 0 1 .474-.404h1.09c2.273 0 3.583-1.1 3.926-3.278.154-.953.006-1.702-.44-2.226-.49-.576-1.36-.881-2.514-.881zm8.006 6.405c-.16.943-.908 1.577-1.863 1.577-.48 0-.863-.154-1.11-.446-.244-.29-.335-.701-.258-1.16.148-.935.91-1.589 1.85-1.589.47 0 .85.156 1.101.45.253.297.353.711.28 1.168zm2.302-3.215H30.49a.287.287 0 0 0-.284.243l-.072.462-.116-.167c-.357-.52-1.155-.693-1.95-.693-1.825 0-3.383 1.383-3.686 3.321-.158.968.066 1.893.615 2.538.503.593 1.222.84 2.08.84 1.47 0 2.285-.945 2.285-.945l-.073.459a.287.287 0 0 0 .284.332h1.486a.48.48 0 0 0 .474-.405l.893-5.652a.287.287 0 0 0-.285-.332" fill="#B0B0B0"/><path d="M54.438 11.992c-.16.943-.909 1.577-1.864 1.577-.479 0-.863-.154-1.109-.446-.245-.289-.336-.701-.259-1.16.149-.935.91-1.589 1.85-1.589.47 0 .85.156 1.102.45.253.297.352.711.28 1.168zm2.301-3.215h-1.651a.288.288 0 0 0-.285.243l-.072.462-.116-.167c-.357-.52-1.154-.693-1.95-.693-1.824 0-3.382 1.383-3.686 3.321-.158.968.067 1.893.615 2.538.504.592 1.223.84 2.08.84 1.471 0 2.287-.945 2.287-.945l-.074.459a.287.287 0 0 0 .283.332h1.486a.48.48 0 0 0 .474-.405l.893-5.652a.289.289 0 0 0-.284-.332" fill="#fff"/><path d="M40.937 8.778h-1.66a.477.477 0 0 0-.396.21l-2.29 3.373-.97-3.24a.48.48 0 0 0-.46-.343h-1.63a.288.288 0 0 0-.273.38l1.828 5.365-1.72 2.426a.288.288 0 0 0 .235.453h1.659a.48.48 0 0 0 .393-.206l5.52-7.966a.287.287 0 0 0-.236-.452z" fill="#B0B0B0"/><path d="M58.685 5.832l-1.416 9.004a.289.289 0 0 0 .284.332h1.423a.48.48 0 0 0 .474-.405l1.396-8.842a.287.287 0 0 0-.284-.332h-1.593a.287.287 0 0 0-.284.242" fill="#fff"/><path d="M5.12 5.431a.626.626 0 0 1 .617-.528h3.917c.463 0 .896.03 1.291.094.216.035.43.082.64.143.24.067.47.16.69.275.197-1.25 0-2.101-.677-2.872-.745-.848-2.09-1.212-3.81-1.212H2.79a.715.715 0 0 0-.706.603L.005 15.125a.429.429 0 0 0 .424.496h3.084l.774-4.913.833-5.277z" fill="#B0B0B0"/><path d="M12.276 5.412a8.05 8.05 0 0 1-.052.293c-.658 3.382-2.912 4.552-5.791 4.552H4.967a.712.712 0 0 0-.704.603l-.75 4.758-.213 1.35a.375.375 0 0 0 .37.434h2.6c.308 0 .57-.224.618-.527l.025-.133.49-3.105.031-.172a.626.626 0 0 1 .618-.527h.39c2.518 0 4.49-1.023 5.066-3.983.24-1.236.115-2.268-.52-2.994a2.483 2.483 0 0 0-.712-.549z" fill="#fff"/><path d="M11.586 5.137a4.537 4.537 0 0 0-.641-.142A8.076 8.076 0 0 0 9.653 4.9H5.737a.624.624 0 0 0-.617.528l-.833 5.278-.024.153a.712.712 0 0 1 .704-.603h1.465c2.88 0 5.134-1.17 5.792-4.552.02-.1.036-.197.051-.293a3.558 3.558 0 0 0-.69-.274" fill="#E5E5E5"/></svg>