<svg width="30" height="30" fill="none" xmlns="http://www.w3.org/2000/svg">
  <g clip-path="url(#kasikorn-color-30px__clip0)">
    <path d="M28 0H2a2 2 0 00-2 2v26a2 2 0 002 2h26a2 2 0 002-2V2a2 2 0 00-2-2z" fill="#00A94F"/>
    <path d="M6.58 15a8.421 8.421 0 1016.841 0A8.421 8.421 0 006.58 15z" fill="#fff"/>
    <path d="M19.713 19.823c-.427-.213-.867-.44-1.549-.44-.6 0-1.081.227-1.548.44-.481.227-.988.454-1.656.454-.588 0-1.041-.2-1.509-.427-.494-.227-.988-.454-1.669-.454-.6 0-1.081.214-1.549.427-.494.227-1.001.454-1.669.454h-.106c.066.08.133.174.213.254.668-.027 1.175-.254 1.67-.467.466-.214.894-.4 1.441-.4.628 0 1.082.213 1.562.44.481.227.975.454 1.616.454.721 0 1.255-.24 1.762-.48.454-.215.895-.415 1.442-.415.615 0 1.015.2 1.443.414.467.227.934.48 1.722.48.08-.08.147-.173.214-.253-.067 0-.134.014-.2.014-.735-.04-1.189-.268-1.63-.495z" fill="#9A8B7D"/>
    <path d="M18.165 19.863c-.601 0-1.082.227-1.549.44-.48.228-.988.455-1.656.455-.587 0-1.041-.2-1.509-.427-.494-.227-.988-.454-1.668-.454-.601 0-1.082.213-1.55.427-.413.187-.84.374-1.375.427.067.08.147.147.214.227.48-.08.868-.253 1.255-.427.467-.214.895-.4 1.442-.4.628 0 1.082.213 1.562.44.481.214.975.454 1.616.454.721 0 1.255-.24 1.762-.48.454-.214.895-.415 1.442-.415.615 0 1.015.2 1.442.414.374.187.748.387 1.296.454.08-.08.147-.16.227-.227-.614-.04-1.015-.24-1.402-.44-.428-.24-.868-.468-1.55-.468z" fill="#9A8B7D"/>
    <path d="M18.165 20.344c-.6 0-1.081.227-1.549.44-.48.227-.988.454-1.655.454-.588 0-1.042-.2-1.51-.427-.493-.227-.987-.454-1.668-.454-.601 0-1.082.214-1.55.427-.306.134-.613.28-.96.36.08.068.146.134.226.201.308-.093.575-.213.842-.334.467-.2.894-.4 1.442-.4.627 0 1.081.213 1.562.44.48.214.975.454 1.615.454.721 0 1.256-.24 1.763-.48.454-.214.895-.414 1.442-.414.614 0 1.015.2 1.442.414.267.133.534.267.868.36.08-.067.16-.133.227-.2-.387-.08-.694-.24-.988-.387-.427-.24-.868-.454-1.549-.454z" fill="#9A8B7D"/>
    <path d="M18.165 20.814c-.6 0-1.081.227-1.549.427-.48.227-.988.454-1.655.454-.588 0-1.042-.213-1.509-.427-.494-.227-.988-.467-1.669-.467-.6 0-1.082.213-1.549.427l-.56.24.226.187c.147-.053.294-.12.44-.187.468-.213.896-.4 1.443-.4.628 0 1.082.213 1.562.44s.975.454 1.616.454c.72 0 1.255-.24 1.762-.48.454-.214.895-.414 1.442-.414.614 0 1.015.2 1.442.414.147.08.294.147.454.213.08-.053.16-.12.227-.187a7.51 7.51 0 01-.574-.267c-.427-.2-.868-.427-1.549-.427z" fill="#9A8B7D"/>
    <path d="M18.165 21.297c-.601 0-1.082.213-1.55.44-.48.228-.987.455-1.655.455-.587 0-1.041-.214-1.509-.428-.494-.227-.988-.454-1.669-.454-.6 0-1.081.214-1.549.428-.053.026-.106.053-.16.066.08.054.16.12.24.174.014 0 .014-.014.027-.014.468-.213.895-.4 1.442-.4.628 0 1.082.214 1.563.44.48.227.974.454 1.615.454.721 0 1.255-.24 1.763-.48.454-.214.894-.414 1.442-.414.614 0 1.014.2 1.442.414.013.013.04.013.053.026l.24-.16a.718.718 0 01-.173-.093c-.44-.227-.881-.454-1.562-.454z" fill="#9A8B7D"/>
    <path d="M16.616 22.206c-.48.227-.988.454-1.655.454-.588 0-1.042-.2-1.51-.427-.493-.227-.987-.454-1.668-.454-.48 0-.895.147-1.282.307.093.054.174.107.267.16.32-.133.64-.227 1.015-.227.627 0 1.081.214 1.562.44.48.228.975.455 1.616.455.72 0 1.255-.24 1.762-.48.454-.214.895-.415 1.442-.415.44 0 .761.094 1.068.24.094-.053.174-.106.254-.16-.36-.173-.761-.333-1.322-.333-.6.013-1.081.227-1.549.44z" fill="#9A8B7D"/>
    <path d="M15 23.39c-4.632 0-8.398-3.765-8.398-8.399 0-4.633 3.766-8.398 8.399-8.398 4.633 0 8.398 3.765 8.398 8.398a8.388 8.388 0 01-8.398 8.399zm0-18.386c-5.527 0-10 4.473-10 10a9.996 9.996 0 0010 10.002c5.515 0 10.002-4.474 10.002-10.001A9.995 9.995 0 0015.001 5.004z" fill="#EE3124"/>
    <path d="M19.674 12.527c-.067.307-.374.641-.548.775-.387.32-2.977 1.896-3.271 2.256-.294.36-.347.895-.347 1.308v3.045h.4v-.788c0-.267.147-.694.468-1.015.534-.56 1.775-1.255 2.577-1.842.68-.494.72-1.162.72-1.75v-2.082.093z" fill="#00A94F"/>
    <path d="M15.521 15.363c.28-.36 2.951-1.989 3.338-2.296.387-.307.828-.788.828-1.389V8.273c0 .481-.267.842-.614 1.296-.387.52-2.19 1.482-3.071 2.11-.881.627-1.188 1.241-1.188 2.015v6.222h.4v-3.244c-.013-.414.013-.948.307-1.309zm-2.029-3.507c-.814-.627-2.47-1.962-2.67-2.23-.187-.266-.628-.747-.628-1.321v3.164c0 .454.214 1.269 1.002 1.843.787.574 1.896 1.415 2.23 1.749.333.334.64.934.64 1.802v3.058h.401v-6.075c.013-1.002-.16-1.375-.975-1.99z" fill="#00A94F"/>
  </g>
  <defs>
    <clipPath id="kasikorn-color-30px__clip0">
      <path fill="#fff" d="M0 0h30v30H0z"/>
    </clipPath>
  </defs>
</svg>
