<svg width="20" height="20" fill="none" xmlns="http://www.w3.org/2000/svg"><path d="M18.17 10.332a.609.609 0 0 1 0-.664l.73-1.123a1.914 1.914 0 0 0-.92-2.831l-1.251-.48a.61.61 0 0 1-.39-.536l-.07-1.338a1.914 1.914 0 0 0-2.408-1.75l-1.294.348a.61.61 0 0 1-.631-.206L11.094.711a1.914 1.914 0 0 0-2.978 0l-.842 1.042a.61.61 0 0 1-.631.205L5.349 1.61a1.914 1.914 0 0 0-2.408 1.75l-.07 1.338a.61.61 0 0 1-.39.537l-1.25.479a1.914 1.914 0 0 0-.92 2.831l.73 1.123a.61.61 0 0 1 0 .664l-.73 1.123a1.914 1.914 0 0 0 .92 2.831l1.25.48a.61.61 0 0 1 .39.537l.07 1.337a1.914 1.914 0 0 0 2.409 1.75l1.293-.348a.61.61 0 0 1 .631.205l.842 1.042a1.914 1.914 0 0 0 2.978 0l.842-1.042a.61.61 0 0 1 .631-.205l1.294.348a1.914 1.914 0 0 0 2.409-1.75l.069-1.338a.61.61 0 0 1 .39-.537l1.25-.479a1.914 1.914 0 0 0 .92-2.831l-.73-1.123zm-.657 2.735l-1.251.479a1.916 1.916 0 0 0-1.227 1.69l-.07 1.337a.609.609 0 0 1-.765.556l-1.294-.347a1.915 1.915 0 0 0-1.986.645l-.841 1.041a.609.609 0 0 1-.947 0l-.842-1.041a1.916 1.916 0 0 0-1.986-.645l-1.294.347a.609.609 0 0 1-.766-.556l-.069-1.338a1.916 1.916 0 0 0-1.227-1.689l-1.25-.479a.609.609 0 0 1-.293-.9l.73-1.123a1.916 1.916 0 0 0 0-2.088l-.73-1.123a.609.609 0 0 1 .292-.9l1.251-.479a1.916 1.916 0 0 0 1.227-1.69l.07-1.337a.609.609 0 0 1 .765-.556l1.294.347c.73.197 1.51-.056 1.986-.645l.842-1.041a.609.609 0 0 1 .947 0l.841 1.041a1.915 1.915 0 0 0 1.986.645l1.294-.347c.375-.101.746.17.766.556l.069 1.338c.039.755.52 1.418 1.227 1.689l1.25.479a.609.609 0 0 1 .293.9l-.73 1.123a1.916 1.916 0 0 0 0 2.088l.73 1.122a.609.609 0 0 1-.292.901z"/><path d="M12.866 6.674a.653.653 0 0 0-.923 0l-6.092 6.092a.653.653 0 0 0 .923.923l6.092-6.092a.653.653 0 0 0 0-.923zm-5.901-.192a1.307 1.307 0 0 0 0 2.611c.72 0 1.305-.585 1.305-1.305s-.585-1.306-1.305-1.306zm4.787 4.787a1.307 1.307 0 0 0 0 2.611c.72 0 1.305-.586 1.305-1.305 0-.72-.585-1.306-1.305-1.306z"/></svg>