<svg width="16" height="16" fill="none" xmlns="http://www.w3.org/2000/svg"><path d="M2.375 7.5a1.4 1.4 0 0 0 .973-.395l1.388.693c-.007.057-.017.112-.017.17 0 .776.63 1.407 1.406 1.407.775 0 1.406-.63 1.406-1.406 0-.217-.053-.42-.14-.603l1.882-1.882c.183.088.386.141.602.141.775 0 1.406-.63 1.406-1.406 0-.146-.028-.284-.07-.417l1.636-1.226a1.408 1.408 0 0 0 2.185-1.17 1.408 1.408 0 0 0-2.812 0c-.001.146.027.284.069.417l-1.636 1.226a1.408 1.408 0 0 0-2.185 1.17c0 .216.054.419.142.602L6.727 6.703a1.39 1.39 0 0 0-.602-.14 1.4 1.4 0 0 0-.973.395l-1.388-.694c.007-.056.017-.112.017-.17 0-.776-.63-1.407-1.406-1.407a1.408 1.408 0 0 0 0 2.813z" fill="#AAA"/><path d="M15.531 15.063h-.5V5.155a.469.469 0 0 0-.469-.468h-1.874a.469.469 0 0 0-.47.468v9.907h-.937V7.968a.469.469 0 0 0-.469-.469H8.938a.469.469 0 0 0-.47.469v7.093h-.937V11.72c0-.26-.21-.469-.468-.469H5.188a.469.469 0 0 0-.47.469v3.344h-.937v-5.22a.469.469 0 0 0-.469-.468H1.438a.469.469 0 0 0-.47.469v5.219h-.5a.469.469 0 1 0 0 .937h15.063a.469.469 0 1 0 0-.938z" fill="#AAA"/></svg>