<svg width="20" height="20" xmlns="http://www.w3.org/2000/svg"><path d="M17.657 9.057a16.771 16.771 0 0 0-1.371-.404V6.286A6.293 6.293 0 0 0 10 0a6.293 6.293 0 0 0-6.286 6.286v2.367c-.823.211-1.319.386-1.37.404l-.39.14v9.457l.39.139C2.48 18.843 5.766 20 10 20c4.232 0 7.519-1.158 7.657-1.207l.388-.139V9.196l-.388-.139zM4.886 6.287A5.12 5.12 0 0 1 10 1.171a5.12 5.12 0 0 1 5.114 5.114v2.097c-.47-.097-.994-.191-1.562-.273V6.286A3.556 3.556 0 0 0 10 2.734a3.556 3.556 0 0 0-3.552 3.552V8.11a26.43 26.43 0 0 0-1.562.273V6.286zm7.494 1.681A24.49 24.49 0 0 0 10 7.85c-.836 0-1.635.046-2.38.118V6.286A2.383 2.383 0 0 1 10 3.906a2.382 2.382 0 0 1 2.38 2.38v1.682zm4.493 9.846A24.714 24.714 0 0 1 10 18.828c-3.208 0-5.9-.718-6.874-1.014v-7.778A24.64 24.64 0 0 1 10 9.022c3.208 0 5.9.718 6.873 1.014v7.778z"/><path d="M8.242 12.852c0 .763.49 1.415 1.172 1.657v1.663h1.172V14.51a1.76 1.76 0 0 0 1.172-1.657A1.76 1.76 0 0 0 10 11.094a1.76 1.76 0 0 0-1.758 1.758zm2.344 0a.587.587 0 1 1-1.173-.002.587.587 0 0 1 1.173.002z"/></svg>