<svg width="75" height="72" fill="none" xmlns="http://www.w3.org/2000/svg"><path d="M73.39 36c0 19.882-16.067 36-35.888 36-19.82 0-35.889-16.118-35.889-36S17.681 0 37.502 0c19.82 0 35.889 16.118 35.889 36z" fill="#56679C"/><path d="M29.297 53.485c0 2.84-2.296 5.143-5.127 5.143-2.832 0-5.127-2.303-5.127-5.143s2.295-5.143 5.127-5.143c2.831 0 5.127 2.303 5.127 5.143zm12.451 13.96a3.668 3.668 0 0 0-3.662 3.673c0 .301.036.595.105.875a35.861 35.861 0 0 0 7.22-.87v-.005a3.668 3.668 0 0 0-3.663-3.674zm13.916-36c0 2.84 2.295 5.142 5.127 5.142s5.127-2.302 5.127-5.143c0-2.84-2.295-5.142-5.127-5.142-2.831 0-5.127 2.302-5.127 5.142zm13.483-12.44a5.139 5.139 0 0 0-4.4 5.093c0 2.84 2.294 5.142 5.126 5.142a5.092 5.092 0 0 0 2.726-.786 35.826 35.826 0 0 0-3.453-9.448zM44.577.7a6.603 6.603 0 0 0-.632 2.827c0 3.652 2.952 6.612 6.592 6.612 2.906 0 5.372-1.886 6.25-4.504A35.61 35.61 0 0 0 44.577.7z" fill="#6B7DB4"/><path d="M67.383 26.302a2.934 2.934 0 0 1 2.93 2.939 2.934 2.934 0 0 1-2.93 2.938 2.934 2.934 0 0 1-2.93-2.938 2.934 2.934 0 0 1 2.93-2.94zM63.28 16.016c0 3.246 2.624 5.878 5.86 5.878S75 19.262 75 16.016s-2.623-5.877-5.86-5.877c-3.235 0-5.859 2.631-5.859 5.877z" fill="#6B7DB4"/><path d="M70.313 29.24c0 .432-.093.841-.26 1.21a2.934 2.934 0 0 1-4.135-2.679c0-.43.092-.84.259-1.21a2.934 2.934 0 0 1 4.135 2.679zM69.14 10.14c-.9 0-1.751.203-2.512.566a5.868 5.868 0 0 0-.565 2.52c0 3.245 2.624 5.877 5.86 5.877a5.82 5.82 0 0 0 2.512-.566 5.868 5.868 0 0 0 .564-2.52c0-3.246-2.623-5.877-5.86-5.877z" fill="#475687"/><path d="M18.888 35.42c.137.374.137.787 0 1.16A36.759 36.759 0 0 1 8.766 51.433c-.25-3.23-2.566-5.936-5.74-7.006a113.6 113.6 0 0 0 1.784-8.113c.038-.207.038-.42 0-.627C3.665 29.412 2.074 23.544.112 18.223c-.553-1.501 1.051-2.898 2.44-2.108A36.787 36.787 0 0 1 18.887 35.42zm13.943.747a31.414 31.414 0 0 0 12.594-15.668c.117-.32.117-.672 0-.99a31.414 31.414 0 0 0-13.95-16.486c-1.185-.674-2.555.518-2.083 1.8 1.676 4.544 3.034 9.555 4.012 14.913.032.176.032.358 0 .535-.978 5.358-2.336 10.369-4.012 14.913-.127.345-.12.685-.02.983-.1.298-.107.637.02.983 1.676 4.543 3.034 9.554 4.012 14.912.032.177.032.359 0 .536-.978 5.357-2.336 10.369-4.012 14.912-.472 1.282.898 2.475 2.083 1.8a31.414 31.414 0 0 0 13.95-16.485c.117-.32.117-.671 0-.99a31.414 31.414 0 0 0-12.594-15.668z" fill="#F57E00"/><path d="M11.93 32.375c-1.623-1.628-2.693-3.312-2.734-4.197.882.042 2.56 1.114 4.184 2.742.263.264.511.53.743.792a33.34 33.34 0 0 0-.806 1.913 16.945 16.945 0 0 1-1.387-1.25zm.57 3.624c.244-.804-1.014-1.028-1.513-1.028-2.295 0-4.239.432-4.892 1.028.583.532 2.238.933 4.217 1.014.24.01.634.236.424.587-.834 1.394-3.326 4.844-7.196 4.762-.233.976-.477 1.939-.731 2.89a35.838 35.838 0 0 0 3.347 8.293 36.848 36.848 0 0 0 9.503-10.313A33.26 33.26 0 0 1 12.501 36z" fill="#EF5300"/><path d="M63.281 36C59.572 48.248 49.431 57.038 37.5 57.038c-11.93 0-22.072-8.79-25.781-21.038 3.709-12.248 13.85-21.04 25.781-21.04 11.93 0 22.072 8.792 25.781 21.04z" fill="#FDED32"/><path d="M63.281 36C59.572 48.248 49.431 57.04 37.5 57.04c-11.93 0-22.072-8.79-25.781-21.039.035-.116.07-.232.107-.348 5.82 7.7 15.153 12.691 25.674 12.691 2.687 0 5.158-.298 7.418-.803a.734.734 0 0 0 .37-1.221c-2.667-2.794-4.272-6.392-4.272-10.319 0-6.235 4.048-11.642 9.967-14.313a.54.54 0 0 1 .585.095l.007.006c.23.209.24.567.02.788-3.385 3.416-5.484 8.169-5.484 13.425 0 3.34.848 6.478 2.336 9.199a1.459 1.459 0 0 0 1.841.638 32.592 32.592 0 0 0 6.686-3.773c.515-.376.335-1.178-.288-1.313-2.546-.552-4.936-2.015-6.787-4.15a.394.394 0 0 1-.056-.428l.003-.006a.395.395 0 0 1 .542-.18 13.723 13.723 0 0 0 10.47 1.009 13.998 13.998 0 0 0 2.4-.977c.014-.016.022-.023.023-.02zM39.475 46.408c.142.065.31.037.425-.068l.005-.005a.397.397 0 0 0 .015-.572A13.827 13.827 0 0 1 35.932 36c0-3.822 1.526-7.278 3.988-9.762a.397.397 0 0 0-.015-.573l-.005-.005a.392.392 0 0 0-.425-.069C35.17 27.534 32.227 31.466 32.227 36c0 4.535 2.943 8.467 7.248 10.408z" fill="#FDB44C"/><path d="M55.664 29.976a2.2 2.2 0 0 1-2.197 2.204 2.2 2.2 0 0 1-2.197-2.204 2.2 2.2 0 0 1 2.197-2.204 2.2 2.2 0 0 1 2.197 2.204z" fill="#82665C"/></svg>