<svg width="200" height="200" fill="none" xmlns="http://www.w3.org/2000/svg"><path d="M200 0H0v200h200V0z" fill="#000"/><path d="M63.767 30.826c-2.493-2.221-5.633-2.221-9.05 0-5.54 4.903-10.711 10.64-10.711 19.614 0 1.85 1.015 7.216 4.155 7.216 2.216-.37 3.417-1.018 3.97-2.035.647-1.296-.184-2.868-1.107-4.719-.74-1.388-1.478-2.868-1.663-4.348 0-1.11.832-5.181 3.14-5.181 4.802 0 6.002 8.882 6.556 13.137-.092.093-.277.186-.369.278-4.432 1.943-24.563 12.028-24.563 28.033 0 7.772 4.34 15.636 12.559 15.729.646.092 1.292.092 1.846.092 6.187 0 11.45-4.533 15.422-13.138 8.218-17.763 8.126-47.462-.185-54.678zm-9.696 59.86c-1.662 1.942-3.601 2.96-5.725 3.053-3.602 0-6.464-4.996-6.464-8.327 0-8.697 10.342-25.073 17.452-25.72 1.108 8.789.277 24.332-5.263 30.994zm49.032-39.228h.277c1.754.093 3.232-.647 3.97-2.035 1.016-1.85.831-4.626-.369-6.476-.831-1.203-1.939-1.85-3.232-1.666-1.755-.092-3.232.648-4.155 2.036-1.109 1.758-1.2 4.348-.093 6.106.739 1.295 2.032 2.035 3.602 2.035zm58.453 18.872c-.646.278-1.847 1.018-3.047 1.85-1.108.74-2.77 1.758-3.602 2.128-.184-1.85.093-4.533.37-7.309.646-5.828 1.293-11.935-2.586-12.86h-.184c-6.003.093-5.91 7.032-5.91 13.693.092 5.551.092 11.287-3.14 13.138-1.754-1.85-1.016-10.918-.554-17.024.277-3.515.462-6.476.369-8.049 0-.277-.092-.555-.277-.74-.646-.648-2.216-.833-3.139-.833-5.449.278-5.541 1.943-5.726 6.94-.092 1.017-.092 2.22-.184 3.7 0 4.348.184 8.234.646 11.472-4.525 4.071-8.218 5.644-10.712 4.441-3.324-1.573-3.878-7.679-3.416-12.305.646-5.273 2.585-9.437 4.617-9.9 1.385-.277 2.585 1.11 3.417 2.499.184 2.128.923 2.59 1.477 2.59 1.108-.092 2.216-2.128 2.216-4.256 0-1.203-.461-5.088-6.002-5.273-7.11.185-12.374 4.256-14.405 11.287-1.016 3.33-1.108 6.939-.462 10.177-.277.185-.554.463-.831.648-1.108.833-2.863 2.22-3.601 2.498l.831-22.205c-.185-1.573-2.678-2.128-4.895-2.128-2.123 0-4.432.555-4.432 2.128 0 7.494.092 11.103.092 14.248 0 1.573.093 3.053.093 4.811-.185.093-.37.278-.554.37-1.109.833-3.048 2.313-3.602 2.406 0-1.666.185-5.551.37-11.843.092-2.96.277-6.384.369-10.454 0-1.203-1.108-1.943-3.047-2.22-1.94-.186-4.894.184-5.264 1.665v.092c0 9.715 0 21.834-4.617 22.112-.923-1.018-.739-10.64-.554-15.266.092-3.33.185-6.013 0-6.846a.802.802 0 0 0-.37-.648c-1.2-.925-6.094-1.017-7.756-.277-.554.277-.739.647-.739.925-.092 2.405-.462 20.262-.462 23.13.093 3.7 2.032 6.199 5.264 6.661.37.093.646.093 1.016.093 2.77 0 6.002-1.573 7.664-4.534.554 2.96 1.847 4.349 4.063 4.349 3.047 0 5.91-2.22 8.219-4.534.184 2.128.83 4.534 3.601 4.534 3.786 0 7.295-3.239 10.25-6.014 1.016 2.22 2.401 4.163 4.155 5.366 1.663 1.11 3.509 1.758 5.541 1.758 3.324 0 7.018-1.48 10.896-4.441.739-.648 1.478-1.203 2.124-1.85 1.108 5.088 2.955 7.864 5.264 7.864 4.524-.093 6.464-2.406 7.387-4.904-.092 5.829-.831 11.843-5.079 11.843-1.108 0-1.385-.555-1.662-1.666-.185-.832-.554-2.035-2.031-2.035-1.478 0-2.771 1.295-2.771 2.776 0 3.145 2.955 4.718 5.818 4.718 7.11 0 11.727-7.31 11.912-18.596 0-.926 4.155-3.701 6.372-5.274 1.2-.833 2.216-1.48 2.862-2.035l.37-.278-1.847-2.776-.185.463zm12.967 61.979l-.461.648c-.277.463-.924 1.758-1.755 3.423-1.2 2.498-3.601 7.494-4.525 8.512v-1.388c0-3.516-1.847-6.199-3.878-8.974-2.124-2.961-4.433-6.199-5.079-11.288l-.092-.37h-2.494l-.092.37c-.554 3.424-1.108 5.737-1.57 7.495-1.108 4.163-1.292 5.551 1.755 10.177a53.36 53.36 0 0 1-3.232 3.238c-.37-.185-.739-.185-1.108.092-.462.278-.831 1.018-1.016 1.851-4.709 3.793-7.757 4.071-9.511 3.33-2.494-.925-3.971-4.348-4.063-9.159-.093-6.106 2.216-12.028 5.078-13.323 1.94.093 2.955 2.128 3.048 3.886.092 1.388-.37 2.961-1.57 3.146-.462.092-1.201-.463-2.032-.926-.277-.185-.646-.37-.923-.555l-.092-.092h-.093c-.738 0-1.292.74-1.569 1.48-.278.833-.093 1.573.369 1.943 4.617 4.534 7.664 3.978 9.049 3.238 2.309-1.203 3.417-4.718 2.771-8.419-.647-3.423-3.048-7.309-7.849-7.957h-.093c-6.925 0-12.097 3.886-14.313 10.733-1.2 3.7-1.293 7.586-.554 11.102-.092.092-.185.185-.277.185-1.293.833-3.232 2.313-3.971 2.59h-.092c-.923-.092-5.448-8.419-5.725-11.009 4.155-4.071 6.002-8.235 4.894-11.288-.554-1.573-1.847-2.59-3.601-2.775-2.401-.185-5.91 1.388-9.05 6.199.185-8.882.739-14.433 1.108-18.227.647-6.569.739-7.216-3.509-8.419h-.092c-1.478 0-6.002 0-6.095 2.961-.092 7.031-.184 10.917-.277 13.507-.092 3.979-.092 4.996-.092 9.622 0 6.477.092 11.195.092 15.729v1.758c-.923.74-2.031 1.48-2.678 1.757 0-4.348.185-8.326.37-12.212.184-3.331.277-6.569.277-9.53v-.092c-.185-.833-.647-1.48-1.293-1.851-1.847-1.11-4.986-.092-6.926.556-.277.092-.461.185-.646.185-6.372-.278-11.45 3.238-13.944 9.807-1.2 3.145-1.57 6.569-1.293 9.714-.461.37-1.015.74-1.57 1.203-1.108.833-2.677 1.943-3.508 2.405.184-5.181.369-9.344.554-12.675.092-2.868.277-5.273.277-7.309 1.662.463 3.324.185 4.063-.647.37-.463.646-1.388-.554-2.868l-.093-.093-3.14-.833c.185-4.811.462-5.551.37-5.551l.092-.185-.092-.185c-.554-1.665-3.694-2.498-6.094-2.22-1.57.185-2.77.74-3.417 1.665v-1.018c0-8.974-10.25-14.433-17.638-14.433-5.355 0-10.711 1.481-14.682 4.164-3.324 2.128-7.295 6.106-7.295 12.582 0 9.53 8.034 14.063 15.052 18.134 5.079 2.868 9.511 5.366 9.511 9.067 0 2.59-1.662 3.978-4.986 3.978-4.063 0-5.264-2.405-6.28-4.163-.461-.925-.923-1.758-1.662-1.758-1.847 0-2.862 2.221-2.862 4.348.83 4.441 3.97 7.032 8.403 7.032.554 0 1.108 0 1.754-.093 6.464-.925 13.205-7.031 12.559-14.248 0-7.586-7.48-12.12-13.482-15.728-1.2-.74-2.401-1.388-3.325-2.035-3.97-4.071-5.078-8.142-3.14-11.473 2.31-3.978 8.496-6.198 13.852-4.811 4.894 1.203 7.85 5.181 8.034 10.733.092 2.035-.646 3.885-2.032 4.811-1.2.832-2.678.925-4.34.185l-.184-.093h-.185c-1.662.37-2.493 1.48-2.124 3.053.37 2.036 2.77 4.164 4.894 3.886 2.955 0 5.264-1.665 7.018-3.978.647.185 1.293.37 1.94.462.184 0 .461.093.646.093.184 3.978.092 8.142.092 12.12-.092 8.049-.277 14.433 1.94 16.468.461.463 1.015.648 1.662.648h.276c3.879 0 7.573-3.516 10.62-6.384.646 1.85 1.662 3.423 3.047 4.441 2.032 1.665 5.633 2.776 11.266-.74.554 1.203 1.847 2.683 3.416 2.683 2.678 0 5.172-1.573 7.48-3.516v2.406c.093.462.462 1.11 1.939 1.387a9.1 9.1 0 0 0 1.663.186c1.477 0 2.955-.278 3.324-.926l1.57-11.842c.277.555.554 1.203.923 1.943 2.032 4.441 4.802 10.454 8.68 10.454 3.509 0 6.926-2.96 9.789-5.643a12.899 12.899 0 0 0 3.878 4.903c1.662 1.203 3.601 1.758 5.633 1.758 3.324 0 7.018-1.48 10.896-4.441.185-.185.462-.37.647-.555.554 1.665 2.031 4.163 6.094 4.256 9.973 0 15.144-9.344 18.93-18.504l.093-.185-1.478-3.701zm-14.59 13.508c.554 2.221.277 3.793-.646 4.534-.739.555-1.847.555-2.863-.093-.831-.463-1.662-1.295-2.216-2.59.462-.463.923-.926 1.385-1.296 1.108-1.11 2.216-2.128 2.863-2.59.461.555.923 1.295 1.477 2.035zm-43.678-14.618c-.277 1.665-2.308 3.608-3.97 4.626.184-1.388.923-3.793 2.123-5.181.462-.555 1.016-.925 1.478-1.018.369.463.462.925.369 1.573zm-26.41 17.671c-1.015.093-1.939-.555-2.77-1.85-2.493-4.163-2.585-13.693-.277-17.301.554-.925 1.293-1.388 2.124-1.388h.277c1.2 0 1.478.185 1.57.278.092 6.198.092 9.344.092 11.657-.092.463-.092 1.295 0 2.683.093 2.035.277 4.996-.462 5.829-.184 0-.369.092-.554.092zm-27.517-28.496c-.093 0-.185-.092-.278-.092.093-.37.185-.648.278-1.018v1.11z" fill="#79D9D8"/></svg>