<svg width="200" height="200" fill="none" xmlns="http://www.w3.org/2000/svg"><path d="M200 0H0v200h200V0z" fill="#222"/><path d="M127.965 58.316c-17.054-17.062-27.894-27.617-27.894-27.617s-10.84 10.555-27.894 27.617c-8.96 8.964-29.34 31.375-29.34 53.497 0 14.748 11.997 26.749 26.739 26.749 9.683 0 18.21-5.205 22.98-12.868.433-.579 1.156-1.012 2.168-1.012 1.3 0 2.601 1.012 2.457 2.168-1.012 7.953-5.492 27.617-23.27 34.268h52.32c-17.777-6.651-22.257-26.315-23.269-34.268-.145-1.156 1.156-2.168 2.457-2.168.867 0 1.59.433 2.168 1.012 4.769 7.663 13.152 12.868 22.835 12.868 14.742 0 26.738-12.001 26.738-26.749.145-22.122-20.234-44.533-29.195-53.497z" fill="#D70025"/><path d="M107.298 80.735l-7.226-22.41-7.516 22.41H68.998l19.078 13.88-7.227 22.412 19.078-13.88 19.078 13.88-7.226-22.411 19.077-13.88h-23.558z" fill="#fff"/></svg>