<svg width="20" height="20" viewBox="0 0 20 20" xmlns="http://www.w3.org/2000/svg">
<path d="M19.9381 5.01141L19.1568 3.44891C19.0181 3.17141 18.6871 3.05008 18.402 3.17238L15.6676 4.34426C15.4522 4.4366 15.3125 4.64844 15.3125 4.88281V5.46875H11.063L9.25017 3.65594L10.1172 2.5C10.2734 2.29168 10.2734 2.0052 10.1172 1.79688L8.94529 0.234375C8.83462 0.0868359 8.66095 0 8.47654 0H4.96091C4.76646 0 4.58474 0.0964453 4.47572 0.257461C4.36669 0.418477 4.34466 0.623047 4.41689 0.803555L5.05466 2.39793L3.93697 3.51562H3.00779C2.70474 3.51562 2.45169 3.74672 2.42427 4.04852L2.08208 7.8125H0.585913C0.397553 7.8125 0.220678 7.90305 0.1106 8.05582C0.000483133 8.20863 -0.0294778 8.40504 0.0300534 8.58371L0.811303 10.9275C0.89103 11.1668 1.11494 11.3281 1.36716 11.3281H3.59373V13.0859C3.59373 13.1445 3.60251 13.2028 3.61978 13.2588L5.57291 19.5869C5.64873 19.8325 5.87576 20 6.13279 20H8.08591C8.36978 20 8.61283 19.7965 8.66275 19.5171L9.40642 15.3524L13.9298 11.583C14.0633 11.4716 14.1406 11.3067 14.1406 11.1329V9.1027L14.7686 8.68402L15.8099 9.20465L16.5145 11.3181C16.5823 11.5218 16.7561 11.672 16.9674 11.7097C17.1787 11.7473 17.3938 11.6665 17.5279 11.4989L19.0904 9.54578C19.2222 9.38102 19.2552 9.15805 19.1769 8.96215L18.5224 7.32605L19.8716 5.63957C20.0143 5.46102 20.0403 5.21582 19.9381 5.01141V5.01141ZM3.54287 4.6875H4.17966C4.33505 4.6875 4.48408 4.62574 4.59396 4.51586L6.15646 2.95336C6.3222 2.78762 6.37322 2.53906 6.28619 2.32145L5.82638 1.17188H8.18357L8.91599 2.14844L8.00779 3.35938C7.83283 3.59266 7.85603 3.91906 8.06224 4.12523L9.40572 5.46875H3.47185L3.54287 4.6875ZM8.49205 14.5889C8.38603 14.6773 8.31462 14.8002 8.29033 14.9361L7.59533 18.8281H6.56513L4.97369 13.6719H9.59248L8.49205 14.5889ZM17.2856 9.92578L16.8449 8.60379C16.7958 8.45637 16.6901 8.33449 16.5511 8.265L14.9886 7.48375C14.8006 7.38973 14.5765 7.40367 14.4015 7.52031L13.2297 8.30156C13.0667 8.41023 12.9687 8.5932 12.9687 8.7891V10.8584L10.9988 12.5H4.7656V10.7422C4.7656 10.4186 4.50326 10.1562 4.17966 10.1562H1.78947L1.39884 8.98438H2.61716C2.92021 8.98438 3.17326 8.75328 3.20068 8.45148L3.36533 6.64062H17.5699L17.394 6.86051C17.2622 7.02527 17.2291 7.24824 17.3075 7.44414L17.962 9.08023L17.2856 9.92578ZM18.5074 5.46875H16.4843V5.26918L18.3558 4.46711L18.7223 5.20016L18.5074 5.46875Z" />
<path d="M8.47656 7.42188C7.29191 7.42188 6.32812 8.38566 6.32812 9.57031C6.32812 10.755 7.29191 11.7188 8.47656 11.7188C9.66121 11.7188 10.625 10.755 10.625 9.57031C10.625 8.38566 9.66121 7.42188 8.47656 7.42188ZM8.47656 10.5469C7.93809 10.5469 7.5 10.1088 7.5 9.57031C7.5 9.03184 7.93809 8.59375 8.47656 8.59375C9.01504 8.59375 9.45312 9.03184 9.45312 9.57031C9.45312 10.1088 9.01504 10.5469 8.47656 10.5469Z" />
</svg>
