<svg width="200" height="200" viewBox="0 0 200 200" fill="none" xmlns="http://www.w3.org/2000/svg">
<path d="M100 200C44.8 200 0 155.2 0 100C0 44.8 44.8 0 100 0C155.2 0 200 44.8 200 100C200 155.2 155.2 200 100 200Z" fill="#BBBBBB"/>
<path d="M15.6772 122H27.4372L30.6372 100.64L40.4772 124.16L50.3172 100.64L54.3172 122H66.0772L53.7572 63.36L40.8772 97.44L27.9972 63.36L15.6772 122ZM82.0397 122V76.56L70.8397 77.84V122H82.0397ZM76.4397 59.68C72.9197 59.68 70.1197 62.48 70.1197 66C70.1197 69.44 72.9997 72.32 76.4397 72.32C79.9597 72.32 82.7597 69.52 82.7597 65.92C82.7597 62.4 79.9597 59.68 76.4397 59.68ZM117.091 106.16C113.011 110.8 110.371 112.48 107.171 112.48C102.211 112.48 99.3309 108 99.3309 100.16C99.3309 92 102.451 87.36 107.891 87.36C110.931 87.36 112.851 88.4 115.811 91.68L117.091 80.4C113.651 77.6 110.851 76.56 107.011 76.56C96.2909 76.56 88.1309 86.96 88.1309 100.72C88.1309 113.68 95.6509 123.28 105.731 123.28C109.731 123.28 112.691 122.08 116.051 119.12L117.091 106.16ZM134.3 122V101.84C134.3 93.68 137.58 88.96 143.18 88.96C143.42 88.96 143.9 88.96 144.54 89.04L145.42 76.56H144.7C140.62 76.56 136.94 79.36 134.54 84.4V76.56L123.34 77.84V122H134.3ZM164.959 76.56C154.719 76.56 146.959 86.64 146.959 100C146.959 113.2 154.719 123.28 164.879 123.28C175.119 123.28 182.959 113.12 182.959 99.92C182.959 86.64 175.199 76.56 164.959 76.56ZM164.879 87.36C169.199 87.36 171.679 92 171.679 99.92C171.679 107.68 169.119 112.4 164.959 112.4C160.639 112.4 158.159 107.76 158.159 99.68C158.159 92.08 160.719 87.36 164.879 87.36Z" fill="#FFFFFF"/>
</svg>
