<svg width="200" height="200" fill="none" xmlns="http://www.w3.org/2000/svg"><path d="M200 0H0v200h200V0z" fill="#EE702D"/><path fill-rule="evenodd" clip-rule="evenodd" d="M35.135 103.986c0 3.768-2.899 7.682-8.551 7.682-3.19 0-6.668-2.029-8.697-4.204v-7.682c1.74-1.884 4.348-3.913 8.697-3.913 4.058 0 8.551 2.029 8.551 8.117zm-8.406-12.03c-4.204 0-6.668 1.304-8.987 3.043v-9.132c0-.724-.58-1.449-1.45-1.449h-2.754v25.8l-.434 4.494h2.464c1.16 0 1.45-.725 1.594-1.45l.435-1.304c2.609 2.029 4.928 3.478 9.566 3.478 8.987 0 12.176-6.957 12.176-11.45 0-4.494-2.61-12.03-12.61-12.03zm19.276 8.984c1.015-3.479 3.769-5.218 7.827-5.218 5.798 0 7.537 3.768 7.972 5.218H46.005zm7.537-8.987c-6.957 0-12.03 4.928-12.03 11.596 0 6.812 5.218 11.74 12.465 11.74 6.958 0 9.422-2.609 11.45-4.783l.726-.869-3.48-2.465-.434.58c-1.304 1.595-3.044 3.769-8.117 3.769s-7.827-3.334-8.407-6.668h20.727v-.869c0-3.479-1.014-6.378-3.043-8.407-2.32-2.32-5.798-3.624-9.857-3.624zm25.945 19.711c-3.188 0-3.768-1.014-3.768-2.899v-12.32h8.407V94.27c0-.87-.725-1.595-1.595-1.595H75.72v-5.508c0-.87-.725-1.45-1.595-1.45H71.37v6.958h-4.493v3.769h4.493v12.61c0 1.739 0 6.378 7.393 6.378 1.304 0 3.043-.29 5.363-.58h.434v-3.914l-.87.145c-1.594.29-2.753.58-4.203.58zm19.133-10.289c-3.623-.435-6.667-.725-6.667-2.754 0-2.61 3.479-2.9 5.508-2.9 3.623 0 6.377 1.16 8.262 3.624l.29.435 2.899-2.754-.145-.29c-.87-1.16-3.334-4.783-11.161-4.783-4.783 0-9.857 1.884-9.857 6.957 0 5.219 5.508 5.943 10.437 6.523 3.768.435 7.102.87 7.102 3.189s-3.334 3.044-6.088 3.044c-3.913 0-6.957-1.45-9.131-4.204l-.29-.434-3.19 2.898.29.435c3.045 3.479 6.813 5.218 12.031 5.218 6.813 0 10.726-2.609 10.726-7.102-.145-5.798-5.942-6.523-11.016-7.102zm25.077 0c-3.624-.435-6.668-.725-6.668-2.754 0-2.61 3.479-2.9 5.508-2.9 3.624 0 6.378 1.16 8.262 3.624l.29.435 2.899-2.754-.29-.29c-.869-1.16-3.333-4.783-11.161-4.783-4.783 0-9.856 1.884-9.856 6.957 0 5.219 5.508 5.943 10.436 6.523 3.769.435 7.103.87 7.103 3.189s-3.334 3.044-6.088 3.044c-3.914 0-6.958-1.45-9.132-4.204l-.29-.434-3.189 2.898.29.435c3.044 3.479 6.813 5.218 12.031 5.218 6.812 0 10.726-2.609 10.726-7.102.145-5.798-5.653-6.523-10.871-7.102zm34.064 2.319c0 4.783-3.188 7.827-8.407 7.827-5.073 0-8.406-3.044-8.406-7.827 0-3.769 2.609-7.972 8.406-7.972 5.798 0 8.407 4.058 8.407 7.972zm-8.262-11.74c-7.392 0-12.755 4.782-12.755 11.305 0 7.392 4.928 12.03 12.755 12.03 7.828 0 12.611-4.638 12.611-12.03 0-6.523-5.363-11.306-12.611-11.306zm28.264 0c-2.899 0-5.653 1.014-8.407 3.188v-1.015c0-.87-.725-1.594-1.594-1.594h-2.754v22.032h4.348v-14.93c1.45-1.45 4.349-3.913 7.972-3.913 1.885 0 3.189.435 4.059 1.304.869.87 1.304 2.174 1.159 3.769v13.77h4.349V100.36c.145-7.247-5.653-8.407-9.132-8.407z" fill="#fff"/></svg>