<svg fill="none" height="200" viewBox="0 0 200 200" width="200" xmlns="http://www.w3.org/2000/svg" xmlns:xlink="http://www.w3.org/1999/xlink"><radialGradient id="a" cx="0" cy="0" gradientTransform="matrix(200.00020331 200.00020331 -200.00020331 200.00020331 0 0)" gradientUnits="userSpaceOnUse" r="1"><stop offset="0" stop-color="#88da72"/><stop offset="1" stop-color="#589947"/></radialGradient><linearGradient id="b"><stop offset="0" stop-color="#ff9a00"/><stop offset="1" stop-color="#fff200"/></linearGradient><linearGradient id="c" gradientUnits="userSpaceOnUse" x1="69.4055" x2="98.1117" xlink:href="#b" y1="129.865" y2="129.865"/><linearGradient id="d" gradientUnits="userSpaceOnUse" x1="80.4226" x2="98.1116" xlink:href="#b" y1="150.814" y2="150.814"/><linearGradient id="e" gradientUnits="userSpaceOnUse" x1="98.7524" x2="136.58" xlink:href="#b" y1="130.674" y2="130.674"/><linearGradient id="f" gradientUnits="userSpaceOnUse" x1="124.197" x2="162.024" xlink:href="#b" y1="92.9929" y2="92.9929"/><linearGradient id="g" gradientUnits="userSpaceOnUse" x1="90.1575" x2="121.966" xlink:href="#b" y1="96.13" y2="96.13"/><linearGradient id="h" gradientUnits="userSpaceOnUse" x1="159.112" x2="183.387" xlink:href="#b" y1="67.5038" y2="67.5038"/><linearGradient id="i" gradientUnits="userSpaceOnUse" x1="164.73" x2="186.977" xlink:href="#b" y1="95.0745" y2="95.0745"/><linearGradient id="j" gradientUnits="userSpaceOnUse" x1="149.793" x2="167.86" xlink:href="#b" y1="130.032" y2="130.032"/><linearGradient id="k"><stop offset="0" stop-color="#565759"/><stop offset="1" stop-color="#241f20"/></linearGradient><linearGradient id="l" gradientUnits="userSpaceOnUse" x1="110.141" x2="110.141" xlink:href="#k" y1="89.5956" y2="129.33"/><linearGradient id="m"><stop offset=".5077" stop-color="#fff"/><stop offset=".5111" stop-color="#f7f7f8"/><stop offset=".521" stop-color="#e6e7e8"/><stop offset=".5334" stop-color="#dbdbdc"/><stop offset=".5507" stop-color="#d4d5d6"/><stop offset=".5989" stop-color="#d2d3d4"/><stop offset="1" stop-color="#fff"/></linearGradient><linearGradient id="n" gradientUnits="userSpaceOnUse" x1="96.4892" x2="96.4892" xlink:href="#m" y1="123.469" y2="95.1283"/><linearGradient id="o" gradientUnits="userSpaceOnUse" x1="116.631" x2="116.631" xlink:href="#m" y1="123.469" y2="95.1283"/><linearGradient id="p" gradientUnits="userSpaceOnUse" x1="137.303" x2="137.303" xlink:href="#m" y1="123.469" y2="95.1283"/><linearGradient id="q" gradientUnits="userSpaceOnUse" x1="159.863" x2="159.863" xlink:href="#m" y1="123.469" y2="95.1283"/><linearGradient id="r" gradientUnits="userSpaceOnUse" x1="52.1778" x2="52.1778" xlink:href="#b" y1="123.467" y2="111.321"/><linearGradient id="s" gradientUnits="userSpaceOnUse" x1="62.1662" x2="62.1662" xlink:href="#b" y1="123.467" y2="111.321"/><linearGradient id="t" gradientUnits="userSpaceOnUse" x1="73.9363" x2="73.9363" xlink:href="#b" y1="123.467" y2="111.321"/><linearGradient id="u"><stop offset="0" stop-color="#ffa300"/><stop offset="1" stop-color="#fff200"/></linearGradient><linearGradient id="v" gradientUnits="userSpaceOnUse" x1="23.1886" x2="75.3807" xlink:href="#u" y1="94.8325" y2="94.8325"/><linearGradient id="w" gradientUnits="userSpaceOnUse" x1="41.6176" x2="41.6176" xlink:href="#k" y1="88.6306" y2="40.9983"/><linearGradient id="x" gradientUnits="userSpaceOnUse" x1="56.6562" x2="56.6562" xlink:href="#k" y1="82.3481" y2="49.6335"/><linearGradient id="y" gradientUnits="userSpaceOnUse" x1="68.671" x2="75.3804" xlink:href="#k" y1="84.6337" y2="84.6337"/><linearGradient id="z" gradientUnits="userSpaceOnUse" x1="72.0516" x2="75.4568" xlink:href="#k" y1="59.8639" y2="59.8639"/><linearGradient id="A" gradientUnits="userSpaceOnUse" x1="81.4332" x2="87.934" xlink:href="#k" y1="64.0362" y2="64.0362"/><linearGradient id="B" gradientUnits="userSpaceOnUse" x1="57.5872" x2="57.5872" xlink:href="#k" y1="92.5019" y2="106.676"/><linearGradient id="C" gradientUnits="userSpaceOnUse" x1="62.5421" x2="89.6594" xlink:href="#u" y1="74.1537" y2="74.1537"/><linearGradient id="D" gradientUnits="userSpaceOnUse" x1="32.6285" x2="32.6285" xlink:href="#k" y1="90.8955" y2="108.375"/><linearGradient id="E" gradientUnits="userSpaceOnUse" x1="86.0086" x2="86.0086" xlink:href="#k" y1="67.2168" y2="84.357"/><linearGradient id="F" gradientUnits="userSpaceOnUse" x1="67.8081" x2="67.8081" xlink:href="#k" y1="63.89" y2="82.3168"/><path d="m200 0h-200v200h200z" fill="url(#a)"/><path d="m70.3613 123.464-.9726 8.829 11.834 7.777 14.7521-7.615 2.1074-12.799z" fill="url(#c)"/><path d="m87.1397 160.002 9.2403-4.293 1.7021-9.559-6.7275-4.537-9.1593 4.294-1.7832 8.992z" fill="url(#d)"/><path d="m113.159 150.442 19.697-9.235 3.728-20.495-16.454-9.802-17.589 9.235-3.8096 19.28z" fill="url(#e)"/><path d="m138.61 112.693 19.697-9.154 3.728-20.4949-16.454-9.8019-17.589 9.2348-3.809 19.28z" fill="url(#f)"/><path d="m102.216 112.691 16.616-7.696 3.161-17.2546-13.86-8.1818-14.7521 7.6957-3.2422 16.2827z" fill="url(#g)"/><path d="m168.357 80.1259 12.645-5.9135 2.351-13.1233-10.538-6.2375-11.266 6.8046-2.432 12.3941z" fill="url(#h)"/><path d="m173.221 106.698 11.591-5.427 2.188-12.0703-9.645-5.7515-10.375 4.5364-2.27 12.2324z" fill="url(#i)"/><path d="m156.686 139.423 9.402-4.375 1.783-9.802-7.862-4.617-8.43 4.374-1.783 9.235z" fill="url(#j)"/><path d="m39.7224 124.115 5.4307-30.8642c.4053-2.1062 2.1885-3.6453 4.377-3.6453h126.6079c2.756 0 4.783 2.4302 4.377 5.1844l-5.025 30.8641c-.324 2.106-2.189 3.726-4.377 3.726h-127.0136c-2.7559-.081-4.8633-2.511-4.377-5.265z" fill="url(#l)"/><path d="m93.7052 95.1133-2.3506 10.8547h11.6714l2.351-10.8547h6.403l-6.079 28.3527h-6.403l2.594-12.232h-11.6722l-2.5938 12.232h-6.4033l6.0791-28.3527z" fill="url(#n)"/><path d="m122.885 95.1133-6.079 28.3527h-6.404l6.079-28.3527z" fill="url(#o)"/><path d="m127.667 123.466-3.323-28.3527h6.322l1.945 21.3047h.081l10.943-21.3047h6.565l-15.4 28.3527z" fill="url(#p)"/><path d="m173.949 95.1133-1.053 5.2657h-15.725l-1.297 6.075h14.509l-1.054 4.861h-14.509l-1.54 6.966h15.968l-1.135 5.266h-22.29l5.998-28.3527h22.128z" fill="url(#q)"/><g fill="#fff"><path d="m105.863 123.87h-7.2135l2.5935-12.232h-10.8611l-2.6748 12.232h-7.2139l6.2412-29.163h7.2139l-2.3506 10.855h10.8613l2.351-10.855h7.214zm-6.2408-.81h5.5928l5.917-27.5429h-5.593l-2.35 10.8549h-12.4829l2.3506-10.8549h-5.5928l-5.917 27.5429h5.5117l2.5938-12.232h12.5636z"/><path d="m116.968 123.87h-7.214l6.241-29.163h7.214zm-6.241-.81h5.511l5.917-27.5429h-5.592z"/><path d="m134.962 123.87h-7.781l-3.405-29.163h7.214l1.865 20.414 10.537-20.414h7.538zm-7.133-.81h6.566l14.995-27.5429h-5.674l-10.943 21.3049h-.648c-.243-.405-1.864-20.8188-1.945-21.3049h-5.512z"/><path d="m168.276 123.87h-23.101l6.241-29.163h22.939l-1.297 6.076h-15.725l-1.135 5.265h14.59l-1.216 5.671h-14.508l-1.297 6.156h15.805zm-22.129-.81h21.48l.973-4.456h-15.968l1.702-7.776h14.59l.892-4.051h-14.509l1.459-6.8855h15.724l.892-4.4554h-21.236z"/></g><path d="m46.7744 113.581.4863-2.269h10.3751l-.4863 2.269h-3.7286l-2.1074 9.883h-2.7559l2.1075-9.883z" fill="url(#r)"/><path d="m60.959 111.312-.9726 4.699h5.0254l.9726-4.699h2.7559l-2.5938 12.152h-2.7558l1.1347-5.266h-5.0254l-1.1348 5.266h-2.7558l2.5937-12.152z" fill="url(#s)"/><path d="m79.9258 111.312-.4863 2.269h-6.7276l-.5673 2.592h6.2412l-.4053 2.106h-6.2412l-.6485 2.916h6.8897l-.4863 2.269h-9.5645l2.5938-12.152z" fill="url(#t)"/><path d="m70.8479 81.2578s-7.1328 16.2015-23.506 15.3104c-5.0254-.243-10.2129-.729-15.0762-2.2682-1.5401-.486-2.9991-1.1341-4.377-1.9442-.8106-.486-1.54-1.0531-2.4317-1.2961-1.2158-.405-2.2695-.081-2.2695 1.3771 0 .8911.3242 1.8632.6484 2.7543 2.0264 5.7519 6.8897 14.8239 22.5334 12.9609 15.8868-1.863 23.9923-13.1229 29.0177-25.7601z" fill="url(#v)"/><path d="m65.255 86.3625c-.2431 1.3772-26.505 9.0729-42.0676-14.6623-4.7822-7.2097-7.6192-17.1736-2.3506-24.9503 1.8643-2.6733 5.917-6.5616 9.5645-5.5895 2.1074.567 1.7832 3.7263 2.1885 5.4275.5674 2.5922 1.2158 5.8325 2.1074 8.2627 1.6211 4.2124 3.8096 7.6147 6.4845 11.1791 5.1875 6.8856 12.3203 12.2321 19.6153 16.8495.6484.4861 4.6201 2.4302 4.458 3.4833z" fill="url(#w)"/><path d="m64.2825 80.9334s1.1348 2.0251-.9727 1.1341c-2.5127-1.0531-15.4004-8.5868-14.5088-19.1988s9.3213-17.8217 8.4297-9.8829c-.8916 7.8577-1.9453 16.6065 7.0518 27.9476z" fill="url(#x)"/><path d="m72.874 88.0635c.8917-1.7822 1.7833-3.7264 2.5128-5.5896l-4.4581-1.1341s-.7295 1.6202-2.1885 3.8074c1.2159.8101 2.837 1.8632 4.1338 2.9163z" fill="url(#y)"/><path d="m73.7655 64.8155c-.7295-.7291-1.1348-1.6202-1.378-2.5112-.2431-.8911-.4053-1.8632-.2431-2.8353.081-.9721.3242-1.9442.8916-2.7543.4863-.891 1.2968-1.6201 2.3506-1.8631 0 0 .081 0 .081.081v.081c-.5674.648-.9726 1.3771-1.2158 2.1872s-.4053 1.6201-.4863 2.5112c-.0811.8101-.0811 1.7012-.0811 2.5923.0811.891.1621 1.7011.3242 2.5922 0 .081 0 .081-.081.081-.0811-.081-.0811-.081-.1621-.162z" fill="url(#z)"/><path d="m81.5468 66.9195c-.2432-.8911-.0811-1.7012.2431-2.5113.2432-.729.7295-1.4581 1.2969-2.0251.5674-.5671 1.378-1.0531 2.1885-1.2152.8106-.243 1.7832-.162 2.5938.2431h.081s.0811.081 0 .081c0 0 0 0-.081 0-.7295.162-1.378.405-2.0264.729-.6485.3241-1.1348.8101-1.7022 1.2962-.4863.486-.9726 1.0531-1.3779 1.6201-.4053.5671-.8106 1.2151-1.1348 1.7822 0 0-.081.081-.081 0 0 .081 0 .081 0 0z" fill="url(#A)"/><path d="m61.5264 92.5195c-3.2422 2.2682-7.376 4.0504-12.4825 4.1314 1.8643 2.2682 3.9718 5.6701 4.1339 10.0451 5.3496-1.782 9.5645-4.78 12.9688-8.587-.8106-1.7821-2.3506-4.0503-4.6202-5.5895z" fill="url(#B)"/><path d="m69.7125 82.1503s-12.3204-7.8577-4.6201-15.4724c7.5381-7.4527 23.1817.4861 24.3976 5.9136 1.0537 4.8604-2.5938 17.3355-19.7775 9.5588z" fill="url(#C)"/><path d="m27.8887 92.3555c-.8106-.486-1.5401-1.0531-2.4317-1.2961-1.2158-.405-2.2695-.081-2.2695 1.3771 0 .8911.3242 1.8632.6484 2.7543 1.7833 5.0222 5.6739 12.5562 17.0216 13.2042 2.3506-3.969.9727-8.9108-.6484-12.3941-2.6748-.3241-5.2686-.8101-7.8624-1.6202-1.6211-.486-3.0801-1.2151-4.458-2.0252z" fill="url(#D)"/><path d="m82.1953 84.3377c6.9708-1.7012 8.3487-7.8578 7.295-11.7461-.4863-1.7012-2.2696-3.7264-4.8633-5.4275.8105 3.8073 3.0801 10.693-2.4317 17.1736z" fill="url(#E)"/><path d="m70.5231 63.9219c-2.3506.405-4.2149 1.6201-5.4307 2.8352-7.7003 7.6958 4.6201 15.4725 4.6201 15.4725.0811.081.2432.081.3242.162 5.0255-4.9415 2.7559-14.0953.4864-18.4697z" fill="url(#F)"/></svg>