<svg width="63" height="20" fill="none" xmlns="http://www.w3.org/2000/svg"><g clip-path="url(#clip0)"><path d="M4.16 2.531L0 14.718h2.444l1.175-3.556h3.379l1.206 3.556H10.7L6.53 2.531H4.16zm2.245 6.603H4.222l.915-2.683c.062-.187.125-.364.177-.54.062.187.114.374.187.572l.904 2.651zm8.402.024c-1.123-.447-1.247-.655-1.247-.978 0-.416.343-.665.904-.665.655 0 1.175.26 1.425.416l.478.301.634-1.934-.29-.187c-.552-.364-1.384-.572-2.226-.572-1.882 0-3.244 1.185-3.244 2.828 0 1.508 1.33 2.309 2.454 2.714 1.112.416 1.206.707 1.206 1.061 0 .665-.697.759-1.113.759-.644 0-1.34-.27-1.736-.51l-.478-.28-.624 1.965.301.177c.687.405 1.602.634 2.506.634 2.07 0 3.463-1.165 3.463-2.89 0-1.737-1.383-2.455-2.412-2.84zm6.083-5.549l-2.33.707V5.71h-1.257v2.007h1.258v3.982c0 1.113.218 1.903.686 2.433.458.49 1.134.77 1.924.77.707 0 1.216-.146 1.456-.229l.312-.104-.125-2.017-.54.156a2.535 2.535 0 0 1-.729.083c-.28 0-.665 0-.665-1.133V7.717h2.11V5.71h-2.1v-2.1zm7.789 2.016l-.427-.063a2.684 2.684 0 0 0-2.35.8l-.03-.654h-2.184l.03.468c.042.697.073 1.487.073 2.506v6.03h2.36V9.952c0-.219.022-.448.043-.604.176-.935.759-1.518 1.549-1.518.187 0 .301 0 .405.021l.541.114-.01-2.34zm4.294-.086c-2.63 0-4.471 1.945-4.471 4.742 0 2.724 1.778 4.617 4.336 4.617 2.163 0 4.482-1.487 4.482-4.752.01-2.714-1.778-4.607-4.347-4.607zm1.965 4.659c0 1.57-.852 2.713-2.017 2.713-1.164 0-2.007-1.133-2.007-2.672 0-.998.427-2.693 2.038-2.693 1.57-.02 1.986 1.726 1.986 2.651zm10.128-6.706c-.77-.697-1.944-1.05-3.462-1.05-1.02 0-1.986.072-2.88.218l-.365.062v11.99h2.34V10.26c.24.02.489.031.738.031 1.58 0 2.922-.489 3.775-1.372.665-.687.998-1.602.998-2.725-.01-1.092-.416-2.048-1.144-2.703zM43.86 6.268c0 1.705-1.497 1.955-2.392 1.955-.301 0-.55-.01-.759-.042v-3.66c.23-.031.541-.042.936-.042.998 0 2.215.312 2.215 1.789zm9.514 6.05V9.283c0-2.422-1.258-3.743-3.525-3.743-1.05 0-2.152.291-2.911.77l-.302.187.634 1.871.479-.322c.488-.333 1.196-.53 1.882-.53.478-.01.821.104 1.05.322.187.187.302.468.343.822-1.84.052-3.182.488-4.014 1.31-.571.572-.862 1.29-.862 2.152 0 1.383.998 2.777 2.932 2.777.821 0 1.59-.26 2.194-.718l.062.54h2.236l-.083-.509c-.073-.499-.115-1.133-.115-1.892zm-3.93.604c-.354 0-.936-.125-.936-.967 0-.323.093-.582.301-.78.27-.27.884-.582 2.257-.603v.967c0 .073-.01.197-.042.322-.166.489-.676 1.06-1.58 1.06zm10.429-7.215l-1.716 5.064c-.041.125-.083.26-.125.385a3.759 3.759 0 0 0-.135-.364l-1.872-5.085h-2.568l3.224 8.08.01.02a.644.644 0 0 1 .073.188c-.021.041-.052.124-.073.176-.28.593-.697 1.154-1.113 1.487l-.01.01a3.065 3.065 0 0 1-1.144.635l-.416.135.603 2.017.385-.072c.24-.042 1.071-.24 2.028-1.04 1.143-1.02 1.902-2.631 2.9-5.251l2.444-6.385h-2.495z" fill="#fff"/><path d="M8.61 5.875c1.518-1.55 4.097-2.475 6.894-2.475 1.092 0 2.153.135 3.161.416l.083.02 1.789-.54-.8-.312c-1.53-.582-3.287-.894-5.096-.894-2.63 0-5.085.634-6.904 1.788l-.198.125.76 2.215.311-.343z" fill="#B0B0B0"/></g></svg>