<svg width="200" height="200" viewBox="0 0 200 200" fill="none" xmlns="http://www.w3.org/2000/svg">
<g clip-path="url(#clip0)">
<path d="M100 200C44.8 200 0 155.2 0 100C0 44.8 44.8 0 100 0C155.2 0 200 44.8 200 100C200 155.2 155.2 200 100 200Z" fill="white"/>
<path d="M100 0C88.4 0 76.4 2.1 65.7 6L70.2 18.2C79.7 14.8 89.7 13 100 13V0ZM35.6 23.5C26.7 31 19.1 40.1 13.3 50.2L24.6 56.7C29.7 47.9 36.2 40 44 33.4L35.6 23.5ZM1.4 83C0.5 88.6 0 94.3 0 100C0 106 0.5 112 1.6 117.8L14.4 115.5C12.6 105.6 12.6 95.1 14.3 85.2L1.4 83ZM24.9 143.9L13.7 150.5C19.6 160.6 27.3 169.6 36.3 177L44.6 167C36.7 160.5 30 152.7 24.9 143.9ZM70.8 182L66.4 194.2C77.4 198.1 89.1 200.1 100.7 200L100.6 187C90.5 187.1 80.4 185.4 70.8 182ZM156.6 166.1C148.8 172.8 140.1 178 130.5 181.5L135.1 193.7C146.1 189.6 156.2 183.6 165.1 176L156.6 166.1ZM185.9 114.1C184.3 124.2 180.9 133.8 175.9 142.7L187.2 149.1C192.8 139.1 196.8 128 198.7 116.2L185.9 114.1ZM185.9 48.8L174.7 55.5C179.9 64.3 183.6 73.8 185.4 83.8L198.2 81.4C196.1 69.7 191.9 58.9 185.9 48.8ZM132.7 5.5L128.4 17.8C138 21.1 146.9 26.1 154.8 32.6L163 22.5C154.1 15.1 143.8 9.3 132.7 5.5Z" fill="#464646"/>
<path d="M100 188C51.4483 188 12 148.552 12 100C12 51.4483 51.4483 12 100 12C148.552 12 188 51.4483 188 100C188 148.552 148.552 188 100 188Z" fill="url(#paint0_radial)"/>
<path d="M66.5332 71.202C55.1372 71.202 45.9612 83.412 45.9612 98.434C45.9612 114.27 54.9152 126.406 66.5332 126.406C77.9292 126.406 87.0312 114.196 87.0312 98.804C87.0312 83.412 78.0032 71.202 66.5332 71.202ZM66.4592 82.302C71.7132 82.302 75.1912 89.036 75.1912 99.026C75.1912 109.016 71.7132 115.75 66.5332 115.75C61.2792 115.75 57.8012 109.09 57.8012 98.804C57.8012 89.036 61.3532 82.302 66.4592 82.302ZM93.7086 125H105.031V104.946H117.537V95.104H105.031V82.968H118.573V72.608H93.7086V125ZM154.677 75.198C150.607 72.386 147.277 71.202 143.503 71.202C131.737 71.202 122.635 83.264 122.635 98.878C122.635 114.27 131.737 126.406 143.281 126.406C146.833 126.406 150.089 125.37 153.715 123.002L155.047 110.644C150.533 114.714 148.535 115.75 144.983 115.75C138.545 115.75 134.475 109.164 134.475 98.73C134.475 88.666 138.323 82.302 144.465 82.302C147.351 82.302 149.793 83.634 153.345 87.038L154.677 75.198Z" fill="white"/>
</g>
<defs>
<radialGradient id="paint0_radial" cx="0" cy="0" r="1" gradientUnits="userSpaceOnUse" gradientTransform="translate(12 12) rotate(45) scale(248.902)">
<stop stop-color="#7D8183"/>
<stop offset="1" stop-color="#333333"/>
</radialGradient>
<clipPath id="clip0">
<rect width="200" height="200" fill="white"/>
</clipPath>
</defs>
</svg>
