<svg width="60" height="20" viewBox="0 0 60 20" fill="none" xmlns="http://www.w3.org/2000/svg">
<path d="M57.6155 7.66487C58.2253 7.6553 58.8351 7.66487 59.4449 7.64573C59.6982 7.63617 59.8014 7.70315 59.8014 7.99022C59.7921 11.4542 59.7921 14.9183 59.8014 18.3823C59.8014 18.7842 59.5669 18.7076 59.3417 18.7076C56.1144 18.7076 52.8777 18.7076 49.6504 18.7076C48.8717 18.7076 48.093 18.7172 47.3049 18.7076C46.3855 18.6981 45.832 18.1335 45.8226 17.1862C45.8226 14.5451 45.832 11.9136 45.8132 9.27249C45.8038 8.39213 46.104 7.67444 46.7139 7.06202C47.455 6.32519 48.3088 5.74148 49.1156 5.09078C51.0951 3.5023 53.0841 1.90426 55.0636 0.306212C55.1762 0.22009 55.2888 0.143537 55.4764 0C55.4764 2.58366 55.4764 5.10035 55.4764 7.60746C55.4671 8.95671 55.4577 10.306 55.4671 11.6552C55.4671 11.9901 55.3639 12.2006 55.0824 12.392C52.8026 13.9518 50.5322 15.5403 48.2618 17.1192C48.1399 17.2053 47.971 17.2436 47.9335 17.4541C47.9992 17.4445 48.0648 17.4541 48.1117 17.435C51.1608 16.4206 54.2005 15.4063 57.2496 14.4111C57.5404 14.3154 57.6155 14.1623 57.6155 13.8657C57.6155 11.7892 57.6249 9.72224 57.6155 7.66487ZM53.6282 7.55004C53.6188 6.99503 53.253 6.70796 52.7276 6.84193C52.099 7.0046 51.5173 7.69358 51.4704 8.34428C51.4329 8.89929 51.8363 9.25335 52.3617 9.13852C53.0278 8.99498 53.6282 8.22945 53.6282 7.55004Z" fill="white"/>
<path d="M57.6165 7.68026C57.6165 9.7472 57.6071 11.8046 57.6259 13.8715C57.6259 14.1681 57.5508 14.3212 57.26 14.4169C54.2109 15.4217 51.1712 16.436 48.1221 17.4408C48.0658 17.4599 48.0095 17.4503 47.9438 17.4599C47.972 17.2398 48.1502 17.2111 48.2722 17.125C50.5426 15.5461 52.813 13.9672 55.0928 12.3978C55.3742 12.2065 55.4774 11.9959 55.4774 11.661C55.4681 10.3118 55.4868 8.96253 55.4868 7.61328C56.1998 7.71854 56.9129 7.60371 57.6165 7.68026Z" fill="#B0B0B0"/>
<path d="M53.6279 7.55328C53.6373 8.23269 53.0275 8.99822 52.3707 9.14176C51.8454 9.25658 51.4419 8.90253 51.4795 8.34752C51.517 7.69682 52.0987 6.99827 52.7366 6.84517C53.2526 6.72077 53.6185 7.00784 53.6279 7.55328Z" fill="#B0B0B0"/>
<path d="M4.00448 12.776L1.68424 18.0858H0L2.54402 12.4036C1.35446 11.7789 0.55356 10.6617 0.55356 8.58341C0.55356 5.67624 2.35558 4.22266 4.49915 4.22266H6.67806V18.0737H5.22938V12.764L4.00448 12.776ZM5.22938 5.48403H4.45204C3.27425 5.48403 2.1318 6.27689 2.1318 8.58341C2.1318 10.8178 3.18003 11.5266 4.45204 11.5266H5.22938V5.48403Z" fill="#B0B0B0"/>
<path d="M13.7446 8.31603V18.0827H12.2842V13.6979H10.07V18.0827H8.58594V8.31603H10.07V12.4605H12.2724V8.31603H13.7446ZM21.3532 19.9927H20.0223V18.0707H15.9236V19.9927H14.5927V16.8333H15.1816C16.0531 14.755 16.1473 11.7398 16.1473 9.14493V8.31603H20.5876V16.8453H21.3414C21.3532 16.8333 21.3532 19.9927 21.3532 19.9927ZM19.1389 9.52935H17.49V9.69754C17.49 11.7518 17.3958 14.755 16.5949 16.8333H19.1389V9.52935ZM25.4401 18.2148C23.4614 18.2148 22.2483 16.6051 22.2483 13.6018C22.2483 10.4664 23.1081 8.17188 25.1339 8.17188C26.7239 8.17188 27.7721 9.39721 27.7721 12.7008V13.5297H23.7912C23.7912 15.7401 24.4036 16.9054 25.5814 16.9054C26.4177 16.9054 27.0772 16.521 27.4659 16.2447L27.8074 17.4099C27.195 17.9025 26.3941 18.2148 25.4401 18.2148ZM23.803 12.3044H26.2645C26.2645 10.6346 25.9936 9.42124 25.1456 9.42124C24.227 9.42124 23.909 10.5625 23.803 12.3044ZM30.7755 13.2174V18.0827H29.2915V8.31603H30.7755V12.833L33.0722 8.31603H34.5679L32.1888 12.905L34.9095 18.0827H33.2959L30.7755 13.2174ZM35.1097 13.1933C35.1097 10.13 36.264 8.17188 38.5135 8.17188C39.3733 8.17188 39.868 8.40012 40.2802 8.67642L40.0682 10.106C39.6678 9.7576 39.1024 9.43325 38.49 9.43325C37.43 9.43325 36.6644 10.6586 36.6644 13.1093C36.6644 15.5479 37.2297 16.9414 38.4311 16.9414C39.1495 16.9414 39.7031 16.6531 40.0447 16.3408L40.3862 17.47C39.868 17.9145 39.2673 18.2028 38.3958 18.2028C36.3464 18.2148 35.1097 16.533 35.1097 13.1933Z" fill="white"/>
</svg>
