<svg width="20" height="20" fill="none" xmlns="http://www.w3.org/2000/svg"><g opacity=".7" fill="#999"><path d="M3.672 5.625h.781v.781a.586.586 0 0 0 1.172 0v-.781h.781a.586.586 0 0 0 0-1.172h-.781v-.781a.586.586 0 0 0-1.172 0v.781h-.781a.586.586 0 0 0 0 1.172zm9.101 0h2.344a.586.586 0 0 0 0-1.172h-2.344a.586.586 0 0 0 0 1.172zm2.54 8.71h-2.735a.586.586 0 0 0 0 1.173h2.735a.586.586 0 1 0 0-1.172zm0-1.952h-2.735a.586.586 0 0 0 0 1.172h2.735a.586.586 0 0 0 0-1.172zm-8.883.172a.586.586 0 0 0-.829 0l-.562.562-.562-.563a.586.586 0 0 0-.829.83l.562.561-.562.563a.586.586 0 1 0 .829.828l.562-.562.562.562a.584.584 0 0 0 .829 0 .586.586 0 0 0 0-.828l-.562-.563.562-.562a.586.586 0 0 0 0-.828z"/><path d="M18.984 10.592V1.758A1.76 1.76 0 0 0 17.227 0H1.757A1.76 1.76 0 0 0 0 1.758v15.469c0 .969.789 1.757 1.758 1.757h8.834A6.02 6.02 0 0 0 13.945 20 6.062 6.062 0 0 0 20 13.945a6.02 6.02 0 0 0-1.016-3.353zm-1.172-8.834V9.29a6.027 6.027 0 0 0-3.867-1.4c-1.469 0-2.817.527-3.867 1.4V1.172h7.149c.323 0 .585.263.585.586zM1.759 1.172h7.148v7.734H1.172V1.758c0-.323.263-.586.586-.586zm-.586 16.055v-7.149h7.734v.514a6.02 6.02 0 0 0-1.015 3.353c0 1.47.526 2.818 1.4 3.867H1.757a.587.587 0 0 1-.586-.585zm12.773 1.601a4.888 4.888 0 0 1-4.883-4.883 4.888 4.888 0 0 1 4.883-4.883 4.888 4.888 0 0 1 4.883 4.883 4.888 4.888 0 0 1-4.883 4.883z"/></g></svg>