<svg width="58" height="20" fill="none" xmlns="http://www.w3.org/2000/svg"><g clip-path="url(#clip0)"><path d="M6.962 11.628c-.625-.643-1.378-1.69-1.846-3.206 0 0-.019-.055-.046-.055-.028 0-.055.064-.055.064-1.03 3.334-3.509 4.648-4.354 4.933-.046.018-.046.055-.046.073a9.872 9.872 0 0 0 1.901 3.16c.019.009.046.027.092 0 2.655-1.516 4.17-4.473 4.372-4.887.018-.036 0-.064-.018-.082zm6.024 0c.01 0 .01 0 0 0 .625-.643 1.378-1.69 1.855-3.206 0 0 .019-.055.046-.055.028 0 .056.064.056.064 1.028 3.334 3.508 4.648 4.353 4.933.046.018.046.055.046.073a9.873 9.873 0 0 1-1.901 3.16c-.019.009-.046.027-.092 0-2.664-1.516-4.17-4.473-4.372-4.887-.018-.036.01-.064.01-.082zm1.801 7.035C11.031 15.008 10.04 8.477 10.04 8.477s-.019-.11-.065-.11c-.045 0-.064.11-.064.11s-.983 6.53-4.748 10.186c0 0-.037.037 0 .064a9.94 9.94 0 0 0 4.739 1.23h.129a9.94 9.94 0 0 0 4.739-1.23c.055-.027.018-.064.018-.064zm.404-17.2c-.055-.027-.055.046-.055.046.009 1.176.165 7.678 4.702 9.662.046.019.055-.01.055-.018.046-.386.074-.772.074-1.167a10.005 10.005 0 0 0-4.776-8.523zm-10.415 0c.055-.027.055.046.055.046-.01 1.176-.165 7.678-4.702 9.662-.037.019-.056-.01-.056-.018A9.819 9.819 0 0 1 0 9.986a9.964 9.964 0 0 1 4.776-8.523zm9.809-.343A9.87 9.87 0 0 0 10.268 0c-.046 0-.037.055-.037.055 0 1.984.322 6.622 1.865 9.754.009.037.036.018.055.018l.009-.009c.156-.165 2.553-2.801 2.461-8.624 0-.046-.027-.073-.036-.073zm-9.213 0A9.903 9.903 0 0 1 9.69 0c.046 0 .037.055.037.055 0 1.984-.322 6.622-1.874 9.754-.01.037-.046.018-.046.018-.009 0-.009-.009-.009-.009-.156-.165-2.553-2.801-2.461-8.624 0-.046.018-.073.036-.073zm22.78 3.205h1.018s.165.039.165.178V5h.025c.28-.56.827-.788 1.513-.788v1.195c-.089 0-.165.013-.228.013-.712.076-1.297.47-1.297 1.424v2.009s.025.369-.318.369h-.865V4.325h-.013zm24.756 0h1.005s.178.039.178.178V5h.012c.28-.56.827-.788 1.514-.788v1.195c-.077 0-.153.013-.23.013-.711.076-1.296.47-1.296 1.424v2.009s.025.369-.318.369h-.865V4.325zm-16.936.234v4.463s0 .19-.178.19h-1.005V8.73h-.025c-.267.343-.738.597-1.399.597-.826 0-1.793-.343-1.793-1.767V4.317h1.005s.178.026.178.23v2.67c0 .673.267.966.877.966.89 0 1.157-.649 1.157-1.246V4.305h.992c-.013.025.19.05.19.254zm1.157-.234h.979s.203.026.203.217v.267h.026c.343-.42.864-.598 1.335-.598 1.157 0 1.678.585 1.678 1.666v3.166s.013.19-.165.19h-1.004V6.245c0-.445-.204-.877-.814-.877-.572 0-1.043.381-1.043 1.284v2.39s0 .191-.178.191h-1.004V4.325h-.013zm7.476.966c-.89 0-1.144.775-1.157 1.297.013.521.267 1.297 1.157 1.297s1.157-.776 1.157-1.297c-.012-.522-.267-1.297-1.157-1.297zm2.302-.75v4.577c0 1.272-1.043 1.907-2.365 1.907-1.552 0-2.187-1.08-2.187-1.69H43.6c.089.343.42.61 1.004.61.763 0 1.12-.395 1.12-.992V8.43c-.382.407-.967.547-1.4.547-1.22 0-2.123-.903-2.123-2.378s.903-2.377 2.124-2.377c.712 0 1.093.241 1.373.585h.025v-.47h.98c0-.014.203-.014.203.203zm4.997.7l-.56.521-.114.102a.85.85 0 0 0-.09-.14c-.19-.28-.559-.547-1.156-.547-.547-.012-.89.178-.89.47 0 .853 3.09.128 3.09 1.984 0 1.183-1.056 1.717-2.175 1.717-1.068 0-1.83-.33-2.276-.776-.089-.101.026-.203.026-.203l.775-.598c.267.394.776.61 1.412.61.56 0 .953-.305.953-.572 0-.839-3.039-.14-3.039-2.009 0-1.106.954-1.59 2.175-1.59.991 0 1.576.42 1.882.726.152.152-.013.305-.013.305zm4.412-.913h1.005s.178.013.178.191V9.02s.025.191-.178.191h-.992V4.328h-.013zm1.183-1.83c0-.153-.204-.166-.204-.166h-.991v1.03s-.026.165.178.165h1.017v-1.03zm-29.97 1.83h-1.27c-.242 0-.433.177-.433.177l-1.679 1.666V3.526c0-.216-.178-.356-.178-.356l-1.004-.826v6.891h.979c.229 0 .203-.254.203-.254v-1.31a.1.1 0 0 1 .102-.101c.09 0 .19.114.19.114l1.361 1.36s.242.191.522.191h1.208L25.063 6.77l2.467-2.442zm.063 9.155a1.469 1.469 0 0 0-.432.178 1.164 1.164 0 0 0-.318.293.775.775 0 0 0-.127.458s0 .28.102.457c.076.128.203.268.317.357.115.088.255.165.395.241.14.064.267.127.394.204.114.076.216.152.305.241a.498.498 0 0 1 .114.33c0 .102-.05.191-.152.268-.102.076-.496.165-.916.025-.101-.038-.521-.241-.521-.241v.635c.127.064.229.115.343.153.115.038.369.114.674.114.42 0 .725-.101.928-.305.191-.203.306-.458.306-.763a.69.69 0 0 0-.09-.369 1.16 1.16 0 0 0-.216-.292 1.293 1.293 0 0 0-.292-.229c-.114-.063-.216-.127-.318-.178-.089-.05-.178-.089-.267-.14-.089-.038-.165-.089-.229-.127a.442.442 0 0 1-.165-.178.453.453 0 0 1-.064-.242c0-.088.013-.165.064-.228a.403.403 0 0 1 .152-.14.913.913 0 0 1 .267-.064c.535-.05.967.19.967.19v-.533c-.42-.153-.852-.19-1.22-.115zm9.474 0a1.714 1.714 0 0 0-.445.178 1.007 1.007 0 0 0-.318.293.775.775 0 0 0-.127.458s0 .28.102.457c.076.128.203.268.317.357.115.088.255.165.395.241.14.064.28.127.394.204.127.076.216.152.305.241a.498.498 0 0 1 .114.33c0 .102-.05.191-.152.268-.102.076-.496.165-.916.025-.102-.038-.521-.241-.521-.241v.635c.127.064.229.115.343.153.115.038.369.114.674.114.42 0 .725-.101.916-.305.203-.203.305-.458.305-.763a.83.83 0 0 0-.076-.369 1.576 1.576 0 0 0-.217-.292 1.291 1.291 0 0 0-.292-.229 3.946 3.946 0 0 0-.318-.178c-.089-.05-.178-.089-.267-.14-.076-.038-.153-.089-.229-.127a.555.555 0 0 1-.165-.178.453.453 0 0 1-.064-.242c0-.088.013-.165.064-.228a.404.404 0 0 1 .152-.14.914.914 0 0 1 .267-.064c.535-.05.967.19.967.19v-.533c-.407-.153-.852-.19-1.208-.115zm-8.393 4.056c.09 0 .14.064.14.153v.724c0 .128-.14.191-.14.191l-.42.229v-1.297h.42zm2.62-3.941c.127 0 .178.063.178.203v3.09c0 .165-.166.19-.166.19h-.8l-.954-2.39h.508c.178 0 .217.127.217.127l.534 1.412v-2.632h.483zm7.03-1.066c0 .165-.037.229-.19.229h-2.06v-.013l.305-.394s.077-.114.28-.114h1.12v-.407a.26.26 0 0 1 .114-.23l.432-.228v1.157zm-2.948.827h-.483a.296.296 0 0 0-.242.115l-.076.101a1.796 1.796 0 0 0-.725-.14c-.483 0-.84.128-1.08.382-.23.242-.357.61-.357 1.068v2.2h.432v.013h.051c.115 0 .153-.064.153-.153V15.56h.572c.127 0 .153-.025.204-.089.012 0 .267-.432.267-.432h-1.03c0-.153 0-.305.012-.433a.908.908 0 0 1 .102-.343.499.499 0 0 1 .229-.229c.102-.05.254-.089.445-.089.178 0 .318.026.432.077.115.05.191.114.242.203.05.089.089.19.102.318.012.114.025.254.025.407v2.136h.496c.102 0 .152-.064.152-.153v-2.047c0-.42-.101-.763-.292-1.004l.369-.522zm-9.932.452c-.241-.254-.597-.381-1.068-.381-.483 0-.839.127-1.08.381-.242.242-.357.61-.357 1.068v2.2h.496c.102 0 .153-.064.153-.153V15.032c0-.153 0-.305.013-.432a.906.906 0 0 1 .101-.344.473.473 0 0 1 .242-.229c.102-.05.254-.089.445-.089a.95.95 0 0 1 .42.077c.101.05.178.114.229.216a.78.78 0 0 1 .101.318c.013.114.026.254.026.407v2.123h.483c.102 0 .152-.064.152-.153v-2.059c.013-.458-.114-.814-.356-1.056z" fill="#fff"/></g></svg>