<svg width="20" height="20" fill="none" xmlns="http://www.w3.org/2000/svg"><path d="M20 3H0v7.031h1.4a1.76 1.76 0 0 0 .155 2.306 1.75 1.75 0 0 0 1.146.512 1.751 1.751 0 0 0 1.658 1.657 1.758 1.758 0 0 0 2.627 1.43 1.76 1.76 0 0 0 2.856.545l.158-.159.007.007a1.747 1.747 0 0 0 2.465 0l.018-.017a1.74 1.74 0 0 0 .345-.489 1.76 1.76 0 0 0 2.8-1.317 1.75 1.75 0 0 0 1.656-1.656 1.756 1.756 0 0 0 1.303-2.818H20V3zM2.384 11.509a.587.587 0 0 1 0-.829l.649-.649h.671l.495.492-.986.986a.586.586 0 0 1-.829 0zm1.657 1.657a.587.587 0 0 1 0-.828l.987-.987.829.828-.987.987a.587.587 0 0 1-.829 0zm2.486 1.657a.585.585 0 1 1-.828-.828l.987-.987.828.829-.987.986zm2.486.83a.587.587 0 0 1-.83-.828l.16-.16.828.829-.158.158zm8.595-4.144a.586.586 0 0 1-.828 0l-3.214-3.214-.829.829 3.214 3.213a.587.587 0 0 1-.829.83l-3.214-3.215-.828.829 3.214 3.214a.586.586 0 1 1-.829.829l-3.214-3.214-.829.828 2.238 2.238a.568.568 0 0 1 .003.806l-.018.017a.574.574 0 0 1-.81.002c-3.065-3.063-3.608-3.617-6.648-6.642H1.172V4.172h5.092L3.627 6.809 4.87 8.052a1.757 1.757 0 0 0 2.486 0l1.428-1.427a5.027 5.027 0 0 0 5.173.404l3.651 3.651c.23.23.23.6 0 .829zm1.22-2.65h-1.383l-3.303-3.303-.396.248a3.87 3.87 0 0 1-4.614-.401l-.414-.37-2.19 2.19a.585.585 0 0 1-.83 0l-.414-.414 2.638-2.637h10.906v4.687z"/></svg>