<svg width="200" height="200" fill="none" xmlns="http://www.w3.org/2000/svg"><path d="M200 0H0v200h200V0z" fill="#000"/><path d="M98.759 119.628c122.569 12.475 126.757-25.648 4.449-40.216-122.57-12.563-126.8 25.691-4.45 40.216z" fill="#E31F21"/><path d="M8.642 89.311c4.841-26.215 185.773-6.193 184.682 20.414-4.841 26.215-185.773 6.15-184.682-20.413z" stroke="#000" stroke-width="2.5"/><path d="M98.759 119.628c122.569 12.475 126.757-25.648 4.449-40.216-122.57-12.563-126.8 25.691-4.45 40.216z" fill="#E31F21"/><path d="M8.642 89.311c4.841-26.215 185.773-6.193 184.682 20.414-4.841 26.215-185.773 6.15-184.682-20.413z" stroke="#000" stroke-width=".675"/><path d="M117.602 118.933c82.309 5.453 84.446-22.114 2.181-29.006-82.353-5.453-84.403 22.158-2.181 29.006z" fill="#000"/><path d="M117.602 118.933c82.309 5.453 84.446-22.114 2.181-29.006-82.353-5.453-84.403 22.158-2.181 29.006z" stroke="#000" stroke-width=".675"/><path d="M24.17 94.548c1.135-2.443 2.618-5.758 3.752-8.2-2.66 0-8.898.043-11.603.043-.96 2.181-2.66 5.802-3.62 7.939-.872 1.92-7.502 16.444-8.244 17.927 2.66 0 8.942-.043 11.646-.043l.48-1.091 7.59-16.575z" fill="#000"/><path d="M195.201 93.285c-1.396-2.05-4.449-2.966-9.858-2.922-5.147.043-11.253.698-14.35 5.234-.916-4.536-6.674-5.845-11.734-4.45l.044-.087c-2.574 0-8.419.044-11.036.044-.305.698-2.312 5.103-2.661 5.889-.828-9.117-17.098-6.98-22.289-2.88l1.134-2.486h-2.661c.611-1.352 1.876-4.056 2.487-5.408-2.661 0-8.811.043-11.516.043l-.48 1.09-2.006 4.32h-2.617l-.349.697c-1.44-1.657-5.104-1.832-7.372-1.09-2.093 0-8.287.043-10.425.043-.261.61-2.704 5.932-3.053 6.674-.349-9.77-17.186-7.764-22.638-3.446l1.134-2.486h-2.66c.61-1.352 1.875-4.057 2.485-5.41-2.66 0-8.81.045-11.515.045l-.48 1.09-2.006 4.318H48.16c-.305.655-.916 2.007-1.22 2.661-.132-.349-.263-.654-.48-.96-1.44-2.617-6.544-2.748-9.64-1.832l.087-.174c-2.66 0-8.768.044-11.472.044-1.265 2.748-8.157 17.753-9.334 20.326 2.66 0 8.767-.044 11.471-.044.088-.261 3.926-8.636 4.188-9.203.48-1.047 1.526-1.701 2.835-1.832a2.66 2.66 0 0 1-.218.523c-.873 1.919-3.97 8.637-4.798 10.425 2.66 0 8.767-.043 11.472-.043.697-1.702 4.536-9.771 5.19-11.516h.611l-1.745 3.795c-2.53 5.016-.654 8.07 5.932 7.895 1.44 0 3.403-.262 5.06-.567.306-.611 1.44-3.097 1.745-3.751.13.305.262.61.436.829 1.57 2.399 4.755 3.62 9.553 3.576 5.975-.043 10.73-1.526 14.001-4.318-.305.698-1.352 2.966-1.7 3.708 2.66 0 8.897-.044 11.602-.044.087-.305 3.882-8.462 4.144-9.073 1.875 0 7.371-.043 9.291-.043-.96 2.268-3.621 6.368.305 8.462 1.221.567 2.835.872 4.972.828 1.44 0 3.403-.261 5.06-.567.306-.61 1.44-3.053 1.745-3.707.131.305.262.61.436.829 1.527 2.399 4.711 3.576 9.422 3.533 5.67-.044 10.468-1.832 13.827-5.06-.872 1.876-3.664 7.982-4.493 9.771 2.661 0 8.768-.044 11.472-.044l.48-1.091 2.181-4.71c5.103 2.137 11.777.043 15.659-3.795.087.61.349 1.177.654 1.657 1.396 2.094 4.493 3.01 9.989 2.966 6.543.175 13.566-.698 16.445-6.935.479-1.091 1.09-2.704.479-4.275-.087-.261-.261-.523-.392-.741h1.614l.48-1.178c.741-2.05.654-3.751-.306-5.147zm-137.836 9.553s.61-1.353 1.09-2.356h.262c-.087.175-.174.349-.261.567-.437.96-.742 1.832-.873 2.617h-.523c.087-.305.218-.567.305-.828zm59.453-.393s.611-1.352 1.09-2.355h.262a7.396 7.396 0 0 0-.262.567c-.436.959-.741 1.832-.872 2.617h-.523c.043-.262.174-.567.305-.829zm11.951.698c0-.131.044-.436.262-.96.785-1.788 2.705-3.01 4.493-2.573 0 .13-.044.436-.262.959-.785 1.789-2.704 3.01-4.493 2.574zm30.359-3.664c0 .13-.043.392-.261.916-.698 1.57-2.181 2.573-3.752 2.617-.349 0-.567-.044-.654-.087 0-.131.044-.393.262-.916.698-1.527 2.224-2.574 3.751-2.617.349.043.523.087.654.087zm10.992 2.748h-.305l.131-.262c.087.131.131.175.174.262z" fill="#000"/><path d="M17.235 88.438l7.503-.044-1.92 4.188-7.502.044 1.92-4.188zm-2.573 5.54l7.502-.044-7.59 16.532-7.502.043 7.59-16.531zm11.646-.085l7.371-.043-.785 1.744c2.617-1.395 5.016-2.05 7.459-2.093 4.929-.044 5.845 2.442 3.446 7.677l-4.188 9.159-7.371.044 3.576-7.764c1.047-2.312.916-3.228-1.177-3.228-2.138 0-3.97 1.134-4.798 2.966l-3.752 8.07-7.371.043 7.59-16.575zm24.47 16.659c-1.788 0-3.14-.175-4.1-.655-1.57-.785-1.221-2.224-.13-4.623l2.965-6.456h-2.617l2.138-4.623h2.617l2.486-5.41 7.415-.043-2.486 5.409h2.66l-2.137 4.624h-2.66l-1.57 3.445c-1.658 3.446-1.353 3.534 1.264 3.49l-2.093 4.536c-1.309.175-2.574.306-3.752.306zm17.404-10.469c1.221-1.875 3.315-2.878 5.932-2.878 2.443 0 3.446 1.046 2.792 2.835l-8.724.043zm13.871 4.929l-8.026.044c-1.44 1.745-8.898 2.225-7.066-1.483l15.92-.087a2.12 2.12 0 0 0 .132-.306c3.097-6.717.567-10.25-7.416-10.163-7.59.044-13.26 3.403-15.79 8.898-2.53 5.54.087 8.812 7.677 8.768 6.848 0 11.821-2.007 14.569-5.671zm8.288-11.515l7.328-.044-.48 1.265c1.57-1.09 3.359-1.7 5.321-1.7 5.147-.088 3.97 3.663 1.92 7.851l-6.5.043c0-.043.044-.087.044-.131.742-1.657.567-2.486-.61-2.486-1.353 0-2.225 1.047-3.185 3.141l-3.926 8.549-7.502.044 7.59-16.532zm19.889 16.707c-1.788 0-3.14-.174-4.1-.654-1.57-.785-1.221-2.225-.131-4.624l2.967-6.456h-2.618l2.138-4.623h2.617l2.486-5.409 7.415-.044-2.486 5.41h2.661l-2.137 4.623h-2.661l-1.571 3.446c-1.657 3.446-1.352 3.533 1.265 3.489l-2.093 4.537a39.698 39.698 0 0 1-3.752.305zm16.837-8.681c1.047-2.312 3.228-3.751 5.496-3.751 2.312 0 3.141 1.396 2.094 3.707-1.047 2.312-3.228 3.752-5.496 3.752-2.312 0-3.184-1.396-2.094-3.708zm-7.807.044c-2.53 5.539.043 8.811 7.546 8.767 7.502-.044 13.085-3.402 15.615-8.898 2.53-5.54 0-8.811-7.546-8.768-7.459.044-13.085 3.403-15.615 8.899zm33.456-.176c1.046-2.224 3.227-3.664 5.452-3.708 2.268 0 3.141 1.396 2.094 3.621-1.047 2.224-3.185 3.664-5.453 3.708-2.224 0-3.14-1.396-2.093-3.621zm-13.61 13.653l7.372-.044 3.097-6.717c1.221 1.221 2.966 1.745 5.322 1.745 5.626-.044 10.73-3.446 13.129-8.724 4.449-9.683-6.543-10.163-12.519-6.587l.654-1.613-7.022.043-10.033 21.897zm38.167-10.859c-.436 1.221.306 1.614 2.181 1.614 1.701 0 2.705-.393 3.054-1.134.523-1.134-.873-1.091-3.708-1.353-4.057-.479-9.553-.348-7.154-5.365 1.789-3.925 6.064-5.54 13.479-5.583 7.066-.044 9.858 1.614 8.331 5.496l-8.506.044c.436-1.178-.349-1.57-2.268-1.57-1.701 0-2.704.392-3.053 1.177-.524 1.09.698 1.047 3.228 1.265 3.794.35 6.193.523 7.066.873 2.006.828 2.53 1.962 1.439 4.361-2.006 4.362-6.499 6.02-14.656 6.063-7.328.044-10.119-1.613-8.375-5.801l8.942-.087z" fill="#fff"/></svg>