<svg fill="none" height="200" viewBox="0 0 200 200" width="200" xmlns="http://www.w3.org/2000/svg" xmlns:xlink="http://www.w3.org/1999/xlink"><radialGradient id="a" cx="0" cy="0" gradientTransform="matrix(200.00020331 200.00020331 -200.00020331 200.00020331 0 0)" gradientUnits="userSpaceOnUse" r="1"><stop offset="0" stop-color="#525252"/><stop offset="1"/></radialGradient><linearGradient id="b"><stop offset=".6664" stop-color="#f0f0f0"/><stop offset=".818" stop-color="#f0f0f0"/><stop offset=".8429" stop-color="#f0f0f0"/><stop offset=".8764" stop-color="#ebebeb"/><stop offset=".9156" stop-color="#ddd"/><stop offset=".9576" stop-color="#c5c5c5"/><stop offset="1" stop-color="#a6a6a6"/></linearGradient><linearGradient id="c" gradientUnits="userSpaceOnUse" x1="59.4328" x2="59.4328" xlink:href="#b" y1="42.5293" y2="83.6212"/><linearGradient id="d" gradientUnits="userSpaceOnUse" x1="113.393" x2="113.393" xlink:href="#b" y1="42.6467" y2="83.6212"/><linearGradient id="e" gradientUnits="userSpaceOnUse" x1="37.3017" x2="37.3017" xlink:href="#b" y1="95.8169" y2="123.733"/><linearGradient id="f" gradientUnits="userSpaceOnUse" x1="71.8027" x2="71.8027" xlink:href="#b" y1="96.3379" y2="123.387"/><linearGradient id="g" gradientUnits="userSpaceOnUse" x1="102.436" x2="102.436" xlink:href="#b" y1="96.3377" y2="123.3"/><linearGradient id="h" gradientUnits="userSpaceOnUse" x1="132.81" x2="132.81" xlink:href="#b" y1="96.3377" y2="123.3"/><linearGradient id="i" gradientUnits="userSpaceOnUse" x1="164.966" x2="164.966" xlink:href="#b" y1="96.3377" y2="123.3"/><path d="m200 0h-200v200h200z" fill="url(#a)"/><path d="m41.748 83.605s7.9199-1.5952 10.4939-10.1692c1.98-6.3807 6.4349-20.6376 8.7119-27.8159.792-2.3927 3.2669-3.5891 5.5439-2.8912l10.5929 3.29s-4.752 19.7403-7.4249 25.8219c-2.673 6.0816-6.1379 11.6647-12.7709 11.6647-6.6329 0-15.1468.0997-15.1468.0997z" fill="url(#c)"/><path d="m72.9503 73.3654 8.5261-27.4381c.8025-2.4853 3.4104-3.9765 5.9181-3.1812l69.0115 21.7715c4.614 1.3918 6.219 7.1578 3.209 10.8361l-6.82 8.2513h-87.1671s4.5138-1.193 7.3224-10.2396z" fill="url(#d)"/><path d="m60.5474 70.2991c.7558 2.2316.8502 3.7532.8502 3.7532s.9448-1.2173 2.8342-2.4345c1.7949-1.2173 3.212-1.7245 3.3064-1.7245 0 0-.8502-1.3186-1.606-3.5503-.7557-2.2316-.8502-3.7532-.8502-3.7532s-.9447 1.2173-2.8341 2.4345c-1.795 1.2173-3.212 1.7245-3.3065 1.7245 0 0 .8502 1.3187 1.606 3.5503z" fill="#f00"/><path d="m87.9889 64.3777c-1.0286-.3147-2.0573 0-2.9831.9443-.1029-1.259-.7201-2.3082-1.7487-2.623-1.2344-.4197-2.7774.4197-3.1889 1.6787-.2057.7345-.1029 1.5739.1029 2.4132.3086.7345.72 1.4689 1.1315 2.0984.6172.9443 1.2344 2.0984 1.3373 3.2526.8229-.7345 1.9544-1.2591 2.9831-1.6788.7201-.3147 1.543-.5246 2.1602-.9442.7201-.4197 1.2344-1.0492 1.543-1.7837.5143-1.259-.1029-2.9378-1.3373-3.3575z" fill="#f00"/><path d="m66.718 60.2394.2014-.6042c1.1076.1007 1.2083-.1007 1.2083-.9063 0-.7048 0-1.6111-.1007-2.6181l-3.3229-.9062c-.4028.6041-.8056 1.309-1.2084 1.9132-.7049 1.1076-.4028 1.309.9063 1.9132l-.2014.6042-3.9272-1.1077.2014-.6041c1.1077.1007 1.4098 0 2.4167-1.4098l6.1425-8.8613h.7049c.1007 3.5244.3021 7.3509.5035 10.7745.1007 1.9133.2014 2.014 1.309 2.5174l-.2014.6042zm1.1077-9.7676c-.9063 1.3091-1.8126 2.6181-2.6181 3.9272l2.7188.8056z" fill="#f00"/><path d="m87.0578 60.2394.2014-.6042c1.1077.1007 1.2084-.1007 1.2084-.9063 0-.7048 0-1.6111-.1007-2.6181l-3.323-.9062c-.4028.6041-.8056 1.309-1.2083 1.9132-.7049 1.1076-.4028 1.309.9062 1.9132l-.2014.6042-3.9271-1.1077.2014-.6041c1.1076.1007 1.4097 0 2.4167-1.4098l6.1424-8.8613h.7049c.1007 3.5244.3021 7.3509.5035 10.7745.1007 1.9133.2014 2.014 1.3091 2.5174l-.2014.6042zm1.1077-9.7676c-.9063 1.3091-1.8125 2.6181-2.6181 3.9272l2.7188.8056z" fill="#f00"/><path d="m38.5169 112.685v-3.216h13.3834v10.081c-2.0857 1.391-4.1714 2.434-6.3441 3.129-2.1726.695-4.4321 1.043-6.6916 1.043-3.1286 0-5.9096-.609-8.4298-1.738-2.5203-1.13-4.4322-2.781-5.7358-4.954-1.3905-2.086-1.9988-4.432-1.9988-7.126 0-2.607.6083-5.128 1.9119-7.387 1.3036-2.26 3.1286-3.9978 5.5619-5.1275 2.4334-1.1298 5.2143-1.6512 8.3429-1.6512 2.2596 0 4.3453.3476 6.1703.9559 1.825.6084 3.3024 1.4774 4.3453 2.6072 1.0428 1.1296 1.825 2.6076 2.4333 4.4326l-3.7369.869c-.4345-1.391-1.0429-2.434-1.7381-3.216-.6953-.782-1.7381-1.3904-3.0417-1.9118-1.3036-.4345-2.781-.6952-4.3453-.6952-1.9119 0-3.5631.2607-4.9536.7821-1.3904.5219-2.5202 1.1299-3.3893 1.9989-.869.782-1.4773 1.738-1.9988 2.694-.869 1.651-1.2166 3.476-1.2166 5.475 0 2.433.5214 4.432 1.4773 6.083.956 1.652 2.3465 2.868 4.2584 3.65 1.825.783 3.8238 1.217 5.9095 1.217 1.825 0 3.5632-.261 5.3013-.869s3.0416-1.217 3.9107-1.912v-5.04h-9.3858z" fill="url(#e)"/><path d="m57.8965 123.289v-27.0273h13.9917c2.781 0 4.9536.2607 6.431.6953 1.4774.5214 2.6071 1.3035 3.4762 2.6071.869 1.2169 1.3036 2.6069 1.3036 4.0849 0 1.912-.6953 3.563-2.1727 4.866-1.4773 1.304-3.7369 2.173-6.6917 2.521 1.1298.434 1.912.869 2.5203 1.39 1.2167.956 2.3464 2.173 3.4762 3.563l5.475 7.387h-5.3012l-4.1714-5.649c-1.2167-1.651-2.2596-2.868-3.0417-3.737-.7822-.869-1.4774-1.477-2.0857-1.825-.6084-.347-1.3036-.608-1.9119-.695-.4346-.087-1.2167-.087-2.3465-.087h-4.8667v11.906zm4.1714-15.121h8.9513c1.9119 0 3.3893-.174 4.519-.522 1.0429-.347 1.9119-.869 2.4334-1.651.5214-.782.869-1.564.869-2.433 0-1.304-.5214-2.347-1.6512-3.129-1.0428-.782-2.7809-1.2165-5.1274-1.2165h-9.9941z" fill="url(#f)"/><path d="m87.6172 123.289 12.1667-27.0273h4.5191l12.949 27.0273h-4.78l-3.737-8.169h-13.2094l-3.4762 8.169zm9.125-11.124h10.6898l-3.303-7.473c-1.043-2.26-1.738-4.172-2.259-5.6493-.435 1.7383-.956 3.4763-1.738 5.1273z" fill="url(#g)"/><path d="m120.382 123.289v-27.0273h4.258l16.599 21.2053v-21.2053h3.998v27.0273h-4.259l-16.599-21.205v21.205z" fill="url(#h)"/><path d="m151.929 123.289v-27.0273h10.863c2.433 0 4.345.0869 5.649.3476 1.825.3477 3.389 1.0429 4.606 1.912 1.651 1.2166 2.954 2.7807 3.737 4.6057.869 1.912 1.216 3.998 1.216 6.431 0 2.086-.26 3.911-.869 5.475-.608 1.565-1.303 2.868-2.172 3.911s-1.825 1.825-2.868 2.433c-1.043.609-2.26 1.043-3.737 1.391-1.478.347-3.129.434-5.041.434h-11.384zm4.171-3.128h6.779c2.085 0 3.737-.174 4.866-.522 1.217-.347 2.173-.782 2.868-1.39.956-.869 1.738-1.999 2.347-3.39.521-1.39.869-3.128.869-5.214 0-2.868-.522-5.04-1.651-6.518-1.043-1.477-2.434-2.52-3.998-3.041-1.13-.3481-2.955-.5219-5.388-.5219h-6.605v20.5969z" fill="url(#i)"/><g fill="#f00"><path d="m60.9785 150.29v-14.52h6.3638c1.1653 0 1.9719.089 2.5994.179.8066.089 1.5237.358 2.0615.717.5378.358.9859.807 1.3444 1.434.3586.627.5378 1.255.5378 1.972 0 1.255-.4481 2.241-1.3444 3.137s-2.5993 1.255-4.9298 1.255h-4.3919v5.915h-2.2408zm2.2408-7.619h4.3919c1.4341 0 2.5097-.269 3.0475-.717.6274-.448.8963-1.075.8963-1.972 0-.627-.1792-1.165-.5378-1.524-.3585-.448-.8067-.717-1.4341-.896-.3585-.089-1.0755-.089-2.0615-.089h-4.3023z"/><path d="m75.8564 143.208c0-2.42.7171-4.302 2.2408-5.646 1.5238-1.345 3.4957-2.062 5.8261-2.062 1.5237 0 2.9578.359 4.2127.986 1.2548.627 2.2407 1.524 2.8682 2.689.6274 1.165.9859 2.42.9859 3.854s-.3585 2.779-1.0756 3.944c-.717 1.165-1.703 2.061-2.9578 2.599-1.2549.628-2.689.896-4.1231.896-1.6133 0-3.0474-.358-4.3023-.986-1.2548-.627-2.2408-1.523-2.8682-2.688-.4481-1.166-.8067-2.331-.8067-3.586zm2.3305 0c0 1.793.5378 3.137 1.6133 4.123 1.0756.986 2.5097 1.524 4.1231 1.524 1.703 0 3.0474-.538 4.2127-1.524 1.0755-.986 1.6133-2.42 1.6133-4.302 0-1.165-.2689-2.241-.717-3.137-.4482-.896-1.1652-1.524-2.0616-2.062-.8963-.448-1.8822-.717-3.0474-.717-1.6134 0-2.9579.449-4.1231 1.434-1.0755.897-1.6133 2.51-1.6133 4.661z"/><path d="m94.9492 150.29v-14.52h2.2408v7.17l8.425-7.17h3.048l-7.081 5.915 7.439 8.605h-2.957l-6.006-7.35-2.7784 2.33v5.02z"/><path d="m110.903 150.29v-14.52h12.28v1.703h-10.039v4.481h9.411v1.703h-9.411v4.93h10.397v1.703z"/><path d="m126.229 150.29v-14.52h7.53c1.523 0 2.688.089 3.406.358.806.269 1.434.717 1.882 1.345.448.627.717 1.344.717 2.151 0 .986-.359 1.882-1.165 2.599-.807.717-1.972 1.165-3.586 1.344.628.269 1.076.449 1.345.718.627.537 1.255 1.165 1.882 1.971l2.958 3.944h-2.779l-2.24-3.047c-.628-.897-1.166-1.524-1.614-1.972s-.806-.807-1.165-.986-.717-.269-.986-.359c-.269-.089-.627-.089-1.255-.089h-2.599v6.453h-2.331zm2.241-8.157h4.84c.986 0 1.793-.089 2.42-.269.538-.179.986-.448 1.345-.896.269-.358.448-.807.448-1.344 0-.717-.269-1.255-.896-1.703-.538-.448-1.524-.628-2.779-.628h-5.378z"/></g></svg>