<svg width="14" height="11" fill="none" xmlns="http://www.w3.org/2000/svg"><path fill-rule="evenodd" clip-rule="evenodd" d="M14 1.296c-.51.22-1.062.37-1.654.45A2.717 2.717 0 0013.617.197a5.83 5.83 0 01-1.832.675C11.23.29 10.532 0 9.693 0c-.793 0-1.47.271-2.03.813-.56.542-.84 1.197-.84 1.963 0 .256.022.468.068.635a8.345 8.345 0 01-3.309-.86A8.094 8.094 0 01.957.503C.693.943.561 1.41.561 1.904c0 1.005.414 1.776 1.244 2.314-.429-.01-.884-.124-1.367-.344 0 .687.227 1.276.683 1.791a2.893 2.893 0 001.682.959c-.265.07-.497.106-.698.106-.118 0-.296-.018-.533-.053.192.555.531 1.013 1.019 1.375a2.788 2.788 0 001.66.555 5.797 5.797 0 01-3.567 1.19c-.237 0-.465-.013-.684-.04A8.256 8.256 0 004.402 11c1.021 0 1.978-.156 2.871-.47.894-.312 1.66-.73 2.297-1.255a8.434 8.434 0 001.648-1.812 7.862 7.862 0 001.025-2.141 7.724 7.724 0 00.335-2.228c0-.159-.004-.278-.013-.357A5.482 5.482 0 0014 1.296z" fill="#fff"/></svg>