<svg fill="none" height="200" width="200" xmlns="http://www.w3.org/2000/svg" xmlns:xlink="http://www.w3.org/1999/xlink"><radialGradient id="a" cx="0" cy="0" gradientTransform="matrix(176.00029205 176.00029205 -176.00029205 176.00029205 11.999883 11.999719)" gradientUnits="userSpaceOnUse" r="1"><stop offset="0" stop-color="#f5ca59"/><stop offset="1" stop-color="#c69517"/></radialGradient><clipPath id="b"><path d="m0 0h200v200h-200z"/></clipPath><g clip-path="url(#b)"><path d="m100 200c-55.2 0-100-44.8-100-100s44.8-100 100-100 100 44.8 100 100-44.8 100-100 100z" fill="#fff"/><path d="m100 0c-11.6 0-23.6 2.1-34.3 6l4.5 12.2c9.5-3.4 19.5-5.2 29.8-5.2zm-64.4 23.5c-8.9 7.5-16.5 16.6-22.3 26.7l11.3 6.5c5.1-8.8 11.6-16.7 19.4-23.3zm-34.2 59.5c-.9 5.6-1.4 11.3-1.4 17 0 6 .5 12 1.6 17.8l12.8-2.3c-1.8-9.9-1.8-20.4-.1-30.3zm23.5 60.9-11.2 6.6c5.9 10.1 13.6 19.1 22.6 26.5l8.3-10c-7.9-6.5-14.6-14.3-19.7-23.1zm45.9 38.1-4.4 12.2c11 3.9 22.7 5.9 34.3 5.8l-.1-13c-10.1.1-20.2-1.6-29.8-5zm85.8-15.9c-7.8 6.7-16.5 11.9-26.1 15.4l4.6 12.2c11-4.1 21.1-10.1 30-17.7zm29.3-52c-1.6 10.1-5 19.7-10 28.6l11.3 6.4c5.6-10 9.6-21.1 11.5-32.9zm0-65.3-11.2 6.7c5.2 8.8 8.9 18.3 10.7 28.3l12.8-2.4c-2.1-11.7-6.3-22.5-12.3-32.6zm-53.2-43.3-4.3 12.3c9.6 3.3 18.5 8.3 26.4 14.8l8.2-10.1c-8.9-7.4-19.2-13.2-30.3-17z" fill="#dbac34"/><path d="m100 188c-48.552 0-88-39.448-88-88s39.448-88 88-88 88 39.448 88 88-39.448 88-88 88z" fill="url(#a)"/><path d="m59.006 71.12c-3.44-2.16-6.88-3.28-10.48-3.28-8.48 0-14.72 6.88-14.72 16.32 0 6.72 2.24 10.8 8.48 15.68l3.84 2.96c2.72 2.08 4.24 4.72 4.24 7.52 0 3.52-2.08 5.68-5.52 5.68-3.04 0-6.48-1.28-10.88-4.16l1.36 12.8c5.28 2.16 8.16 2.88 11.52 2.88 9.36 0 15.92-7.04 15.92-17.2 0-7.28-2.48-11.28-10.96-18l-3.12-2.4c-1.84-1.44-2.72-3.12-2.72-5.2 0-2.96 1.92-4.88 4.96-4.88 2.08 0 4.56 1.04 8.08 3.52zm28.8 43.92c-1.52.16-2.16.24-3.2.24-2.96 0-4.16-1.36-4.16-4.64v-18.24h6.96v-10.56h-6.96v-13.76l-11.2 1.28v12.48h-3.76v10.56h3.76v17.6c0 5.04.56 7.92 2 10.32 2.16 3.68 6.56 6 11.36 6 1.36 0 2.16-.08 4.24-.32zm25.035-33.2v21.36c0 4.88-.32 8.08-1.04 9.52-1.04 2.24-3.04 3.76-5.04 3.76-2.64 0-3.52-1.76-3.52-7.12v-28.8l-11.2 1.28v29.92c0 10.72 3.04 15.52 9.68 15.52 4.16 0 6.96-1.6 11.12-6.24v6.24l11.2-1.28v-45.44zm51.362-13.76-11.76 1.28v12.48c-2.32-.96-3.76-1.28-5.76-1.28-9.92 0-16.56 9.6-16.56 23.92 0 13.52 5.84 22.8 14.4 22.8 2.96 0 5.36-.96 8.48-3.44l.64 3.44 11.12-1.28c-.4-3.84-.56-7.36-.56-14.56zm-11.76 45.68c-2.16 1.92-3.6 2.64-5.36 2.64-3.76 0-5.76-4.16-5.76-12 0-8.64 2.32-13.04 6.72-13.04 1.52 0 2.56.4 4.4 1.6z" fill="#fff"/></g></svg>