<svg width="20" height="20" fill="none" xmlns="http://www.w3.org/2000/svg"><path d="M19.925 3.53a.604.604 0 0 0-.357-.316l-3.513-1.086V.667c0-.369-.263-.667-.586-.667H4.53c-.323 0-.586.298-.586.667v1.46L.432 3.215a.604.604 0 0 0-.357.317.748.748 0 0 0-.052.512L3.97 19.519v.003c.072.276.296.478.562.478H15.47c.265 0 .49-.2.561-.476l.002-.005 3.945-15.476a.749.749 0 0 0-.052-.512zM3.945 14.643l-2.63-10.32 2.63-.812v11.132zm10.938 4.025H5.117V1.333h9.766v17.334zm1.172-4.025V3.51l2.63.813-2.63 10.319z" fill="#999"/><path d="M6.953 9.055c0 2.026 2.453 3.857 2.733 4.06.096.069.205.104.314.104.11 0 .218-.035.314-.104.28-.203 2.733-2.034 2.733-4.06 0-1.254-.897-2.274-1.999-2.274-.373 0-.736.12-1.048.339a1.825 1.825 0 0 0-1.048-.339c-1.102 0-1.999 1.02-1.999 2.274zm1.999-.94c.236 0 .454.11.613.31.111.14.27.22.435.22.166 0 .323-.08.435-.22.159-.2.377-.31.613-.31.456 0 .827.422.827.94 0 .865-1.046 2.01-1.874 2.69-.7-.58-1.876-1.75-1.876-2.69 0-.518.37-.94.827-.94zm4.174 8.996c.323 0 .585-.299.585-.667 0-.368-.262-.667-.585-.667-.324 0-.586.299-.586.667 0 .368.262.667.586.667zM7.266 3.997c.323 0 .586-.298.586-.666 0-.368-.263-.667-.586-.667-.324 0-.586.299-.586.667 0 .368.262.666.586.666z" fill="#999"/></svg>