<svg width="200" height="200" fill="none" xmlns="http://www.w3.org/2000/svg"><path d="M200 0H0v200h200V0z" fill="url(#paint0_radial)"/><path d="M55.095 75.055h-1.718v2.565h1.718v-2.565zm86.861 2.565h-3.351v-2.565h3.351v2.565zm-6.701 0h-3.351v-2.565h3.351v2.565zm-6.616 0h-3.351v-2.565h3.351v2.565zm-6.701 0h-3.351v-2.565h3.351v2.565zm-6.702 0h-3.35v-2.565h3.35v2.565zm-6.701 0h-3.351v-2.565h3.351v2.565zm-6.616 0h-3.35v-2.565h3.35v2.565zm-6.7 0h-3.352v-2.565h3.351v2.565zm-6.702 0h-3.351v-2.565h3.35v2.565zm-6.702 0h-3.35v-2.565h3.35v2.565zm-6.701 0h-3.35v-2.565h3.35v2.565zm-6.616 0h-3.35v-2.565h3.35v2.565zm-6.701 0h-3.35v-2.565h3.35v2.565zm85.23-2.565h-1.718v2.565h1.718v-2.565z" fill="#FC002A"/><path d="M100.201 114.388c-20.62 0-37.373-16.673-37.373-37.194C62.828 56.674 79.582 40 100.201 40c20.62 0 37.374 16.673 37.374 37.194 0 20.52-16.754 37.194-37.374 37.194zm0-68.403c-17.269 0-31.359 14.023-31.359 31.209s14.09 31.209 31.359 31.209c17.269 0 31.359-14.023 31.359-31.21 0-17.185-14.09-31.208-31.359-31.208z" fill="#fff"/><path d="M78.122 58.81c4.365 0 7.904-3.521 7.904-7.866 0-4.344-3.539-7.866-7.904-7.866s-7.904 3.522-7.904 7.866c0 4.345 3.539 7.867 7.904 7.867z" fill="#241F20"/><path d="M75.714 108.829c4.033 0 7.303-3.254 7.303-7.268 0-4.014-3.27-7.268-7.303-7.268-4.033 0-7.303 3.254-7.303 7.268 0 4.014 3.27 7.268 7.303 7.268z" fill="#fff"/><path d="M68.842 76.766c.258-17.015 14.176-30.78 31.359-30.78s31.102 13.765 31.359 30.78h6.015C137.317 56.416 120.649 40 100.201 40c-20.447 0-37.115 16.417-37.373 36.766h6.014z" fill="#241F20"/><path d="M23.315 151.106v-22.735h2.213v9.733h13.779v-9.733h2.213v22.735h-2.213v-11.154H25.528v11.154h-2.213zm24.844-11.365c0-1.635.214-3.198.714-4.69a10.225 10.225 0 0 1 2.07-3.765c.928-1.066 2-1.918 3.356-2.558 1.356-.639 2.855-.923 4.64-.923 1.785 0 3.427.284 4.783.923 1.356.64 2.499 1.492 3.427 2.558.928 1.066 1.57 2.345 2.07 3.837.428 1.491.714 3.055.714 4.689s-.214 3.197-.714 4.618a10.217 10.217 0 0 1-2.07 3.765c-.928 1.066-2.07 1.918-3.427 2.558-1.356.639-2.927.923-4.712.923-1.784 0-3.355-.284-4.711-.923-1.357-.64-2.499-1.492-3.427-2.558-.928-1.066-1.57-2.344-2.07-3.765a16.908 16.908 0 0 1-.643-4.689zm10.851 10.088c1.5 0 2.785-.284 3.927-.852 1.07-.569 1.999-1.279 2.713-2.203.713-.923 1.213-1.989 1.57-3.197s.5-2.487.5-3.836c0-1.563-.214-2.984-.571-4.263-.429-1.279-1-2.345-1.714-3.197-.785-.853-1.642-1.563-2.712-1.99-1.071-.497-2.285-.71-3.641-.71-1.5 0-2.784.284-3.855.852a8.425 8.425 0 0 0-2.713 2.274c-.714.924-1.214 1.989-1.57 3.197-.358 1.208-.5 2.487-.5 3.837 0 1.349.142 2.628.5 3.836.356 1.208.856 2.274 1.57 3.197.714.924 1.57 1.634 2.713 2.203.928.568 2.213.852 3.783.852zm19.704-9.096v10.302h-2.213v-22.664h9.138c2.57 0 4.497.497 5.854 1.421 1.356.924 2.07 2.487 2.07 4.547 0 1.421-.286 2.558-.857 3.41-.57.853-1.57 1.563-2.927 2.132a3.772 3.772 0 0 1 1.642.994c.357.427.714.924.857 1.492.214.569.286 1.137.357 1.776.071.64.071 1.208.143 1.848 0 .852.071 1.563.142 2.131.072.568.143 1.066.215 1.421.071.355.142.639.285.853.143.213.214.355.357.426v.213H91.35c-.214-.355-.428-.924-.5-1.563-.071-.639-.143-1.35-.214-2.131-.071-.711-.071-1.421-.143-2.132 0-.71-.071-1.279-.142-1.705a4.11 4.11 0 0 0-.643-1.492 3.158 3.158 0 0 0-1.07-.852c-.43-.214-.858-.285-1.357-.356-.5-.071-1-.071-1.57-.071h-6.997zm6.853-1.776c.786 0 1.571-.071 2.285-.284.714-.142 1.285-.426 1.856-.782.5-.355.928-.852 1.214-1.421.285-.568.428-1.278.428-2.06 0-.852-.143-1.563-.5-2.06a2.791 2.791 0 0 0-1.285-1.279c-.5-.284-1.142-.569-1.784-.64a10.43 10.43 0 0 0-2.142-.213h-6.996v8.739h6.924z" fill="#fff"/><path d="M100.844 151.106v-22.735h2.213v22.735h-2.213z" fill="#FC002A"/><path d="M109.197 151.106v-1.776l14.921-19.112h-13.707v-1.847h16.419v1.776l-14.92 19.112h14.992v1.847h-17.705zm21.345-11.365c0-1.635.214-3.198.714-4.69a10.222 10.222 0 0 1 2.07-3.765c.928-1.066 1.999-1.918 3.355-2.558 1.357-.639 2.856-.923 4.641-.923 1.784 0 3.426.284 4.783.923 1.356.64 2.498 1.492 3.427 2.558.928 1.066 1.57 2.345 2.07 3.837.428 1.491.714 3.055.714 4.689s-.214 3.197-.714 4.618a10.228 10.228 0 0 1-2.07 3.765c-.929 1.066-2.071 1.918-3.427 2.558-1.357.639-2.927.923-4.712.923-1.785 0-3.355-.284-4.712-.923-1.356-.64-2.498-1.492-3.426-2.558-.928-1.066-1.571-2.344-2.07-3.765a16.886 16.886 0 0 1-.643-4.689zm10.851 10.088c1.499 0 2.784-.284 3.927-.852 1.07-.569 1.998-1.279 2.712-2.203.714-.923 1.214-1.989 1.571-3.197s.5-2.487.5-3.836c0-1.563-.215-2.984-.571-4.263-.429-1.279-1-2.345-1.714-3.197-.785-.853-1.642-1.563-2.713-1.99-1.07-.497-2.284-.71-3.64-.71-1.5 0-2.785.284-3.855.852a8.424 8.424 0 0 0-2.713 2.274c-.714.924-1.214 1.989-1.571 3.197s-.5 2.487-.5 3.837c0 1.349.143 2.628.5 3.836.357 1.208.857 2.274 1.571 3.197.714.924 1.57 1.634 2.713 2.203.928.568 2.284.852 3.783.852zm19.774-18.545l-.071 19.822h-2.213v-22.735h2.498l13.422 19.822h.071v-19.822h2.213v22.735h-2.57l-13.35-19.822z" fill="#fff"/><path d="M23.315 138.105h18.133v2.203H23.315v-2.203z" fill="#FC002A"/><defs><radialGradient id="paint0_radial" cx="0" cy="0" r="1" gradientUnits="userSpaceOnUse" gradientTransform="rotate(45) scale(282.843)"><stop offset=".115" stop-color="#C1C1C1"/><stop offset="1" stop-color="#050505"/></radialGradient></defs></svg>